<svg width="960" height="1707" xmlns="http://www.w3.org/2000/svg" xmlns:xlink="http://www.w3.org/1999/xlink" overflow="hidden"><defs><clipPath id="clip0"><rect x="0" y="0" width="960" height="1707"/></clipPath></defs><g clip-path="url(#clip0)"><rect x="0" y="0" width="960" height="1707.33" fill="#FFFFFF"/><path d="M728 1653.34C727.463 1648.52 728.712 1641.63 727.235 1633.16 728.017 1643.36 726.63 1646.6 726.468 1657.31 723.647 1650.1 727.214 1633.14 725.7 1621.89 725.545 1626.73 722.772 1634.74 724.161 1639.49 722.294 1634.62 723.746 1627.96 723.39 1623.64 723.949 1627.99 722.589 1629.17 722.616 1634.29 721.336 1628.25 724.268 1620.24 721.842 1612.94 722.359 1615.13 720.784 1619.34 721.067 1621.58 720.636 1619.92 721.019 1618.91 720.29 1617.48 718.742 1608.67 720.885 1601.54 719.512 1587.08 719.734 1595.97 718.56 1600.99 718.733 1606.42 718.874 1612.2 717.516 1625.77 717.171 1631.29 717.015 1631.55 716.669 1631.82 716.389 1632.44 715.888 1618.5 718.073 1609.29 715.604 1598.65 715.14 1596.77 715.403 1594.89 714.819 1593.87 718.356 1619.26 709.026 1633.43 714.032 1647.92 713.557 1646.58 713.885 1646.33 713.244 1644.88 711.381 1637.46 713.054 1631.42 712.455 1625.47 712.779 1626.82 711.683 1628.75 711.664 1630.56 711.128 1629.74 711.514 1628.78 710.872 1627.11 710.228 1624.35 710.394 1623.16 710.078 1620.79 710.195 1626.87 708.492 1631.69 709.284 1639.82 710.081 1644.18 707.496 1647.92 708.487 1652.26 708.307 1652.54 707.883 1652.95 707.69 1653.34 708.164 1656.65 706.865 1660.34 706.891 1662.81 704.415 1657.4 707.548 1646.87 706.091 1641.71 708.54 1652.96 703.656 1655.58 705.29 1667.32 705.004 1667.86 704.73 1668.14 704.487 1668.67 704.117 1667.98 704.18 1667.29 703.683 1666.29 701.643 1662.02 703.686 1656.98 702.877 1648.61 701.585 1634.4 704.257 1630.03 702.466 1614.43 700.674 1598.82 702.491 1590.09 702.07 1581.59 706.916 1598.22 697.293 1616.58 701.666 1628.46 706.039 1640.33 697.532 1653.71 701.262 1675.33 700.301 1669.16 702.183 1665.57 700.452 1662.14 699.101 1657.82 701.695 1649.75 699.641 1645.84 699.693 1651.81 697.574 1661.2 698.828 1667.75 698.239 1666.64 698.897 1664.71 698.014 1662.89 698.497 1666.87 696.911 1670.37 697.199 1672.89 696.801 1672.32 696.744 1671.81 696.382 1671.49 695.213 1647.06 699.617 1635.87 695.564 1619.34 697.276 1640.31 693.724 1648.76 694.744 1662.68 694.684 1665.2 693.003 1669.21 693.923 1674.7 688.445 1654.88 696.097 1646.08 693.148 1623.97 690.2 1601.85 695.326 1588.62 692.276 1566.75 696.388 1586.44 690.203 1602.38 691.863 1619.07 693.523 1635.75 689.188 1659.8 691.45 1671.38 690.915 1670.35 691.207 1669.79 690.623 1668.51 690.683 1669.46 690.004 1670.22 689.794 1671.33 687.543 1661.72 690.944 1654.97 688.965 1649.46 687.561 1643.63 691.426 1631.01 688.133 1623.84 688.013 1624.83 687.584 1625.37 687.3 1626.4 687.087 1626.16 686.805 1625.68 686.466 1625.47 684.824 1619.83 687.231 1618.43 685.629 1611.83 680.275 1598.08 686.479 1570.92 685.227 1557.01 683.975 1543.11 691.975 1523.22 684.792 1497.62 685.365 1501.51 683.888 1501.77 683.953 1505.76 689.521 1523.96 682.514 1541.53 683.112 1557.35 684.273 1560.34 681.344 1565.63 682.269 1569.91 681.791 1566.04 682.3 1562.83 681.426 1557.25 676.22 1532.08 686.231 1515.48 681.011 1501.83 675.791 1488.19 686.327 1471.85 680.58 1444.15 681.257 1466.34 679.38 1475.42 679.733 1490.79 679.624 1492.03 678.691 1493.66 678.884 1496.05 679.113 1504.83 676.458 1510.85 678.034 1517.67 678.837 1538.41 677.198 1543.71 677.591 1560.04 677.984 1576.37 673.731 1582.01 677.182 1599.15 676.812 1598.99 676.579 1598.77 676.329 1598.64 676.302 1602.04 674.539 1609.96 675.474 1612.9 674.398 1609.33 675.857 1604.29 674.617 1601.92 671.342 1586.3 675.851 1574.21 674.188 1564.5 672.525 1554.8 677.489 1543.28 673.759 1527.08 672.111 1504.04 678.991 1495.61 673.464 1480.45 667.938 1465.3 675.434 1448.68 673.203 1439.26 670.973 1429.84 675.441 1412.57 672.9 1391.27 673.645 1400.69 670.76 1417.51 672.495 1435.03 674.229 1452.56 671.722 1467.2 672.038 1484.38 675.665 1499.83 671.69 1511.41 671.776 1526.17 671.862 1540.93 666.652 1555.02 671.514 1567.96 676.376 1580.9 669.537 1603.04 671.175 1622.15 671.319 1624.67 670.099 1626.27 670.31 1628.38 669.96 1628.99 669.619 1629.17 669.443 1629.79 667.474 1613.75 670.986 1599.65 669.162 1575.4 667.339 1551.15 669.651 1545.39 668.873 1519.33 668.095 1493.26 669.49 1488.34 668.575 1461.57 672.829 1480.29 665.929 1494.35 668.122 1503.19 670.316 1512.02 666.903 1523.94 667.705 1541.6 668.3 1552.31 661.391 1576.93 667.251 1595.06 673.112 1613.18 662.385 1629.6 666.833 1644.4 664.511 1635.32 666.573 1626.08 665.96 1616.31 668.838 1633.32 665.08 1637.65 665.085 1651.3 665.231 1653.41 663.233 1659.33 664.208 1661.72 663.823 1650.49 665.85 1643.77 663.329 1627.48 664.908 1633.8 660.53 1643.56 662.449 1651.68 662.58 1652.59 661.396 1654.1 661.567 1654.9 662.888 1661.51 660.64 1666.83 660.683 1673.04 660.244 1672.19 660.117 1671.57 659.798 1671.05 655.821 1656.27 662.867 1633.85 659.38 1622.71 655.894 1611.56 663.728 1588.32 658.91 1568.19 662.764 1576.41 654.935 1586.33 658.474 1602.19 662.014 1618.05 658.003 1622.54 658.021 1637.58 659.479 1644.64 656.849 1650.37 657.13 1655.12 656.831 1654.07 656.632 1652.63 656.237 1650.74 655.639 1645.86 656.31 1641.2 655.343 1633.65 651.973 1623.12 657.796 1613.91 654.446 1607.02 653.995 1602.48 655.295 1600.42 653.548 1595.41 653.816 1600.47 652.292 1600.81 652.647 1605.74 651.288 1596.72 653.104 1593.25 651.745 1586.21 651.138 1585.41 651.387 1584.26 650.841 1583.65 649.952 1575.53 652.499 1567.72 649.936 1562.98 648.357 1557.64 649.309 1551.86 649.027 1548.38 649.25 1557.83 647.717 1565.6 648.117 1575.33 647.581 1574.55 647.643 1574.12 647.207 1573.35 645.152 1560.28 648.955 1553.02 646.293 1534.17 650.314 1542.47 644.25 1557.59 645.377 1573.97 644.163 1571.17 645.329 1566.59 644.46 1564.74 644.208 1564.6 643.936 1564.13 643.541 1563.78 644.07 1566.66 642.724 1568.98 642.619 1571.15 643.085 1574.13 641.571 1577.63 641.695 1579.61 641.87 1587.39 639.989 1590.52 640.771 1596.86 640.629 1600 640.099 1603.1 639.843 1606.7 642.64 1622.63 637.255 1631.05 638.913 1641.6 639.239 1646.12 636.934 1654.1 637.982 1658.22 637.283 1655.01 637.437 1650.31 637.049 1647.3 635.073 1640.58 636.739 1638.54 636.114 1632.79 633.402 1625.28 638.444 1618.08 635.176 1603.64 633.145 1599.47 635.759 1590.75 634.236 1585.9 631.885 1578.07 633.842 1573.52 633.294 1566 631.404 1561.45 634.466 1555.06 632.35 1549.56 631.321 1535.59 632.31 1530.13 631.405 1518.4 629.675 1513.15 632.418 1511.76 630.456 1505.4 629.898 1493.02 631.145 1487.55 629.505 1475.26 629.19 1474.63 629.189 1473.95 628.554 1472.93 628.015 1470.89 628.105 1467.48 627.599 1462.71 626.014 1454.96 628.092 1446.44 625.683 1432.79 625.279 1432.95 625.115 1432.86 624.721 1433.12 624.241 1425.31 624.811 1424.2 623.758 1416.33 623.772 1418.73 622.92 1424.49 622.792 1426.93 623.104 1429.78 621.885 1431.64 621.824 1435.16 620.604 1432.38 621.969 1428.77 620.854 1425.73 620.688 1426.05 620.155 1426.35 619.882 1426.64 619.109 1424.76 619.459 1424.05 618.906 1422.68 618.886 1427.39 618.101 1428.57 617.929 1432.07 618.033 1438.15 616.995 1447.48 616.95 1451.44 617.878 1465.1 615.952 1468.98 615.968 1479.44 617.298 1490.37 612.454 1504.08 614.984 1520.17 616.013 1534.92 612.474 1555.9 614.015 1570.71 615.557 1585.52 608.892 1605.2 613.007 1623.31 612.6 1628.81 611.549 1630.98 612.016 1635.79 613.542 1644.33 610.941 1645.57 611.023 1652.71 609.927 1646.78 611.58 1641.82 610.026 1634.88 612.721 1642.25 606.277 1655.48 609.028 1664.2 608.513 1660.97 609.153 1658.39 608.026 1656.67 607.868 1659.14 607.051 1662.59 607.023 1664.58 606.547 1663.2 606.46 1662.17 606.016 1660.45 605.036 1658.02 605.917 1654.52 605.007 1652.16 604.66 1652.01 604.481 1651.83 603.996 1651.53 602.521 1647.67 604.166 1644.94 602.982 1643.23 603.546 1648.35 602.221 1650.99 601.965 1656.13 601.656 1657.44 600.831 1658.25 600.947 1658.96 598.502 1649.53 601.889 1643.51 598.901 1638.09 598.592 1644.3 596.387 1649.74 597.873 1654.19 598.085 1655.55 597.03 1656.6 596.844 1659.03 595.743 1657.65 596.9 1654.99 595.811 1651.52 597.076 1659.64 593.802 1666.23 594.777 1672.2 594.603 1672.92 594.162 1673.23 593.738 1673.98 593.361 1670.17 593.588 1663.55 592.698 1659.49 592.832 1662.91 591.232 1666.35 591.655 1670.69 590.063 1664.92 591.239 1659.07 590.609 1656.12 590.034 1655.62 589.939 1654.78 589.56 1654.46 586.532 1648.44 591.809 1636.58 588.508 1628.99 588.135 1628.66 588.046 1628.17 587.454 1627.68 587.145 1627.63 586.883 1627.17 586.396 1626.95 586.026 1627.95 585.396 1628.25 585.336 1628.77 585.662 1630.08 584.444 1633.21 584.273 1634.36 582.948 1630.03 584.806 1626.6 583.206 1622.01 582.94 1623.62 582.204 1624.5 582.137 1625.5 581.769 1628.79 580.755 1630.38 581.065 1632.79 581.324 1639.38 579.922 1647.84 579.991 1652.74 579.475 1646.99 580.425 1640.95 578.912 1634.79 579.391 1645.82 575.2 1650.86 577.831 1664.82 577.335 1665.02 577.164 1665.04 576.746 1665.19 576.268 1665.06 575.922 1664.64 575.659 1664.5 574.715 1662.98 575.667 1658.85 574.569 1656.85 574.089 1656.91 573.817 1656.68 573.476 1656.71 573.814 1658.6 572.479 1661.25 572.378 1663.16 570.486 1654.61 572.457 1649.58 571.279 1643.72 572.573 1649.72 570.294 1655.03 570.175 1661.28 569.457 1657.71 569.65 1655.58 569.069 1653.92 568.705 1654.81 568.087 1655.6 567.959 1656.18 567.525 1655.08 567.765 1653.76 566.846 1651.99 566.266 1646.65 567.901 1641.14 565.729 1635.49 566.197 1642.87 563.582 1647.69 564.61 1651.1 561.326 1644.41 566.752 1632.57 563.487 1625.81 563.823 1633.44 561.255 1637.44 562.36 1641.37 563.71 1645.37 560.926 1651.16 561.231 1658.74 560.296 1655.14 561.111 1645.76 560.097 1641.17 559.076 1639.48 560.07 1638.16 558.96 1635.89 559.287 1639.08 557.681 1640.6 557.819 1644 554.544 1623.58 562.695 1613.91 556.676 1591.77 559.45 1600.08 554.194 1610.02 555.529 1618.11 555.982 1622.95 553.18 1630.59 554.378 1635.56 552.045 1623.34 555.845 1605.77 553.223 1595.8 554.446 1603.14 550.212 1608.15 552.064 1615.78 545.826 1602.21 554.02 1573.05 550.901 1561.03 550.719 1578.32 546.947 1581.03 550.296 1596.61 553.644 1612.18 549.802 1621.77 549.737 1629.45 549.484 1629.75 548.97 1629.9 548.566 1630.14 547.414 1623.89 549.58 1621.59 547.393 1613.65 547.338 1620.2 545.379 1631.92 546.216 1639.33 545.781 1640.33 545.124 1641.05 545.035 1641.65 544.746 1643.33 543.705 1644.34 543.849 1645.36 539.854 1634.9 543.67 1619.27 542.66 1604.46 543.262 1609.63 540.194 1614.16 541.468 1621.76 541.281 1622.36 540.608 1622.61 540.271 1623.3 540.406 1626.81 538.608 1631.86 539.07 1635.3 538.051 1629.63 539.212 1623.98 537.865 1619.15 537.662 1620.58 536.641 1621.37 536.655 1622.64 535.863 1619.33 535.969 1615.43 535.442 1610.84 534.816 1610.58 534.746 1610.28 534.224 1609.95 533.829 1610.22 533.507 1610.15 533.002 1610.38 532.164 1609.38 532.491 1608.58 531.776 1607.8 531.297 1605.99 531.056 1602.72 530.546 1600.51 530.558 1602.22 529.116 1605.97 529.311 1608.25 529.683 1611.65 528.442 1614 528.071 1616.69 527.739 1617.44 527.308 1617.46 526.828 1618.36 524.852 1610.58 527.77 1608.17 525.58 1601.95 524.245 1590.31 529.308 1579.2 524.928 1562.91 520.549 1546.62 524.742 1535.31 524.327 1526.88 527.381 1539.54 522.09 1548.03 523.07 1562.06 526.769 1574.02 516.436 1601.86 521.808 1615.02 519.461 1606.7 522.424 1602.22 520.542 1596.71 519.434 1591.43 520.386 1585.95 519.271 1581.98 520.09 1590.72 516.234 1597.13 517.995 1608.05 515.632 1599.51 517.594 1595.17 516.714 1583.83 516.667 1586.3 515.023 1589.64 515.428 1592.57 515.646 1598.03 513.84 1611.4 514.139 1617.02 513.838 1618.64 513.083 1619.23 512.843 1620.52 512.246 1619.73 511.979 1618.53 511.543 1617.8 511.294 1618.49 510.486 1619.42 510.237 1620.97 510.765 1627.56 508.852 1634.53 508.926 1640.51 509.093 1646.12 506.211 1648.44 506.29 1656.21 504.294 1646.84 507.621 1641.22 504.963 1636.25 504.522 1642.6 503.208 1647.36 503.632 1652.87 503.201 1654.51 502.438 1656.16 502.296 1657.56 501.561 1655.42 501.792 1654.95 500.953 1652.84 501.731 1658.39 499.625 1663.98 499.606 1668.26 498.425 1665.02 499.401 1660.23 498.252 1657.78 497.871 1659.96 497.399 1660.81 496.893 1663.73 495.605 1660.06 496.055 1658.48 495.528 1655.26 495 1653.54 495.033 1652.59 494.159 1650.42 493.978 1652.81 492.779 1654.61 492.783 1656.32 491.761 1654.32 492.193 1653.8 491.401 1652 490.272 1643.6 492.018 1638.87 490.013 1632.61 490.025 1636.87 488.091 1639.38 488.619 1641.73 488.253 1647.79 486.524 1650.17 487.219 1655.61 487.655 1661.66 486.25 1662.79 485.813 1668.29 483.392 1659.52 486.589 1654.87 484.401 1648.56 484.163 1649.24 483.494 1649.75 482.983 1650.64 481.07 1636.01 485.115 1628.2 480.127 1616.42 480.135 1617.55 479.024 1619.27 478.69 1620.3 477.962 1618.35 478.213 1616.3 477.246 1614.52 477.339 1616.79 476.01 1617.79 475.794 1620.63 474.6 1613.05 476.07 1608.58 474.337 1604.02 469.247 1593.88 476.661 1578.88 472.873 1563.44 469.702 1555.83 472.428 1544.93 471.402 1539.34 469.289 1531.48 472.044 1513.71 469.924 1505.53 469.214 1505.51 469.011 1505.16 468.44 1505.17 468.478 1506.15 467.271 1507.69 466.947 1508.55 471.531 1525.21 458.557 1553.64 465.448 1570.89 464.607 1570.09 464.478 1568.87 463.942 1567.92 462.872 1542.43 464.352 1528.12 462.428 1514.47 459.786 1506.8 461.434 1501.92 460.908 1496.06 460.4 1496.62 459.969 1496.68 459.379 1497.4 459.47 1509.42 457.08 1517.76 458.595 1532.1 460.111 1546.44 455.942 1553.52 457.843 1565.44 461.878 1579.47 452.602 1607.79 456.299 1622.23 455.398 1620.39 455.535 1616.1 454.747 1613.89 453.266 1609.48 455.172 1603.51 453.188 1597.35 452.306 1594.11 452.924 1590.99 451.62 1586.74 450.906 1587.93 450.548 1588.41 450.044 1589.33 451.743 1598.41 448.36 1603.39 448.461 1611.36 448.764 1614.76 447.251 1617.61 446.869 1620.92 447.441 1625.19 444.341 1629.85 445.269 1635.25 446.236 1638.18 443.518 1641.96 443.661 1647.08 443.375 1648.7 442.367 1649.48 442.043 1650.78 441.254 1649.64 441.288 1649.07 440.418 1648.36 439.645 1648.41 439.291 1648.11 438.783 1648.11 438.44 1651.83 435.849 1660.88 437.14 1664.51 435.767 1662.23 436.126 1660.51 435.488 1658.7 434.248 1656.65 434.741 1654.3 433.826 1651.09 432.885 1649.98 433.047 1649.69 432.156 1648.66 429.467 1640.85 432.978 1639.02 430.478 1630.05 429.61 1629.48 429.652 1628.98 428.789 1628.19 427.172 1624.76 428.705 1621.28 427.091 1617.83 425.306 1613.81 426.962 1611.51 425.382 1608.8 426.494 1613.42 422.65 1620.25 423.666 1623.76 423.215 1624.78 422.459 1624.85 421.939 1625.87 420.651 1620.26 422.22 1614.85 420.202 1611.99 420.689 1618.37 418.422 1623.34 418.456 1628.3 417.454 1626.8 417.736 1625.92 416.699 1623.75 416.734 1625.57 414.803 1627.67 414.933 1629.77 414.865 1636.3 412.65 1638.23 413.156 1645.38 413.28 1648.17 411.66 1654.48 411.37 1657.67 410.538 1656.05 410.602 1653.18 409.573 1652.21 409.787 1654.82 407.488 1659.63 407.766 1662.02 407.214 1661.78 406.882 1660.84 405.948 1660 406.031 1662.11 404.886 1664.45 404.119 1668.63 403.463 1670.08 403.068 1670.23 402.281 1671.77 401.693 1671.05 401.119 1669.61 400.432 1669.12 397.205 1657.21 401.741 1654.25 398.572 1643.86 393.42 1626.69 400.762 1614.68 396.702 1601.1 396.882 1604.27 394.608 1606.48 394.821 1608.97 395.393 1625.4 393.332 1637.14 392.93 1645.47 388.531 1630.65 396.958 1625.56 392.036 1606.81 387.114 1588.07 395.689 1583.03 391.028 1563.23 393.104 1579.57 386.971 1603.64 389.115 1616.86 390.455 1624.46 387.483 1628.53 387.191 1636.58 382.188 1611.83 388.253 1602.67 385.258 1581.32 387.642 1594.14 384.246 1601.1 384.325 1612.03 384.404 1622.96 380.157 1634.9 383.314 1645.3 382.846 1645.77 381.838 1645.92 381.359 1646.12 380.18 1643.25 380.61 1639.23 379.395 1635.58 378.287 1634.57 378.347 1633.88 377.42 1633.06 376.818 1633.1 375.965 1633.11 375.436 1633.14 374.862 1633.49 374.251 1633.72 373.443 1634.26 374.179 1638.43 370.894 1641.93 371.439 1647.55 371.095 1649.56 370.014 1651.58 369.427 1655.45 368.922 1654.78 368.646 1653.47 367.405 1652.04 366.887 1654.11 365.671 1656.46 365.376 1659.27 365.269 1660.47 363.599 1662.16 363.338 1663.21 362.047 1657.37 362.621 1654.36 361.293 1649.72 360.66 1648.89 360.208 1647.64 359.24 1646.27 358.466 1653.83 357.684 1654.97 357.181 1661.44 356.7 1661.12 356.205 1660.6 355.116 1660.03 353.95 1656.72 353.857 1654.95 353.046 1651.87 353.667 1657.21 350.776 1660.94 350.972 1666.39 348.297 1659.23 351.281 1651.21 348.893 1643 349.331 1647.11 347.061 1650.06 346.812 1653.4 346.718 1657.3 344.803 1658.43 344.729 1661.15 344.128 1661.82 343.454 1662.19 342.644 1663.2 342.101 1665.27 340.881 1667.77 340.56 1670.25 339.673 1669.7 339.278 1669.08 338.477 1668.91 337.467 1667.68 337.082 1666.66 336.396 1666.01 335.186 1664.64 335.442 1663.7 334.319 1661.67 330.608 1647.02 334.081 1636.39 332.248 1624.7 333.255 1629.88 329.986 1642.71 330.183 1648.64 328.221 1641.47 329.76 1635.73 328.125 1629.24 327.648 1629.68 326.878 1629.85 326.078 1630.56 325.348 1629.61 324.641 1628.5 324.041 1627.66 325.389 1641.76 322.349 1648.15 322.018 1657.57 321.732 1658.71 320.581 1660.4 320.008 1661.66 319.819 1665.36 318.326 1667.31 318.014 1668.79 317.48 1668.88 316.841 1668.78 316.039 1669.08 315.127 1669.56 314.562 1669.49 314.082 1669.68 313.182 1669.69 312.581 1669.34 312.146 1669.33 311.154 1667.69 311.109 1664.89 310.233 1662.31 309.254 1660.84 309.13 1659.77 308.344 1658.22 308.059 1659.19 306.81 1661.04 306.48 1662.41 305.729 1659.12 305.714 1654.81 304.643 1652.09 304.168 1653.98 303.061 1654.61 302.834 1655.88 302.195 1655.68 301.723 1654.76 301.055 1654.42 300.305 1655.34 299.862 1655.3 299.306 1656.31 298.784 1659.41 297.333 1660.95 297.588 1662.57 297.216 1663.08 296.228 1663.43 295.903 1663.69 295.32 1663.57 294.98 1663.36 294.251 1663.25 293.466 1662.7 293.072 1662.04 292.632 1661.9 291.96 1661.84 291.827 1661.71 291.048 1661.52 290.411 1661.31 289.937 1660.65 289.499 1660.45 287.451 1659.5 287.279 1659 285.057 1657.99 284.467 1656.65 284.329 1655.13 283.646 1654.6 283.034 1654.16 282.828 1652.94 282.27 1652.29 281.902 1651.28 281.301 1649.25 280.928 1648.16 280.551 1649.02 279.995 1649.88 279.619 1650.99 279.245 1651.13 278.76 1651.03 278.344 1651.1 277.974 1650.53 277.738 1649.19 277.102 1648.59 276.833 1648.88 276.248 1649.03 275.892 1649.29 275.684 1649.61 275.178 1649.92 274.714 1650.38 274.107 1649.93 273.918 1649.44 273.566 1649.15 273.107 1648.78 272.78 1648.37 272.449 1648.19 272.071 1647.91 271.708 1647.31 271.362 1647.05 270.929 1646.59 270.743 1646.08 270.303 1645.78 269.25 1644.78 269.408 1644.14 268.269 1642.83 267.857 1642.77 267.775 1642.64 267.292 1642.49 266.225 1641.67 266.016 1640.45 265.416 1640 265.004 1639.63 264.919 1639.31 264.514 1639.07 263.198 1637.44 262.687 1636.17 261.949 1635.61 261.2 1634.87 261.15 1634.36 260.346 1633.25 260.004 1632.98 259.805 1632 259.576 1631.72 259.085 1631.07 259.25 1630.4 258.824 1629.57 258.458 1629.31 258.456 1629.04 258.091 1628.78 257.777 1628.81 257.571 1628.67 257.377 1628.66 256.875 1628.25 256.574 1627.21 256 1626.3L256 1626.3" stroke="#8AB17D" stroke-width="4" stroke-linecap="square" stroke-linejoin="round" stroke-miterlimit="10" fill="none" fill-rule="evenodd"/><path d="M261 832.162C261 809.514 279.132 791.154 301.5 791.154 323.868 791.154 342 809.514 342 832.162 342 854.811 323.868 873.17 301.5 873.17 279.132 873.17 261 854.811 261 832.162Z" stroke="#E9C46A" stroke-width="2" stroke-miterlimit="8" fill="#E9C46A" fill-rule="evenodd"/><path d="M395 832.162C395 809.514 413.356 791.154 436 791.154 458.644 791.154 477 809.514 477 832.162 477 854.811 458.644 873.17 436 873.17 413.356 873.17 395 854.811 395 832.162Z" stroke="#E9C46A" stroke-width="2" stroke-miterlimit="8" fill="#E9C46A" fill-rule="evenodd"/><path d="M530 832.162C530 809.514 548.356 791.154 571 791.154 593.644 791.154 612 809.514 612 832.162 612 854.811 593.644 873.17 571 873.17 548.356 873.17 530 854.811 530 832.162Z" stroke="#E9C46A" stroke-width="2" stroke-miterlimit="8" fill="#E9C46A" fill-rule="evenodd"/><text font-family="Cambria Math,Cambria Math_MSFontService,sans-serif" font-weight="400" font-size="37.3406" transform="matrix(6.12323e-17 1.00039 -0.999805 6.12443e-17 889.664 511)">𝑓</text><text font-family="Cambria Math,Cambria Math_MSFontService,sans-serif" font-weight="400" font-size="27.2587" transform="matrix(6.12323e-17 1.00039 -0.999805 6.12443e-17 882.044 526)">𝜃</text><path d="M75.9236 7.04552C79.4723 7.98129 82.1975 10.0017 84.0994 13.1067 86.0013 16.2118 86.9523 19.9578 86.9523 24.345 86.9523 28.7443 86.0044 32.4904 84.1085 35.5833 82.2127 38.6762 79.4844 40.6905 75.9236 41.6263L75.4861 40.2226C78.2934 39.2868 80.3807 37.4396 81.7478 34.6809 83.115 31.9223 83.7986 28.4162 83.7986 24.1627 83.7986 20.0551 83.1181 16.6432 81.757 13.927 80.3959 11.2109 78.2874 9.38493 75.4314 8.44917ZM48.6499 7.04552 49.142 8.44917C46.2983 9.38493 44.1928 11.2109 42.8256 13.927 41.4585 16.6432 40.7749 20.0551 40.7749 24.1627 40.7749 28.4162 41.4585 31.9223 42.8256 34.6809 44.1928 37.4396 46.2801 39.2868 49.0874 40.2226L48.6499 41.6263C45.0891 40.6905 42.3608 38.6762 40.465 35.5833 38.5691 32.4904 37.6212 28.7443 37.6212 24.345 37.6212 19.9578 38.5722 16.2118 40.4741 13.1067 42.376 10.0017 45.1012 7.98129 48.6499 7.04552Z" fill-rule="evenodd" transform="matrix(6.12443e-17 1.00059 -1 6.12563e-17 924.664 511.155)"/><text font-family="Cambria Math,Cambria Math_MSFontService,sans-serif" font-weight="400" font-size="37.3406" transform="matrix(6.12323e-17 1.00039 -0.999805 6.12443e-17 889.664 561)">𝑋</text><text font-family="Cambria Math,Cambria Math_MSFontService,sans-serif" font-weight="400" font-size="37.3406" transform="matrix(6.12323e-17 1.00039 -0.999805 6.12443e-17 889.664 612)">=</text><text font-family="Cambria Math,Cambria Math_MSFontService,sans-serif" font-weight="400" font-size="37.3406" transform="matrix(6.12323e-17 1.00039 -0.999805 6.12443e-17 889.664 650)">𝑍</text><text font-family="FrankRuehl,FrankRuehl_MSFontService,sans-serif" font-weight="700" font-size="37.3406" transform="matrix(1 0 0 1.0002 886.505 844)">Z</text><text font-family="FrankRuehl,FrankRuehl_MSFontService,sans-serif" font-weight="700" font-size="26.6719" transform="matrix(1 0 0 1.0002 84.8621 819)">Latent</text><text font-family="FrankRuehl,FrankRuehl_MSFontService,sans-serif" font-weight="700" font-size="26.6719" transform="matrix(1 0 0 1.0002 89.8621 851)">Space</text><text font-family="FrankRuehl,FrankRuehl_MSFontService,sans-serif" font-weight="700" font-size="26.6719" transform="matrix(1 0 0 1.0002 81.5061 606)">Encoder</text><text font-family="Cambria Math,Cambria Math_MSFontService,sans-serif" font-weight="400" font-size="37.3406" transform="matrix(6.12323e-17 1.00039 -0.999805 6.12443e-17 893.086 970)">𝑔</text><text font-family="Cambria Math,Cambria Math_MSFontService,sans-serif" font-weight="400" font-size="27.2587" transform="matrix(6.12323e-17 1.00039 -0.999805 6.12443e-17 885.466 991)">𝜃′</text><path d="M89.8476 7.04552C93.3962 7.98129 96.1215 10.0017 98.0234 13.1067 99.9253 16.2118 100.876 19.9578 100.876 24.345 100.876 28.7443 99.9283 32.4904 98.0325 35.5833 96.1366 38.6762 93.4083 40.6905 89.8476 41.6263L89.4101 40.2226C92.2174 39.2868 94.3046 37.4396 95.6718 34.6809 97.039 31.9223 97.7226 28.4162 97.7226 24.1627 97.7226 20.0551 97.042 16.6432 95.6809 13.927 94.3198 11.2109 92.2113 9.38493 89.3554 8.44917ZM64.4068 7.04552 64.899 8.44917C62.0552 9.38493 59.9497 11.2109 58.5826 13.927 57.2154 16.6432 56.5318 20.0551 56.5318 24.1627 56.5318 28.4162 57.2154 31.9223 58.5826 34.6809 59.9497 37.4396 62.037 39.2868 64.8443 40.2226L64.4068 41.6263C60.846 40.6905 58.1177 38.6762 56.2219 35.5833 54.3261 32.4904 53.3781 28.7443 53.3781 24.345 53.3781 19.9578 54.3291 16.2118 56.231 13.1067 58.1329 10.0017 60.8582 7.98129 64.4068 7.04552Z" fill-rule="evenodd" transform="matrix(6.12443e-17 1.00059 -1 6.12563e-17 928.086 969.797)"/><text font-family="Cambria Math,Cambria Math_MSFontService,sans-serif" font-weight="400" font-size="37.3406" transform="matrix(6.12323e-17 1.00039 -0.999805 6.12443e-17 893.086 1035)">𝑍</text><text font-family="Cambria Math,Cambria Math_MSFontService,sans-serif" font-weight="400" font-size="37.3406" transform="matrix(6.12323e-17 1.00039 -0.999805 6.12443e-17 893.086 1084)">=</text><text font-family="Cambria Math,Cambria Math_MSFontService,sans-serif" font-weight="400" font-size="37.3406" transform="matrix(6.12323e-17 1.00039 -0.999805 6.12443e-17 893.086 1123)">𝑋′</text><text font-family="FrankRuehl,FrankRuehl_MSFontService,sans-serif" font-weight="700" font-size="26.6719" transform="matrix(1 0 0 1.0002 72.1585 1077)">Decoder</text><text font-family="FrankRuehl,FrankRuehl_MSFontService,sans-serif" font-weight="700" font-size="37.3406" transform="matrix(1 0 0 1.0002 892.218 377)">X</text><text font-family="FrankRuehl,FrankRuehl_MSFontService,sans-serif" font-weight="700" font-size="32.0062" transform="matrix(1 0 0 1.0002 412.32 321)">Input</text><text font-family="FrankRuehl,FrankRuehl_MSFontService,sans-serif" font-weight="700" font-size="32.0062" transform="matrix(1 0 0 1.0002 484.987 321)">Spectrum</text><text font-family="FrankRuehl,FrankRuehl_MSFontService,sans-serif" font-weight="700" font-size="32.0062" transform="matrix(1 0 0 1.0002 355.57 1377)">Reconstructed</text><text font-family="FrankRuehl,FrankRuehl_MSFontService,sans-serif" font-weight="700" font-size="32.0062" transform="matrix(1 0 0 1.0002 541.737 1377)">Spectrum</text><g><g><g><g><path d="M532.636 134.546 530.99 317.52 530.164 277.055 529.338 202.58 528.51 185.212 527.681 216.897 526.85 295.664 526.018 199.41 525.185 286.11 524.35 291.058 523.514 197.793 522.677 179.159 521.838 156.007 520.998 193.117 520.157 196.564 519.314 161.331 518.469 172.979 517.624 198.746 515.928 181.555 515.079 164.24 514.227 156.676 513.375 185.768 511.665 207.348 510.808 221.88 509.95 202.351 509.09 193.223 508.229 209.869 507.366 218.509 506.501 234.713 505.636 222.195 504.768 155.841 503.9 223.458 502.158 185.351 501.284 214.222 500.409 222.923 499.533 218.569 498.655 222.222 497.776 191.879 496.895 233.373 496.012 177.437 495.128 219.714 494.242 154.658 493.355 191.804 492.466 206.15 491.575 205.993 490.683 196.312 489.79 210.788 488.894 193.726 487.997 205.565 487.099 194.962 486.199 133.738 485.297 179.054 484.393 184.436 483.488 186.393 482.581 169.017 481.672 111.451 480.762 156.986 479.85 135.766 478.936 143.817 478.021 197.272 477.104 205.792 476.185 206.811 475.264 147.866 474.342 140.463 473.418 118.858 472.492 149.492 471.564 192.584 470.634 192.117 469.703 182.085 468.77 135.827 467.835 169.005 466.898 207.46 465.96 218.549 465.019 209.816 464.077 208.789 463.132 219.712 462.186 213.426 461.238 199.837 460.288 225.394 459.337 201.322 458.383 173.234 457.427 230.942 456.47 190.196 455.51 168.068 454.549 199.268 453.585 170.051 452.62 181.155 451.652 200.493 450.683 188.814 449.711 204.895 448.738 161.344 447.762 176.975 446.784 207.163 445.805 219.566 444.823 187.676 443.839 193.707 442.853 175.747 441.865 190.346 440.875 173.243 439.882 147.757 438.888 196.655 437.891 182.779 436.892 183.746 435.891 208.013 434.888 214.68 433.883 185.106 432.875 191.733 431.865 180.251 430.853 203.865 429.838 157.121 428.822 162.865 427.803 155.823 426.781 129.575 425.758 145.619 424.732 136.578 423.703 122.808 422.672 131.568 421.639 128.854 420.604 102.047 419.566 107.673 418.526 121.904 417.483 115.144 416.437 120.864 415.39 127.382 414.339 116.211 413.287 114.942 412.231 129.841 411.174 158.472 410.113 182.193 409.05 198.442 407.985 184.939 406.917 215.787 405.846 204.806 404.772 211.605 403.696 203.9 402.618 208.501 401.536 208.044 399.365 185.354 398.275 186.623 397.183 218.872 396.088 225.604 394.99 207.012 393.889 202.722 392.785 207.057 391.679 223.272 390.569 217.271 389.457 219.852 388.341 224.206 387.223 216.964 386.102 226.721 384.978 219.279 383.85 216.816 382.72 211.35 381.587 208.14 380.45 206.601 379.311 226.751 378.168 214.689 377.022 203.871 375.873 208.182 374.721 209.916 373.565 229.655 372.407 203.592 371.245 210.379 370.079 221.099 368.911 213.302 367.739 204.063 366.563 198.068 365.385 203.844 364.202 199.543 363.017 202.456 361.828 204.479 360.635 193.602 359.439 190.902 358.239 192.681 357.036 203.641 355.829 178.461 354.618 186.83 353.404 187.462 352.186 180.433 350.964 179.788 349.738 188.665 348.509 160.503 347.276 165.181 346.038 165.409 344.797 154.726 343.552 163.798 342.303 154.04 341.05 156.468 339.793 161.455 338.532 138.627 337.267 157.748 335.997 188.867 334.724 179.174 333.446 139.475 332.164 130.107 330.877 150.369 329.587 141.775 328.291 130.635 326.992 136.2 325.688 127.103 324.379 122.247 323.066 128.551 321.748 137.987 320.426 107.738 317.767 122.254 316.431 150.724 313.743 89.3413 312.392 99.9518 311.036 127.666 309.675 90.3339 308.309 92.4283 306.937 116.223 305.561 101.081 304.179 97.1022 302.792 86.4396 301.4 118.78 300.003 128.603 298.6 93.3208 297.191 117.425 295.777 119.59 294.358 149.349 292.932 108.786 291.501 119.844 290.065 117.415 288.622 127.853 287.174 132.412 285.719 120.675 284.259 132.828 282.792 111.979 281.32 108.82 279.841 111.716 278.355 111.521 276.864 109.951 275.366 120.203 273.862 126.021 272.351 135.383 270.833 95.0613 269.309 120.344 267.777 80.4717 266.239 90.6184 264.694 103.057 263.142 88.9045 261.583 116.832 260.017 99.3286 258.444 55.0436 256.863 73.8142 255.274 83.9239 253.678 83.4542 252.075 73.5852 250.464 79.5921 248.845 71.69 247.218 76.2569 245.583 133.927 243.941 84.9259 242.29 121.229 240.63 102.458 238.963 101.97 237.287 115.368 235.602 63.2279 233.909 113.751 230.496 132.498 228.776 135.21 227.048 164.235 225.31 170.352 223.563 207.849 221.806 146.113 220.04 151.152 218.265 130.707 216.479 135.074 214.684 156.508 212.879 155.976 211.064 140.585 209.24 172.836 207.404 163.963 205.559 182.819 203.703 193.729 201.837 178.904 199.96 184.685 198.072 184.141 196.174 179.437 194.264 185.782 192.344 168.835 190.413 167.637 188.471 156.365 186.517 154.311 184.552 142.509 182.576 146.856 180.589 131.28 176.58 91.5468 174.559 100.737 172.526 99.2162 170.482 61.2431 168.426 102.945 166.359 124.283 164.281 90.8709 162.192 119.507 160.091 101.25 157.98 100.75 155.858 83.4779 153.725 85.9867 151.582 102.535 149.429 103.005 147.267 130.109 145.094 135.627 142.913 154.368 140.723 167.507 138.525 168.154 136.319 194.956 134.106 207.901 131.887 203.164 129.662 191.168 127.432 186.989 125.199 166.155 122.962 167.519 120.723 166.363 118.483 158.685 116.243 163.285 114.004 143.995 111.768 137.47 109.536 158.014 107.31 127.621 105.09 132.419 102.879 147.328 100.679 151.861 98.4899 143.46 96.3148 152.773 94.1552 200.039 92.0124 203.093 89.889 189.293 87.786 191.813 85.7057 184.176 83.6494 184.704 79.6159 167.955 77.6417 164.673 75.6976 169.852 73.7851 158.655 71.9057 166.842 70.06 153.067 68.2489 171.024 66.4731 156.583 64.7336 162.504 63.0311 155.816 61.3656 144.98 59.737 141.369 58.1459 133.894 55.0759 139.626 53.5969 124.142 52.1543 96.9335 50.7474 88.4599 49.3777 130.031 48.0427 106.364 46.7422 71.8452 45.4758 100.032 44.2426 73.0619 43.0421 38.8722 41.8734 21.3476 40.7357 86.5398 39.628 94.1677 38.5493 92.3053 37.4998 81.2589 36.4784 63.2134 35.483 58.3466 34.5143 19.3676 33.5711 46.1259 32.6516 15.12 31.7569 61.983 30.8845 51.0608 30.0343 48.8519 29.2066 39.6306 28.3984 89.5989 27.6111 101.844 26.8439 139.399 26.095 82.5252 25.3636 88.2427 25.3636 88.2427" stroke="#E76F51" stroke-width="4" stroke-linecap="square" stroke-linejoin="round" fill="none" transform="matrix(1 0 0 1.0002 238 32.1863)"/></g></g></g></g><path d="M665 832.162C665 809.514 683.356 791.154 706 791.154 728.644 791.154 747 809.514 747 832.162 747 854.811 728.644 873.17 706 873.17 683.356 873.17 665 854.811 665 832.162Z" stroke="#E9C46A" stroke-width="2" stroke-miterlimit="8" fill="#E9C46A" fill-rule="evenodd"/><path d="M154 368.572C154 353.381 166.312 341.067 181.5 341.067 196.688 341.067 209 353.381 209 368.572 209 383.763 196.688 396.077 181.5 396.077 166.312 396.077 154 383.763 154 368.572Z" stroke="#E76F51" stroke-width="2" stroke-miterlimit="8" fill="#E76F51" fill-rule="evenodd"/><path d="M262 368.572C262 353.381 274.312 341.067 289.5 341.067 304.688 341.067 317 353.381 317 368.572 317 383.763 304.688 396.077 289.5 396.077 274.312 396.077 262 383.763 262 368.572Z" stroke="#E76F51" stroke-width="2" stroke-miterlimit="8" fill="#E76F51" fill-rule="evenodd"/><path d="M479 368.572C479 353.381 491.088 341.067 506 341.067 520.912 341.067 533 353.381 533 368.572 533 383.763 520.912 396.077 506 396.077 491.088 396.077 479 383.763 479 368.572Z" stroke="#E76F51" stroke-width="2" stroke-miterlimit="8" fill="#E76F51" fill-rule="evenodd"/><path d="M371 368.572C371 353.381 383.088 341.067 398 341.067 412.912 341.067 425 353.381 425 368.572 425 383.763 412.912 396.077 398 396.077 383.088 396.077 371 383.763 371 368.572Z" stroke="#E76F51" stroke-width="2" stroke-miterlimit="8" fill="#E76F51" fill-rule="evenodd"/><path d="M587 368.572C587 353.381 599.088 341.067 614 341.067 628.912 341.067 641 353.381 641 368.572 641 383.763 628.912 396.077 614 396.077 599.088 396.077 587 383.763 587 368.572Z" stroke="#E76F51" stroke-width="2" stroke-miterlimit="8" fill="#E76F51" fill-rule="evenodd"/><path d="M695 368.572C695 353.381 707.088 341.067 722 341.067 736.912 341.067 749 353.381 749 368.572 749 383.763 736.912 396.077 722 396.077 707.088 396.077 695 383.763 695 368.572Z" stroke="#E76F51" stroke-width="2" stroke-miterlimit="8" fill="#E76F51" fill-rule="evenodd"/><path d="M803 368.572C803 353.381 815.088 341.067 830 341.067 844.912 341.067 857 353.381 857 368.572 857 383.763 844.912 396.077 830 396.077 815.088 396.077 803 383.763 803 368.572Z" stroke="#E76F51" stroke-width="2" stroke-miterlimit="8" fill="#E76F51" fill-rule="evenodd"/><path d="M182 396.077 232.813 562.27" stroke="#3F7489" stroke-width="2" stroke-miterlimit="8" fill="none" fill-rule="evenodd"/><path d="M0 0 57.2101 166.16" stroke="#3F7489" stroke-width="2" stroke-miterlimit="8" fill="none" fill-rule="evenodd" transform="matrix(-1 0 0 1.0002 290.21 396.077)"/><path d="M0 0 165.233 166.16" stroke="#3F7489" stroke-width="2" stroke-miterlimit="8" fill="none" fill-rule="evenodd" transform="matrix(1 0 0 -1.0002 233 562.27)"/><path d="M0 0 273.255 166.16" stroke="#3F7489" stroke-width="2" stroke-miterlimit="8" fill="none" fill-rule="evenodd" transform="matrix(1 0 0 -1.0002 233 562.27)"/><path d="M0 0 381.278 166.16" stroke="#3F7489" stroke-width="2" stroke-miterlimit="8" fill="none" fill-rule="evenodd" transform="matrix(1 0 0 -1.0002 233 562.27)"/><path d="M0 0 489.301 166.16" stroke="#3F7489" stroke-width="2" stroke-miterlimit="8" fill="none" fill-rule="evenodd" transform="matrix(1 0 0 -1.0002 233 562.27)"/><path d="M0 0 597.323 166.16" stroke="#3F7489" stroke-width="2" stroke-miterlimit="8" fill="none" fill-rule="evenodd" transform="matrix(1 0 0 -1.0002 233 562.27)"/><path d="M340.835 562.27 182 396.077" stroke="#3F7489" stroke-width="2" stroke-miterlimit="8" fill="none" fill-rule="evenodd"/><path d="M340.813 562.27 290 396.077" stroke="#3F7489" stroke-width="2" stroke-miterlimit="8" fill="none" fill-rule="evenodd"/><path d="M0 0 57.2101 166.16" stroke="#3F7489" stroke-width="2" stroke-miterlimit="8" fill="none" fill-rule="evenodd" transform="matrix(1 0 0 -1.0002 341 562.27)"/><path d="M0 0 165.233 166.16" stroke="#3F7489" stroke-width="2" stroke-miterlimit="8" fill="none" fill-rule="evenodd" transform="matrix(1 0 0 -1.0002 341 562.27)"/><path d="M0 0 273.255 166.16" stroke="#3F7489" stroke-width="2" stroke-miterlimit="8" fill="none" fill-rule="evenodd" transform="matrix(1 0 0 -1.0002 341 562.27)"/><path d="M0 0 381.278 166.16" stroke="#3F7489" stroke-width="2" stroke-miterlimit="8" fill="none" fill-rule="evenodd" transform="matrix(1 0 0 -1.0002 341 562.27)"/><path d="M0 0 489.301 166.16" stroke="#3F7489" stroke-width="2" stroke-miterlimit="8" fill="none" fill-rule="evenodd" transform="matrix(1 0 0 -1.0002 341 562.27)"/><path d="M448.858 562.27 182 396.077" stroke="#3F7489" stroke-width="2" stroke-miterlimit="8" fill="none" fill-rule="evenodd"/><path d="M448.835 562.27 290 396.077" stroke="#3F7489" stroke-width="2" stroke-miterlimit="8" fill="none" fill-rule="evenodd"/><path d="M448.813 562.27 398 396.077" stroke="#3F7489" stroke-width="2" stroke-miterlimit="8" fill="none" fill-rule="evenodd"/><path d="M0 0 57.2101 166.16" stroke="#3F7489" stroke-width="2" stroke-miterlimit="8" fill="none" fill-rule="evenodd" transform="matrix(1 0 0 -1.0002 449 562.27)"/><path d="M0 0 165.233 166.16" stroke="#3F7489" stroke-width="2" stroke-miterlimit="8" fill="none" fill-rule="evenodd" transform="matrix(1 0 0 -1.0002 449 562.27)"/><path d="M0 0 273.255 166.16" stroke="#3F7489" stroke-width="2" stroke-miterlimit="8" fill="none" fill-rule="evenodd" transform="matrix(1 0 0 -1.0002 449 562.27)"/><path d="M0 0 381.278 166.16" stroke="#3F7489" stroke-width="2" stroke-miterlimit="8" fill="none" fill-rule="evenodd" transform="matrix(1 0 0 -1.0002 449 562.27)"/><path d="M556.881 562.27 182 396.077" stroke="#3F7489" stroke-width="2" stroke-miterlimit="8" fill="none" fill-rule="evenodd"/><path d="M556.881 562.27 182 396.077" stroke="#3F7489" stroke-width="2" stroke-miterlimit="8" fill="none" fill-rule="evenodd"/><path d="M556.835 562.27 398 396.077" stroke="#3F7489" stroke-width="2" stroke-miterlimit="8" fill="none" fill-rule="evenodd"/><path d="M556.813 562.27 506 396.077" stroke="#3F7489" stroke-width="2" stroke-miterlimit="8" fill="none" fill-rule="evenodd"/><path d="M0 0 57.2101 166.16" stroke="#3F7489" stroke-width="2" stroke-miterlimit="8" fill="none" fill-rule="evenodd" transform="matrix(1 0 0 -1.0002 557 562.27)"/><path d="M0 0 165.233 166.16" stroke="#3F7489" stroke-width="2" stroke-miterlimit="8" fill="none" fill-rule="evenodd" transform="matrix(1 0 0 -1.0002 557 562.27)"/><path d="M0 0 273.255 166.16" stroke="#3F7489" stroke-width="2" stroke-miterlimit="8" fill="none" fill-rule="evenodd" transform="matrix(1 0 0 -1.0002 557 562.27)"/><path d="M664.903 562.27 182 396.077" stroke="#3F7489" stroke-width="2" stroke-miterlimit="8" fill="none" fill-rule="evenodd"/><path d="M664.881 562.27 290 396.077" stroke="#3F7489" stroke-width="2" stroke-miterlimit="8" fill="none" fill-rule="evenodd"/><path d="M664.858 562.27 398 396.077" stroke="#3F7489" stroke-width="2" stroke-miterlimit="8" fill="none" fill-rule="evenodd"/><path d="M664.835 562.27 506 396.077" stroke="#3F7489" stroke-width="2" stroke-miterlimit="8" fill="none" fill-rule="evenodd"/><path d="M664.813 562.27 614 396.077" stroke="#3F7489" stroke-width="2" stroke-miterlimit="8" fill="none" fill-rule="evenodd"/><path d="M0 0 57.2101 166.16" stroke="#3F7489" stroke-width="2" stroke-miterlimit="8" fill="none" fill-rule="evenodd" transform="matrix(1 0 0 -1.0002 665 562.27)"/><path d="M0 0 165.233 166.16" stroke="#3F7489" stroke-width="2" stroke-miterlimit="8" fill="none" fill-rule="evenodd" transform="matrix(1 0 0 -1.0002 665 562.27)"/><path d="M772.926 562.27 182 396.077" stroke="#3F7489" stroke-width="2" stroke-miterlimit="8" fill="none" fill-rule="evenodd"/><path d="M772.903 562.27 290 396.077" stroke="#3F7489" stroke-width="2" stroke-miterlimit="8" fill="none" fill-rule="evenodd"/><path d="M772.881 562.27 398 396.077" stroke="#3F7489" stroke-width="2" stroke-miterlimit="8" fill="none" fill-rule="evenodd"/><path d="M772.858 562.27 506 396.077" stroke="#3F7489" stroke-width="2" stroke-miterlimit="8" fill="none" fill-rule="evenodd"/><path d="M772.835 562.27 614 396.077" stroke="#3F7489" stroke-width="2" stroke-miterlimit="8" fill="none" fill-rule="evenodd"/><path d="M772.813 562.27 722 396.077" stroke="#3F7489" stroke-width="2" stroke-miterlimit="8" fill="none" fill-rule="evenodd"/><path d="M0 0 57.2101 166.16" stroke="#3F7489" stroke-width="2" stroke-miterlimit="8" fill="none" fill-rule="evenodd" transform="matrix(1 0 0 -1.0002 773 562.27)"/><path d="M0 0 201.679 174.195" stroke="#3F7489" stroke-width="2" stroke-miterlimit="8" fill="none" fill-rule="evenodd" transform="matrix(-1 0 0 1.0002 772.679 617.12)"/><path d="M0 0 93.656 174.195" stroke="#3F7489" stroke-width="2" stroke-miterlimit="8" fill="none" fill-rule="evenodd" transform="matrix(-1 0 0 1.0002 664.656 617.12)"/><path d="M0 0 120.452 174.195" stroke="#3F7489" stroke-width="2" stroke-miterlimit="8" fill="none" fill-rule="evenodd" transform="matrix(-1 0 0 1.0002 556.452 617.12)"/><path d="M0 0 12.4296 174.195" stroke="#3F7489" stroke-width="2" stroke-miterlimit="8" fill="none" fill-rule="evenodd" transform="matrix(-1 0 0 1.0002 448.43 617.12)"/><path d="M0 0 39.2259 174.195" stroke="#3F7489" stroke-width="2" stroke-miterlimit="8" fill="none" fill-rule="evenodd" transform="matrix(-1 0 0 1.0002 340.226 617.12)"/><path d="M233 617.12 436.616 791.349" stroke="#3F7489" stroke-width="2" stroke-miterlimit="8" fill="none" fill-rule="evenodd"/><path d="M205 589.615C205 574.424 217.312 562.11 232.5 562.11 247.688 562.11 260 574.424 260 589.615 260 604.806 247.688 617.12 232.5 617.12 217.312 617.12 205 604.806 205 589.615Z" stroke="#264653" stroke-width="2" stroke-miterlimit="8" fill="#264653" fill-rule="evenodd"/><path d="M421 589.615C421 574.424 433.312 562.11 448.5 562.11 463.688 562.11 476 574.424 476 589.615 476 604.806 463.688 617.12 448.5 617.12 433.312 617.12 421 604.806 421 589.615Z" stroke="#264653" stroke-width="2" stroke-miterlimit="8" fill="#264653" fill-rule="evenodd"/><path d="M313 589.615C313 574.424 325.312 562.11 340.5 562.11 355.688 562.11 368 574.424 368 589.615 368 604.806 355.688 617.12 340.5 617.12 325.312 617.12 313 604.806 313 589.615Z" stroke="#264653" stroke-width="2" stroke-miterlimit="8" fill="#264653" fill-rule="evenodd"/><path d="M529 589.615C529 574.424 541.312 562.11 556.5 562.11 571.688 562.11 584 574.424 584 589.615 584 604.806 571.688 617.12 556.5 617.12 541.312 617.12 529 604.806 529 589.615Z" stroke="#264653" stroke-width="2" stroke-miterlimit="8" fill="#264653" fill-rule="evenodd"/><path d="M637 589.615C637 574.424 649.312 562.11 664.5 562.11 679.688 562.11 692 574.424 692 589.615 692 604.806 679.688 617.12 664.5 617.12 649.312 617.12 637 604.806 637 589.615Z" stroke="#264653" stroke-width="2" stroke-miterlimit="8" fill="#264653" fill-rule="evenodd"/><path d="M745 589.615C745 574.424 757.312 562.11 772.5 562.11 787.688 562.11 800 574.424 800 589.615 800 604.806 787.688 617.12 772.5 617.12 757.312 617.12 745 604.806 745 589.615Z" stroke="#264653" stroke-width="2" stroke-miterlimit="8" fill="#264653" fill-rule="evenodd"/><path d="M233 617.12 301.797 791.349" stroke="#3F7489" stroke-width="2" stroke-miterlimit="8" fill="none" fill-rule="evenodd"/><path d="M341 617.12 436.593 791.349" stroke="#3F7489" stroke-width="2" stroke-miterlimit="8" fill="none" fill-rule="evenodd"/><path d="M0 0 147.249 174.195" stroke="#3F7489" stroke-width="2" stroke-miterlimit="8" fill="none" fill-rule="evenodd" transform="matrix(-1 0 0 1.0002 448.249 617.12)"/><path d="M557 617.12 571.367 791.349" stroke="#3F7489" stroke-width="2" stroke-miterlimit="8" fill="none" fill-rule="evenodd"/><path d="M665 617.12 706.163 791.349" stroke="#3F7489" stroke-width="2" stroke-miterlimit="8" fill="none" fill-rule="evenodd"/><path d="M0 0 66.8596 174.195" stroke="#3F7489" stroke-width="2" stroke-miterlimit="8" fill="none" fill-rule="evenodd" transform="matrix(-1 0 0 1.0002 772.86 617.12)"/><path d="M233 617.12 571.435 791.349" stroke="#3F7489" stroke-width="2" stroke-miterlimit="8" fill="none" fill-rule="evenodd"/><path d="M233 617.12 706.254 791.349" stroke="#3F7489" stroke-width="2" stroke-miterlimit="8" fill="none" fill-rule="evenodd"/><path d="M341 617.12 571.412 791.349" stroke="#3F7489" stroke-width="2" stroke-miterlimit="8" fill="none" fill-rule="evenodd"/><path d="M449 617.12 706.208 791.349" stroke="#3F7489" stroke-width="2" stroke-miterlimit="8" fill="none" fill-rule="evenodd"/><path d="M557 617.12 706.186 791.349" stroke="#3F7489" stroke-width="2" stroke-miterlimit="8" fill="none" fill-rule="evenodd"/><path d="M0 0 66.8596 174.195" stroke="#3F7489" stroke-width="2" stroke-miterlimit="8" fill="none" fill-rule="evenodd" transform="matrix(-1 0 0 1.0002 772.86 617.12)"/><path d="M0 0 471.317 174.195" stroke="#3F7489" stroke-width="2" stroke-miterlimit="8" fill="none" fill-rule="evenodd" transform="matrix(-1 0 0 1.0002 772.317 617.12)"/><path d="M0 0 336.498 174.195" stroke="#3F7489" stroke-width="2" stroke-miterlimit="8" fill="none" fill-rule="evenodd" transform="matrix(-1 0 0 1.0002 772.498 617.12)"/><path d="M0 0 363.294 174.195" stroke="#3F7489" stroke-width="2" stroke-miterlimit="8" fill="none" fill-rule="evenodd" transform="matrix(-1 0 0 1.0002 664.294 617.12)"/><path d="M0 0 228.475 174.195" stroke="#3F7489" stroke-width="2" stroke-miterlimit="8" fill="none" fill-rule="evenodd" transform="matrix(-1 0 0 1.0002 664.475 617.12)"/><path d="M0 0 255.271 172.785" stroke="#3F7489" stroke-width="2" stroke-miterlimit="8" fill="none" fill-rule="evenodd" transform="matrix(-1 0 0 1.0002 556.271 618.121)"/><path d="M449 617.12 571.389 791.349" stroke="#3F7489" stroke-width="2" stroke-miterlimit="8" fill="none" fill-rule="evenodd"/><path d="M341 617.12 706.231 791.349" stroke="#3F7489" stroke-width="2" stroke-miterlimit="8" fill="none" fill-rule="evenodd"/><path d="M0 27.5C-3.43746e-15 12.3122 12.0883-3.50112e-15 27-7.00223e-15 41.9117-1.40045e-14 54 12.3122 54 27.5 54 42.6878 41.9117 55 27 55 12.0883 55-1.71873e-14 42.6878 0 27.5Z" stroke="#E76F51" stroke-width="2" stroke-miterlimit="8" fill="#E76F51" fill-rule="evenodd" transform="matrix(1 0 0 -1.0002 158 1323.26)"/><path d="M0 27.5C-3.43746e-15 12.3122 12.0883-3.50112e-15 27-7.00223e-15 41.9117-1.40045e-14 54 12.3122 54 27.5 54 42.6878 41.9117 55 27 55 12.0883 55-1.71873e-14 42.6878 0 27.5Z" stroke="#E76F51" stroke-width="2" stroke-miterlimit="8" fill="#E76F51" fill-rule="evenodd" transform="matrix(1 0 0 -1.0002 266 1323.26)"/><path d="M0 27.5C-3.43746e-15 12.3122 12.0883-3.50112e-15 27-7.00223e-15 41.9117-1.40045e-14 54 12.3122 54 27.5 54 42.6878 41.9117 55 27 55 12.0883 55-1.71873e-14 42.6878 0 27.5Z" stroke="#E76F51" stroke-width="2" stroke-miterlimit="8" fill="#E76F51" fill-rule="evenodd" transform="matrix(1 0 0 -1.0002 482 1323.26)"/><path d="M0 27.5C-3.43746e-15 12.3122 12.0883-3.50112e-15 27-7.00223e-15 41.9117-1.40045e-14 54 12.3122 54 27.5 54 42.6878 41.9117 55 27 55 12.0883 55-1.71873e-14 42.6878 0 27.5Z" stroke="#E76F51" stroke-width="2" stroke-miterlimit="8" fill="#E76F51" fill-rule="evenodd" transform="matrix(1 0 0 -1.0002 374 1323.26)"/><path d="M0 27.5C-3.43746e-15 12.3122 12.0883-3.50112e-15 27-7.00223e-15 41.9117-1.40045e-14 54 12.3122 54 27.5 54 42.6878 41.9117 55 27 55 12.0883 55-1.71873e-14 42.6878 0 27.5Z" stroke="#E76F51" stroke-width="2" stroke-miterlimit="8" fill="#E76F51" fill-rule="evenodd" transform="matrix(1 0 0 -1.0002 590 1323.26)"/><path d="M0 27.5C-3.43746e-15 12.3122 12.0883-3.50112e-15 27-7.00223e-15 41.9117-1.40045e-14 54 12.3122 54 27.5 54 42.6878 41.9117 55 27 55 12.0883 55-1.71873e-14 42.6878 0 27.5Z" stroke="#E76F51" stroke-width="2" stroke-miterlimit="8" fill="#E76F51" fill-rule="evenodd" transform="matrix(1 0 0 -1.0002 698 1323.26)"/><path d="M0 27.5C-3.43746e-15 12.3122 12.0883-3.50112e-15 27-7.00223e-15 41.9117-1.40045e-14 54 12.3122 54 27.5 54 42.6878 41.9117 55 27 55 12.0883 55-1.71873e-14 42.6878 0 27.5Z" stroke="#E76F51" stroke-width="2" stroke-miterlimit="8" fill="#E76F51" fill-rule="evenodd" transform="matrix(1 0 0 -1.0002 806 1323.26)"/><path d="M0 0 50.8126 166.16" stroke="#3F7489" stroke-width="2" stroke-miterlimit="8" fill="none" fill-rule="evenodd" transform="matrix(1 0 0 -1.0002 185 1268.41)"/><path d="M293.21 1268.41 236 1102.22" stroke="#3F7489" stroke-width="2" stroke-miterlimit="8" fill="none" fill-rule="evenodd"/><path d="M236 1102.22 401.233 1268.41" stroke="#3F7489" stroke-width="2" stroke-miterlimit="8" fill="none" fill-rule="evenodd"/><path d="M236 1102.22 509.255 1268.41" stroke="#3F7489" stroke-width="2" stroke-miterlimit="8" fill="none" fill-rule="evenodd"/><path d="M236 1102.22 617.278 1268.41" stroke="#3F7489" stroke-width="2" stroke-miterlimit="8" fill="none" fill-rule="evenodd"/><path d="M236 1102.22 725.301 1268.41" stroke="#3F7489" stroke-width="2" stroke-miterlimit="8" fill="none" fill-rule="evenodd"/><path d="M236 1102.22 833.323 1268.41" stroke="#3F7489" stroke-width="2" stroke-miterlimit="8" fill="none" fill-rule="evenodd"/><path d="M0 0 158.835 166.16" stroke="#3F7489" stroke-width="2" stroke-miterlimit="8" fill="none" fill-rule="evenodd" transform="matrix(-1 0 0 1.0002 343.835 1102.22)"/><path d="M0 0 50.8126 166.16" stroke="#3F7489" stroke-width="2" stroke-miterlimit="8" fill="none" fill-rule="evenodd" transform="matrix(-1 0 0 1.0002 343.813 1102.22)"/><path d="M344 1102.22 401.21 1268.41" stroke="#3F7489" stroke-width="2" stroke-miterlimit="8" fill="none" fill-rule="evenodd"/><path d="M344 1102.22 509.233 1268.41" stroke="#3F7489" stroke-width="2" stroke-miterlimit="8" fill="none" fill-rule="evenodd"/><path d="M344 1102.22 617.255 1268.41" stroke="#3F7489" stroke-width="2" stroke-miterlimit="8" fill="none" fill-rule="evenodd"/><path d="M344 1102.22 725.278 1268.41" stroke="#3F7489" stroke-width="2" stroke-miterlimit="8" fill="none" fill-rule="evenodd"/><path d="M344 1102.22 833.301 1268.41" stroke="#3F7489" stroke-width="2" stroke-miterlimit="8" fill="none" fill-rule="evenodd"/><path d="M0 0 266.858 166.16" stroke="#3F7489" stroke-width="2" stroke-miterlimit="8" fill="none" fill-rule="evenodd" transform="matrix(-1 0 0 1.0002 451.858 1102.22)"/><path d="M0 0 158.835 166.16" stroke="#3F7489" stroke-width="2" stroke-miterlimit="8" fill="none" fill-rule="evenodd" transform="matrix(-1 0 0 1.0002 451.835 1102.22)"/><path d="M0 0 50.8126 166.16" stroke="#3F7489" stroke-width="2" stroke-miterlimit="8" fill="none" fill-rule="evenodd" transform="matrix(-1 0 0 1.0002 451.813 1102.22)"/><path d="M452 1102.22 509.21 1268.41" stroke="#3F7489" stroke-width="2" stroke-miterlimit="8" fill="none" fill-rule="evenodd"/><path d="M452 1102.22 617.233 1268.41" stroke="#3F7489" stroke-width="2" stroke-miterlimit="8" fill="none" fill-rule="evenodd"/><path d="M452 1102.22 725.255 1268.41" stroke="#3F7489" stroke-width="2" stroke-miterlimit="8" fill="none" fill-rule="evenodd"/><path d="M452 1102.22 833.278 1268.41" stroke="#3F7489" stroke-width="2" stroke-miterlimit="8" fill="none" fill-rule="evenodd"/><path d="M0 0 374.881 166.16" stroke="#3F7489" stroke-width="2" stroke-miterlimit="8" fill="none" fill-rule="evenodd" transform="matrix(-1 0 0 1.0002 559.881 1102.22)"/><path d="M0 0 374.881 166.16" stroke="#3F7489" stroke-width="2" stroke-miterlimit="8" fill="none" fill-rule="evenodd" transform="matrix(-1 0 0 1.0002 559.881 1102.22)"/><path d="M0 0 158.835 166.16" stroke="#3F7489" stroke-width="2" stroke-miterlimit="8" fill="none" fill-rule="evenodd" transform="matrix(-1 0 0 1.0002 559.835 1102.22)"/><path d="M0 0 50.8126 166.16" stroke="#3F7489" stroke-width="2" stroke-miterlimit="8" fill="none" fill-rule="evenodd" transform="matrix(-1 0 0 1.0002 559.813 1102.22)"/><path d="M560 1102.22 617.21 1268.41" stroke="#3F7489" stroke-width="2" stroke-miterlimit="8" fill="none" fill-rule="evenodd"/><path d="M560 1102.22 725.233 1268.41" stroke="#3F7489" stroke-width="2" stroke-miterlimit="8" fill="none" fill-rule="evenodd"/><path d="M560 1102.22 833.255 1268.41" stroke="#3F7489" stroke-width="2" stroke-miterlimit="8" fill="none" fill-rule="evenodd"/><path d="M0 0 482.903 166.16" stroke="#3F7489" stroke-width="2" stroke-miterlimit="8" fill="none" fill-rule="evenodd" transform="matrix(-1 0 0 1.0002 667.903 1102.22)"/><path d="M0 0 374.881 166.16" stroke="#3F7489" stroke-width="2" stroke-miterlimit="8" fill="none" fill-rule="evenodd" transform="matrix(-1 0 0 1.0002 667.881 1102.22)"/><path d="M0 0 266.858 166.16" stroke="#3F7489" stroke-width="2" stroke-miterlimit="8" fill="none" fill-rule="evenodd" transform="matrix(-1 0 0 1.0002 667.858 1102.22)"/><path d="M0 0 158.835 166.16" stroke="#3F7489" stroke-width="2" stroke-miterlimit="8" fill="none" fill-rule="evenodd" transform="matrix(-1 0 0 1.0002 667.835 1102.22)"/><path d="M0 0 50.8126 166.16" stroke="#3F7489" stroke-width="2" stroke-miterlimit="8" fill="none" fill-rule="evenodd" transform="matrix(-1 0 0 1.0002 667.813 1102.22)"/><path d="M668 1102.22 725.21 1268.41" stroke="#3F7489" stroke-width="2" stroke-miterlimit="8" fill="none" fill-rule="evenodd"/><path d="M668 1102.22 833.233 1268.41" stroke="#3F7489" stroke-width="2" stroke-miterlimit="8" fill="none" fill-rule="evenodd"/><path d="M0 0 590.926 166.16" stroke="#3F7489" stroke-width="2" stroke-miterlimit="8" fill="none" fill-rule="evenodd" transform="matrix(-1 0 0 1.0002 775.926 1102.22)"/><path d="M0 0 482.903 166.16" stroke="#3F7489" stroke-width="2" stroke-miterlimit="8" fill="none" fill-rule="evenodd" transform="matrix(-1 0 0 1.0002 775.903 1102.22)"/><path d="M0 0 374.881 166.16" stroke="#3F7489" stroke-width="2" stroke-miterlimit="8" fill="none" fill-rule="evenodd" transform="matrix(-1 0 0 1.0002 775.881 1102.22)"/><path d="M0 0 266.858 166.16" stroke="#3F7489" stroke-width="2" stroke-miterlimit="8" fill="none" fill-rule="evenodd" transform="matrix(-1 0 0 1.0002 775.858 1102.22)"/><path d="M0 0 158.835 166.16" stroke="#3F7489" stroke-width="2" stroke-miterlimit="8" fill="none" fill-rule="evenodd" transform="matrix(-1 0 0 1.0002 775.835 1102.22)"/><path d="M0 0 50.8126 166.16" stroke="#3F7489" stroke-width="2" stroke-miterlimit="8" fill="none" fill-rule="evenodd" transform="matrix(-1 0 0 1.0002 775.813 1102.22)"/><path d="M776 1102.22 833.21 1268.41" stroke="#3F7489" stroke-width="2" stroke-miterlimit="8" fill="none" fill-rule="evenodd"/><path d="M775.679 1047.4 574 873.171" stroke="#3F7489" stroke-width="2" stroke-miterlimit="8" fill="none" fill-rule="evenodd"/><path d="M667.656 1047.4 574 873.171" stroke="#3F7489" stroke-width="2" stroke-miterlimit="8" fill="none" fill-rule="evenodd"/><path d="M559.452 1047.4 439 873.171" stroke="#3F7489" stroke-width="2" stroke-miterlimit="8" fill="none" fill-rule="evenodd"/><path d="M451.43 1047.4 439 873.171" stroke="#3F7489" stroke-width="2" stroke-miterlimit="8" fill="none" fill-rule="evenodd"/><path d="M343.226 1047.4 304 873.171" stroke="#3F7489" stroke-width="2" stroke-miterlimit="8" fill="none" fill-rule="evenodd"/><path d="M0 0 203.616 174.195" stroke="#3F7489" stroke-width="2" stroke-miterlimit="8" fill="none" fill-rule="evenodd" transform="matrix(1 0 0 -1.0002 236 1047.4)"/><path d="M0 27.5C-3.50112e-15 12.3122 12.3122-3.50112e-15 27.5-7.00223e-15 42.6878-1.40045e-14 55 12.3122 55 27.5 55 42.6878 42.6878 55 27.5 55 12.3122 55-1.75056e-14 42.6878 0 27.5Z" stroke="#264653" stroke-width="2" stroke-miterlimit="8" fill="#264653" fill-rule="evenodd" transform="matrix(1 0 0 -1.0002 208 1102.22)"/><path d="M0 27.5C-3.50112e-15 12.3122 12.3122-3.50112e-15 27.5-7.00223e-15 42.6878-1.40045e-14 55 12.3122 55 27.5 55 42.6878 42.6878 55 27.5 55 12.3122 55-1.75056e-14 42.6878 0 27.5Z" stroke="#264653" stroke-width="2" stroke-miterlimit="8" fill="#264653" fill-rule="evenodd" transform="matrix(1 0 0 -1.0002 424 1102.22)"/><path d="M0 27.5C-3.50112e-15 12.3122 12.3122-3.50112e-15 27.5-7.00223e-15 42.6878-1.40045e-14 55 12.3122 55 27.5 55 42.6878 42.6878 55 27.5 55 12.3122 55-1.75056e-14 42.6878 0 27.5Z" stroke="#264653" stroke-width="2" stroke-miterlimit="8" fill="#264653" fill-rule="evenodd" transform="matrix(1 0 0 -1.0002 316 1102.22)"/><path d="M0 27.5C-3.50112e-15 12.3122 12.3122-3.50112e-15 27.5-7.00223e-15 42.6878-1.40045e-14 55 12.3122 55 27.5 55 42.6878 42.6878 55 27.5 55 12.3122 55-1.75056e-14 42.6878 0 27.5Z" stroke="#264653" stroke-width="2" stroke-miterlimit="8" fill="#264653" fill-rule="evenodd" transform="matrix(1 0 0 -1.0002 532 1102.22)"/><path d="M0 27.5C-3.50112e-15 12.3122 12.3122-3.50112e-15 27.5-7.00223e-15 42.6878-1.40045e-14 55 12.3122 55 27.5 55 42.6878 42.6878 55 27.5 55 12.3122 55-1.75056e-14 42.6878 0 27.5Z" stroke="#264653" stroke-width="2" stroke-miterlimit="8" fill="#264653" fill-rule="evenodd" transform="matrix(1 0 0 -1.0002 640 1102.22)"/><path d="M0 27.5C-3.50112e-15 12.3122 12.3122-3.50112e-15 27.5-7.00223e-15 42.6878-1.40045e-14 55 12.3122 55 27.5 55 42.6878 42.6878 55 27.5 55 12.3122 55-1.75056e-14 42.6878 0 27.5Z" stroke="#264653" stroke-width="2" stroke-miterlimit="8" fill="#264653" fill-rule="evenodd" transform="matrix(1 0 0 -1.0002 748 1102.22)"/><path d="M0 0 68.7967 174.195" stroke="#3F7489" stroke-width="2" stroke-miterlimit="8" fill="none" fill-rule="evenodd" transform="matrix(1 0 0 -1.0002 236 1047.4)"/><path d="M0 0 95.5931 174.195" stroke="#3F7489" stroke-width="2" stroke-miterlimit="8" fill="none" fill-rule="evenodd" transform="matrix(1 0 0 -1.0002 344 1047.4)"/><path d="M451.249 1047.4 304 873.171" stroke="#3F7489" stroke-width="2" stroke-miterlimit="8" fill="none" fill-rule="evenodd"/><path d="M0 0 14.3667 174.195" stroke="#3F7489" stroke-width="2" stroke-miterlimit="8" fill="none" fill-rule="evenodd" transform="matrix(1 0 0 -1.0002 560 1047.4)"/><path d="M0 0 41.163 174.195" stroke="#3F7489" stroke-width="2" stroke-miterlimit="8" fill="none" fill-rule="evenodd" transform="matrix(1 0 0 -1.0002 668 1047.4)"/><path d="M775.86 1047.4 709 873.171" stroke="#3F7489" stroke-width="2" stroke-miterlimit="8" fill="none" fill-rule="evenodd"/><path d="M0 0 338.435 174.195" stroke="#3F7489" stroke-width="2" stroke-miterlimit="8" fill="none" fill-rule="evenodd" transform="matrix(1 0 0 -1.0002 236 1047.4)"/><path d="M0 0 473.254 174.195" stroke="#3F7489" stroke-width="2" stroke-miterlimit="8" fill="none" fill-rule="evenodd" transform="matrix(1 0 0 -1.0002 236 1047.4)"/><path d="M0 0 230.412 174.195" stroke="#3F7489" stroke-width="2" stroke-miterlimit="8" fill="none" fill-rule="evenodd" transform="matrix(1 0 0 -1.0002 344 1047.4)"/><path d="M0 0 257.208 174.195" stroke="#3F7489" stroke-width="2" stroke-miterlimit="8" fill="none" fill-rule="evenodd" transform="matrix(1 0 0 -1.0002 452 1047.4)"/><path d="M0 0 149.186 174.195" stroke="#3F7489" stroke-width="2" stroke-miterlimit="8" fill="none" fill-rule="evenodd" transform="matrix(1 0 0 -1.0002 560 1047.4)"/><path d="M775.86 1047.4 709 873.171" stroke="#3F7489" stroke-width="2" stroke-miterlimit="8" fill="none" fill-rule="evenodd"/><path d="M775.317 1047.4 304 873.171" stroke="#3F7489" stroke-width="2" stroke-miterlimit="8" fill="none" fill-rule="evenodd"/><path d="M775.498 1047.4 439 873.171" stroke="#3F7489" stroke-width="2" stroke-miterlimit="8" fill="none" fill-rule="evenodd"/><path d="M667.294 1047.4 304 873.171" stroke="#3F7489" stroke-width="2" stroke-miterlimit="8" fill="none" fill-rule="evenodd"/><path d="M667.475 1047.4 439 873.171" stroke="#3F7489" stroke-width="2" stroke-miterlimit="8" fill="none" fill-rule="evenodd"/><path d="M559.271 1045.99 304 873.17" stroke="#3F7489" stroke-width="2" stroke-miterlimit="8" fill="none" fill-rule="evenodd"/><path d="M0 0 122.389 174.195" stroke="#3F7489" stroke-width="2" stroke-miterlimit="8" fill="none" fill-rule="evenodd" transform="matrix(1 0 0 -1.0002 452 1047.4)"/><path d="M0 0 365.231 174.195" stroke="#3F7489" stroke-width="2" stroke-miterlimit="8" fill="none" fill-rule="evenodd" transform="matrix(1 0 0 -1.0002 344 1047.4)"/></g></svg>