<svg width="960" height="1707" xmlns="http://www.w3.org/2000/svg" xmlns:xlink="http://www.w3.org/1999/xlink" overflow="hidden"><defs><clipPath id="clip0"><rect x="0" y="0" width="960" height="1707"/></clipPath></defs><g clip-path="url(#clip0)"><rect x="0" y="0" width="960" height="1707.33" fill="#FFFFFF"/><path d="M0 0 554.819 313.464" stroke="#AFCAA6" stroke-width="2" stroke-miterlimit="8" fill="none" fill-rule="evenodd" transform="matrix(-1 0 0 1.0002 735.819 697.136)"/><path d="M0 0 446.796 313.464" stroke="#AFCAA6" stroke-width="2" stroke-miterlimit="8" fill="none" fill-rule="evenodd" transform="matrix(-1 0 0 1.0002 735.797 697.136)"/><path d="M0 0 338.774 313.464" stroke="#AFCAA6" stroke-width="2" stroke-miterlimit="8" fill="none" fill-rule="evenodd" transform="matrix(-1 0 0 1.0002 735.774 697.136)"/><path d="M0 0 230.751 313.464" stroke="#AFCAA6" stroke-width="2" stroke-miterlimit="8" fill="none" fill-rule="evenodd" transform="matrix(-1 0 0 1.0002 735.751 697.136)"/><path d="M0 0 122.728 313.464" stroke="#AFCAA6" stroke-width="2" stroke-miterlimit="8" fill="none" fill-rule="evenodd" transform="matrix(-1 0 0 1.0002 735.729 697.136)"/><path d="M0 0 14.7058 313.464" stroke="#AFCAA6" stroke-width="2" stroke-miterlimit="8" fill="none" fill-rule="evenodd" transform="matrix(-1 0 0 1.0002 735.706 697.136)"/><path d="M736 697.136 829.317 1010.66" stroke="#AFCAA6" stroke-width="2" stroke-miterlimit="8" fill="none" fill-rule="evenodd"/><path d="M154 1037.7C154 1022.51 166.088 1010.2 181 1010.2 195.912 1010.2 208 1022.51 208 1037.7 208 1052.89 195.912 1065.21 181 1065.21 166.088 1065.21 154 1052.89 154 1037.7Z" stroke="#E76F51" stroke-width="2" stroke-miterlimit="8" fill="#E76F51" fill-rule="evenodd"/><path d="M262 1037.7C262 1022.51 274.088 1010.2 289 1010.2 303.912 1010.2 316 1022.51 316 1037.7 316 1052.89 303.912 1065.21 289 1065.21 274.088 1065.21 262 1052.89 262 1037.7Z" stroke="#E76F51" stroke-width="2" stroke-miterlimit="8" fill="#E76F51" fill-rule="evenodd"/><path d="M478 1037.7C478 1022.51 490.088 1010.2 505 1010.2 519.912 1010.2 532 1022.51 532 1037.7 532 1052.89 519.912 1065.21 505 1065.21 490.088 1065.21 478 1052.89 478 1037.7Z" stroke="#E76F51" stroke-width="2" stroke-miterlimit="8" fill="#E76F51" fill-rule="evenodd"/><path d="M370 1037.7C370 1022.51 382.088 1010.2 397 1010.2 411.912 1010.2 424 1022.51 424 1037.7 424 1052.89 411.912 1065.21 397 1065.21 382.088 1065.21 370 1052.89 370 1037.7Z" stroke="#E76F51" stroke-width="2" stroke-miterlimit="8" fill="#E76F51" fill-rule="evenodd"/><path d="M586 1037.7C586 1022.51 598.088 1010.2 613 1010.2 627.912 1010.2 640 1022.51 640 1037.7 640 1052.89 627.912 1065.21 613 1065.21 598.088 1065.21 586 1052.89 586 1037.7Z" stroke="#E76F51" stroke-width="2" stroke-miterlimit="8" fill="#E76F51" fill-rule="evenodd"/><path d="M694 1037.7C694 1022.51 706.088 1010.2 721 1010.2 735.912 1010.2 748 1022.51 748 1037.7 748 1052.89 735.912 1065.21 721 1065.21 706.088 1065.21 694 1052.89 694 1037.7Z" stroke="#E76F51" stroke-width="2" stroke-miterlimit="8" fill="#E76F51" fill-rule="evenodd"/><path d="M802 1037.7C802 1022.51 814.088 1010.2 829 1010.2 843.912 1010.2 856 1022.51 856 1037.7 856 1052.89 843.912 1065.21 829 1065.21 814.088 1065.21 802 1052.89 802 1037.7Z" stroke="#E76F51" stroke-width="2" stroke-miterlimit="8" fill="#E76F51" fill-rule="evenodd"/><path d="M0 0 98.8044 238.45" stroke="#F8C79E" stroke-width="2" stroke-miterlimit="8" fill="none" fill-rule="evenodd" transform="matrix(-1 0 0 1.0002 279.804 772.151)"/><path d="M280 772.151 308.546 1018.66" stroke="#F8C79E" stroke-width="2" stroke-miterlimit="8" fill="none" fill-rule="evenodd"/><path d="M280 772.151 397.241 1010.65" stroke="#F8C79E" stroke-width="2" stroke-miterlimit="8" fill="none" fill-rule="evenodd"/><path d="M280 772.151 505.264 1010.65" stroke="#F8C79E" stroke-width="2" stroke-miterlimit="8" fill="none" fill-rule="evenodd"/><path d="M280 772.151 613.286 1010.65" stroke="#F8C79E" stroke-width="2" stroke-miterlimit="8" fill="none" fill-rule="evenodd"/><path d="M280 772.151 721.309 1010.65" stroke="#F8C79E" stroke-width="2" stroke-miterlimit="8" fill="none" fill-rule="evenodd"/><path d="M280 772.151 829.332 1010.65" stroke="#F8C79E" stroke-width="2" stroke-miterlimit="8" fill="none" fill-rule="evenodd"/><path d="M0 0 257.922 252.543" stroke="#F1DAA1" stroke-width="2" stroke-miterlimit="8" fill="none" fill-rule="evenodd" transform="matrix(-1 0 0 1.0002 438.922 758.148)"/><path d="M0 0 146.075 252.256" stroke="#F1DAA1" stroke-width="2" stroke-miterlimit="8" fill="none" fill-rule="evenodd" transform="matrix(-1 0 0 1.0002 435.075 758.148)"/><path d="M0 0 38.0522 252.256" stroke="#F1DAA1" stroke-width="2" stroke-miterlimit="8" fill="none" fill-rule="evenodd" transform="matrix(-1 0 0 1.0002 435.052 758.148)"/><path d="M431 759.148 504.561 1010.54" stroke="#F1DAA1" stroke-width="2" stroke-miterlimit="8" fill="none" fill-rule="evenodd"/><path d="M431 759.148 612.583 1010.54" stroke="#F1DAA1" stroke-width="2" stroke-miterlimit="8" fill="none" fill-rule="evenodd"/><path d="M431 759.148 720.606 1010.54" stroke="#F1DAA1" stroke-width="2" stroke-miterlimit="8" fill="none" fill-rule="evenodd"/><path d="M431 759.148 828.629 1010.54" stroke="#F1DAA1" stroke-width="2" stroke-miterlimit="8" fill="none" fill-rule="evenodd"/><path d="M0 0 406.309 210.334" stroke="#5ED4C6" stroke-width="2" stroke-miterlimit="8" fill="none" fill-rule="evenodd" transform="matrix(-1 0 0 1.0002 587.309 800.156)"/><path d="M0 0 298.286 210.334" stroke="#5ED4C6" stroke-width="2" stroke-miterlimit="8" fill="none" fill-rule="evenodd" transform="matrix(-1 0 0 1.0002 587.286 800.156)"/><path d="M0 0 185.574 210.489" stroke="#5ED4C6" stroke-width="2" stroke-miterlimit="8" fill="none" fill-rule="evenodd" transform="matrix(-1 0 0 1.0002 582.574 800.156)"/><path d="M0 0 77.5515 210.489" stroke="#5ED4C6" stroke-width="2" stroke-miterlimit="8" fill="none" fill-rule="evenodd" transform="matrix(-1 0 0 1.0002 582.552 800.156)"/><path d="M583 800.156 613.471 1010.69" stroke="#5ED4C6" stroke-width="2" stroke-miterlimit="8" fill="none" fill-rule="evenodd"/><path d="M579 800.156 720.752 1010.56" stroke="#5ED4C6" stroke-width="2" stroke-miterlimit="8" fill="none" fill-rule="evenodd"/><path d="M579 800.156 828.774 1010.56" stroke="#5ED4C6" stroke-width="2" stroke-miterlimit="8" fill="none" fill-rule="evenodd"/><path d="M773 679.633C773 669.413 781.059 661.129 791 661.129 800.941 661.129 809 669.413 809 679.633 809 689.852 800.941 698.136 791 698.136 781.059 698.136 773 689.852 773 679.633Z" stroke="#8AB17D" stroke-width="2" stroke-miterlimit="8" fill="#8AB17D" fill-rule="evenodd"/><path d="M662 677.132C662 667.189 670.283 659.129 680.5 659.129 690.717 659.129 699 667.189 699 677.132 699 687.075 690.717 695.136 680.5 695.136 670.283 695.136 662 687.075 662 677.132Z" stroke="#8AB17D" stroke-width="2" stroke-miterlimit="8" fill="#8AB17D" fill-rule="evenodd"/><path d="M718 679.133C718 669.19 726.059 661.129 736 661.129 745.941 661.129 754 669.19 754 679.133 754 689.076 745.941 697.136 736 697.136 726.059 697.136 718 689.076 718 679.133Z" stroke="#8AB17D" stroke-width="2" stroke-miterlimit="8" fill="#8AB17D" fill-rule="evenodd"/><path d="M237 683.133C237 660.485 255.356 642.125 278 642.125 300.644 642.125 319 660.485 319 683.133 319 705.781 300.644 724.141 278 724.141 255.356 724.141 237 705.781 237 683.133Z" stroke="#F4A261" stroke-width="2" stroke-miterlimit="8" fill="#F4A261" fill-rule="evenodd"/><text font-family="FrankRuehl,FrankRuehl_MSFontService,sans-serif" font-weight="400" font-size="16.0031" transform="matrix(1 0 0 1.0002 260.426 689)">Spots</text><path d="M390 683.133C390 660.485 408.356 642.125 431 642.125 453.644 642.125 472 660.485 472 683.133 472 705.781 453.644 724.141 431 724.141 408.356 724.141 390 705.781 390 683.133Z" stroke="#E9C46A" stroke-width="2" stroke-miterlimit="8" fill="#E9C46A" fill-rule="evenodd"/><text font-family="FrankRuehl,FrankRuehl_MSFontService,sans-serif" font-weight="400" font-size="16.0031" transform="matrix(1 0 0 1.0002 413.86 689)">Fac’s</text><path d="M543 680.633C543 658.261 561.356 640.125 584 640.125 606.644 640.125 625 658.261 625 680.633 625 703.005 606.644 721.141 584 721.141 561.356 721.141 543 703.005 543 680.633Z" stroke="#2A9D8F" stroke-width="2" stroke-miterlimit="8" fill="#2A9D8F" fill-rule="evenodd"/><text font-family="FrankRuehl,FrankRuehl_MSFontService,sans-serif" font-weight="400" font-size="16.0031" transform="matrix(1 0 0 1.0002 569.795 686)">CO</text><text font-family="FrankRuehl,FrankRuehl_MSFontService,sans-serif" font-weight="400" font-size="16.0031" transform="matrix(1 0 0 1.0002 591.962 691)">2</text><path d="M223 724.068 223.187 728.816 223.379 718.14 223.576 720.621 223.778 728.316 223.985 738.518 224.197 742.346 224.415 742.628 224.638 743.943 224.868 735.286 225.103 734.127 225.345 735.81 225.593 741.419 226.11 749.86 226.379 751.236 226.656 751.513 226.939 751.021 227.231 741.242 227.838 750.761 228.154 754.754 228.479 750.472 228.812 755.949 229.154 758.732 229.505 755.43 229.866 756.459 230.235 759.139 230.614 760.673 231.003 761.181 231.401 760.366 231.809 761.543 232.226 762.226 232.653 763.328 233.089 764.644 233.535 764.955 233.99 766.654 234.454 765.752 234.928 766.788 235.409 766.3 235.899 767.527 236.397 767.454 236.903 768.294 237.417 769.017 237.937 769.16 238.464 768.967 238.997 769.478 239.536 769.837 240.08 770.588 240.629 770.402 241.183 765.468 241.74 765.315 242.301 765.907 242.865 764.112 243.432 763.107 244.001 763.018 244.571 763.411 245.143 763.23 245.716 764.075 246.29 763.306 246.864 762.762 247.438 763.692 248.012 766.366 248.585 765.23 249.157 765.752 249.729 767.122 250.868 768.824 251.435 768.861 252 766.604 252.563 765.24 253.125 763.481 253.684 762.104 254.241 760.201 254.795 759.628 255.346 760.053 255.895 757.714 256.442 759.958 256.986 760.245 257.527 761.121 258.065 761.453 258.601 762.13 259.133 762.289 259.663 761.74 260.19 761.267 261.235 763.14 261.753 763.92 262.268 764.127 262.78 765.181 263.289 767.128 263.796 767.366 264.299 769.072 264.8 769.918 265.298 771.322 265.792 771.712 266.285 773.757 266.774 774.479 267.26 775.005 267.744 775.779 268.225 775.233 268.703 775.963 269.179 775.348 269.652 774.679 270.123 774.664 270.59 772.9 271.055 772.631 271.518 771.762 271.978 769.493 272.435 768.326 272.89 767.895 273.343 768.949 273.793 769.342 274.241 767.395 274.686 767.028 275.129 765.97 275.57 765.285 276.445 766.03 276.878 763.87 277.31 767.018 277.74 766.879 278.167 767.215 278.592 769.62 279.015 767.547 279.436 772.092 279.855 766.404 280.272 765.304 280.687 764.497 281.1 766.773 281.511 766.482 281.92 765.545 282.327 765.144 282.732 762.876 283.135 764.283 283.537 765.286 283.936 764.039 284.334 764.554 284.73 764.03 285.124 764.948 285.517 764.576 285.907 763.909 286.296 766.035 286.683 765.632 287.069 765.144 287.453 765.894 287.835 765.653 288.216 764.331 288.595 766.065 288.972 765.352 289.348 765.449 289.722 767.089 290.095 765.675 290.466 767.107 290.836 767.094 291.57 767.798 291.936 768.377 292.3 768.036 292.662 768.636 293.023 766.178 293.383 769.355 293.741 768.917 294.097 768.146 294.453 768.64 294.807 769.46 295.16 770.479 295.511 770.083 295.861 769.922 296.21 771.931 296.558 771.785 296.904 772.206 297.249 773.518 297.593 774.275 297.935 773.136 298.276 773.151 298.616 772.664 298.955 774.721 299.293 774.471 299.629 774.488 299.965 774.638 300.299 775.013 300.632 774.933 300.964 775.746 301.295 776.712 301.625 775.658 301.953 776.813 302.281 778.389 302.607 778.683 302.932 777.646 303.257 777.389 303.58 777.78 303.902 778.004 304.223 779.355 304.543 779.107 304.862 779.437 305.18 779.267 305.497 779.523 305.813 780.479 306.128 781.004 306.442 780.396 306.756 780.051 307.068 780.995 307.379 782.173 307.689 781.295 307.999 782.427 308.614 781.857 308.921 782.018 309.227 783.199 309.531 782.532 309.835 782.771 310.138 783.208 310.44 782.847 310.741 783.269 311.042 783.548 311.341 784.322 311.64 783.585 311.938 783.958 312.235 784.718 312.531 785.079 312.826 784.903 313.12 784.801 313.414 784.826 313.707 785.845 313.999 784.506 314.29 784.982 314.581 785.126 314.87 784.97 315.159 785.21 315.447 785.14 315.735 784.697 316.021 784.874 316.307 784.681 316.592 785.135 316.877 785.487 317.16 784.293 317.725 784.385 318.007 784.827 318.287 785.456 318.567 782.869 318.846 782.427 319.125 783.468 319.403 784.332 319.68 783.674 319.956 783.719 320.232 784.117 320.507 784.601 320.782 784.566 321.055 782.678 321.328 784.491 321.873 785.075 322.144 784.853 322.414 782.846 322.953 784.964 323.221 783.859 323.49 783.555 323.757 783.822 324.023 783.435 324.289 783.32 324.555 784.629 325.084 784.219 325.347 784.493 325.61 784.379 325.872 784.034 326.134 784.123 326.395 784.807 326.656 784.08 326.916 784.975 327.175 784.775 327.434 785.378 327.692 783.885 327.95 786.054 328.207 784.386 328.463 784.326 328.72 784.312 328.975 786.588 329.23 783.924 329.484 786.069 329.738 786.973 329.991 785.551 330.244 785.453 330.496 785.845 330.748 787.384 330.999 786.408 331.249 787.463 331.499 785.724 331.749 786.538 331.998 785.855 332.246 785.745 332.494 784.833 332.741 785.118 332.988 786.963 333.235 784.406 333.481 784.798 333.726 787.288 333.971 784.59 334.216 784.538 334.459 785.703 334.703 786.238 334.946 785.338 335.188 787.068 335.43 784.948 335.672 785.122 335.913 786.324 336.153 784.798 336.393 785.589 336.633 785.554 336.872 784.276 337.111 785.799 337.349 785.248 337.587 785.716 338.297 783.282 338.533 785.531 338.769 786.615 339.004 785.499 339.238 784.859 339.472 785.274 339.706 785.9 339.939 784.051 340.172 784.495 340.405 785.066 340.637 786.234 340.868 786.884 341.1 784.242 341.33 785.468 341.79 784.514 342.02 785.777 342.249 785.845 342.477 784.543 342.706 784.665 342.933 784.827 343.161 784.326 343.388 786.663 343.614 783.112 343.841 785.352 344.066 784.729 344.292 786.151 344.517 784.169 344.741 785.974 344.965 784.734 345.189 782.203 345.413 783.949 345.636 784.54 345.858 782.303 346.081 785.963 346.302 784.828 346.524 784.963 346.745 784.285 346.966 783.225 347.186 784.606 347.406 786.249 347.626 785.126 347.845 785.861 348.064 784.865 348.282 782.435 348.501 783.256 348.718 783.301 348.936 784.568 349.153 783.504 349.369 783.069 349.586 783.496 349.802 785.11 350.018 785.064 350.233 783.225 350.448 784.641 350.662 784.637 350.877 782.953 351.091 793.134 351.304 788.319 351.517 795.155 351.73 783.221 351.943 785.583 352.155 781.217 352.367 790.183 352.578 794.471 353 778.408 353 778.408" stroke="#F4A261" stroke-width="4" stroke-linecap="square" stroke-linejoin="round" stroke-miterlimit="10" fill="none" fill-rule="evenodd"/><path d="M373 802.302 373.186 796.826 373.376 813.159 373.572 806.995 373.772 797.99 373.977 781.678 374.188 778.243 374.404 778.107 374.626 777.717 375.087 786.972 375.327 782.258 375.573 780.049 375.827 775.497 376.086 772.533 376.353 772.08 376.627 771.889 376.909 771.573 377.199 775.983 377.496 772.435 377.801 770.249 378.115 768.296 378.437 770.46 378.767 767.596 379.107 766.667 379.455 766.121 379.813 765.908 380.18 765.425 380.556 765.135 380.942 764.01 381.337 764.689 381.741 763.995 382.155 763.491 382.579 763.264 383.012 762.302 383.454 761.14 383.906 760.559 384.366 759.702 384.836 760.219 385.314 759.992 385.8 759.604 386.294 759.26 386.796 758.056 387.306 758.252 387.822 758.873 388.345 758.757 388.874 758.956 389.409 758.197 389.949 758.833 390.494 759.044 391.043 760.268 391.596 760.713 392.153 760.781 392.712 762.679 393.275 761.407 393.839 762.026 394.405 763.404 394.973 761.063 395.541 760.582 396.111 763.775 396.68 764.259 397.25 764.031 397.819 760.99 398.388 762.795 398.956 763.509 399.523 762.834 400.089 762.755 400.653 762.116 401.216 761.211 401.777 760.911 402.336 762.043 402.893 762.996 403.448 762.938 404 764.61 404.55 762.587 405.098 762.568 405.642 763.729 406.185 760.56 406.724 762.057 407.261 760.513 407.796 762.22 408.327 760.858 408.855 762.068 409.381 761.192 409.904 759.38 410.424 758.867 410.941 759.449 411.455 757.701 411.966 757.874 412.474 757.618 412.979 756.716 413.482 756.023 413.982 755.49 414.478 754.484 414.972 754.341 415.463 753.696 415.952 753.447 416.437 752.382 416.92 752.486 417.4 751.25 417.877 752.069 418.352 752.199 418.824 751.841 419.293 751.19 419.76 751.87 420.224 749.993 420.685 752.135 421.144 752.561 421.601 753.032 422.055 753.771 422.507 756.513 422.956 755.223 423.402 762.001 423.847 760.067 424.289 760.003 424.728 758.539 425.165 759.773 425.601 758.595 426.033 757.997 426.464 755.123 426.892 756.5 427.319 754.373 427.743 753.599 428.165 755.085 428.585 756.682 429.002 756.312 429.418 756.454 429.832 755.02 430.243 756.889 430.653 755.908 431.061 757.6 431.467 758.892 431.871 756.754 432.273 756.538 432.673 757.992 433.071 757.956 433.467 756.64 433.862 757.34 434.255 756.765 434.646 753.605 435.036 757.973 435.423 756.01 435.809 756.993 436.194 757.004 436.576 757.596 436.957 755.801 437.336 755.44 437.714 757.04 438.09 754.639 438.464 755.751 438.837 757.683 439.209 754.313 439.579 757.129 439.947 755.358 440.314 753.932 440.679 753.968 441.043 752.916 441.406 756.02 441.767 753.334 442.126 752.596 442.484 753.991 442.841 753.961 443.196 753.275 443.55 750.671 443.903 752.355 444.255 752.092 444.605 751.38 444.953 750.288 445.301 749.594 445.647 750.404 445.992 749.711 446.335 749.456 446.678 747.719 447.019 749.724 447.359 747.981 447.697 747.438 448.035 747.649 448.371 748.036 448.706 747.133 449.04 746.367 449.373 746.698 449.705 746.719 450.035 746.32 450.364 745.757 450.692 745.967 451.02 745.093 451.346 745.365 451.671 746.037 451.995 746.976 452.317 744.77 452.639 743.997 452.96 745.456 453.279 744.551 453.598 745.462 453.916 744.477 454.232 743.807 454.548 743.517 454.863 743.927 455.176 743.172 455.489 743.436 455.801 743.614 456.111 743.955 456.421 742.606 456.73 741.591 457.038 742.591 457.345 742.852 457.651 742.66 457.956 742.07 458.26 741.968 458.563 741.668 458.866 742.066 459.167 742.174 459.468 741.138 460.067 741.372 460.365 741.751 460.958 741.312 461.254 741.32 461.548 742.605 461.842 740.515 462.135 740.91 462.427 740.685 462.719 741.426 463.009 741.669 463.299 741.242 463.588 740.68 463.876 740.805 464.164 740.521 464.45 740.389 464.736 740.744 465.306 740.672 465.589 740.5 465.872 740.469 466.154 740.334 466.436 740.33 466.716 740.469 466.996 740.465 467.276 741.634 467.554 739.964 467.832 740.433 468.109 740.546 468.385 740.414 468.661 740.098 468.936 740.953 469.211 740.683 469.484 740.693 469.757 740.497 470.03 741.087 470.301 740.862 470.572 740.411 470.842 740.265 471.112 739.389 471.381 738.07 471.649 740.574 471.917 739.977 472.184 740.265 472.451 740.941 472.717 740.733 472.982 740.728 473.246 739.934 473.51 739.906 473.773 740.465 474.036 741.13 474.298 739.679 474.56 740.245 474.821 741.064 475.081 739.48 475.341 741.197 475.6 740.429 475.858 739.344 476.117 743.07 476.374 739.467 476.631 739.153 476.887 739.205 477.143 738.94 477.398 740.118 477.652 737.944 477.906 739.502 478.413 736.986 478.665 737.306 478.917 738.43 479.168 738.721 479.419 740.694 479.669 741.223 480.168 740.872 480.417 736.714 480.665 736.727 480.912 739.993 481.159 738.883 481.406 739.599 481.652 739.041 481.897 736.656 482.142 736.238 482.387 735.41 482.874 739.578 483.117 739.706 483.36 738.433 483.602 739.606 483.843 736.411 484.085 739.667 484.325 738.97 484.565 739.196 484.805 739.557 485.044 740.496 485.283 740.081 485.521 738.914 485.759 738.59 485.996 738.372 486.233 737.378 486.469 738.578 486.705 738.976 486.941 740.803 487.176 738.417 487.41 736.918 487.645 740.382 487.878 739.275 488.111 739.879 488.344 738.002 488.577 737.382 488.808 739.332 489.04 738.661 489.271 739.839 489.502 740.555 489.732 739.123 489.962 739.894 490.191 738.629 490.42 739.032 490.648 740.455 490.876 739.638 491.104 739.99 491.331 736.83 491.558 739.002 491.785 738.97 492.011 736.773 492.236 737.847 492.462 740.016 492.687 737.419 492.911 741.645 493.135 739.414 493.359 738.593 493.582 741.079 493.805 739.364 494.027 739.919 494.25 741.151 494.471 740.22 494.692 741.018 494.913 740.354 495.134 739.97 495.354 742.434 495.574 740.07 495.793 740.073 496.012 740.796 496.231 738.852 496.449 739.268 496.667 739.193 496.885 737.344 497.102 738.368 497.319 738.109 497.535 737.647 497.751 739.988 497.967 738.195 498.183 740.775 498.397 740.76 498.612 738.434 498.827 738.8 499.04 738.49 499.254 737.186 499.467 738.561 499.68 741.824 499.893 754.561 500.105 738.344 500.317 735.144 500.529 735.76 500.74 744.619 500.951 736.305 501.161 745.46 501.371 741.769 501.581 738.599 501.791 740.061 502 740.147 502 740.147" stroke="#E9C46A" stroke-width="4" stroke-linecap="square" stroke-linejoin="round" stroke-miterlimit="10" fill="none" fill-rule="evenodd"/><path d="M651 798.422 650.775 798.392 650.549 796.356 650.323 793.545 650.096 788.698 649.87 788.647 649.642 785.756 649.415 787.22 649.187 782.903 648.958 782.701 648.73 782.086 648.501 775.93 648.271 781.279 648.041 785.027 647.811 785.736 647.581 785.986 647.35 775.181 647.118 773.695 646.887 791.442 646.654 792.563 646.422 797.931 646.189 798.807 645.956 797.938 645.722 793.864 645.488 794.136 645.254 792.467 645.019 794.52 644.784 795.834 644.548 797.608 644.312 797.661 644.076 798.064 643.839 798.907 643.602 799.466 643.126 799.929 642.887 799.73 642.649 799.686 642.409 799.867 642.169 800.009 641.929 799.902 641.689 799.092 641.448 800.081 640.965 800.136 640.722 800.131 640.479 800.033 640.237 799.884 639.993 799.452 639.749 798.387 639.505 796.073 639.26 789.492 639.014 788.325 638.769 784.946 638.522 781.036 638.276 774.477 638.028 775.679 637.781 771.497 637.533 772.681 637.284 768.448 637.035 773.952 636.786 772.918 636.536 773.086 636.286 756.75 636.035 776.479 635.784 780.144 635.532 781.657 635.279 776.362 635.027 791.021 634.773 788.86 634.52 785.803 634.265 786.914 634.011 786.699 633.755 790.476 633.5 791.59 633.244 793.587 632.987 793.462 632.73 789.409 632.472 797.594 632.214 798.175 631.955 797.762 631.696 799.633 631.436 799.396 631.176 799.523 630.915 799.484 630.654 799.25 630.392 799.292 630.13 800.058 629.866 800.104 629.603 800.076 629.339 800.086 628.809 799.881 628.544 799.834 628.277 799.626 628.011 799.004 627.743 798.967 627.475 798.831 627.207 797.646 626.938 798.765 626.668 799.721 626.398 797.384 626.128 798.451 625.856 796.549 625.584 799.075 625.312 799.71 625.039 799.906 624.765 799.405 624.491 797.191 623.94 786.015 623.664 776.703 623.387 771.058 623.11 764.73 622.832 759.518 622.553 749.593 622.274 745.468 621.994 735.876 621.714 735.149 621.433 731.884 620.869 722.372 620.585 722.486 620.302 717.14 620.017 720.51 619.732 723.133 619.446 720.125 619.16 720.416 618.873 719.158 618.585 722.143 618.297 728.302 618.008 737.204 617.718 750.16 617.136 783.106 616.844 786.947 616.551 793.265 616.258 798.35 615.964 797.434 615.669 797.928 615.373 799.803 615.077 799.014 614.78 797.749 614.482 798.9 614.183 799.397 613.884 800.069 613.584 800.144 612.981 800.147 611.461 800.156 587.638 800.135 587.255 800.022 586.871 799.586 586.485 797.694 586.097 799.597 585.708 798.212 585.318 797.015 584.925 798.778 584.532 800.021 584.137 800.151 583.74 800.135 583.341 800.041 582.941 799.979 582.539 799.432 582.136 796.075 581.731 797.023 581.324 795.481 580.915 791.128 580.504 795.286 580.092 799.851 579.678 800.101 579.262 800.024 578.845 800.105 578.425 799.89 578.004 798.096 577.58 797.644 577.155 795.511 576.728 788.832 576.298 779.306 575.867 765.684 575.434 756.968 574.999 746.226 574.562 747.026 574.122 747 573.681 774.013 573.237 769.441 572.791 749.031 572.344 743.441 571.893 743.571 570.986 798.914 570.529 799.666 570.07 799.22 569.608 799.823 569.145 800.146 567.738 800.153 567.264 800.126 566.788 800.066 566.31 799.856 565.828 799.866 565.344 800.155 559.842 800.138 558.804 800.113 558.281 800.155 557.755 800.153 557.226 800.046 556.694 799.864 556.158 799.932 555.62 800.15 555.078 800.089 554.534 798.998 553.986 789.746 553.435 775.951 552.882 779.515 552.325 792.007 551.765 763.88 551.201 781.969 550.635 787.974 550.065 769.783 549.493 794.098 548.917 800.118 548.339 799.688 547.757 794.673 547.173 800.118 546.586 800.155 541.797 800.151 541.189 799.831 540.579 796.322 539.969 798.751 539.356 789.734 538.743 793.219 538.13 795.944 537.516 796.581 536.902 799.17 536.289 799.503 535.676 800.144 535.064 800.124 534.454 787.211 533.846 798.365 533.24 800.151 532.638 800.105 532.038 800.111 531.442 799.382 530.85 798.909 530.263 799.863 529.681 799.781 529.105 800.096 528.535 800.136 527.971 797.826 527.415 796.836 526.866 800.146 523.751 800.139 523.265 800.09 522.788 799.805 522.321 800.005 521.865 800.137 517.511 800.121 517.173 800.039 516.844 800.117 512 800.066 512 800.066" stroke="#2A9D8F" stroke-width="4" stroke-linecap="square" stroke-linejoin="round" stroke-miterlimit="10" fill="none" fill-rule="evenodd"/><text font-family="Cambria Math,Cambria Math_MSFontService,sans-serif" font-weight="400" font-size="37.3406" transform="matrix(6.12323e-17 1.00039 -0.999805 6.12443e-17 891.896 374)">𝑓</text><text font-family="Cambria Math,Cambria Math_MSFontService,sans-serif" font-weight="400" font-size="27.2587" transform="matrix(6.12323e-17 1.00039 -0.999805 6.12443e-17 884.276 389)">𝜃</text><path d="M75.9236 7.04552C79.4723 7.98129 82.1975 10.0017 84.0994 13.1067 86.0013 16.2118 86.9523 19.9578 86.9523 24.345 86.9523 28.7443 86.0044 32.4904 84.1085 35.5833 82.2127 38.6762 79.4844 40.6905 75.9236 41.6263L75.4861 40.2226C78.2934 39.2868 80.3807 37.4396 81.7478 34.6809 83.115 31.9223 83.7986 28.4162 83.7986 24.1627 83.7986 20.0551 83.1181 16.6432 81.757 13.927 80.3959 11.2109 78.2874 9.38493 75.4314 8.44917ZM48.6499 7.04552 49.142 8.44917C46.2983 9.38493 44.1928 11.2109 42.8256 13.927 41.4585 16.6432 40.7749 20.0551 40.7749 24.1627 40.7749 28.4162 41.4585 31.9223 42.8256 34.6809 44.1928 37.4396 46.2801 39.2868 49.0874 40.2226L48.6499 41.6263C45.0891 40.6905 42.3608 38.6762 40.465 35.5833 38.5691 32.4904 37.6212 28.7443 37.6212 24.345 37.6212 19.9578 38.5722 16.2118 40.4741 13.1067 42.376 10.0017 45.1012 7.98129 48.6499 7.04552Z" fill-rule="evenodd" transform="matrix(6.12443e-17 1.00059 -1 6.12563e-17 926.896 374.462)"/><text font-family="Cambria Math,Cambria Math_MSFontService,sans-serif" font-weight="400" font-size="37.3406" transform="matrix(6.12323e-17 1.00039 -0.999805 6.12443e-17 891.896 424)">𝑋</text><text font-family="Cambria Math,Cambria Math_MSFontService,sans-serif" font-weight="400" font-size="37.3406" transform="matrix(6.12323e-17 1.00039 -0.999805 6.12443e-17 891.896 475)">=</text><text font-family="Cambria Math,Cambria Math_MSFontService,sans-serif" font-weight="400" font-size="37.3406" transform="matrix(6.12323e-17 1.00039 -0.999805 6.12443e-17 891.896 513)">𝑍</text><text font-family="FrankRuehl,FrankRuehl_MSFontService,sans-serif" font-weight="700" font-size="37.3406" transform="matrix(1 0 0 1.0002 889.688 683)">Z</text><text font-family="FrankRuehl,FrankRuehl_MSFontService,sans-serif" font-weight="700" font-size="26.6719" transform="matrix(1 0 0 1.0002 84.8907 668)">Latent</text><text font-family="FrankRuehl,FrankRuehl_MSFontService,sans-serif" font-weight="700" font-size="26.6719" transform="matrix(1 0 0 1.0002 89.8907 701)">Space</text><text font-family="FrankRuehl,FrankRuehl_MSFontService,sans-serif" font-weight="700" font-size="26.6719" transform="matrix(1 0 0 1.0002 96.7174 450)">Encoder</text><text font-family="Cambria Math,Cambria Math_MSFontService,sans-serif" font-weight="400" font-size="37.3406" transform="matrix(6.12323e-17 1.00039 -0.999805 6.12443e-17 891.896 735)">𝑔</text><text font-family="Cambria Math,Cambria Math_MSFontService,sans-serif" font-weight="400" font-size="27.2587" transform="matrix(6.12323e-17 1.00039 -0.999805 6.12443e-17 884.276 757)">𝜃′</text><path d="M89.8476 7.04552C93.3962 7.98129 96.1215 10.0017 98.0234 13.1067 99.9253 16.2118 100.876 19.9578 100.876 24.345 100.876 28.7443 99.9283 32.4904 98.0325 35.5833 96.1366 38.6762 93.4083 40.6905 89.8476 41.6263L89.4101 40.2226C92.2174 39.2868 94.3046 37.4396 95.6718 34.6809 97.039 31.9223 97.7226 28.4162 97.7226 24.1627 97.7226 20.0551 97.042 16.6432 95.6809 13.927 94.3198 11.2109 92.2113 9.38493 89.3554 8.44917ZM64.4068 7.04552 64.899 8.44917C62.0552 9.38493 59.9497 11.2109 58.5826 13.927 57.2154 16.6432 56.5318 20.0551 56.5318 24.1627 56.5318 28.4162 57.2154 31.9223 58.5826 34.6809 59.9497 37.4396 62.037 39.2868 64.8443 40.2226L64.4068 41.6263C60.846 40.6905 58.1177 38.6762 56.2219 35.5833 54.3261 32.4904 53.3781 28.7443 53.3781 24.345 53.3781 19.9578 54.3291 16.2118 56.231 13.1067 58.1329 10.0017 60.8582 7.98129 64.4068 7.04552Z" fill-rule="evenodd" transform="matrix(6.12443e-17 1.00059 -1 6.12563e-17 926.896 735.034)"/><text font-family="Cambria Math,Cambria Math_MSFontService,sans-serif" font-weight="400" font-size="37.3406" transform="matrix(6.12323e-17 1.00039 -0.999805 6.12443e-17 891.896 801)">𝑍</text><text font-family="Cambria Math,Cambria Math_MSFontService,sans-serif" font-weight="400" font-size="37.3406" transform="matrix(6.12323e-17 1.00039 -0.999805 6.12443e-17 891.896 850)">=</text><text font-family="Cambria Math,Cambria Math_MSFontService,sans-serif" font-weight="400" font-size="37.3406" transform="matrix(6.12323e-17 1.00039 -0.999805 6.12443e-17 891.896 888)">𝑋′</text><text font-family="FrankRuehl,FrankRuehl_MSFontService,sans-serif" font-weight="700" font-size="26.6719" transform="matrix(1 0 0 1.0002 80.4977 919)">Decoder</text><text font-family="FrankRuehl,FrankRuehl_MSFontService,sans-serif" font-weight="700" font-size="26.6719" transform="matrix(1 0 0 1.0002 65.9393 765)">Endmembers</text><text font-family="FrankRuehl,FrankRuehl_MSFontService,sans-serif" font-weight="700" font-size="37.3406" transform="matrix(1 0 0 1.0002 894.45 240)">X</text><text font-family="FrankRuehl,FrankRuehl_MSFontService,sans-serif" font-weight="700" font-size="32.0062" transform="matrix(1 0 0 1.0002 414.553 184)">Input</text><text font-family="FrankRuehl,FrankRuehl_MSFontService,sans-serif" font-weight="700" font-size="32.0062" transform="matrix(1 0 0 1.0002 487.219 184)">Spectrum</text><text font-family="FrankRuehl,FrankRuehl_MSFontService,sans-serif" font-weight="700" font-size="32.0062" transform="matrix(1 0 0 1.0002 351.72 1119)">Reconstructed</text><text font-family="FrankRuehl,FrankRuehl_MSFontService,sans-serif" font-weight="700" font-size="32.0062" transform="matrix(1 0 0 1.0002 537.887 1119)">Spectrum</text><g><g><g><g><path d="M356.76 90.119 355.657 212.675 355.104 185.572 354.551 135.688 353.996 124.055 353.441 145.278 352.884 198.036 352.327 133.565 351.769 191.637 351.21 194.951 350.65 132.482 350.089 120.001 349.527 104.494 348.965 129.35 348.401 131.659 347.837 108.06 347.271 115.861 346.705 133.12 345.569 121.606 345 110.008 344.429 104.942 343.859 124.427 342.713 138.882 342.139 148.615 341.565 135.535 340.989 129.421 340.412 140.57 339.834 146.357 339.255 157.211 338.675 148.826 338.094 104.382 337.512 149.672 336.346 124.148 335.76 143.486 335.174 149.314 334.587 146.398 333.999 148.844 333.411 128.521 332.82 156.313 332.229 118.847 331.637 147.165 331.044 103.59 330.449 128.47 329.854 138.079 329.257 137.974 328.66 131.49 328.062 141.186 327.461 129.758 326.861 137.688 326.259 130.586 325.656 89.5778 325.052 119.93 324.447 123.535 323.84 124.846 323.233 113.208 322.624 74.6499 322.015 105.149 321.404 90.9361 320.792 96.3287 320.179 132.133 319.564 137.84 318.949 138.522 318.332 99.0407 317.715 94.0822 317.096 79.6111 316.475 100.13 315.854 128.993 315.231 128.68 314.607 121.961 313.982 90.977 313.356 113.2 312.729 138.957 312.1 146.384 311.47 140.535 310.839 139.847 310.206 147.163 309.572 142.953 308.937 133.851 308.301 150.969 307.664 134.846 307.025 116.032 306.385 154.685 305.744 127.393 305.101 112.572 304.457 133.47 303.811 113.9 303.165 121.338 302.517 134.29 301.868 126.468 301.217 137.239 300.565 108.068 299.911 118.538 299.256 138.758 298.6 147.065 297.943 125.705 297.284 129.745 296.623 117.715 295.961 127.494 295.298 116.038 294.633 98.9677 293.967 131.72 293.3 122.425 292.63 123.073 291.96 139.327 291.288 143.793 290.615 123.984 289.94 128.423 289.263 120.732 288.586 136.549 287.906 105.24 287.225 109.087 286.543 104.37 285.858 86.7894 285.173 97.5357 284.486 91.48 283.796 82.2569 283.106 88.1243 282.414 86.3065 281.721 68.3511 281.026 72.1194 280.329 81.6514 279.63 77.1235 278.93 80.9548 278.228 85.3205 277.524 77.8382 276.82 76.9882 276.113 86.9676 275.405 106.145 274.694 122.033 273.982 132.917 273.269 123.872 272.553 144.534 271.836 137.179 271.116 141.733 270.396 136.572 269.674 139.654 268.949 139.348 267.495 124.15 266.765 125 266.033 146.601 265.3 151.11 264.564 138.657 263.827 135.783 263.088 138.687 262.347 149.548 261.603 145.528 260.858 147.257 260.111 150.173 259.362 145.323 258.611 151.858 257.858 146.873 257.103 145.223 256.346 141.562 255.587 139.412 254.826 138.381 254.063 151.878 253.297 143.799 252.53 136.553 251.76 139.44 250.988 140.602 250.214 153.823 249.438 136.366 248.66 140.912 247.879 148.092 247.097 142.87 246.312 136.681 245.524 132.666 244.735 136.535 243.943 133.654 243.149 135.605 242.353 136.96 241.553 129.675 240.752 127.866 239.949 129.058 239.143 136.399 238.334 119.533 237.523 125.139 236.71 125.562 235.894 120.854 235.076 120.422 234.255 126.368 233.431 107.505 232.606 110.638 231.776 110.791 230.945 103.636 230.111 109.712 229.275 103.176 228.435 104.802 227.594 108.143 226.749 92.8524 225.902 105.66 225.051 126.503 224.198 120.011 223.342 93.4204 222.484 87.1457 221.622 100.717 220.758 94.961 219.889 87.4994 219.019 91.2268 218.146 85.1336 217.269 81.8811 216.39 86.1035 215.507 92.4238 214.621 72.163 212.84 81.8858 211.946 100.955 210.145 59.8408 209.24 66.9478 208.332 85.5107 207.42 60.5057 206.506 61.9085 205.587 77.8462 204.665 67.7041 203.739 65.0391 202.81 57.8973 201.878 79.5589 200.942 86.1383 200.002 62.5063 199.059 78.6513 198.112 80.1014 197.161 100.034 196.206 72.8649 195.248 80.2716 194.286 78.6446 193.319 85.636 192.349 88.6896 191.375 80.8282 190.397 88.9683 189.414 75.0036 188.428 72.8877 187.438 74.8274 186.442 74.6968 185.444 73.6452 184.44 80.512 183.433 84.4089 182.421 90.6796 181.404 63.6721 180.383 80.6065 179.357 53.9 178.327 60.6962 177.292 69.0276 176.253 59.5483 175.208 78.2541 174.16 66.5303 173.106 36.8682 172.047 49.4408 170.983 56.2123 169.914 55.8977 168.84 49.2874 167.761 53.3108 166.676 48.018 165.587 51.0769 164.492 89.7044 163.392 56.8834 162.286 81.1992 161.174 68.6264 160.058 68.2996 158.935 77.2735 157.806 42.3501 156.672 76.1905 154.386 88.7472 153.234 90.5637 152.077 110.005 150.913 114.102 149.743 139.217 148.566 97.8666 147.383 101.242 146.194 87.5476 144.998 90.4726 143.795 104.829 142.586 104.473 141.371 94.1639 140.149 115.766 138.919 109.822 137.684 122.452 136.44 129.76 135.191 119.83 133.933 123.702 132.669 123.338 131.397 120.187 130.118 124.437 128.832 113.086 127.539 112.283 126.238 104.733 124.929 103.358 123.613 95.4526 122.289 98.3642 120.959 87.9314 118.273 61.3181 116.92 67.4737 115.558 66.4551 114.189 41.0207 112.812 68.9526 111.427 83.2448 110.035 60.8654 108.636 80.0458 107.229 67.8173 105.815 67.4824 104.394 55.9135 102.965 57.5939 101.53 68.678 100.088 68.9928 98.6395 87.1471 97.184 90.843 95.7232 103.396 94.2563 112.196 92.7841 112.63 91.3065 130.582 89.8243 139.252 88.338 136.079 86.8477 128.044 85.354 125.245 83.8583 111.291 82.36 112.204 80.8603 111.43 79.36 106.287 77.8596 109.368 76.3599 96.4479 74.8623 92.0775 73.3673 105.838 71.8763 85.4806 70.3893 88.6943 68.9084 98.6804 67.4348 101.717 65.9686 96.0896 64.5117 102.327 63.0652 133.986 61.6299 136.032 60.2077 126.789 58.7991 128.476 57.4057 123.361 56.0284 123.715 53.3268 112.496 52.0044 110.298 50.7023 113.767 49.4213 106.267 48.1625 111.751 46.9262 102.524 45.7131 114.552 44.5237 104.879 43.3586 108.845 42.2183 104.366 41.1027 97.1077 40.0119 94.689 38.9462 89.6823 36.8899 93.5216 35.8992 83.1504 34.933 64.9261 33.9906 59.2505 33.0732 87.0948 32.179 71.2427 31.3079 48.1219 30.4597 67.0015 29.6337 48.9369 28.8296 26.0366 28.0468 14.2986 27.2848 57.9644 26.5429 63.0736 25.8203 61.8261 25.1174 54.4272 24.4333 42.3404 23.7665 39.0806 23.1177 12.9724 22.4859 30.8951 21.8701 10.1274 21.2708 41.5162 20.6865 34.2005 20.117 32.721 19.5626 26.5446 19.0213 60.0134 18.4939 68.2152 17.9801 93.3695 17.4784 55.2754 16.9886 59.105 16.9886 59.105" stroke="#E76F51" stroke-width="2.6792" stroke-linecap="square" stroke-linejoin="round" fill="none" transform="matrix(1.00067 0 0 1 324 -2.88002)"/></g></g></g></g><path d="M325.5 1349.76 699.5 1349.76 699.5 1127.72 325.5 1127.72 325.5 1349.76Z" stroke="#E76F51" stroke-width="2.67381" stroke-linejoin="round" stroke-miterlimit="10" stroke-opacity="0" fill="none" fill-rule="evenodd"/><path d="M682.5 1217.51C688.147 1245.74 680.224 1250.86 681.971 1276.19 683.718 1301.53 676.145 1320.26 681.397 1339.76 679.904 1330.92 683.243 1318.22 680.843 1312.73 680.049 1297.73 684.55 1283.85 680.29 1262.97 678.821 1259.38 681.204 1256.36 679.735 1251.36 681.842 1257.93 677.768 1263.49 679.179 1272.53 682.557 1287.5 674.672 1304.45 678.622 1325.16 677.147 1313.45 681.285 1307.97 678.343 1293 675.401 1278.04 681.09 1276.43 678.064 1260.85 679.596 1285.6 672.951 1297.17 677.506 1318.78 677.465 1319.74 676.851 1321.29 676.946 1322.08 675.473 1294.01 677.28 1282.65 676.386 1259.77 675.221 1255.38 677.143 1252.83 675.825 1247.32 675.334 1241.42 677.307 1237.38 675.263 1231.85 677.567 1237.76 674.492 1249.36 674.7 1256.65 674.543 1257.46 674.257 1258.19 674.136 1258.95 671.384 1250.85 675.262 1240.59 673.571 1235.41 673.804 1238.35 672.717 1240.3 673.005 1243.19 673.355 1250.35 672.099 1252.41 672.438 1260.41 671.464 1255 672.674 1254.08 671.302 1248.92 670.666 1243.75 671.879 1240.88 670.733 1237.35 670.135 1236.38 670.797 1233.63 670.161 1232.3 671.59 1241.42 667.544 1246.06 669.59 1251.74 670.884 1254.83 667.801 1259.17 668.444 1266.15 669.299 1270.64 667.604 1272.78 667.87 1275.86 667.189 1272.74 668.616 1268.43 667.295 1262.81 666.444 1261.28 667.682 1259.09 666.718 1256.72 667.127 1260.24 665.962 1263.33 666.141 1267.84 666.134 1270.05 665.073 1271.73 665.563 1273.61 665.946 1276.88 664.977 1281.75 664.983 1284.44 663.751 1281.06 665.018 1279.39 664.403 1276.07 661.978 1262.24 664.55 1248.85 663.822 1231.74 667.117 1246.65 659.589 1257.18 663.24 1276.92 661.126 1264.72 665.125 1258.89 662.072 1251.46 662.059 1257.86 660.181 1264.33 661.486 1270.75 661.456 1272.94 661.009 1274.19 660.9 1276.56 660.571 1275.46 660.706 1275 660.313 1273.65 660.243 1274.82 659.79 1275.02 659.724 1276.09 657.333 1267.35 660.959 1260.32 659.135 1255.82 659.523 1263.35 657.438 1272.15 658.545 1283.54 654.835 1275.7 659.828 1263.75 657.953 1246.17 658.516 1257.17 655.227 1261.36 657.36 1274.42 652.406 1254.63 658.675 1247.16 656.766 1230.95 658.236 1241.25 654.032 1244.38 656.172 1255.77 656.122 1259.9 655.541 1262.96 655.576 1265.35 655.408 1265.33 655.244 1265.27 654.979 1265.25 654.687 1262.45 655.054 1261.16 654.381 1258.78 655.047 1260.9 653.842 1265.76 653.783 1268.45 652.541 1263.44 653.675 1261.91 653.182 1257.05 653.681 1259.57 652.417 1263.24 652.581 1264.96 652.187 1262.32 652.417 1260.39 651.979 1257.88 649.766 1244.35 652.476 1235.69 651.376 1216.97 651.891 1231.82 647.966 1238.86 650.771 1247.25 650.913 1248.95 650.273 1249.15 650.165 1250.85 649.975 1251.52 649.662 1251.71 649.559 1252.15 649.091 1247.02 649.975 1246.31 648.951 1240.54 646.541 1232.24 648.992 1211.18 648.341 1202.08 648.253 1210.97 647.705 1222.06 647.732 1232.51 646.764 1228.27 648.1 1224.79 647.12 1218.33 647.182 1220.24 646.221 1221.45 646.508 1223.71 647.915 1241.5 642.632 1250.7 645.894 1259.42 646.117 1261.4 645.172 1263.55 645.28 1265.11 645.147 1265.3 644.852 1265.53 644.664 1265.79 644.114 1247.05 647.623 1241.66 644.047 1226.41 643.689 1224.83 643.975 1223.41 643.429 1221.47 641.595 1215.66 644.183 1211.09 642.809 1207.03 643.74 1214.91 640.474 1217.89 642.189 1227.5 643.505 1237.88 638.434 1242.11 641.567 1256.29 641.283 1256.17 641.206 1256.06 640.943 1255.98 640.055 1252.84 640.688 1250.99 640.319 1249.27 636.795 1242.68 642.473 1225.13 639.694 1218.37 641.573 1229.05 636.662 1234.46 639.067 1240.54 639.34 1248.49 635.573 1258.37 638.439 1266.23 638.911 1267.93 637.804 1269.94 637.81 1273.64 637.521 1271.06 638.033 1269.67 637.18 1267.8 636.954 1267.57 636.739 1267.27 636.548 1267.12 637.019 1270.62 635.274 1272.85 635.915 1274.41 635.608 1272.82 635.609 1271.14 635.281 1270.21 634.598 1265.76 635.689 1265.13 634.646 1261.14 634.45 1268.4 634.048 1273.52 634.009 1278.21 633.228 1272.69 634.561 1265.5 633.371 1262.13 631.937 1256.45 633.807 1248.09 632.732 1243.36 633.852 1257.8 628.14 1267.04 632.091 1281.92 628.743 1272.91 633.118 1264.06 631.45 1254.69 630.459 1251.31 632.27 1244.34 630.806 1239.91 630.76 1246.04 628.069 1254.4 630.162 1260.76 629.058 1253.56 630.416 1249.58 629.516 1241.23 629.409 1242.85 628.476 1245.24 628.869 1248.65 628.868 1254.31 627.914 1258.45 628.22 1261.57 627.639 1258.12 628.211 1256.5 627.571 1253.77 627.594 1257.68 626.41 1259.82 626.92 1264.51 624.705 1254.23 629.152 1247.6 626.267 1235.42 626.635 1239.25 624.78 1241.48 625.613 1245.86 626.842 1251.09 624.62 1261.62 624.958 1266.03 625.54 1269.77 624.454 1270.97 624.302 1274.32 622.953 1269.42 624.24 1259.02 623.643 1253.01 623.742 1253.88 622.787 1255.49 622.984 1257.04 621.442 1254.12 623.804 1250.49 622.323 1245.04 622.246 1249.59 621.835 1250.61 621.661 1254.79 620.853 1252.2 621.194 1246.06 620.997 1243.37 619.149 1236.37 621.823 1232.04 620.332 1226.34 622.311 1238.41 616.252 1248.73 619.666 1259.01 619.348 1256.5 619.793 1252.19 618.997 1249.74 618.931 1249.95 618.543 1250.05 618.328 1250.38 620.101 1254.75 617.55 1259.88 617.657 1266.6 617.696 1267.6 616.742 1269.38 616.984 1271.05 614.819 1262.67 618.786 1260.29 616.311 1251.29 616.106 1252.68 615.441 1253.65 615.635 1255.72 615.084 1253.95 615.621 1251.45 614.958 1248.05 615.498 1251.77 612.802 1256.19 614.28 1263.83 612.532 1249.35 615.85 1241.3 613.6 1232.6 613.624 1234.09 612.714 1235.23 612.919 1236.43 612.309 1234.53 612.806 1232.78 612.236 1231.73 610.312 1227.55 612.457 1221.84 611.551 1214.19 612.62 1216.44 610.327 1220.75 610.865 1224.91 610.424 1223.49 610.967 1221.19 610.177 1218.87 609.037 1216.61 610.899 1213.97 609.488 1209.67 609.85 1210.91 608.607 1213.4 608.797 1215.52 608.482 1214.84 608.249 1214.08 608.104 1213.71 606.514 1205.29 607.832 1204.67 607.411 1195.8 607.245 1197.33 606.699 1197.64 606.715 1199.56 606.653 1202.17 605.253 1206.78 606.018 1209.07 605.733 1207.59 606.172 1206.67 605.319 1204.55 605.356 1206.26 604.521 1207.52 604.618 1208.37 604.866 1209.53 603.95 1211.78 603.916 1212.73 603.452 1210.24 603.508 1207.73 603.211 1205.26 602.825 1204.95 602.851 1204.73 602.506 1204.42 602.319 1209.06 601.667 1210.07 601.799 1214.37 603.511 1219.15 599.797 1227.73 601.09 1233.5 601.336 1238.61 599.366 1243.25 600.379 1249.35 600.345 1252.74 599.227 1257.68 599.666 1260.2 599.236 1257.85 600.385 1255.48 598.953 1251.18 598.808 1259.71 596.257 1264.33 598.237 1271.79 597.99 1269.68 598.113 1267.32 597.519 1264.46 597.575 1266.17 596.617 1268.01 596.799 1269 596.262 1266.59 596.739 1265.68 596.078 1263.85 596.078 1264.58 595.302 1265.63 595.355 1266.92 595.025 1266.88 594.946 1266.73 594.63 1266.62 592.998 1259.53 593.96 1258.94 593.175 1251.46 592.927 1251.92 592.646 1251.97 592.444 1252.31 594.14 1262.69 591.452 1264.53 591.713 1273.85 591.828 1275.02 590.698 1277.08 590.979 1278.35 590.358 1274.95 591.11 1268.61 590.243 1265.93 589.8 1264.76 589.854 1263.9 589.505 1263.06 589.308 1264.09 588.704 1264.92 588.765 1265.96 588.595 1269.41 587.354 1274.37 588.024 1276.79 587.618 1275.42 587.702 1273.77 587.279 1272.78 587.069 1273.71 586.58 1273.88 586.534 1274.51 586.227 1275.74 585.923 1276.15 585.786 1277.42 585.378 1276.18 585.448 1274.78 585.037 1272.58 585.195 1275.03 584.427 1276.12 584.286 1279.1 583.507 1276.7 583.854 1275.92 583.532 1274.12 583.181 1273.46 583.187 1272.94 582.776 1272.48 582.329 1270.91 582.547 1270.39 582.019 1268.83 581.59 1268.37 581.718 1267.48 581.259 1266.68 580.969 1266.52 580.931 1266 580.497 1265.65 581.716 1271.04 579.622 1275.53 579.734 1279.12 578.611 1276.15 579.873 1273.17 578.968 1271.06 578.614 1268.46 578.683 1266.71 578.2 1263.83 578.169 1265.25 577.449 1265.81 577.43 1266.71 577.113 1267.32 576.866 1267.41 576.657 1267.87 576.477 1273.7 575.03 1277.14 575.883 1281.06 573.648 1277.47 576.83 1268.2 575.106 1263.64 575.095 1265.17 574.407 1266.39 574.328 1268.18 574.47 1270.56 573.619 1272.42 573.546 1275.34 572.915 1272.86 573.241 1271.91 572.763 1270.13 571.862 1268.78 572.179 1265.22 571.978 1263.96 571.435 1262.96 571.798 1261.88 571.19 1259.95 571.055 1261.32 570.662 1262.24 570.4 1263.81 570.082 1263.27 570.224 1262.24 569.607 1260.94 569.263 1261.83 568.936 1262.05 568.813 1262.89 568.517 1263.54 568.202 1263.69 568.016 1264.24 567.198 1260.73 568.018 1259.7 567.216 1256.97 566.82 1256.58 566.911 1255.91 566.415 1255.17 566.141 1255.75 565.915 1255.89 565.61 1256.35 565.359 1259.81 564.303 1261.04 564.804 1263.68 562.984 1256.31 566.091 1254.47 563.995 1246.85 563.807 1249.06 563.287 1249.61 563.183 1252.45 562.833 1252.69 562.526 1252.69 562.37 1252.87 561.688 1251.26 562.315 1249.81 561.553 1248.17 561.166 1248.04 561.15 1247.86 560.734 1247.74 560.621 1250.66 560.014 1251.18 559.912 1253.67 559.664 1249.81 559.59 1239.37 559.089 1234.86 559.171 1235.92 558.174 1236.92 558.262 1237.98 558.077 1238.05 557.771 1238.03 557.433 1238.13 556.719 1236.73 557.771 1233.96 556.601 1231 556.783 1233.04 556.052 1234.52 555.766 1237.06 555.494 1235.09 555.428 1231.86 554.929 1230.54 554.773 1231.24 554.182 1231.79 554.089 1232.16 553.952 1233.53 553.546 1233.84 553.247 1235.49 552.628 1231.17 552.978 1225.74 552.402 1220.24 552.999 1225.86 551.433 1227.4 551.554 1233.01 551.581 1241.1 549.819 1246.85 550.703 1253.81 549.731 1252.25 550.614 1249.75 549.849 1247.33 547.06 1240.84 549.865 1231.79 548.993 1220.81 548.153 1218.1 549.083 1216.97 548.133 1214.55 548.022 1218.22 547.545 1222.8 547.271 1228.08 546.483 1225.48 547.34 1223.93 546.406 1222.34 545.67 1220.73 546.493 1218.1 545.538 1214.9 545.535 1216.45 544.67 1217.5 544.667 1218.62 544.174 1216.24 544.78 1214.43 543.793 1212.54 543.466 1211.62 543.309 1210.59 542.916 1209.3 542.969 1210.46 542.065 1211.86 542.036 1213.51 542.167 1215.55 541.148 1217.84 541.152 1219.81 539.702 1212.11 540.925 1203.93 540.266 1199.6 540.359 1202.66 538.457 1206.72 538.484 1209.3 538.679 1216.41 537.471 1220.97 537.589 1228.32 536.684 1209.76 539.901 1203.77 535.787 1187.31 536.034 1190.32 534.437 1192.49 534.881 1194.4 534.522 1201.94 533.771 1208.92 533.972 1212.92 531.33 1202.32 534.306 1195.68 533.06 1187.97 532.889 1188.5 532.25 1188.96 532.145 1189.37 533.392 1194.09 530.656 1197.38 531.225 1205.27 530.527 1202.21 531.402 1199.79 530.303 1195.15 529.792 1194 529.712 1193.19 529.376 1192.5 528.801 1189.97 529.327 1187.1 528.447 1185.37 528.95 1195.97 526.179 1200.46 527.514 1206.98 527.938 1208.88 526.659 1212.02 526.578 1213.54 525.863 1206.72 526.914 1199.94 525.637 1189.97 526.977 1197.73 523.608 1201.46 524.693 1206.07 524.623 1206.55 523.967 1207 523.745 1207.52 524.17 1211.77 522.836 1217.85 522.794 1227.4 520.039 1216.08 525.115 1211.86 521.838 1200.3 521.89 1202.23 520.797 1204.42 520.879 1207.69 520.483 1207.19 520.373 1206.77 519.917 1206.07 520.128 1209.17 519.315 1210.16 518.949 1213.04 518.816 1214.42 518.127 1214.56 517.979 1216.09 516.844 1213.04 518.326 1211.85 517.004 1208.25 516.807 1210.83 516.282 1213.08 516.025 1216.37 515.172 1211.6 516.172 1205.57 515.042 1202.44 514.545 1201.55 514.65 1201.06 514.055 1200.32 513.895 1200.76 513.232 1201.52 513.064 1202.26 512.842 1202.23 512.509 1202.16 512.068 1202.13 511.511 1201.78 511.432 1201.22 511.069 1201.08 511.098 1202.81 509.667 1206.42 510.065 1207.93 509.862 1208.86 509.218 1210.51 509.056 1211.82 509.244 1213.32 507.795 1216.15 508.044 1218.07 505 1211.16 509.025 1196.96 507.026 1191.13 506.795 1198.56 504.481 1203.18 506.005 1208.02 504.5 1196.95 507.666 1187.04 504.978 1181.38 504.927 1184.45 503.938 1186.36 503.947 1188.16 503.837 1190 503.375 1192.75 502.912 1196.47 502.558 1194.19 503.112 1191.37 501.871 1187.02 501.88 1194.46 500.28 1197.37 500.827 1205.68 499.067 1201.59 501.409 1196.72 499.777 1193.98 496.278 1186.41 502.646 1174.78 498.723 1164.4 499.008 1170.27 497.562 1171.9 497.663 1176.94 497.192 1180.03 496.977 1180.49 496.598 1183.69 496.195 1183.67 495.909 1183.49 495.528 1183.38 494.604 1181.3 494.953 1178.61 494.454 1176.78 494.174 1178.58 493.588 1179.98 493.374 1180.8 492.474 1178.79 493.155 1176.9 492.289 1175.52 491.93 1176.96 491.375 1177.3 491.198 1178.57 494.387 1197.2 488.012 1205.03 490.102 1217.1 486.023 1203.84 490.965 1193.57 489.002 1184.36 489.536 1194.23 486.558 1201.83 487.895 1208.62 486.612 1203.67 488.258 1198.59 486.783 1196.07 486.302 1195.97 486.114 1195.87 485.665 1195.75 485.865 1199.96 484.773 1201.04 484.542 1204.7 483.555 1192.66 487.143 1180.03 483.413 1169.86 483.307 1185.97 480.698 1190.95 482.278 1203.62 481.358 1209.69 480.23 1212.99 479.99 1216.14 479.754 1216.8 478.939 1217.36 478.837 1217.96 479.612 1224.85 475.924 1231.38 477.679 1237.35 477.566 1239.08 476.965 1239.6 476.514 1241.44 479.072 1250.09 475.84 1254.37 475.343 1266.49 469.971 1246.98 475.18 1241.44 474.166 1225.24 473.983 1226.43 473.225 1227.02 472.982 1228.61 472.234 1222.55 473.154 1220.5 471.793 1214.95 471.602 1215.79 471.109 1216.52 470.595 1217.87 471.538 1223.47 469.418 1226.3 469.392 1232.19 468.91 1232.14 468.687 1231.89 468.183 1231.83 466.95 1229.31 467.498 1224.04 466.966 1221.55 468.221 1228.83 465.903 1238.18 465.743 1243.1 464.895 1240.74 465.356 1240.08 464.513 1237.17 464.819 1243.04 463.317 1246.48 463.276 1249.77 463.66 1252.62 461.94 1253.5 462.032 1257.05 460.612 1253.69 462.377 1251.91 460.782 1247.15 460.786 1248.63 459.647 1250.1 459.524 1251.01 458.965 1250.86 458.666 1250.75 458.258 1250.65 457.686 1249.62 457.474 1248.15 456.986 1247.51 457.074 1248.76 455.748 1249.94 455.706 1251.74 453.903 1246.37 455.909 1243.61 454.419 1240.42 453.869 1240.2 453.78 1239.95 453.125 1239.62 452.474 1237.1 452.281 1233.84 451.823 1232.09 451.302 1231.76 450.999 1231.16 450.513 1230.72 449.429 1228.05 450.042 1225.6 449.196 1222.83 448.906 1224.1 448.036 1225 447.872 1225.74 447.469 1222.88 447.909 1219.09 446.54 1215.33 445.678 1207.55 446.489 1201.16 443.853 1188.78 444.219 1190.43 442.579 1192.46 442.499 1194.92 442.059 1194.67 441.555 1194.18 441.136 1193.91 440.069 1186.96 443.211 1177.62 439.766 1168.54 440.957 1179.03 437.476 1188.75 438.388 1196.4 438.219 1200.51 436.641 1203.87 437.002 1210.66 433.892 1199.78 437.436 1193.52 435.61 1188.33 436.813 1197.27 433.261 1200.26 434.21 1207.47 432.782 1203.26 434.272 1199.05 432.801 1195.27 432.125 1195.23 431.701 1194.89 431.386 1194.93 429.968 1191.72 431.373 1185.76 429.964 1183.39 429.528 1184 429.071 1184.4 428.535 1185.07 429.212 1190.15 426.811 1192.78 427.098 1196.13 426.805 1196.25 426.288 1196.28 425.655 1196.44 425.869 1201.51 423.171 1205.67 424.206 1214.55 423.5 1216.36 422.968 1216.41 422.75 1218.24 423.292 1223.88 421.11 1226.88 421.288 1230.76 421.66 1232.82 419.946 1235.34 419.82 1239.54 419.138 1239.92 418.801 1239.8 418.347 1239.97 419.319 1245.21 417.174 1254.06 416.868 1257.87 417.227 1260.82 415.427 1263.52 415.385 1266.52 414.45 1265.41 414.423 1264.27 413.898 1263.36 412.693 1260.1 413.655 1257.82 412.406 1255.34 411.781 1254.77 411.559 1253.22 410.912 1252.55 409.882 1248.45 410.518 1245.1 409.415 1238.63 408.828 1239.08 408.547 1239.11 407.916 1239.54 407.458 1239.46 406.874 1238.89 406.415 1238.77 405.544 1237.27 405.679 1234.67 404.913 1233.64 404.325 1235.06 403.974 1235.34 403.412 1236.71 402.599 1230.48 403.552 1226.89 401.911 1223.83 401.088 1221.69 401.292 1220.78 400.413 1219.47 400.879 1223.46 398.189 1228.17 398.917 1233.19 396.219 1225.4 398.555 1221.7 397.425 1212.89 397.042 1214.08 396.352 1214.8 395.937 1216.09 396.257 1219.83 393.841 1222.71 394.455 1226.05 394.01 1227.19 392.972 1228.2 392.98 1229.08 392.251 1226.51 392.221 1225.79 391.513 1223.47 391.367 1225.47 389.949 1228.33 390.055 1229.69 389.666 1238.46 385.914 1246.18 388.608 1261.27 388.395 1261.84 387.642 1262.18 387.172 1263.31 386.601 1261.17 386.357 1257.65 385.748 1254.09 385.378 1254.84 384.805 1255.1 384.339 1255.77 383.684 1254.31 383.394 1251.69 382.944 1250.67 382.543 1250.8 382.072 1250.72 381.566 1251.02 379.413 1247.7 380.746 1241.82 378.863 1239.83 378.25 1239.17 378.269 1238.39 377.539 1237.64 377.37 1238.64 376.292 1240.26 376.237 1241.1 375.711 1239.41 375.761 1235.74 374.955 1233.62 374.66 1236.24 373.442 1237.75 373.695 1239.09 372.787 1236.73 373.024 1231.96 372.458 1229.89 372.636 1234.03 371.56 1238.49 371.244 1241.88 369.716 1238.8 370.903 1236.32 370.054 1232.24 369.82 1234.28 369.413 1234.32 368.888 1236.19 368.234 1234.82 368.797 1233.81 367.747 1231.72 366.8 1229.99 367.665 1225.91 366.63 1224.48 366.144 1223.91 365.822 1222.61 365.539 1222.07 364.559 1219.97 364.887 1218.77 364.473 1217.08 364.069 1218.04 362.776 1219.39 362.415 1220.91 361.104 1217.88 363.029 1215.49 361.423 1210.56 360.087 1202.78 362.692 1196.42 360.457 1192.38 359.822 1190.32 359.854 1188.54 359.514 1186.72 361.715 1193.72 357.866 1205.14 358.595 1214.5 357.019 1206.75 359.168 1204.54 357.701 1198.68 354.744 1187.58 358.411 1184.45 356.829 1175.62 357.687 1183.7 356.22 1187.99 355.98 1194.45 355.201 1186.41 356.034 1185.1 355.154 1176.43 353.138 1167.49 355.544 1160.06 354.349 1153.59 352.862 1150.45 355.148 1147 353.566 1141.88 354.171 1153.77 351.218 1169.85 352.803 1185.44 352.852 1188.04 352.253 1188.04 352.061 1190.54 351.717 1190.25 351.66 1189.53 351.338 1189.29 350.282 1187.55 351.45 1183.91 350.634 1181.91 350.193 1178.32 350.675 1172.78 349.95 1169.85 349.653 1168.67 349.786 1167.23 349.283 1166.6 347.989 1155.37 350.756 1151.82 348.633 1140.56 348.908 1149.36 346.924 1153.64 348.001 1158.44 345.74 1153.56 347.822 1144.87 347.385 1137.72 347.973 1149.48 344.865 1158.62 346.785 1169.03 346.41 1165.42 346.593 1164.35 346.201 1161.73 345.984 1161.22 345.887 1160.56 345.631 1160.26 345.348 1157.19 345.575 1157.04 345.076 1154.1 345.561 1168.13 343.188 1173.12 344.534 1187.48 344.654 1190.71 343.644 1192.53 344.006 1195.66 345.379 1204.6 340.796 1208.45 343.492 1220.76 340.224 1203.18 344.604 1196.74 342.99 1182.76 342.97 1183.83 342.528 1185.03 342.5 1186.58L342.5 1186.58" stroke="#E76F51" stroke-width="2.67381" stroke-linecap="square" stroke-linejoin="round" stroke-miterlimit="10" fill="none" fill-rule="evenodd"/><path d="M584 1309.34 584.248 1317.42 584.502 1299.25 584.762 1303.47 585.029 1316.57 585.303 1333.92 585.584 1340.44 585.872 1340.91 586.168 1343.15 586.471 1328.42 586.783 1326.45 587.103 1329.31 587.431 1338.86 588.115 1353.22 588.471 1355.56 588.837 1356.03 589.212 1355.19 589.598 1338.56 590.401 1354.75 590.819 1361.54 591.249 1354.26 591.69 1363.58 592.142 1368.31 592.607 1362.69 593.084 1364.44 593.573 1369 594.074 1371.61 594.589 1372.48 595.115 1371.09 595.655 1373.09 596.207 1374.26 596.772 1376.13 597.349 1378.37 597.939 1378.9 598.541 1381.79 599.155 1380.26 599.781 1382.02 600.418 1381.19 601.067 1383.28 601.726 1383.15 602.395 1384.58 603.074 1385.81 603.763 1386.05 604.46 1385.72 605.165 1386.59 605.879 1387.21 606.599 1388.48 607.325 1388.17 608.057 1379.77 608.795 1379.51 609.537 1380.52 610.283 1377.47 611.033 1375.76 611.785 1375.6 612.54 1376.27 613.297 1375.96 614.055 1377.4 614.814 1376.09 615.574 1375.17 616.333 1376.75 617.093 1381.3 617.851 1379.37 618.608 1380.25 619.364 1382.59 620.871 1385.48 621.621 1385.55 622.369 1381.71 623.115 1379.38 623.857 1376.39 624.597 1374.05 625.334 1370.81 626.067 1369.84 626.797 1370.56 627.523 1366.58 628.247 1370.4 628.966 1370.89 629.682 1372.38 630.394 1372.94 631.103 1374.09 631.807 1374.36 632.508 1373.43 633.205 1372.62 634.588 1375.81 635.273 1377.14 635.954 1377.49 636.632 1379.28 637.306 1382.6 637.976 1383 638.642 1385.9 639.305 1387.34 639.963 1389.73 640.618 1390.4 641.269 1393.88 641.917 1395.1 642.56 1396 643.2 1397.31 643.837 1396.38 644.469 1397.63 645.099 1396.58 645.724 1395.44 646.347 1395.42 646.965 1392.42 647.581 1391.96 648.193 1390.48 648.801 1386.62 649.407 1384.63 650.009 1383.9 650.607 1385.69 651.203 1386.36 651.796 1383.05 652.385 1382.43 652.971 1380.63 653.554 1379.46 654.711 1380.73 655.285 1377.05 655.857 1382.41 656.425 1382.17 656.99 1382.74 657.553 1386.84 658.113 1383.31 658.669 1391.04 659.224 1381.36 659.775 1379.49 660.324 1378.12 660.871 1381.99 661.414 1381.5 661.955 1379.9 662.494 1379.22 663.03 1375.36 663.564 1377.76 664.095 1379.46 664.623 1377.34 665.149 1378.22 665.673 1377.33 666.195 1378.89 666.714 1378.26 667.231 1377.12 667.746 1380.74 668.258 1380.05 668.768 1379.22 669.276 1380.5 669.781 1380.09 670.285 1377.84 670.787 1380.79 671.286 1379.58 671.783 1379.74 672.278 1382.53 672.772 1380.12 673.263 1382.56 673.752 1382.54 674.724 1383.74 675.207 1384.72 675.689 1384.14 676.168 1385.16 676.646 1380.98 677.122 1386.38 677.595 1385.64 678.067 1384.33 678.538 1385.17 679.006 1386.56 679.473 1388.3 679.938 1387.62 680.401 1387.35 680.863 1390.77 681.322 1390.52 681.78 1391.24 682.237 1393.47 682.692 1394.76 683.145 1392.82 683.596 1392.84 684.046 1392.01 684.495 1395.51 684.942 1395.09 685.387 1395.12 685.831 1395.37 686.273 1396.01 686.713 1395.88 687.153 1397.26 687.59 1398.9 688.026 1397.11 688.461 1399.07 688.894 1401.76 689.326 1402.25 689.757 1400.49 690.186 1400.05 690.613 1400.72 691.039 1401.1 691.464 1403.4 691.888 1402.98 692.31 1403.54 692.731 1403.25 693.15 1403.68 693.568 1405.31 693.985 1406.2 694.401 1405.17 694.815 1404.58 695.228 1406.19 695.64 1408.19 696.05 1406.7 696.46 1408.62 697.274 1407.65 697.68 1407.93 698.084 1409.94 698.488 1408.8 698.89 1409.21 699.291 1409.95 699.69 1409.34 700.089 1410.06 700.486 1410.53 700.882 1411.85 701.278 1410.59 701.671 1411.23 702.064 1412.52 702.456 1413.14 702.847 1412.84 703.236 1412.66 703.625 1412.71 704.012 1414.44 704.399 1412.16 704.784 1412.97 705.168 1413.22 705.551 1412.95 705.934 1413.36 706.315 1413.24 706.695 1412.49 707.074 1412.79 707.453 1412.46 707.83 1413.23 708.206 1413.83 708.581 1411.8 709.329 1411.96 709.701 1412.71 710.072 1413.78 710.442 1409.38 710.812 1408.62 711.181 1410.4 711.548 1411.87 711.915 1410.75 712.281 1410.82 712.645 1411.5 713.01 1412.32 713.373 1412.26 713.735 1409.05 714.096 1412.14 714.816 1413.13 715.174 1412.75 715.533 1409.34 716.246 1412.94 716.601 1411.06 716.955 1410.54 717.309 1411 717.662 1410.34 718.014 1410.14 718.365 1412.37 719.064 1411.67 719.413 1412.14 719.761 1411.95 720.108 1411.36 720.455 1411.51 720.8 1412.67 721.144 1411.44 721.489 1412.96 721.832 1412.62 722.174 1413.65 722.516 1411.1 722.857 1414.8 723.197 1411.96 723.536 1411.86 723.875 1411.83 724.213 1415.7 724.55 1411.17 724.887 1414.82 725.223 1416.36 725.557 1413.94 725.892 1413.77 726.225 1414.44 726.558 1417.06 726.89 1415.4 727.222 1417.19 727.553 1414.23 727.883 1415.62 728.212 1414.46 728.541 1414.27 728.869 1412.72 729.196 1413.2 729.523 1416.34 729.849 1411.99 730.175 1412.66 730.499 1416.9 730.823 1412.3 731.147 1412.22 731.469 1414.2 731.791 1415.11 732.113 1413.58 732.433 1416.52 732.754 1412.91 733.073 1413.21 733.392 1415.25 733.711 1412.66 734.028 1414 734.345 1413.94 734.661 1411.77 734.977 1414.36 735.293 1413.42 735.607 1414.22 736.547 1410.08 736.859 1413.9 737.171 1415.75 737.482 1413.85 737.792 1412.76 738.102 1413.47 738.411 1414.53 738.72 1411.39 739.028 1412.14 739.336 1413.11 739.642 1415.1 739.949 1416.21 740.255 1411.71 740.56 1413.8 741.169 1412.18 741.472 1414.32 741.775 1414.44 742.078 1412.22 742.38 1412.43 742.681 1412.71 742.982 1411.86 743.282 1415.83 743.582 1409.79 743.882 1413.6 744.18 1412.54 744.478 1414.96 744.776 1411.59 745.073 1414.66 745.37 1412.55 745.666 1408.24 745.961 1411.21 746.257 1412.22 746.551 1408.41 746.845 1414.64 747.139 1412.71 747.432 1412.94 747.724 1411.79 748.016 1409.98 748.308 1412.33 748.599 1415.13 748.89 1413.22 749.18 1414.47 749.469 1412.77 749.758 1408.64 750.047 1410.03 750.335 1410.11 750.623 1412.27 750.91 1410.46 751.197 1409.72 751.483 1410.44 751.769 1413.19 752.054 1413.11 752.339 1409.98 752.623 1412.39 752.907 1412.39 753.191 1409.52 753.474 1426.84 753.756 1418.65 754.038 1430.28 754.32 1409.97 754.601 1413.99 754.882 1406.57 755.162 1421.82 755.442 1429.12 756 1401.79 756 1401.79" stroke="#F4A261" stroke-width="4" stroke-linecap="square" stroke-linejoin="round" stroke-miterlimit="10" fill="none" fill-rule="evenodd"/><path d="M332 1400.47 332.223 1394.01 332.452 1413.28 332.687 1406.01 332.927 1395.38 333.174 1376.14 333.427 1372.09 333.687 1371.93 333.953 1371.47 334.508 1382.39 334.796 1376.83 335.092 1374.22 335.396 1368.85 335.708 1365.36 336.029 1364.82 336.359 1364.6 336.697 1364.23 337.045 1369.43 337.402 1365.24 337.769 1362.66 338.145 1360.36 338.532 1362.91 338.93 1359.54 339.338 1358.44 339.756 1357.8 340.186 1357.54 340.627 1356.97 341.079 1356.63 341.542 1355.31 342.017 1356.11 342.503 1355.29 343.001 1354.69 343.509 1354.43 344.03 1353.29 344.561 1351.92 345.104 1351.24 345.657 1350.22 346.221 1350.83 346.795 1350.57 347.38 1350.11 347.974 1349.7 348.577 1348.28 349.189 1348.51 349.81 1349.25 350.438 1349.11 351.073 1349.34 351.716 1348.45 352.365 1349.2 353.02 1349.45 353.68 1350.89 354.344 1351.42 355.013 1351.5 355.685 1353.74 356.361 1352.24 357.039 1352.97 357.719 1354.59 358.401 1351.83 359.085 1351.26 359.769 1355.03 360.453 1355.6 361.138 1355.33 361.822 1351.74 362.505 1353.87 363.188 1354.71 363.869 1353.92 364.549 1353.83 365.227 1353.07 365.903 1352 366.577 1351.65 367.249 1352.99 367.918 1354.11 368.584 1354.04 369.248 1356.01 369.909 1353.63 370.567 1353.6 371.222 1354.97 371.873 1351.24 372.522 1353 373.167 1351.18 373.809 1353.19 374.447 1351.59 375.082 1353.01 375.714 1351.98 376.342 1349.84 376.966 1349.24 377.588 1349.93 378.205 1347.86 378.819 1348.07 379.43 1347.77 380.037 1346.7 380.641 1345.89 381.241 1345.26 381.838 1344.07 382.432 1343.9 383.022 1343.14 383.609 1342.85 384.192 1341.59 384.772 1341.71 385.349 1340.26 385.922 1341.22 386.493 1341.37 387.06 1340.95 387.624 1340.18 388.185 1340.99 388.742 1338.77 389.296 1341.3 389.848 1341.8 390.396 1342.36 390.942 1343.23 391.485 1346.46 392.024 1344.94 392.561 1352.94 393.095 1350.66 393.626 1350.58 394.154 1348.85 394.679 1350.31 395.202 1348.92 395.722 1348.21 396.24 1344.82 396.755 1346.45 397.267 1343.94 397.776 1343.03 398.283 1344.78 398.788 1346.66 399.289 1346.23 399.789 1346.39 400.286 1344.7 400.781 1346.91 401.273 1345.75 401.763 1347.75 402.251 1349.27 402.736 1346.75 403.219 1346.49 403.7 1348.21 404.178 1348.17 404.655 1346.61 405.129 1347.44 405.601 1346.76 406.071 1343.03 406.539 1348.19 407.005 1345.87 407.468 1347.03 407.93 1347.04 408.39 1347.74 408.847 1345.62 409.303 1345.2 409.757 1347.08 410.209 1344.25 410.659 1345.56 411.107 1347.84 411.553 1343.87 411.998 1347.19 412.44 1345.1 412.881 1343.42 413.32 1343.46 413.757 1342.22 414.193 1345.88 414.626 1342.71 415.058 1341.84 415.489 1343.49 415.918 1343.45 416.345 1342.64 416.77 1339.57 417.194 1341.56 417.616 1341.25 418.036 1340.41 418.456 1339.12 418.873 1338.3 419.289 1339.26 419.703 1338.44 420.116 1338.14 420.527 1336.09 420.937 1338.46 421.346 1336.4 421.753 1335.76 422.158 1336.01 422.562 1336.46 422.965 1335.4 423.366 1334.5 423.766 1334.89 424.164 1334.91 424.561 1334.44 424.957 1333.78 425.351 1334.02 425.745 1332.99 426.136 1333.31 426.527 1334.11 426.916 1335.21 427.304 1332.61 427.69 1331.7 428.076 1333.42 428.46 1332.35 428.843 1333.43 429.224 1332.27 429.605 1331.48 429.984 1331.13 430.362 1331.62 430.739 1330.73 431.115 1331.04 431.489 1331.25 431.863 1331.65 432.235 1330.06 432.606 1328.86 432.976 1330.04 433.345 1330.35 433.712 1330.12 434.079 1329.43 434.444 1329.31 434.809 1328.95 435.172 1329.42 435.534 1329.55 435.896 1328.33 436.615 1328.6 436.973 1329.05 437.686 1328.53 438.041 1328.54 438.395 1330.06 438.748 1327.59 439.1 1328.06 439.451 1327.79 439.802 1328.67 440.151 1328.95 440.499 1328.45 440.846 1327.79 441.192 1327.94 441.538 1327.6 441.882 1327.45 442.226 1327.86 442.91 1327.78 443.251 1327.58 443.591 1327.54 443.93 1327.38 444.268 1327.38 444.605 1327.54 444.942 1327.53 445.277 1328.91 445.612 1326.94 445.945 1327.5 446.278 1327.63 446.61 1327.47 446.942 1327.1 447.272 1328.11 447.602 1327.79 447.93 1327.8 448.259 1327.57 448.586 1328.27 448.912 1328 449.238 1327.47 449.563 1327.3 449.887 1326.27 450.21 1324.71 450.532 1327.66 450.854 1326.96 451.175 1327.3 451.495 1328.1 451.814 1327.85 452.133 1327.84 452.451 1326.91 452.768 1326.88 453.084 1327.54 453.4 1328.32 453.715 1326.61 454.029 1327.28 454.343 1328.24 454.656 1326.37 454.968 1328.4 455.279 1327.49 455.59 1326.21 455.9 1330.61 456.209 1326.36 456.517 1325.99 456.826 1326.05 457.133 1325.74 457.439 1327.12 457.745 1324.56 458.05 1326.4 458.659 1323.43 458.962 1323.81 459.264 1325.13 459.566 1325.48 459.868 1327.81 460.168 1328.43 460.768 1328.02 461.066 1323.11 461.365 1323.13 461.662 1326.98 461.959 1325.67 462.255 1326.51 462.551 1325.86 462.846 1323.04 463.14 1322.55 463.434 1321.57 464.02 1326.49 464.312 1326.64 464.603 1325.14 464.894 1326.52 465.184 1322.75 465.474 1326.59 465.763 1325.77 466.052 1326.04 466.339 1326.46 466.627 1327.57 466.914 1327.08 467.2 1325.7 467.485 1325.32 467.771 1325.07 468.055 1323.89 468.339 1325.31 468.623 1325.78 468.906 1327.93 469.188 1325.12 469.47 1323.35 469.751 1327.44 470.032 1326.13 470.312 1326.84 470.592 1324.63 470.871 1323.9 471.15 1326.2 471.428 1325.41 471.705 1326.8 471.983 1327.64 472.259 1325.95 472.535 1326.86 472.811 1325.37 473.086 1325.84 473.36 1327.52 473.634 1326.56 473.908 1326.97 474.181 1323.25 474.454 1325.81 474.726 1325.77 474.998 1323.18 475.269 1324.45 475.539 1327.01 475.809 1323.94 476.079 1328.93 476.348 1326.29 476.617 1325.33 476.885 1328.26 477.153 1326.24 477.42 1326.89 477.687 1328.34 477.953 1327.25 478.22 1328.19 478.485 1327.4 478.75 1326.95 479.014 1329.86 479.279 1327.07 479.542 1327.07 479.806 1327.92 480.068 1325.63 480.33 1326.12 480.592 1326.03 480.854 1323.85 481.115 1325.06 481.375 1324.76 481.635 1324.21 481.895 1326.97 482.154 1324.86 482.413 1327.9 482.671 1327.88 482.93 1325.14 483.187 1325.57 483.444 1325.21 483.701 1323.67 483.957 1325.29 484.213 1329.14 484.468 1344.16 484.723 1325.03 484.978 1321.26 485.232 1321.98 485.486 1332.43 485.739 1322.63 485.992 1333.43 486.245 1329.07 486.497 1325.33 486.749 1327.06 487 1327.16 487 1327.16" stroke="#E9C46A" stroke-width="4" stroke-linecap="square" stroke-linejoin="round" stroke-miterlimit="10" fill="none" fill-rule="evenodd"/><path d="M694 1678.97C693.155 1672.97 695.758 1666.46 693.293 1660.29 693.185 1668.51 690.8 1675.79 692.585 1682.65 691.696 1669.22 694.299 1664.04 691.875 1649.84 691.57 1655.47 688.91 1661.34 690.454 1666.14 689.257 1660.62 690.819 1654.92 689.741 1651.47 689.571 1655.8 689.302 1657.17 689.027 1661.33 686.588 1654.65 689.041 1650.57 688.312 1641.56 688.392 1643.51 687.789 1645.81 687.596 1649.56 687.094 1648.12 687.231 1646.89 686.878 1645.76 685.385 1634.45 688.792 1630.84 686.16 1617.61 686.593 1624.48 684.185 1627.52 685.44 1635.52 685.417 1646.55 683.229 1650.29 683.997 1658.56 683.799 1658.93 683.506 1659.05 683.274 1659.62 681.97 1652.31 686.486 1639.84 682.55 1628.33 681.891 1627.25 682.224 1625.85 681.824 1623.89 685.871 1635.6 677.842 1651.66 681.097 1673.95 680.618 1673.03 680.903 1672.4 680.369 1671.14 679.788 1666.68 680.16 1660.23 679.64 1653.17 679.721 1654.59 679.096 1656.1 678.91 1657.88 678.71 1657.2 678.631 1655.6 678.178 1654.68 677.411 1652.8 678.121 1650.11 677.445 1648.83 678.178 1653.05 676.888 1658.76 676.711 1666.45 676.457 1670.77 674.948 1672.95 675.975 1677.97 675.767 1678.35 675.479 1678.43 675.239 1678.98 675.026 1682.08 674.686 1685.12 674.501 1687.74 672.543 1682.52 675.062 1674.95 673.762 1668.2 674.843 1674.08 671.76 1685.66 673.022 1691.92 672.758 1692.43 672.592 1692.51 672.28 1693.16 671.909 1692.28 672.079 1691.76 671.538 1690.97 669.858 1683.12 672.517 1681.35 670.794 1674.59 669.03 1657.18 671.485 1639.45 670.047 1612.52 670.425 1624.66 665.515 1643.64 669.667 1656.79 673.819 1669.95 667.013 1685.1 669.301 1699.33 668.344 1696.55 669.52 1690.19 668.553 1687.12 667.889 1683.84 668.22 1678.53 667.804 1672.02 669.426 1677.15 665.66 1685.83 667.053 1692.31 666.597 1691.14 667.097 1689.43 666.301 1687.81 666.552 1692.45 665.452 1693 665.548 1697.07 665.141 1696.64 665.037 1696.07 664.793 1695.78 662.152 1675.89 669.629 1659.18 664.038 1647.49 666.337 1664.82 661.054 1674.37 663.281 1687.62 663.354 1691.87 662.035 1693.29 662.522 1698.76 657.688 1681.5 665.354 1662.66 661.776 1649.77 658.198 1636.88 665.844 1615.96 661 1598.78 662.032 1614.53 656.437 1624.98 660.619 1647.23 664.801 1669.48 656.05 1679.05 660.238 1695.68 659.833 1694.97 660.036 1693.94 659.474 1693.02 659.292 1693.65 658.642 1694.74 658.708 1695.63 656.491 1690.19 659.686 1680.44 657.942 1675.38 655.055 1670.08 658.389 1662.69 657.174 1651.65 657.119 1652.62 656.701 1652.83 656.405 1654.02 655.972 1653.65 656.031 1653.58 655.634 1653.16 654.017 1647.85 656.127 1644.26 654.861 1640.53 653.032 1620.56 656.929 1610.24 654.467 1586.59 652.004 1562.95 655.741 1555.2 654.087 1534.76 654.634 1537.49 653.289 1540.63 653.312 1542.31 654.359 1558.55 648.785 1579.05 652.535 1590.08 652.505 1595.3 650.882 1596.63 651.757 1601.71 651.109 1597.45 651.298 1594.39 650.978 1589.99 647.297 1577.04 654.803 1552.16 650.603 1539.71 646.403 1527.27 651.16 1499.31 650.196 1485.25 653.182 1494.01 644.705 1510.22 649.414 1528.44 649.215 1529.98 648.468 1530.98 648.63 1533.31 648.787 1540.66 647.771 1545.41 647.845 1553.33 650.052 1562.87 646.351 1579.88 647.459 1590.3 648.568 1600.73 644.359 1610.26 647.058 1628.79 646.743 1628.6 646.657 1628.53 646.27 1628.31 646.07 1631.83 645.021 1638.14 645.48 1641.52 644.166 1637.8 645.37 1634.37 644.689 1631.36 640.36 1613.96 648.023 1607.87 644.277 1595.32 640.531 1582.76 646.652 1576.62 643.896 1562.05 638.877 1538.53 645.119 1527.21 643.507 1500.42 641.895 1473.63 649.011 1456.48 643.102 1436.28 644.719 1444.42 640.785 1462.33 642.728 1476.81 644.671 1491.28 641.511 1510.65 642.306 1522.5 645.113 1541.46 638.823 1546.77 642.056 1562.48 645.29 1578.19 638.437 1594.2 641.807 1602.46 645.176 1610.71 637.656 1638.81 641.509 1650.09 641.707 1652.13 640.676 1653.71 640.71 1655.85 640.471 1656.51 640.132 1656.79 639.909 1657.17 637.049 1646.64 645.718 1628.23 639.642 1605.24 633.566 1582.24 642.383 1566.86 639.383 1554.87 636.382 1542.88 639.569 1516.6 639.107 1501.38 641.012 1518.04 635.753 1522 638.705 1538.44 641.658 1554.88 638.411 1559.16 638.304 1575.49 640.391 1595.16 633.984 1604.4 637.893 1624.04 641.802 1643.69 632.927 1652.21 637.498 1670.69 636.234 1663.35 639.741 1653.67 636.692 1644.68 639.567 1658.23 634.407 1662.39 635.883 1677.08 636.129 1679.2 635.101 1683.05 635.073 1686.73 632.927 1673.21 637.133 1664.83 634.261 1655.02 635.233 1660.69 633.747 1669.15 633.448 1677.44 633.26 1678.86 632.682 1679.68 632.634 1680.41 633.398 1685.84 630.68 1691.62 631.818 1697.22 631.368 1696.59 631.41 1695.88 631 1695.37 627.087 1685.17 636.364 1657.56 630.573 1645.84 624.782 1634.12 631.63 1614.11 630.18 1600.12 631.465 1614.34 626.734 1621.39 629.777 1631.6 632.82 1641.81 627.61 1653.89 629.358 1664.37 631.014 1668.81 627.93 1677.27 628.535 1680.62 627.924 1679.86 628.242 1677.75 627.71 1676.56 626.348 1673.3 627.296 1664.78 626.884 1660.74 626.263 1649.19 628.561 1647.73 626.056 1636.07 624.418 1630.8 626.899 1630.55 625.226 1625.32 625.073 1627.28 624.512 1631.15 624.394 1634.89 622.9 1627.09 624.881 1622.65 623.562 1616.81 622.96 1615.77 623.186 1614.91 622.726 1614.44 620.143 1607.46 623.037 1600.12 621.89 1595.29 621.043 1591.42 621.573 1585.56 621.051 1581.77 622.977 1587.85 619.284 1599.88 620.21 1606.73 619.773 1606.06 619.706 1605.31 619.369 1604.9 616.278 1597.15 618.726 1576.66 618.525 1568.61 620.242 1578.53 614.014 1588.03 617.679 1605.46 616.447 1602.07 617.267 1599.59 616.832 1596.92 616.444 1596.62 616.404 1596.33 615.982 1596.04 615.848 1597.89 615.234 1600.76 615.131 1602.86 615.355 1604.74 613.733 1608.93 614.278 1610.69 615.142 1614.64 612.496 1621.53 613.424 1626.66 613.656 1629 612.705 1633.65 612.567 1635.78 612.399 1650.19 611.812 1659.78 611.708 1668.1 611.488 1674.39 610.57 1679.86 610.848 1683.49 610.371 1681 610.201 1675.45 609.986 1673.38 609.388 1667.07 610.851 1664.38 609.122 1659.94 606.013 1647.39 608.682 1643.7 608.255 1632.94 607.138 1626.59 608.065 1624.36 607.387 1616.52 606.573 1609.86 607.367 1605.49 606.518 1598.09 605.163 1594.81 606.301 1586.42 605.645 1582.86 602.064 1573.48 606.22 1565.13 604.772 1554.01 604.393 1550.72 604.556 1545.72 603.896 1541.97 601.896 1530.66 604.951 1520.38 603.018 1514.06 602.678 1513.56 602.554 1512.45 602.138 1511.9 601.765 1508.21 602.195 1506.22 601.257 1502.43 597.512 1493.67 600.162 1483.92 599.487 1474.73 599.261 1474.85 598.904 1474.81 598.598 1475.04 597.818 1470.77 598.148 1463.99 597.709 1459.49 598.074 1462.23 595.952 1466.89 596.817 1469.3 596.657 1471.05 595.915 1474.6 595.923 1476.93 595.384 1473.68 595.649 1472.41 595.026 1468.19 594.828 1468.55 594.464 1468.55 594.128 1469.03 593.61 1468.23 593.807 1466.9 593.227 1465.37 593.046 1469.64 592.108 1471.44 592.325 1474.06 593.089 1479.25 590.507 1483.54 591.42 1492 591.348 1501.98 588.404 1508.89 590.513 1517.93 592.016 1535.73 589.792 1540.48 589.604 1555.65 592.15 1572.67 584.26 1583.44 588.709 1602.45 593.157 1621.46 582.604 1629.79 587.778 1651.16 588.346 1656.05 586.27 1658.97 586.863 1662.72 586.871 1666.03 584.725 1672.2 585.945 1678.39 584.462 1675.13 587.211 1666.32 585.024 1661.88 584.922 1673.61 583.09 1678.53 584.102 1689.03 583.376 1685.95 583.404 1683.63 583.176 1682.06 583.389 1684.88 582.255 1687.26 582.25 1689.38 581.669 1687.94 581.947 1687.18 581.32 1685.56 580.356 1682.1 581.523 1679.92 580.388 1677.88 579.896 1677.7 579.707 1677.33 579.454 1677.29 578.979 1675.23 579.452 1672.67 578.518 1669.61 578.439 1672.74 577.593 1676.69 577.578 1681.56 577.487 1682.55 576.809 1682.95 576.637 1684.18 573.933 1679.78 575.575 1671.12 574.747 1664.85 574.691 1670.34 572.838 1673.41 573.798 1679.76 573.498 1681.59 573.189 1682.39 572.848 1684.24 571.816 1681.13 572.333 1680.22 571.894 1677.28 573.005 1684.74 569.368 1689.22 570.938 1696.43 570.545 1697.16 570.159 1697.34 569.979 1698.09 568.01 1692.35 569.538 1690.94 569.018 1684.66 569.728 1689.6 568.297 1690.14 568.054 1695.04 566.464 1691.25 567.375 1685.08 567.088 1681.54 566.54 1680.82 566.566 1680.45 566.119 1680 564.93 1673.31 567.56 1665.67 565.147 1656.42 564.646 1656 564.413 1655.47 564.173 1655.21 563.798 1655.01 563.477 1654.65 563.196 1654.53 562.893 1655.13 562.569 1655.5 562.217 1656.22 562.142 1658.17 561.148 1659.4 561.235 1661.39 560.263 1658.46 560.689 1652.7 560.25 1649.96 560.109 1651.08 559.667 1651.67 559.262 1653.19 559.501 1656.58 558.297 1657.64 558.272 1659.94 559.877 1668.86 556.258 1673.9 557.279 1678.41 556.458 1674.55 558.248 1666.58 556.283 1661.79 557.245 1673.78 552.304 1683.05 555.285 1689.6 554.869 1689.84 554.658 1689.73 554.282 1689.95 553.834 1689.69 553.515 1689.4 553.279 1689.31 552.545 1686.88 552.966 1683.59 552.271 1682.22 551.8 1682.25 551.632 1682.07 551.261 1682.09 551.279 1683.92 550.117 1686.32 550.248 1688.07 548.27 1682.36 549.643 1677.1 549.232 1670.06 550.23 1677.95 547.203 1679.21 548.213 1686.32 547.146 1684.32 547.753 1681.54 547.191 1679.51 546.906 1680.57 546.385 1680.96 546.165 1681.6 545.605 1679.93 545.887 1678.83 545.137 1677.72 543.773 1674.28 544.724 1666.55 544.106 1662.44 544.785 1668.51 542.249 1669.85 543.072 1676.9 540.484 1665.52 544.723 1664.59 542.035 1653.47 542.213 1659.09 540.42 1661.75 540.994 1667.89 540.814 1672.24 539.824 1678.92 539.95 1683.97 538.146 1678.91 541.017 1674.24 538.903 1667.7 538.411 1666.44 538.28 1664.07 537.853 1662.81 538.244 1665.97 536.935 1667.96 536.799 1670.32 533.471 1650.9 541.338 1633.3 535.743 1621.96 535.734 1628.54 533.725 1641.33 534.683 1646.35 535.487 1649.92 533.713 1657.85 533.62 1662.5 532.414 1645.42 534.061 1643.79 532.553 1625.69 532.426 1634.39 530.819 1635.81 531.482 1644.19 528.124 1628.34 532.935 1617.81 530.409 1593.49 533.915 1601.02 528.697 1619.76 529.849 1626.43 531.001 1633.1 527.541 1647.11 529.333 1656.84 528.912 1657.24 528.646 1657.11 528.252 1657.49 527.527 1654.33 528.298 1647.87 527.168 1642.22 528.958 1651.64 523.618 1660.28 526.081 1666 525.833 1667.03 525.242 1667.08 524.99 1668.14 524.686 1669.46 524.135 1670.54 523.895 1671.58 520.745 1652.82 523.21 1645.47 522.797 1633.7 523.86 1639.93 521.109 1642.57 521.695 1649.72 521.524 1650.2 520.951 1650.35 520.589 1651.15 521.185 1655.64 519.21 1659.27 519.48 1662.26 518.962 1658.73 519.999 1650.86 518.367 1647.3 518.295 1648.24 517.23 1649.56 517.249 1650.54 516.814 1647.35 516.689 1642.18 516.128 1639.61 515.802 1639.43 515.555 1639.11 515.003 1638.79 514.732 1638.94 514.057 1638.98 513.875 1639.19 513.266 1638.55 513.456 1637.73 512.742 1636.8 511.708 1635.53 512.351 1631.5 511.606 1630.05 511.746 1632.02 510.341 1635.62 510.465 1637.22 510.98 1640.03 508.719 1642.77 509.32 1645.03 509.217 1645.55 508.432 1646.17 508.172 1646.58 506.463 1643.11 508.085 1638.72 507.019 1631.38 504.246 1621.13 507.725 1605.62 506.44 1596.62 505.155 1587.62 509.735 1572.32 505.862 1561.86 509.378 1568.99 502.033 1580.83 504.7 1594.44 506.129 1616.39 500.354 1618.95 503.535 1643.48 502.767 1636.99 503.897 1633.36 502.365 1626.53 501.066 1620.19 502.884 1617.26 501.191 1612.89 501.138 1619.88 500.022 1625.08 500.013 1637.03 497.017 1628.6 501.597 1625.64 498.829 1614.6 499.145 1617.77 497.058 1620.25 497.641 1622.69 498.431 1632.29 495.619 1635.86 496.45 1645.34 496.064 1646.7 495.491 1647.29 495.253 1648.58 494.803 1648.09 494.497 1646.63 494.052 1646.05 494.078 1646.94 493.26 1647.51 492.846 1648.99 492.935 1655.56 490.424 1660.79 491.635 1667.09 491.2 1670.81 488.272 1676.77 489.2 1681.63 488.393 1673.51 489.206 1668.71 487.975 1663.15 489.31 1666.44 485.658 1672.95 486.745 1678.53 486.514 1679.76 485.867 1680.76 485.51 1682.88 485.032 1681.32 485.161 1679.75 484.27 1678.51 484.671 1683.91 483.171 1686.69 483.026 1692.79 481.784 1690.84 483.137 1685.1 481.775 1683.08 481.763 1684.4 480.549 1687.3 480.52 1688.59 479.938 1685.97 480.017 1684.01 479.259 1680.75 478.771 1679.11 479.019 1678.1 477.994 1676.26 477.454 1678.7 476.928 1680.41 476.723 1681.73 475.89 1680.45 475.834 1678.94 475.447 1677.73 473.696 1669.1 474.88 1663.82 474.164 1659.78 474.538 1662.16 472.843 1664.65 472.877 1668.22 473.469 1672.26 471.432 1677.64 471.584 1681.07 471.477 1684.04 470.007 1689.5 470.285 1692.82 469.616 1685.16 469.501 1679.46 468.98 1674.54 468.734 1675.39 467.846 1675.74 467.671 1676.47 465.564 1667.06 466.242 1651.45 465.033 1644.78 464.786 1646.17 464.199 1646.81 463.705 1648.37 463.192 1647.12 463.343 1645.15 462.371 1643.02 462.553 1644.47 461.617 1645.97 461.03 1648.68 460.184 1642.09 461.589 1636.7 459.684 1633.3 456.673 1622.38 461.35 1608.2 458.332 1595.72 455.523 1587.35 459.649 1582.79 456.973 1573.4 454.587 1560.11 459.695 1552.26 455.608 1542.09 454.942 1541.98 454.838 1541.86 454.237 1541.76 454.28 1542.53 453.424 1543.47 452.858 1544.89 456.904 1556.76 445.116 1586.13 451.473 1602.62 451.021 1602.04 450.807 1600.94 450.082 1599.86 448.474 1587.14 453.296 1560.42 448.683 1550.37 447.219 1543.87 449.413 1539.29 447.279 1533.32 447.054 1533.75 446.184 1534.11 445.867 1534.56 445.947 1551.25 442.562 1580.32 444.448 1597.57 449.837 1621.97 440.437 1628.4 443.022 1650.16 441.625 1647.2 442.591 1644.96 441.588 1642.44 440.139 1636.67 440.903 1633.13 440.148 1627.12 439.359 1624.86 440.236 1620.22 438.699 1617.29 438.59 1618.02 437.712 1618.8 437.244 1619.69 438.992 1625.25 434.051 1633.01 435.781 1640.1 435.703 1642.88 434.643 1644.68 434.311 1648.95 433.756 1654.99 432.699 1655.96 432.833 1662.22 432.867 1665.92 430.728 1668.96 431.347 1673.17 430.913 1674.82 430.163 1675.82 429.854 1676.6 429.302 1676.31 428.823 1674.98 428.352 1674.35 427.845 1674.39 427.539 1674.08 426.842 1674.12 427.392 1681.29 424.759 1685.47 425.324 1689.32 424.377 1686.88 424.534 1686.5 423.798 1683.93 422.822 1682.55 423.357 1678.22 422.263 1676.89 421.575 1675.93 421.105 1675.1 420.721 1674.64 419.511 1668.22 421.062 1662.33 419.17 1657.4 418.621 1657.16 418.024 1655.94 417.61 1655.68 416.608 1651.79 417.59 1649.47 416.041 1646.09 414.665 1642.56 415.835 1640.65 414.463 1637.73 414.772 1644.5 412.311 1647.19 412.878 1651.58 412.597 1652.12 411.702 1652.84 411.282 1653.53 410.626 1649.21 410.447 1645.55 409.678 1640.68 410.845 1645.15 407.12 1650.31 408.065 1655.78 406.955 1653.83 407.397 1653.58 406.443 1651.57 406.262 1654.27 404.613 1655.47 404.811 1657.14 404.863 1660.95 403.007 1667.11 403.17 1671.6 403.264 1677.25 400.814 1679.77 401.519 1682.98 401.028 1681.98 400.252 1679.05 399.86 1677.92 399.995 1679.89 398.032 1682.98 398.19 1687.01 397.506 1686.56 397.088 1685.5 396.511 1685.14 396.175 1687.66 395.129 1689.9 394.822 1693.13 394.203 1694.48 393.314 1695.2 393.124 1696.04 392.495 1695.58 392.092 1693.93 391.416 1693.58 390.509 1682.61 392.118 1678.43 389.698 1670.19 384.838 1659.34 392.342 1647.95 387.97 1630.59 387.386 1633.19 386.364 1634.64 386.233 1637.88 388.227 1651.45 385.022 1657.16 384.486 1671.68 383.441 1659.29 385.268 1644.48 383.643 1635.12 382.017 1625.77 385.988 1605.01 382.729 1595.52 383.273 1613.34 377.911 1623.19 380.962 1645.19 381.534 1652.24 377.917 1655.55 379.185 1663.45 373.712 1640.74 379.501 1622.71 377.399 1612.27 377.267 1634.02 369.57 1643.67 375.604 1671.53 374.853 1671.89 374.499 1671.83 373.798 1672.28 372.891 1668.81 372.447 1664.93 371.983 1662.52 371.201 1661.77 370.835 1660.84 370.16 1660.19 369.581 1660.34 369.158 1660.22 368.326 1660.27 367.594 1660.75 367.032 1660.73 366.485 1661.3 366.044 1666.48 365.161 1668.93 364.634 1673.61 364.136 1676.1 362.789 1679.18 362.776 1680.93 361.598 1679.77 361.571 1678.44 360.908 1677.76 360.379 1680.99 359.69 1681.6 359.033 1684.46 358.832 1685.39 357.683 1687.05 357.151 1688.11 355.815 1684.69 357.239 1679.51 355.262 1675.62 354.507 1674.64 354.102 1673.23 353.366 1672.42 353.633 1677.18 350.896 1681.53 351.464 1686.47 350.953 1686.18 350.341 1685.48 349.557 1685.17 348.445 1683.22 349.198 1680.3 347.644 1677.61 347.648 1681.58 345.826 1685.18 345.728 1691.05 342.785 1684.26 345.968 1673.87 343.808 1669.4 344.35 1671.56 341.66 1674.19 341.885 1679.02 341.429 1681.09 339.741 1684.6 339.961 1686.2 339.293 1687.23 338.463 1687.3 338.036 1688.1 337.76 1691.56 335.972 1692.33 336.111 1694.63 335.633 1694.41 334.825 1693.79 334.186 1693.39 333.045 1692.21 333.262 1691.56 332.264 1690.7 331.597 1689.37 331.209 1687.34 330.346 1686.68 325.764 1672.13 331.718 1663.38 328.433 1652.45 329.375 1662.66 326.513 1669.44 326.525 1674.61 324.951 1669.05 326.748 1661.21 324.624 1656.66 324.317 1657.11 323.11 1657.4 322.733 1657.87 321.897 1657.01 321.602 1656.08 320.852 1655.19 321.644 1665.43 317.357 1674.08 318.982 1682.88 318.584 1684.8 317.632 1685.51 317.126 1686.67 316.867 1688.63 315.253 1691.22 315.284 1693.28 314.673 1693.56 314.108 1693.31 313.459 1693.54 312.72 1693.82 312.047 1693.93 311.652 1694.11 311.107 1694.17 310.697 1693.91 309.864 1693.78 309.047 1692.6 308.803 1689.41 308.097 1687.28 307.37 1686.23 307.351 1685.27 306.351 1683.49 306.172 1685.11 305.213 1685.78 304.63 1687.37 302.753 1683.28 303.632 1681.52 302.933 1677.82 302.888 1678.84 301.597 1679.54 301.262 1681.33 300.444 1680.75 300.391 1680.36 299.618 1679.97 299.459 1680.49 298.617 1680.93 298.003 1681.72 297.501 1684.49 297.04 1685.21 296.416 1687.51 295.995 1687.99 295.455 1688 294.86 1688.55 294.378 1688.5 294.128 1688.17 293.334 1688.15 292.969 1687.86 292.204 1687.08 291.838 1686.9 291.336 1686.95 291.031 1686.55 290.375 1686.55 289.746 1686.21 289.614 1685.84 288.944 1685.55 287.803 1684.93 286.431 1683.73 284.841 1683.28 284.184 1682.17 284.305 1681.15 283.538 1680.13 282.939 1679.65 283.038 1678.78 282.266 1678 281.664 1676.96 281.683 1674.97 281.026 1674.18 280.777 1675.43 280.124 1676.09 279.817 1676.8 279.295 1676.9 279.148 1676.77 278.64 1676.89 278.181 1676.14 278.01 1675.44 277.493 1674.57 277.063 1674.85 276.649 1674.94 276.375 1675.22 276.078 1675.66 275.748 1675.75 275.286 1676.23 274.95 1676.06 274.571 1675.25 274.226 1675.09 273.792 1674.91 273.423 1674.39 273.195 1674.2 272.894 1674.04 272.419 1673.37 272.19 1673.15 271.796 1672.95 271.511 1672.31 271.212 1671.97 270.581 1671.33 269.794 1669.81 269.333 1669.24 269.009 1669.18 268.857 1668.97 268.431 1668.93 268.063 1668.44 267.59 1667.37 266.698 1666.62 266.393 1666.46 266.186 1666.05 265.865 1665.75 264.752 1664.89 264.107 1663.1 263.495 1662.55 262.607 1661.63 262.573 1660.75 262.014 1660.37 261.7 1659.8 261.576 1659.42 261.303 1658.95 261.006 1658.57 260.983 1657.92 260.608 1656.95 260.395 1656.73 260.204 1656.43 259.932 1656.23 259.678 1656.21 259.505 1656.11 259.272 1656.12 258.698 1655.56 258.73 1654.89 258 1653.93L258 1653.93" stroke="#8AB17D" stroke-width="4" stroke-linecap="square" stroke-linejoin="round" stroke-miterlimit="10" fill="none" fill-rule="evenodd"/><text font-family="FrankRuehl,FrankRuehl_MSFontService,sans-serif" font-weight="700" font-size="117.356" transform="matrix(1 0 0 1.0002 255.032 1402)">-</text><text font-family="FrankRuehl,FrankRuehl_MSFontService,sans-serif" font-weight="700" font-size="117.356" transform="matrix(1 0 0 1.0002 529.148 1398)">-</text><text font-family="FrankRuehl,FrankRuehl_MSFontService,sans-serif" font-weight="700" font-size="32.0062" transform="matrix(1 0 0 1.0002 378.173 1459)">Decontaminated</text><text font-family="FrankRuehl,FrankRuehl_MSFontService,sans-serif" font-weight="700" font-size="32.0062" transform="matrix(1 0 0 1.0002 420.839 1498)">Spectrum</text><path d="M160 225.544C160 210.353 172.088 198.039 187 198.039 201.912 198.039 214 210.353 214 225.544 214 240.735 201.912 253.049 187 253.049 172.088 253.049 160 240.735 160 225.544Z" stroke="#E76F51" stroke-width="2" stroke-miterlimit="8" fill="#E76F51" fill-rule="evenodd"/><path d="M268 225.544C268 210.353 280.088 198.039 295 198.039 309.912 198.039 322 210.353 322 225.544 322 240.735 309.912 253.049 295 253.049 280.088 253.049 268 240.735 268 225.544Z" stroke="#E76F51" stroke-width="2" stroke-miterlimit="8" fill="#E76F51" fill-rule="evenodd"/><path d="M484 225.544C484 210.353 496.088 198.039 511 198.039 525.912 198.039 538 210.353 538 225.544 538 240.735 525.912 253.049 511 253.049 496.088 253.049 484 240.735 484 225.544Z" stroke="#E76F51" stroke-width="2" stroke-miterlimit="8" fill="#E76F51" fill-rule="evenodd"/><path d="M376 225.544C376 210.353 388.088 198.039 403 198.039 417.912 198.039 430 210.353 430 225.544 430 240.735 417.912 253.049 403 253.049 388.088 253.049 376 240.735 376 225.544Z" stroke="#E76F51" stroke-width="2" stroke-miterlimit="8" fill="#E76F51" fill-rule="evenodd"/><path d="M592 225.544C592 210.353 604.088 198.039 619 198.039 633.912 198.039 646 210.353 646 225.544 646 240.735 633.912 253.049 619 253.049 604.088 253.049 592 240.735 592 225.544Z" stroke="#E76F51" stroke-width="2" stroke-miterlimit="8" fill="#E76F51" fill-rule="evenodd"/><path d="M700 225.544C700 210.353 712.312 198.039 727.5 198.039 742.688 198.039 755 210.353 755 225.544 755 240.735 742.688 253.049 727.5 253.049 712.312 253.049 700 240.735 700 225.544Z" stroke="#E76F51" stroke-width="2" stroke-miterlimit="8" fill="#E76F51" fill-rule="evenodd"/><path d="M808 225.544C808 210.353 820.312 198.039 835.5 198.039 850.688 198.039 863 210.353 863 225.544 863 240.735 850.688 253.049 835.5 253.049 820.312 253.049 808 240.735 808 225.544Z" stroke="#E76F51" stroke-width="2" stroke-miterlimit="8" fill="#E76F51" fill-rule="evenodd"/><path d="M187 253.049 237.813 419.242" stroke="#3F7489" stroke-width="2" stroke-miterlimit="8" fill="none" fill-rule="evenodd"/><path d="M0 0 57.2101 166.16" stroke="#3F7489" stroke-width="2" stroke-miterlimit="8" fill="none" fill-rule="evenodd" transform="matrix(-1 0 0 1.0002 295.21 253.049)"/><path d="M0 0 165.233 166.16" stroke="#3F7489" stroke-width="2" stroke-miterlimit="8" fill="none" fill-rule="evenodd" transform="matrix(1 0 0 -1.0002 238 419.242)"/><path d="M0 0 273.255 166.16" stroke="#3F7489" stroke-width="2" stroke-miterlimit="8" fill="none" fill-rule="evenodd" transform="matrix(1 0 0 -1.0002 238 419.242)"/><path d="M0 0 381.278 166.16" stroke="#3F7489" stroke-width="2" stroke-miterlimit="8" fill="none" fill-rule="evenodd" transform="matrix(1 0 0 -1.0002 238 419.242)"/><path d="M0 0 489.301 166.16" stroke="#3F7489" stroke-width="2" stroke-miterlimit="8" fill="none" fill-rule="evenodd" transform="matrix(1 0 0 -1.0002 238 419.242)"/><path d="M0 0 597.323 166.16" stroke="#3F7489" stroke-width="2" stroke-miterlimit="8" fill="none" fill-rule="evenodd" transform="matrix(1 0 0 -1.0002 238 419.242)"/><path d="M345.835 419.242 187 253.049" stroke="#3F7489" stroke-width="2" stroke-miterlimit="8" fill="none" fill-rule="evenodd"/><path d="M345.813 419.242 295 253.049" stroke="#3F7489" stroke-width="2" stroke-miterlimit="8" fill="none" fill-rule="evenodd"/><path d="M0 0 57.2101 166.16" stroke="#3F7489" stroke-width="2" stroke-miterlimit="8" fill="none" fill-rule="evenodd" transform="matrix(1 0 0 -1.0002 346 419.242)"/><path d="M0 0 165.233 166.16" stroke="#3F7489" stroke-width="2" stroke-miterlimit="8" fill="none" fill-rule="evenodd" transform="matrix(1 0 0 -1.0002 346 419.242)"/><path d="M0 0 273.255 166.16" stroke="#3F7489" stroke-width="2" stroke-miterlimit="8" fill="none" fill-rule="evenodd" transform="matrix(1 0 0 -1.0002 346 419.242)"/><path d="M0 0 381.278 166.16" stroke="#3F7489" stroke-width="2" stroke-miterlimit="8" fill="none" fill-rule="evenodd" transform="matrix(1 0 0 -1.0002 346 419.242)"/><path d="M0 0 489.301 166.16" stroke="#3F7489" stroke-width="2" stroke-miterlimit="8" fill="none" fill-rule="evenodd" transform="matrix(1 0 0 -1.0002 346 419.242)"/><path d="M453.858 419.242 187 253.049" stroke="#3F7489" stroke-width="2" stroke-miterlimit="8" fill="none" fill-rule="evenodd"/><path d="M453.835 419.242 295 253.049" stroke="#3F7489" stroke-width="2" stroke-miterlimit="8" fill="none" fill-rule="evenodd"/><path d="M453.813 419.242 403 253.049" stroke="#3F7489" stroke-width="2" stroke-miterlimit="8" fill="none" fill-rule="evenodd"/><path d="M0 0 57.2101 166.16" stroke="#3F7489" stroke-width="2" stroke-miterlimit="8" fill="none" fill-rule="evenodd" transform="matrix(1 0 0 -1.0002 454 419.242)"/><path d="M0 0 165.233 166.16" stroke="#3F7489" stroke-width="2" stroke-miterlimit="8" fill="none" fill-rule="evenodd" transform="matrix(1 0 0 -1.0002 454 419.242)"/><path d="M0 0 273.255 166.16" stroke="#3F7489" stroke-width="2" stroke-miterlimit="8" fill="none" fill-rule="evenodd" transform="matrix(1 0 0 -1.0002 454 419.242)"/><path d="M0 0 381.278 166.16" stroke="#3F7489" stroke-width="2" stroke-miterlimit="8" fill="none" fill-rule="evenodd" transform="matrix(1 0 0 -1.0002 454 419.242)"/><path d="M561.881 419.242 187 253.049" stroke="#3F7489" stroke-width="2" stroke-miterlimit="8" fill="none" fill-rule="evenodd"/><path d="M561.881 419.242 187 253.049" stroke="#3F7489" stroke-width="2" stroke-miterlimit="8" fill="none" fill-rule="evenodd"/><path d="M561.835 419.242 403 253.049" stroke="#3F7489" stroke-width="2" stroke-miterlimit="8" fill="none" fill-rule="evenodd"/><path d="M561.813 419.242 511 253.049" stroke="#3F7489" stroke-width="2" stroke-miterlimit="8" fill="none" fill-rule="evenodd"/><path d="M0 0 57.2101 166.16" stroke="#3F7489" stroke-width="2" stroke-miterlimit="8" fill="none" fill-rule="evenodd" transform="matrix(1 0 0 -1.0002 562 419.242)"/><path d="M0 0 165.233 166.16" stroke="#3F7489" stroke-width="2" stroke-miterlimit="8" fill="none" fill-rule="evenodd" transform="matrix(1 0 0 -1.0002 562 419.242)"/><path d="M0 0 273.255 166.16" stroke="#3F7489" stroke-width="2" stroke-miterlimit="8" fill="none" fill-rule="evenodd" transform="matrix(1 0 0 -1.0002 562 419.242)"/><path d="M669.903 419.242 187 253.049" stroke="#3F7489" stroke-width="2" stroke-miterlimit="8" fill="none" fill-rule="evenodd"/><path d="M669.881 419.242 295 253.049" stroke="#3F7489" stroke-width="2" stroke-miterlimit="8" fill="none" fill-rule="evenodd"/><path d="M669.858 419.242 403 253.049" stroke="#3F7489" stroke-width="2" stroke-miterlimit="8" fill="none" fill-rule="evenodd"/><path d="M669.835 419.242 511 253.049" stroke="#3F7489" stroke-width="2" stroke-miterlimit="8" fill="none" fill-rule="evenodd"/><path d="M669.813 419.242 619 253.049" stroke="#3F7489" stroke-width="2" stroke-miterlimit="8" fill="none" fill-rule="evenodd"/><path d="M0 0 57.2101 166.16" stroke="#3F7489" stroke-width="2" stroke-miterlimit="8" fill="none" fill-rule="evenodd" transform="matrix(1 0 0 -1.0002 670 419.242)"/><path d="M0 0 165.233 166.16" stroke="#3F7489" stroke-width="2" stroke-miterlimit="8" fill="none" fill-rule="evenodd" transform="matrix(1 0 0 -1.0002 670 419.242)"/><path d="M777.926 419.242 187 253.049" stroke="#3F7489" stroke-width="2" stroke-miterlimit="8" fill="none" fill-rule="evenodd"/><path d="M777.903 419.242 295 253.049" stroke="#3F7489" stroke-width="2" stroke-miterlimit="8" fill="none" fill-rule="evenodd"/><path d="M777.881 419.242 403 253.049" stroke="#3F7489" stroke-width="2" stroke-miterlimit="8" fill="none" fill-rule="evenodd"/><path d="M777.858 419.242 511 253.049" stroke="#3F7489" stroke-width="2" stroke-miterlimit="8" fill="none" fill-rule="evenodd"/><path d="M777.835 419.242 619 253.049" stroke="#3F7489" stroke-width="2" stroke-miterlimit="8" fill="none" fill-rule="evenodd"/><path d="M777.813 419.242 727 253.049" stroke="#3F7489" stroke-width="2" stroke-miterlimit="8" fill="none" fill-rule="evenodd"/><path d="M0 0 57.2101 166.16" stroke="#3F7489" stroke-width="2" stroke-miterlimit="8" fill="none" fill-rule="evenodd" transform="matrix(1 0 0 -1.0002 778 419.242)"/><path d="M0 0 193.782 165.81" stroke="#3F7489" stroke-width="2" stroke-miterlimit="8" fill="none" fill-rule="evenodd" transform="matrix(-1 0 0 1.0002 777.782 474.093)"/><path d="M0 0 85.7593 165.81" stroke="#3F7489" stroke-width="2" stroke-miterlimit="8" fill="none" fill-rule="evenodd" transform="matrix(-1 0 0 1.0002 669.759 474.093)"/><path d="M0 0 130.755 168.362" stroke="#3F7489" stroke-width="2" stroke-miterlimit="8" fill="none" fill-rule="evenodd" transform="matrix(-1 0 0 1.0002 561.755 474.093)"/><path d="M0 0 22.732 168.362" stroke="#3F7489" stroke-width="2" stroke-miterlimit="8" fill="none" fill-rule="evenodd" transform="matrix(-1 0 0 1.0002 453.732 474.093)"/><path d="M0 0 67.7274 168.362" stroke="#3F7489" stroke-width="2" stroke-miterlimit="8" fill="none" fill-rule="evenodd" transform="matrix(-1 0 0 1.0002 345.727 474.093)"/><path d="M238 474.093 431.313 642.488" stroke="#3F7489" stroke-width="2" stroke-miterlimit="8" fill="none" fill-rule="evenodd"/><path d="M211 446.587C211 431.396 223.088 419.082 238 419.082 252.912 419.082 265 431.396 265 446.587 265 461.778 252.912 474.093 238 474.093 223.088 474.093 211 461.778 211 446.587Z" stroke="#264653" stroke-width="2" stroke-miterlimit="8" fill="#264653" fill-rule="evenodd"/><path d="M427 446.587C427 431.396 439.088 419.082 454 419.082 468.912 419.082 481 431.396 481 446.587 481 461.778 468.912 474.093 454 474.093 439.088 474.093 427 461.778 427 446.587Z" stroke="#264653" stroke-width="2" stroke-miterlimit="8" fill="#264653" fill-rule="evenodd"/><path d="M319 446.587C319 431.396 331.088 419.082 346 419.082 360.912 419.082 373 431.396 373 446.587 373 461.778 360.912 474.093 346 474.093 331.088 474.093 319 461.778 319 446.587Z" stroke="#264653" stroke-width="2" stroke-miterlimit="8" fill="#264653" fill-rule="evenodd"/><path d="M535 446.587C535 431.396 547.088 419.082 562 419.082 576.912 419.082 589 431.396 589 446.587 589 461.778 576.912 474.093 562 474.093 547.088 474.093 535 461.778 535 446.587Z" stroke="#264653" stroke-width="2" stroke-miterlimit="8" fill="#264653" fill-rule="evenodd"/><path d="M643 446.587C643 431.396 655.088 419.082 670 419.082 684.912 419.082 697 431.396 697 446.587 697 461.778 684.912 474.093 670 474.093 655.088 474.093 643 461.778 643 446.587Z" stroke="#264653" stroke-width="2" stroke-miterlimit="8" fill="#264653" fill-rule="evenodd"/><path d="M751 446.587C751 431.396 763.088 419.082 778 419.082 792.912 419.082 805 431.396 805 446.587 805 461.778 792.912 474.093 778 474.093 763.088 474.093 751 461.778 751 446.587Z" stroke="#264653" stroke-width="2" stroke-miterlimit="8" fill="#264653" fill-rule="evenodd"/><path d="M238 474.093 278.295 642.488" stroke="#3F7489" stroke-width="2" stroke-miterlimit="8" fill="none" fill-rule="evenodd"/><path d="M346 474.093 431.291 642.488" stroke="#3F7489" stroke-width="2" stroke-miterlimit="8" fill="none" fill-rule="evenodd"/><path d="M0 0 175.75 168.362" stroke="#3F7489" stroke-width="2" stroke-miterlimit="8" fill="none" fill-rule="evenodd" transform="matrix(-1 0 0 1.0002 453.75 474.093)"/><path d="M562 474.093 584.263 639.935" stroke="#3F7489" stroke-width="2" stroke-miterlimit="8" fill="none" fill-rule="evenodd"/><path d="M670 474.093 735.833 661.027" stroke="#3F7489" stroke-width="2" stroke-miterlimit="8" fill="none" fill-rule="evenodd"/><path d="M0 0 42.1893 186.898" stroke="#3F7489" stroke-width="2" stroke-miterlimit="8" fill="none" fill-rule="evenodd" transform="matrix(-1 0 0 1.0002 778.189 474.093)"/><path d="M238 474.093 584.331 639.935" stroke="#3F7489" stroke-width="2" stroke-miterlimit="8" fill="none" fill-rule="evenodd"/><path d="M238 474.093 735.924 661.027" stroke="#3F7489" stroke-width="2" stroke-miterlimit="8" fill="none" fill-rule="evenodd"/><path d="M346 474.093 584.309 639.935" stroke="#3F7489" stroke-width="2" stroke-miterlimit="8" fill="none" fill-rule="evenodd"/><path d="M454 474.093 735.879 661.027" stroke="#3F7489" stroke-width="2" stroke-miterlimit="8" fill="none" fill-rule="evenodd"/><path d="M562 474.093 735.856 661.027" stroke="#3F7489" stroke-width="2" stroke-miterlimit="8" fill="none" fill-rule="evenodd"/><path d="M0 0 42.1893 186.898" stroke="#3F7489" stroke-width="2" stroke-miterlimit="8" fill="none" fill-rule="evenodd" transform="matrix(-1 0 0 1.0002 778.189 474.093)"/><path d="M0 0 499.818 168.362" stroke="#3F7489" stroke-width="2" stroke-miterlimit="8" fill="none" fill-rule="evenodd" transform="matrix(-1 0 0 1.0002 777.818 474.093)"/><path d="M0 0 346.8 168.362" stroke="#3F7489" stroke-width="2" stroke-miterlimit="8" fill="none" fill-rule="evenodd" transform="matrix(-1 0 0 1.0002 777.8 474.093)"/><path d="M0 0 391.795 168.362" stroke="#3F7489" stroke-width="2" stroke-miterlimit="8" fill="none" fill-rule="evenodd" transform="matrix(-1 0 0 1.0002 669.795 474.093)"/><path d="M0 0 238.777 168.362" stroke="#3F7489" stroke-width="2" stroke-miterlimit="8" fill="none" fill-rule="evenodd" transform="matrix(-1 0 0 1.0002 669.777 474.093)"/><path d="M0 0 283.773 166.952" stroke="#3F7489" stroke-width="2" stroke-miterlimit="8" fill="none" fill-rule="evenodd" transform="matrix(-1 0 0 1.0002 561.773 475.093)"/><path d="M457 474.093 587.286 639.935" stroke="#3F7489" stroke-width="2" stroke-miterlimit="8" fill="none" fill-rule="evenodd"/><path d="M346 474.093 735.901 661.027" stroke="#3F7489" stroke-width="2" stroke-miterlimit="8" fill="none" fill-rule="evenodd"/></g></svg>