<?xml version="1.0" encoding="utf-8" standalone="no"?>
<!DOCTYPE svg PUBLIC "-//W3C//DTD SVG 1.1//EN"
  "http://www.w3.org/Graphics/SVG/1.1/DTD/svg11.dtd">
<svg xmlns:xlink="http://www.w3.org/1999/xlink" width="558pt" height="332.64pt" viewBox="0 0 558 332.64" xmlns="http://www.w3.org/2000/svg" version="1.1">
 <metadata>
  <rdf:RDF xmlns:dc="http://purl.org/dc/elements/1.1/" xmlns:cc="http://creativecommons.org/ns#" xmlns:rdf="http://www.w3.org/1999/02/22-rdf-syntax-ns#">
   <cc:Work>
    <dc:type rdf:resource="http://purl.org/dc/dcmitype/StillImage"/>
    <dc:date>2025-07-23T14:59:37.911398</dc:date>
    <dc:format>image/svg+xml</dc:format>
    <dc:creator>
     <cc:Agent>
      <dc:title>Matplotlib v3.9.2, https://matplotlib.org/</dc:title>
     </cc:Agent>
    </dc:creator>
   </cc:Work>
  </rdf:RDF>
 </metadata>
 <defs>
  <style type="text/css">*{stroke-linejoin: round; stroke-linecap: butt}</style>
 </defs>
 <g id="figure_1">
  <g id="patch_1">
   <path d="M 0 332.64 
L 558 332.64 
L 558 0 
L 0 0 
L 0 332.64 
z
" style="fill: none; opacity: 0"/>
  </g>
  <g id="axes_1">
   <g id="patch_2">
    <path d="M 0 332.64 
L 558 332.64 
L 558 -0 
L 0 -0 
L 0 332.64 
z
" style="fill: none; opacity: 0"/>
   </g>
   <g id="matplotlib.axis_1"/>
   <g id="matplotlib.axis_2"/>
   <g id="line2d_1">
    <path d="M 532.636364 134.545853 
L 530.989601 317.52 
L 530.164289 277.054914 
L 529.337653 202.580183 
L 528.509694 185.212079 
L 527.680521 216.897359 
L 526.849915 295.664138 
L 526.017874 199.409671 
L 525.184731 286.110001 
L 524.350043 291.057873 
L 523.514031 197.792615 
L 522.676806 179.15935 
L 521.838037 156.007212 
L 520.998054 193.116637 
L 520.156527 196.563981 
L 519.313677 161.331479 
L 518.469503 172.979116 
L 517.623894 198.745982 
L 515.928486 181.55459 
L 515.078686 164.239887 
L 514.227452 156.676429 
L 513.374674 185.768158 
L 511.665147 207.348061 
L 510.808177 221.880051 
L 509.949773 202.351367 
L 509.089825 193.222961 
L 508.228554 209.869461 
L 507.365627 218.508855 
L 506.501377 234.712777 
L 505.635583 222.194797 
L 504.768244 155.840885 
L 503.899582 223.457515 
L 502.157514 185.350607 
L 501.284109 214.222426 
L 500.40927 222.923219 
L 499.532996 218.568628 
L 498.655068 222.221513 
L 497.775596 191.879001 
L 496.894579 233.372767 
L 496.012018 177.437082 
L 495.127803 219.713591 
L 494.242264 154.657636 
L 493.35485 191.804074 
L 492.466001 206.15044 
L 491.575388 205.993441 
L 490.683451 196.311947 
L 489.789639 210.788193 
L 488.894393 193.726041 
L 487.997382 205.565047 
L 487.098827 194.962251 
L 486.198507 133.737521 
L 485.296642 179.053704 
L 484.393013 184.436418 
L 483.487839 186.393233 
L 482.580901 169.016632 
L 481.672307 111.450509 
L 480.761949 156.98594 
L 479.850047 135.766431 
L 478.936269 143.816947 
L 478.020837 197.271906 
L 477.10364 205.792066 
L 476.184789 206.810708 
L 475.264062 147.865975 
L 474.34168 140.462696 
L 473.417534 118.857856 
L 472.491623 149.491569 
L 471.563836 192.584091 
L 470.634395 192.11685 
L 469.702969 182.085098 
L 468.769998 135.827428 
L 467.834931 169.004672 
L 466.89821 207.459545 
L 465.959503 218.549233 
L 465.019032 209.81581 
L 464.076574 208.788766 
L 463.132352 219.71229 
L 462.186365 213.42584 
L 461.238282 199.837457 
L 460.288435 225.39427 
L 459.336602 201.321896 
L 458.382893 173.233836 
L 457.427199 230.941982 
L 456.46963 190.195665 
L 455.510075 168.06772 
L 454.548535 199.26799 
L 453.58512 170.050745 
L 452.619498 181.154891 
L 451.652112 200.493258 
L 450.68263 188.813573 
L 449.711052 204.895177 
L 448.737598 161.343643 
L 447.761939 176.974543 
L 446.784294 207.162857 
L 445.804664 219.565532 
L 444.822827 187.67638 
L 443.839005 193.706889 
L 442.852977 175.746872 
L 441.864853 190.346243 
L 440.874743 173.242696 
L 439.882317 147.757463 
L 438.887796 196.654734 
L 437.891178 182.779326 
L 436.892244 183.746053 
L 435.891214 208.012683 
L 434.887978 214.679668 
L 433.882536 185.105854 
L 432.874888 191.733065 
L 431.864923 180.250969 
L 430.852752 203.864701 
L 429.838375 157.121153 
L 428.821682 162.865359 
L 427.802562 155.822954 
L 426.781236 129.575043 
L 425.757593 145.618817 
L 424.731524 136.57779 
L 423.703138 122.807707 
L 422.672436 131.568183 
L 421.639307 128.854433 
L 420.603751 102.047476 
L 419.565879 107.672657 
L 418.52558 121.903729 
L 417.482634 115.143874 
L 416.437481 120.864036 
L 415.389792 127.382455 
L 414.339455 116.211145 
L 413.286692 114.941586 
L 412.231391 129.841109 
L 411.173664 158.471579 
L 410.113289 182.193326 
L 409.050267 198.441772 
L 407.984819 184.938751 
L 406.916612 215.787025 
L 405.845869 204.806439 
L 404.772478 211.605088 
L 403.696329 203.900298 
L 402.617644 208.500979 
L 401.536201 208.043757 
L 399.365042 185.354408 
L 398.275436 186.622688 
L 397.183072 218.872346 
L 396.087731 225.604212 
L 394.989741 207.01237 
L 393.888884 202.721757 
L 392.785159 207.057397 
L 391.678677 223.271683 
L 390.569105 217.271234 
L 389.456666 219.851512 
L 388.341359 224.206396 
L 387.223074 216.964256 
L 386.10181 226.721344 
L 384.977678 219.278905 
L 383.850458 216.816013 
L 382.720039 211.34958 
L 381.586641 208.140447 
L 380.450155 206.601378 
L 379.310581 226.750995 
L 378.167918 214.689005 
L 377.022055 203.871395 
L 375.873105 208.182483 
L 374.720845 209.915706 
L 373.565386 229.655067 
L 372.406619 203.591547 
L 371.244652 210.378759 
L 370.079376 221.099106 
L 368.910791 213.302293 
L 367.738786 204.062667 
L 366.563472 198.067983 
L 365.384629 203.844255 
L 364.202476 199.54346 
L 363.016903 202.456323 
L 361.827691 204.478938 
L 360.635059 193.601647 
L 359.438897 190.902467 
L 358.239096 192.680727 
L 357.035764 203.641279 
L 355.828792 178.460751 
L 354.61818 186.829651 
L 353.403818 187.462066 
L 352.185705 180.433454 
L 350.963842 179.78784 
L 349.738339 188.665234 
L 348.508865 160.503196 
L 347.27553 165.180729 
L 346.038445 165.408955 
L 344.797388 154.725894 
L 343.552361 163.798092 
L 342.303362 154.040415 
L 341.050393 156.467654 
L 339.793232 161.454508 
L 338.5321 138.626713 
L 337.266886 157.747937 
L 335.997481 188.867233 
L 334.723884 179.174314 
L 333.446096 139.475244 
L 332.163895 130.1073 
L 330.877393 150.369342 
L 329.586698 141.774651 
L 328.291482 130.63542 
L 326.991853 136.200402 
L 325.687811 127.102818 
L 324.379358 122.247148 
L 323.066161 128.550667 
L 321.748331 137.987227 
L 320.425979 107.738286 
L 317.767266 122.254072 
L 316.430684 150.723795 
L 313.743071 89.34133 
L 312.391929 99.951787 
L 311.035933 127.665574 
L 309.674753 90.333922 
L 308.308609 92.428281 
L 306.937392 116.222788 
L 305.560989 101.081269 
L 304.179292 97.102196 
L 302.792411 86.439591 
L 301.400235 118.780216 
L 300.002654 128.603384 
L 298.599558 93.320844 
L 297.191167 117.424588 
L 295.77715 119.589892 
L 294.357508 149.3489 
L 292.93235 108.785996 
L 291.501346 119.843934 
L 290.064606 117.415107 
L 288.62213 127.853 
L 287.173588 132.411731 
L 285.719199 120.674933 
L 284.258743 132.827761 
L 282.792221 111.979285 
L 281.319632 108.819911 
L 279.840644 111.716279 
L 278.35548 111.52135 
L 276.863918 109.950625 
L 275.365958 120.202951 
L 273.861601 126.020957 
L 272.350514 135.382681 
L 270.83292 95.061264 
L 269.308487 120.343531 
L 267.777325 80.471672 
L 266.239434 90.618357 
L 264.694374 103.057078 
L 263.142474 88.904509 
L 261.583294 116.832289 
L 260.017165 99.328573 
L 258.443535 55.043607 
L 256.862625 73.814208 
L 255.274324 83.923891 
L 253.678412 83.454199 
L 252.07511 73.585202 
L 250.463976 79.592062 
L 248.8449 71.689993 
L 247.218213 76.256885 
L 245.583473 133.927328 
L 243.940571 84.92588 
L 242.289616 121.229194 
L 240.630388 102.458474 
L 238.962777 101.970394 
L 237.286673 115.368124 
L 235.602185 63.227855 
L 233.908983 113.75128 
L 230.496216 132.497669 
L 228.77643 135.209877 
L 227.047709 164.235035 
L 225.309723 170.351623 
L 223.562692 207.849131 
L 221.806174 146.112863 
L 220.04017 151.152406 
L 218.264569 130.706801 
L 216.479261 135.073968 
L 214.684246 156.507892 
L 212.879414 155.976114 
L 211.064434 140.584816 
L 209.239526 172.835605 
L 207.40425 163.962862 
L 205.558825 182.818928 
L 203.703032 193.728909 
L 201.836649 178.904476 
L 199.959676 184.684804 
L 198.072004 184.141146 
L 196.173522 179.437264 
L 194.26423 185.782446 
L 192.344018 168.834913 
L 190.412885 167.636789 
L 188.470612 156.364747 
L 186.516976 154.311042 
L 184.5522 142.508965 
L 182.576283 146.855619 
L 180.589004 131.279817 
L 176.580142 91.546791 
L 174.558779 100.736568 
L 172.525833 99.21622 
L 170.481636 61.243061 
L 168.426189 102.945411 
L 166.359158 124.283468 
L 164.280987 90.870902 
L 162.191675 119.507218 
L 160.091333 101.250008 
L 157.97996 100.749595 
L 155.857887 83.477863 
L 153.725334 85.986714 
L 151.582414 102.535027 
L 149.429234 103.005348 
L 147.266569 130.108988 
L 145.094196 135.627106 
L 142.912889 154.367814 
L 140.722867 167.507326 
L 138.524683 168.153787 
L 136.318997 194.95596 
L 134.106142 207.90137 
L 131.887 203.163839 
L 129.662121 191.168292 
L 127.432389 186.989195 
L 125.198576 166.154885 
L 122.961674 167.519063 
L 120.722677 166.362898 
L 118.482576 158.684748 
L 116.242586 163.284741 
L 114.004029 143.995481 
L 111.76801 137.470306 
L 109.536072 158.013686 
L 107.309649 127.621322 
L 105.090176 132.419424 
L 102.879196 147.328478 
L 100.678585 151.861017 
L 98.489887 143.459714 
L 96.314756 152.773032 
L 94.155179 200.039121 
L 92.012369 203.09308 
L 89.888972 189.293116 
L 87.785982 191.813322 
L 85.705715 184.175708 
L 83.649385 184.703545 
L 79.615924 167.955492 
L 77.641662 164.673104 
L 75.697623 169.852005 
L 73.785132 158.654983 
L 71.905733 166.842393 
L 70.059977 153.067393 
L 68.248858 171.024254 
L 66.473147 156.583084 
L 64.733616 162.504395 
L 63.031148 155.816178 
L 61.365633 144.979513 
L 59.73696 141.369165 
L 58.145902 133.89404 
L 55.075857 139.626046 
L 53.59687 124.142191 
L 52.154284 96.933544 
L 50.747437 88.459916 
L 49.377653 130.030603 
L 48.042726 106.36448 
L 46.742214 71.845247 
L 45.475787 100.031865 
L 44.242563 73.061882 
L 43.042099 38.872245 
L 41.873404 21.347553 
L 40.735704 86.539764 
L 39.628008 94.167746 
L 38.549323 92.30533 
L 37.499758 81.25893 
L 36.478432 63.213441 
L 35.483028 58.346598 
L 34.514318 19.367635 
L 33.571088 46.125869 
L 32.651575 15.12 
L 31.75688 61.983045 
L 30.884468 51.060801 
L 30.034337 48.85189 
L 29.206598 39.630642 
L 28.398384 89.598931 
L 27.611128 101.844349 
L 26.843947 139.399352 
L 26.094967 82.52516 
L 25.363636 88.242651 
L 25.363636 88.242651 
" clip-path="url(#pf42ae9d843)" style="fill: none; stroke: #000000; stroke-linecap: square"/>
   </g>
  </g>
 </g>
 <defs>
  <clipPath id="pf42ae9d843">
   <rect x="0" y="-0" width="558" height="332.64"/>
  </clipPath>
 </defs>
</svg>
