<?xml version="1.0" encoding="UTF-8" standalone="no"?>
<svg
   width="586.078125pt"
   height="360.718125pt"
   viewBox="0 0 586.078125 360.718125"
   version="1.1"
   id="svg45"
   sodipodi:docname="espectro_CH4.svg"
   inkscape:version="1.4 (86a8ad7, 2024-10-11)"
   xmlns:inkscape="http://www.inkscape.org/namespaces/inkscape"
   xmlns:sodipodi="http://sodipodi.sourceforge.net/DTD/sodipodi-0.dtd"
   xmlns="http://www.w3.org/2000/svg"
   xmlns:svg="http://www.w3.org/2000/svg"
   xmlns:rdf="http://www.w3.org/1999/02/22-rdf-syntax-ns#"
   xmlns:cc="http://creativecommons.org/ns#"
   xmlns:dc="http://purl.org/dc/elements/1.1/">
  <sodipodi:namedview
     id="namedview45"
     pagecolor="#ffffff"
     bordercolor="#000000"
     borderopacity="0.25"
     inkscape:showpageshadow="2"
     inkscape:pageopacity="0.0"
     inkscape:pagecheckerboard="0"
     inkscape:deskcolor="#d1d1d1"
     inkscape:document-units="pt"
     showgrid="false"
     inkscape:zoom="1.6495241"
     inkscape:cx="390.71875"
     inkscape:cy="240.37236"
     inkscape:window-width="1920"
     inkscape:window-height="1009"
     inkscape:window-x="1272"
     inkscape:window-y="-8"
     inkscape:window-maximized="1"
     inkscape:current-layer="axes_1" />
  <metadata
     id="metadata1">
    <rdf:RDF>
      <cc:Work>
        <dc:type
           rdf:resource="http://purl.org/dc/dcmitype/StillImage" />
        <dc:date>2025-07-22T22:19:06.556442</dc:date>
        <dc:format>image/svg+xml</dc:format>
        <dc:creator>
          <cc:Agent>
            <dc:title>Matplotlib v3.9.2, https://matplotlib.org/</dc:title>
          </cc:Agent>
        </dc:creator>
      </cc:Work>
    </rdf:RDF>
  </metadata>
  <defs
     id="defs1">
    <style
       type="text/css"
       id="style1">*{stroke-linejoin: round; stroke-linecap: butt}</style>
  </defs>
  <g
     id="figure_1">
    <g
       id="patch_1">
      <path
         d="M 0 360.718125  L 586.078125 360.718125  L 586.078125 0  L 0 0  L 0 360.718125  z "
         style="fill: none"
         id="path1" />
    </g>
    <g
       id="axes_1">
      <g
         id="patch_2">
        <path
           d="M 20.878125 339.84  L 578.878125 339.84  L 578.878125 7.2  L 20.878125 7.2  L 20.878125 339.84  z "
           style="fill: none"
           id="path2" />
      </g>
      <g
         id="line2d_1">
        <path
           d="M 553.514489 324.704289  L 470.589177 324.719948  L 450.7165 324.704397  L 449.699807 324.341696  L 448.680687 324.651026  L 446.635718 324.710302  L 445.609649 324.717275  L 444.581263 324.116845  L 443.550561 324.608522  L 441.481876 324.716024  L 440.444004 322.660098  L 439.403705 324.009532  L 438.360759 324.701182  L 437.315606 324.711997  L 436.267917 320.530034  L 435.21758 321.841526  L 434.164817 324.701533  L 433.109516 324.57741  L 432.051789 322.223204  L 430.991414 316.292861  L 429.928392 324.151783  L 428.862944 324.636236  L 427.794737 315.560982  L 426.723994 318.855113  L 425.650603 324.172279  L 424.574454 318.151795  L 423.495769 314.793841  L 422.414326 316.990816  L 421.330125 318.932908  L 420.243167 324.062088  L 419.153561 306.365983  L 418.061197 318.467858  L 416.965856 321.980733  L 415.867866 321.461229  L 414.767009 290.633398  L 413.663284 320.335695  L 412.556802 322.390804  L 411.44723 282.114751  L 410.334791 317.063298  L 409.219484 318.753129  L 408.101199 287.626941  L 406.979935 319.263904  L 405.855803 298.850114  L 404.728583 312.69454  L 403.598164 294.870811  L 402.464766 290.220671  L 401.32828 308.182504  L 400.188706 280.239525  L 399.046043 288.503262  L 397.90018 298.779531  L 396.75123 290.710092  L 395.59897 297.836769  L 394.443511 302.029222  L 393.284744 234.070769  L 392.122777 297.384056  L 390.957501 297.412632  L 389.788916 296.575073  L 388.616911 278.843849  L 387.441597 278.268712  L 386.262754 293.304833  L 385.080601 277.279329  L 383.895028 297.703008  L 382.705816 271.957699  L 381.513184 277.036264  L 380.317022 267.591617  L 379.117221 286.13517  L 377.913889 273.655133  L 376.706917 295.749643  L 375.496305 262.058264  L 374.281943 283.894184  L 373.06383 286.572871  L 371.841967 264.569444  L 370.616464 279.913519  L 369.38699 254.116737  L 368.153655 282.452396  L 366.91657 244.052626  L 365.675513 241.395999  L 364.430486 210.56301  L 363.181487 246.278877  L 361.928518 235.759551  L 360.671357 226.164552  L 359.410225 193.706548  L 358.145011 241.387166  L 356.875606 256.241617  L 355.602009 255.347284  L 354.324221 188.301357  L 353.04202 199.538451  L 351.755518 203.073766  L 350.464823 231.272233  L 349.169607 194.090118  L 347.869978 201.532621  L 346.565936 175.117814  L 345.257483 184.328024  L 343.944286 179.467841  L 341.304104 165.182578  L 339.977119 187.850785  L 338.645391 192.399304  L 337.308809 216.63394  L 335.967374 167.011759  L 334.621196 22.32  L 333.270054 215.657085  L 331.914058 221.843032  L 330.552878 183.09418  L 329.186734 170.528256  L 327.815517 176.714432  L 326.439114 169.424888  L 325.057417 165.4245  L 323.670536 199.761275  L 322.27836 219.740137  L 320.880779 217.019663  L 319.477683 266.51239  L 318.069292 260.71506  L 316.655275 299.604488  L 315.235633 310.491256  L 313.810475 317.901164  L 312.379471 323.016439  L 310.942731 323.757466  L 309.500255 324.313026  L 306.597324 324.673501  L 288.65545 324.719836  L 274.556537 324.666079  L 269.723025 324.440054  L 266.461598 324.247034  L 264.818696 323.746512  L 263.167741 323.5255  L 261.508513 322.45053  L 259.840902 317.057865  L 258.164798 307.842778  L 254.787108 265.320458  L 253.085192 271.845171  L 251.374341 280.417062  L 249.654555 308.693227  L 247.925834 308.608902  L 246.187848 307.123086  L 244.440817 311.216194  L 242.684299 314.801476  L 239.142694 292.903254  L 237.357386 273.66992  L 235.562371 270.121557  L 233.757539 228.336464  L 231.942559 215.703892  L 230.117651 191.153966  L 228.282375 174.574742  L 226.43695 204.444976  L 224.581157 209.294605  L 222.714774 177.869249  L 220.837801 217.067795  L 218.950129 214.119512  L 217.051647 218.943993  L 215.142355 254.020812  L 213.222143 286.670817  L 211.29101 270.717152  L 209.348737 296.750443  L 207.395101 297.711178  L 205.430325 317.522565  L 203.454408 324.05682  L 201.467129 324.680282  L 195.436904 324.715339  L 189.304314 324.639476  L 185.159112 324.171022  L 183.0698 323.999356  L 180.969458 322.945841  L 178.858085 323.7979  L 176.736012 323.754677  L 174.603459 319.87952  L 170.307359 308.650346  L 168.144694 302.486363  L 165.972321 276.511918  L 163.791014 292.307085  L 161.600992 298.992364  L 159.402808 267.103227  L 157.197122 257.969396  L 154.984267 293.512121  L 152.765125 292.072797  L 150.540246 293.858814  L 148.310514 315.364403  L 146.076701 324.530033  L 143.839799 324.665501  L 141.600802 324.112201  L 139.360701 324.589749  L 137.120711 324.58323  L 134.882154 324.448913  L 132.646135 323.48819  L 130.414197 322.070135  L 128.187774 319.857694  L 125.968301 309.79536  L 123.757321 286.414242  L 119.368012 303.388887  L 117.192881 313.670061  L 115.033304 317.35802  L 112.890494 324.226486  L 110.767097 324.659319  L 106.58384 324.637576  L 104.52751 324.51252  L 102.496991 324.017051  L 100.494049 315.962291  L 98.519787 290.462029  L 96.575748 310.469794  L 94.663257 317.143014  L 92.783858 319.624863  L 90.938102 324.265812  L 89.126983 324.642819  L 85.611741 324.675347  L 83.909273 324.445719  L 82.243758 322.878121  L 79.024027 322.734087  L 77.470694 323.958504  L 74.474995 324.625799  L 71.625562 324.710377  L 70.255778 324.631293  L 68.920851 318.117258  L 67.620339 317.384818  L 66.353912 324.418841  L 61.613829 324.53372  L 60.506133 324.719053  L 46.241761 324.718113  L 46.241761 324.718113  "
           clip-path="url(#pa882c93f4a)"
           style="fill: none; stroke: #000000; stroke-width: 1.5; stroke-linecap: square"
           id="path45" />
      </g>
    </g>
  </g>
  <defs
     id="defs45">
    <clipPath
       id="pa882c93f4a">
      <rect
         x="20.878125"
         y="7.2"
         width="558"
         height="332.64"
         id="rect45" />
    </clipPath>
  </defs>
</svg>
