<?xml version="1.0" encoding="UTF-8" standalone="no"?>
<svg
   width="586.078125pt"
   height="360.718125pt"
   viewBox="0 0 586.078125 360.718125"
   version="1.1"
   id="svg37"
   sodipodi:docname="espectro_tierra.svg"
   inkscape:version="1.4 (86a8ad7, 2024-10-11)"
   xmlns:inkscape="http://www.inkscape.org/namespaces/inkscape"
   xmlns:sodipodi="http://sodipodi.sourceforge.net/DTD/sodipodi-0.dtd"
   xmlns="http://www.w3.org/2000/svg"
   xmlns:svg="http://www.w3.org/2000/svg"
   xmlns:rdf="http://www.w3.org/1999/02/22-rdf-syntax-ns#"
   xmlns:cc="http://creativecommons.org/ns#"
   xmlns:dc="http://purl.org/dc/elements/1.1/">
  <sodipodi:namedview
     id="namedview37"
     pagecolor="#ffffff"
     bordercolor="#000000"
     borderopacity="0.25"
     inkscape:showpageshadow="2"
     inkscape:pageopacity="0.0"
     inkscape:pagecheckerboard="0"
     inkscape:deskcolor="#d1d1d1"
     inkscape:document-units="pt"
     showgrid="false"
     inkscape:zoom="1.6495241"
     inkscape:cx="390.71875"
     inkscape:cy="240.37236"
     inkscape:window-width="1920"
     inkscape:window-height="1009"
     inkscape:window-x="1272"
     inkscape:window-y="-8"
     inkscape:window-maximized="1"
     inkscape:current-layer="axes_1" />
  <metadata
     id="metadata1">
    <rdf:RDF>
      <cc:Work>
        <dc:type
           rdf:resource="http://purl.org/dc/dcmitype/StillImage" />
        <dc:date>2025-07-22T22:07:37.773695</dc:date>
        <dc:format>image/svg+xml</dc:format>
        <dc:creator>
          <cc:Agent>
            <dc:title>Matplotlib v3.9.2, https://matplotlib.org/</dc:title>
          </cc:Agent>
        </dc:creator>
      </cc:Work>
    </rdf:RDF>
  </metadata>
  <defs
     id="defs1">
    <style
       type="text/css"
       id="style1">*{stroke-linejoin: round; stroke-linecap: butt}</style>
  </defs>
  <g
     id="figure_1">
    <g
       id="patch_1">
      <path
         d="M 0 360.718125  L 586.078125 360.718125  L 586.078125 0  L 0 0  L 0 360.718125  z "
         style="fill: none"
         id="path1" />
    </g>
    <g
       id="axes_1">
      <g
         id="patch_2">
        <path
           d="M 20.878125 339.84  L 578.878125 339.84  L 578.878125 7.2  L 20.878125 7.2  L 20.878125 339.84  z "
           style="fill: none"
           id="path2" />
      </g>
      <g
         id="matplotlib.axis_1" />
      <g
         id="line2d_1">
        <path
           d="M 553.514489 301.317444  L 552.691824 279.834352  L 551.867726 305.543469  L 551.042414 267.828986  L 549.387819 286.566754  L 548.558646 269.697065  L 547.72804 281.037097  L 546.895999 258.300782  L 546.062856 267.503393  L 545.228168 263.137367  L 544.392156 230.772187  L 543.554931 251.366798  L 541.876179 277.844041  L 541.034652 279.065065  L 540.191802 243.095708  L 539.347628 237.997576  L 538.502019 295.541255  L 537.655087 292.308479  L 536.806611 271.647543  L 535.956811 277.065017  L 535.105577 273.385114  L 534.252799 266.659991  L 533.398808 286.917136  L 532.543272 300.168092  L 531.686302 301.317575  L 530.827898 311.390494  L 529.96795 288.935912  L 529.106679 316.197873  L 528.243752 317.629147  L 527.379502 315.103973  L 526.513708 296.279805  L 525.646369 224.924026  L 524.777707 324.72  L 523.90739 310.680921  L 523.035639 293.327793  L 522.162234 316.65244  L 521.287395 311.478144  L 520.411121 322.121256  L 519.533193 320.635548  L 518.653721 265.120128  L 517.772704 311.257073  L 516.890143 324.057033  L 515.120389 209.130407  L 514.232975 320.52027  L 513.344126 317.463812  L 512.453513 320.45973  L 511.561576 297.185491  L 510.667764 269.90256  L 509.772518 272.631516  L 508.875507 271.646011  L 507.976952 257.127311  L 507.076632 135.53423  L 506.174767 144.205264  L 505.271138 199.129123  L 504.365964 212.491336  L 503.459026 199.021047  L 502.550432 78.615172  L 501.640074 128.270472  L 500.728172 133.862873  L 499.814394 156.881243  L 498.898962 243.622481  L 497.981765 243.076287  L 497.062914 258.259015  L 496.142187 246.575633  L 495.219805 166.90261  L 494.295659 22.32  L 493.369748 121.441922  L 492.441961 268.107591  L 491.51252 274.737445  L 490.581094 276.246373  L 489.648123 97.156547  L 488.713056 182.358685  L 487.776335 291.794397  L 486.837628 261.888841  L 485.897157 299.141909  L 484.954699 310.229204  L 484.010477 273.781393  L 483.06449 299.549479  L 482.116407 302.97212  L 481.16656 322.287018  L 480.214727 320.16687  L 479.261018 210.665664  L 478.305324 284.531578  L 477.347755 303.205789  L 476.3882 298.545808  L 475.42666 280.354107  L 474.463245 251.999406  L 473.497623 239.642451  L 472.530237 250.642735  L 471.560755 229.851965  L 470.589177 227.127253  L 469.615723 205.117321  L 468.640064 189.574155  L 467.662419 218.268532  L 466.682789 216.156934  L 465.700952 174.444376  L 464.71713 216.811818  L 463.731102 206.991813  L 462.742978 205.972914  L 461.752868 213.813594  L 460.760442 222.818909  L 459.765921 241.181396  L 458.769303 251.65628  L 457.770369 288.81287  L 456.769339 306.502895  L 455.766103 294.887218  L 454.760661 279.436132  L 453.753013 248.397901  L 452.743048 229.515857  L 451.730877 208.335114  L 450.7165 190.829553  L 449.699807 157.657137  L 448.680687 143.816616  L 447.659361 111.73476  L 446.635718 109.252656  L 445.609649 98.368877  L 443.550561 66.520539  L 442.517432 66.873571  L 441.481876 49.001829  L 440.444004 60.277706  L 439.403705 69.047924  L 438.360759 58.999407  L 437.315606 59.969337  L 436.267917 55.755525  L 435.21758 65.754555  L 434.164817 86.378533  L 433.109516 116.182921  L 432.051789 159.546027  L 429.928392 269.341164  L 428.862944 282.626739  L 427.794737 300.640266  L 426.723994 281.661875  L 425.650603 312.876737  L 424.574454 304.860738  L 423.495769 313.281935  L 422.414326 308.886619  L 421.330125 300.05411  L 420.243167 299.38504  L 419.153561 290.55426  L 418.061197 304.286767  L 416.965856 307.300566  L 414.767009 285.080086  L 413.663284 302.219499  L 412.556802 307.370665  L 411.44723 299.370637  L 410.334791 321.388386  L 409.219484 323.28885  L 408.101199 307.857153  L 406.979935 319.7846  L 405.855803 304.268839  L 404.728583 302.499939  L 403.598164 275.39122  L 402.464766 273.9949  L 401.32828 273.219695  L 400.188706 275.161497  L 399.046043 281.108284  L 397.90018 267.960557  L 396.75123 271.672872  L 395.59897 279.437721  L 394.443511 300.674444  L 393.284744 281.564436  L 392.122777 313.534421  L 390.957501 313.930668  L 389.788916 313.193552  L 388.616911 305.048656  L 387.441597 304.899933  L 386.262754 311.771268  L 385.080601 291.069498  L 383.895028 309.764108  L 382.705816 301.935219  L 381.513184 304.337178  L 380.317022 299.871716  L 379.117221 282.308586  L 377.913889 298.930364  L 376.706917 272.001037  L 375.496305 288.574206  L 374.281943 307.063819  L 373.06383 288.356719  L 371.841967 282.732836  L 370.616464 291.364707  L 369.38699 235.768692  L 368.153655 263.813114  L 366.91657 282.381386  L 365.675513 240.059869  L 364.430486 261.3275  L 363.181487 203.041908  L 361.928518 275.875381  L 360.671357 276.615343  L 359.410225 259.060192  L 358.145011 286.400634  L 356.875606 288.864243  L 355.602009 292.81479  L 354.324221 249.273032  L 353.04202 267.690107  L 351.755518 269.33523  L 350.464823 282.103431  L 349.169607 264.910275  L 347.869978 268.630425  L 346.565936 256.063706  L 345.257483 255.122353  L 343.944286 255.582207  L 342.626456 252.837047  L 341.304104 245.075768  L 339.977119 253.312845  L 338.645391 262.291841  L 337.308809 264.076811  L 335.967374 246.604606  L 334.621196 166.681515  L 333.270054 204.139983  L 331.914058 260.518341  L 330.552878 241.026548  L 329.186734 225.34379  L 327.815517 253.098673  L 326.439114 227.311805  L 325.057417 236.612865  L 323.670536 262.647905  L 322.27836 266.370685  L 320.880779 263.472822  L 319.477683 266.848565  L 318.069292 287.658778  L 315.235633 304.368361  L 313.810475 283.123966  L 312.379471 300.81052  L 310.942731 305.80788  L 309.500255 300.779413  L 308.051713 317.199566  L 306.597324 306.037654  L 305.136868 312.376011  L 303.670346 303.355543  L 302.197757 298.201613  L 300.718769 304.487275  L 299.233605 299.886891  L 297.742043 279.246449  L 296.244083 288.957584  L 294.739726 303.728778  L 293.228639 317.230336  L 291.711045 296.219368  L 290.186612 298.435749  L 287.117559 262.009276  L 285.572499 266.140432  L 284.020599 259.982558  L 282.461419 266.490818  L 280.89529 248.808053  L 279.32166 205.610616  L 277.74075 179.946791  L 276.152449 143.959623  L 274.556537 143.575596  L 272.953235 147.175141  L 271.342101 213.542206  L 269.723025 210.374504  L 268.096338 153.47756  L 266.461598 133.873787  L 264.818696 135.30213  L 263.167741 207.734001  L 261.508513 268.194691  L 259.840902 259.313588  L 258.164798 241.702984  L 256.48031 230.409409  L 254.787108 233.166761  L 253.085192 256.625019  L 251.374341 266.795659  L 249.654555 282.059071  L 247.925834 294.647085  L 246.187848 298.588465  L 244.440817 296.00568  L 242.684299 295.73951  L 240.918295 313.206416  L 239.142694 307.014919  L 237.357386 298.916623  L 235.562371 296.330841  L 233.757539 276.513725  L 231.942559 274.536452  L 230.117651 263.513632  L 228.282375 253.900333  L 226.43695 269.822061  L 224.581157 272.064597  L 222.714774 257.293132  L 220.837801 274.65516  L 218.950129 269.81397  L 217.051647 276.2165  L 215.142355 292.841152  L 213.222143 305.91792  L 211.29101 300.107366  L 209.348737 310.553736  L 207.395101 308.406477  L 205.430325 317.593515  L 203.454408 320.931288  L 201.467129 318.110748  L 199.468379 291.221195  L 197.458267 245.699677  L 195.436904 254.078174  L 193.403958 292.929816  L 191.359761 205.37978  L 189.304314 262.476521  L 187.237283 283.468989  L 185.159112 224.639931  L 183.0698 292.757065  L 180.969458 293.622117  L 178.858085 282.402683  L 176.736012 279.71895  L 174.603459 279.813057  L 172.460539 281.004043  L 170.307359 295.154294  L 168.144694 303.56419  L 165.972321 299.925592  L 163.791014 307.628049  L 161.600992 311.823174  L 159.402808 297.460612  L 157.197122 293.785938  L 154.984267 309.936478  L 152.765125 308.436213  L 150.540246 299.743828  L 148.310514 315.203479  L 146.076701 290.307269  L 143.839799 301.371879  L 141.600802 309.621616  L 139.360701 311.806662  L 137.120711 319.309587  L 134.882154 317.887308  L 132.646135 314.797709  L 130.414197 310.179633  L 128.187774 270.827653  L 125.968301 296.303982  L 123.757321 275.661095  L 121.55671 277.057993  L 119.368012 273.976399  L 117.192881 305.811377  L 115.033304 310.167524  L 112.890494 317.761978  L 110.767097 318.06614  L 108.664107 318.713405  L 106.58384 318.337402  L 104.52751 310.863506  L 102.496991 306.506159  L 100.494049 310.96683  L 98.519787 299.98747  L 96.575748 304.021024  L 94.663257 302.460662  L 92.783858 304.475169  L 90.938102 311.135493  L 89.126983 312.325897  L 87.351272 311.867536  L 85.611741 310.425918  L 83.909273 310.023118  L 82.243758 308.878233  L 77.470694 306.265541  L 75.953982 302.650975  L 74.474995 300.196094  L 73.032409 295.799779  L 71.625562 298.811921  L 70.255778 298.924273  L 68.920851 296.252905  L 67.620339 296.999137  L 66.353912 298.167305  L 65.120688 296.85403  L 63.920224 295.833477  L 62.751529 294.616667  L 61.613829 293.261606  L 59.427448 290.121719  L 58.377883 289.765739  L 56.361153 287.110828  L 55.392443 286.119003  L 52.635005 282.432635  L 50.912462 279.929751  L 50.084723 278.300349  L 49.276509 276.003278  L 48.489253 275.170812  L 47.722072 275.043174  L 46.241761 272.523956  L 46.241761 272.523956  "
           clip-path="url(#p8487c29946)"
           style="fill: none; stroke: #000000; stroke-width: 1.5; stroke-linecap: square"
           id="path37" />
      </g>
    </g>
  </g>
  <defs
     id="defs37">
    <clipPath
       id="p8487c29946">
      <rect
         x="20.878125"
         y="7.2"
         width="558"
         height="332.64"
         id="rect37" />
    </clipPath>
  </defs>
</svg>
