<?xml version="1.0" encoding="UTF-8" standalone="no"?>
<svg
   width="586.078125pt"
   height="360.718125pt"
   viewBox="0 0 586.078125 360.718125"
   version="1.1"
   id="svg45"
   sodipodi:docname="espectro_O3.svg"
   inkscape:version="1.4 (86a8ad7, 2024-10-11)"
   xmlns:inkscape="http://www.inkscape.org/namespaces/inkscape"
   xmlns:sodipodi="http://sodipodi.sourceforge.net/DTD/sodipodi-0.dtd"
   xmlns="http://www.w3.org/2000/svg"
   xmlns:svg="http://www.w3.org/2000/svg"
   xmlns:rdf="http://www.w3.org/1999/02/22-rdf-syntax-ns#"
   xmlns:cc="http://creativecommons.org/ns#"
   xmlns:dc="http://purl.org/dc/elements/1.1/">
  <sodipodi:namedview
     id="namedview45"
     pagecolor="#ffffff"
     bordercolor="#000000"
     borderopacity="0.25"
     inkscape:showpageshadow="2"
     inkscape:pageopacity="0.0"
     inkscape:pagecheckerboard="0"
     inkscape:deskcolor="#d1d1d1"
     inkscape:document-units="pt"
     inkscape:zoom="1.6779029"
     inkscape:cx="390.66624"
     inkscape:cy="240.47876"
     inkscape:window-width="1920"
     inkscape:window-height="1009"
     inkscape:window-x="1272"
     inkscape:window-y="-8"
     inkscape:window-maximized="1"
     inkscape:current-layer="axes_1" />
  <metadata
     id="metadata1">
    <rdf:RDF>
      <cc:Work>
        <dc:type
           rdf:resource="http://purl.org/dc/dcmitype/StillImage" />
        <dc:date>2025-07-22T22:19:06.619216</dc:date>
        <dc:format>image/svg+xml</dc:format>
        <dc:creator>
          <cc:Agent>
            <dc:title>Matplotlib v3.9.2, https://matplotlib.org/</dc:title>
          </cc:Agent>
        </dc:creator>
      </cc:Work>
    </rdf:RDF>
  </metadata>
  <defs
     id="defs1">
    <style
       type="text/css"
       id="style1">*{stroke-linejoin: round; stroke-linecap: butt}</style>
  </defs>
  <g
     id="figure_1">
    <g
       id="patch_1">
      <path
         d="M 0 360.718125  L 586.078125 360.718125  L 586.078125 0  L 0 0  L 0 360.718125  z "
         style="fill: none"
         id="path1" />
    </g>
    <g
       id="axes_1">
      <g
         id="patch_2">
        <path
           d="M 20.878125 339.84  L 578.878125 339.84  L 578.878125 7.2  L 20.878125 7.2  L 20.878125 339.84  z "
           style="fill: none"
           id="path2" />
      </g>
      <g
         id="line2d_1">
        <path
           d="M 553.514489 318.291547  L 552.691824 324.719215  L 551.867726 324.719108  L 551.042414 321.115722  L 550.215778 308.233203  L 549.387819 324.034991  L 548.558646 324.678341  L 547.72804 324.714319  L 546.895999 324.522082  L 546.062856 323.304171  L 545.228168 314.437038  L 544.392156 302.378802  L 543.554931 293.20008  L 542.716162 324.641371  L 541.876179 324.717046  L 540.191802 324.45255  L 539.347628 323.030575  L 538.502019 324.635784  L 537.655087 324.608797  L 536.806611 324.712923  L 535.956811 306.263654  L 535.105577 274.689005  L 534.252799 276.088429  L 533.398808 321.532348  L 532.543272 324.646722  L 531.686302 324.687408  L 530.827898 324.609747  L 529.96795 323.694207  L 529.106679 323.736792  L 528.243752 322.680814  L 527.379502 322.172541  L 526.513708 295.962355  L 525.646369 224.007322  L 524.777707 323.99288  L 523.90739 324.575845  L 523.035639 323.340198  L 522.162234 322.775094  L 521.287395 318.075494  L 520.411121 324.027449  L 519.533193 322.20079  L 518.653721 265.312579  L 517.772704 312.042611  L 516.890143 322.585559  L 516.005928 277.641937  L 515.120389 207.900133  L 514.232975 321.66108  L 513.344126 324.504582  L 512.453513 324.196394  L 511.561576 304.363817  L 510.667764 290.615199  L 509.772518 309.733978  L 508.875507 315.965946  L 507.976952 301.375405  L 507.076632 146.282733  L 506.174767 145.556998  L 505.271138 220.980865  L 504.365964 231.563836  L 503.459026 231.780406  L 502.550432 78.287166  L 501.640074 136.158214  L 500.728172 133.924265  L 498.898962 300.779613  L 497.981765 268.43354  L 497.062914 304.435484  L 496.142187 320.129861  L 494.295659 22.32  L 493.369748 129.3755  L 492.441961 295.379992  L 491.51252 308.617696  L 490.581094 295.808654  L 489.648123 102.236676  L 488.713056 195.600208  L 487.776335 305.006059  L 486.837628 273.934015  L 485.897157 303.351172  L 484.954699 318.177488  L 484.010477 275.727245  L 483.06449 299.575456  L 482.116407 303.203535  L 481.16656 324.624064  L 480.214727 324.16472  L 479.261018 211.206137  L 478.305324 292.112233  L 477.347755 323.730491  L 475.42666 324.613295  L 474.463245 289.752962  L 473.497623 280.27079  L 472.530237 320.802386  L 471.560755 318.448772  L 470.589177 323.113783  L 469.615723 292.717923  L 468.640064 235.087313  L 467.662419 322.097072  L 466.682789 315.540229  L 465.700952 200.500684  L 464.71713 293.923201  L 463.731102 323.089604  L 462.742978 311.996257  L 461.752868 306.337384  L 460.760442 324.34446  L 459.765921 324.611655  L 458.769303 321.75937  L 457.770369 314.850921  L 456.769339 318.487736  L 455.766103 321.128138  L 454.760661 324.638966  L 453.753013 324.697581  L 451.730877 324.650872  L 450.7165 324.711109  L 449.699807 324.44766  L 448.680687 321.568922  L 447.659361 324.493248  L 446.635718 324.054669  L 445.609649 324.705805  L 443.550561 324.672538  L 442.517432 323.265354  L 441.481876 322.589803  L 440.444004 319.522677  L 439.403705 324.097284  L 438.360759 324.288551  L 437.315606 321.8246  L 436.267917 324.719461  L 435.21758 323.427424  L 434.164817 324.40686  L 433.109516 324.60527  L 432.051789 323.701153  L 430.991414 323.767734  L 429.928392 322.122908  L 428.862944 324.438973  L 427.794737 324.359486  L 426.723994 285.104119  L 425.650603 319.661996  L 424.574454 312.359345  L 423.495769 320.964046  L 422.414326 324.719891  L 419.153561 324.694413  L 418.061197 324.375745  L 416.965856 322.914032  L 415.867866 324.7197  L 414.767009 324.719672  L 413.663284 323.864768  L 412.556802 322.132883  L 411.44723 319.149564  L 410.334791 324.353039  L 409.219484 324.67081  L 406.979935 324.719998  L 405.855803 324.319646  L 404.728583 322.004028  L 403.598164 324.719993  L 390.957501 324.718557  L 389.788916 324.267867  L 387.441597 324.678179  L 386.262754 324.39069  L 385.080601 307.437602  L 383.895028 318.118833  L 382.705816 324.713198  L 380.317022 324.713648  L 379.117221 287.741472  L 377.913889 317.944716  L 376.706917 278.745509  L 375.496305 312.486968  L 374.281943 323.877262  L 373.06383 299.062353  L 371.841967 296.996247  L 370.616464 306.734892  L 369.38699 246.947586  L 368.153655 271.661773  L 366.91657 321.449687  L 365.675513 254.262253  L 364.430486 311.377164  L 363.181487 232.000943  L 361.928518 312.062936  L 360.671357 320.937778  L 359.410225 309.07414  L 358.145011 321.653312  L 356.875606 316.610435  L 355.602009 322.630915  L 354.324221 297.934329  L 353.04202 324.711628  L 350.464823 324.631325  L 349.169607 324.35845  L 347.869978 324.668184  L 346.565936 324.386142  L 345.257483 318.329491  L 343.944286 309.15082  L 342.626456 314.930937  L 341.304104 306.565918  L 339.977119 303.974026  L 338.645391 315.516615  L 337.308809 292.834286  L 335.967374 321.742764  L 334.621196 259.277769  L 333.270054 226.667184  L 331.914058 287.971324  L 330.552878 281.758109  L 329.186734 268.122854  L 327.815517 324.434942  L 326.439114 285.012566  L 325.057417 295.849511  L 323.670536 324.695971  L 322.27836 324.630275  L 320.880779 299.453521  L 319.477683 279.993972  L 318.069292 322.234602  L 316.655275 311.825534  L 315.235633 320.785315  L 313.810475 296.70089  L 312.379471 324.718381  L 310.942731 317.067701  L 309.500255 312.861023  L 308.051713 324.670268  L 306.597324 324.591361  L 305.136868 324.715128  L 303.670346 321.986798  L 302.197757 323.510481  L 300.718769 323.708704  L 299.233605 324.718793  L 297.742043 324.718666  L 296.244083 323.883419  L 294.739726 323.90717  L 293.228639 324.644732  L 291.711045 302.275258  L 290.186612 311.695894  L 288.65545 319.150028  L 287.117559 324.033296  L 285.572499 324.719998  L 277.74075 324.712661  L 274.556537 324.520547  L 272.953235 319.13275  L 271.342101 324.719878  L 269.723025 318.914317  L 268.096338 270.618766  L 266.461598 285.536428  L 264.818696 324.404242  L 263.167741 324.052845  L 261.508513 324.700757  L 259.840902 323.652866  L 258.164798 324.283104  L 256.48031 304.738288  L 254.787108 305.385082  L 253.085192 324.718504  L 251.374341 324.719217  L 249.654555 319.123438  L 247.925834 316.385691  L 246.187848 317.746201  L 244.440817 306.525422  L 242.684299 304.016903  L 240.918295 324.259748  L 239.142694 324.701452  L 237.357386 321.616994  L 235.562371 323.052121  L 233.757539 320.533081  L 231.942559 324.719963  L 230.117651 324.71995  L 228.282375 318.913117  L 226.43695 324.72  L 217.051647 324.710167  L 215.142355 324.313433  L 213.222143 322.376486  L 211.29101 324.619427  L 209.348737 323.210121  L 207.395101 322.286839  L 205.430325 319.431118  L 203.454408 324.339331  L 201.467129 324.719985  L 199.468379 324.563706  L 197.458267 324.708121  L 195.436904 319.029075  L 193.403958 318.458158  L 191.359761 324.45625  L 189.304314 323.670772  L 187.237283 322.652044  L 185.159112 324.719982  L 180.969458 324.72  L 178.858085 322.567244  L 176.736012 324.016434  L 174.603459 324.72  L 172.460539 324.72  L 170.307359 324.588353  L 168.144694 324.31649  L 165.972321 324.72  L 163.791014 324.581501  L 159.402808 324.72  L 46.241761 324.72  L 46.241761 324.72  "
           clip-path="url(#pad49c887be)"
           style="fill: none; stroke: #000000; stroke-width: 1.5; stroke-linecap: square"
           id="path45" />
      </g>
    </g>
  </g>
  <defs
     id="defs45">
    <clipPath
       id="pad49c887be">
      <rect
         x="20.878125"
         y="7.2"
         width="558"
         height="332.64"
         id="rect45" />
    </clipPath>
  </defs>
</svg>
