<?xml version="1.0" encoding="UTF-8" standalone="no"?>
<svg
   width="586.078125pt"
   height="360.718125pt"
   viewBox="0 0 586.078125 360.718125"
   version="1.1"
   id="svg45"
   sodipodi:docname="espectro_CO2.svg"
   inkscape:version="1.4 (86a8ad7, 2024-10-11)"
   xmlns:inkscape="http://www.inkscape.org/namespaces/inkscape"
   xmlns:sodipodi="http://sodipodi.sourceforge.net/DTD/sodipodi-0.dtd"
   xmlns="http://www.w3.org/2000/svg"
   xmlns:svg="http://www.w3.org/2000/svg"
   xmlns:rdf="http://www.w3.org/1999/02/22-rdf-syntax-ns#"
   xmlns:cc="http://creativecommons.org/ns#"
   xmlns:dc="http://purl.org/dc/elements/1.1/">
  <sodipodi:namedview
     id="namedview45"
     pagecolor="#ffffff"
     bordercolor="#000000"
     borderopacity="0.25"
     inkscape:showpageshadow="2"
     inkscape:pageopacity="0.0"
     inkscape:pagecheckerboard="0"
     inkscape:deskcolor="#d1d1d1"
     inkscape:document-units="pt"
     inkscape:zoom="1.6779029"
     inkscape:cx="390.66624"
     inkscape:cy="240.47876"
     inkscape:window-width="1920"
     inkscape:window-height="1009"
     inkscape:window-x="1272"
     inkscape:window-y="-8"
     inkscape:window-maximized="1"
     inkscape:current-layer="axes_1" />
  <metadata
     id="metadata1">
    <rdf:RDF>
      <cc:Work>
        <dc:type
           rdf:resource="http://purl.org/dc/dcmitype/StillImage" />
        <dc:date>2025-07-22T22:19:06.495807</dc:date>
        <dc:format>image/svg+xml</dc:format>
        <dc:creator>
          <cc:Agent>
            <dc:title>Matplotlib v3.9.2, https://matplotlib.org/</dc:title>
          </cc:Agent>
        </dc:creator>
      </cc:Work>
    </rdf:RDF>
  </metadata>
  <defs
     id="defs1">
    <style
       type="text/css"
       id="style1">*{stroke-linejoin: round; stroke-linecap: butt}</style>
  </defs>
  <g
     id="figure_1">
    <g
       id="patch_1">
      <path
         d="M 0 360.718125  L 586.078125 360.718125  L 586.078125 0  L 0 0  L 0 360.718125  z "
         style="fill: none"
         id="path1" />
    </g>
    <g
       id="axes_1">
      <g
         id="patch_2">
        <path
           d="M 20.878125 339.84  L 578.878125 339.84  L 578.878125 7.2  L 20.878125 7.2  L 20.878125 339.84  z "
           style="fill: none"
           id="path2" />
      </g>
      <g
         id="line2d_1">
        <path
           d="M 553.514489 318.401407  L 552.691824 318.292074  L 551.867726 310.877702  L 551.042414 300.637307  L 550.215778 282.98179  L 549.387819 282.795772  L 548.558646 272.264904  L 547.72804 277.598353  L 546.895999 261.870516  L 546.062856 261.135627  L 545.228168 258.896113  L 544.392156 236.472435  L 543.554931 255.958243  L 542.716162 269.608918  L 541.876179 272.190974  L 541.034652 273.10413  L 540.191802 233.743662  L 539.347628 228.330263  L 538.502019 292.976188  L 537.655087 297.060163  L 536.806611 316.613006  L 535.956811 319.805768  L 535.105577 316.639792  L 534.252799 301.799029  L 533.398808 302.791639  L 532.543272 296.711377  L 531.686302 304.188564  L 530.827898 308.974051  L 529.96795 315.436101  L 529.106679 315.629455  L 528.243752 317.100212  L 527.379502 320.167746  L 526.513708 322.205099  L 524.777707 323.890846  L 523.90739 323.166667  L 523.035639 323.005963  L 522.162234 323.665181  L 521.287395 324.182318  L 520.411121 323.794381  L 519.533193 320.841608  L 518.653721 324.447016  L 516.890143 324.64525  L 516.005928 324.628135  L 515.120389 324.269702  L 514.232975 323.728942  L 513.344126 322.153889  L 512.453513 318.277307  L 511.561576 309.847487  L 510.667764 285.871642  L 509.772518 281.623892  L 508.875507 269.314314  L 507.976952 255.072226  L 507.076632 231.177723  L 506.174767 235.558014  L 505.271138 220.323423  L 504.365964 224.636283  L 503.459026 209.216177  L 502.550432 229.267282  L 501.640074 225.501386  L 500.728172 226.113465  L 499.814394 166.607185  L 498.898962 238.473004  L 497.981765 251.8225  L 497.062914 257.333827  L 496.142187 238.045526  L 495.219805 291.443941  L 494.295659 283.572706  L 493.369748 272.434657  L 492.441961 276.483367  L 491.51252 275.700346  L 490.581094 289.457975  L 489.648123 293.514591  L 488.713056 300.791313  L 487.776335 300.334468  L 486.837628 285.57215  L 485.897157 315.388481  L 484.954699 317.503559  L 484.010477 315.999602  L 483.06449 322.81222  L 482.116407 321.950669  L 481.16656 322.413365  L 480.214727 322.271309  L 479.261018 321.418663  L 478.305324 321.569739  L 477.347755 324.362672  L 476.3882 324.529788  L 475.42666 324.426261  L 474.463245 324.464669  L 472.530237 323.718836  L 471.560755 323.548221  L 470.589177 322.789326  L 469.615723 320.523194  L 468.640064 320.386748  L 467.662419 319.894085  L 466.682789 315.574541  L 465.700952 319.650507  L 464.71713 323.135942  L 463.731102 314.621852  L 462.742978 318.509965  L 461.752868 311.581797  L 460.760442 320.781828  L 459.765921 323.095799  L 458.769303 323.810074  L 457.770369 321.984697  L 456.769339 313.918115  L 454.760661 273.207347  L 453.753013 239.286457  L 452.743048 218.725268  L 451.730877 195.675074  L 450.7165 176.687338  L 449.699807 140.533994  L 448.680687 125.509195  L 447.659361 90.56876  L 446.635718 87.922238  L 445.609649 76.025849  L 443.550561 41.377834  L 442.517432 41.794957  L 441.481876 22.32  L 440.444004 34.594321  L 439.403705 44.149298  L 438.360759 33.194868  L 437.315606 34.252893  L 436.267917 29.67096  L 435.21758 40.544199  L 434.164817 62.980309  L 433.109516 95.404489  L 432.051789 142.600454  L 429.928392 262.611609  L 428.862944 276.603984  L 427.794737 299.615709  L 426.723994 318.141324  L 425.650603 314.803096  L 424.574454 316.604295  L 423.495769 323.431626  L 422.414326 320.557822  L 421.330125 315.951535  L 420.243167 320.144827  L 419.153561 321.953959  L 418.061197 324.402402  L 416.965856 324.677423  L 414.767009 324.685161  L 409.219484 324.72  L 322.27836 324.643374  L 320.880779 324.229983  L 319.477683 322.64208  L 318.069292 315.749761  L 316.655275 322.683482  L 315.235633 317.638023  L 313.810475 313.277364  L 312.379471 319.698995  L 310.942731 324.228782  L 309.500255 324.699614  L 308.051713 324.641581  L 306.597324 324.299218  L 305.136868 324.072691  L 303.670346 322.083435  L 302.197757 309.854714  L 300.718769 313.30575  L 299.233605 307.688254  L 297.742043 291.833752  L 296.244083 306.979048  L 294.739726 323.607729  L 293.228639 324.520475  L 291.711045 324.239089  L 290.186612 324.532377  L 288.65545 323.751723  L 287.117559 317.214346  L 285.572499 315.569749  L 284.020599 307.798861  L 282.461419 283.470581  L 280.89529 248.77123  L 279.32166 199.149192  L 277.74075 167.39915  L 276.152449 128.269645  L 274.556537 131.184702  L 272.953235 131.091278  L 271.342101 229.488907  L 269.723025 212.833385  L 268.096338 138.489977  L 266.461598 118.125503  L 264.818696 118.601034  L 261.508513 320.195314  L 259.840902 322.935395  L 258.164798 321.310692  L 256.48031 323.505683  L 254.787108 324.680779  L 249.654555 324.707103  L 247.925834 324.609524  L 246.187848 324.389617  L 244.440817 323.628349  L 242.684299 323.664271  L 240.918295 324.715013  L 220.837801 324.653347  L 217.051647 324.563008  L 215.142355 324.716133  L 213.222143 324.708581  L 211.29101 324.316882  L 209.348737 323.653832  L 207.395101 323.904441  L 205.430325 324.696019  L 203.454408 324.476074  L 201.467129 320.500526  L 199.468379 286.799486  L 197.458267 236.549454  L 195.436904 249.531734  L 193.403958 295.034813  L 191.359761 192.57949  L 189.304314 258.472008  L 187.237283 280.344128  L 185.159112 214.079028  L 183.0698 302.650654  L 180.969458 324.580301  L 178.858085 323.014461  L 176.736012 304.748434  L 174.603459 324.581798  L 172.460539 324.713498  L 154.984267 324.701199  L 152.765125 323.534814  L 150.540246 310.753858  L 148.310514 319.601506  L 146.076701 286.756463  L 143.839799 299.447958  L 141.600802 309.376249  L 139.360701 311.696824  L 137.120711 321.127275  L 134.882154 322.339368  L 132.646135 324.674904  L 130.414197 324.604417  L 128.187774 277.565849  L 125.968301 318.193501  L 123.757321 324.700024  L 121.55671 324.531745  L 119.368012 324.554353  L 117.192881 321.901332  L 115.033304 320.175574  L 112.890494 323.652687  L 110.767097 323.351519  L 108.664107 324.501597  L 106.58384 324.644959  L 104.52751 316.231163  L 102.496991 312.624508  L 100.494049 324.681554  L 89.126983 324.65658  L 87.351272 324.477286  L 85.611741 323.440233  L 83.909273 324.168798  L 82.243758 324.649942  L 66.353912 324.58997  L 65.120688 324.294163  L 63.920224 324.577025  L 46.241761 324.390366  L 46.241761 324.390366  "
           clip-path="url(#p5659ae0ece)"
           style="fill: none; stroke: #000000; stroke-width: 1.5; stroke-linecap: square"
           id="path45" />
      </g>
    </g>
  </g>
  <defs
     id="defs45">
    <clipPath
       id="p5659ae0ece">
      <rect
         x="20.878125"
         y="7.2"
         width="558"
         height="332.64"
         id="rect45" />
    </clipPath>
  </defs>
</svg>
