<?xml version="1.0" encoding="utf-8" standalone="no"?>
<!DOCTYPE svg PUBLIC "-//W3C//DTD SVG 1.1//EN"
  "http://www.w3.org/Graphics/SVG/1.1/DTD/svg11.dtd">
<svg xmlns:xlink="http://www.w3.org/1999/xlink" width="558pt" height="332.64pt" viewBox="0 0 558 332.64" xmlns="http://www.w3.org/2000/svg" version="1.1">
 <metadata>
  <rdf:RDF xmlns:dc="http://purl.org/dc/elements/1.1/" xmlns:cc="http://creativecommons.org/ns#" xmlns:rdf="http://www.w3.org/1999/02/22-rdf-syntax-ns#">
   <cc:Work>
    <dc:type rdf:resource="http://purl.org/dc/dcmitype/StillImage"/>
    <dc:date>2025-07-22T23:46:21.908683</dc:date>
    <dc:format>image/svg+xml</dc:format>
    <dc:creator>
     <cc:Agent>
      <dc:title>Matplotlib v3.9.2, https://matplotlib.org/</dc:title>
     </cc:Agent>
    </dc:creator>
   </cc:Work>
  </rdf:RDF>
 </metadata>
 <defs>
  <style type="text/css">*{stroke-linejoin: round; stroke-linecap: butt}</style>
 </defs>
 <g id="figure_1">
  <g id="patch_1">
   <path d="M 0 332.64 
L 558 332.64 
L 558 0 
L 0 0 
L 0 332.64 
z
" style="fill: none"/>
  </g>
  <g id="axes_1">
   <g id="patch_2">
    <path d="M 0 332.64 
L 558 332.64 
L 558 -0 
L 0 -0 
L 0 332.64 
z
" style="fill: none"/>
   </g>
   <g id="matplotlib.axis_1">
    <g id="xtick_1"/>
    <g id="xtick_2"/>
    <g id="xtick_3"/>
    <g id="xtick_4"/>
    <g id="xtick_5"/>
   </g>
   <g id="matplotlib.axis_2">
    <g id="ytick_1"/>
    <g id="ytick_2"/>
    <g id="ytick_3"/>
    <g id="ytick_4"/>
    <g id="ytick_5"/>
    <g id="ytick_6"/>
    <g id="ytick_7"/>
   </g>
   <g id="line2d_1">
    <path d="M 25.363636 38.397178 
L 26.094967 57.039433 
L 26.843947 15.12 
L 27.611128 24.861257 
L 28.398384 55.076427 
L 29.206598 95.135413 
L 30.034337 110.16473 
L 30.884468 111.271282 
L 31.75688 116.433392 
L 32.651575 82.44335 
L 33.571088 77.891193 
L 34.514318 84.499918 
L 35.483028 106.524803 
L 37.499758 139.669187 
L 38.549323 145.068802 
L 39.628008 146.15916 
L 40.735704 144.226743 
L 41.873404 105.830284 
L 44.242563 143.206555 
L 45.475787 158.881811 
L 46.742214 142.071215 
L 48.042726 163.57791 
L 49.377653 174.503088 
L 50.747437 161.537536 
L 52.154284 165.576901 
L 53.59687 176.100841 
L 55.075857 182.123004 
L 56.592569 184.118396 
L 58.145902 180.919291 
L 59.73696 185.539821 
L 61.365633 188.220735 
L 63.031148 192.549783 
L 64.733616 197.717292 
L 66.473147 198.937198 
L 68.248858 205.610697 
L 70.059977 202.067931 
L 71.905733 206.134285 
L 73.785132 204.21986 
L 75.697623 209.03651 
L 77.641662 208.750426 
L 79.615924 212.046692 
L 81.618866 214.887742 
L 83.649385 215.450914 
L 85.705715 214.689822 
L 87.785982 216.697809 
L 89.888972 218.108438 
L 92.012369 221.057444 
L 94.155179 220.325141 
L 96.314756 200.954181 
L 98.489887 200.351425 
L 100.678585 202.677884 
L 102.879196 195.628337 
L 105.090176 191.682534 
L 107.309649 191.333475 
L 109.536072 192.875451 
L 111.76801 192.164739 
L 114.004029 195.482596 
L 116.242586 192.461619 
L 118.482576 190.329482 
L 120.722677 193.980204 
L 122.961674 204.478955 
L 125.198576 200.01856 
L 127.432389 202.066131 
L 129.662121 207.447753 
L 134.106142 214.130248 
L 136.318997 214.275989 
L 138.524683 205.414576 
L 140.722867 200.058144 
L 142.912889 193.148941 
L 145.094196 187.743928 
L 147.266569 180.271553 
L 149.429234 178.020664 
L 151.582414 179.688589 
L 153.725334 170.505106 
L 155.857887 179.31614 
L 157.97996 180.446082 
L 160.091333 183.882691 
L 162.191675 185.187163 
L 164.280987 187.846487 
L 166.359158 188.469035 
L 168.426189 186.315307 
L 170.481636 184.456659 
L 174.558779 191.810283 
L 176.580142 194.874442 
L 178.590254 195.685914 
L 180.589004 199.826038 
L 182.576283 207.469344 
L 184.5522 208.403166 
L 186.516976 215.103654 
L 188.470612 218.426909 
L 190.412885 223.939878 
L 192.344018 225.471058 
L 194.26423 233.501208 
L 196.173522 236.335061 
L 198.072004 238.400625 
L 199.959676 241.437795 
L 201.836649 239.293063 
L 203.703032 242.162902 
L 205.558825 239.74648 
L 207.40425 237.119543 
L 209.239526 237.061966 
L 211.064434 230.132971 
L 212.879414 229.076798 
L 214.684246 225.665379 
L 216.479261 216.757185 
L 218.264569 212.17444 
L 220.04017 210.483124 
L 221.806174 214.621449 
L 223.562692 216.163425 
L 225.309723 208.51832 
L 227.047709 207.077103 
L 228.77643 202.922585 
L 230.496216 200.232673 
L 233.908983 203.158289 
L 235.602185 194.678322 
L 237.286673 207.037519 
L 238.962777 206.494139 
L 240.630388 207.811206 
L 242.289616 217.253784 
L 243.940571 209.117477 
L 245.583473 226.962654 
L 247.218213 204.626495 
L 248.8449 200.310042 
L 250.463976 197.137926 
L 252.07511 206.074909 
L 253.678412 204.932371 
L 255.274324 201.252861 
L 256.862625 199.682096 
L 258.443535 190.773902 
L 260.017165 196.301265 
L 261.583294 200.236272 
L 263.142474 195.342253 
L 264.694374 197.364634 
L 266.239434 195.306267 
L 267.777325 198.910209 
L 269.308487 197.450999 
L 270.83292 194.833059 
L 272.350514 203.179881 
L 273.861601 201.594722 
L 275.365958 199.682096 
L 276.863918 202.623906 
L 278.35548 201.677489 
L 279.840644 196.488389 
L 281.319632 203.295034 
L 282.792221 200.498966 
L 284.258743 200.876813 
L 285.719199 207.316406 
L 287.173588 201.765653 
L 288.62213 207.386578 
L 290.064606 207.337997 
L 292.93235 210.09988 
L 294.357508 212.374159 
L 295.77715 211.033702 
L 297.191167 213.390748 
L 298.599558 203.741253 
L 300.002654 216.213805 
L 301.400235 214.493701 
L 302.792411 211.469125 
L 304.179292 213.40874 
L 305.560989 216.627637 
L 306.937392 220.629218 
L 308.308609 219.072848 
L 309.674753 218.441303 
L 311.035933 226.33111 
L 312.391929 225.757142 
L 313.743071 227.408874 
L 315.089249 232.560188 
L 316.430684 235.532585 
L 317.767266 231.063194 
L 319.098994 231.120771 
L 320.425979 229.208145 
L 321.748331 237.283277 
L 323.066161 236.302674 
L 324.379358 236.369247 
L 325.687811 236.957609 
L 326.991853 238.429413 
L 328.291482 238.118139 
L 329.586698 241.310047 
L 330.877393 245.101112 
L 332.163895 240.962787 
L 333.446096 245.498751 
L 334.723884 251.688246 
L 335.997481 252.83978 
L 337.266886 248.768028 
L 338.5321 247.762235 
L 339.793232 249.297014 
L 341.050393 250.176858 
L 342.303362 255.481111 
L 343.552361 254.504106 
L 344.797388 255.803181 
L 346.038445 255.133852 
L 347.27553 256.141444 
L 348.508865 259.892925 
L 349.738339 261.954891 
L 350.963842 259.567257 
L 352.185705 258.214205 
L 353.403818 261.920704 
L 354.61818 266.544833 
L 355.828792 263.097428 
L 357.035764 267.541629 
L 359.438897 265.303335 
L 360.635059 265.938478 
L 361.827691 270.573402 
L 363.016903 267.955462 
L 364.202476 268.892882 
L 365.384629 270.607588 
L 366.563472 269.191562 
L 367.738786 270.848691 
L 368.910791 271.944447 
L 370.079376 274.983417 
L 371.244652 272.088389 
L 372.406619 273.554795 
L 373.565386 276.536189 
L 374.720845 277.955814 
L 375.873105 277.263094 
L 377.022055 276.865455 
L 378.167918 276.960817 
L 379.310581 280.964196 
L 380.450155 275.706724 
L 381.586641 277.576168 
L 382.720039 278.13934 
L 383.850458 277.527587 
L 384.977678 278.470406 
L 386.10181 278.193318 
L 387.223074 276.455221 
L 388.341359 277.15154 
L 389.456666 276.392247 
L 390.569105 278.173526 
L 391.678677 279.558965 
L 392.785159 274.868264 
L 394.989741 275.231717 
L 396.087731 276.964415 
L 397.183072 279.434815 
L 398.275436 269.277927 
L 399.365042 267.543429 
L 400.452 271.629575 
L 401.536201 275.023001 
L 402.617644 272.439247 
L 403.696329 272.613776 
L 404.772478 274.179143 
L 405.845869 276.077374 
L 406.916612 275.942429 
L 407.984819 268.52763 
L 409.050267 275.647348 
L 411.173664 277.939621 
L 412.231391 277.066974 
L 413.286692 269.186164 
L 415.389792 277.502398 
L 416.437481 273.166153 
L 417.482634 271.971436 
L 418.52558 273.018612 
L 419.565879 271.500027 
L 420.603751 271.050209 
L 421.639307 276.188929 
L 423.703138 274.58038 
L 424.731524 275.652746 
L 425.757593 275.206527 
L 426.781236 273.849876 
L 427.802562 274.202533 
L 428.821682 276.888846 
L 429.838375 274.031602 
L 430.852752 277.547379 
L 431.864923 276.762897 
L 432.874888 279.128939 
L 433.882536 273.265113 
L 434.887978 281.784664 
L 435.891214 275.235315 
L 436.892244 274.997811 
L 437.891178 274.943833 
L 438.887796 283.879017 
L 439.882317 273.41985 
L 440.874743 281.84404 
L 441.864853 285.392204 
L 442.852977 279.809064 
L 443.839005 279.42402 
L 444.822827 280.960598 
L 445.804664 287.004352 
L 446.784294 283.173702 
L 447.761939 287.315626 
L 448.737598 280.487389 
L 449.711052 283.682896 
L 450.68263 281.00378 
L 451.652112 280.568357 
L 452.619498 276.989605 
L 453.58512 278.106953 
L 454.548535 285.350821 
L 455.510075 275.312684 
L 456.46963 276.852861 
L 457.427199 286.630103 
L 458.382893 276.035991 
L 459.336602 275.830874 
L 460.288435 280.406422 
L 461.238282 282.506172 
L 462.186365 278.970603 
L 463.132352 285.766453 
L 464.076574 277.441222 
L 465.019032 278.123146 
L 465.959503 282.842636 
L 466.89821 276.851061 
L 467.834931 279.956604 
L 468.769998 279.81986 
L 469.702969 274.80349 
L 470.634395 280.78247 
L 471.563836 278.617946 
L 472.491623 280.456802 
L 475.264062 270.89907 
L 476.184789 279.728097 
L 477.10364 283.986973 
L 478.020837 279.605746 
L 478.936269 277.090364 
L 479.850047 278.720505 
L 480.761949 281.180109 
L 481.672307 273.920048 
L 482.580901 275.663542 
L 483.487839 277.903635 
L 484.393013 282.489979 
L 485.296642 285.043145 
L 486.198507 274.670344 
L 487.098827 279.483396 
L 488.894393 275.735513 
L 489.789639 280.694306 
L 490.683451 280.960598 
L 491.575388 275.850666 
L 492.466001 276.329272 
L 493.35485 276.966215 
L 494.242264 274.999611 
L 495.127803 284.175896 
L 496.012018 270.23334 
L 496.894579 279.024581 
L 497.775596 276.579371 
L 498.655068 282.164311 
L 499.532996 274.38246 
L 500.40927 281.469792 
L 501.284109 276.600962 
L 502.157514 266.661785 
L 503.029265 273.51881 
L 503.899582 275.839871 
L 504.768244 267.055826 
L 505.635583 281.42481 
L 506.501377 276.969813 
L 507.365627 277.498799 
L 508.228554 274.835877 
L 509.089825 270.675961 
L 509.949773 276.097166 
L 510.808177 282.547556 
L 511.665147 278.141139 
L 512.520683 281.023572 
L 513.374674 277.113755 
L 514.227452 267.572217 
L 515.078686 270.796512 
L 515.928486 270.97464 
L 516.776962 275.949626 
L 517.623894 271.769918 
L 518.469503 270.062409 
L 519.313677 271.737531 
L 520.156527 278.078165 
L 520.998054 277.896438 
L 521.838037 270.675961 
L 522.676806 276.233911 
L 523.514031 276.221316 
L 524.350043 269.608993 
L 525.184731 309.583412 
L 526.017874 290.676665 
L 526.849915 317.52 
L 527.680521 270.657968 
L 528.509694 279.933214 
L 529.337653 262.789753 
L 530.164289 297.994303 
L 530.989601 314.833687 
L 532.636364 251.762016 
L 532.636364 251.762016 
" clip-path="url(#pa9283d67a5)" style="fill: none; stroke: #000000; stroke-width: 2; stroke-linecap: square"/>
   </g>
  </g>
 </g>
 <defs>
  <clipPath id="pa9283d67a5">
   <rect x="0" y="-0" width="558" height="332.64"/>
  </clipPath>
 </defs>
</svg>
