<?xml version="1.0" encoding="utf-8" standalone="no"?>
<!DOCTYPE svg PUBLIC "-//W3C//DTD SVG 1.1//EN"
  "http://www.w3.org/Graphics/SVG/1.1/DTD/svg11.dtd">
<svg xmlns:xlink="http://www.w3.org/1999/xlink" width="558pt" height="332.64pt" viewBox="0 0 558 332.64" xmlns="http://www.w3.org/2000/svg" version="1.1">
 <metadata>
  <rdf:RDF xmlns:dc="http://purl.org/dc/elements/1.1/" xmlns:cc="http://creativecommons.org/ns#" xmlns:rdf="http://www.w3.org/1999/02/22-rdf-syntax-ns#">
   <cc:Work>
    <dc:type rdf:resource="http://purl.org/dc/dcmitype/StillImage"/>
    <dc:date>2025-07-22T23:46:21.803252</dc:date>
    <dc:format>image/svg+xml</dc:format>
    <dc:creator>
     <cc:Agent>
      <dc:title>Matplotlib v3.9.2, https://matplotlib.org/</dc:title>
     </cc:Agent>
    </dc:creator>
   </cc:Work>
  </rdf:RDF>
 </metadata>
 <defs>
  <style type="text/css">*{stroke-linejoin: round; stroke-linecap: butt}</style>
 </defs>
 <g id="figure_1">
  <g id="patch_1">
   <path d="M 0 332.64 
L 558 332.64 
L 558 0 
L 0 0 
L 0 332.64 
z
" style="fill: none"/>
  </g>
  <g id="axes_1">
   <g id="patch_2">
    <path d="M 0 332.64 
L 558 332.64 
L 558 -0 
L 0 -0 
L 0 332.64 
z
" style="fill: none"/>
   </g>
   <g id="matplotlib.axis_1">
    <g id="xtick_1"/>
    <g id="xtick_2"/>
    <g id="xtick_3"/>
    <g id="xtick_4"/>
    <g id="xtick_5"/>
   </g>
   <g id="matplotlib.axis_2">
    <g id="ytick_1"/>
    <g id="ytick_2"/>
    <g id="ytick_3"/>
    <g id="ytick_4"/>
    <g id="ytick_5"/>
    <g id="ytick_6"/>
   </g>
   <g id="line2d_1">
    <path d="M 25.363636 275.437986 
L 26.094967 254.211415 
L 26.843947 317.52 
L 27.611128 293.62792 
L 28.398384 258.723281 
L 29.206598 195.495364 
L 30.034337 182.181459 
L 30.884468 181.653348 
L 31.75688 180.140978 
L 33.571088 216.015659 
L 34.514318 197.744187 
L 35.483028 189.180668 
L 36.478432 171.536255 
L 37.499758 160.046363 
L 38.549323 158.29083 
L 39.628008 157.551185 
L 40.735704 156.326955 
L 41.873404 173.420333 
L 43.042099 159.665659 
L 44.242563 151.193254 
L 45.475787 143.6256 
L 46.742214 152.010665 
L 48.042726 140.909602 
L 49.377653 137.310614 
L 50.747437 135.194689 
L 52.154284 134.367702 
L 53.59687 132.49494 
L 55.075857 131.37285 
L 56.592569 127.010133 
L 58.145902 129.644303 
L 59.73696 126.952969 
L 61.365633 124.997799 
L 63.031148 124.120322 
L 64.733616 120.390177 
L 66.473147 115.887017 
L 68.248858 113.634132 
L 70.059977 110.313417 
L 71.905733 112.317337 
L 73.785132 111.435508 
L 75.697623 109.932133 
L 77.641662 108.600249 
L 79.615924 103.930822 
L 81.618866 104.691939 
L 83.649385 107.097745 
L 85.705715 106.650302 
L 87.785982 107.421576 
L 89.888972 104.478084 
L 92.012369 106.945696 
L 94.155179 107.761656 
L 96.314756 112.505077 
L 98.489887 114.230142 
L 100.678585 114.494198 
L 102.879196 121.852057 
L 105.090176 116.922637 
L 107.309649 119.320318 
L 109.536072 124.662361 
L 111.76801 115.586691 
L 114.004029 113.722634 
L 116.242586 126.101608 
L 118.482576 127.976401 
L 120.722677 127.093412 
L 122.961674 115.305225 
L 125.198576 122.302402 
L 127.432389 125.069471 
L 129.662121 122.454162 
L 131.887 122.146 
L 134.106142 119.669103 
L 136.318997 116.16326 
L 138.524683 114.998514 
L 140.722867 119.385896 
L 142.912889 123.082091 
L 145.094196 122.853727 
L 147.266569 129.336722 
L 149.429234 121.495147 
L 151.582414 121.422315 
L 153.725334 125.921122 
L 155.857887 113.638774 
L 157.97996 119.439868 
L 160.091333 113.457708 
L 162.191675 120.074181 
L 164.280987 114.793654 
L 166.359158 119.482813 
L 168.426189 116.086655 
L 170.481636 109.064522 
L 172.525833 107.077723 
L 174.558779 109.333221 
L 176.580142 102.556863 
L 178.590254 103.225707 
L 180.589004 102.236224 
L 182.576283 98.738506 
L 184.5522 96.052686 
L 186.516976 93.984639 
L 188.470612 90.087645 
L 190.412885 89.531388 
L 192.344018 87.033598 
L 194.26423 86.067039 
L 196.173522 81.939941 
L 198.072004 82.341537 
L 199.959676 77.550238 
L 201.836649 80.726447 
L 203.703032 81.228442 
L 205.558825 79.843747 
L 207.40425 77.317231 
L 209.239526 79.952561 
L 211.064434 72.679722 
L 212.879414 80.980056 
L 214.684246 82.631708 
L 216.479261 84.459203 
L 218.264569 87.321448 
L 220.04017 97.950402 
L 221.806174 92.95076 
L 223.562692 119.224271 
L 225.309723 111.729161 
L 227.047709 111.481065 
L 228.77643 105.803293 
L 230.496216 110.587919 
L 232.207067 106.020921 
L 233.908983 103.701587 
L 235.602185 92.563672 
L 237.286673 97.901363 
L 238.962777 89.655001 
L 240.630388 86.656376 
L 242.289616 92.416266 
L 243.940571 98.605608 
L 245.583473 97.171294 
L 247.218213 97.722328 
L 248.8449 92.165268 
L 250.463976 99.409671 
L 252.07511 95.605823 
L 253.678412 102.164842 
L 255.274324 107.17348 
L 256.862625 98.886203 
L 258.443535 98.0479 
L 260.017165 103.685047 
L 261.583294 103.544604 
L 263.142474 98.442242 
L 264.694374 101.15824 
L 266.239434 98.928858 
L 267.777325 86.681621 
L 269.308487 103.611053 
L 270.83292 96.000165 
L 272.350514 99.810687 
L 273.861601 99.856534 
L 275.365958 102.150914 
L 276.863918 95.190588 
L 278.35548 93.792255 
L 279.840644 99.993495 
L 281.319632 90.686558 
L 282.792221 94.998785 
L 284.258743 102.487512 
L 285.719199 89.423445 
L 287.173588 100.339378 
L 288.62213 93.472777 
L 290.064606 87.945315 
L 291.501346 88.085757 
L 292.93235 84.010019 
L 294.357508 96.039628 
L 295.77715 85.629752 
L 297.191167 82.769829 
L 298.599558 88.17571 
L 300.002654 88.057321 
L 301.400235 85.401968 
L 302.792411 75.308088 
L 304.179292 81.835189 
L 305.560989 80.814368 
L 306.937392 78.056586 
L 308.308609 73.821253 
L 309.674753 71.131951 
L 311.035933 74.273339 
L 312.391929 71.585778 
L 313.743071 70.597456 
L 315.089249 63.864914 
L 316.430684 71.634817 
L 317.767266 64.880512 
L 319.098994 62.775613 
L 320.425979 63.593024 
L 321.748331 65.092337 
L 323.066161 61.592297 
L 324.379358 58.62298 
L 325.687811 59.907275 
L 326.991853 59.989394 
L 328.291482 58.439592 
L 329.586698 56.26099 
L 330.877393 57.073468 
L 332.163895 53.686015 
L 333.446096 54.739915 
L 334.723884 57.343327 
L 335.997481 60.983229 
L 337.266886 52.434508 
L 338.5321 49.438785 
L 339.793232 55.094503 
L 341.050393 51.583727 
L 342.303362 55.115396 
L 343.552361 51.29965 
L 344.797388 48.701751 
L 346.038445 47.575309 
L 347.27553 49.164284 
L 348.508865 46.239072 
L 349.738339 47.263375 
L 350.963842 47.954562 
L 352.185705 49.275709 
L 353.403818 44.046542 
L 354.61818 40.113278 
L 355.828792 43.986767 
L 357.035764 45.000624 
L 358.239096 44.254304 
L 359.438897 41.97008 
L 360.635059 41.573707 
L 361.827691 40.408962 
L 363.016903 41.95325 
L 364.202476 42.370806 
L 365.384629 38.355133 
L 367.738786 39.264238 
L 368.910791 40.72989 
L 371.244652 39.03036 
L 372.406619 39.059087 
L 373.565386 44.04306 
L 374.720845 35.941202 
L 375.873105 37.473304 
L 377.022055 36.601341 
L 378.167918 39.47113 
L 379.310581 40.413604 
L 380.450155 38.759341 
L 381.586641 36.581029 
L 382.720039 37.065904 
L 383.850458 35.965287 
L 384.977678 35.453716 
L 386.10181 36.827964 
L 388.341359 36.547659 
L 389.456666 35.881717 
L 390.569105 35.763328 
L 391.678677 35.237829 
L 392.785159 35.22274 
L 393.888884 35.763328 
L 394.989741 35.746208 
L 396.087731 40.278385 
L 397.183072 33.802934 
L 398.275436 35.622595 
L 399.365042 36.059882 
L 400.452 35.549472 
L 401.536201 34.32263 
L 402.617644 37.639282 
L 403.696329 36.593506 
L 404.772478 36.632389 
L 405.845869 35.872432 
L 406.916612 38.157817 
L 407.984819 37.284983 
L 409.050267 35.538155 
L 410.113289 34.970581 
L 411.173664 31.575583 
L 412.231391 26.461324 
L 413.286692 36.169567 
L 414.339455 33.856906 
L 415.389792 34.970581 
L 416.437481 37.590533 
L 417.482634 36.78734 
L 418.52558 36.764707 
L 419.565879 33.687156 
L 420.603751 33.580373 
L 421.639307 35.748239 
L 422.672436 38.325536 
L 423.703138 32.698544 
L 424.731524 34.894847 
L 425.757593 38.068444 
L 426.781236 31.928431 
L 427.802562 38.583207 
L 428.821682 35.607216 
L 429.838375 31.402351 
L 430.852752 45.845891 
L 431.864923 31.878812 
L 432.874888 30.660095 
L 433.882536 30.863214 
L 434.887978 29.83688 
L 435.891214 34.400396 
L 436.892244 25.973837 
L 437.891178 32.014031 
L 439.882317 22.261683 
L 440.874743 23.503323 
L 441.864853 27.858786 
L 442.852977 28.988131 
L 443.839005 36.636161 
L 444.822827 38.683606 
L 446.784294 37.326478 
L 447.761939 21.206041 
L 448.737598 21.256821 
L 449.711052 33.917552 
L 450.68263 29.61577 
L 451.652112 32.388352 
L 452.619498 30.228321 
L 453.58512 20.98232 
L 454.548535 19.364037 
L 455.510075 16.152428 
L 457.427199 32.309715 
L 458.382893 32.804457 
L 459.336602 27.868652 
L 460.288435 32.416498 
L 461.238282 20.033752 
L 462.186365 32.652697 
L 463.132352 29.953529 
L 464.076574 30.827233 
L 465.019032 32.228177 
L 465.959503 35.865178 
L 466.89821 34.258212 
L 467.834931 29.73387 
L 468.769998 28.479171 
L 469.702969 27.635645 
L 470.634395 23.779566 
L 471.563836 28.431293 
L 472.491623 29.975582 
L 473.417534 37.055748 
L 474.34168 27.808587 
L 475.264062 21.998498 
L 476.184789 35.425859 
L 477.10364 31.135104 
L 478.020837 33.47359 
L 478.936269 26.19959 
L 479.850047 23.794945 
L 480.761949 31.355634 
L 481.672307 28.753673 
L 482.580901 33.318929 
L 483.487839 36.094122 
L 484.393013 30.543736 
L 485.296642 33.534816 
L 486.198507 28.628319 
L 487.098827 30.19379 
L 487.997382 35.707905 
L 488.894393 32.539821 
L 489.789639 33.905945 
L 490.683451 21.658418 
L 491.575388 30.07424 
L 492.466001 29.950047 
L 493.35485 21.436437 
L 494.242264 25.598356 
L 495.127803 34.006634 
L 496.012018 23.941771 
L 496.894579 40.319879 
L 497.775596 31.67192 
L 498.655068 28.489617 
L 499.532996 38.127639 
L 500.40927 31.479537 
L 501.284109 33.632314 
L 502.157514 38.407073 
L 503.029265 34.796479 
L 503.899582 37.89173 
L 504.768244 35.315594 
L 505.635583 33.826728 
L 506.501377 43.378279 
L 507.365627 34.216137 
L 508.228554 34.227744 
L 509.089825 37.029053 
L 509.949773 29.494189 
L 510.808177 31.105507 
L 511.665147 30.816207 
L 512.520683 23.647828 
L 513.374674 27.618235 
L 514.227452 26.614824 
L 515.078686 24.82331 
L 515.928486 33.899561 
L 516.776962 26.948811 
L 517.623894 36.946644 
L 518.469503 36.891512 
L 519.313677 27.873005 
L 520.156527 29.2931 
L 520.998054 28.090923 
L 521.838037 23.036438 
L 522.676806 28.365424 
L 523.514031 41.013387 
L 524.350043 90.3842 
L 525.184731 27.52567 
L 526.017874 15.12 
L 526.849915 17.508976 
L 527.680521 51.848653 
L 528.509694 19.62287 
L 529.337653 55.108141 
L 530.164289 40.800112 
L 530.989601 28.512831 
L 531.813699 34.181607 
L 532.636364 34.514143 
L 532.636364 34.514143 
" clip-path="url(#pe8fcd82470)" style="fill: none; stroke: #000000; stroke-width: 2; stroke-linecap: square"/>
   </g>
  </g>
 </g>
 <defs>
  <clipPath id="pe8fcd82470">
   <rect x="0" y="-0" width="558" height="332.64"/>
  </clipPath>
 </defs>
</svg>
