<?xml version="1.0" encoding="utf-8" standalone="no"?>
<!DOCTYPE svg PUBLIC "-//W3C//DTD SVG 1.1//EN"
  "http://www.w3.org/Graphics/SVG/1.1/DTD/svg11.dtd">
<svg xmlns:xlink="http://www.w3.org/1999/xlink" width="576pt" height="288pt" viewBox="0 0 576 288" xmlns="http://www.w3.org/2000/svg" version="1.1">
 <metadata>
  <rdf:RDF xmlns:dc="http://purl.org/dc/elements/1.1/" xmlns:cc="http://creativecommons.org/ns#" xmlns:rdf="http://www.w3.org/1999/02/22-rdf-syntax-ns#">
   <cc:Work>
    <dc:type rdf:resource="http://purl.org/dc/dcmitype/StillImage"/>
    <dc:date>2025-08-13T23:10:09.498839</dc:date>
    <dc:format>image/svg+xml</dc:format>
    <dc:creator>
     <cc:Agent>
      <dc:title>Matplotlib v3.5.2, https://matplotlib.org/</dc:title>
     </cc:Agent>
    </dc:creator>
   </cc:Work>
  </rdf:RDF>
 </metadata>
 <defs>
  <style type="text/css">*{stroke-linejoin: round; stroke-linecap: butt}</style>
 </defs>
 <g id="figure_1">
  <g id="patch_1">
   <path d="M 0 288 
L 576 288 
L 576 0 
L 0 0 
z
" style="fill: #ffffff"/>
  </g>
  <g id="axes_1">
   <g id="patch_2">
    <path d="M 72 256.32 
L 518.4 256.32 
L 518.4 34.56 
L 72 34.56 
z
" style="fill: #ffffff"/>
   </g>
   <g id="matplotlib.axis_1">
    <g id="xtick_1">
     <g id="line2d_1">
      <defs>
       <path id="m4bcda829a8" d="M 0 0 
L 0 3.5 
" style="stroke: #000000; stroke-width: 0.8"/>
      </defs>
      <g>
       <use xlink:href="#m4bcda829a8" x="127.579447" y="256.32" style="stroke: #000000; stroke-width: 0.8"/>
      </g>
     </g>
     <g id="text_1">
      <!-- 1 -->
      <g transform="translate(124.398197 270.918437)scale(0.1 -0.1)">
       <defs>
        <path id="DejaVuSerif-31" d="M 909 0 
L 909 331 
L 1722 331 
L 1722 4213 
L 781 3603 
L 781 4013 
L 1919 4750 
L 2350 4750 
L 2350 331 
L 3163 331 
L 3163 0 
L 909 0 
z
" transform="scale(0.015625)"/>
       </defs>
       <use xlink:href="#DejaVuSerif-31"/>
      </g>
     </g>
    </g>
    <g id="xtick_2">
     <g id="line2d_2">
      <g>
       <use xlink:href="#m4bcda829a8" x="215.800791" y="256.32" style="stroke: #000000; stroke-width: 0.8"/>
      </g>
     </g>
     <g id="text_2">
      <!-- 2 -->
      <g transform="translate(212.619541 270.918437)scale(0.1 -0.1)">
       <defs>
        <path id="DejaVuSerif-32" d="M 819 3553 
L 469 3553 
L 469 4384 
Q 803 4563 1142 4656 
Q 1481 4750 1806 4750 
Q 2534 4750 2956 4397 
Q 3378 4044 3378 3438 
Q 3378 2753 2422 1800 
Q 2347 1728 2309 1691 
L 1131 513 
L 3078 513 
L 3078 1088 
L 3444 1088 
L 3444 0 
L 434 0 
L 434 341 
L 1850 1753 
Q 2319 2222 2519 2614 
Q 2719 3006 2719 3438 
Q 2719 3909 2473 4175 
Q 2228 4441 1797 4441 
Q 1350 4441 1106 4219 
Q 863 3997 819 3553 
z
" transform="scale(0.015625)"/>
       </defs>
       <use xlink:href="#DejaVuSerif-32"/>
      </g>
     </g>
    </g>
    <g id="xtick_3">
     <g id="line2d_3">
      <g>
       <use xlink:href="#m4bcda829a8" x="304.022134" y="256.32" style="stroke: #000000; stroke-width: 0.8"/>
      </g>
     </g>
     <g id="text_3">
      <!-- 3 -->
      <g transform="translate(300.840884 270.918437)scale(0.1 -0.1)">
       <defs>
        <path id="DejaVuSerif-33" d="M 622 4469 
Q 988 4606 1323 4678 
Q 1659 4750 1953 4750 
Q 2638 4750 3022 4454 
Q 3406 4159 3406 3634 
Q 3406 3213 3140 2930 
Q 2875 2647 2388 2547 
Q 2963 2466 3280 2130 
Q 3597 1794 3597 1259 
Q 3597 606 3158 257 
Q 2719 -91 1894 -91 
Q 1528 -91 1179 -12 
Q 831 66 488 225 
L 488 1131 
L 838 1131 
Q 869 681 1141 450 
Q 1413 219 1906 219 
Q 2384 219 2661 495 
Q 2938 772 2938 1253 
Q 2938 1803 2653 2086 
Q 2369 2369 1819 2369 
L 1522 2369 
L 1522 2688 
L 1678 2688 
Q 2225 2688 2498 2914 
Q 2772 3141 2772 3597 
Q 2772 4006 2547 4223 
Q 2322 4441 1900 4441 
Q 1478 4441 1245 4241 
Q 1013 4041 972 3647 
L 622 3647 
L 622 4469 
z
" transform="scale(0.015625)"/>
       </defs>
       <use xlink:href="#DejaVuSerif-33"/>
      </g>
     </g>
    </g>
    <g id="xtick_4">
     <g id="line2d_4">
      <g>
       <use xlink:href="#m4bcda829a8" x="392.243478" y="256.32" style="stroke: #000000; stroke-width: 0.8"/>
      </g>
     </g>
     <g id="text_4">
      <!-- 4 -->
      <g transform="translate(389.062228 270.918437)scale(0.1 -0.1)">
       <defs>
        <path id="DejaVuSerif-34" d="M 2234 1581 
L 2234 4063 
L 641 1581 
L 2234 1581 
z
M 3609 0 
L 1484 0 
L 1484 331 
L 2234 331 
L 2234 1247 
L 197 1247 
L 197 1588 
L 2241 4750 
L 2859 4750 
L 2859 1581 
L 3750 1581 
L 3750 1247 
L 2859 1247 
L 2859 331 
L 3609 331 
L 3609 0 
z
" transform="scale(0.015625)"/>
       </defs>
       <use xlink:href="#DejaVuSerif-34"/>
      </g>
     </g>
    </g>
    <g id="xtick_5">
     <g id="line2d_5">
      <g>
       <use xlink:href="#m4bcda829a8" x="480.464822" y="256.32" style="stroke: #000000; stroke-width: 0.8"/>
      </g>
     </g>
     <g id="text_5">
      <!-- 5 -->
      <g transform="translate(477.283572 270.918437)scale(0.1 -0.1)">
       <defs>
        <path id="DejaVuSerif-35" d="M 3219 4666 
L 3219 4153 
L 1081 4153 
L 1081 2816 
Q 1244 2928 1461 2984 
Q 1678 3041 1947 3041 
Q 2703 3041 3140 2622 
Q 3578 2203 3578 1478 
Q 3578 738 3136 323 
Q 2694 -91 1894 -91 
Q 1572 -91 1234 -12 
Q 897 66 544 225 
L 544 1131 
L 897 1131 
Q 925 688 1179 453 
Q 1434 219 1894 219 
Q 2388 219 2653 544 
Q 2919 869 2919 1478 
Q 2919 2084 2655 2407 
Q 2391 2731 1894 2731 
Q 1613 2731 1398 2631 
Q 1184 2531 1019 2322 
L 750 2322 
L 750 4666 
L 3219 4666 
z
" transform="scale(0.015625)"/>
       </defs>
       <use xlink:href="#DejaVuSerif-35"/>
      </g>
     </g>
    </g>
    <g id="text_6">
     <!-- Wavelength [$\mu$m] -->
     <g transform="translate(239.3 286.878125)scale(0.13 -0.13)">
      <defs>
       <path id="DejaVuSerif-57" d="M 4878 0 
L 4366 0 
L 3297 3794 
L 2228 0 
L 1716 0 
L 494 4331 
L 31 4331 
L 31 4666 
L 1734 4666 
L 1734 4331 
L 1153 4331 
L 2125 884 
L 3188 4666 
L 3694 4666 
L 4775 844 
L 5753 4331 
L 5216 4331 
L 5216 4666 
L 6559 4666 
L 6559 4331 
L 6100 4331 
L 4878 0 
z
" transform="scale(0.015625)"/>
       <path id="DejaVuSerif-61" d="M 2547 1044 
L 2547 1747 
L 1806 1747 
Q 1378 1747 1168 1562 
Q 959 1378 959 997 
Q 959 650 1171 447 
Q 1384 244 1747 244 
Q 2106 244 2326 466 
Q 2547 688 2547 1044 
z
M 3122 2075 
L 3122 331 
L 3634 331 
L 3634 0 
L 2547 0 
L 2547 359 
Q 2356 128 2106 18 
Q 1856 -91 1522 -91 
Q 969 -91 644 203 
Q 319 497 319 997 
Q 319 1513 691 1797 
Q 1063 2081 1741 2081 
L 2547 2081 
L 2547 2309 
Q 2547 2688 2317 2895 
Q 2088 3103 1672 3103 
Q 1328 3103 1125 2947 
Q 922 2791 872 2484 
L 575 2484 
L 575 3156 
Q 875 3284 1158 3348 
Q 1441 3413 1709 3413 
Q 2400 3413 2761 3070 
Q 3122 2728 3122 2075 
z
" transform="scale(0.015625)"/>
       <path id="DejaVuSerif-76" d="M 1581 0 
L 359 2988 
L -19 2988 
L -19 3322 
L 1509 3322 
L 1509 2988 
L 978 2988 
L 1913 703 
L 2847 2988 
L 2350 2988 
L 2350 3322 
L 3597 3322 
L 3597 2988 
L 3225 2988 
L 2003 0 
L 1581 0 
z
" transform="scale(0.015625)"/>
       <path id="DejaVuSerif-65" d="M 3469 1600 
L 991 1600 
L 991 1575 
Q 991 903 1244 561 
Q 1497 219 1991 219 
Q 2369 219 2611 417 
Q 2853 616 2950 1006 
L 3413 1006 
Q 3275 459 2904 184 
Q 2534 -91 1931 -91 
Q 1203 -91 761 389 
Q 319 869 319 1663 
Q 319 2450 753 2931 
Q 1188 3413 1894 3413 
Q 2647 3413 3050 2948 
Q 3453 2484 3469 1600 
z
M 2791 1931 
Q 2772 2513 2545 2808 
Q 2319 3103 1894 3103 
Q 1497 3103 1269 2806 
Q 1041 2509 991 1931 
L 2791 1931 
z
" transform="scale(0.015625)"/>
       <path id="DejaVuSerif-6c" d="M 1313 331 
L 1856 331 
L 1856 0 
L 184 0 
L 184 331 
L 738 331 
L 738 4531 
L 184 4531 
L 184 4863 
L 1313 4863 
L 1313 331 
z
" transform="scale(0.015625)"/>
       <path id="DejaVuSerif-6e" d="M 263 0 
L 263 331 
L 781 331 
L 781 2988 
L 231 2988 
L 231 3322 
L 1356 3322 
L 1356 2731 
Q 1516 3069 1770 3241 
Q 2025 3413 2363 3413 
Q 2913 3413 3172 3097 
Q 3431 2781 3431 2113 
L 3431 331 
L 3944 331 
L 3944 0 
L 2356 0 
L 2356 331 
L 2853 331 
L 2853 1931 
Q 2853 2541 2703 2767 
Q 2553 2994 2175 2994 
Q 1775 2994 1565 2701 
Q 1356 2409 1356 1850 
L 1356 331 
L 1856 331 
L 1856 0 
L 263 0 
z
" transform="scale(0.015625)"/>
       <path id="DejaVuSerif-67" d="M 3359 2988 
L 3359 72 
Q 3359 -644 2965 -1033 
Q 2572 -1422 1844 -1422 
Q 1516 -1422 1216 -1362 
Q 916 -1303 641 -1184 
L 641 -488 
L 941 -488 
Q 997 -813 1206 -963 
Q 1416 -1113 1806 -1113 
Q 2313 -1113 2548 -827 
Q 2784 -541 2784 72 
L 2784 519 
Q 2616 206 2355 57 
Q 2094 -91 1709 -91 
Q 1097 -91 708 395 
Q 319 881 319 1663 
Q 319 2444 706 2928 
Q 1094 3413 1709 3413 
Q 2094 3413 2355 3264 
Q 2616 3116 2784 2803 
L 2784 3322 
L 3909 3322 
L 3909 2988 
L 3359 2988 
z
M 2784 1825 
Q 2784 2422 2554 2737 
Q 2325 3053 1888 3053 
Q 1444 3053 1217 2703 
Q 991 2353 991 1663 
Q 991 975 1217 622 
Q 1444 269 1888 269 
Q 2325 269 2554 583 
Q 2784 897 2784 1497 
L 2784 1825 
z
" transform="scale(0.015625)"/>
       <path id="DejaVuSerif-74" d="M 691 2988 
L 184 2988 
L 184 3322 
L 691 3322 
L 691 4353 
L 1269 4353 
L 1269 3322 
L 2350 3322 
L 2350 2988 
L 1269 2988 
L 1269 878 
Q 1269 456 1350 337 
Q 1431 219 1650 219 
Q 1875 219 1978 351 
Q 2081 484 2088 781 
L 2522 781 
Q 2497 328 2275 118 
Q 2053 -91 1600 -91 
Q 1103 -91 897 129 
Q 691 350 691 878 
L 691 2988 
z
" transform="scale(0.015625)"/>
       <path id="DejaVuSerif-68" d="M 263 0 
L 263 331 
L 781 331 
L 781 4531 
L 231 4531 
L 231 4863 
L 1356 4863 
L 1356 2731 
Q 1516 3069 1770 3241 
Q 2025 3413 2363 3413 
Q 2913 3413 3172 3097 
Q 3431 2781 3431 2113 
L 3431 331 
L 3944 331 
L 3944 0 
L 2356 0 
L 2356 331 
L 2853 331 
L 2853 1931 
Q 2853 2541 2704 2764 
Q 2556 2988 2175 2988 
Q 1775 2988 1565 2697 
Q 1356 2406 1356 1850 
L 1356 331 
L 1856 331 
L 1856 0 
L 263 0 
z
" transform="scale(0.015625)"/>
       <path id="DejaVuSerif-20" transform="scale(0.015625)"/>
       <path id="DejaVuSerif-5b" d="M 550 4863 
L 2003 4863 
L 2003 4531 
L 1147 4531 
L 1147 -513 
L 2003 -513 
L 2003 -844 
L 550 -844 
L 550 4863 
z
" transform="scale(0.015625)"/>
       <path id="STIXGeneral-Italic-3bc" d="M 3002 749 
L 3091 691 
Q 2797 237 2614 83 
Q 2432 -70 2214 -70 
Q 2080 -70 1990 6 
Q 1901 83 1901 218 
Q 1901 416 1997 704 
L 2208 1370 
L 2202 1370 
Q 1766 595 1475 268 
Q 1184 -58 902 -58 
Q 723 -58 672 122 
Q 614 -109 547 -374 
Q 480 -640 451 -758 
Q 422 -877 384 -1005 
Q 346 -1133 314 -1197 
Q 282 -1261 243 -1312 
L -211 -1312 
Q -58 -1088 70 -595 
L 909 2739 
L 1389 2739 
L 909 832 
Q 883 717 883 659 
Q 883 352 1139 352 
Q 1395 352 1811 969 
Q 2227 1587 2323 1958 
L 2534 2739 
L 3027 2739 
L 2522 819 
Q 2400 333 2400 326 
Q 2400 230 2470 230 
Q 2547 230 2652 329 
Q 2758 429 3002 749 
z
" transform="scale(0.015625)"/>
       <path id="DejaVuSerif-6d" d="M 3316 2675 
Q 3481 3041 3739 3227 
Q 3997 3413 4341 3413 
Q 4863 3413 5119 3089 
Q 5375 2766 5375 2113 
L 5375 331 
L 5894 331 
L 5894 0 
L 4300 0 
L 4300 331 
L 4800 331 
L 4800 2047 
Q 4800 2556 4650 2772 
Q 4500 2988 4153 2988 
Q 3769 2988 3567 2697 
Q 3366 2406 3366 1850 
L 3366 331 
L 3866 331 
L 3866 0 
L 2291 0 
L 2291 331 
L 2791 331 
L 2791 2069 
Q 2791 2566 2641 2777 
Q 2491 2988 2144 2988 
Q 1759 2988 1557 2697 
Q 1356 2406 1356 1850 
L 1356 331 
L 1856 331 
L 1856 0 
L 263 0 
L 263 331 
L 781 331 
L 781 2994 
L 231 2994 
L 231 3322 
L 1356 3322 
L 1356 2731 
Q 1516 3063 1762 3238 
Q 2009 3413 2322 3413 
Q 2709 3413 2968 3220 
Q 3228 3028 3316 2675 
z
" transform="scale(0.015625)"/>
       <path id="DejaVuSerif-5d" d="M 1947 4863 
L 1947 -844 
L 494 -844 
L 494 -513 
L 1350 -513 
L 1350 4531 
L 494 4531 
L 494 4863 
L 1947 4863 
z
" transform="scale(0.015625)"/>
      </defs>
      <use xlink:href="#DejaVuSerif-57" transform="translate(0 0.015625)"/>
      <use xlink:href="#DejaVuSerif-61" transform="translate(102.783203 0.015625)"/>
      <use xlink:href="#DejaVuSerif-76" transform="translate(162.402344 0.015625)"/>
      <use xlink:href="#DejaVuSerif-65" transform="translate(218.896484 0.015625)"/>
      <use xlink:href="#DejaVuSerif-6c" transform="translate(278.076172 0.015625)"/>
      <use xlink:href="#DejaVuSerif-65" transform="translate(310.058594 0.015625)"/>
      <use xlink:href="#DejaVuSerif-6e" transform="translate(369.238281 0.015625)"/>
      <use xlink:href="#DejaVuSerif-67" transform="translate(433.642578 0.015625)"/>
      <use xlink:href="#DejaVuSerif-74" transform="translate(497.65625 0.015625)"/>
      <use xlink:href="#DejaVuSerif-68" transform="translate(537.841797 0.015625)"/>
      <use xlink:href="#DejaVuSerif-20" transform="translate(602.246094 0.015625)"/>
      <use xlink:href="#DejaVuSerif-5b" transform="translate(634.033203 0.015625)"/>
      <use xlink:href="#STIXGeneral-Italic-3bc" transform="translate(673.046875 0.015625)"/>
      <use xlink:href="#DejaVuSerif-6d" transform="translate(725.646866 0.015625)"/>
      <use xlink:href="#DejaVuSerif-5d" transform="translate(820.471085 0.015625)"/>
     </g>
    </g>
   </g>
   <g id="matplotlib.axis_2">
    <g id="ytick_1">
     <g id="line2d_6">
      <defs>
       <path id="mc03c275410" d="M 0 0 
L -3.5 0 
" style="stroke: #000000; stroke-width: 0.8"/>
      </defs>
      <g>
       <use xlink:href="#mc03c275410" x="72" y="248.298836" style="stroke: #000000; stroke-width: 0.8"/>
      </g>
     </g>
     <g id="text_7">
      <!-- 0.0 -->
      <g transform="translate(49.096875 252.098055)scale(0.1 -0.1)">
       <defs>
        <path id="DejaVuSerif-30" d="M 2034 219 
Q 2513 219 2750 744 
Q 2988 1269 2988 2328 
Q 2988 3391 2750 3916 
Q 2513 4441 2034 4441 
Q 1556 4441 1318 3916 
Q 1081 3391 1081 2328 
Q 1081 1269 1318 744 
Q 1556 219 2034 219 
z
M 2034 -91 
Q 1275 -91 848 546 
Q 422 1184 422 2328 
Q 422 3475 848 4112 
Q 1275 4750 2034 4750 
Q 2797 4750 3222 4112 
Q 3647 3475 3647 2328 
Q 3647 1184 3222 546 
Q 2797 -91 2034 -91 
z
" transform="scale(0.015625)"/>
        <path id="DejaVuSerif-2e" d="M 603 325 
Q 603 500 722 622 
Q 841 744 1019 744 
Q 1191 744 1312 622 
Q 1434 500 1434 325 
Q 1434 153 1312 31 
Q 1191 -91 1019 -91 
Q 841 -91 722 29 
Q 603 150 603 325 
z
" transform="scale(0.015625)"/>
       </defs>
       <use xlink:href="#DejaVuSerif-30"/>
       <use xlink:href="#DejaVuSerif-2e" x="63.623047"/>
       <use xlink:href="#DejaVuSerif-30" x="95.410156"/>
      </g>
     </g>
    </g>
    <g id="ytick_2">
     <g id="line2d_7">
      <g>
       <use xlink:href="#mc03c275410" x="72" y="206.275269" style="stroke: #000000; stroke-width: 0.8"/>
      </g>
     </g>
     <g id="text_8">
      <!-- 0.5 -->
      <g transform="translate(49.096875 210.074488)scale(0.1 -0.1)">
       <use xlink:href="#DejaVuSerif-30"/>
       <use xlink:href="#DejaVuSerif-2e" x="63.623047"/>
       <use xlink:href="#DejaVuSerif-35" x="95.410156"/>
      </g>
     </g>
    </g>
    <g id="ytick_3">
     <g id="line2d_8">
      <g>
       <use xlink:href="#mc03c275410" x="72" y="164.251702" style="stroke: #000000; stroke-width: 0.8"/>
      </g>
     </g>
     <g id="text_9">
      <!-- 1.0 -->
      <g transform="translate(49.096875 168.05092)scale(0.1 -0.1)">
       <use xlink:href="#DejaVuSerif-31"/>
       <use xlink:href="#DejaVuSerif-2e" x="63.623047"/>
       <use xlink:href="#DejaVuSerif-30" x="95.410156"/>
      </g>
     </g>
    </g>
    <g id="ytick_4">
     <g id="line2d_9">
      <g>
       <use xlink:href="#mc03c275410" x="72" y="122.228134" style="stroke: #000000; stroke-width: 0.8"/>
      </g>
     </g>
     <g id="text_10">
      <!-- 1.5 -->
      <g transform="translate(49.096875 126.027353)scale(0.1 -0.1)">
       <use xlink:href="#DejaVuSerif-31"/>
       <use xlink:href="#DejaVuSerif-2e" x="63.623047"/>
       <use xlink:href="#DejaVuSerif-35" x="95.410156"/>
      </g>
     </g>
    </g>
    <g id="ytick_5">
     <g id="line2d_10">
      <g>
       <use xlink:href="#mc03c275410" x="72" y="80.204567" style="stroke: #000000; stroke-width: 0.8"/>
      </g>
     </g>
     <g id="text_11">
      <!-- 2.0 -->
      <g transform="translate(49.096875 84.003786)scale(0.1 -0.1)">
       <use xlink:href="#DejaVuSerif-32"/>
       <use xlink:href="#DejaVuSerif-2e" x="63.623047"/>
       <use xlink:href="#DejaVuSerif-30" x="95.410156"/>
      </g>
     </g>
    </g>
    <g id="ytick_6">
     <g id="line2d_11">
      <g>
       <use xlink:href="#mc03c275410" x="72" y="38.181" style="stroke: #000000; stroke-width: 0.8"/>
      </g>
     </g>
     <g id="text_12">
      <!-- 2.5 -->
      <g transform="translate(49.096875 41.980219)scale(0.1 -0.1)">
       <use xlink:href="#DejaVuSerif-32"/>
       <use xlink:href="#DejaVuSerif-2e" x="63.623047"/>
       <use xlink:href="#DejaVuSerif-35" x="95.410156"/>
      </g>
     </g>
    </g>
    <g id="text_13">
     <!-- Flux $F_\lambda$ [$10^{12}$ W m$^{-2}$ m$^{-1}$] -->
     <g transform="translate(42.393281 223.635)rotate(-90)scale(0.13 -0.13)">
      <defs>
       <path id="DejaVuSerif-46" d="M 353 0 
L 353 331 
L 947 331 
L 947 4331 
L 353 4331 
L 353 4666 
L 4172 4666 
L 4172 3628 
L 3788 3628 
L 3788 4281 
L 1581 4281 
L 1581 2719 
L 3175 2719 
L 3175 3303 
L 3559 3303 
L 3559 1753 
L 3175 1753 
L 3175 2338 
L 1581 2338 
L 1581 331 
L 2328 331 
L 2328 0 
L 353 0 
z
" transform="scale(0.015625)"/>
       <path id="DejaVuSerif-75" d="M 2266 3322 
L 3341 3322 
L 3341 331 
L 3884 331 
L 3884 0 
L 2766 0 
L 2766 588 
Q 2606 256 2353 82 
Q 2100 -91 1766 -91 
Q 1213 -91 952 223 
Q 691 538 691 1209 
L 691 2988 
L 172 2988 
L 172 3322 
L 1269 3322 
L 1269 1388 
Q 1269 781 1417 556 
Q 1566 331 1947 331 
Q 2347 331 2556 625 
Q 2766 919 2766 1478 
L 2766 2988 
L 2266 2988 
L 2266 3322 
z
" transform="scale(0.015625)"/>
       <path id="DejaVuSerif-78" d="M 1863 2028 
L 2559 2988 
L 2113 2988 
L 2113 3322 
L 3391 3322 
L 3391 2988 
L 2950 2988 
L 2059 1759 
L 3097 331 
L 3531 331 
L 3531 0 
L 1997 0 
L 1997 331 
L 2419 331 
L 1697 1325 
L 972 331 
L 1403 331 
L 1403 0 
L 141 0 
L 141 331 
L 581 331 
L 1497 1594 
L 488 2988 
L 78 2988 
L 78 3322 
L 1563 3322 
L 1563 2988 
L 1166 2988 
L 1863 2028 
z
" transform="scale(0.015625)"/>
       <path id="STIXGeneral-Italic-46" d="M 4128 4179 
L 3923 3194 
L 3789 3206 
Q 3808 3347 3808 3418 
Q 3808 3667 3718 3772 
Q 3629 3878 3373 3923 
Q 3117 3968 2534 3968 
Q 2310 3968 2220 3926 
Q 2131 3885 2099 3763 
L 1690 2310 
Q 2003 2317 2147 2317 
Q 2291 2317 2457 2345 
Q 2624 2374 2678 2396 
Q 2733 2419 2822 2505 
Q 2912 2592 2950 2665 
Q 2989 2739 3072 2912 
L 3187 2880 
L 2701 1376 
L 2592 1408 
Q 2643 1670 2643 1798 
Q 2643 1978 2531 2029 
Q 2419 2080 2163 2080 
Q 1984 2080 1632 2099 
L 1254 736 
Q 1165 416 1165 352 
Q 1165 237 1273 179 
Q 1382 122 1658 102 
L 1658 0 
L 51 0 
L 51 102 
Q 314 122 410 224 
Q 506 326 582 602 
L 1370 3430 
Q 1434 3661 1434 3821 
Q 1434 3955 1347 4003 
Q 1261 4051 947 4077 
L 947 4179 
L 4128 4179 
z
" transform="scale(0.015625)"/>
       <path id="STIXGeneral-Italic-3bb" d="M 2656 787 
L 2758 787 
Q 2560 -102 2112 -102 
Q 1965 -102 1869 48 
Q 1773 198 1773 499 
Q 1773 672 1789 889 
Q 1805 1107 1833 1446 
Q 1862 1786 1875 2016 
L 538 0 
L -77 0 
L 1907 2739 
Q 1933 2970 1933 3245 
Q 1933 3936 1619 3936 
Q 1530 3936 1408 3821 
Q 1286 3706 1203 3462 
L 1101 3462 
Q 1312 4339 1747 4339 
Q 1926 4339 2041 4115 
Q 2157 3891 2157 3475 
Q 2157 3040 2093 2192 
Q 2029 1344 2029 941 
Q 2029 602 2089 451 
Q 2150 301 2291 301 
Q 2483 301 2656 787 
z
" transform="scale(0.015625)"/>
       <path id="STIXGeneral-Regular-31" d="M 2522 0 
L 755 0 
L 755 96 
Q 1107 115 1235 227 
Q 1363 339 1363 608 
L 1363 3482 
Q 1363 3795 1171 3795 
Q 1082 3795 883 3718 
L 710 3654 
L 710 3744 
L 1856 4326 
L 1914 4307 
L 1914 486 
Q 1914 275 2042 185 
Q 2170 96 2522 96 
L 2522 0 
z
" transform="scale(0.015625)"/>
       <path id="STIXGeneral-Regular-30" d="M 3046 2112 
Q 3046 1683 2963 1302 
Q 2880 922 2717 602 
Q 2554 282 2266 96 
Q 1978 -90 1600 -90 
Q 1210 -90 915 108 
Q 621 307 461 640 
Q 301 973 227 1350 
Q 154 1728 154 2150 
Q 154 2746 301 3222 
Q 448 3699 790 4012 
Q 1133 4326 1626 4326 
Q 2253 4326 2649 3712 
Q 3046 3098 3046 2112 
z
M 2432 2080 
Q 2432 3091 2217 3625 
Q 2003 4160 1587 4160 
Q 1190 4160 979 3622 
Q 768 3085 768 2106 
Q 768 1120 979 598 
Q 1190 77 1600 77 
Q 2003 77 2217 598 
Q 2432 1120 2432 2080 
z
" transform="scale(0.015625)"/>
       <path id="STIXGeneral-Regular-32" d="M 3034 877 
L 2688 0 
L 186 0 
L 186 77 
L 1325 1286 
Q 1773 1754 1965 2144 
Q 2157 2534 2157 2950 
Q 2157 3379 1920 3616 
Q 1683 3853 1267 3853 
Q 922 3853 720 3673 
Q 518 3494 326 3021 
L 192 3053 
Q 301 3648 630 3987 
Q 960 4326 1523 4326 
Q 2054 4326 2380 4006 
Q 2707 3686 2707 3200 
Q 2707 2477 1888 1613 
L 832 486 
L 2330 486 
Q 2541 486 2665 569 
Q 2790 653 2944 915 
L 3034 877 
z
" transform="scale(0.015625)"/>
       <path id="STIXGeneral-Regular-2212" d="M 3974 1408 
L 410 1408 
L 410 1830 
L 3974 1830 
L 3974 1408 
z
" transform="scale(0.015625)"/>
      </defs>
      <use xlink:href="#DejaVuSerif-46" transform="translate(0 0.409375)"/>
      <use xlink:href="#DejaVuSerif-6c" transform="translate(69.384766 0.409375)"/>
      <use xlink:href="#DejaVuSerif-75" transform="translate(101.367188 0.409375)"/>
      <use xlink:href="#DejaVuSerif-78" transform="translate(165.771484 0.409375)"/>
      <use xlink:href="#DejaVuSerif-20" transform="translate(222.167969 0.409375)"/>
      <use xlink:href="#STIXGeneral-Italic-46" transform="translate(253.955078 0.409375)"/>
      <use xlink:href="#STIXGeneral-Italic-3bb" transform="translate(315.055069 -12.81875)scale(0.7)"/>
      <use xlink:href="#DejaVuSerif-20" transform="translate(351.524435 0.409375)"/>
      <use xlink:href="#DejaVuSerif-5b" transform="translate(383.311545 0.409375)"/>
      <use xlink:href="#STIXGeneral-Regular-31" transform="translate(422.325217 0.409375)"/>
      <use xlink:href="#STIXGeneral-Regular-30" transform="translate(472.325201 0.409375)"/>
      <use xlink:href="#STIXGeneral-Regular-31" transform="translate(523.868467 35.684375)scale(0.7)"/>
      <use xlink:href="#STIXGeneral-Regular-32" transform="translate(558.868457 35.684375)scale(0.7)"/>
      <use xlink:href="#DejaVuSerif-20" transform="translate(598.277821 0.409375)"/>
      <use xlink:href="#DejaVuSerif-57" transform="translate(630.06493 0.409375)"/>
      <use xlink:href="#DejaVuSerif-20" transform="translate(732.848134 0.409375)"/>
      <use xlink:href="#DejaVuSerif-6d" transform="translate(764.635243 0.409375)"/>
      <use xlink:href="#STIXGeneral-Regular-2212" transform="translate(861.002743 35.684375)scale(0.7)"/>
      <use xlink:href="#STIXGeneral-Regular-32" transform="translate(908.952732 35.684375)scale(0.7)"/>
      <use xlink:href="#DejaVuSerif-20" transform="translate(948.362097 0.409375)"/>
      <use xlink:href="#DejaVuSerif-6d" transform="translate(980.149206 0.409375)"/>
      <use xlink:href="#STIXGeneral-Regular-2212" transform="translate(1076.516706 35.684375)scale(0.7)"/>
      <use xlink:href="#STIXGeneral-Regular-31" transform="translate(1124.466695 35.684375)scale(0.7)"/>
      <use xlink:href="#DejaVuSerif-5d" transform="translate(1163.87606 0.409375)"/>
     </g>
    </g>
   </g>
   <g id="line2d_12">
    <path d="M 92.290909 244.95654 
L 92.823591 242.082305 
L 93.00234 240.527569 
L 93.181687 240.96087 
L 93.361634 240.49769 
L 93.542182 238.581523 
L 93.723334 244.377012 
L 93.905091 245.42718 
L 94.087456 245.439002 
L 94.270431 246.24 
L 94.454017 245.904573 
L 94.638217 244.495603 
L 94.823033 244.86263 
L 95.194521 242.326828 
L 95.381197 242.381315 
L 95.568497 243.867284 
L 95.756423 243.605662 
L 95.944978 240.336834 
L 96.134163 239.221405 
L 96.32398 238.835859 
L 96.514432 239.092859 
L 96.705521 241.436665 
L 96.897248 240.326135 
L 97.089617 235.742692 
L 97.282629 236.475027 
L 97.476286 236.334393 
L 97.67059 236.051614 
L 97.865544 236.458098 
L 98.06115 239.935125 
L 98.25741 240.854235 
L 98.454326 242.331323 
L 98.6519 242.927606 
L 98.850135 242.082027 
L 99.049033 242.21239 
L 99.248595 242.705534 
L 99.448825 241.740078 
L 99.649724 241.894233 
L 99.851295 241.349333 
L 100.05354 242.648058 
L 101.074951 232.662213 
L 101.281287 229.53954 
L 101.488312 214.194635 
L 101.69603 235.333167 
L 101.904442 236.073665 
L 102.113551 238.209456 
L 102.323359 243.1569 
L 102.533869 241.793057 
L 102.745082 236.871238 
L 102.957001 237.560243 
L 103.169629 234.532673 
L 103.382968 225.820583 
L 103.59702 224.167276 
L 104.027274 195.623503 
L 104.24348 210.383328 
L 104.460409 208.771655 
L 105.115557 224.849433 
L 105.777298 214.641965 
L 105.999355 206.401201 
L 106.222154 207.012227 
L 106.445698 215.201113 
L 106.66999 218.960032 
L 106.895032 242.334398 
L 107.120825 244.488133 
L 107.347374 242.51566 
L 107.57468 224.65373 
L 108.031575 217.958775 
L 108.261168 210.052196 
L 108.491529 208.238267 
L 108.954565 189.393208 
L 109.187244 198.705145 
L 109.420702 193.836765 
L 109.654939 178.080613 
L 109.88996 185.582267 
L 110.362362 168.931447 
L 110.599748 162.494181 
L 111.076904 130.091261 
L 111.316678 118.321324 
L 111.557255 158.907749 
L 111.798636 154.313206 
L 112.040824 120.381254 
L 112.527631 143.613247 
L 112.772256 139.800303 
L 113.263963 148.857448 
L 113.51105 141.840152 
L 113.758963 158.926559 
L 114.007704 205.427536 
L 114.257278 195.447472 
L 114.507685 200.905308 
L 115.011015 181.022254 
L 115.263943 187.234294 
L 115.517716 184.342136 
L 115.772338 185.075494 
L 116.027811 189.268214 
L 117.318045 128.40032 
L 117.578686 159.681137 
L 117.840198 157.160106 
L 118.102584 144.55179 
L 118.365848 153.837732 
L 118.629992 123.489313 
L 118.895018 121.385489 
L 119.427733 101.874656 
L 119.695427 86.681618 
L 119.964016 82.262523 
L 120.233503 68.234955 
L 120.503891 63.561021 
L 120.775183 100.339386 
L 121.047382 118.820656 
L 121.32049 122.706659 
L 121.594512 120.61251 
L 121.86945 109.258377 
L 122.145308 118.345739 
L 122.422087 100.786178 
L 122.699792 98.514207 
L 122.978425 85.036077 
L 123.819927 69.967549 
L 124.102305 70.777051 
L 124.385628 73.256321 
L 124.669897 61.673235 
L 124.955117 63.850182 
L 125.24129 85.111527 
L 125.528421 74.258605 
L 125.816511 68.686803 
L 126.105564 68.028916 
L 126.395584 56.894758 
L 126.978535 110.843943 
L 127.271474 96.227065 
L 127.565391 111.205805 
L 127.860291 95.671325 
L 128.156178 101.361607 
L 128.453053 89.621128 
L 128.750921 91.052123 
L 129.349648 76.85696 
L 129.650514 75.240188 
L 129.952385 107.20495 
L 130.255266 84.447496 
L 130.559159 97.778586 
L 130.864068 73.809958 
L 131.169997 74.916919 
L 131.476948 81.547087 
L 131.784926 70.571707 
L 132.093933 76.463317 
L 132.403974 58.292501 
L 132.71505 61.649529 
L 133.027167 59.092132 
L 133.340328 66.204581 
L 133.654535 62.842691 
L 134.286105 50.604862 
L 134.603475 55.938629 
L 134.921905 45.001142 
L 135.2414 49.9757 
L 135.561963 49.761615 
L 135.883598 44.64 
L 136.206309 53.840356 
L 136.530098 55.266061 
L 136.854969 66.191091 
L 137.180927 55.461855 
L 137.507975 59.762635 
L 137.836116 55.004178 
L 138.165354 61.567786 
L 138.495693 50.702595 
L 138.827136 53.433187 
L 139.159687 54.986814 
L 139.49335 61.901747 
L 139.828129 105.742812 
L 140.164027 71.568974 
L 140.501047 55.198375 
L 140.839195 46.616009 
L 141.178473 49.362937 
L 141.518886 48.080671 
L 141.860436 54.159948 
L 142.203129 55.483889 
L 142.546967 88.402888 
L 142.891954 54.489042 
L 143.238095 110.070968 
L 143.585394 61.298297 
L 143.933853 55.426228 
L 144.283477 61.871827 
L 144.634271 54.347068 
L 144.986237 69.219443 
L 145.693703 55.589558 
L 146.049211 51.737916 
L 146.405908 52.138212 
L 146.763797 45.908827 
L 147.122882 50.901536 
L 147.483169 46.23757 
L 147.844659 45.576711 
L 148.57127 48.413572 
L 148.936399 77.510079 
L 149.302748 58.287236 
L 149.670322 63.06047 
L 150.039125 69.408765 
L 150.409161 56.489926 
L 150.780434 54.845851 
L 151.152948 54.850321 
L 151.526708 49.763028 
L 151.901717 53.783244 
L 152.27798 51.684396 
L 152.655501 57.758881 
L 153.034285 59.155708 
L 153.414334 55.626644 
L 154.562123 51.293933 
L 154.947281 58.929905 
L 155.333726 71.265202 
L 155.721463 57.892222 
L 156.110497 62.484148 
L 156.500831 69.328314 
L 156.89247 91.097954 
L 157.285418 123.087283 
L 157.679681 123.496931 
L 158.075261 121.377437 
L 158.472164 131.229175 
L 158.870394 124.833347 
L 159.269955 131.370646 
L 159.670852 133.031225 
L 160.073089 121.823528 
L 160.476671 129.056106 
L 160.881603 115.615125 
L 161.287888 123.530745 
L 161.695531 125.863808 
L 162.104538 134.639541 
L 162.514912 136.317396 
L 162.926657 139.257046 
L 163.33978 131.659059 
L 163.754283 143.226914 
L 164.170173 142.044523 
L 164.587452 146.609646 
L 165.006127 144.679225 
L 165.426202 151.573583 
L 165.847681 152.95584 
L 166.270569 149.443941 
L 166.694871 142.382691 
L 167.120591 144.227479 
L 167.547735 142.741711 
L 167.976307 141.725458 
L 168.406312 145.995136 
L 168.837754 146.536832 
L 169.270639 146.519227 
L 169.704971 144.675484 
L 170.140755 143.647509 
L 170.577996 143.358542 
L 171.016698 141.094213 
L 171.456868 141.900947 
L 171.898509 137.313684 
L 172.341627 137.992585 
L 172.786226 136.090478 
L 173.232311 142.499573 
L 173.679888 134.488435 
L 174.128961 132.266063 
L 174.579536 134.794483 
L 175.031617 131.9466 
L 175.485209 133.624164 
L 175.940318 130.982249 
L 176.396949 131.958628 
L 177.314795 130.042874 
L 177.776021 124.655574 
L 178.238788 125.890636 
L 178.703103 121.054364 
L 179.16897 123.206927 
L 180.105382 119.933479 
L 181.048066 119.127332 
L 181.521773 117.72393 
L 181.997064 117.554716 
L 182.473944 118.150511 
L 182.952418 115.798491 
L 183.432492 115.85994 
L 184.39746 113.360652 
L 184.882365 112.996695 
L 185.368891 112.39411 
L 185.857043 113.646507 
L 186.346828 112.780223 
L 186.83825 113.293107 
L 187.331315 112.278464 
L 187.826029 112.275275 
L 188.322397 115.032605 
L 188.820424 116.352482 
L 189.821478 123.840676 
L 190.324517 127.277494 
L 190.829238 135.085736 
L 191.335646 135.226749 
L 192.353547 147.991576 
L 192.865051 144.198451 
L 193.378265 152.075448 
L 193.893196 154.237173 
L 194.928226 162.018094 
L 195.448338 167.488103 
L 195.970189 169.163635 
L 196.493785 170.242546 
L 197.019131 172.807294 
L 197.546233 177.941964 
L 198.075098 178.894032 
L 198.605731 180.535987 
L 199.138138 177.511134 
L 199.672325 184.320942 
L 200.208298 179.479904 
L 200.746063 184.245087 
L 201.285625 184.427843 
L 201.826992 186.196899 
L 202.370168 191.000632 
L 202.915161 186.304855 
L 203.461975 195.422691 
L 204.010618 194.479682 
L 204.561095 192.50092 
L 205.113412 192.176343 
L 205.667576 184.969122 
L 206.223592 193.077993 
L 206.781468 187.704903 
L 207.341208 187.37338 
L 207.90282 186.29068 
L 208.46631 188.522333 
L 209.031683 188.796328 
L 209.598947 189.263889 
L 210.168107 187.881552 
L 210.73917 196.552244 
L 211.312142 196.177583 
L 211.88703 194.462693 
L 212.46384 190.660664 
L 213.042578 190.935587 
L 213.623251 197.951456 
L 214.205866 196.576578 
L 214.790428 198.906109 
L 215.376945 195.52395 
L 215.965422 193.351977 
L 216.555867 195.245853 
L 217.148286 194.591146 
L 217.742686 196.392817 
L 218.339073 197.033544 
L 218.937454 195.503202 
L 219.537835 195.688543 
L 220.140223 194.142452 
L 221.351049 194.974904 
L 221.959499 192.594377 
L 222.569984 195.06666 
L 223.18251 195.675651 
L 224.413712 191.293649 
L 225.032402 192.826129 
L 225.65316 191.274289 
L 226.275994 191.432689 
L 226.90091 189.602072 
L 227.527915 189.119465 
L 228.157016 189.376622 
L 228.788221 188.699054 
L 229.421536 188.589731 
L 230.056968 187.337111 
L 230.694525 187.692018 
L 231.334213 188.510995 
L 231.97604 187.735384 
L 232.620013 188.021343 
L 233.266139 187.537874 
L 233.914424 191.352831 
L 234.564878 188.399743 
L 235.217505 189.377864 
L 235.872315 187.57633 
L 236.529314 189.039968 
L 237.18851 188.590582 
L 237.849909 188.579697 
L 238.51352 188.993428 
L 239.179349 190.1635 
L 239.847404 190.244287 
L 240.517693 190.636697 
L 241.190223 191.214315 
L 241.865001 204.611619 
L 242.542035 199.385361 
L 243.221333 197.978007 
L 243.902901 200.08968 
L 244.586749 206.173132 
L 245.272882 203.766709 
L 245.96131 204.336745 
L 246.652039 204.439752 
L 247.345077 206.974853 
L 248.040433 207.33921 
L 248.738113 205.019621 
L 249.438126 207.759693 
L 250.140479 211.601197 
L 250.84518 208.769787 
L 251.552237 212.16903 
L 252.261658 213.783446 
L 252.973451 214.670191 
L 253.687624 216.18439 
L 254.404184 215.788162 
L 255.12314 218.378188 
L 255.8445 219.971652 
L 256.568271 219.269948 
L 257.294462 222.131023 
L 258.023081 223.069515 
L 258.754136 222.884398 
L 259.487635 222.892392 
L 260.223586 225.207239 
L 260.961998 225.507865 
L 261.702878 224.725263 
L 262.446236 226.892601 
L 263.192078 227.111832 
L 263.940414 226.196704 
L 264.691252 226.491013 
L 265.444601 227.86831 
L 266.200468 225.612194 
L 266.958862 228.90287 
L 267.719791 227.797433 
L 268.483265 227.035579 
L 269.249291 226.970943 
L 270.017878 225.97031 
L 270.789034 226.29784 
L 271.562769 226.752287 
L 272.339091 226.094486 
L 273.118008 227.151227 
L 273.899529 224.914218 
L 274.683663 227.789748 
L 275.470419 228.242972 
L 277.05183 228.267143 
L 278.643832 230.656383 
L 279.443828 230.795362 
L 280.246498 229.615644 
L 281.051852 230.864906 
L 281.859898 230.26715 
L 282.670645 230.582068 
L 283.484103 232.41575 
L 284.300281 231.022341 
L 285.119188 231.520092 
L 285.940832 230.888434 
L 286.765223 232.499774 
L 287.592371 231.936686 
L 288.422284 233.310909 
L 289.254971 231.544272 
L 290.090442 232.144485 
L 290.928707 233.167405 
L 291.769774 230.476749 
L 292.613653 234.40258 
L 293.460353 231.62954 
L 294.309884 233.737757 
L 295.162255 232.463855 
L 296.017476 233.886291 
L 296.875556 233.187205 
L 297.736505 234.269971 
L 298.600333 233.110362 
L 299.467048 233.815992 
L 300.336661 233.701478 
L 301.209181 234.347028 
L 302.084619 233.382605 
L 302.962983 234.443625 
L 303.844284 232.884046 
L 304.728531 235.498227 
L 305.615735 233.338672 
L 306.505904 234.626164 
L 307.39905 234.151252 
L 308.295182 234.913185 
L 309.19431 234.084165 
L 310.096443 235.298956 
L 311.001593 233.764517 
L 311.909769 234.747201 
L 312.820982 234.09018 
L 313.73524 234.248859 
L 314.652556 234.104034 
L 315.572938 234.514278 
L 316.496397 233.768977 
L 317.422944 234.533665 
L 318.352588 234.493732 
L 319.28534 234.618589 
L 320.221211 233.649679 
L 321.160211 234.843926 
L 322.10235 234.283407 
L 323.047638 234.352366 
L 323.996088 234.559604 
L 324.947708 234.605963 
L 325.902509 234.436373 
L 326.860503 233.689511 
L 327.8217 234.076265 
L 329.753744 234.606955 
L 330.724613 234.402664 
L 331.698729 234.521795 
L 332.676101 234.055795 
L 333.65674 234.137305 
L 334.640659 234.437718 
L 336.618374 234.260205 
L 337.612194 234.396001 
L 338.609336 234.311162 
L 339.609812 234.413576 
L 340.613633 235.188843 
L 341.62081 234.294744 
L 342.631354 234.459924 
L 343.645277 234.425667 
L 344.66259 234.799374 
L 345.683303 234.197544 
L 346.707429 234.686666 
L 347.734979 234.675209 
L 348.765965 234.501301 
L 349.800397 234.766039 
L 350.838288 234.571204 
L 351.879649 235.130526 
L 352.924491 234.962823 
L 355.024666 235.09088 
L 356.080023 234.971011 
L 357.138908 235.248842 
L 361.409969 235.308598 
L 363.566977 235.693136 
L 364.650893 235.316319 
L 365.738433 235.787723 
L 366.829609 235.464017 
L 367.924433 235.458189 
L 369.022917 235.943367 
L 370.125074 235.586791 
L 371.230915 235.851712 
L 372.340454 235.839081 
L 373.453702 236.002524 
L 374.570672 235.799313 
L 375.691376 236.141359 
L 376.815827 236.066919 
L 377.944038 236.287776 
L 379.07602 236.393517 
L 380.211787 236.198941 
L 381.351351 236.452639 
L 383.641921 236.581696 
L 384.792953 236.91285 
L 385.947833 236.796891 
L 388.269189 237.13356 
L 389.435691 237.571579 
L 390.606093 237.617 
L 397.711137 238.612677 
L 398.909206 239.155093 
L 400.11128 239.54971 
L 401.317373 239.297522 
L 402.527499 239.580157 
L 404.959901 239.787502 
L 406.182204 239.86943 
L 407.408594 240.193715 
L 408.639084 240.217005 
L 411.11242 240.576682 
L 412.355293 240.38245 
L 414.853519 241.179431 
L 416.108899 241.075013 
L 417.368477 240.83623 
L 418.632265 241.777016 
L 419.900279 241.97891 
L 421.172532 241.951452 
L 423.729813 242.554256 
L 427.597885 243.162312 
L 428.895873 243.172684 
L 432.815933 243.593915 
L 434.131367 243.579871 
L 435.451198 243.760742 
L 436.775442 243.778289 
L 438.104114 243.987502 
L 440.774797 243.979269 
L 442.11684 244.132226 
L 446.169947 244.236602 
L 447.530026 244.10077 
L 448.894653 244.17473 
L 450.263842 244.096166 
L 455.786527 244.216583 
L 457.178757 244.130875 
L 459.977197 244.419276 
L 461.383438 244.55158 
L 462.794381 244.42004 
L 464.21004 244.649412 
L 465.630432 244.377741 
L 467.055574 244.720539 
L 468.485479 244.504248 
L 469.920166 244.812464 
L 471.359648 244.638749 
L 474.253068 244.974757 
L 475.707037 244.851102 
L 477.165867 245.071975 
L 478.629574 244.753479 
L 480.098175 245.145182 
L 481.571685 245.045838 
L 484.533502 245.163209 
L 486.021841 245.128503 
L 487.515156 245.262729 
L 489.013464 245.059368 
L 490.51678 245.248464 
L 492.025123 245.232706 
L 495.056954 245.417428 
L 496.580476 245.313421 
L 498.109091 245.34944 
L 498.109091 245.34944 
" clip-path="url(#p23fc4d0100)" style="fill: none; stroke-dasharray: 7.77,3.36; stroke-dashoffset: 0; stroke: #e76f51; stroke-width: 2.1"/>
   </g>
   <g id="line2d_13">
    <path d="M 92.290909 244.402866 
L 92.823591 241.424065 
L 93.00234 239.66973 
L 93.181687 240.310381 
L 93.361634 239.66513 
L 93.542182 237.967203 
L 93.723334 243.780909 
L 93.905091 244.893212 
L 94.087456 244.963121 
L 94.270431 245.876566 
L 94.454017 245.518877 
L 94.638217 244.02129 
L 94.823033 244.140516 
L 95.194521 241.553984 
L 95.381197 241.586708 
L 95.568497 243.229104 
L 95.756423 242.944006 
L 95.944978 239.589842 
L 96.32398 238.005452 
L 96.514432 238.163149 
L 96.705521 240.610435 
L 96.897248 239.184217 
L 97.089617 235.031872 
L 97.282629 235.828085 
L 97.67059 234.688797 
L 97.865544 235.788832 
L 98.06115 239.118175 
L 98.25741 240.04567 
L 98.6519 242.514558 
L 98.850135 241.743268 
L 99.049033 241.439562 
L 99.248595 241.968486 
L 99.448825 240.923715 
L 99.851295 240.671132 
L 100.05354 241.581913 
L 100.869303 234.675721 
L 101.281287 227.957955 
L 101.488312 212.468481 
L 101.69603 233.629455 
L 101.904442 234.859049 
L 102.113551 236.959659 
L 102.323359 242.249778 
L 102.533869 240.709178 
L 102.745082 235.899903 
L 102.957001 236.444294 
L 103.169629 233.143836 
L 103.382968 224.339814 
L 103.59702 222.066959 
L 104.027274 194.829996 
L 104.24348 207.203862 
L 104.460409 204.025642 
L 105.115557 219.410727 
L 105.777298 209.189939 
L 105.999355 200.436155 
L 106.222154 201.526828 
L 106.445698 211.857922 
L 106.66999 215.094042 
L 106.895032 238.285997 
L 107.120825 241.252848 
L 107.347374 239.573152 
L 107.57468 220.354124 
L 107.802746 219.71746 
L 108.031575 215.395742 
L 108.261168 207.289328 
L 108.491529 205.786396 
L 108.954565 186.554601 
L 109.187244 197.29517 
L 109.420702 191.171689 
L 109.654939 175.970239 
L 109.88996 182.158687 
L 110.599748 159.283632 
L 111.076904 128.519577 
L 111.316678 116.961918 
L 111.557255 158.017352 
L 111.798636 152.588133 
L 112.040824 118.985929 
L 112.527631 140.065943 
L 112.772256 138.413443 
L 113.263963 148.42326 
L 113.51105 140.947926 
L 113.758963 159.979939 
L 114.007704 204.761724 
L 114.257278 194.732321 
L 114.507685 200.156407 
L 115.011015 180.892878 
L 115.263943 185.182724 
L 115.517716 181.379438 
L 115.772338 181.784544 
L 116.027811 185.956732 
L 116.541322 164.481093 
L 117.318045 127.157199 
L 117.578686 156.322031 
L 117.840198 154.628929 
L 118.102584 141.18326 
L 118.365848 149.798787 
L 118.629992 121.709326 
L 118.895018 120.749395 
L 119.695427 87.344301 
L 119.964016 81.298401 
L 120.233503 69.22697 
L 120.503891 64.903406 
L 120.775183 103.179259 
L 121.047382 119.276184 
L 121.32049 124.070106 
L 121.594512 122.845253 
L 121.86945 112.076618 
L 122.145308 120.058336 
L 122.422087 103.603739 
L 122.699792 101.756165 
L 122.978425 87.925622 
L 123.819927 72.259912 
L 124.102305 73.635157 
L 124.385628 77.707869 
L 124.669897 66.229002 
L 124.955117 67.546197 
L 125.24129 86.889195 
L 125.528421 75.61363 
L 126.105564 68.642456 
L 126.395584 58.059387 
L 126.978535 112.328802 
L 127.271474 95.575076 
L 127.565391 110.012709 
L 127.860291 96.700723 
L 128.156178 101.752988 
L 128.453053 90.763949 
L 128.750921 91.239226 
L 129.349648 78.453684 
L 129.650514 76.398438 
L 129.952385 107.711307 
L 130.255266 86.350091 
L 130.559159 99.703249 
L 130.864068 75.472585 
L 131.169997 76.940093 
L 131.476948 81.205036 
L 131.784926 72.483277 
L 132.093933 77.808448 
L 132.403974 60.311156 
L 132.71505 63.949899 
L 133.027167 60.442002 
L 133.340328 67.996179 
L 133.969793 60.186242 
L 134.286105 52.961689 
L 134.603475 57.051559 
L 134.921905 45.731242 
L 135.2414 51.555093 
L 135.561963 50.624366 
L 135.883598 46.172645 
L 136.206309 54.690998 
L 136.530098 56.493936 
L 136.854969 67.184022 
L 137.180927 58.186499 
L 137.507975 61.709414 
L 137.836116 56.664733 
L 138.165354 61.665688 
L 138.495693 52.155097 
L 139.159687 55.668049 
L 139.49335 61.604136 
L 139.828129 105.421228 
L 140.164027 73.481118 
L 140.501047 55.567461 
L 140.839195 47.560684 
L 141.178473 50.602988 
L 141.518886 49.420443 
L 141.860436 55.820014 
L 142.203129 56.268708 
L 142.546967 88.276472 
L 142.891954 55.691353 
L 143.238095 109.122805 
L 143.585394 62.305018 
L 143.933853 56.473113 
L 144.283477 63.234615 
L 144.634271 55.45823 
L 144.986237 70.861925 
L 145.693703 55.902233 
L 146.049211 53.461358 
L 146.405908 52.939468 
L 146.763797 47.447319 
L 147.122882 51.729863 
L 147.483169 47.485407 
L 147.844659 46.505834 
L 148.207358 48.702521 
L 148.57127 49.482509 
L 148.936399 78.446867 
L 149.302748 59.012842 
L 150.039125 70.55719 
L 150.409161 57.09817 
L 150.780434 56.361659 
L 151.152948 56.364894 
L 151.526708 51.108685 
L 151.901717 54.86669 
L 152.27798 52.864952 
L 152.655501 59.434379 
L 153.034285 60.841401 
L 153.414334 57.193471 
L 153.795654 55.036663 
L 154.178249 53.607669 
L 154.562123 52.674076 
L 154.947281 59.99818 
L 155.333726 72.640788 
L 155.721463 58.673631 
L 156.110497 63.136478 
L 156.500831 69.23618 
L 156.89247 90.452291 
L 157.285418 122.272498 
L 157.679681 121.90831 
L 158.075261 120.072118 
L 158.472164 128.896361 
L 158.870394 124.558786 
L 159.269955 129.0718 
L 159.670852 131.173452 
L 160.073089 120.801672 
L 160.476671 127.21561 
L 160.881603 116.325096 
L 161.695531 124.82932 
L 162.104538 132.8646 
L 162.926657 137.233897 
L 163.33978 130.812029 
L 163.754283 142.526277 
L 164.170173 141.165856 
L 164.587452 144.459351 
L 165.006127 144.139477 
L 165.426202 148.812346 
L 165.847681 150.388442 
L 166.270569 146.828143 
L 166.694871 141.730704 
L 167.120591 142.240087 
L 167.547735 140.780652 
L 167.976307 140.585876 
L 168.406312 143.370442 
L 168.837754 144.469752 
L 169.270639 144.474045 
L 169.704971 142.37047 
L 170.577996 142.19279 
L 171.016698 140.179238 
L 171.456868 140.546886 
L 171.898509 137.059943 
L 172.341627 136.893513 
L 172.786226 135.681104 
L 173.232311 141.513123 
L 173.679888 133.72025 
L 174.128961 132.473688 
L 174.579536 134.195314 
L 175.031617 131.55756 
L 175.485209 133.10945 
L 175.940318 130.208072 
L 176.396949 131.103991 
L 177.314795 129.521683 
L 177.776021 124.429201 
L 178.238788 125.268188 
L 178.703103 121.145625 
L 179.16897 122.848128 
L 180.105382 119.589583 
L 181.048066 118.779134 
L 181.521773 117.568891 
L 181.997064 117.646517 
L 182.473944 117.911055 
L 182.952418 115.47583 
L 183.432492 115.814235 
L 184.39746 113.400996 
L 184.882365 113.24247 
L 185.368891 112.706983 
L 185.857043 113.872449 
L 186.346828 112.959731 
L 186.83825 113.700212 
L 187.331315 112.906121 
L 187.826029 112.804572 
L 188.322397 115.483632 
L 188.820424 116.898767 
L 189.821478 124.162022 
L 190.324517 127.60613 
L 190.829238 134.940428 
L 191.335646 134.761589 
L 192.353547 147.278461 
L 192.865051 145.399743 
L 193.378265 151.418769 
L 193.893196 154.025786 
L 194.928226 160.503155 
L 195.448338 166.048407 
L 195.970189 168.752833 
L 196.493785 170.242897 
L 197.019131 172.712068 
L 197.546233 176.303174 
L 198.605731 179.416863 
L 199.138138 177.322063 
L 199.672325 183.445063 
L 200.208298 179.279903 
L 200.746063 182.68785 
L 201.285625 183.004644 
L 201.826992 185.329811 
L 202.370168 190.143185 
L 202.915161 185.764735 
L 203.461975 194.451669 
L 204.561095 191.221388 
L 205.113412 190.936115 
L 205.667576 184.088423 
L 206.223592 191.50891 
L 206.781468 186.888744 
L 207.341208 186.565649 
L 207.90282 185.929572 
L 208.46631 187.534855 
L 209.031683 188.04286 
L 209.598947 189.560334 
L 210.168107 187.974862 
L 210.73917 195.695295 
L 211.312142 195.81296 
L 212.46384 190.574474 
L 213.042578 190.634376 
L 213.623251 197.563266 
L 214.205866 196.401048 
L 214.790428 198.469878 
L 215.376945 195.04294 
L 215.965422 193.232676 
L 216.555867 194.670744 
L 217.148286 194.205366 
L 217.742686 195.443491 
L 218.339073 196.416457 
L 218.937454 195.036847 
L 219.537835 195.434727 
L 220.140223 193.778299 
L 220.744626 193.918569 
L 221.351049 194.65757 
L 221.959499 192.367224 
L 222.569984 194.630136 
L 223.18251 195.111634 
L 224.413712 191.193603 
L 225.032402 192.49417 
L 225.65316 191.092206 
L 226.275994 191.169652 
L 226.90091 189.65746 
L 227.527915 189.26711 
L 228.157016 189.497313 
L 228.788221 188.789293 
L 229.421536 188.777705 
L 230.056968 187.71718 
L 230.694525 187.970496 
L 231.334213 188.741367 
L 231.97604 188.074967 
L 232.620013 188.344204 
L 233.266139 188.013434 
L 233.914424 191.569735 
L 234.564878 188.82819 
L 235.217505 189.649912 
L 235.872315 188.189775 
L 236.529314 189.567573 
L 237.18851 189.177666 
L 237.849909 189.288817 
L 238.51352 189.698421 
L 239.179349 190.684433 
L 239.847404 190.81166 
L 241.190223 191.752055 
L 241.865001 204.158706 
L 242.542035 199.525985 
L 243.221333 198.174264 
L 243.902901 200.135432 
L 244.586749 206.187444 
L 245.272882 203.683351 
L 245.96131 204.297164 
L 246.652039 204.443183 
L 247.345077 207.168984 
L 248.040433 207.247031 
L 248.738113 205.176347 
L 249.438126 207.759315 
L 250.140479 211.338582 
L 250.84518 208.851522 
L 251.552237 211.924616 
L 252.261658 213.428812 
L 252.973451 214.276477 
L 253.687624 215.726006 
L 254.404184 215.603606 
L 255.12314 217.99693 
L 255.8445 219.469825 
L 256.568271 218.899967 
L 257.294462 221.608809 
L 258.023081 222.492732 
L 258.754136 222.293556 
L 259.487635 222.353779 
L 260.223586 224.384192 
L 260.961998 224.910665 
L 261.702878 224.070268 
L 262.446236 225.909755 
L 263.192078 226.106631 
L 263.940414 225.510317 
L 264.691252 225.782318 
L 265.444601 227.415316 
L 266.200468 225.212914 
L 266.958862 227.927411 
L 268.483265 226.445938 
L 269.249291 226.304548 
L 270.017878 225.603088 
L 271.562769 226.368314 
L 272.339091 225.572432 
L 273.118008 226.489746 
L 273.899529 224.58547 
L 274.683663 227.309339 
L 275.470419 227.557877 
L 276.259805 227.637701 
L 277.05183 227.520961 
L 277.846503 228.938244 
L 278.643832 230.044508 
L 279.443828 229.922429 
L 280.246498 229.069767 
L 281.051852 230.400278 
L 281.859898 229.72424 
L 282.670645 229.887091 
L 283.484103 231.844607 
L 284.300281 230.501029 
L 285.119188 231.17811 
L 285.940832 230.308813 
L 286.765223 231.904847 
L 287.592371 231.411798 
L 288.422284 232.649389 
L 289.254971 231.136313 
L 290.928707 232.529622 
L 291.769774 230.347393 
L 292.613653 233.659296 
L 293.460353 231.139073 
L 294.309884 233.113398 
L 295.162255 232.099381 
L 296.017476 233.298612 
L 296.875556 232.877231 
L 297.736505 233.680953 
L 298.600333 232.756111 
L 299.467048 233.457712 
L 300.336661 233.221176 
L 301.209181 233.984565 
L 302.084619 232.983431 
L 302.962983 233.927587 
L 303.844284 232.587911 
L 304.728531 234.866916 
L 305.615735 232.978326 
L 306.505904 234.244409 
L 307.39905 233.717917 
L 308.295182 234.619085 
L 309.19431 233.594253 
L 310.096443 234.893058 
L 311.001593 233.458962 
L 311.909769 234.358401 
L 312.820982 233.772013 
L 313.73524 234.062631 
L 314.652556 233.784738 
L 315.572938 234.256538 
L 316.496397 233.615985 
L 317.422944 234.286167 
L 318.352588 234.108487 
L 319.28534 234.308141 
L 320.221211 233.583001 
L 321.160211 234.595488 
L 322.10235 234.027735 
L 323.047638 234.091803 
L 323.996088 234.317652 
L 324.947708 234.343146 
L 325.902509 234.234848 
L 326.860503 233.523773 
L 328.78611 234.26918 
L 329.753744 234.389285 
L 330.724613 234.166594 
L 331.698729 234.28728 
L 332.676101 233.929479 
L 335.627866 234.248678 
L 336.618374 234.136453 
L 337.612194 234.215364 
L 338.609336 234.121734 
L 339.609812 234.276033 
L 340.613633 235.022708 
L 341.62081 234.197007 
L 342.631354 234.390476 
L 343.645277 234.329805 
L 344.66259 234.679177 
L 345.683303 234.145504 
L 346.707429 234.608966 
L 347.734979 234.685226 
L 348.765965 234.394576 
L 349.800397 234.715009 
L 350.838288 234.552995 
L 351.879649 235.011428 
L 352.924491 234.884649 
L 355.024666 235.008622 
L 356.080023 234.926523 
L 357.138908 235.203133 
L 358.201333 235.21497 
L 359.267311 235.100933 
L 363.566977 235.603327 
L 364.650893 235.33634 
L 365.738433 235.731192 
L 366.829609 235.466089 
L 367.924433 235.446422 
L 369.022917 235.921795 
L 370.125074 235.582785 
L 371.230915 235.826884 
L 374.570672 235.799366 
L 375.691376 236.166817 
L 376.815827 236.093234 
L 377.944038 236.297046 
L 379.07602 236.376059 
L 380.211787 236.231845 
L 381.351351 236.476825 
L 383.641921 236.604695 
L 384.792953 236.919359 
L 385.947833 236.818226 
L 388.269189 237.168002 
L 389.435691 237.559065 
L 392.958649 237.873767 
L 394.140829 238.177899 
L 397.711137 238.644458 
L 400.11128 239.492114 
L 401.317373 239.27769 
L 402.527499 239.544392 
L 406.182204 239.874406 
L 407.408594 240.15417 
L 409.873688 240.312579 
L 411.11242 240.534204 
L 412.355293 240.374026 
L 414.853519 241.105975 
L 416.108899 241.022665 
L 417.368477 240.817473 
L 418.632265 241.705466 
L 419.900279 241.903931 
L 421.172532 241.894963 
L 423.729813 242.488816 
L 427.597885 243.06877 
L 428.895873 243.088733 
L 432.815933 243.490867 
L 434.131367 243.503286 
L 435.451198 243.662368 
L 436.775442 243.685741 
L 438.104114 243.889134 
L 440.774797 243.894805 
L 443.463368 244.043463 
L 444.814399 244.005964 
L 446.169947 244.126027 
L 447.530026 244.010366 
L 448.894653 244.100034 
L 450.263842 244.010552 
L 454.398936 244.193159 
L 457.178757 244.088851 
L 461.383438 244.459509 
L 462.794381 244.372794 
L 464.21004 244.561885 
L 465.630432 244.328457 
L 467.055574 244.643698 
L 468.485479 244.472025 
L 469.920166 244.745286 
L 471.359648 244.594673 
L 474.253068 244.881524 
L 475.707037 244.796416 
L 477.165867 244.994262 
L 478.629574 244.705269 
L 480.098175 245.070078 
L 481.571685 244.978786 
L 484.533502 245.083487 
L 486.021841 245.066709 
L 487.515156 245.185626 
L 489.013464 245.012735 
L 490.51678 245.195586 
L 492.025123 245.173253 
L 495.056954 245.346121 
L 496.580476 245.244123 
L 498.109091 245.280373 
L 498.109091 245.280373 
" clip-path="url(#p23fc4d0100)" style="fill: none; stroke: #2a9d8f; stroke-width: 2.1; stroke-linecap: square"/>
   </g>
   <g id="patch_3">
    <path d="M 72 256.32 
L 72 34.56 
" style="fill: none; stroke: #000000; stroke-width: 0.8; stroke-linejoin: miter; stroke-linecap: square"/>
   </g>
   <g id="patch_4">
    <path d="M 518.4 256.32 
L 518.4 34.56 
" style="fill: none; stroke: #000000; stroke-width: 0.8; stroke-linejoin: miter; stroke-linecap: square"/>
   </g>
   <g id="patch_5">
    <path d="M 72 256.32 
L 518.4 256.32 
" style="fill: none; stroke: #000000; stroke-width: 0.8; stroke-linejoin: miter; stroke-linecap: square"/>
   </g>
   <g id="patch_6">
    <path d="M 72 34.56 
L 518.4 34.56 
" style="fill: none; stroke: #000000; stroke-width: 0.8; stroke-linejoin: miter; stroke-linecap: square"/>
   </g>
  </g>
 </g>
 <defs>
  <clipPath id="p23fc4d0100">
   <rect x="72" y="34.56" width="446.4" height="221.76"/>
  </clipPath>
 </defs>
</svg>
