<?xml version="1.0" encoding="utf-8" standalone="no"?>
<!DOCTYPE svg PUBLIC "-//W3C//DTD SVG 1.1//EN"
  "http://www.w3.org/Graphics/SVG/1.1/DTD/svg11.dtd">
<svg xmlns:xlink="http://www.w3.org/1999/xlink" width="432pt" height="288pt" viewBox="0 0 432 288" xmlns="http://www.w3.org/2000/svg" version="1.1">
 <metadata>
  <rdf:RDF xmlns:dc="http://purl.org/dc/elements/1.1/" xmlns:cc="http://creativecommons.org/ns#" xmlns:rdf="http://www.w3.org/1999/02/22-rdf-syntax-ns#">
   <cc:Work>
    <dc:type rdf:resource="http://purl.org/dc/dcmitype/StillImage"/>
    <dc:date>2025-10-04T17:48:17.373879</dc:date>
    <dc:format>image/svg+xml</dc:format>
    <dc:creator>
     <cc:Agent>
      <dc:title>Matplotlib v3.5.2, https://matplotlib.org/</dc:title>
     </cc:Agent>
    </dc:creator>
   </cc:Work>
  </rdf:RDF>
 </metadata>
 <defs>
  <style type="text/css">*{stroke-linejoin: round; stroke-linecap: butt}</style>
 </defs>
 <g id="figure_1">
  <g id="patch_1">
   <path d="M 0 288 
L 432 288 
L 432 0 
L 0 0 
L 0 288 
z
" style="fill: none"/>
  </g>
  <g id="axes_1">
   <g id="patch_2">
    <path d="M 54 256.32 
L 388.8 256.32 
L 388.8 34.56 
L 54 34.56 
L 54 256.32 
z
" style="fill: none"/>
   </g>
   <g id="matplotlib.axis_1">
    <g id="xtick_1">
     <g id="line2d_1">
      <defs>
       <path id="m4e5cf074db" d="M 0 0 
L 0 3.5 
" style="stroke: #000000; stroke-width: 0.8"/>
      </defs>
      <g>
       <use xlink:href="#m4e5cf074db" x="95.684585" y="256.32" style="stroke: #000000; stroke-width: 0.8"/>
      </g>
     </g>
     <g id="text_1">
      <!-- 1 -->
      <g transform="translate(92.503335 270.918437)scale(0.1 -0.1)">
       <defs>
        <path id="DejaVuSerif-31" d="M 909 0 
L 909 331 
L 1722 331 
L 1722 4213 
L 781 3603 
L 781 4013 
L 1919 4750 
L 2350 4750 
L 2350 331 
L 3163 331 
L 3163 0 
L 909 0 
z
" transform="scale(0.015625)"/>
       </defs>
       <use xlink:href="#DejaVuSerif-31"/>
      </g>
     </g>
    </g>
    <g id="xtick_2">
     <g id="line2d_2">
      <g>
       <use xlink:href="#m4e5cf074db" x="161.850593" y="256.32" style="stroke: #000000; stroke-width: 0.8"/>
      </g>
     </g>
     <g id="text_2">
      <!-- 2 -->
      <g transform="translate(158.669343 270.918437)scale(0.1 -0.1)">
       <defs>
        <path id="DejaVuSerif-32" d="M 819 3553 
L 469 3553 
L 469 4384 
Q 803 4563 1142 4656 
Q 1481 4750 1806 4750 
Q 2534 4750 2956 4397 
Q 3378 4044 3378 3438 
Q 3378 2753 2422 1800 
Q 2347 1728 2309 1691 
L 1131 513 
L 3078 513 
L 3078 1088 
L 3444 1088 
L 3444 0 
L 434 0 
L 434 341 
L 1850 1753 
Q 2319 2222 2519 2614 
Q 2719 3006 2719 3438 
Q 2719 3909 2473 4175 
Q 2228 4441 1797 4441 
Q 1350 4441 1106 4219 
Q 863 3997 819 3553 
z
" transform="scale(0.015625)"/>
       </defs>
       <use xlink:href="#DejaVuSerif-32"/>
      </g>
     </g>
    </g>
    <g id="xtick_3">
     <g id="line2d_3">
      <g>
       <use xlink:href="#m4e5cf074db" x="228.016601" y="256.32" style="stroke: #000000; stroke-width: 0.8"/>
      </g>
     </g>
     <g id="text_3">
      <!-- 3 -->
      <g transform="translate(224.835351 270.918437)scale(0.1 -0.1)">
       <defs>
        <path id="DejaVuSerif-33" d="M 622 4469 
Q 988 4606 1323 4678 
Q 1659 4750 1953 4750 
Q 2638 4750 3022 4454 
Q 3406 4159 3406 3634 
Q 3406 3213 3140 2930 
Q 2875 2647 2388 2547 
Q 2963 2466 3280 2130 
Q 3597 1794 3597 1259 
Q 3597 606 3158 257 
Q 2719 -91 1894 -91 
Q 1528 -91 1179 -12 
Q 831 66 488 225 
L 488 1131 
L 838 1131 
Q 869 681 1141 450 
Q 1413 219 1906 219 
Q 2384 219 2661 495 
Q 2938 772 2938 1253 
Q 2938 1803 2653 2086 
Q 2369 2369 1819 2369 
L 1522 2369 
L 1522 2688 
L 1678 2688 
Q 2225 2688 2498 2914 
Q 2772 3141 2772 3597 
Q 2772 4006 2547 4223 
Q 2322 4441 1900 4441 
Q 1478 4441 1245 4241 
Q 1013 4041 972 3647 
L 622 3647 
L 622 4469 
z
" transform="scale(0.015625)"/>
       </defs>
       <use xlink:href="#DejaVuSerif-33"/>
      </g>
     </g>
    </g>
    <g id="xtick_4">
     <g id="line2d_4">
      <g>
       <use xlink:href="#m4e5cf074db" x="294.182609" y="256.32" style="stroke: #000000; stroke-width: 0.8"/>
      </g>
     </g>
     <g id="text_4">
      <!-- 4 -->
      <g transform="translate(291.001359 270.918437)scale(0.1 -0.1)">
       <defs>
        <path id="DejaVuSerif-34" d="M 2234 1581 
L 2234 4063 
L 641 1581 
L 2234 1581 
z
M 3609 0 
L 1484 0 
L 1484 331 
L 2234 331 
L 2234 1247 
L 197 1247 
L 197 1588 
L 2241 4750 
L 2859 4750 
L 2859 1581 
L 3750 1581 
L 3750 1247 
L 2859 1247 
L 2859 331 
L 3609 331 
L 3609 0 
z
" transform="scale(0.015625)"/>
       </defs>
       <use xlink:href="#DejaVuSerif-34"/>
      </g>
     </g>
    </g>
    <g id="xtick_5">
     <g id="line2d_5">
      <g>
       <use xlink:href="#m4e5cf074db" x="360.348617" y="256.32" style="stroke: #000000; stroke-width: 0.8"/>
      </g>
     </g>
     <g id="text_5">
      <!-- 5 -->
      <g transform="translate(357.167367 270.918437)scale(0.1 -0.1)">
       <defs>
        <path id="DejaVuSerif-35" d="M 3219 4666 
L 3219 4153 
L 1081 4153 
L 1081 2816 
Q 1244 2928 1461 2984 
Q 1678 3041 1947 3041 
Q 2703 3041 3140 2622 
Q 3578 2203 3578 1478 
Q 3578 738 3136 323 
Q 2694 -91 1894 -91 
Q 1572 -91 1234 -12 
Q 897 66 544 225 
L 544 1131 
L 897 1131 
Q 925 688 1179 453 
Q 1434 219 1894 219 
Q 2388 219 2653 544 
Q 2919 869 2919 1478 
Q 2919 2084 2655 2407 
Q 2391 2731 1894 2731 
Q 1613 2731 1398 2631 
Q 1184 2531 1019 2322 
L 750 2322 
L 750 4666 
L 3219 4666 
z
" transform="scale(0.015625)"/>
       </defs>
       <use xlink:href="#DejaVuSerif-35"/>
      </g>
     </g>
    </g>
    <g id="text_6">
     <!-- Wavelength [$\mu$m] -->
     <g transform="translate(165.5 286.878125)scale(0.13 -0.13)">
      <defs>
       <path id="DejaVuSerif-57" d="M 4878 0 
L 4366 0 
L 3297 3794 
L 2228 0 
L 1716 0 
L 494 4331 
L 31 4331 
L 31 4666 
L 1734 4666 
L 1734 4331 
L 1153 4331 
L 2125 884 
L 3188 4666 
L 3694 4666 
L 4775 844 
L 5753 4331 
L 5216 4331 
L 5216 4666 
L 6559 4666 
L 6559 4331 
L 6100 4331 
L 4878 0 
z
" transform="scale(0.015625)"/>
       <path id="DejaVuSerif-61" d="M 2547 1044 
L 2547 1747 
L 1806 1747 
Q 1378 1747 1168 1562 
Q 959 1378 959 997 
Q 959 650 1171 447 
Q 1384 244 1747 244 
Q 2106 244 2326 466 
Q 2547 688 2547 1044 
z
M 3122 2075 
L 3122 331 
L 3634 331 
L 3634 0 
L 2547 0 
L 2547 359 
Q 2356 128 2106 18 
Q 1856 -91 1522 -91 
Q 969 -91 644 203 
Q 319 497 319 997 
Q 319 1513 691 1797 
Q 1063 2081 1741 2081 
L 2547 2081 
L 2547 2309 
Q 2547 2688 2317 2895 
Q 2088 3103 1672 3103 
Q 1328 3103 1125 2947 
Q 922 2791 872 2484 
L 575 2484 
L 575 3156 
Q 875 3284 1158 3348 
Q 1441 3413 1709 3413 
Q 2400 3413 2761 3070 
Q 3122 2728 3122 2075 
z
" transform="scale(0.015625)"/>
       <path id="DejaVuSerif-76" d="M 1581 0 
L 359 2988 
L -19 2988 
L -19 3322 
L 1509 3322 
L 1509 2988 
L 978 2988 
L 1913 703 
L 2847 2988 
L 2350 2988 
L 2350 3322 
L 3597 3322 
L 3597 2988 
L 3225 2988 
L 2003 0 
L 1581 0 
z
" transform="scale(0.015625)"/>
       <path id="DejaVuSerif-65" d="M 3469 1600 
L 991 1600 
L 991 1575 
Q 991 903 1244 561 
Q 1497 219 1991 219 
Q 2369 219 2611 417 
Q 2853 616 2950 1006 
L 3413 1006 
Q 3275 459 2904 184 
Q 2534 -91 1931 -91 
Q 1203 -91 761 389 
Q 319 869 319 1663 
Q 319 2450 753 2931 
Q 1188 3413 1894 3413 
Q 2647 3413 3050 2948 
Q 3453 2484 3469 1600 
z
M 2791 1931 
Q 2772 2513 2545 2808 
Q 2319 3103 1894 3103 
Q 1497 3103 1269 2806 
Q 1041 2509 991 1931 
L 2791 1931 
z
" transform="scale(0.015625)"/>
       <path id="DejaVuSerif-6c" d="M 1313 331 
L 1856 331 
L 1856 0 
L 184 0 
L 184 331 
L 738 331 
L 738 4531 
L 184 4531 
L 184 4863 
L 1313 4863 
L 1313 331 
z
" transform="scale(0.015625)"/>
       <path id="DejaVuSerif-6e" d="M 263 0 
L 263 331 
L 781 331 
L 781 2988 
L 231 2988 
L 231 3322 
L 1356 3322 
L 1356 2731 
Q 1516 3069 1770 3241 
Q 2025 3413 2363 3413 
Q 2913 3413 3172 3097 
Q 3431 2781 3431 2113 
L 3431 331 
L 3944 331 
L 3944 0 
L 2356 0 
L 2356 331 
L 2853 331 
L 2853 1931 
Q 2853 2541 2703 2767 
Q 2553 2994 2175 2994 
Q 1775 2994 1565 2701 
Q 1356 2409 1356 1850 
L 1356 331 
L 1856 331 
L 1856 0 
L 263 0 
z
" transform="scale(0.015625)"/>
       <path id="DejaVuSerif-67" d="M 3359 2988 
L 3359 72 
Q 3359 -644 2965 -1033 
Q 2572 -1422 1844 -1422 
Q 1516 -1422 1216 -1362 
Q 916 -1303 641 -1184 
L 641 -488 
L 941 -488 
Q 997 -813 1206 -963 
Q 1416 -1113 1806 -1113 
Q 2313 -1113 2548 -827 
Q 2784 -541 2784 72 
L 2784 519 
Q 2616 206 2355 57 
Q 2094 -91 1709 -91 
Q 1097 -91 708 395 
Q 319 881 319 1663 
Q 319 2444 706 2928 
Q 1094 3413 1709 3413 
Q 2094 3413 2355 3264 
Q 2616 3116 2784 2803 
L 2784 3322 
L 3909 3322 
L 3909 2988 
L 3359 2988 
z
M 2784 1825 
Q 2784 2422 2554 2737 
Q 2325 3053 1888 3053 
Q 1444 3053 1217 2703 
Q 991 2353 991 1663 
Q 991 975 1217 622 
Q 1444 269 1888 269 
Q 2325 269 2554 583 
Q 2784 897 2784 1497 
L 2784 1825 
z
" transform="scale(0.015625)"/>
       <path id="DejaVuSerif-74" d="M 691 2988 
L 184 2988 
L 184 3322 
L 691 3322 
L 691 4353 
L 1269 4353 
L 1269 3322 
L 2350 3322 
L 2350 2988 
L 1269 2988 
L 1269 878 
Q 1269 456 1350 337 
Q 1431 219 1650 219 
Q 1875 219 1978 351 
Q 2081 484 2088 781 
L 2522 781 
Q 2497 328 2275 118 
Q 2053 -91 1600 -91 
Q 1103 -91 897 129 
Q 691 350 691 878 
L 691 2988 
z
" transform="scale(0.015625)"/>
       <path id="DejaVuSerif-68" d="M 263 0 
L 263 331 
L 781 331 
L 781 4531 
L 231 4531 
L 231 4863 
L 1356 4863 
L 1356 2731 
Q 1516 3069 1770 3241 
Q 2025 3413 2363 3413 
Q 2913 3413 3172 3097 
Q 3431 2781 3431 2113 
L 3431 331 
L 3944 331 
L 3944 0 
L 2356 0 
L 2356 331 
L 2853 331 
L 2853 1931 
Q 2853 2541 2704 2764 
Q 2556 2988 2175 2988 
Q 1775 2988 1565 2697 
Q 1356 2406 1356 1850 
L 1356 331 
L 1856 331 
L 1856 0 
L 263 0 
z
" transform="scale(0.015625)"/>
       <path id="DejaVuSerif-20" transform="scale(0.015625)"/>
       <path id="DejaVuSerif-5b" d="M 550 4863 
L 2003 4863 
L 2003 4531 
L 1147 4531 
L 1147 -513 
L 2003 -513 
L 2003 -844 
L 550 -844 
L 550 4863 
z
" transform="scale(0.015625)"/>
       <path id="STIXGeneral-Italic-3bc" d="M 3002 749 
L 3091 691 
Q 2797 237 2614 83 
Q 2432 -70 2214 -70 
Q 2080 -70 1990 6 
Q 1901 83 1901 218 
Q 1901 416 1997 704 
L 2208 1370 
L 2202 1370 
Q 1766 595 1475 268 
Q 1184 -58 902 -58 
Q 723 -58 672 122 
Q 614 -109 547 -374 
Q 480 -640 451 -758 
Q 422 -877 384 -1005 
Q 346 -1133 314 -1197 
Q 282 -1261 243 -1312 
L -211 -1312 
Q -58 -1088 70 -595 
L 909 2739 
L 1389 2739 
L 909 832 
Q 883 717 883 659 
Q 883 352 1139 352 
Q 1395 352 1811 969 
Q 2227 1587 2323 1958 
L 2534 2739 
L 3027 2739 
L 2522 819 
Q 2400 333 2400 326 
Q 2400 230 2470 230 
Q 2547 230 2652 329 
Q 2758 429 3002 749 
z
" transform="scale(0.015625)"/>
       <path id="DejaVuSerif-6d" d="M 3316 2675 
Q 3481 3041 3739 3227 
Q 3997 3413 4341 3413 
Q 4863 3413 5119 3089 
Q 5375 2766 5375 2113 
L 5375 331 
L 5894 331 
L 5894 0 
L 4300 0 
L 4300 331 
L 4800 331 
L 4800 2047 
Q 4800 2556 4650 2772 
Q 4500 2988 4153 2988 
Q 3769 2988 3567 2697 
Q 3366 2406 3366 1850 
L 3366 331 
L 3866 331 
L 3866 0 
L 2291 0 
L 2291 331 
L 2791 331 
L 2791 2069 
Q 2791 2566 2641 2777 
Q 2491 2988 2144 2988 
Q 1759 2988 1557 2697 
Q 1356 2406 1356 1850 
L 1356 331 
L 1856 331 
L 1856 0 
L 263 0 
L 263 331 
L 781 331 
L 781 2994 
L 231 2994 
L 231 3322 
L 1356 3322 
L 1356 2731 
Q 1516 3063 1762 3238 
Q 2009 3413 2322 3413 
Q 2709 3413 2968 3220 
Q 3228 3028 3316 2675 
z
" transform="scale(0.015625)"/>
       <path id="DejaVuSerif-5d" d="M 1947 4863 
L 1947 -844 
L 494 -844 
L 494 -513 
L 1350 -513 
L 1350 4531 
L 494 4531 
L 494 4863 
L 1947 4863 
z
" transform="scale(0.015625)"/>
      </defs>
      <use xlink:href="#DejaVuSerif-57" transform="translate(0 0.015625)"/>
      <use xlink:href="#DejaVuSerif-61" transform="translate(102.783203 0.015625)"/>
      <use xlink:href="#DejaVuSerif-76" transform="translate(162.402344 0.015625)"/>
      <use xlink:href="#DejaVuSerif-65" transform="translate(218.896484 0.015625)"/>
      <use xlink:href="#DejaVuSerif-6c" transform="translate(278.076172 0.015625)"/>
      <use xlink:href="#DejaVuSerif-65" transform="translate(310.058594 0.015625)"/>
      <use xlink:href="#DejaVuSerif-6e" transform="translate(369.238281 0.015625)"/>
      <use xlink:href="#DejaVuSerif-67" transform="translate(433.642578 0.015625)"/>
      <use xlink:href="#DejaVuSerif-74" transform="translate(497.65625 0.015625)"/>
      <use xlink:href="#DejaVuSerif-68" transform="translate(537.841797 0.015625)"/>
      <use xlink:href="#DejaVuSerif-20" transform="translate(602.246094 0.015625)"/>
      <use xlink:href="#DejaVuSerif-5b" transform="translate(634.033203 0.015625)"/>
      <use xlink:href="#STIXGeneral-Italic-3bc" transform="translate(673.046875 0.015625)"/>
      <use xlink:href="#DejaVuSerif-6d" transform="translate(725.646866 0.015625)"/>
      <use xlink:href="#DejaVuSerif-5d" transform="translate(820.471085 0.015625)"/>
     </g>
    </g>
   </g>
   <g id="matplotlib.axis_2">
    <g id="ytick_1">
     <g id="line2d_6">
      <defs>
       <path id="m1df67d781e" d="M 0 0 
L -3.5 0 
" style="stroke: #000000; stroke-width: 0.8"/>
      </defs>
      <g>
       <use xlink:href="#m1df67d781e" x="54" y="248.298836" style="stroke: #000000; stroke-width: 0.8"/>
      </g>
     </g>
     <g id="text_7">
      <!-- 0.0 -->
      <g transform="translate(31.096875 252.098055)scale(0.1 -0.1)">
       <defs>
        <path id="DejaVuSerif-30" d="M 2034 219 
Q 2513 219 2750 744 
Q 2988 1269 2988 2328 
Q 2988 3391 2750 3916 
Q 2513 4441 2034 4441 
Q 1556 4441 1318 3916 
Q 1081 3391 1081 2328 
Q 1081 1269 1318 744 
Q 1556 219 2034 219 
z
M 2034 -91 
Q 1275 -91 848 546 
Q 422 1184 422 2328 
Q 422 3475 848 4112 
Q 1275 4750 2034 4750 
Q 2797 4750 3222 4112 
Q 3647 3475 3647 2328 
Q 3647 1184 3222 546 
Q 2797 -91 2034 -91 
z
" transform="scale(0.015625)"/>
        <path id="DejaVuSerif-2e" d="M 603 325 
Q 603 500 722 622 
Q 841 744 1019 744 
Q 1191 744 1312 622 
Q 1434 500 1434 325 
Q 1434 153 1312 31 
Q 1191 -91 1019 -91 
Q 841 -91 722 29 
Q 603 150 603 325 
z
" transform="scale(0.015625)"/>
       </defs>
       <use xlink:href="#DejaVuSerif-30"/>
       <use xlink:href="#DejaVuSerif-2e" x="63.623047"/>
       <use xlink:href="#DejaVuSerif-30" x="95.410156"/>
      </g>
     </g>
    </g>
    <g id="ytick_2">
     <g id="line2d_7">
      <g>
       <use xlink:href="#m1df67d781e" x="54" y="206.275269" style="stroke: #000000; stroke-width: 0.8"/>
      </g>
     </g>
     <g id="text_8">
      <!-- 0.5 -->
      <g transform="translate(31.096875 210.074488)scale(0.1 -0.1)">
       <use xlink:href="#DejaVuSerif-30"/>
       <use xlink:href="#DejaVuSerif-2e" x="63.623047"/>
       <use xlink:href="#DejaVuSerif-35" x="95.410156"/>
      </g>
     </g>
    </g>
    <g id="ytick_3">
     <g id="line2d_8">
      <g>
       <use xlink:href="#m1df67d781e" x="54" y="164.251702" style="stroke: #000000; stroke-width: 0.8"/>
      </g>
     </g>
     <g id="text_9">
      <!-- 1.0 -->
      <g transform="translate(31.096875 168.05092)scale(0.1 -0.1)">
       <use xlink:href="#DejaVuSerif-31"/>
       <use xlink:href="#DejaVuSerif-2e" x="63.623047"/>
       <use xlink:href="#DejaVuSerif-30" x="95.410156"/>
      </g>
     </g>
    </g>
    <g id="ytick_4">
     <g id="line2d_9">
      <g>
       <use xlink:href="#m1df67d781e" x="54" y="122.228134" style="stroke: #000000; stroke-width: 0.8"/>
      </g>
     </g>
     <g id="text_10">
      <!-- 1.5 -->
      <g transform="translate(31.096875 126.027353)scale(0.1 -0.1)">
       <use xlink:href="#DejaVuSerif-31"/>
       <use xlink:href="#DejaVuSerif-2e" x="63.623047"/>
       <use xlink:href="#DejaVuSerif-35" x="95.410156"/>
      </g>
     </g>
    </g>
    <g id="ytick_5">
     <g id="line2d_10">
      <g>
       <use xlink:href="#m1df67d781e" x="54" y="80.204567" style="stroke: #000000; stroke-width: 0.8"/>
      </g>
     </g>
     <g id="text_11">
      <!-- 2.0 -->
      <g transform="translate(31.096875 84.003786)scale(0.1 -0.1)">
       <use xlink:href="#DejaVuSerif-32"/>
       <use xlink:href="#DejaVuSerif-2e" x="63.623047"/>
       <use xlink:href="#DejaVuSerif-30" x="95.410156"/>
      </g>
     </g>
    </g>
    <g id="ytick_6">
     <g id="line2d_11">
      <g>
       <use xlink:href="#m1df67d781e" x="54" y="38.181" style="stroke: #000000; stroke-width: 0.8"/>
      </g>
     </g>
     <g id="text_12">
      <!-- 2.5 -->
      <g transform="translate(31.096875 41.980219)scale(0.1 -0.1)">
       <use xlink:href="#DejaVuSerif-32"/>
       <use xlink:href="#DejaVuSerif-2e" x="63.623047"/>
       <use xlink:href="#DejaVuSerif-35" x="95.410156"/>
      </g>
     </g>
    </g>
    <g id="text_13">
     <!-- Flux $F_\lambda$ [$10^{12}$ W m$^{-2}$ m$^{-1}$] -->
     <g transform="translate(24.393281 223.635)rotate(-90)scale(0.13 -0.13)">
      <defs>
       <path id="DejaVuSerif-46" d="M 353 0 
L 353 331 
L 947 331 
L 947 4331 
L 353 4331 
L 353 4666 
L 4172 4666 
L 4172 3628 
L 3788 3628 
L 3788 4281 
L 1581 4281 
L 1581 2719 
L 3175 2719 
L 3175 3303 
L 3559 3303 
L 3559 1753 
L 3175 1753 
L 3175 2338 
L 1581 2338 
L 1581 331 
L 2328 331 
L 2328 0 
L 353 0 
z
" transform="scale(0.015625)"/>
       <path id="DejaVuSerif-75" d="M 2266 3322 
L 3341 3322 
L 3341 331 
L 3884 331 
L 3884 0 
L 2766 0 
L 2766 588 
Q 2606 256 2353 82 
Q 2100 -91 1766 -91 
Q 1213 -91 952 223 
Q 691 538 691 1209 
L 691 2988 
L 172 2988 
L 172 3322 
L 1269 3322 
L 1269 1388 
Q 1269 781 1417 556 
Q 1566 331 1947 331 
Q 2347 331 2556 625 
Q 2766 919 2766 1478 
L 2766 2988 
L 2266 2988 
L 2266 3322 
z
" transform="scale(0.015625)"/>
       <path id="DejaVuSerif-78" d="M 1863 2028 
L 2559 2988 
L 2113 2988 
L 2113 3322 
L 3391 3322 
L 3391 2988 
L 2950 2988 
L 2059 1759 
L 3097 331 
L 3531 331 
L 3531 0 
L 1997 0 
L 1997 331 
L 2419 331 
L 1697 1325 
L 972 331 
L 1403 331 
L 1403 0 
L 141 0 
L 141 331 
L 581 331 
L 1497 1594 
L 488 2988 
L 78 2988 
L 78 3322 
L 1563 3322 
L 1563 2988 
L 1166 2988 
L 1863 2028 
z
" transform="scale(0.015625)"/>
       <path id="STIXGeneral-Italic-46" d="M 4128 4179 
L 3923 3194 
L 3789 3206 
Q 3808 3347 3808 3418 
Q 3808 3667 3718 3772 
Q 3629 3878 3373 3923 
Q 3117 3968 2534 3968 
Q 2310 3968 2220 3926 
Q 2131 3885 2099 3763 
L 1690 2310 
Q 2003 2317 2147 2317 
Q 2291 2317 2457 2345 
Q 2624 2374 2678 2396 
Q 2733 2419 2822 2505 
Q 2912 2592 2950 2665 
Q 2989 2739 3072 2912 
L 3187 2880 
L 2701 1376 
L 2592 1408 
Q 2643 1670 2643 1798 
Q 2643 1978 2531 2029 
Q 2419 2080 2163 2080 
Q 1984 2080 1632 2099 
L 1254 736 
Q 1165 416 1165 352 
Q 1165 237 1273 179 
Q 1382 122 1658 102 
L 1658 0 
L 51 0 
L 51 102 
Q 314 122 410 224 
Q 506 326 582 602 
L 1370 3430 
Q 1434 3661 1434 3821 
Q 1434 3955 1347 4003 
Q 1261 4051 947 4077 
L 947 4179 
L 4128 4179 
z
" transform="scale(0.015625)"/>
       <path id="STIXGeneral-Italic-3bb" d="M 2656 787 
L 2758 787 
Q 2560 -102 2112 -102 
Q 1965 -102 1869 48 
Q 1773 198 1773 499 
Q 1773 672 1789 889 
Q 1805 1107 1833 1446 
Q 1862 1786 1875 2016 
L 538 0 
L -77 0 
L 1907 2739 
Q 1933 2970 1933 3245 
Q 1933 3936 1619 3936 
Q 1530 3936 1408 3821 
Q 1286 3706 1203 3462 
L 1101 3462 
Q 1312 4339 1747 4339 
Q 1926 4339 2041 4115 
Q 2157 3891 2157 3475 
Q 2157 3040 2093 2192 
Q 2029 1344 2029 941 
Q 2029 602 2089 451 
Q 2150 301 2291 301 
Q 2483 301 2656 787 
z
" transform="scale(0.015625)"/>
       <path id="STIXGeneral-Regular-31" d="M 2522 0 
L 755 0 
L 755 96 
Q 1107 115 1235 227 
Q 1363 339 1363 608 
L 1363 3482 
Q 1363 3795 1171 3795 
Q 1082 3795 883 3718 
L 710 3654 
L 710 3744 
L 1856 4326 
L 1914 4307 
L 1914 486 
Q 1914 275 2042 185 
Q 2170 96 2522 96 
L 2522 0 
z
" transform="scale(0.015625)"/>
       <path id="STIXGeneral-Regular-30" d="M 3046 2112 
Q 3046 1683 2963 1302 
Q 2880 922 2717 602 
Q 2554 282 2266 96 
Q 1978 -90 1600 -90 
Q 1210 -90 915 108 
Q 621 307 461 640 
Q 301 973 227 1350 
Q 154 1728 154 2150 
Q 154 2746 301 3222 
Q 448 3699 790 4012 
Q 1133 4326 1626 4326 
Q 2253 4326 2649 3712 
Q 3046 3098 3046 2112 
z
M 2432 2080 
Q 2432 3091 2217 3625 
Q 2003 4160 1587 4160 
Q 1190 4160 979 3622 
Q 768 3085 768 2106 
Q 768 1120 979 598 
Q 1190 77 1600 77 
Q 2003 77 2217 598 
Q 2432 1120 2432 2080 
z
" transform="scale(0.015625)"/>
       <path id="STIXGeneral-Regular-32" d="M 3034 877 
L 2688 0 
L 186 0 
L 186 77 
L 1325 1286 
Q 1773 1754 1965 2144 
Q 2157 2534 2157 2950 
Q 2157 3379 1920 3616 
Q 1683 3853 1267 3853 
Q 922 3853 720 3673 
Q 518 3494 326 3021 
L 192 3053 
Q 301 3648 630 3987 
Q 960 4326 1523 4326 
Q 2054 4326 2380 4006 
Q 2707 3686 2707 3200 
Q 2707 2477 1888 1613 
L 832 486 
L 2330 486 
Q 2541 486 2665 569 
Q 2790 653 2944 915 
L 3034 877 
z
" transform="scale(0.015625)"/>
       <path id="STIXGeneral-Regular-2212" d="M 3974 1408 
L 410 1408 
L 410 1830 
L 3974 1830 
L 3974 1408 
z
" transform="scale(0.015625)"/>
      </defs>
      <use xlink:href="#DejaVuSerif-46" transform="translate(0 0.409375)"/>
      <use xlink:href="#DejaVuSerif-6c" transform="translate(69.384766 0.409375)"/>
      <use xlink:href="#DejaVuSerif-75" transform="translate(101.367188 0.409375)"/>
      <use xlink:href="#DejaVuSerif-78" transform="translate(165.771484 0.409375)"/>
      <use xlink:href="#DejaVuSerif-20" transform="translate(222.167969 0.409375)"/>
      <use xlink:href="#STIXGeneral-Italic-46" transform="translate(253.955078 0.409375)"/>
      <use xlink:href="#STIXGeneral-Italic-3bb" transform="translate(315.055069 -12.81875)scale(0.7)"/>
      <use xlink:href="#DejaVuSerif-20" transform="translate(351.524435 0.409375)"/>
      <use xlink:href="#DejaVuSerif-5b" transform="translate(383.311545 0.409375)"/>
      <use xlink:href="#STIXGeneral-Regular-31" transform="translate(422.325217 0.409375)"/>
      <use xlink:href="#STIXGeneral-Regular-30" transform="translate(472.325201 0.409375)"/>
      <use xlink:href="#STIXGeneral-Regular-31" transform="translate(523.868467 35.684375)scale(0.7)"/>
      <use xlink:href="#STIXGeneral-Regular-32" transform="translate(558.868457 35.684375)scale(0.7)"/>
      <use xlink:href="#DejaVuSerif-20" transform="translate(598.277821 0.409375)"/>
      <use xlink:href="#DejaVuSerif-57" transform="translate(630.06493 0.409375)"/>
      <use xlink:href="#DejaVuSerif-20" transform="translate(732.848134 0.409375)"/>
      <use xlink:href="#DejaVuSerif-6d" transform="translate(764.635243 0.409375)"/>
      <use xlink:href="#STIXGeneral-Regular-2212" transform="translate(861.002743 35.684375)scale(0.7)"/>
      <use xlink:href="#STIXGeneral-Regular-32" transform="translate(908.952732 35.684375)scale(0.7)"/>
      <use xlink:href="#DejaVuSerif-20" transform="translate(948.362097 0.409375)"/>
      <use xlink:href="#DejaVuSerif-6d" transform="translate(980.149206 0.409375)"/>
      <use xlink:href="#STIXGeneral-Regular-2212" transform="translate(1076.516706 35.684375)scale(0.7)"/>
      <use xlink:href="#STIXGeneral-Regular-31" transform="translate(1124.466695 35.684375)scale(0.7)"/>
      <use xlink:href="#DejaVuSerif-5d" transform="translate(1163.87606 0.409375)"/>
     </g>
    </g>
   </g>
   <g id="line2d_12">
    <path d="M 69.218182 244.95654 
L 69.751755 240.527569 
L 69.886265 240.96087 
L 70.021225 240.49769 
L 70.156636 238.581523 
L 70.2925 244.377012 
L 70.428818 245.42718 
L 70.565592 245.439002 
L 70.702823 246.24 
L 70.840513 245.904573 
L 70.978663 244.495603 
L 71.117275 244.86263 
L 71.395891 242.326828 
L 71.535898 242.381315 
L 71.676373 243.867284 
L 71.817317 243.605662 
L 72.100622 239.221405 
L 72.242985 238.835859 
L 72.385824 239.092859 
L 72.529141 241.436665 
L 72.672936 240.326135 
L 72.817213 235.742692 
L 72.961971 236.475027 
L 73.252943 236.051614 
L 73.399158 236.458098 
L 73.693057 240.854235 
L 73.988925 242.927606 
L 74.137601 242.082027 
L 74.286774 242.21239 
L 74.436446 242.705534 
L 74.586619 241.740078 
L 74.737293 241.894233 
L 74.888471 241.349333 
L 75.040155 242.648058 
L 75.806213 232.662213 
L 75.960965 229.53954 
L 76.116234 214.194635 
L 76.272023 235.333167 
L 76.428332 236.073665 
L 76.585163 238.209456 
L 76.742519 243.1569 
L 76.900402 241.793057 
L 77.058811 236.871238 
L 77.217751 237.560243 
L 77.377222 234.532673 
L 77.537226 225.820583 
L 77.697765 224.167276 
L 78.020455 195.623503 
L 78.18261 210.383328 
L 78.345307 208.771655 
L 78.836668 224.849433 
L 79.332974 214.641965 
L 79.499516 206.401201 
L 79.666616 207.012227 
L 80.002493 218.960032 
L 80.171274 242.334398 
L 80.340619 244.488133 
L 80.510531 242.51566 
L 80.68101 224.65373 
L 81.023681 217.958775 
L 81.195876 210.052196 
L 81.368647 208.238267 
L 81.715924 189.393208 
L 81.890433 198.705145 
L 82.065526 193.836765 
L 82.241205 178.080613 
L 82.41747 185.582267 
L 83.128446 144.284273 
L 83.487509 118.321324 
L 83.667941 158.907749 
L 83.848977 154.313206 
L 84.030618 120.381254 
L 84.395723 143.613247 
L 84.579192 139.800303 
L 84.947972 148.857448 
L 85.133287 141.840152 
L 85.319222 158.926559 
L 85.505778 205.427536 
L 85.692958 195.447472 
L 85.880764 200.905308 
L 86.258261 181.022254 
L 86.447957 187.234294 
L 86.638287 184.342136 
L 86.829253 185.075494 
L 87.020858 189.268214 
L 87.988534 128.40032 
L 88.184014 159.681137 
L 88.380148 157.160106 
L 88.576938 144.55179 
L 88.774386 153.837732 
L 88.972494 123.489313 
L 89.171264 121.385489 
L 90.377918 63.561021 
L 90.785536 118.820656 
L 90.990368 122.706659 
L 91.195884 120.61251 
L 91.402088 109.258377 
L 91.608981 118.345739 
L 91.816565 100.786178 
L 92.024844 98.514207 
L 92.233819 85.036077 
L 92.864945 69.967549 
L 93.076729 70.777051 
L 93.289221 73.256321 
L 93.502423 61.673235 
L 93.716338 63.850182 
L 93.930968 85.111527 
L 94.362383 68.686803 
L 94.579173 68.028916 
L 94.796688 56.894758 
L 95.233901 110.843943 
L 95.453605 96.227065 
L 95.674043 111.205805 
L 95.895219 95.671325 
L 96.117133 101.361607 
L 96.33979 89.621128 
L 96.563191 91.052123 
L 97.012236 76.85696 
L 97.237885 75.240188 
L 97.464289 107.20495 
L 97.691449 84.447496 
L 97.919369 97.778586 
L 98.148051 73.809958 
L 98.377498 74.916919 
L 98.607711 81.547087 
L 98.838694 70.571707 
L 99.07045 76.463317 
L 99.30298 58.292501 
L 99.536288 61.649529 
L 99.770376 59.092132 
L 100.005246 66.204581 
L 100.240902 62.842691 
L 100.714579 50.604862 
L 100.952606 55.938629 
L 101.191429 45.001142 
L 101.43105 49.9757 
L 101.671472 49.761615 
L 101.912699 44.64 
L 102.154731 53.840356 
L 102.397573 55.266061 
L 102.641227 66.191091 
L 102.885695 55.461855 
L 103.130981 59.762635 
L 103.377087 55.004178 
L 103.624015 61.567786 
L 103.871769 50.702595 
L 104.369765 54.986814 
L 104.620013 61.901747 
L 104.871097 105.742812 
L 105.12302 71.568974 
L 105.375786 55.198375 
L 105.629396 46.616009 
L 105.883855 49.362937 
L 106.139164 48.080671 
L 106.395327 54.159948 
L 106.652346 55.483889 
L 106.910225 88.402888 
L 107.168966 54.489042 
L 107.428572 110.070968 
L 107.689045 61.298297 
L 107.95039 55.426228 
L 108.212608 61.871827 
L 108.475703 54.347068 
L 108.739678 69.219443 
L 109.270277 55.589558 
L 109.536908 51.737916 
L 109.804431 52.138212 
L 110.072848 45.908827 
L 110.342162 50.901536 
L 110.612376 46.23757 
L 110.883494 45.576711 
L 111.428453 48.413572 
L 111.702299 77.510079 
L 111.977061 58.287236 
L 112.529344 69.408765 
L 112.806871 56.489926 
L 113.085325 54.845851 
L 113.364711 54.850321 
L 113.645031 49.763028 
L 113.926288 53.783244 
L 114.208485 51.684396 
L 114.491626 57.758881 
L 114.775713 59.155708 
L 115.060751 55.626644 
L 115.921593 51.293933 
L 116.210461 58.929905 
L 116.500295 71.265202 
L 116.791097 57.892222 
L 117.082873 62.484148 
L 117.375623 69.328314 
L 117.669352 91.097954 
L 117.964064 123.087283 
L 118.259761 123.496931 
L 118.556446 121.377437 
L 118.854123 131.229175 
L 119.152795 124.833347 
L 119.452466 131.370646 
L 119.753139 133.031225 
L 120.054817 121.823528 
L 120.357504 129.056106 
L 120.661202 115.615125 
L 120.965916 123.530745 
L 121.271649 125.863808 
L 121.578403 134.639541 
L 121.886184 136.317396 
L 122.194993 139.257046 
L 122.504835 131.659059 
L 122.815712 143.226914 
L 123.127629 142.044523 
L 123.440589 146.609646 
L 123.754595 144.679225 
L 124.069651 151.573583 
L 124.385761 152.95584 
L 124.702927 149.443941 
L 125.021153 142.382691 
L 125.340444 144.227479 
L 125.98223 141.725458 
L 126.304734 145.995136 
L 126.628315 146.536832 
L 126.952979 146.519227 
L 127.278728 144.675484 
L 127.605566 143.647509 
L 127.933497 143.358542 
L 128.262524 141.094213 
L 128.592651 141.900947 
L 128.923882 137.313684 
L 129.25622 137.992585 
L 129.589669 136.090478 
L 129.924233 142.499573 
L 130.259916 134.488435 
L 130.596721 132.266063 
L 130.934652 134.794483 
L 131.273713 131.9466 
L 131.613907 133.624164 
L 131.955239 130.982249 
L 132.297712 131.958628 
L 132.986096 130.042874 
L 133.332015 124.655574 
L 133.679091 125.890636 
L 134.027327 121.054364 
L 134.376728 123.206927 
L 135.079037 119.933479 
L 135.78605 119.127332 
L 136.14133 117.72393 
L 136.497798 117.554716 
L 136.855458 118.150511 
L 137.214314 115.798491 
L 137.574369 115.85994 
L 138.298095 113.360652 
L 138.661773 112.996695 
L 139.026668 112.39411 
L 139.392783 113.646507 
L 139.760121 112.780223 
L 140.128688 113.293107 
L 140.498487 112.278464 
L 140.869522 112.275275 
L 141.241797 115.032605 
L 141.615318 116.352482 
L 142.366109 123.840676 
L 142.743388 127.277494 
L 143.121928 135.085736 
L 143.501734 135.226749 
L 144.26516 147.991576 
L 144.648788 144.198451 
L 145.033699 152.075448 
L 145.419897 154.237173 
L 146.19617 162.018094 
L 146.586254 167.488103 
L 146.977642 169.163635 
L 147.370339 170.242546 
L 147.764348 172.807294 
L 148.159675 177.941964 
L 148.556324 178.894032 
L 148.954298 180.535987 
L 149.353604 177.511134 
L 149.754244 184.320942 
L 150.156223 179.479904 
L 150.559547 184.245087 
L 150.964219 184.427843 
L 151.370244 186.196899 
L 151.777626 191.000632 
L 152.18637 186.304855 
L 152.596481 195.422691 
L 153.007963 194.479682 
L 153.420821 192.50092 
L 153.835059 192.176343 
L 154.250682 184.969122 
L 154.667694 193.077993 
L 155.086101 187.704903 
L 155.505906 187.37338 
L 155.927115 186.29068 
L 156.349732 188.522333 
L 156.773763 188.796328 
L 157.19921 189.263889 
L 157.62608 187.881552 
L 158.054378 196.552244 
L 158.484107 196.177583 
L 158.915273 194.462693 
L 159.34788 190.660664 
L 159.781934 190.935587 
L 160.217439 197.951456 
L 160.654399 196.576578 
L 161.092821 198.906109 
L 161.532709 195.52395 
L 161.974067 193.351977 
L 162.416901 195.245853 
L 162.861215 194.591146 
L 163.307015 196.392817 
L 163.754305 197.033544 
L 164.20309 195.503202 
L 164.653376 195.688543 
L 165.105168 194.142452 
L 166.013287 194.974904 
L 166.469625 192.594377 
L 166.927488 195.06666 
L 167.386882 195.675651 
L 168.310284 191.293649 
L 168.774301 192.826129 
L 169.23987 191.274289 
L 169.706995 191.432689 
L 170.175682 189.602072 
L 170.645936 189.119465 
L 171.117762 189.376622 
L 171.591166 188.699054 
L 172.066152 188.589731 
L 172.542726 187.337111 
L 173.020894 187.692018 
L 173.50066 188.510995 
L 173.98203 187.735384 
L 174.46501 188.021343 
L 174.949604 187.537874 
L 175.435818 191.352831 
L 175.923658 188.399743 
L 176.413129 189.377864 
L 176.904236 187.57633 
L 177.396986 189.039968 
L 177.891382 188.590582 
L 178.387432 188.579697 
L 178.88514 188.993428 
L 179.384512 190.1635 
L 179.885553 190.244287 
L 180.38827 190.636697 
L 180.892667 191.214315 
L 181.398751 204.611619 
L 181.906526 199.385361 
L 182.415999 197.978007 
L 182.927176 200.08968 
L 183.440061 206.173132 
L 183.954662 203.766709 
L 184.470982 204.336745 
L 184.989029 204.439752 
L 185.508808 206.974853 
L 186.030325 207.33921 
L 186.553585 205.019621 
L 187.078594 207.759693 
L 187.605359 211.601197 
L 188.133885 208.769787 
L 188.664178 212.16903 
L 189.196244 213.783446 
L 189.730089 214.670191 
L 190.265718 216.18439 
L 190.803138 215.788162 
L 191.342355 218.378188 
L 191.883375 219.971652 
L 192.426203 219.269948 
L 192.970847 222.131023 
L 193.517311 223.069515 
L 194.065602 222.884398 
L 194.615726 222.892392 
L 195.167689 225.207239 
L 195.721498 225.507865 
L 196.277159 224.725263 
L 196.834677 226.892601 
L 197.394059 227.111832 
L 197.955311 226.196704 
L 198.518439 226.491013 
L 199.083451 227.86831 
L 199.650351 225.612194 
L 200.219146 228.90287 
L 200.789843 227.797433 
L 201.362449 227.035579 
L 201.936968 226.970943 
L 202.513408 225.97031 
L 203.672077 226.752287 
L 204.254318 226.094486 
L 204.838506 227.151227 
L 205.424647 224.914218 
L 206.012747 227.789748 
L 206.602814 228.242972 
L 207.788872 228.267143 
L 208.982874 230.656383 
L 209.582871 230.795362 
L 210.184873 229.615644 
L 210.788889 230.864906 
L 211.394923 230.26715 
L 212.002984 230.582068 
L 212.613078 232.41575 
L 213.225211 231.022341 
L 213.839391 231.520092 
L 214.455624 230.888434 
L 215.073917 232.499774 
L 215.694278 231.936686 
L 216.316713 233.310909 
L 216.941228 231.544272 
L 217.567832 232.144485 
L 218.19653 233.167405 
L 218.82733 230.476749 
L 219.46024 234.40258 
L 220.095265 231.62954 
L 220.732413 233.737757 
L 221.371692 232.463855 
L 222.013107 233.886291 
L 222.656667 233.187205 
L 223.302379 234.269971 
L 223.95025 233.110362 
L 224.600286 233.815992 
L 225.252496 233.701478 
L 225.906886 234.347028 
L 226.563464 233.382605 
L 227.222237 234.443625 
L 227.883213 232.884046 
L 228.546398 235.498227 
L 229.211801 233.338672 
L 229.879428 234.626164 
L 230.549288 234.151252 
L 231.221386 234.913185 
L 231.895732 234.084165 
L 232.572333 235.298956 
L 233.251195 233.764517 
L 233.932327 234.747201 
L 234.615736 234.09018 
L 235.30143 234.248859 
L 235.989417 234.104034 
L 236.679703 234.514278 
L 237.372298 233.768977 
L 238.067208 234.533665 
L 238.764441 234.493732 
L 239.464005 234.618589 
L 240.165908 233.649679 
L 240.870158 234.843926 
L 241.576762 234.283407 
L 242.285729 234.352366 
L 242.997066 234.559604 
L 243.710781 234.605963 
L 244.426882 234.436373 
L 245.145377 233.689511 
L 245.866275 234.076265 
L 247.315308 234.606955 
L 248.04346 234.402664 
L 248.774047 234.521795 
L 249.507076 234.055795 
L 250.242555 234.137305 
L 250.980494 234.437718 
L 252.463781 234.260205 
L 253.209146 234.396001 
L 253.957002 234.311162 
L 254.707359 234.413576 
L 255.460225 235.188843 
L 256.215608 234.294744 
L 256.973516 234.459924 
L 257.733958 234.425667 
L 258.496942 234.799374 
L 259.262477 234.197544 
L 260.030572 234.686666 
L 260.801235 234.675209 
L 261.574474 234.501301 
L 262.350298 234.766039 
L 263.128716 234.571204 
L 263.909736 235.130526 
L 264.693368 234.962823 
L 266.2685 235.09088 
L 267.060017 234.971011 
L 267.854181 235.248842 
L 271.057476 235.308598 
L 272.675233 235.693136 
L 273.48817 235.316319 
L 274.303825 235.787723 
L 275.122207 235.464017 
L 275.943325 235.458189 
L 276.767188 235.943367 
L 277.593805 235.586791 
L 278.423186 235.851712 
L 279.25534 235.839081 
L 280.090276 236.002524 
L 280.928004 235.799313 
L 281.768532 236.141359 
L 282.61187 236.066919 
L 283.458028 236.287776 
L 284.307015 236.393517 
L 285.15884 236.198941 
L 286.013513 236.452639 
L 287.731441 236.581696 
L 288.594715 236.91285 
L 289.460875 236.796891 
L 291.201892 237.13356 
L 292.076768 237.571579 
L 292.95457 237.617 
L 298.283352 238.612677 
L 299.181904 239.155093 
L 300.08346 239.54971 
L 300.98803 239.297522 
L 301.895624 239.580157 
L 303.719926 239.787502 
L 304.636653 239.86943 
L 305.556446 240.193715 
L 306.479313 240.217005 
L 308.334315 240.576682 
L 309.26647 240.38245 
L 311.140139 241.179431 
L 312.081674 241.075013 
L 313.026357 240.83623 
L 313.974199 241.777016 
L 314.925209 241.97891 
L 315.879399 241.951452 
L 317.79736 242.554256 
L 320.698414 243.162312 
L 321.671905 243.172684 
L 324.61195 243.593915 
L 325.598525 243.579871 
L 326.588399 243.760742 
L 327.581582 243.778289 
L 328.578085 243.987502 
L 330.581098 243.979269 
L 331.58763 244.132226 
L 334.62746 244.236602 
L 335.64752 244.10077 
L 336.67099 244.17473 
L 337.697882 244.096166 
L 341.839895 244.216583 
L 342.884068 244.130875 
L 344.982898 244.419276 
L 346.037579 244.55158 
L 347.095785 244.42004 
L 348.15753 244.649412 
L 349.222824 244.377741 
L 350.29168 244.720539 
L 351.364109 244.504248 
L 352.440124 244.812464 
L 353.519736 244.638749 
L 355.689801 244.974757 
L 356.780278 244.851102 
L 357.8744 245.071975 
L 358.97218 244.753479 
L 360.073631 245.145182 
L 361.178764 245.045838 
L 363.400126 245.163209 
L 364.516381 245.128503 
L 365.636367 245.262729 
L 366.760098 245.059368 
L 367.887585 245.248464 
L 369.018842 245.232706 
L 371.292715 245.417428 
L 372.435357 245.313421 
L 373.581818 245.34944 
L 373.581818 245.34944 
" clip-path="url(#peaec20998f)" style="fill: none; stroke-dasharray: 7.77,3.36; stroke-dashoffset: 0; stroke: #e76f51; stroke-width: 2.1"/>
   </g>
   <g id="line2d_13">
    <path d="M 69.218182 244.402866 
L 69.617693 241.424065 
L 69.751755 239.66973 
L 69.886265 240.310381 
L 70.021225 239.66513 
L 70.156636 237.967203 
L 70.428818 244.893212 
L 70.565592 244.963121 
L 70.702823 245.876566 
L 70.840513 245.518877 
L 70.978663 244.02129 
L 71.117275 244.140516 
L 71.395891 241.553984 
L 71.535898 241.586708 
L 71.676373 243.229104 
L 71.817317 242.944006 
L 71.958733 239.589842 
L 72.242985 238.005452 
L 72.385824 238.163149 
L 72.529141 240.610435 
L 72.672936 239.184217 
L 72.817213 235.031872 
L 72.961971 235.828085 
L 73.252943 234.688797 
L 73.399158 235.788832 
L 73.693057 240.04567 
L 73.988925 242.514558 
L 74.286774 241.439562 
L 74.436446 241.968486 
L 74.586619 240.923715 
L 74.888471 240.671132 
L 75.040155 241.581913 
L 75.651977 234.675721 
L 75.960965 227.957955 
L 76.116234 212.468481 
L 76.272023 233.629455 
L 76.585163 236.959659 
L 76.742519 242.249778 
L 76.900402 240.709178 
L 77.058811 235.899903 
L 77.217751 236.444294 
L 77.377222 233.143836 
L 77.537226 224.339814 
L 77.697765 222.066959 
L 78.020455 194.829996 
L 78.18261 207.203862 
L 78.345307 204.025642 
L 78.836668 219.410727 
L 79.332974 209.189939 
L 79.499516 200.436155 
L 79.666616 201.526828 
L 79.834274 211.857922 
L 80.002493 215.094042 
L 80.171274 238.285997 
L 80.340619 241.252848 
L 80.510531 239.573152 
L 80.68101 220.354124 
L 80.85206 219.71746 
L 81.023681 215.395742 
L 81.195876 207.289328 
L 81.368647 205.786396 
L 81.715924 186.554601 
L 81.890433 197.29517 
L 82.065526 191.171689 
L 82.241205 175.970239 
L 82.41747 182.158687 
L 83.128446 141.951766 
L 83.487509 116.961918 
L 83.667941 158.017352 
L 83.848977 152.588133 
L 84.030618 118.985929 
L 84.395723 140.065943 
L 84.579192 138.413443 
L 84.947972 148.42326 
L 85.133287 140.947926 
L 85.319222 159.979939 
L 85.505778 204.761724 
L 85.692958 194.732321 
L 85.880764 200.156407 
L 86.258261 180.892878 
L 86.447957 185.182724 
L 86.638287 181.379438 
L 86.829253 181.784544 
L 87.020858 185.956732 
L 87.793705 134.765338 
L 87.988534 127.157199 
L 88.184014 156.322031 
L 88.380148 154.628929 
L 88.576938 141.18326 
L 88.774386 149.798787 
L 88.972494 121.709326 
L 89.171264 120.749395 
L 89.77157 87.344301 
L 89.973012 81.298401 
L 90.175127 69.22697 
L 90.377918 64.903406 
L 90.581387 103.179259 
L 90.785536 119.276184 
L 90.990368 124.070106 
L 91.195884 122.845253 
L 91.402088 112.076618 
L 91.608981 120.058336 
L 91.816565 103.603739 
L 92.024844 101.756165 
L 92.233819 87.925622 
L 92.864945 72.259912 
L 93.076729 73.635157 
L 93.289221 77.707869 
L 93.502423 66.229002 
L 93.716338 67.546197 
L 93.930968 86.889195 
L 94.146315 75.61363 
L 94.579173 68.642456 
L 94.796688 58.059387 
L 95.233901 112.328802 
L 95.453605 95.575076 
L 95.674043 110.012709 
L 95.895219 96.700723 
L 96.117133 101.752988 
L 96.33979 90.763949 
L 96.563191 91.239226 
L 97.012236 78.453684 
L 97.237885 76.398438 
L 97.464289 107.711307 
L 97.691449 86.350091 
L 97.919369 99.703249 
L 98.148051 75.472585 
L 98.377498 76.940093 
L 98.607711 81.205036 
L 98.838694 72.483277 
L 99.07045 77.808448 
L 99.30298 60.311156 
L 99.536288 63.949899 
L 99.770376 60.442002 
L 100.005246 67.996179 
L 100.477345 60.186242 
L 100.714579 52.961689 
L 100.952606 57.051559 
L 101.191429 45.731242 
L 101.43105 51.555093 
L 101.671472 50.624366 
L 101.912699 46.172645 
L 102.154731 54.690998 
L 102.397573 56.493936 
L 102.641227 67.184022 
L 102.885695 58.186499 
L 103.130981 61.709414 
L 103.377087 56.664733 
L 103.624015 61.665688 
L 103.871769 52.155097 
L 104.369765 55.668049 
L 104.620013 61.604136 
L 104.871097 105.421228 
L 105.12302 73.481118 
L 105.375786 55.567461 
L 105.629396 47.560684 
L 105.883855 50.602988 
L 106.139164 49.420443 
L 106.395327 55.820014 
L 106.652346 56.268708 
L 106.910225 88.276472 
L 107.168966 55.691353 
L 107.428572 109.122805 
L 107.689045 62.305018 
L 107.95039 56.473113 
L 108.212608 63.234615 
L 108.475703 55.45823 
L 108.739678 70.861925 
L 109.270277 55.902233 
L 109.536908 53.461358 
L 109.804431 52.939468 
L 110.072848 47.447319 
L 110.342162 51.729863 
L 110.612376 47.485407 
L 110.883494 46.505834 
L 111.155519 48.702521 
L 111.428453 49.482509 
L 111.702299 78.446867 
L 111.977061 59.012842 
L 112.529344 70.55719 
L 112.806871 57.09817 
L 113.085325 56.361659 
L 113.364711 56.364894 
L 113.645031 51.108685 
L 113.926288 54.86669 
L 114.208485 52.864952 
L 114.491626 59.434379 
L 114.775713 60.841401 
L 115.060751 57.193471 
L 115.633687 53.607669 
L 115.921593 52.674076 
L 116.210461 59.99818 
L 116.500295 72.640788 
L 116.791097 58.673631 
L 117.375623 69.23618 
L 117.669352 90.452291 
L 117.964064 122.272498 
L 118.259761 121.90831 
L 118.556446 120.072118 
L 118.854123 128.896361 
L 119.152795 124.558786 
L 119.452466 129.0718 
L 119.753139 131.173452 
L 120.054817 120.801672 
L 120.357504 127.21561 
L 120.661202 116.325096 
L 121.271649 124.82932 
L 121.578403 132.8646 
L 122.194993 137.233897 
L 122.504835 130.812029 
L 122.815712 142.526277 
L 123.127629 141.165856 
L 123.440589 144.459351 
L 123.754595 144.139477 
L 124.069651 148.812346 
L 124.385761 150.388442 
L 124.702927 146.828143 
L 125.021153 141.730704 
L 125.340444 142.240087 
L 125.660801 140.780652 
L 125.98223 140.585876 
L 126.304734 143.370442 
L 126.628315 144.469752 
L 126.952979 144.474045 
L 127.278728 142.37047 
L 127.933497 142.19279 
L 128.262524 140.179238 
L 128.592651 140.546886 
L 128.923882 137.059943 
L 129.25622 136.893513 
L 129.589669 135.681104 
L 129.924233 141.513123 
L 130.259916 133.72025 
L 130.596721 132.473688 
L 130.934652 134.195314 
L 131.273713 131.55756 
L 131.613907 133.10945 
L 131.955239 130.208072 
L 132.297712 131.103991 
L 132.986096 129.521683 
L 133.332015 124.429201 
L 133.679091 125.268188 
L 134.027327 121.145625 
L 134.376728 122.848128 
L 135.079037 119.589583 
L 135.78605 118.779134 
L 136.14133 117.568891 
L 136.497798 117.646517 
L 136.855458 117.911055 
L 137.214314 115.47583 
L 137.574369 115.814235 
L 138.298095 113.400996 
L 138.661773 113.24247 
L 139.026668 112.706983 
L 139.392783 113.872449 
L 139.760121 112.959731 
L 140.128688 113.700212 
L 140.498487 112.906121 
L 140.869522 112.804572 
L 141.241797 115.483632 
L 141.615318 116.898767 
L 142.743388 127.60613 
L 143.121928 134.940428 
L 143.501734 134.761589 
L 144.26516 147.278461 
L 144.648788 145.399743 
L 145.033699 151.418769 
L 145.419897 154.025786 
L 146.19617 160.503155 
L 146.586254 166.048407 
L 146.977642 168.752833 
L 147.370339 170.242897 
L 147.764348 172.712068 
L 148.159675 176.303174 
L 148.954298 179.416863 
L 149.353604 177.322063 
L 149.754244 183.445063 
L 150.156223 179.279903 
L 150.559547 182.68785 
L 150.964219 183.004644 
L 151.370244 185.329811 
L 151.777626 190.143185 
L 152.18637 185.764735 
L 152.596481 194.451669 
L 153.420821 191.221388 
L 153.835059 190.936115 
L 154.250682 184.088423 
L 154.667694 191.50891 
L 155.086101 186.888744 
L 155.505906 186.565649 
L 155.927115 185.929572 
L 156.349732 187.534855 
L 156.773763 188.04286 
L 157.19921 189.560334 
L 157.62608 187.974862 
L 158.054378 195.695295 
L 158.484107 195.81296 
L 159.34788 190.574474 
L 159.781934 190.634376 
L 160.217439 197.563266 
L 160.654399 196.401048 
L 161.092821 198.469878 
L 161.532709 195.04294 
L 161.974067 193.232676 
L 162.416901 194.670744 
L 162.861215 194.205366 
L 163.754305 196.416457 
L 164.20309 195.036847 
L 164.653376 195.434727 
L 165.105168 193.778299 
L 165.558469 193.918569 
L 166.013287 194.65757 
L 166.469625 192.367224 
L 166.927488 194.630136 
L 167.386882 195.111634 
L 168.310284 191.193603 
L 168.774301 192.49417 
L 169.23987 191.092206 
L 169.706995 191.169652 
L 170.175682 189.65746 
L 170.645936 189.26711 
L 171.117762 189.497313 
L 171.591166 188.789293 
L 172.066152 188.777705 
L 172.542726 187.71718 
L 173.020894 187.970496 
L 173.50066 188.741367 
L 173.98203 188.074967 
L 174.46501 188.344204 
L 174.949604 188.013434 
L 175.435818 191.569735 
L 175.923658 188.82819 
L 176.413129 189.649912 
L 176.904236 188.189775 
L 177.396986 189.567573 
L 177.891382 189.177666 
L 178.387432 189.288817 
L 178.88514 189.698421 
L 179.384512 190.684433 
L 179.885553 190.81166 
L 180.892667 191.752055 
L 181.398751 204.158706 
L 181.906526 199.525985 
L 182.415999 198.174264 
L 182.927176 200.135432 
L 183.440061 206.187444 
L 183.954662 203.683351 
L 184.470982 204.297164 
L 184.989029 204.443183 
L 185.508808 207.168984 
L 186.030325 207.247031 
L 186.553585 205.176347 
L 187.078594 207.759315 
L 187.605359 211.338582 
L 188.133885 208.851522 
L 188.664178 211.924616 
L 189.196244 213.428812 
L 189.730089 214.276477 
L 190.265718 215.726006 
L 190.803138 215.603606 
L 191.342355 217.99693 
L 191.883375 219.469825 
L 192.426203 218.899967 
L 192.970847 221.608809 
L 193.517311 222.492732 
L 194.065602 222.293556 
L 194.615726 222.353779 
L 195.167689 224.384192 
L 195.721498 224.910665 
L 196.277159 224.070268 
L 196.834677 225.909755 
L 197.394059 226.106631 
L 197.955311 225.510317 
L 198.518439 225.782318 
L 199.083451 227.415316 
L 199.650351 225.212914 
L 200.219146 227.927411 
L 201.362449 226.445938 
L 201.936968 226.304548 
L 202.513408 225.603088 
L 203.672077 226.368314 
L 204.254318 225.572432 
L 204.838506 226.489746 
L 205.424647 224.58547 
L 206.012747 227.309339 
L 206.602814 227.557877 
L 207.194853 227.637701 
L 207.788872 227.520961 
L 208.384877 228.938244 
L 208.982874 230.044508 
L 209.582871 229.922429 
L 210.184873 229.069767 
L 210.788889 230.400278 
L 211.394923 229.72424 
L 212.002984 229.887091 
L 212.613078 231.844607 
L 213.225211 230.501029 
L 213.839391 231.17811 
L 214.455624 230.308813 
L 215.073917 231.904847 
L 215.694278 231.411798 
L 216.316713 232.649389 
L 216.941228 231.136313 
L 218.19653 232.529622 
L 218.82733 230.347393 
L 219.46024 233.659296 
L 220.095265 231.139073 
L 220.732413 233.113398 
L 221.371692 232.099381 
L 222.013107 233.298612 
L 222.656667 232.877231 
L 223.302379 233.680953 
L 223.95025 232.756111 
L 224.600286 233.457712 
L 225.252496 233.221176 
L 225.906886 233.984565 
L 226.563464 232.983431 
L 227.222237 233.927587 
L 227.883213 232.587911 
L 228.546398 234.866916 
L 229.211801 232.978326 
L 229.879428 234.244409 
L 230.549288 233.717917 
L 231.221386 234.619085 
L 231.895732 233.594253 
L 232.572333 234.893058 
L 233.251195 233.458962 
L 233.932327 234.358401 
L 234.615736 233.772013 
L 235.30143 234.062631 
L 235.989417 233.784738 
L 236.679703 234.256538 
L 237.372298 233.615985 
L 238.067208 234.286167 
L 238.764441 234.108487 
L 239.464005 234.308141 
L 240.165908 233.583001 
L 240.870158 234.595488 
L 241.576762 234.027735 
L 242.285729 234.091803 
L 242.997066 234.317652 
L 243.710781 234.343146 
L 244.426882 234.234848 
L 245.145377 233.523773 
L 246.589582 234.26918 
L 247.315308 234.389285 
L 248.04346 234.166594 
L 248.774047 234.28728 
L 249.507076 233.929479 
L 251.7209 234.248678 
L 252.463781 234.136453 
L 253.209146 234.215364 
L 253.957002 234.121734 
L 254.707359 234.276033 
L 255.460225 235.022708 
L 256.215608 234.197007 
L 256.973516 234.390476 
L 257.733958 234.329805 
L 258.496942 234.679177 
L 259.262477 234.145504 
L 260.030572 234.608966 
L 260.801235 234.685226 
L 261.574474 234.394576 
L 262.350298 234.715009 
L 263.128716 234.552995 
L 263.909736 235.011428 
L 264.693368 234.884649 
L 266.2685 235.008622 
L 267.060017 234.926523 
L 267.854181 235.203133 
L 268.651 235.21497 
L 269.450483 235.100933 
L 272.675233 235.603327 
L 273.48817 235.33634 
L 274.303825 235.731192 
L 275.122207 235.466089 
L 275.943325 235.446422 
L 276.767188 235.921795 
L 277.593805 235.582785 
L 278.423186 235.826884 
L 280.928004 235.799366 
L 281.768532 236.166817 
L 282.61187 236.093234 
L 283.458028 236.297046 
L 284.307015 236.376059 
L 285.15884 236.231845 
L 286.013513 236.476825 
L 287.731441 236.604695 
L 288.594715 236.919359 
L 289.460875 236.818226 
L 291.201892 237.168002 
L 292.076768 237.559065 
L 294.718987 237.873767 
L 295.605622 238.177899 
L 298.283352 238.644458 
L 300.08346 239.492114 
L 300.98803 239.27769 
L 301.895624 239.544392 
L 304.636653 239.874406 
L 305.556446 240.15417 
L 307.405266 240.312579 
L 308.334315 240.534204 
L 309.26647 240.374026 
L 311.140139 241.105975 
L 312.081674 241.022665 
L 313.026357 240.817473 
L 313.974199 241.705466 
L 314.925209 241.903931 
L 315.879399 241.894963 
L 317.79736 242.488816 
L 320.698414 243.06877 
L 321.671905 243.088733 
L 324.61195 243.490867 
L 325.598525 243.503286 
L 326.588399 243.662368 
L 327.581582 243.685741 
L 328.578085 243.889134 
L 330.581098 243.894805 
L 332.597526 244.043463 
L 333.610799 244.005964 
L 334.62746 244.126027 
L 335.64752 244.010366 
L 336.67099 244.100034 
L 337.697882 244.010552 
L 340.799202 244.193159 
L 342.884068 244.088851 
L 346.037579 244.459509 
L 347.095785 244.372794 
L 348.15753 244.561885 
L 349.222824 244.328457 
L 350.29168 244.643698 
L 351.364109 244.472025 
L 352.440124 244.745286 
L 353.519736 244.594673 
L 355.689801 244.881524 
L 356.780278 244.796416 
L 357.8744 244.994262 
L 358.97218 244.705269 
L 360.073631 245.070078 
L 361.178764 244.978786 
L 363.400126 245.083487 
L 364.516381 245.066709 
L 365.636367 245.185626 
L 366.760098 245.012735 
L 367.887585 245.195586 
L 369.018842 245.173253 
L 371.292715 245.346121 
L 372.435357 245.244123 
L 373.581818 245.280373 
L 373.581818 245.280373 
" clip-path="url(#peaec20998f)" style="fill: none; stroke: #2a9d8f; stroke-width: 2.1; stroke-linecap: square"/>
   </g>
   <g id="patch_3">
    <path d="M 54 256.32 
L 54 34.56 
" style="fill: none; stroke: #000000; stroke-width: 0.8; stroke-linejoin: miter; stroke-linecap: square"/>
   </g>
   <g id="patch_4">
    <path d="M 54 256.32 
L 388.8 256.32 
" style="fill: none; stroke: #000000; stroke-width: 0.8; stroke-linejoin: miter; stroke-linecap: square"/>
   </g>
  </g>
 </g>
 <defs>
  <clipPath id="peaec20998f">
   <rect x="54" y="34.56" width="334.8" height="221.76"/>
  </clipPath>
 </defs>
</svg>
