<?xml version="1.0" encoding="utf-8" standalone="no"?>
<!DOCTYPE svg PUBLIC "-//W3C//DTD SVG 1.1//EN"
  "http://www.w3.org/Graphics/SVG/1.1/DTD/svg11.dtd">
<svg xmlns:xlink="http://www.w3.org/1999/xlink" width="432pt" height="144pt" viewBox="0 0 432 144" xmlns="http://www.w3.org/2000/svg" version="1.1">
 <metadata>
  <rdf:RDF xmlns:dc="http://purl.org/dc/elements/1.1/" xmlns:cc="http://creativecommons.org/ns#" xmlns:rdf="http://www.w3.org/1999/02/22-rdf-syntax-ns#">
   <cc:Work>
    <dc:type rdf:resource="http://purl.org/dc/dcmitype/StillImage"/>
    <dc:date>2025-10-04T17:48:17.508375</dc:date>
    <dc:format>image/svg+xml</dc:format>
    <dc:creator>
     <cc:Agent>
      <dc:title>Matplotlib v3.5.2, https://matplotlib.org/</dc:title>
     </cc:Agent>
    </dc:creator>
   </cc:Work>
  </rdf:RDF>
 </metadata>
 <defs>
  <style type="text/css">*{stroke-linejoin: round; stroke-linecap: butt}</style>
 </defs>
 <g id="figure_1">
  <g id="patch_1">
   <path d="M 0 144 
L 432 144 
L 432 0 
L 0 0 
L 0 144 
z
" style="fill: none"/>
  </g>
  <g id="axes_1">
   <g id="patch_2">
    <path d="M 54 128.16 
L 388.8 128.16 
L 388.8 17.28 
L 54 17.28 
L 54 128.16 
z
" style="fill: none"/>
   </g>
   <g id="line2d_1">
    <path d="M 54 65.968841 
L 388.8 65.968841 
" clip-path="url(#p0a8aafbd91)" style="fill: none; stroke-dasharray: 3.7,1.6; stroke-dashoffset: 0; stroke: #808080; stroke-opacity: 0.6"/>
   </g>
   <g id="PolyCollection_1">
    <defs>
     <path id="mf0575acc3c" d="M 69.218182 -72.726403 
L 69.218182 -78.031159 
L 69.350908 -78.031159 
L 69.484078 -78.031159 
L 69.617693 -78.031159 
L 69.751755 -78.031159 
L 69.886265 -78.031159 
L 70.021225 -78.031159 
L 70.156636 -78.031159 
L 70.2925 -78.031159 
L 70.428818 -78.031159 
L 70.565592 -78.031159 
L 70.702823 -78.031159 
L 70.840513 -78.031159 
L 70.978663 -78.031159 
L 71.117275 -78.031159 
L 71.25635 -78.031159 
L 71.395891 -78.031159 
L 71.535898 -78.031159 
L 71.676373 -78.031159 
L 71.817317 -78.031159 
L 71.958733 -78.031159 
L 72.100622 -78.031159 
L 72.242985 -78.031159 
L 72.385824 -78.031159 
L 72.529141 -78.031159 
L 72.672936 -78.031159 
L 72.817213 -78.031159 
L 72.961971 -78.031159 
L 73.107214 -78.031159 
L 73.252943 -78.031159 
L 73.399158 -78.031159 
L 73.545862 -78.031159 
L 73.693057 -78.031159 
L 73.840744 -78.031159 
L 73.988925 -78.031159 
L 74.137601 -78.031159 
L 74.286774 -78.031159 
L 74.436446 -78.031159 
L 74.586619 -78.031159 
L 74.737293 -78.031159 
L 74.888471 -78.031159 
L 75.040155 -78.031159 
L 75.192345 -78.031159 
L 75.345045 -78.031159 
L 75.498255 -78.031159 
L 75.651977 -78.031159 
L 75.806213 -78.031159 
L 75.960965 -78.031159 
L 76.116234 -78.031159 
L 76.272023 -78.031159 
L 76.428332 -78.031159 
L 76.585163 -78.031159 
L 76.742519 -78.031159 
L 76.900402 -78.031159 
L 77.058811 -78.031159 
L 77.217751 -78.031159 
L 77.377222 -78.031159 
L 77.537226 -78.031159 
L 77.697765 -78.031159 
L 77.858841 -78.031159 
L 78.020455 -78.031159 
L 78.18261 -78.031159 
L 78.345307 -78.031159 
L 78.508547 -78.031159 
L 78.672334 -78.031159 
L 78.836668 -78.031159 
L 79.001551 -78.031159 
L 79.166986 -78.031159 
L 79.332974 -78.031159 
L 79.499516 -78.031159 
L 79.666616 -78.031159 
L 79.834274 -78.031159 
L 80.002493 -78.031159 
L 80.171274 -78.031159 
L 80.340619 -78.031159 
L 80.510531 -78.031159 
L 80.68101 -78.031159 
L 80.85206 -78.031159 
L 81.023681 -78.031159 
L 81.195876 -78.031159 
L 81.368647 -78.031159 
L 81.541996 -78.031159 
L 81.715924 -78.031159 
L 81.890433 -78.031159 
L 82.065526 -78.031159 
L 82.241205 -78.031159 
L 82.41747 -78.031159 
L 82.594325 -78.031159 
L 82.771771 -78.031159 
L 82.949811 -78.031159 
L 83.128446 -78.031159 
L 83.307678 -78.031159 
L 83.487509 -78.031159 
L 83.667941 -78.031159 
L 83.848977 -78.031159 
L 84.030618 -78.031159 
L 84.212866 -78.031159 
L 84.395723 -78.031159 
L 84.579192 -78.031159 
L 84.763274 -78.031159 
L 84.947972 -78.031159 
L 85.133287 -78.031159 
L 85.319222 -78.031159 
L 85.505778 -78.031159 
L 85.692958 -78.031159 
L 85.880764 -78.031159 
L 86.069198 -78.031159 
L 86.258261 -78.031159 
L 86.447957 -78.031159 
L 86.638287 -78.031159 
L 86.829253 -78.031159 
L 87.020858 -78.031159 
L 87.213104 -78.031159 
L 87.405992 -78.031159 
L 87.599525 -78.031159 
L 87.793705 -78.031159 
L 87.988534 -78.031159 
L 88.184014 -78.031159 
L 88.380148 -78.031159 
L 88.576938 -78.031159 
L 88.774386 -78.031159 
L 88.972494 -78.031159 
L 89.171264 -78.031159 
L 89.370699 -78.031159 
L 89.5708 -78.031159 
L 89.77157 -78.031159 
L 89.973012 -78.031159 
L 90.175127 -78.031159 
L 90.377918 -78.031159 
L 90.581387 -78.031159 
L 90.785536 -78.031159 
L 90.990368 -78.031159 
L 91.195884 -78.031159 
L 91.402088 -78.031159 
L 91.608981 -78.031159 
L 91.816565 -78.031159 
L 92.024844 -78.031159 
L 92.233819 -78.031159 
L 92.443493 -78.031159 
L 92.653867 -78.031159 
L 92.864945 -78.031159 
L 93.076729 -78.031159 
L 93.289221 -78.031159 
L 93.502423 -78.031159 
L 93.716338 -78.031159 
L 93.930968 -78.031159 
L 94.146315 -78.031159 
L 94.362383 -78.031159 
L 94.579173 -78.031159 
L 94.796688 -78.031159 
L 95.01493 -78.031159 
L 95.233901 -78.031159 
L 95.453605 -78.031159 
L 95.674043 -78.031159 
L 95.895219 -78.031159 
L 96.117133 -78.031159 
L 96.33979 -78.031159 
L 96.563191 -78.031159 
L 96.787339 -78.031159 
L 97.012236 -78.031159 
L 97.237885 -78.031159 
L 97.464289 -78.031159 
L 97.691449 -78.031159 
L 97.919369 -78.031159 
L 98.148051 -78.031159 
L 98.377498 -78.031159 
L 98.607711 -78.031159 
L 98.838694 -78.031159 
L 99.07045 -78.031159 
L 99.30298 -78.031159 
L 99.536288 -78.031159 
L 99.770376 -78.031159 
L 100.005246 -78.031159 
L 100.240902 -78.031159 
L 100.477345 -78.031159 
L 100.714579 -78.031159 
L 100.952606 -78.031159 
L 101.191429 -78.031159 
L 101.43105 -78.031159 
L 101.671472 -78.031159 
L 101.912699 -78.031159 
L 102.154731 -78.031159 
L 102.397573 -78.031159 
L 102.641227 -78.031159 
L 102.885695 -78.031159 
L 103.130981 -78.031159 
L 103.377087 -78.031159 
L 103.624015 -78.031159 
L 103.871769 -78.031159 
L 104.120352 -78.031159 
L 104.369765 -78.031159 
L 104.620013 -78.031159 
L 104.871097 -78.031159 
L 105.12302 -78.031159 
L 105.375786 -78.031159 
L 105.629396 -78.031159 
L 105.883855 -78.031159 
L 106.139164 -78.031159 
L 106.395327 -78.031159 
L 106.652346 -78.031159 
L 106.910225 -78.031159 
L 107.168966 -78.031159 
L 107.428572 -78.031159 
L 107.689045 -78.031159 
L 107.95039 -78.031159 
L 108.212608 -78.031159 
L 108.475703 -78.031159 
L 108.739678 -78.031159 
L 109.004535 -78.031159 
L 109.270277 -78.031159 
L 109.536908 -78.031159 
L 109.804431 -78.031159 
L 110.072848 -78.031159 
L 110.342162 -78.031159 
L 110.612376 -78.031159 
L 110.883494 -78.031159 
L 111.155519 -78.031159 
L 111.428453 -78.031159 
L 111.702299 -78.031159 
L 111.977061 -78.031159 
L 112.252742 -78.031159 
L 112.529344 -78.031159 
L 112.806871 -78.031159 
L 113.085325 -78.031159 
L 113.364711 -78.031159 
L 113.645031 -78.031159 
L 113.926288 -78.031159 
L 114.208485 -78.031159 
L 114.491626 -78.031159 
L 114.775713 -78.031159 
L 115.060751 -78.031159 
L 115.346741 -78.031159 
L 115.633687 -78.031159 
L 115.921593 -78.031159 
L 116.210461 -78.031159 
L 116.500295 -78.031159 
L 116.791097 -78.031159 
L 117.082873 -78.031159 
L 117.375623 -78.031159 
L 117.669352 -78.031159 
L 117.964064 -78.031159 
L 118.259761 -78.031159 
L 118.556446 -78.031159 
L 118.854123 -78.031159 
L 119.152795 -78.031159 
L 119.452466 -78.031159 
L 119.753139 -78.031159 
L 120.054817 -78.031159 
L 120.357504 -78.031159 
L 120.661202 -78.031159 
L 120.965916 -78.031159 
L 121.271649 -78.031159 
L 121.578403 -78.031159 
L 121.886184 -78.031159 
L 122.194993 -78.031159 
L 122.504835 -78.031159 
L 122.815712 -78.031159 
L 123.127629 -78.031159 
L 123.440589 -78.031159 
L 123.754595 -78.031159 
L 124.069651 -78.031159 
L 124.385761 -78.031159 
L 124.702927 -78.031159 
L 125.021153 -78.031159 
L 125.340444 -78.031159 
L 125.660801 -78.031159 
L 125.98223 -78.031159 
L 126.304734 -78.031159 
L 126.628315 -78.031159 
L 126.952979 -78.031159 
L 127.278728 -78.031159 
L 127.605566 -78.031159 
L 127.933497 -78.031159 
L 128.262524 -78.031159 
L 128.592651 -78.031159 
L 128.923882 -78.031159 
L 129.25622 -78.031159 
L 129.589669 -78.031159 
L 129.924233 -78.031159 
L 130.259916 -78.031159 
L 130.596721 -78.031159 
L 130.934652 -78.031159 
L 131.273713 -78.031159 
L 131.613907 -78.031159 
L 131.955239 -78.031159 
L 132.297712 -78.031159 
L 132.641329 -78.031159 
L 132.986096 -78.031159 
L 133.332015 -78.031159 
L 133.679091 -78.031159 
L 134.027327 -78.031159 
L 134.376728 -78.031159 
L 134.727296 -78.031159 
L 135.079037 -78.031159 
L 135.431953 -78.031159 
L 135.78605 -78.031159 
L 136.14133 -78.031159 
L 136.497798 -78.031159 
L 136.855458 -78.031159 
L 137.214314 -78.031159 
L 137.574369 -78.031159 
L 137.935628 -78.031159 
L 138.298095 -78.031159 
L 138.661773 -78.031159 
L 139.026668 -78.031159 
L 139.392783 -78.031159 
L 139.760121 -78.031159 
L 140.128688 -78.031159 
L 140.498487 -78.031159 
L 140.869522 -78.031159 
L 141.241797 -78.031159 
L 141.615318 -78.031159 
L 141.990087 -78.031159 
L 142.366109 -78.031159 
L 142.743388 -78.031159 
L 143.121928 -78.031159 
L 143.501734 -78.031159 
L 143.88281 -78.031159 
L 144.26516 -78.031159 
L 144.648788 -78.031159 
L 145.033699 -78.031159 
L 145.419897 -78.031159 
L 145.807385 -78.031159 
L 146.19617 -78.031159 
L 146.586254 -78.031159 
L 146.977642 -78.031159 
L 147.370339 -78.031159 
L 147.764348 -78.031159 
L 148.159675 -78.031159 
L 148.556324 -78.031159 
L 148.954298 -78.031159 
L 149.353604 -78.031159 
L 149.754244 -78.031159 
L 150.156223 -78.031159 
L 150.559547 -78.031159 
L 150.964219 -78.031159 
L 151.370244 -78.031159 
L 151.777626 -78.031159 
L 152.18637 -78.031159 
L 152.596481 -78.031159 
L 153.007963 -78.031159 
L 153.420821 -78.031159 
L 153.835059 -78.031159 
L 154.250682 -78.031159 
L 154.667694 -78.031159 
L 155.086101 -78.031159 
L 155.505906 -78.031159 
L 155.927115 -78.031159 
L 156.349732 -78.031159 
L 156.773763 -78.031159 
L 157.19921 -78.031159 
L 157.62608 -78.031159 
L 158.054378 -78.031159 
L 158.484107 -78.031159 
L 158.915273 -78.031159 
L 159.34788 -78.031159 
L 159.781934 -78.031159 
L 160.217439 -78.031159 
L 160.654399 -78.031159 
L 161.092821 -78.031159 
L 161.532709 -78.031159 
L 161.974067 -78.031159 
L 162.416901 -78.031159 
L 162.861215 -78.031159 
L 163.307015 -78.031159 
L 163.754305 -78.031159 
L 164.20309 -78.031159 
L 164.653376 -78.031159 
L 165.105168 -78.031159 
L 165.558469 -78.031159 
L 166.013287 -78.031159 
L 166.469625 -78.031159 
L 166.927488 -78.031159 
L 167.386882 -78.031159 
L 167.847813 -78.031159 
L 168.310284 -78.031159 
L 168.774301 -78.031159 
L 169.23987 -78.031159 
L 169.706995 -78.031159 
L 170.175682 -78.031159 
L 170.645936 -78.031159 
L 171.117762 -78.031159 
L 171.591166 -78.031159 
L 172.066152 -78.031159 
L 172.542726 -78.031159 
L 173.020894 -78.031159 
L 173.50066 -78.031159 
L 173.98203 -78.031159 
L 174.46501 -78.031159 
L 174.949604 -78.031159 
L 175.435818 -78.031159 
L 175.923658 -78.031159 
L 176.413129 -78.031159 
L 176.904236 -78.031159 
L 177.396986 -78.031159 
L 177.891382 -78.031159 
L 178.387432 -78.031159 
L 178.88514 -78.031159 
L 179.384512 -78.031159 
L 179.885553 -78.031159 
L 180.38827 -78.031159 
L 180.892667 -78.031159 
L 181.398751 -78.031159 
L 181.906526 -78.031159 
L 182.415999 -78.031159 
L 182.927176 -78.031159 
L 183.440061 -78.031159 
L 183.954662 -78.031159 
L 184.470982 -78.031159 
L 184.989029 -78.031159 
L 185.508808 -78.031159 
L 186.030325 -78.031159 
L 186.553585 -78.031159 
L 187.078594 -78.031159 
L 187.605359 -78.031159 
L 188.133885 -78.031159 
L 188.664178 -78.031159 
L 189.196244 -78.031159 
L 189.730089 -78.031159 
L 190.265718 -78.031159 
L 190.803138 -78.031159 
L 191.342355 -78.031159 
L 191.883375 -78.031159 
L 192.426203 -78.031159 
L 192.970847 -78.031159 
L 193.517311 -78.031159 
L 194.065602 -78.031159 
L 194.615726 -78.031159 
L 195.167689 -78.031159 
L 195.721498 -78.031159 
L 196.277159 -78.031159 
L 196.834677 -78.031159 
L 197.394059 -78.031159 
L 197.955311 -78.031159 
L 198.518439 -78.031159 
L 199.083451 -78.031159 
L 199.650351 -78.031159 
L 200.219146 -78.031159 
L 200.789843 -78.031159 
L 201.362449 -78.031159 
L 201.936968 -78.031159 
L 202.513408 -78.031159 
L 203.091776 -78.031159 
L 203.672077 -78.031159 
L 204.254318 -78.031159 
L 204.838506 -78.031159 
L 205.424647 -78.031159 
L 206.012747 -78.031159 
L 206.602814 -78.031159 
L 207.194853 -78.031159 
L 207.788872 -78.031159 
L 208.384877 -78.031159 
L 208.982874 -78.031159 
L 209.582871 -78.031159 
L 210.184873 -78.031159 
L 210.788889 -78.031159 
L 211.394923 -78.031159 
L 212.002984 -78.031159 
L 212.613078 -78.031159 
L 213.225211 -78.031159 
L 213.839391 -78.031159 
L 214.455624 -78.031159 
L 215.073917 -78.031159 
L 215.694278 -78.031159 
L 216.316713 -78.031159 
L 216.941228 -78.031159 
L 217.567832 -78.031159 
L 218.19653 -78.031159 
L 218.82733 -78.031159 
L 219.46024 -78.031159 
L 220.095265 -78.031159 
L 220.732413 -78.031159 
L 221.371692 -78.031159 
L 222.013107 -78.031159 
L 222.656667 -78.031159 
L 223.302379 -78.031159 
L 223.95025 -78.031159 
L 224.600286 -78.031159 
L 225.252496 -78.031159 
L 225.906886 -78.031159 
L 226.563464 -78.031159 
L 227.222237 -78.031159 
L 227.883213 -78.031159 
L 228.546398 -78.031159 
L 229.211801 -78.031159 
L 229.879428 -78.031159 
L 230.549288 -78.031159 
L 231.221386 -78.031159 
L 231.895732 -78.031159 
L 232.572333 -78.031159 
L 233.251195 -78.031159 
L 233.932327 -78.031159 
L 234.615736 -78.031159 
L 235.30143 -78.031159 
L 235.989417 -78.031159 
L 236.679703 -78.031159 
L 237.372298 -78.031159 
L 238.067208 -78.031159 
L 238.764441 -78.031159 
L 239.464005 -78.031159 
L 240.165908 -78.031159 
L 240.870158 -78.031159 
L 241.576762 -78.031159 
L 242.285729 -78.031159 
L 242.997066 -78.031159 
L 243.710781 -78.031159 
L 244.426882 -78.031159 
L 245.145377 -78.031159 
L 245.866275 -78.031159 
L 246.589582 -78.031159 
L 247.315308 -78.031159 
L 248.04346 -78.031159 
L 248.774047 -78.031159 
L 249.507076 -78.031159 
L 250.242555 -78.031159 
L 250.980494 -78.031159 
L 251.7209 -78.031159 
L 252.463781 -78.031159 
L 253.209146 -78.031159 
L 253.957002 -78.031159 
L 254.707359 -78.031159 
L 255.460225 -78.031159 
L 256.215608 -78.031159 
L 256.973516 -78.031159 
L 257.733958 -78.031159 
L 258.496942 -78.031159 
L 259.262477 -78.031159 
L 260.030572 -78.031159 
L 260.801235 -78.031159 
L 261.574474 -78.031159 
L 262.350298 -78.031159 
L 263.128716 -78.031159 
L 263.909736 -78.031159 
L 264.693368 -78.031159 
L 265.47962 -78.031159 
L 266.2685 -78.031159 
L 267.060017 -78.031159 
L 267.854181 -78.031159 
L 268.651 -78.031159 
L 269.450483 -78.031159 
L 270.252639 -78.031159 
L 271.057476 -78.031159 
L 271.865005 -78.031159 
L 272.675233 -78.031159 
L 273.48817 -78.031159 
L 274.303825 -78.031159 
L 275.122207 -78.031159 
L 275.943325 -78.031159 
L 276.767188 -78.031159 
L 277.593805 -78.031159 
L 278.423186 -78.031159 
L 279.25534 -78.031159 
L 280.090276 -78.031159 
L 280.928004 -78.031159 
L 281.768532 -78.031159 
L 282.61187 -78.031159 
L 283.458028 -78.031159 
L 284.307015 -78.031159 
L 285.15884 -78.031159 
L 286.013513 -78.031159 
L 286.871043 -78.031159 
L 287.731441 -78.031159 
L 288.594715 -78.031159 
L 289.460875 -78.031159 
L 290.329931 -78.031159 
L 291.201892 -78.031159 
L 292.076768 -78.031159 
L 292.95457 -78.031159 
L 293.835306 -78.031159 
L 294.718987 -78.031159 
L 295.605622 -78.031159 
L 296.495221 -78.031159 
L 297.387795 -78.031159 
L 298.283352 -78.031159 
L 299.181904 -78.031159 
L 300.08346 -78.031159 
L 300.98803 -78.031159 
L 301.895624 -78.031159 
L 302.806253 -78.031159 
L 303.719926 -78.031159 
L 304.636653 -78.031159 
L 305.556446 -78.031159 
L 306.479313 -78.031159 
L 307.405266 -78.031159 
L 308.334315 -78.031159 
L 309.26647 -78.031159 
L 310.201741 -78.031159 
L 311.140139 -78.031159 
L 312.081674 -78.031159 
L 313.026357 -78.031159 
L 313.974199 -78.031159 
L 314.925209 -78.031159 
L 315.879399 -78.031159 
L 316.836779 -78.031159 
L 317.79736 -78.031159 
L 318.761152 -78.031159 
L 319.728166 -78.031159 
L 320.698414 -78.031159 
L 321.671905 -78.031159 
L 322.648651 -78.031159 
L 323.628662 -78.031159 
L 324.61195 -78.031159 
L 325.598525 -78.031159 
L 326.588399 -78.031159 
L 327.581582 -78.031159 
L 328.578085 -78.031159 
L 329.57792 -78.031159 
L 330.581098 -78.031159 
L 331.58763 -78.031159 
L 332.597526 -78.031159 
L 333.610799 -78.031159 
L 334.62746 -78.031159 
L 335.64752 -78.031159 
L 336.67099 -78.031159 
L 337.697882 -78.031159 
L 338.728207 -78.031159 
L 339.761976 -78.031159 
L 340.799202 -78.031159 
L 341.839895 -78.031159 
L 342.884068 -78.031159 
L 343.931732 -78.031159 
L 344.982898 -78.031159 
L 346.037579 -78.031159 
L 347.095785 -78.031159 
L 348.15753 -78.031159 
L 349.222824 -78.031159 
L 350.29168 -78.031159 
L 351.364109 -78.031159 
L 352.440124 -78.031159 
L 353.519736 -78.031159 
L 354.602958 -78.031159 
L 355.689801 -78.031159 
L 356.780278 -78.031159 
L 357.8744 -78.031159 
L 358.97218 -78.031159 
L 360.073631 -78.031159 
L 361.178764 -78.031159 
L 362.287592 -78.031159 
L 363.400126 -78.031159 
L 364.516381 -78.031159 
L 365.636367 -78.031159 
L 366.760098 -78.031159 
L 367.887585 -78.031159 
L 369.018842 -78.031159 
L 370.153881 -78.031159 
L 371.292715 -78.031159 
L 372.435357 -78.031159 
L 373.581818 -78.031159 
L 373.581818 -77.369427 
L 373.581818 -77.369427 
L 372.435357 -77.367215 
L 371.292715 -77.347962 
L 370.153881 -77.323216 
L 369.018842 -77.461542 
L 367.887585 -77.524533 
L 366.760098 -77.584375 
L 365.636367 -77.292429 
L 364.516381 -77.439104 
L 363.400126 -77.267348 
L 362.287592 -77.33039 
L 361.178764 -77.388729 
L 360.073631 -77.311591 
L 358.97218 -77.56926 
L 357.8744 -77.286588 
L 356.780278 -77.507213 
L 355.689801 -77.137893 
L 354.602958 -77.292672 
L 353.519736 -77.60887 
L 352.440124 -77.387525 
L 351.364109 -77.722424 
L 350.29168 -77.294947 
L 349.222824 -77.55897 
L 348.15753 -77.192561 
L 347.095785 -77.578493 
L 346.037579 -77.149027 
L 344.982898 -77.311209 
L 343.931732 -77.36078 
L 342.884068 -77.628531 
L 341.839895 -77.297808 
L 340.799202 -77.372198 
L 339.761976 -77.40544 
L 338.728207 -77.392082 
L 337.697882 -77.210886 
L 336.67099 -77.315491 
L 335.64752 -77.164994 
L 334.62746 -76.971737 
L 333.610799 -77.165965 
L 332.597526 -76.948241 
L 331.58763 -76.898803 
L 330.581098 -77.221904 
L 329.57792 -76.865256 
L 328.578085 -77.088695 
L 327.581582 -77.144459 
L 326.588399 -77.088644 
L 325.598525 -77.297397 
L 324.61195 -77.043855 
L 323.628662 -77.056323 
L 322.648651 -77.107559 
L 321.671905 -77.226819 
L 320.698414 -77.134932 
L 319.728166 -77.187745 
L 318.761152 -77.247885 
L 317.79736 -77.404177 
L 316.836779 -77.269814 
L 315.879399 -77.489937 
L 314.925209 -77.312778 
L 313.974199 -77.345636 
L 313.026357 -77.851454 
L 312.081674 -77.529612 
L 311.140139 -77.327373 
L 310.201741 -77.723793 
L 309.26647 -77.950449 
L 308.334315 -77.624175 
L 307.405266 -77.6037 
L 306.479313 -77.749489 
L 305.556446 -77.652279 
L 304.636653 -78.078831 
L 303.719926 -77.565435 
L 302.806253 -77.944256 
L 301.895624 -77.688496 
L 300.98803 -77.841151 
L 300.08346 -77.479333 
L 299.181904 -77.383537 
L 298.283352 -78.335654 
L 297.387795 -77.812039 
L 296.495221 -78.094902 
L 295.605622 -78.234188 
L 294.718987 -77.732304 
L 293.835306 -78.033244 
L 292.95457 -78.200334 
L 292.076768 -77.911264 
L 291.201892 -78.361147 
L 290.329931 -78.30843 
L 289.460875 -78.23557 
L 288.594715 -78.093528 
L 287.731441 -78.251514 
L 286.871043 -78.242558 
L 286.013513 -78.262885 
L 285.15884 -78.346413 
L 284.307015 -77.863892 
L 283.458028 -78.119983 
L 282.61187 -78.283286 
L 281.768532 -78.275071 
L 280.928004 -78.031664 
L 280.090276 -77.326696 
L 279.25534 -78.071802 
L 278.423186 -77.793283 
L 277.593805 -77.992781 
L 276.767188 -77.824482 
L 275.943325 -77.918426 
L 275.122207 -78.051009 
L 274.303825 -77.489536 
L 273.48817 -78.222975 
L 272.675233 -77.170701 
L 271.865005 -77.774026 
L 271.057476 -78.120326 
L 270.252639 -78.186802 
L 269.450483 -77.737595 
L 268.651 -77.805443 
L 267.854181 -77.593212 
L 267.060017 -77.604918 
L 266.2685 -77.243045 
L 265.47962 -76.918741 
L 264.693368 -77.28217 
L 263.909736 -76.890083 
L 263.128716 -77.856694 
L 262.350298 -77.542234 
L 261.574474 -77.008623 
L 260.801235 -78.127132 
L 260.030572 -77.286715 
L 259.262477 -77.53256 
L 258.496942 -76.879543 
L 257.733958 -77.112703 
L 256.973516 -77.365773 
L 256.215608 -77.094745 
L 255.460225 -76.439425 
L 254.707359 -76.713352 
L 253.957002 -76.216248 
L 253.209146 -76.300473 
L 252.463781 -76.845493 
L 251.7209 -77.141439 
L 250.980494 -76.175089 
L 250.242555 -77.140201 
L 249.507076 -76.820925 
L 248.774047 -75.784277 
L 248.04346 -75.769365 
L 247.315308 -75.945656 
L 246.589582 -77.578457 
L 245.866275 -76.343989 
L 245.145377 -76.443221 
L 244.426882 -76.100342 
L 243.710781 -75.51311 
L 242.997066 -75.71302 
L 242.285729 -75.534704 
L 241.576762 -75.581559 
L 240.870158 -75.650869 
L 240.165908 -77.392316 
L 239.464005 -75.056748 
L 238.764441 -74.340122 
L 238.067208 -75.659877 
L 237.372298 -76.565334 
L 236.679703 -75.561756 
L 235.989417 -74.971984 
L 235.30143 -76.246907 
L 234.615736 -74.982803 
L 233.932327 -74.306062 
L 233.251195 -75.103627 
L 232.572333 -74.142251 
L 231.895732 -73.33731 
L 231.221386 -75.213386 
L 230.549288 -73.879371 
L 229.879428 -74.373557 
L 229.211801 -74.578676 
L 228.546398 -71.982558 
L 227.883213 -75.193891 
L 227.222237 -73.086995 
L 226.563464 -74.206669 
L 225.906886 -74.558401 
L 225.252496 -73.429385 
L 224.600286 -74.59847 
L 223.95025 -74.637078 
L 223.302379 -72.387771 
L 222.656667 -75.061298 
L 222.013107 -72.400599 
L 221.371692 -74.539127 
L 220.732413 -72.049165 
L 220.095265 -73.331984 
L 219.46024 -70.909743 
L 218.82733 -76.791802 
L 218.19653 -71.920546 
L 217.567832 -74.553861 
L 216.941228 -74.122504 
L 216.316713 -71.693132 
L 215.694278 -73.002196 
L 215.073917 -72.331151 
L 214.455624 -72.477798 
L 213.839391 -74.754631 
L 213.225211 -73.036465 
L 212.613078 -72.559032 
L 212.002984 -71.372582 
L 211.394923 -72.829535 
L 210.788889 -73.57955 
L 210.184873 -72.801109 
L 209.582871 -69.667577 
L 208.982874 -72.168774 
L 208.384877 -73.247576 
L 207.788872 -70.881981 
L 207.194853 -71.984434 
L 206.602814 -71.467251 
L 206.012747 -73.428348 
L 205.424647 -74.881421 
L 204.838506 -71.6935 
L 204.254318 -73.02935 
L 203.672077 -74.352309 
L 203.091776 -75.09052 
L 202.513408 -74.512799 
L 201.936968 -71.646419 
L 201.362449 -72.381801 
L 200.789843 -71.470344 
L 200.219146 -68.685278 
L 199.650351 -74.205656 
L 199.083451 -73.691019 
L 198.518439 -71.241138 
L 197.955311 -71.454878 
L 197.394059 -68.400315 
L 196.834677 -68.614503 
L 196.277159 -71.755648 
L 195.721498 -72.309377 
L 195.167689 -70.145531 
L 194.615726 -72.870706 
L 194.065602 -72.37029 
L 193.517311 -72.504993 
L 192.970847 -73.027823 
L 192.426203 -74.486372 
L 191.883375 -73.223154 
L 191.342355 -74.378318 
L 190.803138 -76.262926 
L 190.265718 -73.639376 
L 189.730089 -74.258977 
L 189.196244 -74.63341 
L 188.664178 -75.689417 
L 188.133885 -78.814264 
L 187.605359 -75.515043 
L 187.078594 -78.027537 
L 186.553585 -79.532748 
L 186.030325 -77.147991 
L 185.508808 -79.891132 
L 184.989029 -78.064035 
L 184.470982 -77.651934 
L 183.954662 -77.232502 
L 183.440061 -78.168279 
L 182.927176 -78.469513 
L 182.415999 -79.911504 
L 181.906526 -79.378482 
L 181.398751 -73.691794 
L 180.892667 -83.183247 
L 180.38827 -84.420078 
L 179.885553 -83.467166 
L 179.384512 -83.022224 
L 178.88514 -84.785698 
L 178.387432 -84.825244 
L 177.891382 -83.656011 
L 177.396986 -83.086139 
L 176.904236 -83.908584 
L 176.413129 -80.637654 
L 175.923658 -82.136116 
L 175.435818 -80.109319 
L 174.949604 -82.587507 
L 174.46501 -81.124496 
L 173.98203 -81.284703 
L 173.50066 -80.238359 
L 173.020894 -80.699264 
L 172.542726 -81.672607 
L 172.066152 -79.832139 
L 171.591166 -78.895746 
L 171.117762 -79.187503 
L 170.645936 -79.445745 
L 170.175682 -78.561827 
L 169.706995 -75.510999 
L 169.23987 -76.286619 
L 168.774301 -74.85066 
L 168.310284 -77.072613 
L 167.847813 -75.030475 
L 167.386882 -72.627304 
L 166.927488 -73.848816 
L 166.469625 -75.854803 
L 166.013287 -74.990783 
L 165.558469 -72.057254 
L 165.105168 -74.542211 
L 164.653376 -75.599349 
L 164.20309 -73.563008 
L 163.754305 -72.118845 
L 163.307015 -68.935655 
L 162.861215 -74.335004 
L 162.416901 -72.52103 
L 161.974067 -76.888135 
L 161.532709 -73.422599 
L 161.092821 -73.851624 
L 160.654399 -76.349403 
L 160.217439 -74.31191 
L 159.781934 -75.145254 
L 159.34788 -77.205373 
L 158.915273 -66.06185 
L 158.484107 -74.537694 
L 158.054378 -69.82072 
L 157.62608 -78.925171 
L 157.19921 -80.871404 
L 156.773763 -70.812174 
L 156.349732 -68.570124 
L 155.927115 -74.57137 
L 155.505906 -70.292282 
L 155.086101 -70.211529 
L 154.667694 -62.997755 
L 154.250682 -69.593172 
L 153.835059 -66.148515 
L 153.420821 -65.771946 
L 153.007963 -61.524838 
L 152.596481 -68.727783 
L 152.18637 -72.856266 
L 151.777626 -69.815946 
L 151.370244 -69.723579 
L 150.964219 -64.395468 
L 150.559547 -63.111258 
L 150.156223 -76.114955 
L 149.754244 -69.639356 
L 149.353604 -76.219674 
L 148.954298 -67.308818 
L 148.556324 -67.25607 
L 148.159675 -62.329892 
L 147.764348 -77.118794 
L 147.370339 -78.034519 
L 146.977642 -74.095262 
L 146.586254 -64.237421 
L 146.19617 -63.516515 
L 145.807385 -74.081342 
L 145.419897 -76.005852 
L 145.033699 -71.739513 
L 144.648788 -89.540745 
L 144.26516 -71.198797 
L 143.88281 -73.011998 
L 143.501734 -73.574455 
L 143.121928 -76.638964 
L 142.743388 -81.179816 
L 142.366109 -81.109978 
L 141.990087 -81.162391 
L 141.615318 -83.265125 
L 141.241797 -82.352452 
L 140.869522 -83.102355 
L 140.498487 -84.044749 
L 140.128688 -81.931637 
L 139.760121 -79.751023 
L 139.392783 -80.195906 
L 139.026668 -81.028796 
L 138.661773 -80.385936 
L 138.298095 -78.41769 
L 137.935628 -78.895971 
L 137.574369 -77.593255 
L 137.214314 -74.939741 
L 136.855458 -75.736927 
L 136.497798 -78.910704 
L 136.14133 -76.545727 
L 135.78605 -74.695068 
L 135.431953 -75.016258 
L 135.079037 -74.736285 
L 134.727296 -74.374253 
L 134.376728 -74.593503 
L 134.027327 -78.905528 
L 133.679091 -72.067475 
L 133.332015 -75.862282 
L 132.986096 -73.037623 
L 132.641329 -71.113625 
L 132.297712 -69.842873 
L 131.955239 -70.613762 
L 131.613907 -73.099673 
L 131.273713 -74.303766 
L 130.934652 -72.290518 
L 130.596721 -80.020407 
L 130.259916 -70.671171 
L 129.924233 -68.57997 
L 129.589669 -74.108936 
L 129.25622 -67.500941 
L 128.923882 -75.600071 
L 128.592651 -65.057891 
L 128.262524 -69.264774 
L 127.933497 -66.862077 
L 127.605566 -65.030032 
L 127.278728 -55.946801 
L 126.952979 -58.436251 
L 126.628315 -58.226437 
L 126.304734 -52.883937 
L 125.98223 -67.112812 
L 125.660801 -59.242232 
L 125.340444 -58.989945 
L 125.021153 -71.784458 
L 124.702927 -52.969168 
L 124.385761 -53.432899 
L 124.069651 -51.575724 
L 123.754595 -72.859829 
L 123.440589 -57.429157 
L 123.127629 -69.612636 
L 122.815712 -71.318354 
L 122.504835 -69.915754 
L 122.194993 -58.647351 
L 121.886184 -68.198315 
L 121.578403 -61.025429 
L 121.271649 -68.119716 
L 120.965916 -53.786838 
L 120.661202 -84.833394 
L 120.357504 -60.397347 
L 120.054817 -68.240753 
L 119.753139 -60.231812 
L 119.452466 -56.005892 
L 119.152795 -75.400593 
L 118.854123 -55.680449 
L 118.556446 -65.524884 
L 118.259761 -62.810575 
L 117.964064 -70.224698 
L 117.669352 -71.845052 
L 117.375623 -77.148421 
L 117.082873 -84.281134 
L 116.791097 -85.517847 
L 116.500295 -91.21066 
L 116.210461 -88.266317 
L 115.921593 -91.254325 
L 115.633687 -90.520723 
L 115.346741 -86.489815 
L 115.060751 -93.042948 
L 114.775713 -94.181798 
L 114.491626 -94.084118 
L 114.208485 -89.342079 
L 113.926288 -88.411658 
L 113.645031 -90.923917 
L 113.364711 -92.542298 
L 113.085325 -92.554125 
L 112.806871 -83.858754 
L 112.529344 -89.034223 
L 112.252742 -88.224214 
L 111.977061 -84.983195 
L 111.702299 -87.006534 
L 111.428453 -88.272652 
L 111.155519 -92.950003 
L 110.883494 -86.933095 
L 110.612376 -89.986696 
L 110.342162 -85.967372 
L 110.072848 -92.771468 
L 109.804431 -85.708 
L 109.536908 -94.543475 
L 109.270277 -81.026901 
L 109.004535 -78.483674 
L 108.739678 -93.767795 
L 108.475703 -88.677217 
L 108.212608 -91.08805 
L 107.95039 -88.061372 
L 107.689045 -87.676565 
L 107.428572 -68.946793 
L 107.168966 -89.550507 
L 106.910225 -76.819967 
L 106.652346 -85.550514 
L 106.395327 -93.936266 
L 106.139164 -90.867522 
L 105.883855 -89.912099 
L 105.629396 -87.082103 
L 105.375786 -81.567378 
L 105.12302 -96.35142 
L 104.871097 -74.950054 
L 104.620013 -75.179746 
L 104.369765 -84.558075 
L 104.120352 -83.918664 
L 103.871769 -91.947591 
L 103.624015 -78.969157 
L 103.377087 -93.94096 
L 103.130981 -96.683265 
L 102.885695 -104.136004 
L 102.641227 -87.54444 
L 102.397573 -89.795442 
L 102.154731 -86.181165 
L 101.912699 -92.715446 
L 101.671472 -86.297192 
L 101.43105 -93.16334 
L 101.191429 -85.026248 
L 100.952606 -88.694158 
L 100.714579 -100.611938 
L 100.477345 -105.910849 
L 100.240902 -87.280273 
L 100.005246 -95.196479 
L 99.770376 -90.964278 
L 99.536288 -100.071023 
L 99.30298 -97.371913 
L 99.07045 -90.918866 
L 98.838694 -96.345933 
L 98.607711 -74.753965 
L 98.377498 -97.415201 
L 98.148051 -93.960795 
L 97.919369 -96.471374 
L 97.691449 -96.259944 
L 97.464289 -82.882572 
L 97.237885 -89.128365 
L 97.012236 -93.32939 
L 96.787339 -91.056517 
L 96.563191 -79.823797 
L 96.33979 -88.980535 
L 96.117133 -81.780979 
L 95.895219 -87.893828 
L 95.674043 -66.600095 
L 95.453605 -71.784445 
L 95.233901 -92.257612 
L 95.01493 -85.104478 
L 94.796688 -89.189488 
L 94.579173 -83.909495 
L 94.362383 -104.8679 
L 94.146315 -91.013674 
L 93.930968 -95.063013 
L 93.716338 -113.442714 
L 93.502423 -121.68 
L 93.289221 -120.681486 
L 93.076729 -105.4147 
L 92.864945 -99.99431 
L 92.653867 -112.620337 
L 92.443493 -106.391177 
L 92.233819 -105.715916 
L 92.024844 -109.092386 
L 91.816565 -105.026236 
L 91.608981 -94.439567 
L 91.402088 -105.032755 
L 91.195884 -99.423092 
L 90.990368 -91.09435 
L 90.785536 -82.395585 
L 90.581387 -105.240014 
L 90.377918 -90.892565 
L 90.175127 -87.535669 
L 89.973012 -68.7939 
L 89.77157 -84.380324 
L 89.5708 -74.854346 
L 89.370699 -56.651948 
L 89.171264 -71.936731 
L 88.972494 -60.977079 
L 88.774386 -39.333992 
L 88.576938 -45.757244 
L 88.380148 -53.779931 
L 88.184014 -45.847533 
L 87.988534 -66.1208 
L 87.793705 -53.970472 
L 87.599525 -49.488412 
L 87.405992 -40.228606 
L 87.213104 -41.980503 
L 87.020858 -46.30382 
L 86.829253 -46.500529 
L 86.638287 -49.645521 
L 86.447957 -58.375042 
L 86.258261 -76.791602 
L 86.069198 -71.374048 
L 85.880764 -70.85593 
L 85.692958 -71.17929 
L 85.505778 -71.652012 
L 85.319222 -88.123604 
L 85.133287 -69.482729 
L 84.947972 -73.871202 
L 84.763274 -60.129862 
L 84.579192 -64.743637 
L 84.395723 -44.044405 
L 84.212866 -57.944651 
L 84.030618 -64.662534 
L 83.848977 -61.503216 
L 83.667941 -69.500261 
L 83.487509 -65.006678 
L 83.307678 -62.972839 
L 83.128446 -55.683382 
L 82.949811 -47.270855 
L 82.771771 -47.430155 
L 82.594325 -48.818813 
L 82.41747 -45.229805 
L 82.241205 -57.811649 
L 82.065526 -52.497039 
L 81.890433 -64.522171 
L 81.715924 -50.834444 
L 81.541996 -64.944558 
L 81.368647 -54.539765 
L 81.195876 -51.560094 
L 81.023681 -53.474715 
L 80.85206 -59.199355 
L 80.68101 -36.83659 
L 80.510531 -49.838967 
L 80.340619 -47.033858 
L 80.171274 -39.243387 
L 80.002493 -40.991075 
L 79.834274 -46.000018 
L 79.666616 -25.475496 
L 79.499516 -20.88 
L 79.332974 -25.795246 
L 79.166986 -25.748643 
L 79.001551 -27.502789 
L 78.836668 -25.922868 
L 78.672334 -27.023485 
L 78.508547 -30.750658 
L 78.345307 -32.559569 
L 78.18261 -47.568666 
L 78.020455 -70.428563 
L 77.858841 -67.867387 
L 77.697765 -57.907998 
L 77.537226 -63.843891 
L 77.377222 -64.724699 
L 77.217751 -67.339238 
L 77.058811 -68.724783 
L 76.900402 -67.646507 
L 76.742519 -69.340008 
L 76.585163 -66.056848 
L 76.428332 -66.393908 
L 76.272023 -61.707883 
L 76.116234 -61.492863 
L 75.960965 -62.87798 
L 75.806213 -69.103048 
L 75.651977 -64.480305 
L 75.498255 -67.221209 
L 75.345045 -70.329069 
L 75.192345 -70.054002 
L 75.040155 -67.816411 
L 74.888471 -71.533311 
L 74.737293 -67.964577 
L 74.586619 -70.209577 
L 74.436446 -70.969496 
L 74.286774 -70.626689 
L 74.137601 -74.785513 
L 73.988925 -74.073743 
L 73.840744 -70.271265 
L 73.693057 -70.284293 
L 73.545862 -70.203958 
L 73.399158 -71.618911 
L 73.252943 -64.973993 
L 73.107214 -65.781862 
L 72.961971 -71.8328 
L 72.817213 -71.220784 
L 72.672936 -67.090433 
L 72.529141 -70.115038 
L 72.385824 -69.123598 
L 72.242985 -70.075022 
L 72.100622 -74.903103 
L 71.958733 -70.874221 
L 71.817317 -71.691828 
L 71.676373 -71.916754 
L 71.535898 -70.418022 
L 71.395891 -70.626533 
L 71.25635 -71.012774 
L 71.117275 -71.112581 
L 70.978663 -73.486769 
L 70.840513 -74.335798 
L 70.702823 -74.549095 
L 70.565592 -73.471741 
L 70.428818 -72.91521 
L 70.2925 -72.31989 
L 70.156636 -72.145349 
L 70.021225 -70.054389 
L 69.886265 -71.798816 
L 69.751755 -69.812197 
L 69.617693 -71.724562 
L 69.484078 -70.591593 
L 69.350908 -72.258175 
L 69.218182 -72.726403 
z
" style="stroke: #264653; stroke-opacity: 0.12"/>
    </defs>
    <g clip-path="url(#p0a8aafbd91)">
     <use xlink:href="#mf0575acc3c" x="0" y="144" style="fill: #264653; fill-opacity: 0.12; stroke: #264653; stroke-opacity: 0.12"/>
    </g>
   </g>
   <g id="matplotlib.axis_1">
    <g id="xtick_1">
     <g id="line2d_2">
      <defs>
       <path id="mefed51b951" d="M 0 0 
L 0 3.5 
" style="stroke: #000000; stroke-width: 0.8"/>
      </defs>
      <g>
       <use xlink:href="#mefed51b951" x="95.684585" y="128.16" style="stroke: #000000; stroke-width: 0.8"/>
      </g>
     </g>
     <g id="text_1">
      <!-- 1 -->
      <g transform="translate(92.503335 142.758438)scale(0.1 -0.1)">
       <defs>
        <path id="DejaVuSerif-31" d="M 909 0 
L 909 331 
L 1722 331 
L 1722 4213 
L 781 3603 
L 781 4013 
L 1919 4750 
L 2350 4750 
L 2350 331 
L 3163 331 
L 3163 0 
L 909 0 
z
" transform="scale(0.015625)"/>
       </defs>
       <use xlink:href="#DejaVuSerif-31"/>
      </g>
     </g>
    </g>
    <g id="xtick_2">
     <g id="line2d_3">
      <g>
       <use xlink:href="#mefed51b951" x="161.850593" y="128.16" style="stroke: #000000; stroke-width: 0.8"/>
      </g>
     </g>
     <g id="text_2">
      <!-- 2 -->
      <g transform="translate(158.669343 142.758438)scale(0.1 -0.1)">
       <defs>
        <path id="DejaVuSerif-32" d="M 819 3553 
L 469 3553 
L 469 4384 
Q 803 4563 1142 4656 
Q 1481 4750 1806 4750 
Q 2534 4750 2956 4397 
Q 3378 4044 3378 3438 
Q 3378 2753 2422 1800 
Q 2347 1728 2309 1691 
L 1131 513 
L 3078 513 
L 3078 1088 
L 3444 1088 
L 3444 0 
L 434 0 
L 434 341 
L 1850 1753 
Q 2319 2222 2519 2614 
Q 2719 3006 2719 3438 
Q 2719 3909 2473 4175 
Q 2228 4441 1797 4441 
Q 1350 4441 1106 4219 
Q 863 3997 819 3553 
z
" transform="scale(0.015625)"/>
       </defs>
       <use xlink:href="#DejaVuSerif-32"/>
      </g>
     </g>
    </g>
    <g id="xtick_3">
     <g id="line2d_4">
      <g>
       <use xlink:href="#mefed51b951" x="228.016601" y="128.16" style="stroke: #000000; stroke-width: 0.8"/>
      </g>
     </g>
     <g id="text_3">
      <!-- 3 -->
      <g transform="translate(224.835351 142.758438)scale(0.1 -0.1)">
       <defs>
        <path id="DejaVuSerif-33" d="M 622 4469 
Q 988 4606 1323 4678 
Q 1659 4750 1953 4750 
Q 2638 4750 3022 4454 
Q 3406 4159 3406 3634 
Q 3406 3213 3140 2930 
Q 2875 2647 2388 2547 
Q 2963 2466 3280 2130 
Q 3597 1794 3597 1259 
Q 3597 606 3158 257 
Q 2719 -91 1894 -91 
Q 1528 -91 1179 -12 
Q 831 66 488 225 
L 488 1131 
L 838 1131 
Q 869 681 1141 450 
Q 1413 219 1906 219 
Q 2384 219 2661 495 
Q 2938 772 2938 1253 
Q 2938 1803 2653 2086 
Q 2369 2369 1819 2369 
L 1522 2369 
L 1522 2688 
L 1678 2688 
Q 2225 2688 2498 2914 
Q 2772 3141 2772 3597 
Q 2772 4006 2547 4223 
Q 2322 4441 1900 4441 
Q 1478 4441 1245 4241 
Q 1013 4041 972 3647 
L 622 3647 
L 622 4469 
z
" transform="scale(0.015625)"/>
       </defs>
       <use xlink:href="#DejaVuSerif-33"/>
      </g>
     </g>
    </g>
    <g id="xtick_4">
     <g id="line2d_5">
      <g>
       <use xlink:href="#mefed51b951" x="294.182609" y="128.16" style="stroke: #000000; stroke-width: 0.8"/>
      </g>
     </g>
     <g id="text_4">
      <!-- 4 -->
      <g transform="translate(291.001359 142.758438)scale(0.1 -0.1)">
       <defs>
        <path id="DejaVuSerif-34" d="M 2234 1581 
L 2234 4063 
L 641 1581 
L 2234 1581 
z
M 3609 0 
L 1484 0 
L 1484 331 
L 2234 331 
L 2234 1247 
L 197 1247 
L 197 1588 
L 2241 4750 
L 2859 4750 
L 2859 1581 
L 3750 1581 
L 3750 1247 
L 2859 1247 
L 2859 331 
L 3609 331 
L 3609 0 
z
" transform="scale(0.015625)"/>
       </defs>
       <use xlink:href="#DejaVuSerif-34"/>
      </g>
     </g>
    </g>
    <g id="xtick_5">
     <g id="line2d_6">
      <g>
       <use xlink:href="#mefed51b951" x="360.348617" y="128.16" style="stroke: #000000; stroke-width: 0.8"/>
      </g>
     </g>
     <g id="text_5">
      <!-- 5 -->
      <g transform="translate(357.167367 142.758438)scale(0.1 -0.1)">
       <defs>
        <path id="DejaVuSerif-35" d="M 3219 4666 
L 3219 4153 
L 1081 4153 
L 1081 2816 
Q 1244 2928 1461 2984 
Q 1678 3041 1947 3041 
Q 2703 3041 3140 2622 
Q 3578 2203 3578 1478 
Q 3578 738 3136 323 
Q 2694 -91 1894 -91 
Q 1572 -91 1234 -12 
Q 897 66 544 225 
L 544 1131 
L 897 1131 
Q 925 688 1179 453 
Q 1434 219 1894 219 
Q 2388 219 2653 544 
Q 2919 869 2919 1478 
Q 2919 2084 2655 2407 
Q 2391 2731 1894 2731 
Q 1613 2731 1398 2631 
Q 1184 2531 1019 2322 
L 750 2322 
L 750 4666 
L 3219 4666 
z
" transform="scale(0.015625)"/>
       </defs>
       <use xlink:href="#DejaVuSerif-35"/>
      </g>
     </g>
    </g>
    <g id="text_6">
     <!-- Wavelength [$\mu$m] -->
     <g transform="translate(165.5 158.718125)scale(0.13 -0.13)">
      <defs>
       <path id="DejaVuSerif-57" d="M 4878 0 
L 4366 0 
L 3297 3794 
L 2228 0 
L 1716 0 
L 494 4331 
L 31 4331 
L 31 4666 
L 1734 4666 
L 1734 4331 
L 1153 4331 
L 2125 884 
L 3188 4666 
L 3694 4666 
L 4775 844 
L 5753 4331 
L 5216 4331 
L 5216 4666 
L 6559 4666 
L 6559 4331 
L 6100 4331 
L 4878 0 
z
" transform="scale(0.015625)"/>
       <path id="DejaVuSerif-61" d="M 2547 1044 
L 2547 1747 
L 1806 1747 
Q 1378 1747 1168 1562 
Q 959 1378 959 997 
Q 959 650 1171 447 
Q 1384 244 1747 244 
Q 2106 244 2326 466 
Q 2547 688 2547 1044 
z
M 3122 2075 
L 3122 331 
L 3634 331 
L 3634 0 
L 2547 0 
L 2547 359 
Q 2356 128 2106 18 
Q 1856 -91 1522 -91 
Q 969 -91 644 203 
Q 319 497 319 997 
Q 319 1513 691 1797 
Q 1063 2081 1741 2081 
L 2547 2081 
L 2547 2309 
Q 2547 2688 2317 2895 
Q 2088 3103 1672 3103 
Q 1328 3103 1125 2947 
Q 922 2791 872 2484 
L 575 2484 
L 575 3156 
Q 875 3284 1158 3348 
Q 1441 3413 1709 3413 
Q 2400 3413 2761 3070 
Q 3122 2728 3122 2075 
z
" transform="scale(0.015625)"/>
       <path id="DejaVuSerif-76" d="M 1581 0 
L 359 2988 
L -19 2988 
L -19 3322 
L 1509 3322 
L 1509 2988 
L 978 2988 
L 1913 703 
L 2847 2988 
L 2350 2988 
L 2350 3322 
L 3597 3322 
L 3597 2988 
L 3225 2988 
L 2003 0 
L 1581 0 
z
" transform="scale(0.015625)"/>
       <path id="DejaVuSerif-65" d="M 3469 1600 
L 991 1600 
L 991 1575 
Q 991 903 1244 561 
Q 1497 219 1991 219 
Q 2369 219 2611 417 
Q 2853 616 2950 1006 
L 3413 1006 
Q 3275 459 2904 184 
Q 2534 -91 1931 -91 
Q 1203 -91 761 389 
Q 319 869 319 1663 
Q 319 2450 753 2931 
Q 1188 3413 1894 3413 
Q 2647 3413 3050 2948 
Q 3453 2484 3469 1600 
z
M 2791 1931 
Q 2772 2513 2545 2808 
Q 2319 3103 1894 3103 
Q 1497 3103 1269 2806 
Q 1041 2509 991 1931 
L 2791 1931 
z
" transform="scale(0.015625)"/>
       <path id="DejaVuSerif-6c" d="M 1313 331 
L 1856 331 
L 1856 0 
L 184 0 
L 184 331 
L 738 331 
L 738 4531 
L 184 4531 
L 184 4863 
L 1313 4863 
L 1313 331 
z
" transform="scale(0.015625)"/>
       <path id="DejaVuSerif-6e" d="M 263 0 
L 263 331 
L 781 331 
L 781 2988 
L 231 2988 
L 231 3322 
L 1356 3322 
L 1356 2731 
Q 1516 3069 1770 3241 
Q 2025 3413 2363 3413 
Q 2913 3413 3172 3097 
Q 3431 2781 3431 2113 
L 3431 331 
L 3944 331 
L 3944 0 
L 2356 0 
L 2356 331 
L 2853 331 
L 2853 1931 
Q 2853 2541 2703 2767 
Q 2553 2994 2175 2994 
Q 1775 2994 1565 2701 
Q 1356 2409 1356 1850 
L 1356 331 
L 1856 331 
L 1856 0 
L 263 0 
z
" transform="scale(0.015625)"/>
       <path id="DejaVuSerif-67" d="M 3359 2988 
L 3359 72 
Q 3359 -644 2965 -1033 
Q 2572 -1422 1844 -1422 
Q 1516 -1422 1216 -1362 
Q 916 -1303 641 -1184 
L 641 -488 
L 941 -488 
Q 997 -813 1206 -963 
Q 1416 -1113 1806 -1113 
Q 2313 -1113 2548 -827 
Q 2784 -541 2784 72 
L 2784 519 
Q 2616 206 2355 57 
Q 2094 -91 1709 -91 
Q 1097 -91 708 395 
Q 319 881 319 1663 
Q 319 2444 706 2928 
Q 1094 3413 1709 3413 
Q 2094 3413 2355 3264 
Q 2616 3116 2784 2803 
L 2784 3322 
L 3909 3322 
L 3909 2988 
L 3359 2988 
z
M 2784 1825 
Q 2784 2422 2554 2737 
Q 2325 3053 1888 3053 
Q 1444 3053 1217 2703 
Q 991 2353 991 1663 
Q 991 975 1217 622 
Q 1444 269 1888 269 
Q 2325 269 2554 583 
Q 2784 897 2784 1497 
L 2784 1825 
z
" transform="scale(0.015625)"/>
       <path id="DejaVuSerif-74" d="M 691 2988 
L 184 2988 
L 184 3322 
L 691 3322 
L 691 4353 
L 1269 4353 
L 1269 3322 
L 2350 3322 
L 2350 2988 
L 1269 2988 
L 1269 878 
Q 1269 456 1350 337 
Q 1431 219 1650 219 
Q 1875 219 1978 351 
Q 2081 484 2088 781 
L 2522 781 
Q 2497 328 2275 118 
Q 2053 -91 1600 -91 
Q 1103 -91 897 129 
Q 691 350 691 878 
L 691 2988 
z
" transform="scale(0.015625)"/>
       <path id="DejaVuSerif-68" d="M 263 0 
L 263 331 
L 781 331 
L 781 4531 
L 231 4531 
L 231 4863 
L 1356 4863 
L 1356 2731 
Q 1516 3069 1770 3241 
Q 2025 3413 2363 3413 
Q 2913 3413 3172 3097 
Q 3431 2781 3431 2113 
L 3431 331 
L 3944 331 
L 3944 0 
L 2356 0 
L 2356 331 
L 2853 331 
L 2853 1931 
Q 2853 2541 2704 2764 
Q 2556 2988 2175 2988 
Q 1775 2988 1565 2697 
Q 1356 2406 1356 1850 
L 1356 331 
L 1856 331 
L 1856 0 
L 263 0 
z
" transform="scale(0.015625)"/>
       <path id="DejaVuSerif-20" transform="scale(0.015625)"/>
       <path id="DejaVuSerif-5b" d="M 550 4863 
L 2003 4863 
L 2003 4531 
L 1147 4531 
L 1147 -513 
L 2003 -513 
L 2003 -844 
L 550 -844 
L 550 4863 
z
" transform="scale(0.015625)"/>
       <path id="STIXGeneral-Italic-3bc" d="M 3002 749 
L 3091 691 
Q 2797 237 2614 83 
Q 2432 -70 2214 -70 
Q 2080 -70 1990 6 
Q 1901 83 1901 218 
Q 1901 416 1997 704 
L 2208 1370 
L 2202 1370 
Q 1766 595 1475 268 
Q 1184 -58 902 -58 
Q 723 -58 672 122 
Q 614 -109 547 -374 
Q 480 -640 451 -758 
Q 422 -877 384 -1005 
Q 346 -1133 314 -1197 
Q 282 -1261 243 -1312 
L -211 -1312 
Q -58 -1088 70 -595 
L 909 2739 
L 1389 2739 
L 909 832 
Q 883 717 883 659 
Q 883 352 1139 352 
Q 1395 352 1811 969 
Q 2227 1587 2323 1958 
L 2534 2739 
L 3027 2739 
L 2522 819 
Q 2400 333 2400 326 
Q 2400 230 2470 230 
Q 2547 230 2652 329 
Q 2758 429 3002 749 
z
" transform="scale(0.015625)"/>
       <path id="DejaVuSerif-6d" d="M 3316 2675 
Q 3481 3041 3739 3227 
Q 3997 3413 4341 3413 
Q 4863 3413 5119 3089 
Q 5375 2766 5375 2113 
L 5375 331 
L 5894 331 
L 5894 0 
L 4300 0 
L 4300 331 
L 4800 331 
L 4800 2047 
Q 4800 2556 4650 2772 
Q 4500 2988 4153 2988 
Q 3769 2988 3567 2697 
Q 3366 2406 3366 1850 
L 3366 331 
L 3866 331 
L 3866 0 
L 2291 0 
L 2291 331 
L 2791 331 
L 2791 2069 
Q 2791 2566 2641 2777 
Q 2491 2988 2144 2988 
Q 1759 2988 1557 2697 
Q 1356 2406 1356 1850 
L 1356 331 
L 1856 331 
L 1856 0 
L 263 0 
L 263 331 
L 781 331 
L 781 2994 
L 231 2994 
L 231 3322 
L 1356 3322 
L 1356 2731 
Q 1516 3063 1762 3238 
Q 2009 3413 2322 3413 
Q 2709 3413 2968 3220 
Q 3228 3028 3316 2675 
z
" transform="scale(0.015625)"/>
       <path id="DejaVuSerif-5d" d="M 1947 4863 
L 1947 -844 
L 494 -844 
L 494 -513 
L 1350 -513 
L 1350 4531 
L 494 4531 
L 494 4863 
L 1947 4863 
z
" transform="scale(0.015625)"/>
      </defs>
      <use xlink:href="#DejaVuSerif-57" transform="translate(0 0.015625)"/>
      <use xlink:href="#DejaVuSerif-61" transform="translate(102.783203 0.015625)"/>
      <use xlink:href="#DejaVuSerif-76" transform="translate(162.402344 0.015625)"/>
      <use xlink:href="#DejaVuSerif-65" transform="translate(218.896484 0.015625)"/>
      <use xlink:href="#DejaVuSerif-6c" transform="translate(278.076172 0.015625)"/>
      <use xlink:href="#DejaVuSerif-65" transform="translate(310.058594 0.015625)"/>
      <use xlink:href="#DejaVuSerif-6e" transform="translate(369.238281 0.015625)"/>
      <use xlink:href="#DejaVuSerif-67" transform="translate(433.642578 0.015625)"/>
      <use xlink:href="#DejaVuSerif-74" transform="translate(497.65625 0.015625)"/>
      <use xlink:href="#DejaVuSerif-68" transform="translate(537.841797 0.015625)"/>
      <use xlink:href="#DejaVuSerif-20" transform="translate(602.246094 0.015625)"/>
      <use xlink:href="#DejaVuSerif-5b" transform="translate(634.033203 0.015625)"/>
      <use xlink:href="#STIXGeneral-Italic-3bc" transform="translate(673.046875 0.015625)"/>
      <use xlink:href="#DejaVuSerif-6d" transform="translate(725.646866 0.015625)"/>
      <use xlink:href="#DejaVuSerif-5d" transform="translate(820.471085 0.015625)"/>
     </g>
    </g>
   </g>
   <g id="matplotlib.axis_2">
    <g id="ytick_1">
     <g id="line2d_7">
      <defs>
       <path id="mdb5023c4a6" d="M 0 0 
L -3.5 0 
" style="stroke: #000000; stroke-width: 0.8"/>
      </defs>
      <g>
       <use xlink:href="#mdb5023c4a6" x="54" y="106.23166" style="stroke: #000000; stroke-width: 0.8"/>
      </g>
     </g>
     <g id="text_7">
      <!-- -5 -->
      <g transform="translate(37.257812 110.030879)scale(0.1 -0.1)">
       <defs>
        <path id="DejaVuSerif-2d" d="M 281 1959 
L 1881 1959 
L 1881 1472 
L 281 1472 
L 281 1959 
z
" transform="scale(0.015625)"/>
       </defs>
       <use xlink:href="#DejaVuSerif-2d"/>
       <use xlink:href="#DejaVuSerif-35" x="33.789062"/>
      </g>
     </g>
    </g>
    <g id="ytick_2">
     <g id="line2d_8">
      <g>
       <use xlink:href="#mdb5023c4a6" x="54" y="65.968841" style="stroke: #000000; stroke-width: 0.8"/>
      </g>
     </g>
     <g id="text_8">
      <!-- 0 -->
      <g transform="translate(40.6375 69.76806)scale(0.1 -0.1)">
       <defs>
        <path id="DejaVuSerif-30" d="M 2034 219 
Q 2513 219 2750 744 
Q 2988 1269 2988 2328 
Q 2988 3391 2750 3916 
Q 2513 4441 2034 4441 
Q 1556 4441 1318 3916 
Q 1081 3391 1081 2328 
Q 1081 1269 1318 744 
Q 1556 219 2034 219 
z
M 2034 -91 
Q 1275 -91 848 546 
Q 422 1184 422 2328 
Q 422 3475 848 4112 
Q 1275 4750 2034 4750 
Q 2797 4750 3222 4112 
Q 3647 3475 3647 2328 
Q 3647 1184 3222 546 
Q 2797 -91 2034 -91 
z
" transform="scale(0.015625)"/>
       </defs>
       <use xlink:href="#DejaVuSerif-30"/>
      </g>
     </g>
    </g>
    <g id="ytick_3">
     <g id="line2d_9">
      <g>
       <use xlink:href="#mdb5023c4a6" x="54" y="25.706022" style="stroke: #000000; stroke-width: 0.8"/>
      </g>
     </g>
     <g id="text_9">
      <!-- 5 -->
      <g transform="translate(40.6375 29.505241)scale(0.1 -0.1)">
       <use xlink:href="#DejaVuSerif-35"/>
      </g>
     </g>
    </g>
    <g id="text_10">
     <!-- $\Delta F_{\lambda}$ [$10^{10}$ W m$^{-2}$ m$^{-1}$ -->
     <g transform="translate(30.970156 126.785)rotate(-90)scale(0.11 -0.11)">
      <defs>
       <path id="STIXGeneral-Regular-394" d="M 4320 0 
L 307 0 
L 2221 4314 
L 2349 4314 
L 4320 0 
z
M 3354 589 
L 2118 3405 
L 870 589 
L 3354 589 
z
" transform="scale(0.015625)"/>
       <path id="STIXGeneral-Italic-46" d="M 4128 4179 
L 3923 3194 
L 3789 3206 
Q 3808 3347 3808 3418 
Q 3808 3667 3718 3772 
Q 3629 3878 3373 3923 
Q 3117 3968 2534 3968 
Q 2310 3968 2220 3926 
Q 2131 3885 2099 3763 
L 1690 2310 
Q 2003 2317 2147 2317 
Q 2291 2317 2457 2345 
Q 2624 2374 2678 2396 
Q 2733 2419 2822 2505 
Q 2912 2592 2950 2665 
Q 2989 2739 3072 2912 
L 3187 2880 
L 2701 1376 
L 2592 1408 
Q 2643 1670 2643 1798 
Q 2643 1978 2531 2029 
Q 2419 2080 2163 2080 
Q 1984 2080 1632 2099 
L 1254 736 
Q 1165 416 1165 352 
Q 1165 237 1273 179 
Q 1382 122 1658 102 
L 1658 0 
L 51 0 
L 51 102 
Q 314 122 410 224 
Q 506 326 582 602 
L 1370 3430 
Q 1434 3661 1434 3821 
Q 1434 3955 1347 4003 
Q 1261 4051 947 4077 
L 947 4179 
L 4128 4179 
z
" transform="scale(0.015625)"/>
       <path id="STIXGeneral-Italic-3bb" d="M 2656 787 
L 2758 787 
Q 2560 -102 2112 -102 
Q 1965 -102 1869 48 
Q 1773 198 1773 499 
Q 1773 672 1789 889 
Q 1805 1107 1833 1446 
Q 1862 1786 1875 2016 
L 538 0 
L -77 0 
L 1907 2739 
Q 1933 2970 1933 3245 
Q 1933 3936 1619 3936 
Q 1530 3936 1408 3821 
Q 1286 3706 1203 3462 
L 1101 3462 
Q 1312 4339 1747 4339 
Q 1926 4339 2041 4115 
Q 2157 3891 2157 3475 
Q 2157 3040 2093 2192 
Q 2029 1344 2029 941 
Q 2029 602 2089 451 
Q 2150 301 2291 301 
Q 2483 301 2656 787 
z
" transform="scale(0.015625)"/>
       <path id="STIXGeneral-Regular-31" d="M 2522 0 
L 755 0 
L 755 96 
Q 1107 115 1235 227 
Q 1363 339 1363 608 
L 1363 3482 
Q 1363 3795 1171 3795 
Q 1082 3795 883 3718 
L 710 3654 
L 710 3744 
L 1856 4326 
L 1914 4307 
L 1914 486 
Q 1914 275 2042 185 
Q 2170 96 2522 96 
L 2522 0 
z
" transform="scale(0.015625)"/>
       <path id="STIXGeneral-Regular-30" d="M 3046 2112 
Q 3046 1683 2963 1302 
Q 2880 922 2717 602 
Q 2554 282 2266 96 
Q 1978 -90 1600 -90 
Q 1210 -90 915 108 
Q 621 307 461 640 
Q 301 973 227 1350 
Q 154 1728 154 2150 
Q 154 2746 301 3222 
Q 448 3699 790 4012 
Q 1133 4326 1626 4326 
Q 2253 4326 2649 3712 
Q 3046 3098 3046 2112 
z
M 2432 2080 
Q 2432 3091 2217 3625 
Q 2003 4160 1587 4160 
Q 1190 4160 979 3622 
Q 768 3085 768 2106 
Q 768 1120 979 598 
Q 1190 77 1600 77 
Q 2003 77 2217 598 
Q 2432 1120 2432 2080 
z
" transform="scale(0.015625)"/>
       <path id="STIXGeneral-Regular-2212" d="M 3974 1408 
L 410 1408 
L 410 1830 
L 3974 1830 
L 3974 1408 
z
" transform="scale(0.015625)"/>
       <path id="STIXGeneral-Regular-32" d="M 3034 877 
L 2688 0 
L 186 0 
L 186 77 
L 1325 1286 
Q 1773 1754 1965 2144 
Q 2157 2534 2157 2950 
Q 2157 3379 1920 3616 
Q 1683 3853 1267 3853 
Q 922 3853 720 3673 
Q 518 3494 326 3021 
L 192 3053 
Q 301 3648 630 3987 
Q 960 4326 1523 4326 
Q 2054 4326 2380 4006 
Q 2707 3686 2707 3200 
Q 2707 2477 1888 1613 
L 832 486 
L 2330 486 
Q 2541 486 2665 569 
Q 2790 653 2944 915 
L 3034 877 
z
" transform="scale(0.015625)"/>
      </defs>
      <use xlink:href="#STIXGeneral-Regular-394" transform="translate(0 0.409375)"/>
      <use xlink:href="#STIXGeneral-Italic-46" transform="translate(72.199982 0.409375)"/>
      <use xlink:href="#STIXGeneral-Italic-3bb" transform="translate(133.299973 -12.81875)scale(0.7)"/>
      <use xlink:href="#DejaVuSerif-20" transform="translate(169.769339 0.409375)"/>
      <use xlink:href="#DejaVuSerif-5b" transform="translate(201.556448 0.409375)"/>
      <use xlink:href="#STIXGeneral-Regular-31" transform="translate(240.57012 0.409375)"/>
      <use xlink:href="#STIXGeneral-Regular-30" transform="translate(290.570105 0.409375)"/>
      <use xlink:href="#STIXGeneral-Regular-31" transform="translate(342.113371 35.684375)scale(0.7)"/>
      <use xlink:href="#STIXGeneral-Regular-30" transform="translate(377.11336 35.684375)scale(0.7)"/>
      <use xlink:href="#DejaVuSerif-20" transform="translate(416.522725 0.409375)"/>
      <use xlink:href="#DejaVuSerif-57" transform="translate(448.309834 0.409375)"/>
      <use xlink:href="#DejaVuSerif-20" transform="translate(551.093037 0.409375)"/>
      <use xlink:href="#DejaVuSerif-6d" transform="translate(582.880146 0.409375)"/>
      <use xlink:href="#STIXGeneral-Regular-2212" transform="translate(679.247646 35.684375)scale(0.7)"/>
      <use xlink:href="#STIXGeneral-Regular-32" transform="translate(727.197636 35.684375)scale(0.7)"/>
      <use xlink:href="#DejaVuSerif-20" transform="translate(766.607 0.409375)"/>
      <use xlink:href="#DejaVuSerif-6d" transform="translate(798.394109 0.409375)"/>
      <use xlink:href="#STIXGeneral-Regular-2212" transform="translate(894.761609 35.684375)scale(0.7)"/>
      <use xlink:href="#STIXGeneral-Regular-31" transform="translate(942.711599 35.684375)scale(0.7)"/>
     </g>
    </g>
   </g>
   <g id="line2d_10">
    <path d="M 69.218182 71.273597 
L 69.350908 71.741825 
L 69.484078 73.408407 
L 69.617693 72.275438 
L 69.751755 74.187803 
L 69.886265 72.201184 
L 70.021225 73.945611 
L 70.156636 71.854651 
L 70.2925 71.68011 
L 70.702823 69.450905 
L 70.840513 69.664202 
L 70.978663 70.513231 
L 71.117275 72.887419 
L 71.25635 72.987226 
L 71.535898 73.581978 
L 71.676373 72.083246 
L 71.817317 72.308172 
L 71.958733 73.125779 
L 72.100622 69.096897 
L 72.242985 73.924978 
L 72.385824 74.876402 
L 72.529141 73.884962 
L 72.672936 76.909567 
L 72.817213 72.779216 
L 72.961971 72.1672 
L 73.107214 78.218138 
L 73.252943 79.026007 
L 73.399158 72.381089 
L 73.545862 73.796042 
L 73.840744 73.728735 
L 73.988925 69.926257 
L 74.137601 69.214487 
L 74.286774 73.373311 
L 74.436446 73.030504 
L 74.586619 73.790423 
L 74.737293 76.035423 
L 74.888471 72.466689 
L 75.040155 76.183589 
L 75.192345 73.945998 
L 75.345045 73.670931 
L 75.651977 79.519695 
L 75.806213 74.896952 
L 75.960965 81.12202 
L 76.116234 82.507137 
L 76.272023 82.292117 
L 76.428332 77.606092 
L 76.585163 77.943152 
L 76.742519 74.659992 
L 76.900402 76.353493 
L 77.058811 75.275217 
L 77.217751 76.660762 
L 77.697765 86.092002 
L 77.858841 76.132613 
L 78.020455 73.571437 
L 78.345307 111.440431 
L 78.508547 113.249342 
L 78.672334 116.976515 
L 78.836668 118.077132 
L 79.001551 116.497211 
L 79.166986 118.251357 
L 79.332974 118.204754 
L 79.499516 123.12 
L 79.666616 118.524504 
L 79.834274 97.999982 
L 80.171274 104.756613 
L 80.510531 94.161033 
L 80.68101 107.16341 
L 80.85206 84.800645 
L 81.023681 90.525285 
L 81.195876 92.439906 
L 81.368647 89.460235 
L 81.541996 79.055442 
L 81.715924 93.165556 
L 81.890433 79.477829 
L 82.065526 91.502961 
L 82.241205 86.188351 
L 82.41747 98.770195 
L 82.594325 95.181187 
L 82.771771 96.569845 
L 82.949811 96.729145 
L 83.307678 81.027161 
L 83.487509 78.993322 
L 83.667941 74.499739 
L 83.848977 82.496784 
L 84.030618 79.337466 
L 84.212866 86.055349 
L 84.395723 99.955595 
L 84.579192 79.256363 
L 84.763274 83.870138 
L 84.947972 70.128798 
L 85.133287 74.517271 
L 85.319222 55.876396 
L 85.505778 72.347988 
L 85.880764 73.14407 
L 86.069198 72.625952 
L 86.258261 67.208398 
L 86.638287 94.354479 
L 86.829253 97.499471 
L 87.020858 97.69618 
L 87.213104 102.019497 
L 87.405992 103.771394 
L 87.988534 77.8792 
L 88.184014 98.152467 
L 88.380148 90.220069 
L 88.774386 104.666008 
L 89.171264 72.063269 
L 89.370699 87.348052 
L 89.77157 59.619676 
L 89.973012 75.2061 
L 90.175127 56.464331 
L 90.377918 53.107435 
L 90.581387 38.759986 
L 90.785536 61.604415 
L 91.402088 38.967245 
L 91.608981 49.560433 
L 91.816565 38.973764 
L 92.024844 34.907614 
L 92.233819 38.284084 
L 92.443493 37.608823 
L 92.653867 31.379663 
L 92.864945 44.00569 
L 93.076729 38.5853 
L 93.289221 23.318514 
L 93.502423 22.32 
L 93.716338 30.557286 
L 93.930968 48.936987 
L 94.146315 52.986326 
L 94.362383 39.1321 
L 94.579173 60.090505 
L 94.796688 54.810512 
L 95.01493 58.895522 
L 95.233901 51.742388 
L 95.453605 72.215555 
L 95.674043 77.399905 
L 95.895219 56.106172 
L 96.117133 62.219021 
L 96.33979 55.019465 
L 96.563191 64.176203 
L 96.787339 52.943483 
L 97.012236 50.67061 
L 97.464289 61.117428 
L 97.691449 47.740056 
L 97.919369 47.528626 
L 98.148051 50.039205 
L 98.377498 46.584799 
L 98.607711 69.246035 
L 98.838694 47.654067 
L 99.07045 53.081134 
L 99.30298 46.628087 
L 99.536288 43.928977 
L 99.770376 53.035722 
L 100.005246 48.803521 
L 100.240902 56.719727 
L 100.477345 38.089151 
L 100.714579 43.388062 
L 100.952606 55.305842 
L 101.191429 58.973752 
L 101.43105 50.83666 
L 101.671472 57.702808 
L 101.912699 51.284554 
L 102.154731 57.818835 
L 102.397573 54.204558 
L 102.641227 56.45556 
L 102.885695 39.863996 
L 103.130981 47.316735 
L 103.377087 50.05904 
L 103.624015 65.030843 
L 103.871769 52.052409 
L 104.120352 60.081336 
L 104.369765 59.441925 
L 104.620013 68.820254 
L 104.871097 69.049946 
L 105.12302 47.64858 
L 105.375786 62.432622 
L 105.629396 56.917897 
L 105.883855 54.087901 
L 106.139164 53.132478 
L 106.395327 50.063734 
L 106.910225 67.180033 
L 107.168966 54.449493 
L 107.428572 75.053207 
L 107.689045 56.323435 
L 107.95039 55.938628 
L 108.212608 52.91195 
L 108.475703 55.322783 
L 108.739678 50.232205 
L 109.004535 65.516326 
L 109.270277 62.973099 
L 109.536908 49.456525 
L 109.804431 58.292 
L 110.072848 51.228532 
L 110.342162 58.032628 
L 110.612376 54.013304 
L 110.883494 57.066905 
L 111.155519 51.049997 
L 111.428453 55.727348 
L 111.702299 56.993466 
L 111.977061 59.016805 
L 112.252742 55.775786 
L 112.529344 54.965777 
L 112.806871 60.141246 
L 113.085325 51.445875 
L 113.364711 51.457702 
L 113.645031 53.076083 
L 113.926288 55.588342 
L 114.208485 54.657921 
L 114.491626 49.915882 
L 114.775713 49.818202 
L 115.060751 50.957052 
L 115.346741 57.510185 
L 115.633687 53.479277 
L 115.921593 52.745675 
L 116.210461 55.733683 
L 116.500295 52.78934 
L 116.791097 58.482153 
L 117.082873 59.718866 
L 117.669352 72.154948 
L 117.964064 73.775302 
L 118.259761 81.189425 
L 118.556446 78.475116 
L 118.854123 88.319551 
L 119.152795 68.599407 
L 119.452466 87.994108 
L 119.753139 83.768188 
L 120.054817 75.759247 
L 120.357504 83.602653 
L 120.661202 59.166606 
L 120.965916 90.213162 
L 121.271649 75.880284 
L 121.578403 82.974571 
L 121.886184 75.801685 
L 122.194993 85.352649 
L 122.504835 74.084246 
L 122.815712 72.681646 
L 123.127629 74.387364 
L 123.440589 86.570843 
L 123.754595 71.140171 
L 124.069651 92.424276 
L 124.385761 90.567101 
L 124.702927 91.030832 
L 125.021153 72.215542 
L 125.340444 85.010055 
L 125.660801 84.757768 
L 125.98223 76.887188 
L 126.304734 91.116063 
L 126.628315 85.773563 
L 126.952979 85.563749 
L 127.278728 88.053199 
L 127.605566 78.969968 
L 128.262524 74.735226 
L 128.592651 78.942109 
L 128.923882 68.399929 
L 129.25622 76.499059 
L 129.589669 69.891064 
L 129.924233 75.42003 
L 130.259916 73.328829 
L 130.596721 63.979593 
L 130.934652 71.709482 
L 131.273713 69.696234 
L 131.613907 70.900327 
L 131.955239 73.386238 
L 132.297712 74.157127 
L 132.641329 72.886375 
L 132.986096 70.962377 
L 133.332015 68.137718 
L 133.679091 71.932525 
L 134.027327 65.094472 
L 134.376728 69.406497 
L 134.727296 69.625747 
L 135.431953 68.983742 
L 135.78605 69.304932 
L 136.497798 65.089296 
L 136.855458 68.263073 
L 137.214314 69.060259 
L 137.574369 66.406745 
L 137.935628 65.104029 
L 138.298095 65.58231 
L 138.661773 63.614064 
L 139.026668 62.971204 
L 139.392783 63.804094 
L 139.760121 64.248977 
L 140.498487 59.955251 
L 141.241797 61.647548 
L 141.615318 60.734875 
L 141.990087 62.837609 
L 142.366109 62.890022 
L 142.743388 62.820184 
L 143.121928 67.361036 
L 143.501734 70.425545 
L 143.88281 70.988002 
L 144.26516 72.801203 
L 144.648788 54.459255 
L 145.033699 72.260487 
L 145.419897 67.994148 
L 145.807385 69.918658 
L 146.19617 80.483485 
L 146.586254 79.762579 
L 146.977642 69.904738 
L 147.370339 65.965481 
L 147.764348 66.881206 
L 148.159675 81.670108 
L 148.556324 76.74393 
L 148.954298 76.691182 
L 149.353604 67.780326 
L 149.754244 74.360644 
L 150.156223 67.885045 
L 150.559547 80.888742 
L 150.964219 79.604532 
L 151.370244 74.276421 
L 151.777626 74.184054 
L 152.18637 71.143734 
L 152.596481 75.272217 
L 153.007963 82.475162 
L 153.420821 78.228054 
L 153.835059 77.851485 
L 154.250682 74.406828 
L 154.667694 81.002245 
L 155.086101 73.788471 
L 155.505906 73.707718 
L 155.927115 69.42863 
L 156.349732 75.429876 
L 156.773763 73.187826 
L 157.19921 63.128596 
L 157.62608 65.074829 
L 158.054378 74.17928 
L 158.484107 69.462306 
L 158.915273 77.93815 
L 159.34788 66.794627 
L 159.781934 68.854746 
L 160.217439 69.68809 
L 160.654399 67.650597 
L 161.092821 70.148376 
L 161.532709 70.577401 
L 161.974067 67.111865 
L 162.416901 71.47897 
L 162.861215 69.664996 
L 163.307015 75.064345 
L 163.754305 71.881155 
L 164.20309 70.436992 
L 164.653376 68.400651 
L 165.105168 69.457789 
L 165.558469 71.942746 
L 166.013287 69.009217 
L 166.469625 68.145197 
L 166.927488 70.151184 
L 167.386882 71.372696 
L 168.310284 66.927387 
L 168.774301 69.14934 
L 169.23987 67.713381 
L 169.706995 68.489001 
L 170.175682 65.438173 
L 170.645936 64.554255 
L 171.591166 65.104254 
L 172.066152 64.167861 
L 172.542726 62.327393 
L 173.020894 63.300736 
L 173.50066 63.761641 
L 173.98203 62.715297 
L 174.46501 62.875504 
L 174.949604 61.412493 
L 175.435818 63.890681 
L 175.923658 61.863884 
L 176.413129 63.362346 
L 176.904236 60.091416 
L 177.396986 60.913861 
L 177.891382 60.343989 
L 178.387432 59.174756 
L 178.88514 59.214302 
L 179.384512 60.977776 
L 179.885553 60.532834 
L 180.38827 59.579922 
L 180.892667 60.816753 
L 181.398751 70.308206 
L 181.906526 64.621518 
L 182.415999 64.088496 
L 182.927176 65.530487 
L 183.440061 65.831721 
L 183.954662 66.767498 
L 184.989029 65.935965 
L 185.508808 64.108868 
L 186.030325 66.852009 
L 186.553585 64.467252 
L 187.078594 65.972463 
L 187.605359 68.484957 
L 188.133885 65.185736 
L 188.664178 68.310583 
L 189.196244 69.36659 
L 189.730089 69.741023 
L 190.265718 70.360624 
L 190.803138 67.737074 
L 191.342355 69.621682 
L 191.883375 70.776846 
L 192.426203 69.513628 
L 192.970847 70.972177 
L 193.517311 71.495007 
L 194.065602 71.62971 
L 194.615726 71.129294 
L 195.167689 73.854469 
L 195.721498 71.690623 
L 196.277159 72.244352 
L 196.834677 75.385497 
L 197.394059 75.599685 
L 197.955311 72.545122 
L 198.518439 72.758862 
L 199.083451 70.308981 
L 199.650351 69.794344 
L 200.219146 75.314722 
L 200.789843 72.529656 
L 201.362449 71.618199 
L 201.936968 72.353581 
L 202.513408 69.487201 
L 203.091776 68.90948 
L 203.672077 69.647691 
L 204.838506 72.3065 
L 205.424647 69.118579 
L 206.012747 70.571652 
L 206.602814 72.532749 
L 207.194853 72.015566 
L 207.788872 73.118019 
L 208.384877 70.752424 
L 208.982874 71.831226 
L 209.582871 74.332423 
L 210.184873 71.198891 
L 210.788889 70.42045 
L 211.394923 71.170465 
L 212.002984 72.627418 
L 212.613078 71.440968 
L 213.225211 70.963535 
L 213.839391 69.245369 
L 214.455624 71.522202 
L 215.073917 71.668849 
L 215.694278 70.997804 
L 216.316713 72.306868 
L 216.941228 69.877496 
L 217.567832 69.446139 
L 218.19653 72.079454 
L 218.82733 67.208198 
L 219.46024 73.090257 
L 220.095265 70.668016 
L 220.732413 71.950835 
L 221.371692 69.460873 
L 222.013107 71.599401 
L 222.656667 68.938702 
L 223.302379 71.612229 
L 223.95025 69.362922 
L 224.600286 69.40153 
L 225.252496 70.570615 
L 225.906886 69.441599 
L 226.563464 69.793331 
L 227.222237 70.913005 
L 227.883213 68.806109 
L 228.546398 72.017442 
L 229.211801 69.421324 
L 229.879428 69.626443 
L 230.549288 70.120629 
L 231.221386 68.786614 
L 231.895732 70.66269 
L 233.251195 68.896373 
L 233.932327 69.693938 
L 234.615736 69.017197 
L 235.30143 67.753093 
L 235.989417 69.028016 
L 236.679703 68.438244 
L 237.372298 67.434666 
L 238.067208 68.340123 
L 238.764441 69.659878 
L 239.464005 68.943252 
L 240.165908 66.607684 
L 240.870158 68.349131 
L 242.285729 68.465296 
L 242.997066 68.28698 
L 243.710781 68.48689 
L 244.426882 67.899658 
L 245.145377 67.556779 
L 245.866275 67.656011 
L 246.589582 66.421543 
L 247.315308 68.054344 
L 248.04346 68.230635 
L 248.774047 68.215723 
L 249.507076 67.179075 
L 250.242555 66.859799 
L 250.980494 67.824911 
L 251.7209 66.858561 
L 252.463781 67.154507 
L 253.209146 67.699527 
L 253.957002 67.783752 
L 254.707359 67.286648 
L 255.460225 67.560575 
L 256.215608 66.905255 
L 256.973516 66.634227 
L 258.496942 67.120457 
L 259.262477 66.46744 
L 260.030572 66.713285 
L 260.801235 65.872868 
L 261.574474 66.991377 
L 262.350298 66.457766 
L 263.128716 66.143306 
L 263.909736 67.109917 
L 264.693368 66.71783 
L 265.47962 67.081259 
L 267.060017 66.395082 
L 267.854181 66.406788 
L 268.651 66.194557 
L 269.450483 66.262405 
L 270.252639 65.813198 
L 271.057476 65.879674 
L 271.865005 66.225974 
L 272.675233 66.829299 
L 273.48817 65.777025 
L 274.303825 66.510464 
L 275.122207 65.948991 
L 276.767188 66.175518 
L 277.593805 66.007219 
L 278.423186 66.206717 
L 279.25534 65.928198 
L 280.090276 66.673304 
L 280.928004 65.968336 
L 281.768532 65.724929 
L 282.61187 65.716714 
L 284.307015 66.136108 
L 285.15884 65.653587 
L 286.871043 65.757442 
L 287.731441 65.748486 
L 288.594715 65.906472 
L 290.329931 65.69157 
L 291.201892 65.638853 
L 292.076768 66.088736 
L 292.95457 65.799666 
L 293.835306 65.966756 
L 294.718987 66.267696 
L 295.605622 65.765812 
L 296.495221 65.905098 
L 297.387795 66.187961 
L 298.283352 65.664346 
L 299.181904 66.616463 
L 300.08346 66.520667 
L 300.98803 66.158849 
L 301.895624 66.311504 
L 302.806253 66.055744 
L 303.719926 66.434565 
L 304.636653 65.921169 
L 305.556446 66.347721 
L 306.479313 66.250511 
L 307.405266 66.3963 
L 308.334315 66.375825 
L 309.26647 66.049551 
L 310.201741 66.276207 
L 311.140139 66.672627 
L 312.081674 66.470388 
L 313.026357 66.148546 
L 313.974199 66.654364 
L 314.925209 66.687222 
L 315.879399 66.510063 
L 316.836779 66.730186 
L 317.79736 66.595823 
L 319.728166 66.812255 
L 320.698414 66.865068 
L 321.671905 66.773181 
L 323.628662 66.943677 
L 324.61195 66.956145 
L 325.598525 66.702603 
L 326.588399 66.911356 
L 327.581582 66.855541 
L 328.578085 66.911305 
L 329.57792 67.134744 
L 330.581098 66.778096 
L 331.58763 67.101197 
L 332.597526 67.051759 
L 333.610799 66.834035 
L 334.62746 67.028263 
L 336.67099 66.684509 
L 337.697882 66.789114 
L 338.728207 66.607918 
L 340.799202 66.627802 
L 341.839895 66.702192 
L 342.884068 66.371469 
L 343.931732 66.63922 
L 344.982898 66.688791 
L 346.037579 66.850973 
L 347.095785 66.421507 
L 348.15753 66.807439 
L 349.222824 66.44103 
L 350.29168 66.705053 
L 351.364109 66.277576 
L 352.440124 66.612475 
L 353.519736 66.39113 
L 354.602958 66.707328 
L 355.689801 66.862107 
L 356.780278 66.492787 
L 357.8744 66.713412 
L 358.97218 66.43074 
L 360.073631 66.688409 
L 361.178764 66.611271 
L 363.400126 66.732652 
L 364.516381 66.560896 
L 365.636367 66.707571 
L 366.760098 66.415625 
L 372.435357 66.632785 
L 373.581818 66.630573 
L 373.581818 66.630573 
" clip-path="url(#p0a8aafbd91)" style="fill: none; stroke: #264653; stroke-opacity: 0.95; stroke-linecap: square"/>
   </g>
   <g id="patch_3">
    <path d="M 54 128.16 
L 54 17.28 
" style="fill: none; stroke: #000000; stroke-width: 0.8; stroke-linejoin: miter; stroke-linecap: square"/>
   </g>
   <g id="patch_4">
    <path d="M 54 128.16 
L 388.8 128.16 
" style="fill: none; stroke: #000000; stroke-width: 0.8; stroke-linejoin: miter; stroke-linecap: square"/>
   </g>
  </g>
 </g>
 <defs>
  <clipPath id="p0a8aafbd91">
   <rect x="54" y="17.28" width="334.8" height="110.88"/>
  </clipPath>
 </defs>
</svg>
