<?xml version="1.0" encoding="utf-8" standalone="no"?>
<!DOCTYPE svg PUBLIC "-//W3C//DTD SVG 1.1//EN"
  "http://www.w3.org/Graphics/SVG/1.1/DTD/svg11.dtd">
<svg xmlns:xlink="http://www.w3.org/1999/xlink" width="427.43952pt" height="139.43952pt" viewBox="0 0 427.43952 139.43952" xmlns="http://www.w3.org/2000/svg" version="1.1">
 <metadata>
  <rdf:RDF xmlns:dc="http://purl.org/dc/elements/1.1/" xmlns:cc="http://creativecommons.org/ns#" xmlns:rdf="http://www.w3.org/1999/02/22-rdf-syntax-ns#">
   <cc:Work>
    <dc:type rdf:resource="http://purl.org/dc/dcmitype/StillImage"/>
    <dc:date>2025-10-04T18:07:21.714870</dc:date>
    <dc:format>image/svg+xml</dc:format>
    <dc:creator>
     <cc:Agent>
      <dc:title>Matplotlib v3.5.2, https://matplotlib.org/</dc:title>
     </cc:Agent>
    </dc:creator>
   </cc:Work>
  </rdf:RDF>
 </metadata>
 <defs>
  <style type="text/css">*{stroke-linejoin: round; stroke-linecap: butt}</style>
 </defs>
 <g id="figure_1">
  <g id="patch_1">
   <path d="M 0 139.43952 
L 427.43952 139.43952 
L 427.43952 0 
L 0 0 
L 0 139.43952 
z
" style="fill: none"/>
  </g>
  <g id="axes_1">
   <g id="patch_2">
    <path d="M 59.367812 107.151395 
L 426.71952 107.151395 
L 426.71952 0.72 
L 59.367812 0.72 
L 59.367812 107.151395 
z
" style="fill: none"/>
   </g>
   <g id="line2d_1">
    <path d="M 59.367812 10.750118 
L 426.71952 10.750118 
" clip-path="url(#p02be231432)" style="fill: none; stroke-dasharray: 3.7,1.6; stroke-dashoffset: 0; stroke: #808080; stroke-opacity: 0.6"/>
   </g>
   <g id="PolyCollection_1">
    <defs>
     <path id="mae97c2831f" d="M 76.065617 -100.221563 
L 76.065617 -128.689402 
L 76.211248 -128.689402 
L 76.357366 -128.689402 
L 76.503972 -128.689402 
L 76.651069 -128.689402 
L 76.798657 -128.689402 
L 76.946739 -128.689402 
L 77.095315 -128.689402 
L 77.244389 -128.689402 
L 77.393961 -128.689402 
L 77.544033 -128.689402 
L 77.694606 -128.689402 
L 77.845683 -128.689402 
L 77.997265 -128.689402 
L 78.149354 -128.689402 
L 78.301952 -128.689402 
L 78.455059 -128.689402 
L 78.608679 -128.689402 
L 78.762812 -128.689402 
L 78.91746 -128.689402 
L 79.072625 -128.689402 
L 79.228309 -128.689402 
L 79.384514 -128.689402 
L 79.541241 -128.689402 
L 79.698492 -128.689402 
L 79.856268 -128.689402 
L 80.014572 -128.689402 
L 80.173406 -128.689402 
L 80.33277 -128.689402 
L 80.492667 -128.689402 
L 80.653099 -128.689402 
L 80.814067 -128.689402 
L 80.975573 -128.689402 
L 81.137619 -128.689402 
L 81.300207 -128.689402 
L 81.463339 -128.689402 
L 81.627016 -128.689402 
L 81.79124 -128.689402 
L 81.956013 -128.689402 
L 82.121337 -128.689402 
L 82.287214 -128.689402 
L 82.453645 -128.689402 
L 82.620633 -128.689402 
L 82.788179 -128.689402 
L 82.956285 -128.689402 
L 83.124953 -128.689402 
L 83.294185 -128.689402 
L 83.463983 -128.689402 
L 83.634349 -128.689402 
L 83.805284 -128.689402 
L 83.976791 -128.689402 
L 84.148871 -128.689402 
L 84.321526 -128.689402 
L 84.494759 -128.689402 
L 84.66857 -128.689402 
L 84.842963 -128.689402 
L 85.017939 -128.689402 
L 85.1935 -128.689402 
L 85.369648 -128.689402 
L 85.546385 -128.689402 
L 85.723712 -128.689402 
L 85.901633 -128.689402 
L 86.080148 -128.689402 
L 86.25926 -128.689402 
L 86.438971 -128.689402 
L 86.619283 -128.689402 
L 86.800197 -128.689402 
L 86.981717 -128.689402 
L 87.163843 -128.689402 
L 87.346578 -128.689402 
L 87.529925 -128.689402 
L 87.713884 -128.689402 
L 87.898458 -128.689402 
L 88.083649 -128.689402 
L 88.269459 -128.689402 
L 88.455891 -128.689402 
L 88.642946 -128.689402 
L 88.830626 -128.689402 
L 89.018934 -128.689402 
L 89.207871 -128.689402 
L 89.39744 -128.689402 
L 89.587643 -128.689402 
L 89.778481 -128.689402 
L 89.969958 -128.689402 
L 90.162075 -128.689402 
L 90.354834 -128.689402 
L 90.548237 -128.689402 
L 90.742287 -128.689402 
L 90.936986 -128.689402 
L 91.132336 -128.689402 
L 91.328339 -128.689402 
L 91.524997 -128.689402 
L 91.722313 -128.689402 
L 91.920288 -128.689402 
L 92.118926 -128.689402 
L 92.318227 -128.689402 
L 92.518195 -128.689402 
L 92.718831 -128.689402 
L 92.920138 -128.689402 
L 93.122118 -128.689402 
L 93.324773 -128.689402 
L 93.528106 -128.689402 
L 93.732118 -128.689402 
L 93.936813 -128.689402 
L 94.142192 -128.689402 
L 94.348258 -128.689402 
L 94.555012 -128.689402 
L 94.762458 -128.689402 
L 94.970598 -128.689402 
L 95.179433 -128.689402 
L 95.388966 -128.689402 
L 95.5992 -128.689402 
L 95.810137 -128.689402 
L 96.021779 -128.689402 
L 96.234129 -128.689402 
L 96.447188 -128.689402 
L 96.66096 -128.689402 
L 96.875447 -128.689402 
L 97.090651 -128.689402 
L 97.306574 -128.689402 
L 97.523219 -128.689402 
L 97.740588 -128.689402 
L 97.958684 -128.689402 
L 98.177509 -128.689402 
L 98.397066 -128.689402 
L 98.617357 -128.689402 
L 98.838384 -128.689402 
L 99.060151 -128.689402 
L 99.282658 -128.689402 
L 99.50591 -128.689402 
L 99.729908 -128.689402 
L 99.954655 -128.689402 
L 100.180153 -128.689402 
L 100.406405 -128.689402 
L 100.633414 -128.689402 
L 100.861181 -128.689402 
L 101.08971 -128.689402 
L 101.319003 -128.689402 
L 101.549063 -128.689402 
L 101.779892 -128.689402 
L 102.011492 -128.689402 
L 102.243867 -128.689402 
L 102.477019 -128.689402 
L 102.71095 -128.689402 
L 102.945663 -128.689402 
L 103.181161 -128.689402 
L 103.417447 -128.689402 
L 103.654522 -128.689402 
L 103.89239 -128.689402 
L 104.131053 -128.689402 
L 104.370514 -128.689402 
L 104.610776 -128.689402 
L 104.851841 -128.689402 
L 105.093712 -128.689402 
L 105.336391 -128.689402 
L 105.579882 -128.689402 
L 105.824187 -128.689402 
L 106.069308 -128.689402 
L 106.31525 -128.689402 
L 106.562013 -128.689402 
L 106.809601 -128.689402 
L 107.058018 -128.689402 
L 107.307264 -128.689402 
L 107.557344 -128.689402 
L 107.80826 -128.689402 
L 108.060015 -128.689402 
L 108.312612 -128.689402 
L 108.566053 -128.689402 
L 108.820341 -128.689402 
L 109.07548 -128.689402 
L 109.331472 -128.689402 
L 109.588319 -128.689402 
L 109.846025 -128.689402 
L 110.104593 -128.689402 
L 110.364025 -128.689402 
L 110.624325 -128.689402 
L 110.885495 -128.689402 
L 111.147538 -128.689402 
L 111.410457 -128.689402 
L 111.674255 -128.689402 
L 111.938935 -128.689402 
L 112.204499 -128.689402 
L 112.470952 -128.689402 
L 112.738296 -128.689402 
L 113.006533 -128.689402 
L 113.275667 -128.689402 
L 113.545701 -128.689402 
L 113.816638 -128.689402 
L 114.088481 -128.689402 
L 114.361232 -128.689402 
L 114.634895 -128.689402 
L 114.909473 -128.689402 
L 115.18497 -128.689402 
L 115.461387 -128.689402 
L 115.738728 -128.689402 
L 116.016997 -128.689402 
L 116.296196 -128.689402 
L 116.576328 -128.689402 
L 116.857397 -128.689402 
L 117.139406 -128.689402 
L 117.422357 -128.689402 
L 117.706254 -128.689402 
L 117.991101 -128.689402 
L 118.2769 -128.689402 
L 118.563654 -128.689402 
L 118.851367 -128.689402 
L 119.140042 -128.689402 
L 119.429682 -128.689402 
L 119.720291 -128.689402 
L 120.011871 -128.689402 
L 120.304426 -128.689402 
L 120.597959 -128.689402 
L 120.892473 -128.689402 
L 121.187972 -128.689402 
L 121.484459 -128.689402 
L 121.781937 -128.689402 
L 122.080409 -128.689402 
L 122.37988 -128.689402 
L 122.680352 -128.689402 
L 122.981828 -128.689402 
L 123.284312 -128.689402 
L 123.587808 -128.689402 
L 123.892318 -128.689402 
L 124.197846 -128.689402 
L 124.504396 -128.689402 
L 124.81197 -128.689402 
L 125.120573 -128.689402 
L 125.430208 -128.689402 
L 125.740877 -128.689402 
L 126.052586 -128.689402 
L 126.365336 -128.689402 
L 126.679133 -128.689402 
L 126.993978 -128.689402 
L 127.309876 -128.689402 
L 127.62683 -128.689402 
L 127.944843 -128.689402 
L 128.26392 -128.689402 
L 128.584064 -128.689402 
L 128.905278 -128.689402 
L 129.227566 -128.689402 
L 129.550931 -128.689402 
L 129.875377 -128.689402 
L 130.200909 -128.689402 
L 130.527528 -128.689402 
L 130.85524 -128.689402 
L 131.184047 -128.689402 
L 131.513953 -128.689402 
L 131.844962 -128.689402 
L 132.177078 -128.689402 
L 132.510305 -128.689402 
L 132.844645 -128.689402 
L 133.180103 -128.689402 
L 133.516683 -128.689402 
L 133.854388 -128.689402 
L 134.193222 -128.689402 
L 134.533189 -128.689402 
L 134.874292 -128.689402 
L 135.216536 -128.689402 
L 135.559924 -128.689402 
L 135.90446 -128.689402 
L 136.250148 -128.689402 
L 136.596992 -128.689402 
L 136.944995 -128.689402 
L 137.294162 -128.689402 
L 137.644496 -128.689402 
L 137.996002 -128.689402 
L 138.348682 -128.689402 
L 138.702542 -128.689402 
L 139.057585 -128.689402 
L 139.413814 -128.689402 
L 139.771235 -128.689402 
L 140.129851 -128.689402 
L 140.489665 -128.689402 
L 140.850683 -128.689402 
L 141.212907 -128.689402 
L 141.576343 -128.689402 
L 141.940993 -128.689402 
L 142.306863 -128.689402 
L 142.673956 -128.689402 
L 143.042276 -128.689402 
L 143.411828 -128.689402 
L 143.782615 -128.689402 
L 144.154641 -128.689402 
L 144.527912 -128.689402 
L 144.90243 -128.689402 
L 145.278201 -128.689402 
L 145.655228 -128.689402 
L 146.033515 -128.689402 
L 146.413067 -128.689402 
L 146.793888 -128.689402 
L 147.175983 -128.689402 
L 147.559354 -128.689402 
L 147.944008 -128.689402 
L 148.329947 -128.689402 
L 148.717177 -128.689402 
L 149.105701 -128.689402 
L 149.495524 -128.689402 
L 149.886651 -128.689402 
L 150.279085 -128.689402 
L 150.672831 -128.689402 
L 151.067893 -128.689402 
L 151.464277 -128.689402 
L 151.861985 -128.689402 
L 152.261024 -128.689402 
L 152.661396 -128.689402 
L 153.063107 -128.689402 
L 153.466161 -128.689402 
L 153.870562 -128.689402 
L 154.276315 -128.689402 
L 154.683425 -128.689402 
L 155.091896 -128.689402 
L 155.501733 -128.689402 
L 155.91294 -128.689402 
L 156.325521 -128.689402 
L 156.739482 -128.689402 
L 157.154827 -128.689402 
L 157.571561 -128.689402 
L 157.989688 -128.689402 
L 158.409212 -128.689402 
L 158.83014 -128.689402 
L 159.252474 -128.689402 
L 159.676221 -128.689402 
L 160.101384 -128.689402 
L 160.527969 -128.689402 
L 160.95598 -128.689402 
L 161.385422 -128.689402 
L 161.816299 -128.689402 
L 162.248617 -128.689402 
L 162.682381 -128.689402 
L 163.117594 -128.689402 
L 163.554263 -128.689402 
L 163.992392 -128.689402 
L 164.431985 -128.689402 
L 164.873048 -128.689402 
L 165.315586 -128.689402 
L 165.759603 -128.689402 
L 166.205104 -128.689402 
L 166.652095 -128.689402 
L 167.100581 -128.689402 
L 167.550566 -128.689402 
L 168.002055 -128.689402 
L 168.455054 -128.689402 
L 168.909567 -128.689402 
L 169.3656 -128.689402 
L 169.823157 -128.689402 
L 170.282244 -128.689402 
L 170.742866 -128.689402 
L 171.205028 -128.689402 
L 171.668735 -128.689402 
L 172.133993 -128.689402 
L 172.600806 -128.689402 
L 173.069179 -128.689402 
L 173.539119 -128.689402 
L 174.010629 -128.689402 
L 174.483716 -128.689402 
L 174.958385 -128.689402 
L 175.43464 -128.689402 
L 175.912488 -128.689402 
L 176.391934 -128.689402 
L 176.872982 -128.689402 
L 177.355639 -128.689402 
L 177.839909 -128.689402 
L 178.325798 -128.689402 
L 178.813312 -128.689402 
L 179.302455 -128.689402 
L 179.793234 -128.689402 
L 180.285654 -128.689402 
L 180.77972 -128.689402 
L 181.275438 -128.689402 
L 181.772813 -128.689402 
L 182.271851 -128.689402 
L 182.772558 -128.689402 
L 183.274938 -128.689402 
L 183.778998 -128.689402 
L 184.284743 -128.689402 
L 184.792179 -128.689402 
L 185.301312 -128.689402 
L 185.812146 -128.689402 
L 186.324689 -128.689402 
L 186.838945 -128.689402 
L 187.354921 -128.689402 
L 187.872621 -128.689402 
L 188.392052 -128.689402 
L 188.91322 -128.689402 
L 189.436131 -128.689402 
L 189.960789 -128.689402 
L 190.487202 -128.689402 
L 191.015374 -128.689402 
L 191.545312 -128.689402 
L 192.077023 -128.689402 
L 192.61051 -128.689402 
L 193.145782 -128.689402 
L 193.682842 -128.689402 
L 194.221699 -128.689402 
L 194.762357 -128.689402 
L 195.304822 -128.689402 
L 195.849101 -128.689402 
L 196.3952 -128.689402 
L 196.943125 -128.689402 
L 197.492881 -128.689402 
L 198.044475 -128.689402 
L 198.597914 -128.689402 
L 199.153203 -128.689402 
L 199.710348 -128.689402 
L 200.269356 -128.689402 
L 200.830233 -128.689402 
L 201.392985 -128.689402 
L 201.957618 -128.689402 
L 202.524139 -128.689402 
L 203.092554 -128.689402 
L 203.66287 -128.689402 
L 204.235092 -128.689402 
L 204.809227 -128.689402 
L 205.385282 -128.689402 
L 205.963263 -128.689402 
L 206.543176 -128.689402 
L 207.125028 -128.689402 
L 207.708825 -128.689402 
L 208.294574 -128.689402 
L 208.882281 -128.689402 
L 209.471953 -128.689402 
L 210.063597 -128.689402 
L 210.657219 -128.689402 
L 211.252825 -128.689402 
L 211.850422 -128.689402 
L 212.450018 -128.689402 
L 213.051618 -128.689402 
L 213.655229 -128.689402 
L 214.260858 -128.689402 
L 214.868513 -128.689402 
L 215.478198 -128.689402 
L 216.089922 -128.689402 
L 216.703691 -128.689402 
L 217.319513 -128.689402 
L 217.937393 -128.689402 
L 218.557338 -128.689402 
L 219.179357 -128.689402 
L 219.803455 -128.689402 
L 220.429639 -128.689402 
L 221.057917 -128.689402 
L 221.688296 -128.689402 
L 222.320782 -128.689402 
L 222.955382 -128.689402 
L 223.592105 -128.689402 
L 224.230956 -128.689402 
L 224.871942 -128.689402 
L 225.515072 -128.689402 
L 226.160352 -128.689402 
L 226.807789 -128.689402 
L 227.457391 -128.689402 
L 228.109165 -128.689402 
L 228.763118 -128.689402 
L 229.419257 -128.689402 
L 230.077589 -128.689402 
L 230.738123 -128.689402 
L 231.400865 -128.689402 
L 232.065823 -128.689402 
L 232.733003 -128.689402 
L 233.402415 -128.689402 
L 234.074064 -128.689402 
L 234.747959 -128.689402 
L 235.424107 -128.689402 
L 236.102516 -128.689402 
L 236.783192 -128.689402 
L 237.466144 -128.689402 
L 238.15138 -128.689402 
L 238.838906 -128.689402 
L 239.528732 -128.689402 
L 240.220863 -128.689402 
L 240.915308 -128.689402 
L 241.612075 -128.689402 
L 242.311172 -128.689402 
L 243.012605 -128.689402 
L 243.716384 -128.689402 
L 244.422516 -128.689402 
L 245.131009 -128.689402 
L 245.84187 -128.689402 
L 246.555108 -128.689402 
L 247.27073 -128.689402 
L 247.988745 -128.689402 
L 248.70916 -128.689402 
L 249.431984 -128.689402 
L 250.157225 -128.689402 
L 250.88489 -128.689402 
L 251.614988 -128.689402 
L 252.347527 -128.689402 
L 253.082515 -128.689402 
L 253.81996 -128.689402 
L 254.55987 -128.689402 
L 255.302255 -128.689402 
L 256.047121 -128.689402 
L 256.794478 -128.689402 
L 257.544333 -128.689402 
L 258.296695 -128.689402 
L 259.051573 -128.689402 
L 259.808974 -128.689402 
L 260.568908 -128.689402 
L 261.331382 -128.689402 
L 262.096405 -128.689402 
L 262.863986 -128.689402 
L 263.634134 -128.689402 
L 264.406856 -128.689402 
L 265.182161 -128.689402 
L 265.960059 -128.689402 
L 266.740557 -128.689402 
L 267.523664 -128.689402 
L 268.30939 -128.689402 
L 269.097743 -128.689402 
L 269.888731 -128.689402 
L 270.682364 -128.689402 
L 271.47865 -128.689402 
L 272.277599 -128.689402 
L 273.079218 -128.689402 
L 273.883518 -128.689402 
L 274.690506 -128.689402 
L 275.500192 -128.689402 
L 276.312586 -128.689402 
L 277.127695 -128.689402 
L 277.94553 -128.689402 
L 278.766099 -128.689402 
L 279.589411 -128.689402 
L 280.415476 -128.689402 
L 281.244302 -128.689402 
L 282.0759 -128.689402 
L 282.910277 -128.689402 
L 283.747445 -128.689402 
L 284.587411 -128.689402 
L 285.430185 -128.689402 
L 286.275777 -128.689402 
L 287.124196 -128.689402 
L 287.975452 -128.689402 
L 288.829553 -128.689402 
L 289.68651 -128.689402 
L 290.546333 -128.689402 
L 291.409029 -128.689402 
L 292.27461 -128.689402 
L 293.143085 -128.689402 
L 294.014463 -128.689402 
L 294.888755 -128.689402 
L 295.765969 -128.689402 
L 296.646116 -128.689402 
L 297.529206 -128.689402 
L 298.415248 -128.689402 
L 299.304253 -128.689402 
L 300.19623 -128.689402 
L 301.091188 -128.689402 
L 301.989139 -128.689402 
L 302.890092 -128.689402 
L 303.794057 -128.689402 
L 304.701045 -128.689402 
L 305.611064 -128.689402 
L 306.524126 -128.689402 
L 307.440241 -128.689402 
L 308.359418 -128.689402 
L 309.281669 -128.689402 
L 310.207003 -128.689402 
L 311.13543 -128.689402 
L 312.066962 -128.689402 
L 313.001608 -128.689402 
L 313.939378 -128.689402 
L 314.880284 -128.689402 
L 315.824335 -128.689402 
L 316.771543 -128.689402 
L 317.721918 -128.689402 
L 318.675469 -128.689402 
L 319.632209 -128.689402 
L 320.592148 -128.689402 
L 321.555295 -128.689402 
L 322.521663 -128.689402 
L 323.491262 -128.689402 
L 324.464102 -128.689402 
L 325.440195 -128.689402 
L 326.419551 -128.689402 
L 327.402181 -128.689402 
L 328.388097 -128.689402 
L 329.377308 -128.689402 
L 330.369827 -128.689402 
L 331.365664 -128.689402 
L 332.364831 -128.689402 
L 333.367338 -128.689402 
L 334.373196 -128.689402 
L 335.382418 -128.689402 
L 336.395013 -128.689402 
L 337.410994 -128.689402 
L 338.430372 -128.689402 
L 339.453157 -128.689402 
L 340.479363 -128.689402 
L 341.508999 -128.689402 
L 342.542077 -128.689402 
L 343.578609 -128.689402 
L 344.618607 -128.689402 
L 345.662081 -128.689402 
L 346.709044 -128.689402 
L 347.759508 -128.689402 
L 348.813483 -128.689402 
L 349.870982 -128.689402 
L 350.932017 -128.689402 
L 351.996599 -128.689402 
L 353.06474 -128.689402 
L 354.136452 -128.689402 
L 355.211748 -128.689402 
L 356.290638 -128.689402 
L 357.373135 -128.689402 
L 358.459251 -128.689402 
L 359.548999 -128.689402 
L 360.64239 -128.689402 
L 361.739436 -128.689402 
L 362.84015 -128.689402 
L 363.944544 -128.689402 
L 365.05263 -128.689402 
L 366.164421 -128.689402 
L 367.279929 -128.689402 
L 368.399167 -128.689402 
L 369.522146 -128.689402 
L 370.648879 -128.689402 
L 371.77938 -128.689402 
L 372.91366 -128.689402 
L 374.051733 -128.689402 
L 375.19361 -128.689402 
L 376.339305 -128.689402 
L 377.48883 -128.689402 
L 378.642199 -128.689402 
L 379.799423 -128.689402 
L 380.960516 -128.689402 
L 382.125491 -128.689402 
L 383.294361 -128.689402 
L 384.467139 -128.689402 
L 385.643838 -128.689402 
L 386.824471 -128.689402 
L 388.009051 -128.689402 
L 389.197591 -128.689402 
L 390.390105 -128.689402 
L 391.586606 -128.689402 
L 392.787107 -128.689402 
L 393.991621 -128.689402 
L 395.200163 -128.689402 
L 396.412745 -128.689402 
L 397.629381 -128.689402 
L 398.850085 -128.689402 
L 400.074869 -128.689402 
L 401.303749 -128.689402 
L 402.536737 -128.689402 
L 403.773847 -128.689402 
L 405.015093 -128.689402 
L 406.260489 -128.689402 
L 407.510049 -128.689402 
L 408.763786 -128.689402 
L 410.021715 -128.689402 
L 410.021715 -124.114376 
L 410.021715 -124.114376 
L 408.763786 -124.168815 
L 407.510049 -123.882444 
L 406.260489 -123.764983 
L 405.015093 -124.906584 
L 403.773847 -125.294623 
L 402.536737 -125.859536 
L 401.303749 -123.749106 
L 400.074869 -124.880736 
L 398.850085 -123.752717 
L 397.629381 -124.199904 
L 396.412745 -124.671592 
L 395.200163 -124.05366 
L 393.991621 -126.021866 
L 392.787107 -124.009934 
L 391.586606 -125.582859 
L 390.390105 -123.259661 
L 389.197591 -124.338903 
L 388.009051 -126.318888 
L 386.824471 -124.905828 
L 385.643838 -127.008846 
L 384.467139 -124.484968 
L 383.294361 -126.208225 
L 382.125491 -123.97057 
L 380.960516 -126.277793 
L 379.799423 -123.895004 
L 378.642199 -124.878481 
L 377.48883 -125.218576 
L 376.339305 -126.698789 
L 375.19361 -125.005082 
L 374.051733 -125.336232 
L 372.91366 -125.605653 
L 371.77938 -125.545684 
L 370.648879 -124.711319 
L 369.522146 -125.145347 
L 368.399167 -124.488732 
L 367.279929 -123.406019 
L 366.164421 -124.487924 
L 365.05263 -123.393365 
L 363.944544 -123.173921 
L 362.84015 -124.850348 
L 361.739436 -123.196821 
L 360.64239 -124.226933 
L 359.548999 -124.679728 
L 358.459251 -124.449775 
L 357.373135 -125.485644 
L 356.290638 -124.405162 
L 355.211748 -124.612615 
L 354.136452 -124.877632 
L 353.06474 -125.473665 
L 351.996599 -125.119459 
L 350.932017 -125.496462 
L 349.870982 -125.788244 
L 348.813483 -126.434912 
L 347.759508 -126.069833 
L 346.709044 -126.915753 
L 345.662081 -126.333094 
L 344.618607 -126.503598 
L 343.578609 -128.183955 
L 342.542077 -127.240294 
L 341.508999 -126.634462 
L 340.479363 -127.827246 
L 339.453157 -128.474918 
L 338.430372 -127.588905 
L 337.410994 -127.568536 
L 336.395013 -127.965481 
L 335.382418 -127.720026 
L 334.373196 -128.807325 
L 333.367338 -127.555672 
L 332.364831 -128.480572 
L 331.365664 -127.8738 
L 330.369827 -128.250573 
L 329.377308 -127.383879 
L 328.388097 -127.224757 
L 327.402181 -129.346312 
L 326.419551 -128.221978 
L 325.440195 -128.822638 
L 324.464102 -129.10703 
L 323.491262 -128.092671 
L 322.521663 -128.69353 
L 321.555295 -129.01958 
L 320.592148 -128.457151 
L 319.632209 -129.306113 
L 318.675469 -129.198784 
L 317.721918 -129.06097 
L 316.771543 -128.803446 
L 315.824335 -129.08161 
L 314.880284 -129.063505 
L 313.939378 -129.09704 
L 313.001608 -129.232709 
L 312.066962 -128.397932 
L 311.13543 -128.843161 
L 310.207003 -129.118469 
L 309.281669 -129.107038 
L 308.359418 -128.690242 
L 307.440241 -127.506984 
L 306.524126 -128.75716 
L 305.611064 -128.293447 
L 304.701045 -128.626664 
L 303.794057 -128.342681 
L 302.890092 -128.507214 
L 301.989139 -128.72156 
L 301.091188 -127.794562 
L 300.19623 -129.000381 
L 299.304253 -127.282493 
L 298.415248 -128.273095 
L 297.529206 -128.832048 
L 296.646116 -128.936929 
L 295.765969 -128.226397 
L 294.888755 -128.331027 
L 294.014463 -127.993562 
L 293.143085 -128.02662 
L 292.27461 -127.454385 
L 291.409029 -126.954587 
L 290.546333 -127.528747 
L 289.68651 -126.902294 
L 288.829553 -128.425396 
L 287.975452 -127.942609 
L 287.124196 -127.163253 
L 286.275777 -128.835701 
L 285.430185 -127.558435 
L 284.587411 -127.956109 
L 283.747445 -126.934398 
L 282.910277 -127.31906 
L 282.0759 -127.695415 
L 281.244302 -127.303832 
L 280.415476 -126.194487 
L 279.589411 -126.700724 
L 278.766099 -126.011124 
L 277.94553 -126.121043 
L 277.127695 -126.945528 
L 276.312586 -127.370906 
L 275.500192 -125.939954 
L 274.690506 -127.389608 
L 273.883518 -126.934751 
L 273.079218 -125.295324 
L 272.277599 -125.357797 
L 271.47865 -125.56523 
L 270.682364 -128.012948 
L 269.888731 -126.245499 
L 269.097743 -126.449546 
L 268.30939 -125.81039 
L 267.523664 -124.933847 
L 266.740557 -125.230918 
L 265.960059 -125.017029 
L 265.182161 -125.12294 
L 264.406856 -125.076539 
L 263.634134 -127.786809 
L 262.863986 -124.276124 
L 262.096405 -123.292555 
L 261.331382 -125.177288 
L 260.568908 -126.610399 
L 259.808974 -125.034934 
L 259.051573 -124.315013 
L 258.296695 -126.082 
L 257.544333 -124.328168 
L 256.794478 -123.141555 
L 256.047121 -124.596842 
L 255.302255 -122.671312 
L 254.55987 -122.068361 
L 253.81996 -124.409059 
L 253.082515 -122.744332 
L 252.347527 -123.291414 
L 251.614988 -123.992131 
L 250.88489 -119.331457 
L 250.157225 -124.942171 
L 249.431984 -121.548028 
L 248.70916 -123.502783 
L 247.988745 -123.638106 
L 247.27073 -122.322346 
L 246.555108 -123.889776 
L 245.84187 -124.15845 
L 245.131009 -120.682403 
L 244.422516 -124.695029 
L 243.716384 -120.901585 
L 243.012605 -124.206045 
L 242.311172 -120.504301 
L 241.612075 -122.985951 
L 240.915308 -118.573933 
L 240.220863 -127.250001 
L 239.528732 -120.635324 
L 238.838906 -124.311672 
L 238.15138 -123.956155 
L 237.466144 -120.263368 
L 236.783192 -122.465798 
L 236.102516 -121.43379 
L 235.424107 -122.240103 
L 234.747959 -124.686825 
L 234.074064 -122.807671 
L 233.402415 -121.721849 
L 232.733003 -121.116494 
L 232.065823 -122.823641 
L 231.400865 -123.503004 
L 230.738123 -123.030842 
L 230.077589 -119.078156 
L 229.419257 -121.957556 
L 228.763118 -123.515173 
L 228.109165 -121.457672 
L 227.457391 -122.555 
L 226.807789 -122.065714 
L 226.160352 -124.10358 
L 225.515072 -125.924621 
L 224.871942 -122.637865 
L 224.230956 -124.11498 
L 223.592105 -125.185855 
L 222.955382 -125.946984 
L 222.320782 -125.459624 
L 221.688296 -122.62427 
L 221.057917 -123.304817 
L 220.429639 -122.223982 
L 219.803455 -119.149518 
L 219.179357 -125.243317 
L 218.557338 -124.355173 
L 217.937393 -122.426793 
L 217.319513 -122.648542 
L 216.703691 -119.680406 
L 216.089922 -119.959406 
L 215.478198 -123.312442 
L 214.868513 -123.611939 
L 214.260858 -121.842619 
L 213.655229 -124.550327 
L 213.051618 -124.152444 
L 212.450018 -124.237653 
L 211.850422 -124.800468 
L 211.252825 -126.187727 
L 210.657219 -125.228242 
L 210.063597 -126.187423 
L 209.471953 -127.563377 
L 208.882281 -125.890573 
L 208.294574 -126.386148 
L 207.708825 -126.6677 
L 207.125028 -127.352261 
L 206.543176 -129.101385 
L 205.963263 -127.275728 
L 205.385282 -128.687545 
L 204.809227 -129.41293 
L 204.235092 -128.241882 
L 203.66287 -129.62854 
L 203.092554 -128.704977 
L 202.524139 -128.510452 
L 201.957618 -128.316793 
L 201.392985 -128.757062 
L 200.830233 -128.879387 
L 200.269356 -129.467752 
L 199.710348 -129.264787 
L 199.153203 -126.644197 
L 198.597914 -130.585701 
L 198.044475 -131.017011 
L 197.492881 -130.656832 
L 196.943125 -130.490833 
L 196.3952 -131.085186 
L 195.849101 -131.083048 
L 195.304822 -130.670689 
L 194.762357 -130.475149 
L 194.221699 -130.719497 
L 193.682842 -129.611319 
L 193.145782 -130.121464 
L 192.61051 -129.450304 
L 192.077023 -130.25776 
L 191.545312 -129.759992 
L 191.015374 -129.811276 
L 190.487202 -129.458463 
L 189.960789 -129.607439 
L 189.436131 -129.937474 
L 188.91322 -129.31761 
L 188.392052 -128.991196 
L 187.872621 -129.097483 
L 187.354921 -129.18669 
L 186.838945 -128.877175 
L 186.324689 -127.773573 
L 185.812146 -128.054562 
L 185.301312 -127.506905 
L 184.792179 -128.341115 
L 184.284743 -127.562251 
L 183.778998 -126.578405 
L 183.274938 -127.065226 
L 182.772558 -127.878989 
L 182.271851 -127.506771 
L 181.772813 -126.397849 
L 181.275438 -127.357865 
L 180.77972 -127.735078 
L 180.285654 -126.949028 
L 179.793234 -126.317274 
L 179.302455 -125.093815 
L 178.813312 -127.263546 
L 178.325798 -126.541453 
L 177.839909 -128.256134 
L 177.355639 -126.889299 
L 176.872982 -126.94952 
L 176.391934 -128.017071 
L 175.912488 -127.162526 
L 175.43464 -127.641993 
L 174.958385 -128.390548 
L 174.483716 -124.137194 
L 174.010629 -127.303597 
L 173.539119 -125.449191 
L 173.069179 -128.996987 
L 172.600806 -129.69264 
L 172.133993 -126.203598 
L 171.668735 -125.456003 
L 171.205028 -127.535936 
L 170.742866 -126.085794 
L 170.282244 -126.036067 
L 169.823157 -123.190382 
L 169.3656 -125.955805 
L 168.909567 -124.38518 
L 168.455054 -124.222101 
L 168.002055 -122.521261 
L 167.550566 -125.094364 
L 167.100581 -126.963033 
L 166.652095 -125.749888 
L 166.205104 -125.931144 
L 165.759603 -124.35106 
L 165.315586 -123.968845 
L 164.873048 -128.113355 
L 164.431985 -126.003537 
L 163.992392 -128.159262 
L 163.554263 -125.46036 
L 163.117594 -125.519488 
L 162.682381 -124.165131 
L 162.248617 -128.438842 
L 161.816299 -128.690296 
L 161.385422 -127.657179 
L 160.95598 -125.209052 
L 160.527969 -125.258632 
L 160.101384 -127.78561 
L 159.676221 -128.243702 
L 159.252474 -127.342203 
L 158.83014 -131.010578 
L 158.409212 -127.285757 
L 157.989688 -127.721646 
L 157.571561 -127.873641 
L 157.154827 -128.434535 
L 156.739482 -129.230901 
L 156.325521 -129.204128 
L 155.91294 -129.199641 
L 155.501733 -129.51618 
L 155.091896 -129.364514 
L 154.683425 -129.465875 
L 154.276315 -129.611092 
L 153.870562 -129.290574 
L 153.466161 -128.953572 
L 153.063107 -129.023445 
L 152.661396 -129.149058 
L 152.261024 -129.051278 
L 151.861985 -128.748897 
L 151.464277 -128.823755 
L 151.067893 -128.620759 
L 150.672831 -128.206595 
L 150.279085 -128.323954 
L 149.886651 -128.829097 
L 149.495524 -128.453153 
L 149.105701 -128.151501 
L 148.717177 -128.203924 
L 148.329947 -128.158384 
L 147.944008 -128.092454 
L 147.559354 -128.120897 
L 147.175983 -128.832412 
L 146.793888 -127.678964 
L 146.413067 -128.325566 
L 146.033515 -127.817309 
L 145.655228 -127.473692 
L 145.278201 -127.240055 
L 144.90243 -127.386447 
L 144.527912 -127.801117 
L 144.154641 -128.026996 
L 143.782615 -127.645073 
L 143.411828 -129.045715 
L 143.042276 -127.356875 
L 142.673956 -126.853083 
L 142.306863 -127.966908 
L 141.940993 -126.728576 
L 141.576343 -128.236035 
L 141.212907 -126.190462 
L 140.850683 -127.007306 
L 140.489665 -126.505557 
L 140.129851 -126.145134 
L 139.771235 -124.363437 
L 139.413814 -124.771914 
L 139.057585 -124.731018 
L 138.702542 -123.716671 
L 138.348682 -126.585926 
L 137.996002 -125.059104 
L 137.644496 -124.952915 
L 137.294162 -127.472255 
L 136.944995 -123.54244 
L 136.596992 -123.457292 
L 136.250148 -123.163987 
L 135.90446 -127.65875 
L 135.559924 -124.563507 
L 135.216536 -127.054219 
L 134.874292 -127.370889 
L 134.533189 -127.254004 
L 134.193222 -125.052669 
L 133.854388 -126.88121 
L 133.516683 -125.63073 
L 133.180103 -127.022445 
L 132.844645 -124.727776 
L 132.510305 -129.759952 
L 132.177078 -125.660526 
L 131.844962 -127.090887 
L 131.513953 -125.531961 
L 131.184047 -124.815199 
L 130.85524 -128.24287 
L 130.527528 -124.80298 
L 130.200909 -126.663848 
L 129.875377 -126.190259 
L 129.550931 -127.403958 
L 129.227566 -127.876166 
L 128.905278 -128.587095 
L 128.584064 -129.38988 
L 128.26392 -129.508729 
L 127.944843 -130.247781 
L 127.62683 -129.8172 
L 127.309876 -130.092004 
L 126.993978 -130.020435 
L 126.679133 -129.597527 
L 126.365336 -130.319284 
L 126.052586 -130.477072 
L 125.740877 -130.453007 
L 125.430208 -129.890274 
L 125.120573 -129.802904 
L 124.81197 -130.046041 
L 124.504396 -130.25818 
L 124.197846 -130.259472 
L 123.892318 -129.321832 
L 123.587808 -129.973918 
L 123.284312 -129.837802 
L 122.981828 -129.451506 
L 122.680352 -129.785897 
L 122.37988 -129.758306 
L 122.080409 -130.240439 
L 121.781937 -129.604821 
L 121.484459 -129.925191 
L 121.187972 -129.527412 
L 120.892473 -130.212342 
L 120.597959 -129.504895 
L 120.304426 -130.448297 
L 120.011871 -129.012693 
L 119.720291 -128.739879 
L 119.429682 -130.529973 
L 119.140042 -129.835194 
L 118.851367 -130.153675 
L 118.563654 -129.774695 
L 118.2769 -129.765892 
L 117.991101 -127.333899 
L 117.706254 -129.931511 
L 117.422357 -128.532277 
L 117.139406 -129.502588 
L 116.857397 -130.404916 
L 116.576328 -130.029347 
L 116.296196 -129.937133 
L 116.016997 -129.625536 
L 115.738728 -129.070319 
L 115.461387 -130.86505 
L 115.18497 -128.241715 
L 114.909473 -128.371956 
L 114.634895 -129.392688 
L 114.361232 -129.319619 
L 114.088481 -130.164229 
L 113.816638 -128.793872 
L 113.545701 -130.412801 
L 113.275667 -130.764276 
L 113.006533 -131.539665 
L 112.738296 -129.779672 
L 112.470952 -129.962501 
L 112.204499 -129.563168 
L 111.938935 -130.197377 
L 111.674255 -129.55739 
L 111.410457 -130.285912 
L 111.147538 -129.406204 
L 110.885495 -129.846751 
L 110.624325 -131.089 
L 110.364025 -131.765922 
L 110.104593 -129.730092 
L 109.846025 -130.665712 
L 109.588319 -130.118563 
L 109.331472 -131.17128 
L 109.07548 -130.825229 
L 108.820341 -130.258715 
L 108.566053 -130.852062 
L 108.312612 -128.28223 
L 108.060015 -131.037841 
L 107.80826 -130.603048 
L 107.557344 -131.265764 
L 107.307264 -131.026252 
L 107.058018 -129.405851 
L 106.809601 -130.029723 
L 106.562013 -130.559486 
L 106.31525 -130.347356 
L 106.069308 -128.926389 
L 105.824187 -130.132549 
L 105.579882 -129.220707 
L 105.336391 -130.04026 
L 105.093712 -126.972923 
L 104.851841 -127.840006 
L 104.610776 -130.862371 
L 104.370514 -129.587959 
L 104.131053 -129.907445 
L 103.89239 -129.368852 
L 103.654522 -131.841288 
L 103.417447 -130.250592 
L 103.181161 -130.880655 
L 102.945663 -132.757969 
L 102.71095 -133.668267 
L 102.477019 -133.881729 
L 102.243867 -131.945783 
L 102.011492 -131.282349 
L 101.779892 -132.963955 
L 101.549063 -132.259453 
L 101.319003 -132.276751 
L 101.08971 -133.093696 
L 100.861181 -132.565272 
L 100.633414 -131.350546 
L 100.406405 -132.806939 
L 100.180153 -132.257187 
L 99.954655 -130.873816 
L 99.729908 -129.392074 
L 99.50591 -132.584128 
L 99.282658 -130.146464 
L 99.060151 -129.791998 
L 98.838384 -127.536743 
L 98.617357 -129.508936 
L 98.397066 -128.239629 
L 98.177509 -125.494023 
L 97.958684 -127.696432 
L 97.740588 -125.889524 
L 97.523219 -120.52439 
L 97.306574 -122.427769 
L 97.090651 -123.308751 
L 96.875447 -121.416802 
L 96.66096 -126.645843 
L 96.447188 -124.285268 
L 96.234129 -122.583822 
L 96.021779 -119.316935 
L 95.810137 -118.81914 
L 95.5992 -118.112206 
L 95.388966 -118.836229 
L 95.179433 -119.871459 
L 94.970598 -122.214241 
L 94.762458 -128.306998 
L 94.555012 -126.306203 
L 94.348258 -125.589874 
L 94.142192 -126.029725 
L 93.936813 -125.643104 
L 93.732118 -131.065148 
L 93.528106 -127.033895 
L 93.324773 -127.82348 
L 93.122118 -125.155548 
L 92.920138 -126.175261 
L 92.718831 -122.159986 
L 92.518195 -125.094684 
L 92.318227 -126.539067 
L 92.118926 -125.096804 
L 91.920288 -126.723276 
L 91.722313 -126.625852 
L 91.524997 -126.073732 
L 91.328339 -124.317596 
L 91.132336 -121.500901 
L 90.936986 -120.979536 
L 90.742287 -120.582697 
L 90.548237 -118.372794 
L 90.354834 -122.873908 
L 90.162075 -119.390403 
L 89.969958 -123.17855 
L 89.778481 -119.523864 
L 89.587643 -123.487477 
L 89.39744 -117.18802 
L 89.207871 -115.252294 
L 89.018934 -113.152504 
L 88.830626 -114.97392 
L 88.642946 -98.006207 
L 88.455891 -61.442974 
L 88.269459 -37.125916 
L 88.083649 -48.061146 
L 87.898458 -105.470626 
L 87.713884 -110.392681 
L 87.529925 -105.298204 
L 87.346578 -103.830058 
L 87.163843 -100.878361 
L 86.981717 -97.930673 
L 86.800197 -95.703769 
L 86.619283 -91.121324 
L 86.438971 -98.343079 
L 86.25926 -103.813075 
L 86.080148 -107.299298 
L 85.901633 -113.251026 
L 85.723712 -125.727989 
L 85.546385 -123.817111 
L 85.369648 -112.709834 
L 85.1935 -116.353712 
L 85.017939 -110.397041 
L 84.842963 -109.897293 
L 84.66857 -113.048912 
L 84.494759 -100.175443 
L 84.321526 -98.746884 
L 84.148871 -106.681639 
L 83.976791 -110.643307 
L 83.805284 -105.497185 
L 83.634349 -119.06858 
L 83.463983 -113.160881 
L 83.294185 -117.456131 
L 83.124953 -107.951834 
L 82.956285 -109.737403 
L 82.788179 -112.694232 
L 82.620633 -108.744962 
L 82.453645 -96.973076 
L 82.287214 -110.921485 
L 82.121337 -100.524775 
L 81.956013 -106.566935 
L 81.79124 -105.418361 
L 81.627016 -106.16847 
L 81.463339 -118.359525 
L 81.300207 -114.413555 
L 81.137619 -104.796657 
L 80.975573 -109.100152 
L 80.814067 -110.895123 
L 80.653099 -117.990631 
L 80.492667 -108.663188 
L 80.33277 -109.380224 
L 80.173406 -118.312927 
L 80.014572 -117.971891 
L 79.856268 -103.626549 
L 79.698492 -107.190082 
L 79.541241 -110.337556 
L 79.384514 -112.547817 
L 79.228309 -121.742437 
L 79.072625 -111.525427 
L 78.91746 -103.961412 
L 78.762812 -103.495717 
L 78.608679 -104.994472 
L 78.455059 -105.753816 
L 78.301952 -101.754905 
L 78.149354 -93.925645 
L 77.997265 -106.4905 
L 77.845683 -100.912159 
L 77.694606 -98.649121 
L 77.544033 -100.124738 
L 77.393961 -97.294499 
L 77.244389 -102.268577 
L 77.095315 -116.782025 
L 76.946739 -109.376958 
L 76.798657 -112.380491 
L 76.651069 -108.777339 
L 76.503972 -109.51042 
L 76.357366 -101.534675 
L 76.211248 -103.886294 
L 76.065617 -100.221563 
z
" style="stroke: #e9c46a; stroke-opacity: 0.12"/>
    </defs>
    <g clip-path="url(#p02be231432)">
     <use xlink:href="#mae97c2831f" x="0" y="139.43952" style="fill: #e9c46a; fill-opacity: 0.12; stroke: #e9c46a; stroke-opacity: 0.12"/>
    </g>
   </g>
   <g id="matplotlib.axis_1">
    <g id="xtick_1">
     <g id="line2d_2">
      <defs>
       <path id="m70d31b3f8a" d="M 0 0 
L 0 3.5 
" style="stroke: #000000; stroke-width: 0.8"/>
      </defs>
      <g>
       <use xlink:href="#m70d31b3f8a" x="105.105278" y="107.151395" style="stroke: #000000; stroke-width: 0.8"/>
      </g>
     </g>
     <g id="text_1">
      <!-- 1 -->
      <g transform="translate(101.924028 121.749833)scale(0.1 -0.1)">
       <defs>
        <path id="DejaVuSerif-31" d="M 909 0 
L 909 331 
L 1722 331 
L 1722 4213 
L 781 3603 
L 781 4013 
L 1919 4750 
L 2350 4750 
L 2350 331 
L 3163 331 
L 3163 0 
L 909 0 
z
" transform="scale(0.015625)"/>
       </defs>
       <use xlink:href="#DejaVuSerif-31"/>
      </g>
     </g>
    </g>
    <g id="xtick_2">
     <g id="line2d_3">
      <g>
       <use xlink:href="#m70d31b3f8a" x="177.70443" y="107.151395" style="stroke: #000000; stroke-width: 0.8"/>
      </g>
     </g>
     <g id="text_2">
      <!-- 2 -->
      <g transform="translate(174.52318 121.749833)scale(0.1 -0.1)">
       <defs>
        <path id="DejaVuSerif-32" d="M 819 3553 
L 469 3553 
L 469 4384 
Q 803 4563 1142 4656 
Q 1481 4750 1806 4750 
Q 2534 4750 2956 4397 
Q 3378 4044 3378 3438 
Q 3378 2753 2422 1800 
Q 2347 1728 2309 1691 
L 1131 513 
L 3078 513 
L 3078 1088 
L 3444 1088 
L 3444 0 
L 434 0 
L 434 341 
L 1850 1753 
Q 2319 2222 2519 2614 
Q 2719 3006 2719 3438 
Q 2719 3909 2473 4175 
Q 2228 4441 1797 4441 
Q 1350 4441 1106 4219 
Q 863 3997 819 3553 
z
" transform="scale(0.015625)"/>
       </defs>
       <use xlink:href="#DejaVuSerif-32"/>
      </g>
     </g>
    </g>
    <g id="xtick_3">
     <g id="line2d_4">
      <g>
       <use xlink:href="#m70d31b3f8a" x="250.303581" y="107.151395" style="stroke: #000000; stroke-width: 0.8"/>
      </g>
     </g>
     <g id="text_3">
      <!-- 3 -->
      <g transform="translate(247.122331 121.749833)scale(0.1 -0.1)">
       <defs>
        <path id="DejaVuSerif-33" d="M 622 4469 
Q 988 4606 1323 4678 
Q 1659 4750 1953 4750 
Q 2638 4750 3022 4454 
Q 3406 4159 3406 3634 
Q 3406 3213 3140 2930 
Q 2875 2647 2388 2547 
Q 2963 2466 3280 2130 
Q 3597 1794 3597 1259 
Q 3597 606 3158 257 
Q 2719 -91 1894 -91 
Q 1528 -91 1179 -12 
Q 831 66 488 225 
L 488 1131 
L 838 1131 
Q 869 681 1141 450 
Q 1413 219 1906 219 
Q 2384 219 2661 495 
Q 2938 772 2938 1253 
Q 2938 1803 2653 2086 
Q 2369 2369 1819 2369 
L 1522 2369 
L 1522 2688 
L 1678 2688 
Q 2225 2688 2498 2914 
Q 2772 3141 2772 3597 
Q 2772 4006 2547 4223 
Q 2322 4441 1900 4441 
Q 1478 4441 1245 4241 
Q 1013 4041 972 3647 
L 622 3647 
L 622 4469 
z
" transform="scale(0.015625)"/>
       </defs>
       <use xlink:href="#DejaVuSerif-33"/>
      </g>
     </g>
    </g>
    <g id="xtick_4">
     <g id="line2d_5">
      <g>
       <use xlink:href="#m70d31b3f8a" x="322.902733" y="107.151395" style="stroke: #000000; stroke-width: 0.8"/>
      </g>
     </g>
     <g id="text_4">
      <!-- 4 -->
      <g transform="translate(319.721483 121.749833)scale(0.1 -0.1)">
       <defs>
        <path id="DejaVuSerif-34" d="M 2234 1581 
L 2234 4063 
L 641 1581 
L 2234 1581 
z
M 3609 0 
L 1484 0 
L 1484 331 
L 2234 331 
L 2234 1247 
L 197 1247 
L 197 1588 
L 2241 4750 
L 2859 4750 
L 2859 1581 
L 3750 1581 
L 3750 1247 
L 2859 1247 
L 2859 331 
L 3609 331 
L 3609 0 
z
" transform="scale(0.015625)"/>
       </defs>
       <use xlink:href="#DejaVuSerif-34"/>
      </g>
     </g>
    </g>
    <g id="xtick_5">
     <g id="line2d_6">
      <g>
       <use xlink:href="#m70d31b3f8a" x="395.501885" y="107.151395" style="stroke: #000000; stroke-width: 0.8"/>
      </g>
     </g>
     <g id="text_5">
      <!-- 5 -->
      <g transform="translate(392.320635 121.749833)scale(0.1 -0.1)">
       <defs>
        <path id="DejaVuSerif-35" d="M 3219 4666 
L 3219 4153 
L 1081 4153 
L 1081 2816 
Q 1244 2928 1461 2984 
Q 1678 3041 1947 3041 
Q 2703 3041 3140 2622 
Q 3578 2203 3578 1478 
Q 3578 738 3136 323 
Q 2694 -91 1894 -91 
Q 1572 -91 1234 -12 
Q 897 66 544 225 
L 544 1131 
L 897 1131 
Q 925 688 1179 453 
Q 1434 219 1894 219 
Q 2388 219 2653 544 
Q 2919 869 2919 1478 
Q 2919 2084 2655 2407 
Q 2391 2731 1894 2731 
Q 1613 2731 1398 2631 
Q 1184 2531 1019 2322 
L 750 2322 
L 750 4666 
L 3219 4666 
z
" transform="scale(0.015625)"/>
       </defs>
       <use xlink:href="#DejaVuSerif-35"/>
      </g>
     </g>
    </g>
    <g id="text_6">
     <!-- Wavelength [$\mu$m] -->
     <g transform="translate(195.743666 136.18952)scale(0.11 -0.11)">
      <defs>
       <path id="DejaVuSerif-57" d="M 4878 0 
L 4366 0 
L 3297 3794 
L 2228 0 
L 1716 0 
L 494 4331 
L 31 4331 
L 31 4666 
L 1734 4666 
L 1734 4331 
L 1153 4331 
L 2125 884 
L 3188 4666 
L 3694 4666 
L 4775 844 
L 5753 4331 
L 5216 4331 
L 5216 4666 
L 6559 4666 
L 6559 4331 
L 6100 4331 
L 4878 0 
z
" transform="scale(0.015625)"/>
       <path id="DejaVuSerif-61" d="M 2547 1044 
L 2547 1747 
L 1806 1747 
Q 1378 1747 1168 1562 
Q 959 1378 959 997 
Q 959 650 1171 447 
Q 1384 244 1747 244 
Q 2106 244 2326 466 
Q 2547 688 2547 1044 
z
M 3122 2075 
L 3122 331 
L 3634 331 
L 3634 0 
L 2547 0 
L 2547 359 
Q 2356 128 2106 18 
Q 1856 -91 1522 -91 
Q 969 -91 644 203 
Q 319 497 319 997 
Q 319 1513 691 1797 
Q 1063 2081 1741 2081 
L 2547 2081 
L 2547 2309 
Q 2547 2688 2317 2895 
Q 2088 3103 1672 3103 
Q 1328 3103 1125 2947 
Q 922 2791 872 2484 
L 575 2484 
L 575 3156 
Q 875 3284 1158 3348 
Q 1441 3413 1709 3413 
Q 2400 3413 2761 3070 
Q 3122 2728 3122 2075 
z
" transform="scale(0.015625)"/>
       <path id="DejaVuSerif-76" d="M 1581 0 
L 359 2988 
L -19 2988 
L -19 3322 
L 1509 3322 
L 1509 2988 
L 978 2988 
L 1913 703 
L 2847 2988 
L 2350 2988 
L 2350 3322 
L 3597 3322 
L 3597 2988 
L 3225 2988 
L 2003 0 
L 1581 0 
z
" transform="scale(0.015625)"/>
       <path id="DejaVuSerif-65" d="M 3469 1600 
L 991 1600 
L 991 1575 
Q 991 903 1244 561 
Q 1497 219 1991 219 
Q 2369 219 2611 417 
Q 2853 616 2950 1006 
L 3413 1006 
Q 3275 459 2904 184 
Q 2534 -91 1931 -91 
Q 1203 -91 761 389 
Q 319 869 319 1663 
Q 319 2450 753 2931 
Q 1188 3413 1894 3413 
Q 2647 3413 3050 2948 
Q 3453 2484 3469 1600 
z
M 2791 1931 
Q 2772 2513 2545 2808 
Q 2319 3103 1894 3103 
Q 1497 3103 1269 2806 
Q 1041 2509 991 1931 
L 2791 1931 
z
" transform="scale(0.015625)"/>
       <path id="DejaVuSerif-6c" d="M 1313 331 
L 1856 331 
L 1856 0 
L 184 0 
L 184 331 
L 738 331 
L 738 4531 
L 184 4531 
L 184 4863 
L 1313 4863 
L 1313 331 
z
" transform="scale(0.015625)"/>
       <path id="DejaVuSerif-6e" d="M 263 0 
L 263 331 
L 781 331 
L 781 2988 
L 231 2988 
L 231 3322 
L 1356 3322 
L 1356 2731 
Q 1516 3069 1770 3241 
Q 2025 3413 2363 3413 
Q 2913 3413 3172 3097 
Q 3431 2781 3431 2113 
L 3431 331 
L 3944 331 
L 3944 0 
L 2356 0 
L 2356 331 
L 2853 331 
L 2853 1931 
Q 2853 2541 2703 2767 
Q 2553 2994 2175 2994 
Q 1775 2994 1565 2701 
Q 1356 2409 1356 1850 
L 1356 331 
L 1856 331 
L 1856 0 
L 263 0 
z
" transform="scale(0.015625)"/>
       <path id="DejaVuSerif-67" d="M 3359 2988 
L 3359 72 
Q 3359 -644 2965 -1033 
Q 2572 -1422 1844 -1422 
Q 1516 -1422 1216 -1362 
Q 916 -1303 641 -1184 
L 641 -488 
L 941 -488 
Q 997 -813 1206 -963 
Q 1416 -1113 1806 -1113 
Q 2313 -1113 2548 -827 
Q 2784 -541 2784 72 
L 2784 519 
Q 2616 206 2355 57 
Q 2094 -91 1709 -91 
Q 1097 -91 708 395 
Q 319 881 319 1663 
Q 319 2444 706 2928 
Q 1094 3413 1709 3413 
Q 2094 3413 2355 3264 
Q 2616 3116 2784 2803 
L 2784 3322 
L 3909 3322 
L 3909 2988 
L 3359 2988 
z
M 2784 1825 
Q 2784 2422 2554 2737 
Q 2325 3053 1888 3053 
Q 1444 3053 1217 2703 
Q 991 2353 991 1663 
Q 991 975 1217 622 
Q 1444 269 1888 269 
Q 2325 269 2554 583 
Q 2784 897 2784 1497 
L 2784 1825 
z
" transform="scale(0.015625)"/>
       <path id="DejaVuSerif-74" d="M 691 2988 
L 184 2988 
L 184 3322 
L 691 3322 
L 691 4353 
L 1269 4353 
L 1269 3322 
L 2350 3322 
L 2350 2988 
L 1269 2988 
L 1269 878 
Q 1269 456 1350 337 
Q 1431 219 1650 219 
Q 1875 219 1978 351 
Q 2081 484 2088 781 
L 2522 781 
Q 2497 328 2275 118 
Q 2053 -91 1600 -91 
Q 1103 -91 897 129 
Q 691 350 691 878 
L 691 2988 
z
" transform="scale(0.015625)"/>
       <path id="DejaVuSerif-68" d="M 263 0 
L 263 331 
L 781 331 
L 781 4531 
L 231 4531 
L 231 4863 
L 1356 4863 
L 1356 2731 
Q 1516 3069 1770 3241 
Q 2025 3413 2363 3413 
Q 2913 3413 3172 3097 
Q 3431 2781 3431 2113 
L 3431 331 
L 3944 331 
L 3944 0 
L 2356 0 
L 2356 331 
L 2853 331 
L 2853 1931 
Q 2853 2541 2704 2764 
Q 2556 2988 2175 2988 
Q 1775 2988 1565 2697 
Q 1356 2406 1356 1850 
L 1356 331 
L 1856 331 
L 1856 0 
L 263 0 
z
" transform="scale(0.015625)"/>
       <path id="DejaVuSerif-20" transform="scale(0.015625)"/>
       <path id="DejaVuSerif-5b" d="M 550 4863 
L 2003 4863 
L 2003 4531 
L 1147 4531 
L 1147 -513 
L 2003 -513 
L 2003 -844 
L 550 -844 
L 550 4863 
z
" transform="scale(0.015625)"/>
       <path id="STIXGeneral-Italic-3bc" d="M 3002 749 
L 3091 691 
Q 2797 237 2614 83 
Q 2432 -70 2214 -70 
Q 2080 -70 1990 6 
Q 1901 83 1901 218 
Q 1901 416 1997 704 
L 2208 1370 
L 2202 1370 
Q 1766 595 1475 268 
Q 1184 -58 902 -58 
Q 723 -58 672 122 
Q 614 -109 547 -374 
Q 480 -640 451 -758 
Q 422 -877 384 -1005 
Q 346 -1133 314 -1197 
Q 282 -1261 243 -1312 
L -211 -1312 
Q -58 -1088 70 -595 
L 909 2739 
L 1389 2739 
L 909 832 
Q 883 717 883 659 
Q 883 352 1139 352 
Q 1395 352 1811 969 
Q 2227 1587 2323 1958 
L 2534 2739 
L 3027 2739 
L 2522 819 
Q 2400 333 2400 326 
Q 2400 230 2470 230 
Q 2547 230 2652 329 
Q 2758 429 3002 749 
z
" transform="scale(0.015625)"/>
       <path id="DejaVuSerif-6d" d="M 3316 2675 
Q 3481 3041 3739 3227 
Q 3997 3413 4341 3413 
Q 4863 3413 5119 3089 
Q 5375 2766 5375 2113 
L 5375 331 
L 5894 331 
L 5894 0 
L 4300 0 
L 4300 331 
L 4800 331 
L 4800 2047 
Q 4800 2556 4650 2772 
Q 4500 2988 4153 2988 
Q 3769 2988 3567 2697 
Q 3366 2406 3366 1850 
L 3366 331 
L 3866 331 
L 3866 0 
L 2291 0 
L 2291 331 
L 2791 331 
L 2791 2069 
Q 2791 2566 2641 2777 
Q 2491 2988 2144 2988 
Q 1759 2988 1557 2697 
Q 1356 2406 1356 1850 
L 1356 331 
L 1856 331 
L 1856 0 
L 263 0 
L 263 331 
L 781 331 
L 781 2994 
L 231 2994 
L 231 3322 
L 1356 3322 
L 1356 2731 
Q 1516 3063 1762 3238 
Q 2009 3413 2322 3413 
Q 2709 3413 2968 3220 
Q 3228 3028 3316 2675 
z
" transform="scale(0.015625)"/>
       <path id="DejaVuSerif-5d" d="M 1947 4863 
L 1947 -844 
L 494 -844 
L 494 -513 
L 1350 -513 
L 1350 4531 
L 494 4531 
L 494 4863 
L 1947 4863 
z
" transform="scale(0.015625)"/>
      </defs>
      <use xlink:href="#DejaVuSerif-57" transform="translate(0 0.015625)"/>
      <use xlink:href="#DejaVuSerif-61" transform="translate(102.783203 0.015625)"/>
      <use xlink:href="#DejaVuSerif-76" transform="translate(162.402344 0.015625)"/>
      <use xlink:href="#DejaVuSerif-65" transform="translate(218.896484 0.015625)"/>
      <use xlink:href="#DejaVuSerif-6c" transform="translate(278.076172 0.015625)"/>
      <use xlink:href="#DejaVuSerif-65" transform="translate(310.058594 0.015625)"/>
      <use xlink:href="#DejaVuSerif-6e" transform="translate(369.238281 0.015625)"/>
      <use xlink:href="#DejaVuSerif-67" transform="translate(433.642578 0.015625)"/>
      <use xlink:href="#DejaVuSerif-74" transform="translate(497.65625 0.015625)"/>
      <use xlink:href="#DejaVuSerif-68" transform="translate(537.841797 0.015625)"/>
      <use xlink:href="#DejaVuSerif-20" transform="translate(602.246094 0.015625)"/>
      <use xlink:href="#DejaVuSerif-5b" transform="translate(634.033203 0.015625)"/>
      <use xlink:href="#STIXGeneral-Italic-3bc" transform="translate(673.046875 0.015625)"/>
      <use xlink:href="#DejaVuSerif-6d" transform="translate(725.646866 0.015625)"/>
      <use xlink:href="#DejaVuSerif-5d" transform="translate(820.471085 0.015625)"/>
     </g>
    </g>
   </g>
   <g id="matplotlib.axis_2">
    <g id="ytick_1">
     <g id="line2d_7">
      <defs>
       <path id="m909cbd4cf3" d="M 0 0 
L -3.5 0 
" style="stroke: #000000; stroke-width: 0.8"/>
      </defs>
      <g>
       <use xlink:href="#m909cbd4cf3" x="59.367812" y="77.938" style="stroke: #000000; stroke-width: 0.8"/>
      </g>
     </g>
     <g id="text_7">
      <!-- -0.002 -->
      <g transform="translate(20.36 81.737219)scale(0.1 -0.1)">
       <defs>
        <path id="DejaVuSerif-2d" d="M 281 1959 
L 1881 1959 
L 1881 1472 
L 281 1472 
L 281 1959 
z
" transform="scale(0.015625)"/>
        <path id="DejaVuSerif-30" d="M 2034 219 
Q 2513 219 2750 744 
Q 2988 1269 2988 2328 
Q 2988 3391 2750 3916 
Q 2513 4441 2034 4441 
Q 1556 4441 1318 3916 
Q 1081 3391 1081 2328 
Q 1081 1269 1318 744 
Q 1556 219 2034 219 
z
M 2034 -91 
Q 1275 -91 848 546 
Q 422 1184 422 2328 
Q 422 3475 848 4112 
Q 1275 4750 2034 4750 
Q 2797 4750 3222 4112 
Q 3647 3475 3647 2328 
Q 3647 1184 3222 546 
Q 2797 -91 2034 -91 
z
" transform="scale(0.015625)"/>
        <path id="DejaVuSerif-2e" d="M 603 325 
Q 603 500 722 622 
Q 841 744 1019 744 
Q 1191 744 1312 622 
Q 1434 500 1434 325 
Q 1434 153 1312 31 
Q 1191 -91 1019 -91 
Q 841 -91 722 29 
Q 603 150 603 325 
z
" transform="scale(0.015625)"/>
       </defs>
       <use xlink:href="#DejaVuSerif-2d"/>
       <use xlink:href="#DejaVuSerif-30" x="33.789062"/>
       <use xlink:href="#DejaVuSerif-2e" x="97.412109"/>
       <use xlink:href="#DejaVuSerif-30" x="129.199219"/>
       <use xlink:href="#DejaVuSerif-30" x="192.822266"/>
       <use xlink:href="#DejaVuSerif-32" x="256.445312"/>
      </g>
     </g>
    </g>
    <g id="ytick_2">
     <g id="line2d_8">
      <g>
       <use xlink:href="#m909cbd4cf3" x="59.367812" y="44.344059" style="stroke: #000000; stroke-width: 0.8"/>
      </g>
     </g>
     <g id="text_8">
      <!-- -0.001 -->
      <g transform="translate(20.36 48.143278)scale(0.1 -0.1)">
       <use xlink:href="#DejaVuSerif-2d"/>
       <use xlink:href="#DejaVuSerif-30" x="33.789062"/>
       <use xlink:href="#DejaVuSerif-2e" x="97.412109"/>
       <use xlink:href="#DejaVuSerif-30" x="129.199219"/>
       <use xlink:href="#DejaVuSerif-30" x="192.822266"/>
       <use xlink:href="#DejaVuSerif-31" x="256.445312"/>
      </g>
     </g>
    </g>
    <g id="ytick_3">
     <g id="line2d_9">
      <g>
       <use xlink:href="#m909cbd4cf3" x="59.367812" y="10.750118" style="stroke: #000000; stroke-width: 0.8"/>
      </g>
     </g>
     <g id="text_9">
      <!-- 0.000 -->
      <g transform="translate(23.739687 14.549336)scale(0.1 -0.1)">
       <use xlink:href="#DejaVuSerif-30"/>
       <use xlink:href="#DejaVuSerif-2e" x="63.623047"/>
       <use xlink:href="#DejaVuSerif-30" x="95.410156"/>
       <use xlink:href="#DejaVuSerif-30" x="159.033203"/>
       <use xlink:href="#DejaVuSerif-30" x="222.65625"/>
      </g>
     </g>
    </g>
    <g id="text_10">
     <!-- $\Delta\, (R_p^2/R_\star^2)$ -->
     <g transform="translate(9.85 77.310698)rotate(-90)scale(0.11 -0.11)">
      <defs>
       <path id="STIXGeneral-Regular-394" d="M 4320 0 
L 307 0 
L 2221 4314 
L 2349 4314 
L 4320 0 
z
M 3354 589 
L 2118 3405 
L 870 589 
L 3354 589 
z
" transform="scale(0.015625)"/>
       <path id="STIXGeneral-Regular-28" d="M 1946 -1030 
L 1869 -1133 
Q 1126 -710 716 32 
Q 307 774 307 1613 
Q 307 3386 1888 4326 
L 1946 4224 
Q 1293 3667 1075 3126 
Q 858 2586 858 1632 
Q 858 685 1082 96 
Q 1306 -493 1946 -1030 
z
" transform="scale(0.015625)"/>
       <path id="STIXGeneral-Italic-52" d="M 845 4179 
L 2458 4179 
Q 3078 4179 3420 3936 
Q 3763 3693 3763 3277 
Q 3763 2778 3341 2458 
Q 3091 2266 2502 2131 
L 3072 627 
Q 3181 333 3299 217 
Q 3418 102 3629 102 
L 3629 0 
L 2688 0 
L 1901 2074 
L 1478 2106 
L 1126 806 
Q 1043 512 1043 403 
Q 1043 256 1126 192 
Q 1210 128 1472 102 
L 1472 0 
L -83 0 
L -83 102 
Q 173 134 278 243 
Q 384 352 461 646 
L 1222 3405 
Q 1299 3699 1299 3808 
Q 1299 3923 1210 3987 
Q 1133 4038 845 4077 
L 845 4179 
z
M 1958 3795 
L 1555 2342 
Q 1754 2310 1882 2310 
Q 2451 2310 2771 2566 
Q 3091 2822 3091 3270 
Q 3091 3603 2892 3795 
Q 2694 3987 2323 3987 
Q 2010 3987 1958 3795 
z
" transform="scale(0.015625)"/>
       <path id="STIXGeneral-Regular-32" d="M 3034 877 
L 2688 0 
L 186 0 
L 186 77 
L 1325 1286 
Q 1773 1754 1965 2144 
Q 2157 2534 2157 2950 
Q 2157 3379 1920 3616 
Q 1683 3853 1267 3853 
Q 922 3853 720 3673 
Q 518 3494 326 3021 
L 192 3053 
Q 301 3648 630 3987 
Q 960 4326 1523 4326 
Q 2054 4326 2380 4006 
Q 2707 3686 2707 3200 
Q 2707 2477 1888 1613 
L 832 486 
L 2330 486 
Q 2541 486 2665 569 
Q 2790 653 2944 915 
L 3034 877 
z
" transform="scale(0.015625)"/>
       <path id="STIXGeneral-Italic-70" d="M 1376 2739 
L 1190 2099 
Q 1670 2822 2285 2822 
Q 2637 2822 2829 2611 
Q 3021 2400 3021 2022 
Q 3021 1235 2422 582 
Q 1824 -70 1120 -70 
Q 890 -70 678 38 
Q 422 -1018 422 -1024 
Q 422 -1126 508 -1168 
Q 595 -1210 819 -1210 
L 819 -1312 
L -480 -1312 
L -480 -1210 
Q -275 -1203 -188 -1120 
Q -102 -1037 -45 -806 
L 691 1958 
Q 794 2330 794 2413 
Q 794 2586 512 2586 
L 371 2586 
L 358 2682 
L 1357 2822 
Q 1389 2822 1389 2797 
Q 1382 2765 1376 2739 
z
M 2445 2003 
Q 2445 2285 2352 2416 
Q 2259 2547 2048 2547 
Q 1798 2547 1548 2329 
Q 1299 2112 1184 1818 
Q 1043 1453 905 953 
Q 768 454 768 294 
Q 768 186 854 118 
Q 941 51 1075 51 
Q 1574 51 2003 659 
Q 2445 1274 2445 2003 
z
" transform="scale(0.015625)"/>
       <path id="STIXGeneral-Regular-2f" d="M 1837 4326 
L 378 -90 
L -58 -90 
L 1408 4326 
L 1837 4326 
z
" transform="scale(0.015625)"/>
       <path id="STIXGeneral-Regular-22c6" d="M 4256 2336 
L 2810 1459 
L 3494 -83 
L 2240 1062 
L 986 -83 
L 1670 1459 
L 224 2336 
L 1901 2144 
L 2240 3821 
L 2579 2144 
L 4256 2336 
z
" transform="scale(0.015625)"/>
       <path id="STIXGeneral-Regular-29" d="M 186 4224 
L 262 4326 
Q 992 3891 1408 3148 
Q 1824 2406 1824 1581 
Q 1824 -166 243 -1133 
L 186 -1030 
Q 845 -486 1059 54 
Q 1274 595 1274 1562 
Q 1274 2534 1059 3120 
Q 845 3706 186 4224 
z
" transform="scale(0.015625)"/>
      </defs>
      <use xlink:href="#STIXGeneral-Regular-394" transform="translate(0 0.409375)"/>
      <use xlink:href="#STIXGeneral-Regular-28" transform="translate(84.233553 0.409375)"/>
      <use xlink:href="#STIXGeneral-Italic-52" transform="translate(117.53354 0.409375)"/>
      <use xlink:href="#STIXGeneral-Regular-32" transform="translate(189.259313 35.684375)scale(0.7)"/>
      <use xlink:href="#STIXGeneral-Italic-70" transform="translate(178.633531 -26.046875)scale(0.7)"/>
      <use xlink:href="#STIXGeneral-Regular-2f" transform="translate(228.668677 0.409375)"/>
      <use xlink:href="#STIXGeneral-Italic-52" transform="translate(256.468665 0.409375)"/>
      <use xlink:href="#STIXGeneral-Regular-32" transform="translate(328.194437 35.684375)scale(0.7)"/>
      <use xlink:href="#STIXGeneral-Regular-22c6" transform="translate(327.676653 -26.046875)scale(0.7)"/>
      <use xlink:href="#STIXGeneral-Regular-29" transform="translate(391.194015 0.409375)"/>
     </g>
    </g>
   </g>
   <g id="line2d_10">
    <path d="M 76.065617 39.217957 
L 76.211248 35.553226 
L 76.357366 37.904845 
L 76.503972 29.9291 
L 76.651069 30.662181 
L 76.798657 27.059029 
L 76.946739 30.062562 
L 77.095315 22.657495 
L 77.393961 42.145021 
L 77.544033 39.314782 
L 77.694606 40.790399 
L 77.845683 38.527361 
L 77.997265 32.94902 
L 78.149354 45.513875 
L 78.455059 33.685704 
L 78.608679 34.445048 
L 78.762812 35.943803 
L 78.91746 35.478108 
L 79.228309 17.697083 
L 79.384514 26.891703 
L 79.698492 32.249438 
L 79.856268 35.812971 
L 80.014572 21.467629 
L 80.173406 21.126593 
L 80.33277 30.059296 
L 80.492667 30.776332 
L 80.653099 21.448889 
L 80.814067 28.544397 
L 80.975573 30.339368 
L 81.137619 34.642863 
L 81.463339 21.079995 
L 81.627016 33.27105 
L 81.79124 34.021159 
L 81.956013 32.872585 
L 82.121337 38.914745 
L 82.287214 28.518035 
L 82.453645 42.466444 
L 82.620633 30.694558 
L 82.788179 26.745288 
L 83.124953 31.487686 
L 83.294185 21.983389 
L 83.463983 26.278639 
L 83.634349 20.37094 
L 83.805284 33.942335 
L 83.976791 28.796213 
L 84.148871 32.757881 
L 84.321526 40.692636 
L 84.494759 39.264077 
L 84.66857 26.390608 
L 84.842963 29.542227 
L 85.017939 29.042479 
L 85.1935 23.085808 
L 85.369648 26.729686 
L 85.546385 15.622409 
L 85.723712 13.711531 
L 86.080148 32.140222 
L 86.438971 41.096441 
L 86.619283 48.318196 
L 86.981717 41.508847 
L 87.713884 29.046839 
L 87.898458 33.968894 
L 88.083649 91.378374 
L 88.269459 102.313604 
L 88.830626 24.4656 
L 89.018934 26.287016 
L 89.39744 22.2515 
L 89.587643 15.952043 
L 89.778481 19.915656 
L 89.969958 16.26097 
L 90.162075 20.049117 
L 90.354834 16.565612 
L 90.548237 21.066726 
L 90.742287 18.856823 
L 91.132336 17.938619 
L 91.524997 13.365788 
L 91.722313 12.813668 
L 91.920288 12.716244 
L 92.118926 14.342716 
L 92.318227 12.900453 
L 92.518195 14.344836 
L 92.718831 17.279534 
L 92.920138 13.264259 
L 93.122118 14.283972 
L 93.324773 11.61604 
L 93.528106 12.405625 
L 93.732118 8.374372 
L 93.936813 13.796416 
L 94.142192 13.409795 
L 94.348258 13.849646 
L 94.555012 13.133317 
L 94.762458 11.132522 
L 94.970598 17.225279 
L 95.179433 19.568061 
L 95.5992 21.327314 
L 96.021779 20.122585 
L 96.447188 15.154252 
L 96.66096 12.793677 
L 96.875447 18.022718 
L 97.090651 16.130769 
L 97.306574 17.011751 
L 97.523219 18.91513 
L 97.740588 13.549996 
L 97.958684 11.743088 
L 98.177509 13.945497 
L 98.397066 11.199891 
L 98.617357 9.930584 
L 98.838384 11.902777 
L 99.060151 9.647522 
L 99.282658 9.293056 
L 99.50591 6.855392 
L 99.729908 10.047446 
L 100.180153 7.182333 
L 100.406405 6.632581 
L 100.633414 8.088974 
L 100.861181 6.874248 
L 101.08971 6.345824 
L 101.319003 7.162769 
L 101.549063 7.180067 
L 101.779892 6.475565 
L 102.011492 8.157171 
L 102.243867 7.493737 
L 102.477019 5.557791 
L 102.71095 5.771253 
L 102.945663 6.681551 
L 103.181161 8.558865 
L 103.417447 9.188928 
L 103.654522 7.598232 
L 103.89239 10.070668 
L 104.131053 9.532075 
L 104.370514 9.851561 
L 104.610776 8.577149 
L 104.851841 11.599514 
L 105.093712 12.466597 
L 105.336391 9.39926 
L 105.579882 10.218813 
L 105.824187 9.306971 
L 106.069308 10.513131 
L 106.31525 9.092164 
L 106.562013 8.880034 
L 107.058018 10.033669 
L 107.307264 8.413268 
L 107.557344 8.173756 
L 107.80826 8.836472 
L 108.060015 8.401679 
L 108.312612 11.15729 
L 108.566053 8.587458 
L 108.820341 9.180805 
L 109.331472 8.26824 
L 109.588319 9.320957 
L 109.846025 8.773808 
L 110.104593 9.709428 
L 110.364025 7.673598 
L 110.624325 8.35052 
L 110.885495 9.592769 
L 111.147538 10.033316 
L 111.410457 9.153608 
L 111.674255 9.88213 
L 111.938935 9.242143 
L 112.204499 9.876352 
L 112.470952 9.477019 
L 112.738296 9.659848 
L 113.006533 7.899855 
L 113.275667 8.675244 
L 113.545701 9.026719 
L 113.816638 10.645648 
L 114.088481 9.275291 
L 114.361232 10.119901 
L 114.634895 10.046832 
L 114.909473 11.067564 
L 115.18497 11.197805 
L 115.461387 8.57447 
L 115.738728 10.369201 
L 116.296196 9.502387 
L 116.576328 9.410173 
L 116.857397 9.034604 
L 117.422357 10.907243 
L 117.706254 9.508009 
L 117.991101 12.105621 
L 118.2769 9.673628 
L 118.563654 9.664825 
L 118.851367 9.285845 
L 119.140042 9.604326 
L 119.429682 8.909547 
L 119.720291 10.699641 
L 120.011871 10.426827 
L 120.304426 8.991223 
L 120.597959 9.934625 
L 120.892473 9.227178 
L 121.187972 9.912108 
L 121.484459 9.514329 
L 121.781937 9.834699 
L 122.080409 9.199081 
L 122.37988 9.681214 
L 122.680352 9.653623 
L 122.981828 9.988014 
L 123.284312 9.601718 
L 123.587808 9.465602 
L 123.892318 10.117688 
L 124.197846 9.180048 
L 124.504396 9.18134 
L 125.120573 9.636616 
L 125.430208 9.549246 
L 125.740877 8.986513 
L 126.052586 8.962448 
L 126.365336 9.120236 
L 126.679133 9.841993 
L 126.993978 9.419085 
L 127.309876 9.347516 
L 127.62683 9.62232 
L 127.944843 9.191739 
L 128.26392 9.930791 
L 128.584064 10.04964 
L 129.227566 11.563354 
L 129.550931 12.035562 
L 129.875377 13.249261 
L 130.200909 12.775672 
L 130.527528 14.63654 
L 130.85524 11.19665 
L 131.184047 14.624321 
L 131.513953 13.907559 
L 131.844962 12.348633 
L 132.177078 13.778994 
L 132.510305 9.679568 
L 132.844645 14.711744 
L 133.180103 12.417075 
L 133.516683 13.80879 
L 133.854388 12.55831 
L 134.193222 14.386851 
L 134.533189 12.185516 
L 134.874292 12.068631 
L 135.216536 12.385301 
L 135.559924 14.876013 
L 135.90446 11.78077 
L 136.250148 16.275533 
L 136.596992 15.982228 
L 136.944995 15.89708 
L 137.294162 11.967265 
L 137.644496 14.486605 
L 137.996002 14.380416 
L 138.348682 12.853594 
L 138.702542 15.722849 
L 139.057585 14.708502 
L 139.413814 14.667606 
L 139.771235 15.076083 
L 140.129851 13.294386 
L 140.850683 12.432214 
L 141.212907 13.249058 
L 141.576343 11.203485 
L 141.940993 12.710944 
L 142.306863 11.472612 
L 142.673956 12.586437 
L 143.042276 12.082645 
L 143.411828 10.393805 
L 143.782615 11.794447 
L 144.154641 11.412524 
L 144.527912 11.638403 
L 144.90243 12.053073 
L 145.278201 12.199465 
L 146.033515 11.622211 
L 146.413067 11.113954 
L 146.793888 11.760556 
L 147.175983 10.607108 
L 147.559354 11.318623 
L 148.329947 11.281136 
L 149.105701 11.288019 
L 149.886651 10.610423 
L 150.279085 11.115566 
L 150.672831 11.232925 
L 151.067893 10.818761 
L 151.464277 10.615765 
L 151.861985 10.690623 
L 152.261024 10.388242 
L 152.661396 10.290462 
L 153.466161 10.485948 
L 154.276315 9.828428 
L 155.091896 10.075006 
L 155.501733 9.92334 
L 155.91294 10.239879 
L 156.739482 10.208619 
L 157.571561 11.565879 
L 157.989688 11.717874 
L 158.409212 12.153763 
L 158.83014 8.428942 
L 159.252474 12.097317 
L 159.676221 11.195818 
L 160.101384 11.65391 
L 160.527969 14.180888 
L 160.95598 14.230468 
L 161.385422 11.782341 
L 161.816299 10.749224 
L 162.248617 11.000678 
L 162.682381 15.274389 
L 163.117594 13.920032 
L 163.554263 13.97916 
L 163.992392 11.280258 
L 164.431985 13.435983 
L 164.873048 11.326165 
L 165.315586 15.470675 
L 165.759603 15.08846 
L 166.205104 13.508376 
L 166.652095 13.689632 
L 167.100581 12.476487 
L 167.550566 14.345156 
L 168.002055 16.918259 
L 168.455054 15.217419 
L 168.909567 15.05434 
L 169.3656 13.483715 
L 169.823157 16.249138 
L 170.282244 13.403453 
L 170.742866 13.353726 
L 171.205028 11.903584 
L 171.668735 13.983517 
L 172.133993 13.235922 
L 172.600806 9.74688 
L 173.069179 10.442533 
L 173.539119 13.990329 
L 174.010629 12.135923 
L 174.483716 15.302326 
L 174.958385 11.048972 
L 175.43464 11.797527 
L 175.912488 12.276994 
L 176.391934 11.422449 
L 176.872982 12.49 
L 177.355639 12.550221 
L 177.839909 11.183386 
L 178.325798 12.898067 
L 178.813312 12.175974 
L 179.302455 14.345705 
L 179.793234 13.122246 
L 180.77972 11.704442 
L 181.275438 12.081655 
L 181.772813 13.041671 
L 182.271851 11.932749 
L 182.772558 11.560531 
L 183.274938 12.374294 
L 183.778998 12.861115 
L 184.792179 11.098405 
L 185.301312 11.932615 
L 185.812146 11.384958 
L 186.324689 11.665947 
L 186.838945 10.562345 
L 187.354921 10.25283 
L 188.392052 10.448324 
L 188.91322 10.12191 
L 189.436131 9.502046 
L 189.960789 9.832081 
L 190.487202 9.981057 
L 191.015374 9.628244 
L 191.545312 9.679528 
L 192.077023 9.18176 
L 192.61051 9.989216 
L 193.145782 9.318056 
L 193.682842 9.828201 
L 194.221699 8.720023 
L 194.762357 8.964371 
L 195.304822 8.768831 
L 195.849101 8.356472 
L 196.3952 8.354334 
L 196.943125 8.948687 
L 197.492881 8.782688 
L 198.044475 8.422509 
L 198.597914 8.853819 
L 199.153203 12.795323 
L 199.710348 10.174733 
L 200.269356 9.971768 
L 200.830233 10.560133 
L 201.392985 10.682458 
L 201.957618 11.122727 
L 203.092554 10.734543 
L 203.66287 9.81098 
L 204.235092 11.197638 
L 204.809227 10.02659 
L 205.385282 10.751975 
L 205.963263 12.163792 
L 206.543176 10.338135 
L 207.125028 12.087259 
L 207.708825 12.77182 
L 208.294574 13.053372 
L 208.882281 13.548947 
L 209.471953 11.876143 
L 210.063597 13.252097 
L 210.657219 14.211278 
L 211.252825 13.251793 
L 211.850422 14.639052 
L 212.450018 15.201867 
L 213.051618 15.287076 
L 213.655229 14.889193 
L 214.260858 17.596901 
L 214.868513 15.827581 
L 215.478198 16.127078 
L 216.089922 19.480114 
L 216.703691 19.759114 
L 217.319513 16.790978 
L 217.937393 17.012727 
L 218.557338 15.084347 
L 219.179357 14.196203 
L 219.803455 20.290002 
L 220.429639 17.215538 
L 221.057917 16.134703 
L 221.688296 16.81525 
L 222.320782 13.979896 
L 222.955382 13.492536 
L 223.592105 14.253665 
L 224.230956 15.32454 
L 224.871942 16.801655 
L 225.515072 13.514899 
L 226.807789 17.373806 
L 227.457391 16.88452 
L 228.109165 17.981848 
L 228.763118 15.924347 
L 229.419257 17.481964 
L 230.077589 20.361364 
L 230.738123 16.408678 
L 231.400865 15.936516 
L 232.065823 16.615879 
L 232.733003 18.323026 
L 233.402415 17.717671 
L 234.074064 16.631849 
L 234.747959 14.752695 
L 235.424107 17.199417 
L 236.102516 18.00573 
L 236.783192 16.973722 
L 237.466144 19.176152 
L 238.15138 15.483365 
L 238.838906 15.127848 
L 239.528732 18.804196 
L 240.220863 12.189519 
L 240.915308 20.865587 
L 241.612075 16.453569 
L 242.311172 18.935219 
L 243.012605 15.233475 
L 243.716384 18.537935 
L 244.422516 14.744491 
L 245.131009 18.757117 
L 245.84187 15.28107 
L 246.555108 15.549744 
L 247.27073 17.117174 
L 247.988745 15.801414 
L 248.70916 15.936737 
L 249.431984 17.891492 
L 250.157225 14.497349 
L 250.88489 20.108063 
L 251.614988 15.447389 
L 252.347527 16.148106 
L 253.082515 16.695188 
L 253.81996 15.030461 
L 254.55987 17.371159 
L 255.302255 16.768208 
L 256.047121 14.842678 
L 256.794478 16.297965 
L 257.544333 15.111352 
L 258.296695 13.35752 
L 259.051573 15.124507 
L 259.808974 14.404586 
L 260.568908 12.829121 
L 261.331382 14.262232 
L 262.096405 16.146965 
L 262.863986 15.163396 
L 263.634134 11.652711 
L 264.406856 14.362981 
L 265.182161 14.31658 
L 265.960059 14.422491 
L 266.740557 14.208602 
L 267.523664 14.505673 
L 268.30939 13.62913 
L 269.097743 12.989974 
L 269.888731 13.194021 
L 270.682364 11.426572 
L 271.47865 13.87429 
L 272.277599 14.081723 
L 273.079218 14.144196 
L 273.883518 12.504769 
L 274.690506 12.049912 
L 275.500192 13.499566 
L 276.312586 12.068614 
L 277.127695 12.493992 
L 277.94553 13.318477 
L 278.766099 13.428396 
L 279.589411 12.738796 
L 280.415476 13.245033 
L 281.244302 12.135688 
L 282.0759 11.744105 
L 283.747445 12.505122 
L 284.587411 11.483411 
L 285.430185 11.881085 
L 286.275777 10.603819 
L 287.124196 12.276267 
L 287.975452 11.496911 
L 288.829553 11.014124 
L 289.68651 12.537226 
L 290.546333 11.910773 
L 291.409029 12.484933 
L 293.143085 11.4129 
L 294.014463 11.445958 
L 294.888755 11.108493 
L 295.765969 11.213123 
L 296.646116 10.502591 
L 297.529206 10.607472 
L 298.415248 11.166425 
L 299.304253 12.157027 
L 300.19623 10.439139 
L 301.091188 11.644958 
L 301.989139 10.71796 
L 303.794057 11.096839 
L 304.701045 10.812856 
L 305.611064 11.146073 
L 306.524126 10.68236 
L 307.440241 11.932536 
L 308.359418 10.749278 
L 309.281669 10.332482 
L 310.207003 10.321051 
L 311.13543 10.596359 
L 312.066962 11.041588 
L 313.001608 10.206811 
L 314.880284 10.376015 
L 315.824335 10.35791 
L 316.771543 10.636074 
L 317.721918 10.37855 
L 319.632209 10.133407 
L 320.592148 10.982369 
L 321.555295 10.41994 
L 322.521663 10.74599 
L 323.491262 11.346849 
L 324.464102 10.33249 
L 325.440195 10.616882 
L 326.419551 11.217542 
L 327.402181 10.093208 
L 328.388097 12.214763 
L 329.377308 12.055641 
L 330.369827 11.188947 
L 331.365664 11.56572 
L 332.364831 10.958948 
L 333.367338 11.883848 
L 334.373196 10.632195 
L 335.382418 11.719494 
L 336.395013 11.474039 
L 337.410994 11.870984 
L 338.430372 11.850615 
L 339.453157 10.964602 
L 340.479363 11.612274 
L 341.508999 12.805058 
L 342.542077 12.199226 
L 343.578609 11.255565 
L 344.618607 12.935922 
L 345.662081 13.106426 
L 346.709044 12.523767 
L 347.759508 13.369687 
L 348.813483 13.004608 
L 349.870982 13.651276 
L 351.996599 14.320061 
L 353.06474 13.965855 
L 354.136452 14.561888 
L 356.290638 15.034358 
L 357.373135 13.953876 
L 358.459251 14.989745 
L 359.548999 14.759792 
L 360.64239 15.212587 
L 361.739436 16.242699 
L 362.84015 14.589172 
L 363.944544 16.265599 
L 365.05263 16.046155 
L 366.164421 14.951596 
L 367.279929 16.033501 
L 368.399167 14.950788 
L 369.522146 14.294173 
L 370.648879 14.728201 
L 371.77938 13.893836 
L 372.91366 13.833867 
L 375.19361 14.434438 
L 376.339305 12.740731 
L 377.48883 14.220944 
L 378.642199 14.561039 
L 379.799423 15.544516 
L 380.960516 13.161727 
L 382.125491 15.46895 
L 383.294361 13.231295 
L 384.467139 14.954552 
L 385.643838 12.430674 
L 386.824471 14.533692 
L 388.009051 13.120632 
L 389.197591 15.100617 
L 390.390105 16.179859 
L 391.586606 13.856661 
L 392.787107 15.429586 
L 393.991621 13.417654 
L 395.200163 15.38586 
L 396.412745 14.767928 
L 398.850085 15.686803 
L 400.074869 14.558784 
L 401.303749 15.690414 
L 402.536737 13.579984 
L 403.773847 14.144897 
L 405.015093 14.532936 
L 406.260489 15.674537 
L 407.510049 15.557076 
L 408.763786 15.270705 
L 410.021715 15.325144 
L 410.021715 15.325144 
" clip-path="url(#p02be231432)" style="fill: none; stroke: #e9c46a; stroke-opacity: 0.95; stroke-linecap: square"/>
   </g>
   <g id="patch_3">
    <path d="M 59.367812 107.151395 
L 59.367812 0.72 
" style="fill: none; stroke: #000000; stroke-width: 0.8; stroke-linejoin: miter; stroke-linecap: square"/>
   </g>
   <g id="patch_4">
    <path d="M 59.367812 107.151395 
L 426.71952 107.151395 
" style="fill: none; stroke: #000000; stroke-width: 0.8; stroke-linejoin: miter; stroke-linecap: square"/>
   </g>
  </g>
 </g>
 <defs>
  <clipPath id="p02be231432">
   <rect x="59.367812" y="0.72" width="367.351708" height="106.431395"/>
  </clipPath>
 </defs>
</svg>
