<?xml version="1.0" encoding="utf-8" standalone="no"?>
<!DOCTYPE svg PUBLIC "-//W3C//DTD SVG 1.1//EN"
  "http://www.w3.org/Graphics/SVG/1.1/DTD/svg11.dtd">
<svg xmlns:xlink="http://www.w3.org/1999/xlink" width="432pt" height="288pt" viewBox="0 0 432 288" xmlns="http://www.w3.org/2000/svg" version="1.1">
 <metadata>
  <rdf:RDF xmlns:dc="http://purl.org/dc/elements/1.1/" xmlns:cc="http://creativecommons.org/ns#" xmlns:rdf="http://www.w3.org/1999/02/22-rdf-syntax-ns#">
   <cc:Work>
    <dc:type rdf:resource="http://purl.org/dc/dcmitype/StillImage"/>
    <dc:date>2025-10-04T17:48:17.755973</dc:date>
    <dc:format>image/svg+xml</dc:format>
    <dc:creator>
     <cc:Agent>
      <dc:title>Matplotlib v3.5.2, https://matplotlib.org/</dc:title>
     </cc:Agent>
    </dc:creator>
   </cc:Work>
  </rdf:RDF>
 </metadata>
 <defs>
  <style type="text/css">*{stroke-linejoin: round; stroke-linecap: butt}</style>
 </defs>
 <g id="figure_1">
  <g id="patch_1">
   <path d="M 0 288 
L 432 288 
L 432 0 
L 0 0 
L 0 288 
z
" style="fill: none"/>
  </g>
  <g id="axes_1">
   <g id="patch_2">
    <path d="M 54 256.32 
L 388.8 256.32 
L 388.8 34.56 
L 54 34.56 
L 54 256.32 
z
" style="fill: none"/>
   </g>
   <g id="matplotlib.axis_1">
    <g id="xtick_1">
     <g id="line2d_1">
      <defs>
       <path id="m7e164b120f" d="M 0 0 
L 0 3.5 
" style="stroke: #000000; stroke-width: 0.8"/>
      </defs>
      <g>
       <use xlink:href="#m7e164b120f" x="95.684585" y="256.32" style="stroke: #000000; stroke-width: 0.8"/>
      </g>
     </g>
     <g id="text_1">
      <!-- 1 -->
      <g transform="translate(92.503335 270.918437)scale(0.1 -0.1)">
       <defs>
        <path id="DejaVuSerif-31" d="M 909 0 
L 909 331 
L 1722 331 
L 1722 4213 
L 781 3603 
L 781 4013 
L 1919 4750 
L 2350 4750 
L 2350 331 
L 3163 331 
L 3163 0 
L 909 0 
z
" transform="scale(0.015625)"/>
       </defs>
       <use xlink:href="#DejaVuSerif-31"/>
      </g>
     </g>
    </g>
    <g id="xtick_2">
     <g id="line2d_2">
      <g>
       <use xlink:href="#m7e164b120f" x="161.850593" y="256.32" style="stroke: #000000; stroke-width: 0.8"/>
      </g>
     </g>
     <g id="text_2">
      <!-- 2 -->
      <g transform="translate(158.669343 270.918437)scale(0.1 -0.1)">
       <defs>
        <path id="DejaVuSerif-32" d="M 819 3553 
L 469 3553 
L 469 4384 
Q 803 4563 1142 4656 
Q 1481 4750 1806 4750 
Q 2534 4750 2956 4397 
Q 3378 4044 3378 3438 
Q 3378 2753 2422 1800 
Q 2347 1728 2309 1691 
L 1131 513 
L 3078 513 
L 3078 1088 
L 3444 1088 
L 3444 0 
L 434 0 
L 434 341 
L 1850 1753 
Q 2319 2222 2519 2614 
Q 2719 3006 2719 3438 
Q 2719 3909 2473 4175 
Q 2228 4441 1797 4441 
Q 1350 4441 1106 4219 
Q 863 3997 819 3553 
z
" transform="scale(0.015625)"/>
       </defs>
       <use xlink:href="#DejaVuSerif-32"/>
      </g>
     </g>
    </g>
    <g id="xtick_3">
     <g id="line2d_3">
      <g>
       <use xlink:href="#m7e164b120f" x="228.016601" y="256.32" style="stroke: #000000; stroke-width: 0.8"/>
      </g>
     </g>
     <g id="text_3">
      <!-- 3 -->
      <g transform="translate(224.835351 270.918437)scale(0.1 -0.1)">
       <defs>
        <path id="DejaVuSerif-33" d="M 622 4469 
Q 988 4606 1323 4678 
Q 1659 4750 1953 4750 
Q 2638 4750 3022 4454 
Q 3406 4159 3406 3634 
Q 3406 3213 3140 2930 
Q 2875 2647 2388 2547 
Q 2963 2466 3280 2130 
Q 3597 1794 3597 1259 
Q 3597 606 3158 257 
Q 2719 -91 1894 -91 
Q 1528 -91 1179 -12 
Q 831 66 488 225 
L 488 1131 
L 838 1131 
Q 869 681 1141 450 
Q 1413 219 1906 219 
Q 2384 219 2661 495 
Q 2938 772 2938 1253 
Q 2938 1803 2653 2086 
Q 2369 2369 1819 2369 
L 1522 2369 
L 1522 2688 
L 1678 2688 
Q 2225 2688 2498 2914 
Q 2772 3141 2772 3597 
Q 2772 4006 2547 4223 
Q 2322 4441 1900 4441 
Q 1478 4441 1245 4241 
Q 1013 4041 972 3647 
L 622 3647 
L 622 4469 
z
" transform="scale(0.015625)"/>
       </defs>
       <use xlink:href="#DejaVuSerif-33"/>
      </g>
     </g>
    </g>
    <g id="xtick_4">
     <g id="line2d_4">
      <g>
       <use xlink:href="#m7e164b120f" x="294.182609" y="256.32" style="stroke: #000000; stroke-width: 0.8"/>
      </g>
     </g>
     <g id="text_4">
      <!-- 4 -->
      <g transform="translate(291.001359 270.918437)scale(0.1 -0.1)">
       <defs>
        <path id="DejaVuSerif-34" d="M 2234 1581 
L 2234 4063 
L 641 1581 
L 2234 1581 
z
M 3609 0 
L 1484 0 
L 1484 331 
L 2234 331 
L 2234 1247 
L 197 1247 
L 197 1588 
L 2241 4750 
L 2859 4750 
L 2859 1581 
L 3750 1581 
L 3750 1247 
L 2859 1247 
L 2859 331 
L 3609 331 
L 3609 0 
z
" transform="scale(0.015625)"/>
       </defs>
       <use xlink:href="#DejaVuSerif-34"/>
      </g>
     </g>
    </g>
    <g id="xtick_5">
     <g id="line2d_5">
      <g>
       <use xlink:href="#m7e164b120f" x="360.348617" y="256.32" style="stroke: #000000; stroke-width: 0.8"/>
      </g>
     </g>
     <g id="text_5">
      <!-- 5 -->
      <g transform="translate(357.167367 270.918437)scale(0.1 -0.1)">
       <defs>
        <path id="DejaVuSerif-35" d="M 3219 4666 
L 3219 4153 
L 1081 4153 
L 1081 2816 
Q 1244 2928 1461 2984 
Q 1678 3041 1947 3041 
Q 2703 3041 3140 2622 
Q 3578 2203 3578 1478 
Q 3578 738 3136 323 
Q 2694 -91 1894 -91 
Q 1572 -91 1234 -12 
Q 897 66 544 225 
L 544 1131 
L 897 1131 
Q 925 688 1179 453 
Q 1434 219 1894 219 
Q 2388 219 2653 544 
Q 2919 869 2919 1478 
Q 2919 2084 2655 2407 
Q 2391 2731 1894 2731 
Q 1613 2731 1398 2631 
Q 1184 2531 1019 2322 
L 750 2322 
L 750 4666 
L 3219 4666 
z
" transform="scale(0.015625)"/>
       </defs>
       <use xlink:href="#DejaVuSerif-35"/>
      </g>
     </g>
    </g>
    <g id="text_6">
     <!-- Wavelength [$\mu$m] -->
     <g transform="translate(165.5 286.878125)scale(0.13 -0.13)">
      <defs>
       <path id="DejaVuSerif-57" d="M 4878 0 
L 4366 0 
L 3297 3794 
L 2228 0 
L 1716 0 
L 494 4331 
L 31 4331 
L 31 4666 
L 1734 4666 
L 1734 4331 
L 1153 4331 
L 2125 884 
L 3188 4666 
L 3694 4666 
L 4775 844 
L 5753 4331 
L 5216 4331 
L 5216 4666 
L 6559 4666 
L 6559 4331 
L 6100 4331 
L 4878 0 
z
" transform="scale(0.015625)"/>
       <path id="DejaVuSerif-61" d="M 2547 1044 
L 2547 1747 
L 1806 1747 
Q 1378 1747 1168 1562 
Q 959 1378 959 997 
Q 959 650 1171 447 
Q 1384 244 1747 244 
Q 2106 244 2326 466 
Q 2547 688 2547 1044 
z
M 3122 2075 
L 3122 331 
L 3634 331 
L 3634 0 
L 2547 0 
L 2547 359 
Q 2356 128 2106 18 
Q 1856 -91 1522 -91 
Q 969 -91 644 203 
Q 319 497 319 997 
Q 319 1513 691 1797 
Q 1063 2081 1741 2081 
L 2547 2081 
L 2547 2309 
Q 2547 2688 2317 2895 
Q 2088 3103 1672 3103 
Q 1328 3103 1125 2947 
Q 922 2791 872 2484 
L 575 2484 
L 575 3156 
Q 875 3284 1158 3348 
Q 1441 3413 1709 3413 
Q 2400 3413 2761 3070 
Q 3122 2728 3122 2075 
z
" transform="scale(0.015625)"/>
       <path id="DejaVuSerif-76" d="M 1581 0 
L 359 2988 
L -19 2988 
L -19 3322 
L 1509 3322 
L 1509 2988 
L 978 2988 
L 1913 703 
L 2847 2988 
L 2350 2988 
L 2350 3322 
L 3597 3322 
L 3597 2988 
L 3225 2988 
L 2003 0 
L 1581 0 
z
" transform="scale(0.015625)"/>
       <path id="DejaVuSerif-65" d="M 3469 1600 
L 991 1600 
L 991 1575 
Q 991 903 1244 561 
Q 1497 219 1991 219 
Q 2369 219 2611 417 
Q 2853 616 2950 1006 
L 3413 1006 
Q 3275 459 2904 184 
Q 2534 -91 1931 -91 
Q 1203 -91 761 389 
Q 319 869 319 1663 
Q 319 2450 753 2931 
Q 1188 3413 1894 3413 
Q 2647 3413 3050 2948 
Q 3453 2484 3469 1600 
z
M 2791 1931 
Q 2772 2513 2545 2808 
Q 2319 3103 1894 3103 
Q 1497 3103 1269 2806 
Q 1041 2509 991 1931 
L 2791 1931 
z
" transform="scale(0.015625)"/>
       <path id="DejaVuSerif-6c" d="M 1313 331 
L 1856 331 
L 1856 0 
L 184 0 
L 184 331 
L 738 331 
L 738 4531 
L 184 4531 
L 184 4863 
L 1313 4863 
L 1313 331 
z
" transform="scale(0.015625)"/>
       <path id="DejaVuSerif-6e" d="M 263 0 
L 263 331 
L 781 331 
L 781 2988 
L 231 2988 
L 231 3322 
L 1356 3322 
L 1356 2731 
Q 1516 3069 1770 3241 
Q 2025 3413 2363 3413 
Q 2913 3413 3172 3097 
Q 3431 2781 3431 2113 
L 3431 331 
L 3944 331 
L 3944 0 
L 2356 0 
L 2356 331 
L 2853 331 
L 2853 1931 
Q 2853 2541 2703 2767 
Q 2553 2994 2175 2994 
Q 1775 2994 1565 2701 
Q 1356 2409 1356 1850 
L 1356 331 
L 1856 331 
L 1856 0 
L 263 0 
z
" transform="scale(0.015625)"/>
       <path id="DejaVuSerif-67" d="M 3359 2988 
L 3359 72 
Q 3359 -644 2965 -1033 
Q 2572 -1422 1844 -1422 
Q 1516 -1422 1216 -1362 
Q 916 -1303 641 -1184 
L 641 -488 
L 941 -488 
Q 997 -813 1206 -963 
Q 1416 -1113 1806 -1113 
Q 2313 -1113 2548 -827 
Q 2784 -541 2784 72 
L 2784 519 
Q 2616 206 2355 57 
Q 2094 -91 1709 -91 
Q 1097 -91 708 395 
Q 319 881 319 1663 
Q 319 2444 706 2928 
Q 1094 3413 1709 3413 
Q 2094 3413 2355 3264 
Q 2616 3116 2784 2803 
L 2784 3322 
L 3909 3322 
L 3909 2988 
L 3359 2988 
z
M 2784 1825 
Q 2784 2422 2554 2737 
Q 2325 3053 1888 3053 
Q 1444 3053 1217 2703 
Q 991 2353 991 1663 
Q 991 975 1217 622 
Q 1444 269 1888 269 
Q 2325 269 2554 583 
Q 2784 897 2784 1497 
L 2784 1825 
z
" transform="scale(0.015625)"/>
       <path id="DejaVuSerif-74" d="M 691 2988 
L 184 2988 
L 184 3322 
L 691 3322 
L 691 4353 
L 1269 4353 
L 1269 3322 
L 2350 3322 
L 2350 2988 
L 1269 2988 
L 1269 878 
Q 1269 456 1350 337 
Q 1431 219 1650 219 
Q 1875 219 1978 351 
Q 2081 484 2088 781 
L 2522 781 
Q 2497 328 2275 118 
Q 2053 -91 1600 -91 
Q 1103 -91 897 129 
Q 691 350 691 878 
L 691 2988 
z
" transform="scale(0.015625)"/>
       <path id="DejaVuSerif-68" d="M 263 0 
L 263 331 
L 781 331 
L 781 4531 
L 231 4531 
L 231 4863 
L 1356 4863 
L 1356 2731 
Q 1516 3069 1770 3241 
Q 2025 3413 2363 3413 
Q 2913 3413 3172 3097 
Q 3431 2781 3431 2113 
L 3431 331 
L 3944 331 
L 3944 0 
L 2356 0 
L 2356 331 
L 2853 331 
L 2853 1931 
Q 2853 2541 2704 2764 
Q 2556 2988 2175 2988 
Q 1775 2988 1565 2697 
Q 1356 2406 1356 1850 
L 1356 331 
L 1856 331 
L 1856 0 
L 263 0 
z
" transform="scale(0.015625)"/>
       <path id="DejaVuSerif-20" transform="scale(0.015625)"/>
       <path id="DejaVuSerif-5b" d="M 550 4863 
L 2003 4863 
L 2003 4531 
L 1147 4531 
L 1147 -513 
L 2003 -513 
L 2003 -844 
L 550 -844 
L 550 4863 
z
" transform="scale(0.015625)"/>
       <path id="STIXGeneral-Italic-3bc" d="M 3002 749 
L 3091 691 
Q 2797 237 2614 83 
Q 2432 -70 2214 -70 
Q 2080 -70 1990 6 
Q 1901 83 1901 218 
Q 1901 416 1997 704 
L 2208 1370 
L 2202 1370 
Q 1766 595 1475 268 
Q 1184 -58 902 -58 
Q 723 -58 672 122 
Q 614 -109 547 -374 
Q 480 -640 451 -758 
Q 422 -877 384 -1005 
Q 346 -1133 314 -1197 
Q 282 -1261 243 -1312 
L -211 -1312 
Q -58 -1088 70 -595 
L 909 2739 
L 1389 2739 
L 909 832 
Q 883 717 883 659 
Q 883 352 1139 352 
Q 1395 352 1811 969 
Q 2227 1587 2323 1958 
L 2534 2739 
L 3027 2739 
L 2522 819 
Q 2400 333 2400 326 
Q 2400 230 2470 230 
Q 2547 230 2652 329 
Q 2758 429 3002 749 
z
" transform="scale(0.015625)"/>
       <path id="DejaVuSerif-6d" d="M 3316 2675 
Q 3481 3041 3739 3227 
Q 3997 3413 4341 3413 
Q 4863 3413 5119 3089 
Q 5375 2766 5375 2113 
L 5375 331 
L 5894 331 
L 5894 0 
L 4300 0 
L 4300 331 
L 4800 331 
L 4800 2047 
Q 4800 2556 4650 2772 
Q 4500 2988 4153 2988 
Q 3769 2988 3567 2697 
Q 3366 2406 3366 1850 
L 3366 331 
L 3866 331 
L 3866 0 
L 2291 0 
L 2291 331 
L 2791 331 
L 2791 2069 
Q 2791 2566 2641 2777 
Q 2491 2988 2144 2988 
Q 1759 2988 1557 2697 
Q 1356 2406 1356 1850 
L 1356 331 
L 1856 331 
L 1856 0 
L 263 0 
L 263 331 
L 781 331 
L 781 2994 
L 231 2994 
L 231 3322 
L 1356 3322 
L 1356 2731 
Q 1516 3063 1762 3238 
Q 2009 3413 2322 3413 
Q 2709 3413 2968 3220 
Q 3228 3028 3316 2675 
z
" transform="scale(0.015625)"/>
       <path id="DejaVuSerif-5d" d="M 1947 4863 
L 1947 -844 
L 494 -844 
L 494 -513 
L 1350 -513 
L 1350 4531 
L 494 4531 
L 494 4863 
L 1947 4863 
z
" transform="scale(0.015625)"/>
      </defs>
      <use xlink:href="#DejaVuSerif-57" transform="translate(0 0.015625)"/>
      <use xlink:href="#DejaVuSerif-61" transform="translate(102.783203 0.015625)"/>
      <use xlink:href="#DejaVuSerif-76" transform="translate(162.402344 0.015625)"/>
      <use xlink:href="#DejaVuSerif-65" transform="translate(218.896484 0.015625)"/>
      <use xlink:href="#DejaVuSerif-6c" transform="translate(278.076172 0.015625)"/>
      <use xlink:href="#DejaVuSerif-65" transform="translate(310.058594 0.015625)"/>
      <use xlink:href="#DejaVuSerif-6e" transform="translate(369.238281 0.015625)"/>
      <use xlink:href="#DejaVuSerif-67" transform="translate(433.642578 0.015625)"/>
      <use xlink:href="#DejaVuSerif-74" transform="translate(497.65625 0.015625)"/>
      <use xlink:href="#DejaVuSerif-68" transform="translate(537.841797 0.015625)"/>
      <use xlink:href="#DejaVuSerif-20" transform="translate(602.246094 0.015625)"/>
      <use xlink:href="#DejaVuSerif-5b" transform="translate(634.033203 0.015625)"/>
      <use xlink:href="#STIXGeneral-Italic-3bc" transform="translate(673.046875 0.015625)"/>
      <use xlink:href="#DejaVuSerif-6d" transform="translate(725.646866 0.015625)"/>
      <use xlink:href="#DejaVuSerif-5d" transform="translate(820.471085 0.015625)"/>
     </g>
    </g>
   </g>
   <g id="matplotlib.axis_2">
    <g id="ytick_1">
     <g id="line2d_6">
      <defs>
       <path id="me562bd9257" d="M 0 0 
L -3.5 0 
" style="stroke: #000000; stroke-width: 0.8"/>
      </defs>
      <g>
       <use xlink:href="#me562bd9257" x="54" y="225.875162" style="stroke: #000000; stroke-width: 0.8"/>
      </g>
     </g>
     <g id="text_7">
      <!-- 3500 -->
      <g transform="translate(21.55 229.674381)scale(0.1 -0.1)">
       <defs>
        <path id="DejaVuSerif-30" d="M 2034 219 
Q 2513 219 2750 744 
Q 2988 1269 2988 2328 
Q 2988 3391 2750 3916 
Q 2513 4441 2034 4441 
Q 1556 4441 1318 3916 
Q 1081 3391 1081 2328 
Q 1081 1269 1318 744 
Q 1556 219 2034 219 
z
M 2034 -91 
Q 1275 -91 848 546 
Q 422 1184 422 2328 
Q 422 3475 848 4112 
Q 1275 4750 2034 4750 
Q 2797 4750 3222 4112 
Q 3647 3475 3647 2328 
Q 3647 1184 3222 546 
Q 2797 -91 2034 -91 
z
" transform="scale(0.015625)"/>
       </defs>
       <use xlink:href="#DejaVuSerif-33"/>
       <use xlink:href="#DejaVuSerif-35" x="63.623047"/>
       <use xlink:href="#DejaVuSerif-30" x="127.246094"/>
       <use xlink:href="#DejaVuSerif-30" x="190.869141"/>
      </g>
     </g>
    </g>
    <g id="ytick_2">
     <g id="line2d_7">
      <g>
       <use xlink:href="#me562bd9257" x="54" y="190.719633" style="stroke: #000000; stroke-width: 0.8"/>
      </g>
     </g>
     <g id="text_8">
      <!-- 4000 -->
      <g transform="translate(21.55 194.518852)scale(0.1 -0.1)">
       <use xlink:href="#DejaVuSerif-34"/>
       <use xlink:href="#DejaVuSerif-30" x="63.623047"/>
       <use xlink:href="#DejaVuSerif-30" x="127.246094"/>
       <use xlink:href="#DejaVuSerif-30" x="190.869141"/>
      </g>
     </g>
    </g>
    <g id="ytick_3">
     <g id="line2d_8">
      <g>
       <use xlink:href="#me562bd9257" x="54" y="155.564103" style="stroke: #000000; stroke-width: 0.8"/>
      </g>
     </g>
     <g id="text_9">
      <!-- 4500 -->
      <g transform="translate(21.55 159.363322)scale(0.1 -0.1)">
       <use xlink:href="#DejaVuSerif-34"/>
       <use xlink:href="#DejaVuSerif-35" x="63.623047"/>
       <use xlink:href="#DejaVuSerif-30" x="127.246094"/>
       <use xlink:href="#DejaVuSerif-30" x="190.869141"/>
      </g>
     </g>
    </g>
    <g id="ytick_4">
     <g id="line2d_9">
      <g>
       <use xlink:href="#me562bd9257" x="54" y="120.408574" style="stroke: #000000; stroke-width: 0.8"/>
      </g>
     </g>
     <g id="text_10">
      <!-- 5000 -->
      <g transform="translate(21.55 124.207793)scale(0.1 -0.1)">
       <use xlink:href="#DejaVuSerif-35"/>
       <use xlink:href="#DejaVuSerif-30" x="63.623047"/>
       <use xlink:href="#DejaVuSerif-30" x="127.246094"/>
       <use xlink:href="#DejaVuSerif-30" x="190.869141"/>
      </g>
     </g>
    </g>
    <g id="ytick_5">
     <g id="line2d_10">
      <g>
       <use xlink:href="#me562bd9257" x="54" y="85.253045" style="stroke: #000000; stroke-width: 0.8"/>
      </g>
     </g>
     <g id="text_11">
      <!-- 5500 -->
      <g transform="translate(21.55 89.052263)scale(0.1 -0.1)">
       <use xlink:href="#DejaVuSerif-35"/>
       <use xlink:href="#DejaVuSerif-35" x="63.623047"/>
       <use xlink:href="#DejaVuSerif-30" x="127.246094"/>
       <use xlink:href="#DejaVuSerif-30" x="190.869141"/>
      </g>
     </g>
    </g>
    <g id="ytick_6">
     <g id="line2d_11">
      <g>
       <use xlink:href="#me562bd9257" x="54" y="50.097515" style="stroke: #000000; stroke-width: 0.8"/>
      </g>
     </g>
     <g id="text_12">
      <!-- 6000 -->
      <g transform="translate(21.55 53.896734)scale(0.1 -0.1)">
       <defs>
        <path id="DejaVuSerif-36" d="M 2094 219 
Q 2534 219 2771 542 
Q 3009 866 3009 1472 
Q 3009 2078 2771 2401 
Q 2534 2725 2094 2725 
Q 1647 2725 1412 2412 
Q 1178 2100 1178 1509 
Q 1178 888 1415 553 
Q 1653 219 2094 219 
z
M 1075 2569 
Q 1288 2803 1556 2918 
Q 1825 3034 2163 3034 
Q 2859 3034 3264 2615 
Q 3669 2197 3669 1472 
Q 3669 763 3233 336 
Q 2797 -91 2069 -91 
Q 1278 -91 853 498 
Q 428 1088 428 2181 
Q 428 3406 931 4078 
Q 1434 4750 2350 4750 
Q 2597 4750 2869 4703 
Q 3141 4656 3425 4563 
L 3425 3794 
L 3072 3794 
Q 3034 4109 2831 4275 
Q 2628 4441 2284 4441 
Q 1678 4441 1381 3981 
Q 1084 3522 1075 2569 
z
" transform="scale(0.015625)"/>
       </defs>
       <use xlink:href="#DejaVuSerif-36"/>
       <use xlink:href="#DejaVuSerif-30" x="63.623047"/>
       <use xlink:href="#DejaVuSerif-30" x="127.246094"/>
       <use xlink:href="#DejaVuSerif-30" x="190.869141"/>
      </g>
     </g>
    </g>
    <g id="text_13">
     <!-- $(R_p/R_\star)^2$ [ppm] -->
     <g transform="translate(13.91 191.2)rotate(-90)scale(0.13 -0.13)">
      <defs>
       <path id="STIXGeneral-Regular-28" d="M 1946 -1030 
L 1869 -1133 
Q 1126 -710 716 32 
Q 307 774 307 1613 
Q 307 3386 1888 4326 
L 1946 4224 
Q 1293 3667 1075 3126 
Q 858 2586 858 1632 
Q 858 685 1082 96 
Q 1306 -493 1946 -1030 
z
" transform="scale(0.015625)"/>
       <path id="STIXGeneral-Italic-52" d="M 845 4179 
L 2458 4179 
Q 3078 4179 3420 3936 
Q 3763 3693 3763 3277 
Q 3763 2778 3341 2458 
Q 3091 2266 2502 2131 
L 3072 627 
Q 3181 333 3299 217 
Q 3418 102 3629 102 
L 3629 0 
L 2688 0 
L 1901 2074 
L 1478 2106 
L 1126 806 
Q 1043 512 1043 403 
Q 1043 256 1126 192 
Q 1210 128 1472 102 
L 1472 0 
L -83 0 
L -83 102 
Q 173 134 278 243 
Q 384 352 461 646 
L 1222 3405 
Q 1299 3699 1299 3808 
Q 1299 3923 1210 3987 
Q 1133 4038 845 4077 
L 845 4179 
z
M 1958 3795 
L 1555 2342 
Q 1754 2310 1882 2310 
Q 2451 2310 2771 2566 
Q 3091 2822 3091 3270 
Q 3091 3603 2892 3795 
Q 2694 3987 2323 3987 
Q 2010 3987 1958 3795 
z
" transform="scale(0.015625)"/>
       <path id="STIXGeneral-Italic-70" d="M 1376 2739 
L 1190 2099 
Q 1670 2822 2285 2822 
Q 2637 2822 2829 2611 
Q 3021 2400 3021 2022 
Q 3021 1235 2422 582 
Q 1824 -70 1120 -70 
Q 890 -70 678 38 
Q 422 -1018 422 -1024 
Q 422 -1126 508 -1168 
Q 595 -1210 819 -1210 
L 819 -1312 
L -480 -1312 
L -480 -1210 
Q -275 -1203 -188 -1120 
Q -102 -1037 -45 -806 
L 691 1958 
Q 794 2330 794 2413 
Q 794 2586 512 2586 
L 371 2586 
L 358 2682 
L 1357 2822 
Q 1389 2822 1389 2797 
Q 1382 2765 1376 2739 
z
M 2445 2003 
Q 2445 2285 2352 2416 
Q 2259 2547 2048 2547 
Q 1798 2547 1548 2329 
Q 1299 2112 1184 1818 
Q 1043 1453 905 953 
Q 768 454 768 294 
Q 768 186 854 118 
Q 941 51 1075 51 
Q 1574 51 2003 659 
Q 2445 1274 2445 2003 
z
" transform="scale(0.015625)"/>
       <path id="STIXGeneral-Regular-2f" d="M 1837 4326 
L 378 -90 
L -58 -90 
L 1408 4326 
L 1837 4326 
z
" transform="scale(0.015625)"/>
       <path id="STIXGeneral-Regular-22c6" d="M 4256 2336 
L 2810 1459 
L 3494 -83 
L 2240 1062 
L 986 -83 
L 1670 1459 
L 224 2336 
L 1901 2144 
L 2240 3821 
L 2579 2144 
L 4256 2336 
z
" transform="scale(0.015625)"/>
       <path id="STIXGeneral-Regular-29" d="M 186 4224 
L 262 4326 
Q 992 3891 1408 3148 
Q 1824 2406 1824 1581 
Q 1824 -166 243 -1133 
L 186 -1030 
Q 845 -486 1059 54 
Q 1274 595 1274 1562 
Q 1274 2534 1059 3120 
Q 845 3706 186 4224 
z
" transform="scale(0.015625)"/>
       <path id="STIXGeneral-Regular-32" d="M 3034 877 
L 2688 0 
L 186 0 
L 186 77 
L 1325 1286 
Q 1773 1754 1965 2144 
Q 2157 2534 2157 2950 
Q 2157 3379 1920 3616 
Q 1683 3853 1267 3853 
Q 922 3853 720 3673 
Q 518 3494 326 3021 
L 192 3053 
Q 301 3648 630 3987 
Q 960 4326 1523 4326 
Q 2054 4326 2380 4006 
Q 2707 3686 2707 3200 
Q 2707 2477 1888 1613 
L 832 486 
L 2330 486 
Q 2541 486 2665 569 
Q 2790 653 2944 915 
L 3034 877 
z
" transform="scale(0.015625)"/>
       <path id="DejaVuSerif-70" d="M 1313 1825 
L 1313 1497 
Q 1313 897 1542 583 
Q 1772 269 2209 269 
Q 2650 269 2876 622 
Q 3103 975 3103 1663 
Q 3103 2353 2876 2703 
Q 2650 3053 2209 3053 
Q 1772 3053 1542 2737 
Q 1313 2422 1313 1825 
z
M 738 2988 
L 184 2988 
L 184 3322 
L 1313 3322 
L 1313 2803 
Q 1481 3116 1742 3264 
Q 2003 3413 2388 3413 
Q 3000 3413 3387 2928 
Q 3775 2444 3775 1663 
Q 3775 881 3387 395 
Q 3000 -91 2388 -91 
Q 2003 -91 1742 57 
Q 1481 206 1313 519 
L 1313 -997 
L 1856 -997 
L 1856 -1331 
L 184 -1331 
L 184 -997 
L 738 -997 
L 738 2988 
z
" transform="scale(0.015625)"/>
      </defs>
      <use xlink:href="#STIXGeneral-Regular-28" transform="translate(0 0.409375)"/>
      <use xlink:href="#STIXGeneral-Italic-52" transform="translate(33.299988 0.409375)"/>
      <use xlink:href="#STIXGeneral-Italic-70" transform="translate(94.399979 -12.81875)scale(0.7)"/>
      <use xlink:href="#STIXGeneral-Regular-2f" transform="translate(134.089349 0.409375)"/>
      <use xlink:href="#STIXGeneral-Italic-52" transform="translate(161.889337 0.409375)"/>
      <use xlink:href="#STIXGeneral-Regular-22c6" transform="translate(233.097325 -12.81875)scale(0.7)"/>
      <use xlink:href="#STIXGeneral-Regular-29" transform="translate(296.614687 0.409375)"/>
      <use xlink:href="#STIXGeneral-Regular-32" transform="translate(331.457956 35.684375)scale(0.7)"/>
      <use xlink:href="#DejaVuSerif-20" transform="translate(370.867321 0.409375)"/>
      <use xlink:href="#DejaVuSerif-5b" transform="translate(402.65443 0.409375)"/>
      <use xlink:href="#DejaVuSerif-70" transform="translate(441.668102 0.409375)"/>
      <use xlink:href="#DejaVuSerif-70" transform="translate(505.681774 0.409375)"/>
      <use xlink:href="#DejaVuSerif-6d" transform="translate(569.695446 0.409375)"/>
      <use xlink:href="#DejaVuSerif-5d" transform="translate(664.519664 0.409375)"/>
     </g>
    </g>
   </g>
   <g id="line2d_12">
    <path d="M 69.218182 52.708477 
L 69.886265 52.774368 
L 76.585163 54.055712 
L 77.377222 54.193984 
L 78.672334 54.336382 
L 79.166986 54.354788 
L 79.834274 54.5527 
L 80.68101 54.581394 
L 81.195876 54.524973 
L 82.241205 54.806429 
L 83.128446 54.781335 
L 83.667941 54.720671 
L 84.947972 55.072119 
L 85.692958 55.010615 
L 86.069198 54.928774 
L 87.793705 55.237967 
L 88.184014 55.183741 
L 89.77157 55.35634 
L 89.973012 54.085998 
L 90.175127 55.394193 
L 90.377918 55.332587 
L 90.785536 55.415654 
L 90.990368 55.399987 
L 91.195884 52.392687 
L 91.402088 55.411232 
L 91.608981 54.901546 
L 91.816565 55.370542 
L 92.233819 55.249395 
L 92.443493 55.443001 
L 92.653867 55.477004 
L 92.864945 55.208124 
L 93.076729 55.457075 
L 93.716338 55.521391 
L 94.796688 55.537744 
L 95.453605 55.536446 
L 96.563191 55.602625 
L 99.770376 55.690377 
L 103.377087 55.700844 
L 103.624015 55.142553 
L 103.871769 55.13152 
L 104.120352 55.00234 
L 104.369765 55.743484 
L 104.620013 55.175301 
L 104.871097 55.663688 
L 107.428572 55.531569 
L 107.95039 55.748973 
L 109.004535 55.799797 
L 109.270277 55.612166 
L 109.536908 55.786723 
L 110.072848 55.837695 
L 110.612376 55.725842 
L 111.155519 55.849004 
L 114.491626 55.890148 
L 116.210461 55.897566 
L 116.500295 55.462945 
L 116.791097 55.826006 
L 118.259761 55.815334 
L 118.556446 55.508609 
L 118.854123 55.62594 
L 119.152795 50.763895 
L 119.452466 51.42132 
L 119.753139 55.328431 
L 120.054817 54.527086 
L 120.661202 55.462168 
L 120.965916 54.844016 
L 121.271649 55.553828 
L 121.578403 55.625713 
L 121.886184 55.24073 
L 122.194993 54.111063 
L 122.504835 55.262005 
L 122.815712 55.355915 
L 123.127629 54.68367 
L 123.440589 54.955057 
L 123.754595 55.687161 
L 124.069651 55.297843 
L 124.385761 54.349653 
L 124.702927 54.085411 
L 125.021153 55.579954 
L 125.340444 54.624463 
L 125.660801 55.385921 
L 125.98223 55.83998 
L 126.304734 55.888513 
L 126.952979 55.72804 
L 127.605566 55.9616 
L 128.262524 55.949024 
L 128.592651 55.760523 
L 128.923882 55.9762 
L 130.596721 55.939103 
L 130.934652 55.717739 
L 131.273713 55.940618 
L 131.613907 55.899139 
L 132.297712 55.993869 
L 132.986096 55.994359 
L 133.332015 55.277101 
L 133.679091 53.957838 
L 134.376728 55.939212 
L 135.079037 56.000631 
L 135.431953 55.042413 
L 135.78605 53.195017 
L 136.14133 55.030854 
L 136.497798 55.850176 
L 136.855458 55.478721 
L 137.214314 55.992225 
L 137.574369 55.518807 
L 137.935628 55.65552 
L 138.298095 55.603469 
L 138.661773 55.767146 
L 139.026668 55.03567 
L 139.392783 56.002046 
L 139.760121 55.108472 
L 140.128688 55.962071 
L 140.498487 55.842467 
L 140.869522 55.947218 
L 141.615318 55.73956 
L 141.990087 55.3928 
L 142.366109 55.798042 
L 142.743388 55.73988 
L 143.121928 55.821476 
L 143.501734 55.2273 
L 143.88281 55.419906 
L 144.26516 55.795037 
L 144.648788 55.829267 
L 145.033699 55.980346 
L 146.586254 55.810821 
L 146.977642 53.630515 
L 147.370339 55.778934 
L 147.764348 55.70484 
L 148.159675 55.963015 
L 148.556324 55.889444 
L 148.954298 55.992247 
L 149.353604 55.43365 
L 150.156223 55.901217 
L 150.964219 55.386986 
L 151.370244 52.725253 
L 151.777626 54.688568 
L 152.18637 53.629777 
L 153.007963 55.766548 
L 153.420821 54.882116 
L 153.835059 55.300441 
L 154.250682 54.830288 
L 154.667694 55.407952 
L 155.086101 54.114582 
L 155.505906 55.487504 
L 155.927115 54.998411 
L 156.773763 55.895379 
L 157.19921 55.914735 
L 158.054378 55.673918 
L 158.484107 54.458333 
L 158.915273 51.853227 
L 159.34788 53.048731 
L 159.781934 52.285501 
L 160.654399 55.9164 
L 161.092821 56.007632 
L 162.416901 52.756777 
L 162.861215 53.512993 
L 163.307015 52.971622 
L 164.20309 55.951591 
L 164.653376 55.956462 
L 165.558469 53.664697 
L 166.013287 53.560752 
L 166.469625 54.318224 
L 166.927488 54.029045 
L 167.386882 55.319885 
L 168.310284 55.885836 
L 168.774301 55.910284 
L 169.23987 54.514414 
L 169.706995 55.652432 
L 170.175682 55.873593 
L 171.117762 55.841616 
L 171.591166 55.419892 
L 172.066152 55.632624 
L 172.542726 55.59301 
L 173.50066 55.833688 
L 173.98203 55.545421 
L 174.46501 55.869014 
L 174.949604 55.848088 
L 175.435818 55.450167 
L 175.923658 55.929151 
L 176.413129 55.987389 
L 176.904236 55.628729 
L 177.396986 55.915655 
L 177.891382 54.370946 
L 178.387432 55.066984 
L 178.88514 55.165086 
L 179.885553 54.744893 
L 180.38827 55.578341 
L 180.892667 54.609293 
L 181.398751 54.78877 
L 181.906526 54.289089 
L 182.415999 55.898416 
L 182.927176 53.378764 
L 183.440061 55.283017 
L 183.954662 54.563118 
L 184.470982 55.594866 
L 184.989029 55.360212 
L 185.508808 55.522565 
L 186.030325 54.829431 
L 186.553585 55.303895 
L 187.078594 55.14374 
L 188.133885 55.813217 
L 188.664178 55.472519 
L 189.196244 55.90762 
L 189.730089 55.394114 
L 190.265718 55.703553 
L 190.803138 54.453764 
L 191.342355 55.768747 
L 192.970847 55.96334 
L 194.065602 54.020698 
L 194.615726 54.668003 
L 195.167689 55.585446 
L 195.721498 55.779527 
L 196.277159 55.680143 
L 196.834677 55.739445 
L 197.394059 55.682966 
L 197.955311 52.196665 
L 198.518439 55.517142 
L 199.083451 53.762076 
L 199.650351 54.942133 
L 200.219146 54.98095 
L 200.789843 53.299995 
L 201.362449 54.291069 
L 201.936968 52.995765 
L 202.513408 54.180637 
L 203.091776 54.782324 
L 203.672077 53.152131 
L 204.254318 55.177099 
L 204.838506 54.375493 
L 205.424647 54.562852 
L 206.012747 52.620155 
L 206.602814 52.262669 
L 207.194853 51.643733 
L 207.788872 50.499171 
L 208.384877 52.02609 
L 208.982874 51.624883 
L 209.582871 48.494574 
L 210.184873 54.775418 
L 210.788889 53.80541 
L 211.394923 51.935312 
L 212.002984 52.059653 
L 213.225211 51.685742 
L 213.839391 52.570037 
L 215.073917 53.500697 
L 215.694278 52.889637 
L 216.316713 54.765967 
L 216.941228 55.202962 
L 217.567832 54.9794 
L 218.19653 55.175982 
L 218.82733 53.884261 
L 219.46024 54.978212 
L 220.095265 54.324549 
L 220.732413 55.30614 
L 221.371692 54.902824 
L 222.013107 55.923098 
L 223.302379 56.064391 
L 223.95025 55.891888 
L 224.600286 55.848562 
L 225.252496 53.631588 
L 225.906886 54.449419 
L 226.563464 55.465478 
L 227.883213 55.875199 
L 228.546398 55.250265 
L 229.211801 53.978237 
L 229.879428 56.031591 
L 230.549288 53.285362 
L 231.221386 55.262562 
L 231.895732 56.030405 
L 233.251195 55.959643 
L 234.615736 55.201655 
L 235.30143 54.787139 
L 235.989417 55.787734 
L 236.679703 55.243703 
L 237.372298 54.36674 
L 238.067208 55.784722 
L 238.764441 55.901094 
L 239.464005 55.695222 
L 240.165908 55.039906 
L 240.870158 54.880879 
L 241.576762 55.311439 
L 242.285729 52.880433 
L 243.710781 54.580355 
L 244.426882 51.445612 
L 245.145377 54.046796 
L 245.866275 53.727857 
L 246.589582 51.578972 
L 247.315308 54.122529 
L 248.04346 54.53195 
L 248.774047 47.537858 
L 249.507076 54.198111 
L 250.242555 54.955707 
L 250.980494 54.468981 
L 251.7209 54.440562 
L 252.463781 54.264989 
L 253.209146 52.860339 
L 253.957002 52.434927 
L 254.707359 47.616304 
L 255.460225 54.680877 
L 256.215608 53.546119 
L 256.973516 55.327811 
L 257.733958 54.026524 
L 258.496942 55.755554 
L 259.262477 54.557732 
L 260.030572 54.910519 
L 260.801235 55.827028 
L 262.350298 55.905158 
L 263.128716 54.852173 
L 263.909736 54.661657 
L 264.693368 55.126701 
L 265.47962 54.830028 
L 266.2685 54.335267 
L 267.060017 55.001474 
L 267.854181 54.718678 
L 268.651 55.395827 
L 269.450483 54.553931 
L 270.252639 55.775882 
L 271.057476 55.54616 
L 271.865005 55.557223 
L 272.675233 55.708058 
L 273.48817 50.550699 
L 274.303825 55.596606 
L 275.122207 55.097735 
L 275.943325 55.45018 
L 276.767188 55.592901 
L 277.593805 55.111982 
L 278.423186 55.664432 
L 279.25534 55.569248 
L 280.928004 55.570094 
L 281.768532 55.409535 
L 282.61187 55.442259 
L 284.307015 55.348612 
L 285.15884 54.94407 
L 286.871043 54.85289 
L 287.731441 54.580595 
L 288.594715 54.713652 
L 289.460875 53.486174 
L 290.329931 54.757648 
L 292.076768 54.779383 
L 292.95457 54.601888 
L 294.718987 54.545163 
L 295.605622 54.494828 
L 296.495221 54.175151 
L 297.387795 54.34828 
L 304.636653 54.085731 
L 305.556446 54.09657 
L 306.479313 53.929792 
L 307.405266 52.033732 
L 308.334315 50.940341 
L 309.26647 49.654944 
L 310.201741 46.848737 
L 311.140139 50.816269 
L 313.026357 50.003335 
L 313.974199 50.392736 
L 314.925209 51.34795 
L 315.879399 51.13172 
L 316.836779 51.777623 
L 317.79736 53.030322 
L 318.761152 53.621671 
L 319.728166 53.632593 
L 320.698414 54.206078 
L 321.671905 54.266742 
L 323.628662 54.080693 
L 324.61195 53.595633 
L 325.598525 52.091694 
L 326.588399 53.747959 
L 327.581582 53.65299 
L 328.578085 53.272807 
L 329.57792 53.830949 
L 330.581098 53.012462 
L 331.58763 53.454824 
L 332.597526 54.645696 
L 333.610799 53.930761 
L 334.62746 54.666373 
L 335.64752 54.907899 
L 336.67099 55.009506 
L 337.697882 54.928398 
L 338.728207 55.128893 
L 340.799202 53.021032 
L 341.839895 52.98985 
L 342.884068 54.578236 
L 343.931732 51.412196 
L 344.982898 52.189675 
L 346.037579 53.527306 
L 347.095785 52.534602 
L 348.15753 50.294154 
L 349.222824 53.60528 
L 350.29168 53.379701 
L 351.364109 54.249693 
L 352.440124 53.073885 
L 353.519736 55.001149 
L 354.602958 54.428114 
L 355.689801 55.423477 
L 356.780278 55.542509 
L 357.8744 55.49723 
L 358.97218 55.800673 
L 360.073631 54.847576 
L 361.178764 55.590999 
L 362.287592 54.029048 
L 363.400126 55.236558 
L 364.516381 55.023508 
L 365.636367 54.470323 
L 366.760098 54.591628 
L 367.887585 54.984299 
L 369.018842 55.729731 
L 370.153881 53.518725 
L 371.292715 55.363119 
L 372.435357 54.894939 
L 373.581818 53.487209 
L 373.581818 53.487209 
" clip-path="url(#pecae1ad183)" style="fill: none; stroke-dasharray: 7.4,3.2; stroke-dashoffset: 0; stroke: #264653; stroke-opacity: 0.5; stroke-width: 2"/>
   </g>
   <g id="line2d_13">
    <path d="M 69.218182 112.290767 
L 69.350908 104.614576 
L 69.484078 109.542398 
L 69.617693 92.864908 
L 69.751755 94.422006 
L 69.886265 86.908405 
L 70.021225 93.222675 
L 70.156636 77.75168 
L 70.428818 118.585968 
L 70.565592 112.6826 
L 70.702823 115.789238 
L 70.840513 111.0712 
L 70.978663 99.415307 
L 71.117275 125.73517 
L 71.395891 101.026081 
L 71.535898 102.641529 
L 71.676373 105.806835 
L 71.817317 104.862459 
L 72.100622 67.706895 
L 72.385824 91.630157 
L 72.672936 105.725528 
L 72.817213 75.728552 
L 72.961971 75.042483 
L 73.107214 93.766019 
L 73.252943 95.293457 
L 73.399158 75.798652 
L 73.693057 94.472337 
L 73.840744 103.514653 
L 74.137601 75.196793 
L 74.286774 100.74494 
L 74.436446 102.347603 
L 74.586619 99.97108 
L 74.737293 112.638263 
L 74.888471 90.902682 
L 75.040155 120.130152 
L 75.345045 87.30215 
L 75.651977 97.304137 
L 75.806213 77.448799 
L 75.960965 86.470571 
L 76.116234 74.128591 
L 76.272023 102.557957 
L 76.428332 91.807953 
L 76.585163 100.117266 
L 76.742519 116.732249 
L 76.900402 113.752944 
L 77.058811 86.841537 
L 77.217751 93.485468 
L 77.377222 92.479319 
L 77.537226 80.040476 
L 77.697765 87.701197 
L 77.858841 64.489434 
L 78.020455 60.512598 
L 78.345307 99.106659 
L 78.672334 117.85028 
L 78.836668 132.949668 
L 79.166986 118.731838 
L 79.834274 92.84716 
L 80.002493 103.169979 
L 80.171274 223.34395 
L 80.340619 246.24 
L 80.85206 83.247061 
L 81.023681 87.027228 
L 81.368647 78.656278 
L 81.541996 65.538847 
L 81.715924 73.882133 
L 81.890433 66.271971 
L 82.065526 74.238364 
L 82.241205 66.978075 
L 82.41747 76.413845 
L 82.594325 71.80413 
L 82.949811 69.865295 
L 83.307678 60.221267 
L 83.487509 59.014554 
L 83.667941 58.835711 
L 83.848977 62.302236 
L 84.030618 59.369233 
L 84.212866 62.466531 
L 84.395723 68.666369 
L 84.579192 60.299221 
L 84.763274 62.460352 
L 84.947972 56.884467 
L 85.133287 58.536006 
L 85.319222 50.092181 
L 85.505778 61.428632 
L 85.692958 60.577237 
L 85.880764 61.426395 
L 86.069198 59.916735 
L 86.258261 55.771459 
L 86.447957 68.582408 
L 86.829253 75.781739 
L 87.020858 77.335557 
L 87.405992 74.861691 
L 87.793705 64.455681 
L 87.988534 59.438971 
L 88.184014 70.405063 
L 88.380148 66.475843 
L 88.576938 68.331774 
L 88.774386 72.291008 
L 88.972494 61.067284 
L 89.171264 57.311232 
L 89.370699 61.960601 
L 89.77157 53.641082 
L 89.973012 56.498477 
L 90.175127 53.086497 
L 90.377918 52.283003 
L 90.581387 47.262926 
L 90.785536 53.944984 
L 90.990368 50.828078 
L 91.195884 44.925426 
L 91.608981 49.331857 
L 92.024844 46.072461 
L 92.233819 47.741188 
L 92.443493 47.970998 
L 92.653867 46.530501 
L 92.864945 49.781169 
L 93.076729 48.641574 
L 93.289221 44.64 
L 93.502423 45.086859 
L 93.716338 47.00601 
L 93.930968 50.955319 
L 94.146315 52.281848 
L 94.362383 48.95445 
L 94.579173 54.13352 
L 94.796688 52.988419 
L 95.01493 53.636228 
L 95.233901 50.955376 
L 95.453605 57.314206 
L 95.674043 59.162366 
L 95.895219 52.76341 
L 96.117133 54.480609 
L 96.33979 52.580706 
L 96.563191 55.106619 
L 96.787339 52.146017 
L 97.012236 51.711134 
L 97.464289 54.134421 
L 97.691449 50.755423 
L 97.919369 50.258006 
L 98.148051 51.6272 
L 98.377498 50.74038 
L 98.607711 56.51185 
L 98.838694 51.126554 
L 99.07045 52.378078 
L 99.536288 50.488896 
L 99.770376 52.699188 
L 100.005246 51.553575 
L 100.240902 53.520944 
L 100.477345 49.265865 
L 100.714579 50.687705 
L 100.952606 53.291775 
L 101.191429 54.218299 
L 101.43105 52.381495 
L 101.671472 53.910012 
L 101.912699 52.57352 
L 102.154731 53.904463 
L 102.397573 53.072171 
L 102.641227 53.453672 
L 102.885695 49.754316 
L 103.130981 51.399457 
L 103.377087 52.093824 
L 103.624015 54.923902 
L 103.871769 52.044754 
L 104.120352 53.683317 
L 104.369765 54.271529 
L 104.620013 55.839705 
L 104.871097 56.600684 
L 105.12302 51.100831 
L 105.375786 54.856758 
L 105.629396 53.665024 
L 105.883855 53.018818 
L 106.139164 52.859319 
L 106.395327 52.065573 
L 106.910225 56.009893 
L 107.168966 52.898983 
L 107.428572 58.368595 
L 107.689045 53.453503 
L 107.95039 53.477489 
L 108.212608 52.721673 
L 108.475703 53.377986 
L 108.739678 51.953422 
L 109.004535 55.694151 
L 109.270277 54.935528 
L 109.536908 52.105412 
L 109.804431 54.11136 
L 110.072848 52.650231 
L 110.342162 53.988126 
L 110.612376 53.139375 
L 110.883494 53.930987 
L 111.155519 52.602734 
L 111.428453 53.623508 
L 111.702299 53.568428 
L 111.977061 54.271857 
L 112.252742 53.465606 
L 112.529344 53.183863 
L 112.806871 54.551541 
L 113.085325 52.578811 
L 113.364711 52.592192 
L 113.926288 53.554973 
L 114.208485 53.374621 
L 114.491626 52.19898 
L 114.775713 52.144823 
L 115.060751 52.478717 
L 115.346741 53.994684 
L 115.633687 53.112752 
L 115.921593 52.929409 
L 116.210461 53.53712 
L 116.500295 52.201307 
L 116.791097 54.111181 
L 117.082873 54.354513 
L 117.669352 57.555519 
L 117.964064 58.518979 
L 118.259761 61.045963 
L 118.556446 59.74803 
L 118.854123 63.760099 
L 119.152795 51.698474 
L 119.452466 59.529906 
L 119.753139 61.936856 
L 120.054817 57.872729 
L 120.357504 61.248287 
L 120.661202 53.221541 
L 120.965916 63.135574 
L 121.271649 59.042716 
L 121.578403 62.027417 
L 121.886184 59.02522 
L 122.194993 61.722632 
L 122.504835 58.266249 
L 122.815712 58.115523 
L 123.127629 58.106057 
L 123.440589 63.590425 
L 123.754595 57.844284 
L 124.069651 66.862363 
L 124.385761 65.300295 
L 124.702927 64.85784 
L 125.021153 58.127406 
L 125.340444 62.444814 
L 125.660801 62.984021 
L 125.98223 60.24249 
L 126.304734 66.296284 
L 126.628315 64.106041 
L 126.952979 63.927219 
L 127.278728 64.930664 
L 127.605566 61.286673 
L 128.262524 59.469599 
L 128.592651 60.990726 
L 128.923882 56.925084 
L 129.25622 60.07905 
L 129.589669 57.485765 
L 129.924233 59.753905 
L 130.259916 58.76899 
L 130.596721 55.193352 
L 130.934652 57.903488 
L 131.273713 57.327014 
L 131.613907 57.758292 
L 131.955239 58.715112 
L 132.297712 59.027308 
L 132.641329 58.538215 
L 132.986096 57.819622 
L 133.332015 56.038599 
L 133.679091 56.072654 
L 134.027327 54.629828 
L 134.376728 57.129076 
L 134.727296 57.248722 
L 135.079037 57.112037 
L 135.431953 56.058504 
L 135.78605 54.320827 
L 136.14133 55.525315 
L 136.497798 55.5578 
L 137.214314 57.002726 
L 137.574369 55.662475 
L 137.935628 55.374324 
L 138.298095 55.47895 
L 138.661773 55.009751 
L 139.026668 54.073624 
L 139.392783 55.302905 
L 139.760121 54.555574 
L 140.128688 54.703837 
L 140.498487 53.9134 
L 140.869522 54.322085 
L 141.241797 54.464343 
L 141.615318 54.00914 
L 142.366109 54.720736 
L 142.743388 54.60654 
L 143.121928 56.354906 
L 143.88281 57.44539 
L 144.26516 58.732823 
L 144.648788 50.971119 
L 145.033699 58.799993 
L 145.419897 56.876927 
L 145.807385 57.854131 
L 146.19617 63.011127 
L 146.586254 63.095084 
L 146.977642 55.790927 
L 147.370339 55.777064 
L 147.764348 56.229255 
L 148.159675 65.432172 
L 148.556324 62.523975 
L 148.954298 62.750532 
L 149.353604 56.543218 
L 149.754244 61.350721 
L 150.156223 57.106866 
L 150.559547 65.5712 
L 150.964219 64.466999 
L 151.370244 58.498201 
L 151.777626 60.840879 
L 152.18637 57.243014 
L 152.596481 62.234874 
L 153.007963 68.676273 
L 153.420821 64.232037 
L 153.835059 64.309044 
L 154.250682 60.551622 
L 154.667694 66.917229 
L 155.086101 59.66793 
L 155.505906 60.936774 
L 155.927115 57.41258 
L 156.349732 62.302309 
L 156.773763 61.098088 
L 157.19921 53.814991 
L 157.62608 55.137094 
L 158.054378 62.455578 
L 158.484107 57.358779 
L 158.915273 61.380856 
L 159.34788 53.674225 
L 159.781934 54.477695 
L 160.217439 57.487634 
L 160.654399 57.323568 
L 161.092821 59.64915 
L 161.532709 58.599023 
L 161.974067 54.308402 
L 162.416901 57.252367 
L 162.861215 56.497265 
L 163.307015 60.497073 
L 163.754305 59.507431 
L 164.20309 59.59414 
L 164.653376 57.953832 
L 165.105168 57.503885 
L 165.558469 58.460846 
L 166.013287 56.035961 
L 166.469625 56.014393 
L 166.927488 57.428395 
L 167.386882 59.738136 
L 168.310284 56.614791 
L 168.774301 58.385213 
L 169.23987 55.843115 
L 169.706995 57.569234 
L 170.175682 55.48059 
L 170.645936 54.784818 
L 171.117762 54.987516 
L 171.591166 54.788248 
L 172.066152 54.317806 
L 172.542726 52.980836 
L 173.020894 53.794119 
L 173.50066 54.224067 
L 173.98203 53.197374 
L 174.46501 53.628305 
L 174.949604 52.565566 
L 175.435818 53.857624 
L 175.923658 52.931892 
L 176.413129 54.057847 
L 176.904236 51.379805 
L 177.396986 52.178144 
L 177.891382 50.224176 
L 178.387432 50.057158 
L 178.88514 50.150787 
L 179.384512 51.200097 
L 179.885553 50.627125 
L 180.38827 50.706729 
L 180.892667 50.640401 
L 181.398751 59.069321 
L 181.906526 53.084827 
L 182.415999 54.269355 
L 182.927176 52.981132 
L 183.440061 55.141407 
L 183.954662 55.342977 
L 184.470982 55.969403 
L 184.989029 55.327616 
L 185.508808 53.556979 
L 186.030325 55.766077 
L 186.553585 53.789574 
L 187.078594 55.147627 
L 187.605359 58.506463 
L 188.133885 54.95095 
L 188.664178 58.271114 
L 189.196244 60.138979 
L 189.730089 60.214753 
L 190.265718 61.561414 
L 190.803138 56.810498 
L 191.342355 61.005312 
L 191.883375 63.047789 
L 192.426203 61.14989 
L 192.970847 64.102756 
L 193.517311 64.408744 
L 194.065602 63.51641 
L 194.615726 63.330957 
L 195.167689 69.915548 
L 195.721498 66.406498 
L 196.277159 66.933951 
L 196.834677 74.011052 
L 197.394059 74.538512 
L 197.955311 64.839994 
L 198.518439 68.624587 
L 199.083451 62.833482 
L 199.650351 62.15468 
L 200.219146 74.947628 
L 200.789843 66.831916 
L 201.362449 65.560836 
L 201.936968 65.689896 
L 202.513408 60.940462 
L 203.091776 60.522119 
L 203.672077 60.484946 
L 204.254318 64.751222 
L 204.838506 67.04117 
L 205.424647 60.349451 
L 206.012747 62.218136 
L 206.602814 66.125839 
L 207.194853 64.482843 
L 207.788872 65.634954 
L 208.384877 62.855589 
L 209.582871 68.610609 
L 210.788889 64.660378 
L 211.394923 64.212166 
L 212.002984 67.909512 
L 212.613078 66.424513 
L 213.225211 63.996021 
L 213.839391 60.947306 
L 214.455624 66.511894 
L 215.073917 68.686466 
L 215.694278 65.915445 
L 216.316713 72.401392 
L 216.941228 65.1095 
L 217.567832 64.141852 
L 218.19653 72.032914 
L 218.82733 56.896883 
L 219.46024 76.14957 
L 220.095265 66.261693 
L 220.732413 72.4373 
L 221.371692 64.286351 
L 222.013107 72.222754 
L 222.656667 64.397896 
L 223.302379 72.822789 
L 223.95025 65.375029 
L 224.600286 65.894028 
L 225.252496 66.957636 
L 225.906886 65.021623 
L 226.563464 66.320908 
L 227.222237 70.657491 
L 227.883213 63.718036 
L 228.546398 74.83615 
L 229.211801 63.809478 
L 229.879428 67.329411 
L 231.221386 64.221185 
L 231.895732 69.888035 
L 232.572333 68.555954 
L 233.251195 64.525244 
L 233.932327 67.245845 
L 234.615736 64.329581 
L 235.30143 60.244349 
L 235.989417 64.943193 
L 236.679703 62.89239 
L 237.372298 58.718029 
L 238.764441 67.196525 
L 239.464005 64.932076 
L 240.165908 56.929005 
L 240.870158 62.442488 
L 241.576762 62.775932 
L 242.285729 60.566595 
L 242.997066 60.925074 
L 243.710781 62.440614 
L 244.426882 57.471293 
L 245.145377 58.734745 
L 245.866275 58.842869 
L 246.589582 52.99477 
L 247.315308 60.661324 
L 248.04346 61.504896 
L 248.774047 54.641558 
L 249.507076 57.870541 
L 250.242555 57.676137 
L 250.980494 60.223489 
L 251.7209 57.200133 
L 252.463781 57.914863 
L 253.209146 58.235834 
L 253.957002 58.04048 
L 254.707359 51.778544 
L 255.460225 59.902655 
L 256.215608 56.446074 
L 256.973516 57.408194 
L 257.733958 56.894607 
L 258.496942 59.428723 
L 259.262477 56.092492 
L 260.030572 57.277598 
L 260.801235 55.52083 
L 261.574474 59.016952 
L 262.350298 57.468173 
L 263.128716 55.40473 
L 263.909736 58.402018 
L 264.693368 57.555916 
L 265.47962 58.460943 
L 266.2685 56.920119 
L 267.060017 56.388657 
L 267.854181 56.17505 
L 268.651 56.145896 
L 269.450483 55.522986 
L 270.252639 55.257816 
L 271.057476 55.247608 
L 271.865005 56.428541 
L 272.675233 58.652674 
L 273.48817 49.899829 
L 274.303825 57.469478 
L 275.122207 55.030431 
L 275.943325 55.831495 
L 276.767188 56.318578 
L 277.593805 55.243291 
L 278.423186 56.493155 
L 279.25534 55.427435 
L 280.090276 58.095527 
L 280.928004 55.568338 
L 281.768532 54.535436 
L 282.61187 54.544237 
L 283.458028 55.033151 
L 284.307015 55.95865 
L 285.15884 53.806947 
L 286.013513 54.084679 
L 286.871043 54.069904 
L 287.731441 53.759716 
L 288.594715 54.474963 
L 289.460875 52.708495 
L 290.329931 53.691529 
L 291.201892 53.530879 
L 292.076768 55.265478 
L 292.95457 53.910837 
L 293.835306 54.615229 
L 294.718987 55.794104 
L 295.605622 53.620747 
L 296.495221 53.896293 
L 297.387795 55.326585 
L 298.283352 52.928754 
L 299.181904 57.287508 
L 300.08346 56.893801 
L 300.98803 55.090761 
L 301.895624 55.826421 
L 302.806253 54.557019 
L 303.719926 56.480904 
L 304.636653 53.838922 
L 305.556446 56.125444 
L 306.479313 55.444937 
L 308.334315 53.243647 
L 309.26647 50.103852 
L 310.201741 48.653203 
L 311.140139 55.117194 
L 312.081674 53.43014 
L 313.026357 51.061221 
L 313.974199 54.967556 
L 314.925209 56.27963 
L 315.879399 54.843912 
L 316.836779 57.260299 
L 317.79736 57.748899 
L 318.761152 59.693705 
L 319.728166 60.315317 
L 320.698414 61.677858 
L 321.671905 60.997178 
L 322.648651 62.11522 
L 323.628662 62.61328 
L 324.61195 62.562413 
L 325.598525 58.797059 
L 326.588399 62.621365 
L 327.581582 62.045112 
L 328.578085 62.612615 
L 329.57792 65.326748 
L 330.581098 61.047481 
L 331.58763 64.998553 
L 332.597526 65.730136 
L 333.610799 62.724322 
L 334.62746 65.724328 
L 335.64752 63.69977 
L 336.67099 62.427102 
L 337.697882 63.254401 
L 338.728207 61.708596 
L 339.761976 60.595231 
L 340.799202 60.039111 
L 341.839895 60.701016 
L 342.884068 58.744527 
L 343.931732 58.676525 
L 344.982898 60.165812 
L 346.037579 63.561831 
L 347.095785 57.582025 
L 348.15753 60.170521 
L 349.222824 58.798307 
L 350.29168 62.179449 
L 351.364109 57.767044 
L 352.440124 60.992788 
L 353.519736 59.962561 
L 355.689801 66.787754 
L 356.780278 62.044406 
L 357.8744 65.291209 
L 358.97218 61.383743 
L 360.073631 64.550038 
L 362.287592 63.425427 
L 363.400126 65.568884 
L 364.516381 62.994927 
L 365.636367 64.810208 
L 366.760098 60.514449 
L 369.018842 63.647049 
L 370.153881 63.82538 
L 371.292715 65.423932 
L 372.435357 64.356386 
L 373.581818 63.062594 
L 373.581818 63.062594 
" clip-path="url(#pecae1ad183)" style="fill: none; stroke: #f4a261; stroke-opacity: 0.95; stroke-width: 1.9; stroke-linecap: square"/>
   </g>
   <g id="patch_3">
    <path d="M 54 256.32 
L 54 34.56 
" style="fill: none; stroke: #000000; stroke-width: 0.8; stroke-linejoin: miter; stroke-linecap: square"/>
   </g>
   <g id="patch_4">
    <path d="M 54 256.32 
L 388.8 256.32 
" style="fill: none; stroke: #000000; stroke-width: 0.8; stroke-linejoin: miter; stroke-linecap: square"/>
   </g>
  </g>
 </g>
 <defs>
  <clipPath id="pecae1ad183">
   <rect x="54" y="34.56" width="334.8" height="221.76"/>
  </clipPath>
 </defs>
</svg>
