<?xml version="1.0" encoding="utf-8" standalone="no"?>
<!DOCTYPE svg PUBLIC "-//W3C//DTD SVG 1.1//EN"
  "http://www.w3.org/Graphics/SVG/1.1/DTD/svg11.dtd">
<svg xmlns:xlink="http://www.w3.org/1999/xlink" width="432pt" height="288pt" viewBox="0 0 432 288" xmlns="http://www.w3.org/2000/svg" version="1.1">
 <metadata>
  <rdf:RDF xmlns:dc="http://purl.org/dc/elements/1.1/" xmlns:cc="http://creativecommons.org/ns#" xmlns:rdf="http://www.w3.org/1999/02/22-rdf-syntax-ns#">
   <cc:Work>
    <dc:type rdf:resource="http://purl.org/dc/dcmitype/StillImage"/>
    <dc:date>2025-10-04T17:48:17.634166</dc:date>
    <dc:format>image/svg+xml</dc:format>
    <dc:creator>
     <cc:Agent>
      <dc:title>Matplotlib v3.5.2, https://matplotlib.org/</dc:title>
     </cc:Agent>
    </dc:creator>
   </cc:Work>
  </rdf:RDF>
 </metadata>
 <defs>
  <style type="text/css">*{stroke-linejoin: round; stroke-linecap: butt}</style>
 </defs>
 <g id="figure_1">
  <g id="patch_1">
   <path d="M 0 288 
L 432 288 
L 432 0 
L 0 0 
L 0 288 
z
" style="fill: none"/>
  </g>
  <g id="axes_1">
   <g id="patch_2">
    <path d="M 54 256.32 
L 388.8 256.32 
L 388.8 34.56 
L 54 34.56 
L 54 256.32 
z
" style="fill: none"/>
   </g>
   <g id="matplotlib.axis_1">
    <g id="xtick_1">
     <g id="line2d_1">
      <defs>
       <path id="m245516e3ed" d="M 0 0 
L 0 3.5 
" style="stroke: #000000; stroke-width: 0.8"/>
      </defs>
      <g>
       <use xlink:href="#m245516e3ed" x="95.684585" y="256.32" style="stroke: #000000; stroke-width: 0.8"/>
      </g>
     </g>
     <g id="text_1">
      <!-- 1 -->
      <g transform="translate(92.503335 270.918437)scale(0.1 -0.1)">
       <defs>
        <path id="DejaVuSerif-31" d="M 909 0 
L 909 331 
L 1722 331 
L 1722 4213 
L 781 3603 
L 781 4013 
L 1919 4750 
L 2350 4750 
L 2350 331 
L 3163 331 
L 3163 0 
L 909 0 
z
" transform="scale(0.015625)"/>
       </defs>
       <use xlink:href="#DejaVuSerif-31"/>
      </g>
     </g>
    </g>
    <g id="xtick_2">
     <g id="line2d_2">
      <g>
       <use xlink:href="#m245516e3ed" x="161.850593" y="256.32" style="stroke: #000000; stroke-width: 0.8"/>
      </g>
     </g>
     <g id="text_2">
      <!-- 2 -->
      <g transform="translate(158.669343 270.918437)scale(0.1 -0.1)">
       <defs>
        <path id="DejaVuSerif-32" d="M 819 3553 
L 469 3553 
L 469 4384 
Q 803 4563 1142 4656 
Q 1481 4750 1806 4750 
Q 2534 4750 2956 4397 
Q 3378 4044 3378 3438 
Q 3378 2753 2422 1800 
Q 2347 1728 2309 1691 
L 1131 513 
L 3078 513 
L 3078 1088 
L 3444 1088 
L 3444 0 
L 434 0 
L 434 341 
L 1850 1753 
Q 2319 2222 2519 2614 
Q 2719 3006 2719 3438 
Q 2719 3909 2473 4175 
Q 2228 4441 1797 4441 
Q 1350 4441 1106 4219 
Q 863 3997 819 3553 
z
" transform="scale(0.015625)"/>
       </defs>
       <use xlink:href="#DejaVuSerif-32"/>
      </g>
     </g>
    </g>
    <g id="xtick_3">
     <g id="line2d_3">
      <g>
       <use xlink:href="#m245516e3ed" x="228.016601" y="256.32" style="stroke: #000000; stroke-width: 0.8"/>
      </g>
     </g>
     <g id="text_3">
      <!-- 3 -->
      <g transform="translate(224.835351 270.918437)scale(0.1 -0.1)">
       <defs>
        <path id="DejaVuSerif-33" d="M 622 4469 
Q 988 4606 1323 4678 
Q 1659 4750 1953 4750 
Q 2638 4750 3022 4454 
Q 3406 4159 3406 3634 
Q 3406 3213 3140 2930 
Q 2875 2647 2388 2547 
Q 2963 2466 3280 2130 
Q 3597 1794 3597 1259 
Q 3597 606 3158 257 
Q 2719 -91 1894 -91 
Q 1528 -91 1179 -12 
Q 831 66 488 225 
L 488 1131 
L 838 1131 
Q 869 681 1141 450 
Q 1413 219 1906 219 
Q 2384 219 2661 495 
Q 2938 772 2938 1253 
Q 2938 1803 2653 2086 
Q 2369 2369 1819 2369 
L 1522 2369 
L 1522 2688 
L 1678 2688 
Q 2225 2688 2498 2914 
Q 2772 3141 2772 3597 
Q 2772 4006 2547 4223 
Q 2322 4441 1900 4441 
Q 1478 4441 1245 4241 
Q 1013 4041 972 3647 
L 622 3647 
L 622 4469 
z
" transform="scale(0.015625)"/>
       </defs>
       <use xlink:href="#DejaVuSerif-33"/>
      </g>
     </g>
    </g>
    <g id="xtick_4">
     <g id="line2d_4">
      <g>
       <use xlink:href="#m245516e3ed" x="294.182609" y="256.32" style="stroke: #000000; stroke-width: 0.8"/>
      </g>
     </g>
     <g id="text_4">
      <!-- 4 -->
      <g transform="translate(291.001359 270.918437)scale(0.1 -0.1)">
       <defs>
        <path id="DejaVuSerif-34" d="M 2234 1581 
L 2234 4063 
L 641 1581 
L 2234 1581 
z
M 3609 0 
L 1484 0 
L 1484 331 
L 2234 331 
L 2234 1247 
L 197 1247 
L 197 1588 
L 2241 4750 
L 2859 4750 
L 2859 1581 
L 3750 1581 
L 3750 1247 
L 2859 1247 
L 2859 331 
L 3609 331 
L 3609 0 
z
" transform="scale(0.015625)"/>
       </defs>
       <use xlink:href="#DejaVuSerif-34"/>
      </g>
     </g>
    </g>
    <g id="xtick_5">
     <g id="line2d_5">
      <g>
       <use xlink:href="#m245516e3ed" x="360.348617" y="256.32" style="stroke: #000000; stroke-width: 0.8"/>
      </g>
     </g>
     <g id="text_5">
      <!-- 5 -->
      <g transform="translate(357.167367 270.918437)scale(0.1 -0.1)">
       <defs>
        <path id="DejaVuSerif-35" d="M 3219 4666 
L 3219 4153 
L 1081 4153 
L 1081 2816 
Q 1244 2928 1461 2984 
Q 1678 3041 1947 3041 
Q 2703 3041 3140 2622 
Q 3578 2203 3578 1478 
Q 3578 738 3136 323 
Q 2694 -91 1894 -91 
Q 1572 -91 1234 -12 
Q 897 66 544 225 
L 544 1131 
L 897 1131 
Q 925 688 1179 453 
Q 1434 219 1894 219 
Q 2388 219 2653 544 
Q 2919 869 2919 1478 
Q 2919 2084 2655 2407 
Q 2391 2731 1894 2731 
Q 1613 2731 1398 2631 
Q 1184 2531 1019 2322 
L 750 2322 
L 750 4666 
L 3219 4666 
z
" transform="scale(0.015625)"/>
       </defs>
       <use xlink:href="#DejaVuSerif-35"/>
      </g>
     </g>
    </g>
    <g id="text_6">
     <!-- Wavelength [$\mu$m] -->
     <g transform="translate(165.5 286.878125)scale(0.13 -0.13)">
      <defs>
       <path id="DejaVuSerif-57" d="M 4878 0 
L 4366 0 
L 3297 3794 
L 2228 0 
L 1716 0 
L 494 4331 
L 31 4331 
L 31 4666 
L 1734 4666 
L 1734 4331 
L 1153 4331 
L 2125 884 
L 3188 4666 
L 3694 4666 
L 4775 844 
L 5753 4331 
L 5216 4331 
L 5216 4666 
L 6559 4666 
L 6559 4331 
L 6100 4331 
L 4878 0 
z
" transform="scale(0.015625)"/>
       <path id="DejaVuSerif-61" d="M 2547 1044 
L 2547 1747 
L 1806 1747 
Q 1378 1747 1168 1562 
Q 959 1378 959 997 
Q 959 650 1171 447 
Q 1384 244 1747 244 
Q 2106 244 2326 466 
Q 2547 688 2547 1044 
z
M 3122 2075 
L 3122 331 
L 3634 331 
L 3634 0 
L 2547 0 
L 2547 359 
Q 2356 128 2106 18 
Q 1856 -91 1522 -91 
Q 969 -91 644 203 
Q 319 497 319 997 
Q 319 1513 691 1797 
Q 1063 2081 1741 2081 
L 2547 2081 
L 2547 2309 
Q 2547 2688 2317 2895 
Q 2088 3103 1672 3103 
Q 1328 3103 1125 2947 
Q 922 2791 872 2484 
L 575 2484 
L 575 3156 
Q 875 3284 1158 3348 
Q 1441 3413 1709 3413 
Q 2400 3413 2761 3070 
Q 3122 2728 3122 2075 
z
" transform="scale(0.015625)"/>
       <path id="DejaVuSerif-76" d="M 1581 0 
L 359 2988 
L -19 2988 
L -19 3322 
L 1509 3322 
L 1509 2988 
L 978 2988 
L 1913 703 
L 2847 2988 
L 2350 2988 
L 2350 3322 
L 3597 3322 
L 3597 2988 
L 3225 2988 
L 2003 0 
L 1581 0 
z
" transform="scale(0.015625)"/>
       <path id="DejaVuSerif-65" d="M 3469 1600 
L 991 1600 
L 991 1575 
Q 991 903 1244 561 
Q 1497 219 1991 219 
Q 2369 219 2611 417 
Q 2853 616 2950 1006 
L 3413 1006 
Q 3275 459 2904 184 
Q 2534 -91 1931 -91 
Q 1203 -91 761 389 
Q 319 869 319 1663 
Q 319 2450 753 2931 
Q 1188 3413 1894 3413 
Q 2647 3413 3050 2948 
Q 3453 2484 3469 1600 
z
M 2791 1931 
Q 2772 2513 2545 2808 
Q 2319 3103 1894 3103 
Q 1497 3103 1269 2806 
Q 1041 2509 991 1931 
L 2791 1931 
z
" transform="scale(0.015625)"/>
       <path id="DejaVuSerif-6c" d="M 1313 331 
L 1856 331 
L 1856 0 
L 184 0 
L 184 331 
L 738 331 
L 738 4531 
L 184 4531 
L 184 4863 
L 1313 4863 
L 1313 331 
z
" transform="scale(0.015625)"/>
       <path id="DejaVuSerif-6e" d="M 263 0 
L 263 331 
L 781 331 
L 781 2988 
L 231 2988 
L 231 3322 
L 1356 3322 
L 1356 2731 
Q 1516 3069 1770 3241 
Q 2025 3413 2363 3413 
Q 2913 3413 3172 3097 
Q 3431 2781 3431 2113 
L 3431 331 
L 3944 331 
L 3944 0 
L 2356 0 
L 2356 331 
L 2853 331 
L 2853 1931 
Q 2853 2541 2703 2767 
Q 2553 2994 2175 2994 
Q 1775 2994 1565 2701 
Q 1356 2409 1356 1850 
L 1356 331 
L 1856 331 
L 1856 0 
L 263 0 
z
" transform="scale(0.015625)"/>
       <path id="DejaVuSerif-67" d="M 3359 2988 
L 3359 72 
Q 3359 -644 2965 -1033 
Q 2572 -1422 1844 -1422 
Q 1516 -1422 1216 -1362 
Q 916 -1303 641 -1184 
L 641 -488 
L 941 -488 
Q 997 -813 1206 -963 
Q 1416 -1113 1806 -1113 
Q 2313 -1113 2548 -827 
Q 2784 -541 2784 72 
L 2784 519 
Q 2616 206 2355 57 
Q 2094 -91 1709 -91 
Q 1097 -91 708 395 
Q 319 881 319 1663 
Q 319 2444 706 2928 
Q 1094 3413 1709 3413 
Q 2094 3413 2355 3264 
Q 2616 3116 2784 2803 
L 2784 3322 
L 3909 3322 
L 3909 2988 
L 3359 2988 
z
M 2784 1825 
Q 2784 2422 2554 2737 
Q 2325 3053 1888 3053 
Q 1444 3053 1217 2703 
Q 991 2353 991 1663 
Q 991 975 1217 622 
Q 1444 269 1888 269 
Q 2325 269 2554 583 
Q 2784 897 2784 1497 
L 2784 1825 
z
" transform="scale(0.015625)"/>
       <path id="DejaVuSerif-74" d="M 691 2988 
L 184 2988 
L 184 3322 
L 691 3322 
L 691 4353 
L 1269 4353 
L 1269 3322 
L 2350 3322 
L 2350 2988 
L 1269 2988 
L 1269 878 
Q 1269 456 1350 337 
Q 1431 219 1650 219 
Q 1875 219 1978 351 
Q 2081 484 2088 781 
L 2522 781 
Q 2497 328 2275 118 
Q 2053 -91 1600 -91 
Q 1103 -91 897 129 
Q 691 350 691 878 
L 691 2988 
z
" transform="scale(0.015625)"/>
       <path id="DejaVuSerif-68" d="M 263 0 
L 263 331 
L 781 331 
L 781 4531 
L 231 4531 
L 231 4863 
L 1356 4863 
L 1356 2731 
Q 1516 3069 1770 3241 
Q 2025 3413 2363 3413 
Q 2913 3413 3172 3097 
Q 3431 2781 3431 2113 
L 3431 331 
L 3944 331 
L 3944 0 
L 2356 0 
L 2356 331 
L 2853 331 
L 2853 1931 
Q 2853 2541 2704 2764 
Q 2556 2988 2175 2988 
Q 1775 2988 1565 2697 
Q 1356 2406 1356 1850 
L 1356 331 
L 1856 331 
L 1856 0 
L 263 0 
z
" transform="scale(0.015625)"/>
       <path id="DejaVuSerif-20" transform="scale(0.015625)"/>
       <path id="DejaVuSerif-5b" d="M 550 4863 
L 2003 4863 
L 2003 4531 
L 1147 4531 
L 1147 -513 
L 2003 -513 
L 2003 -844 
L 550 -844 
L 550 4863 
z
" transform="scale(0.015625)"/>
       <path id="STIXGeneral-Italic-3bc" d="M 3002 749 
L 3091 691 
Q 2797 237 2614 83 
Q 2432 -70 2214 -70 
Q 2080 -70 1990 6 
Q 1901 83 1901 218 
Q 1901 416 1997 704 
L 2208 1370 
L 2202 1370 
Q 1766 595 1475 268 
Q 1184 -58 902 -58 
Q 723 -58 672 122 
Q 614 -109 547 -374 
Q 480 -640 451 -758 
Q 422 -877 384 -1005 
Q 346 -1133 314 -1197 
Q 282 -1261 243 -1312 
L -211 -1312 
Q -58 -1088 70 -595 
L 909 2739 
L 1389 2739 
L 909 832 
Q 883 717 883 659 
Q 883 352 1139 352 
Q 1395 352 1811 969 
Q 2227 1587 2323 1958 
L 2534 2739 
L 3027 2739 
L 2522 819 
Q 2400 333 2400 326 
Q 2400 230 2470 230 
Q 2547 230 2652 329 
Q 2758 429 3002 749 
z
" transform="scale(0.015625)"/>
       <path id="DejaVuSerif-6d" d="M 3316 2675 
Q 3481 3041 3739 3227 
Q 3997 3413 4341 3413 
Q 4863 3413 5119 3089 
Q 5375 2766 5375 2113 
L 5375 331 
L 5894 331 
L 5894 0 
L 4300 0 
L 4300 331 
L 4800 331 
L 4800 2047 
Q 4800 2556 4650 2772 
Q 4500 2988 4153 2988 
Q 3769 2988 3567 2697 
Q 3366 2406 3366 1850 
L 3366 331 
L 3866 331 
L 3866 0 
L 2291 0 
L 2291 331 
L 2791 331 
L 2791 2069 
Q 2791 2566 2641 2777 
Q 2491 2988 2144 2988 
Q 1759 2988 1557 2697 
Q 1356 2406 1356 1850 
L 1356 331 
L 1856 331 
L 1856 0 
L 263 0 
L 263 331 
L 781 331 
L 781 2994 
L 231 2994 
L 231 3322 
L 1356 3322 
L 1356 2731 
Q 1516 3063 1762 3238 
Q 2009 3413 2322 3413 
Q 2709 3413 2968 3220 
Q 3228 3028 3316 2675 
z
" transform="scale(0.015625)"/>
       <path id="DejaVuSerif-5d" d="M 1947 4863 
L 1947 -844 
L 494 -844 
L 494 -513 
L 1350 -513 
L 1350 4531 
L 494 4531 
L 494 4863 
L 1947 4863 
z
" transform="scale(0.015625)"/>
      </defs>
      <use xlink:href="#DejaVuSerif-57" transform="translate(0 0.015625)"/>
      <use xlink:href="#DejaVuSerif-61" transform="translate(102.783203 0.015625)"/>
      <use xlink:href="#DejaVuSerif-76" transform="translate(162.402344 0.015625)"/>
      <use xlink:href="#DejaVuSerif-65" transform="translate(218.896484 0.015625)"/>
      <use xlink:href="#DejaVuSerif-6c" transform="translate(278.076172 0.015625)"/>
      <use xlink:href="#DejaVuSerif-65" transform="translate(310.058594 0.015625)"/>
      <use xlink:href="#DejaVuSerif-6e" transform="translate(369.238281 0.015625)"/>
      <use xlink:href="#DejaVuSerif-67" transform="translate(433.642578 0.015625)"/>
      <use xlink:href="#DejaVuSerif-74" transform="translate(497.65625 0.015625)"/>
      <use xlink:href="#DejaVuSerif-68" transform="translate(537.841797 0.015625)"/>
      <use xlink:href="#DejaVuSerif-20" transform="translate(602.246094 0.015625)"/>
      <use xlink:href="#DejaVuSerif-5b" transform="translate(634.033203 0.015625)"/>
      <use xlink:href="#STIXGeneral-Italic-3bc" transform="translate(673.046875 0.015625)"/>
      <use xlink:href="#DejaVuSerif-6d" transform="translate(725.646866 0.015625)"/>
      <use xlink:href="#DejaVuSerif-5d" transform="translate(820.471085 0.015625)"/>
     </g>
    </g>
   </g>
   <g id="matplotlib.axis_2">
    <g id="ytick_1">
     <g id="line2d_6">
      <defs>
       <path id="m2761538eba" d="M 0 0 
L -3.5 0 
" style="stroke: #000000; stroke-width: 0.8"/>
      </defs>
      <g>
       <use xlink:href="#m2761538eba" x="54" y="238.758659" style="stroke: #000000; stroke-width: 0.8"/>
      </g>
     </g>
     <g id="text_7">
      <!-- 5920 -->
      <g transform="translate(21.55 242.557877)scale(0.1 -0.1)">
       <defs>
        <path id="DejaVuSerif-39" d="M 2994 2091 
Q 2784 1856 2512 1740 
Q 2241 1625 1900 1625 
Q 1206 1625 804 2044 
Q 403 2463 403 3188 
Q 403 3897 839 4323 
Q 1275 4750 2003 4750 
Q 2794 4750 3217 4161 
Q 3641 3572 3641 2478 
Q 3641 1253 3137 581 
Q 2634 -91 1722 -91 
Q 1475 -91 1203 -44 
Q 931 3 647 97 
L 647 872 
L 997 872 
Q 1038 556 1241 387 
Q 1444 219 1784 219 
Q 2391 219 2687 676 
Q 2984 1134 2994 2091 
z
M 1978 4441 
Q 1534 4441 1298 4117 
Q 1063 3794 1063 3188 
Q 1063 2581 1298 2256 
Q 1534 1931 1978 1931 
Q 2422 1931 2658 2245 
Q 2894 2559 2894 3150 
Q 2894 3772 2656 4106 
Q 2419 4441 1978 4441 
z
" transform="scale(0.015625)"/>
        <path id="DejaVuSerif-30" d="M 2034 219 
Q 2513 219 2750 744 
Q 2988 1269 2988 2328 
Q 2988 3391 2750 3916 
Q 2513 4441 2034 4441 
Q 1556 4441 1318 3916 
Q 1081 3391 1081 2328 
Q 1081 1269 1318 744 
Q 1556 219 2034 219 
z
M 2034 -91 
Q 1275 -91 848 546 
Q 422 1184 422 2328 
Q 422 3475 848 4112 
Q 1275 4750 2034 4750 
Q 2797 4750 3222 4112 
Q 3647 3475 3647 2328 
Q 3647 1184 3222 546 
Q 2797 -91 2034 -91 
z
" transform="scale(0.015625)"/>
       </defs>
       <use xlink:href="#DejaVuSerif-35"/>
       <use xlink:href="#DejaVuSerif-39" x="63.623047"/>
       <use xlink:href="#DejaVuSerif-32" x="127.246094"/>
       <use xlink:href="#DejaVuSerif-30" x="190.869141"/>
      </g>
     </g>
    </g>
    <g id="ytick_2">
     <g id="line2d_7">
      <g>
       <use xlink:href="#m2761538eba" x="54" y="207.996415" style="stroke: #000000; stroke-width: 0.8"/>
      </g>
     </g>
     <g id="text_8">
      <!-- 5940 -->
      <g transform="translate(21.55 211.795634)scale(0.1 -0.1)">
       <use xlink:href="#DejaVuSerif-35"/>
       <use xlink:href="#DejaVuSerif-39" x="63.623047"/>
       <use xlink:href="#DejaVuSerif-34" x="127.246094"/>
       <use xlink:href="#DejaVuSerif-30" x="190.869141"/>
      </g>
     </g>
    </g>
    <g id="ytick_3">
     <g id="line2d_8">
      <g>
       <use xlink:href="#m2761538eba" x="54" y="177.234172" style="stroke: #000000; stroke-width: 0.8"/>
      </g>
     </g>
     <g id="text_9">
      <!-- 5960 -->
      <g transform="translate(21.55 181.033391)scale(0.1 -0.1)">
       <defs>
        <path id="DejaVuSerif-36" d="M 2094 219 
Q 2534 219 2771 542 
Q 3009 866 3009 1472 
Q 3009 2078 2771 2401 
Q 2534 2725 2094 2725 
Q 1647 2725 1412 2412 
Q 1178 2100 1178 1509 
Q 1178 888 1415 553 
Q 1653 219 2094 219 
z
M 1075 2569 
Q 1288 2803 1556 2918 
Q 1825 3034 2163 3034 
Q 2859 3034 3264 2615 
Q 3669 2197 3669 1472 
Q 3669 763 3233 336 
Q 2797 -91 2069 -91 
Q 1278 -91 853 498 
Q 428 1088 428 2181 
Q 428 3406 931 4078 
Q 1434 4750 2350 4750 
Q 2597 4750 2869 4703 
Q 3141 4656 3425 4563 
L 3425 3794 
L 3072 3794 
Q 3034 4109 2831 4275 
Q 2628 4441 2284 4441 
Q 1678 4441 1381 3981 
Q 1084 3522 1075 2569 
z
" transform="scale(0.015625)"/>
       </defs>
       <use xlink:href="#DejaVuSerif-35"/>
       <use xlink:href="#DejaVuSerif-39" x="63.623047"/>
       <use xlink:href="#DejaVuSerif-36" x="127.246094"/>
       <use xlink:href="#DejaVuSerif-30" x="190.869141"/>
      </g>
     </g>
    </g>
    <g id="ytick_4">
     <g id="line2d_9">
      <g>
       <use xlink:href="#m2761538eba" x="54" y="146.471928" style="stroke: #000000; stroke-width: 0.8"/>
      </g>
     </g>
     <g id="text_10">
      <!-- 5980 -->
      <g transform="translate(21.55 150.271147)scale(0.1 -0.1)">
       <defs>
        <path id="DejaVuSerif-38" d="M 2981 1275 
Q 2981 1775 2732 2051 
Q 2484 2328 2034 2328 
Q 1584 2328 1336 2051 
Q 1088 1775 1088 1275 
Q 1088 772 1336 495 
Q 1584 219 2034 219 
Q 2484 219 2732 495 
Q 2981 772 2981 1275 
z
M 2853 3541 
Q 2853 3966 2637 4203 
Q 2422 4441 2034 4441 
Q 1650 4441 1433 4203 
Q 1216 3966 1216 3541 
Q 1216 3113 1433 2875 
Q 1650 2638 2034 2638 
Q 2422 2638 2637 2875 
Q 2853 3113 2853 3541 
z
M 2516 2484 
Q 3047 2413 3344 2092 
Q 3641 1772 3641 1275 
Q 3641 619 3225 264 
Q 2809 -91 2034 -91 
Q 1263 -91 845 264 
Q 428 619 428 1275 
Q 428 1772 725 2092 
Q 1022 2413 1556 2484 
Q 1084 2569 832 2842 
Q 581 3116 581 3541 
Q 581 4103 968 4426 
Q 1356 4750 2034 4750 
Q 2713 4750 3100 4426 
Q 3488 4103 3488 3541 
Q 3488 3116 3236 2842 
Q 2984 2569 2516 2484 
z
" transform="scale(0.015625)"/>
       </defs>
       <use xlink:href="#DejaVuSerif-35"/>
       <use xlink:href="#DejaVuSerif-39" x="63.623047"/>
       <use xlink:href="#DejaVuSerif-38" x="127.246094"/>
       <use xlink:href="#DejaVuSerif-30" x="190.869141"/>
      </g>
     </g>
    </g>
    <g id="ytick_5">
     <g id="line2d_10">
      <g>
       <use xlink:href="#m2761538eba" x="54" y="115.709685" style="stroke: #000000; stroke-width: 0.8"/>
      </g>
     </g>
     <g id="text_11">
      <!-- 6000 -->
      <g transform="translate(21.55 119.508904)scale(0.1 -0.1)">
       <use xlink:href="#DejaVuSerif-36"/>
       <use xlink:href="#DejaVuSerif-30" x="63.623047"/>
       <use xlink:href="#DejaVuSerif-30" x="127.246094"/>
       <use xlink:href="#DejaVuSerif-30" x="190.869141"/>
      </g>
     </g>
    </g>
    <g id="ytick_6">
     <g id="line2d_11">
      <g>
       <use xlink:href="#m2761538eba" x="54" y="84.947441" style="stroke: #000000; stroke-width: 0.8"/>
      </g>
     </g>
     <g id="text_12">
      <!-- 6020 -->
      <g transform="translate(21.55 88.74666)scale(0.1 -0.1)">
       <use xlink:href="#DejaVuSerif-36"/>
       <use xlink:href="#DejaVuSerif-30" x="63.623047"/>
       <use xlink:href="#DejaVuSerif-32" x="127.246094"/>
       <use xlink:href="#DejaVuSerif-30" x="190.869141"/>
      </g>
     </g>
    </g>
    <g id="ytick_7">
     <g id="line2d_12">
      <g>
       <use xlink:href="#m2761538eba" x="54" y="54.185198" style="stroke: #000000; stroke-width: 0.8"/>
      </g>
     </g>
     <g id="text_13">
      <!-- 6040 -->
      <g transform="translate(21.55 57.984417)scale(0.1 -0.1)">
       <use xlink:href="#DejaVuSerif-36"/>
       <use xlink:href="#DejaVuSerif-30" x="63.623047"/>
       <use xlink:href="#DejaVuSerif-34" x="127.246094"/>
       <use xlink:href="#DejaVuSerif-30" x="190.869141"/>
      </g>
     </g>
    </g>
    <g id="text_14">
     <!-- $(R_p/R_\star)^2$ [ppm] -->
     <g transform="translate(13.91 191.2)rotate(-90)scale(0.13 -0.13)">
      <defs>
       <path id="STIXGeneral-Regular-28" d="M 1946 -1030 
L 1869 -1133 
Q 1126 -710 716 32 
Q 307 774 307 1613 
Q 307 3386 1888 4326 
L 1946 4224 
Q 1293 3667 1075 3126 
Q 858 2586 858 1632 
Q 858 685 1082 96 
Q 1306 -493 1946 -1030 
z
" transform="scale(0.015625)"/>
       <path id="STIXGeneral-Italic-52" d="M 845 4179 
L 2458 4179 
Q 3078 4179 3420 3936 
Q 3763 3693 3763 3277 
Q 3763 2778 3341 2458 
Q 3091 2266 2502 2131 
L 3072 627 
Q 3181 333 3299 217 
Q 3418 102 3629 102 
L 3629 0 
L 2688 0 
L 1901 2074 
L 1478 2106 
L 1126 806 
Q 1043 512 1043 403 
Q 1043 256 1126 192 
Q 1210 128 1472 102 
L 1472 0 
L -83 0 
L -83 102 
Q 173 134 278 243 
Q 384 352 461 646 
L 1222 3405 
Q 1299 3699 1299 3808 
Q 1299 3923 1210 3987 
Q 1133 4038 845 4077 
L 845 4179 
z
M 1958 3795 
L 1555 2342 
Q 1754 2310 1882 2310 
Q 2451 2310 2771 2566 
Q 3091 2822 3091 3270 
Q 3091 3603 2892 3795 
Q 2694 3987 2323 3987 
Q 2010 3987 1958 3795 
z
" transform="scale(0.015625)"/>
       <path id="STIXGeneral-Italic-70" d="M 1376 2739 
L 1190 2099 
Q 1670 2822 2285 2822 
Q 2637 2822 2829 2611 
Q 3021 2400 3021 2022 
Q 3021 1235 2422 582 
Q 1824 -70 1120 -70 
Q 890 -70 678 38 
Q 422 -1018 422 -1024 
Q 422 -1126 508 -1168 
Q 595 -1210 819 -1210 
L 819 -1312 
L -480 -1312 
L -480 -1210 
Q -275 -1203 -188 -1120 
Q -102 -1037 -45 -806 
L 691 1958 
Q 794 2330 794 2413 
Q 794 2586 512 2586 
L 371 2586 
L 358 2682 
L 1357 2822 
Q 1389 2822 1389 2797 
Q 1382 2765 1376 2739 
z
M 2445 2003 
Q 2445 2285 2352 2416 
Q 2259 2547 2048 2547 
Q 1798 2547 1548 2329 
Q 1299 2112 1184 1818 
Q 1043 1453 905 953 
Q 768 454 768 294 
Q 768 186 854 118 
Q 941 51 1075 51 
Q 1574 51 2003 659 
Q 2445 1274 2445 2003 
z
" transform="scale(0.015625)"/>
       <path id="STIXGeneral-Regular-2f" d="M 1837 4326 
L 378 -90 
L -58 -90 
L 1408 4326 
L 1837 4326 
z
" transform="scale(0.015625)"/>
       <path id="STIXGeneral-Regular-22c6" d="M 4256 2336 
L 2810 1459 
L 3494 -83 
L 2240 1062 
L 986 -83 
L 1670 1459 
L 224 2336 
L 1901 2144 
L 2240 3821 
L 2579 2144 
L 4256 2336 
z
" transform="scale(0.015625)"/>
       <path id="STIXGeneral-Regular-29" d="M 186 4224 
L 262 4326 
Q 992 3891 1408 3148 
Q 1824 2406 1824 1581 
Q 1824 -166 243 -1133 
L 186 -1030 
Q 845 -486 1059 54 
Q 1274 595 1274 1562 
Q 1274 2534 1059 3120 
Q 845 3706 186 4224 
z
" transform="scale(0.015625)"/>
       <path id="STIXGeneral-Regular-32" d="M 3034 877 
L 2688 0 
L 186 0 
L 186 77 
L 1325 1286 
Q 1773 1754 1965 2144 
Q 2157 2534 2157 2950 
Q 2157 3379 1920 3616 
Q 1683 3853 1267 3853 
Q 922 3853 720 3673 
Q 518 3494 326 3021 
L 192 3053 
Q 301 3648 630 3987 
Q 960 4326 1523 4326 
Q 2054 4326 2380 4006 
Q 2707 3686 2707 3200 
Q 2707 2477 1888 1613 
L 832 486 
L 2330 486 
Q 2541 486 2665 569 
Q 2790 653 2944 915 
L 3034 877 
z
" transform="scale(0.015625)"/>
       <path id="DejaVuSerif-70" d="M 1313 1825 
L 1313 1497 
Q 1313 897 1542 583 
Q 1772 269 2209 269 
Q 2650 269 2876 622 
Q 3103 975 3103 1663 
Q 3103 2353 2876 2703 
Q 2650 3053 2209 3053 
Q 1772 3053 1542 2737 
Q 1313 2422 1313 1825 
z
M 738 2988 
L 184 2988 
L 184 3322 
L 1313 3322 
L 1313 2803 
Q 1481 3116 1742 3264 
Q 2003 3413 2388 3413 
Q 3000 3413 3387 2928 
Q 3775 2444 3775 1663 
Q 3775 881 3387 395 
Q 3000 -91 2388 -91 
Q 2003 -91 1742 57 
Q 1481 206 1313 519 
L 1313 -997 
L 1856 -997 
L 1856 -1331 
L 184 -1331 
L 184 -997 
L 738 -997 
L 738 2988 
z
" transform="scale(0.015625)"/>
      </defs>
      <use xlink:href="#STIXGeneral-Regular-28" transform="translate(0 0.409375)"/>
      <use xlink:href="#STIXGeneral-Italic-52" transform="translate(33.299988 0.409375)"/>
      <use xlink:href="#STIXGeneral-Italic-70" transform="translate(94.399979 -12.81875)scale(0.7)"/>
      <use xlink:href="#STIXGeneral-Regular-2f" transform="translate(134.089349 0.409375)"/>
      <use xlink:href="#STIXGeneral-Italic-52" transform="translate(161.889337 0.409375)"/>
      <use xlink:href="#STIXGeneral-Regular-22c6" transform="translate(233.097325 -12.81875)scale(0.7)"/>
      <use xlink:href="#STIXGeneral-Regular-29" transform="translate(296.614687 0.409375)"/>
      <use xlink:href="#STIXGeneral-Regular-32" transform="translate(331.457956 35.684375)scale(0.7)"/>
      <use xlink:href="#DejaVuSerif-20" transform="translate(370.867321 0.409375)"/>
      <use xlink:href="#DejaVuSerif-5b" transform="translate(402.65443 0.409375)"/>
      <use xlink:href="#DejaVuSerif-70" transform="translate(441.668102 0.409375)"/>
      <use xlink:href="#DejaVuSerif-70" transform="translate(505.681774 0.409375)"/>
      <use xlink:href="#DejaVuSerif-6d" transform="translate(569.695446 0.409375)"/>
      <use xlink:href="#DejaVuSerif-5d" transform="translate(664.519664 0.409375)"/>
     </g>
    </g>
   </g>
   <g id="line2d_13">
    <path d="M 69.218182 172.826622 
L 69.350908 172.69482 
L 69.484078 172.825156 
L 69.751755 173.662478 
L 70.565592 176.965103 
L 71.395891 179.698831 
L 73.693057 189.543609 
L 74.586619 193.848771 
L 75.040155 195.586321 
L 75.960965 200.420564 
L 76.585163 202.298482 
L 76.900402 202.701353 
L 78.18261 208.233125 
L 78.508547 208.572647 
L 78.672334 208.438387 
L 78.836668 208.098952 
L 79.001551 208.046179 
L 79.166986 208.841019 
L 79.666616 212.563896 
L 80.171274 214.020481 
L 80.340619 214.21644 
L 80.510531 214.227354 
L 80.68101 213.798224 
L 81.023681 212.214301 
L 81.195876 212.563969 
L 81.890433 217.222595 
L 82.241205 218.721045 
L 82.771771 219.525179 
L 82.949811 219.017667 
L 83.487509 216.296768 
L 83.667941 216.845006 
L 84.763274 224.357954 
L 84.947972 224.533235 
L 85.133287 224.510542 
L 85.505778 224.111175 
L 85.692958 223.187772 
L 85.880764 221.625083 
L 86.069198 221.397441 
L 86.447957 223.614013 
L 86.829253 226.441641 
L 87.213104 227.941093 
L 87.405992 228.32416 
L 87.599525 228.400027 
L 87.793705 228.161292 
L 87.988534 226.496513 
L 88.576938 227.907642 
L 88.774386 227.372163 
L 88.972494 227.488827 
L 89.370699 228.922694 
L 89.77157 230.750791 
L 89.973012 202.961021 
L 90.175127 231.578873 
L 90.377918 230.231183 
L 90.581387 232.022297 
L 90.785536 232.048341 
L 90.990368 231.705615 
L 91.195884 165.91846 
L 91.402088 231.951608 
L 91.608981 220.801808 
L 91.816565 231.06148 
L 92.233819 228.411287 
L 92.443493 232.646575 
L 92.653867 233.390423 
L 92.864945 227.508459 
L 93.076729 232.954467 
L 93.289221 234.054843 
L 93.502423 234.056798 
L 94.146315 234.973456 
L 94.579173 235.109477 
L 95.233901 233.966315 
L 95.895219 235.877857 
L 96.117133 235.919463 
L 96.33979 236.106589 
L 96.563191 236.138481 
L 97.012236 236.631436 
L 97.237885 236.651218 
L 97.919369 237.180295 
L 98.148051 236.789823 
L 98.377498 237.297083 
L 98.607711 237.38597 
L 98.838694 237.238997 
L 99.770376 238.05813 
L 100.005246 238.048343 
L 100.477345 238.376351 
L 101.671472 238.852334 
L 102.641227 239.046828 
L 102.885695 238.702361 
L 103.130981 239.189668 
L 103.377087 238.28711 
L 103.624015 226.074036 
L 103.871769 225.832665 
L 104.120352 223.006758 
L 104.369765 239.219882 
L 104.620013 226.790414 
L 104.871097 237.474292 
L 105.12302 237.270942 
L 105.375786 237.262433 
L 105.629396 236.613112 
L 105.883855 236.743424 
L 106.139164 237.476329 
L 106.395327 237.308071 
L 106.652346 234.420879 
L 106.910225 237.85375 
L 107.168966 233.86454 
L 107.428572 234.584085 
L 107.689045 238.412187 
L 108.212608 240.157609 
L 108.475703 239.93322 
L 108.739678 240.580425 
L 109.004535 240.451776 
L 109.270277 236.347202 
L 109.536908 240.16578 
L 110.072848 241.280827 
L 110.342162 239.188621 
L 110.612376 238.833949 
L 110.883494 241.482857 
L 111.155519 241.528237 
L 111.428453 241.783842 
L 112.806871 242.101188 
L 113.085325 241.876344 
L 113.645031 242.278975 
L 114.491626 242.428297 
L 114.775713 242.345424 
L 115.633687 242.612319 
L 115.921593 241.878351 
L 116.210461 242.590559 
L 116.500295 233.082861 
L 116.791097 241.02512 
L 117.082873 240.906676 
L 117.375623 240.632721 
L 117.669352 241.625267 
L 117.964064 241.08152 
L 118.259761 240.791678 
L 118.556446 234.081816 
L 118.854123 236.64851 
L 119.152795 130.287298 
L 119.452466 144.669003 
L 119.753139 230.140258 
L 120.054817 212.610186 
L 120.357504 220.963667 
L 120.661202 233.065877 
L 120.965916 219.543284 
L 121.271649 235.071 
L 121.578403 236.643547 
L 121.886184 228.221731 
L 122.194993 203.509348 
L 122.504835 228.687139 
L 122.815712 230.741507 
L 123.127629 216.035584 
L 123.440589 221.972395 
L 123.754595 237.987788 
L 124.069651 229.471131 
L 124.385761 208.728688 
L 124.702927 202.948174 
L 125.021153 235.642544 
L 125.340444 214.740382 
L 125.660801 231.397896 
L 125.98223 241.330829 
L 126.304734 242.392521 
L 126.628315 240.921465 
L 126.952979 238.882045 
L 127.278728 242.130926 
L 127.605566 243.991353 
L 127.933497 243.514301 
L 128.262524 243.71624 
L 128.592651 239.592629 
L 128.923882 244.310746 
L 129.589669 244.253995 
L 129.924233 242.874493 
L 130.259916 244.395011 
L 130.596721 243.499223 
L 130.934652 238.656706 
L 131.273713 243.532368 
L 131.613907 242.624978 
L 131.955239 244.570332 
L 132.297712 244.697276 
L 132.986096 244.707983 
L 133.332015 229.017382 
L 133.679091 200.157412 
L 134.376728 243.501603 
L 134.727296 244.816681 
L 135.079037 244.845193 
L 135.431953 223.883385 
L 135.78605 183.470089 
L 136.14133 223.630518 
L 136.497798 241.553873 
L 136.855458 233.427976 
L 137.214314 244.661303 
L 137.574369 234.304896 
L 137.935628 237.29561 
L 138.298095 236.156954 
L 138.661773 239.73751 
L 139.026668 223.73587 
L 139.392783 244.876153 
L 139.760121 225.328489 
L 140.128688 244.00166 
L 140.498487 241.385225 
L 140.869522 243.676735 
L 141.241797 242.147893 
L 141.615318 239.134048 
L 141.990087 231.548391 
L 142.366109 240.413381 
L 142.743388 239.141047 
L 143.121928 240.926036 
L 143.501734 227.927945 
L 143.88281 232.141348 
L 144.26516 240.347647 
L 144.648788 241.096459 
L 145.033699 244.401447 
L 145.419897 243.608305 
L 145.807385 244.011518 
L 146.19617 241.126324 
L 146.586254 240.692951 
L 146.977642 192.996951 
L 147.370339 239.995398 
L 147.764348 238.374525 
L 148.159675 244.022315 
L 148.556324 242.412877 
L 148.954298 244.661791 
L 149.353604 232.442026 
L 149.754244 238.909389 
L 150.156223 242.670437 
L 150.559547 238.076606 
L 150.964219 231.4212 
L 151.370244 173.193618 
L 151.777626 216.142737 
L 152.18637 192.98082 
L 153.007963 239.724442 
L 153.420821 220.376754 
L 153.835059 229.527971 
L 154.250682 219.242983 
L 154.667694 231.879858 
L 155.086101 203.586323 
L 155.505906 233.620115 
L 155.927115 222.920799 
L 156.349732 234.657061 
L 156.773763 242.54272 
L 157.19921 242.96615 
L 158.054378 237.698078 
L 158.484107 211.106148 
L 158.915273 154.117317 
L 159.34788 180.269957 
L 159.781934 163.573668 
L 160.654399 243.00258 
L 161.092821 244.998351 
L 162.416901 173.883223 
L 162.861215 190.426058 
L 163.307015 178.583134 
L 164.20309 243.772413 
L 164.653376 243.878956 
L 165.558469 193.744716 
L 166.013287 191.47083 
L 166.469625 208.041158 
L 166.927488 201.715138 
L 167.386882 229.953311 
L 167.847813 237.659843 
L 168.310284 242.333958 
L 168.774301 242.868773 
L 169.23987 212.332975 
L 169.706995 237.228055 
L 170.175682 242.066122 
L 170.645936 241.016813 
L 171.117762 241.366607 
L 171.591166 232.141039 
L 172.066152 236.794731 
L 172.542726 235.928156 
L 173.50066 241.193168 
L 173.98203 234.887102 
L 174.46501 241.965973 
L 174.949604 241.508188 
L 175.435818 232.803336 
L 175.923658 243.281513 
L 176.413129 244.555521 
L 176.904236 236.709539 
L 177.396986 242.98628 
L 177.891382 209.194497 
L 178.387432 224.420899 
L 178.88514 226.566953 
L 179.885553 217.374888 
L 180.38827 235.607243 
L 180.892667 214.408531 
L 181.398751 218.334737 
L 181.906526 207.403801 
L 182.415999 242.609166 
L 182.927176 187.489691 
L 183.440061 229.146796 
L 183.954662 213.398405 
L 184.470982 235.968745 
L 184.989029 230.835503 
L 185.508808 234.387103 
L 186.030325 219.224236 
L 186.553585 229.603517 
L 187.078594 226.1 
L 187.605359 234.936686 
L 188.133885 240.745358 
L 188.664178 233.292311 
L 189.196244 242.810503 
L 189.730089 231.577138 
L 190.265718 238.346356 
L 190.803138 211.006196 
L 191.342355 239.772549 
L 191.883375 240.536947 
L 192.426203 242.949245 
L 192.970847 244.029418 
L 193.517311 224.954416 
L 194.065602 201.53253 
L 194.615726 215.692851 
L 195.167689 235.762681 
L 195.721498 240.008352 
L 196.277159 237.834247 
L 196.834677 239.131541 
L 197.394059 237.896011 
L 197.955311 161.630312 
L 198.518439 234.268476 
L 199.083451 195.874968 
L 199.650351 221.689669 
L 200.219146 222.538834 
L 200.789843 185.766571 
L 201.362449 207.44713 
L 201.936968 179.111277 
L 202.513408 205.031334 
L 203.091776 218.193726 
L 203.672077 182.531923 
L 204.254318 226.829755 
L 204.838506 209.293965 
L 205.424647 213.392585 
L 206.012747 170.894496 
L 206.602814 163.074203 
L 207.194853 149.534467 
L 207.788872 124.496242 
L 208.384877 157.898837 
L 208.982874 149.122119 
L 209.582871 80.64404 
L 210.184873 218.04266 
L 210.788889 196.822937 
L 211.394923 155.912991 
L 212.002984 158.633071 
L 212.613078 153.863915 
L 213.225211 150.453447 
L 213.839391 169.798139 
L 215.073917 190.157092 
L 215.694278 176.789652 
L 216.316713 217.83591 
L 216.941228 227.395519 
L 217.567832 222.504926 
L 218.19653 226.805328 
L 218.82733 198.54786 
L 219.46024 222.478933 
L 220.095265 208.179522 
L 220.732413 229.652636 
L 221.371692 220.829771 
L 222.013107 243.14909 
L 222.656667 245.65827 
L 223.302379 246.24 
L 223.95025 242.466342 
L 224.600286 241.518555 
L 225.252496 193.020422 
L 225.906886 210.911153 
L 226.563464 233.138277 
L 227.222237 238.505321 
L 227.883213 242.101264 
L 228.546398 228.43033 
L 229.211801 200.603668 
L 229.879428 245.522474 
L 230.549288 185.446463 
L 231.221386 228.699319 
L 231.895732 245.496526 
L 232.572333 243.962506 
L 233.251195 243.948545 
L 233.932327 236.833074 
L 235.30143 218.299048 
L 235.989417 240.187904 
L 236.679703 228.286774 
L 237.372298 209.102478 
L 238.067208 240.122012 
L 238.764441 242.667733 
L 239.464005 238.164127 
L 240.165908 223.828539 
L 240.870158 220.349697 
L 241.576762 229.768553 
L 242.285729 176.588289 
L 243.710781 213.775498 
L 244.426882 145.200408 
L 245.145377 202.103456 
L 245.866275 195.126397 
L 246.589582 148.117778 
L 247.315308 203.760177 
L 248.04346 212.716591 
L 248.774047 59.715077 
L 249.507076 205.413595 
L 250.242555 221.98663 
L 250.980494 211.339091 
L 251.7209 210.7174 
L 252.463781 206.876605 
L 253.209146 176.148714 
L 253.957002 166.842494 
L 254.707359 61.431152 
L 255.460225 215.974479 
L 256.215608 191.150727 
L 256.973516 230.126704 
L 257.733958 201.659977 
L 258.496942 239.483939 
L 259.262477 213.280602 
L 260.030572 220.998092 
L 260.801235 241.047486 
L 261.574474 240.954319 
L 262.350298 242.756653 
L 263.128716 219.721738 
L 263.909736 215.554026 
L 264.693368 225.727245 
L 265.47962 219.237298 
L 266.2685 208.413982 
L 267.060017 222.987805 
L 267.854181 216.801413 
L 268.651 231.614601 
L 269.450483 213.19744 
L 270.252639 239.928618 
L 271.057476 234.903266 
L 271.865005 235.145273 
L 272.675233 238.444912 
L 273.48817 125.623445 
L 274.303825 236.006818 
L 275.122207 225.093593 
L 275.943325 232.803625 
L 276.767188 235.925759 
L 277.593805 225.405257 
L 278.423186 237.490565 
L 279.25534 235.408339 
L 280.090276 236.535241 
L 280.928004 235.426852 
L 281.768532 231.914491 
L 282.61187 232.63035 
L 283.458028 230.720694 
L 284.307015 230.581732 
L 285.15884 221.732062 
L 286.013513 221.596008 
L 286.871043 219.737404 
L 287.731441 213.780728 
L 288.594715 216.691463 
L 289.460875 189.839382 
L 290.329931 217.653917 
L 291.201892 219.053659 
L 292.076768 218.129389 
L 292.95457 214.246545 
L 293.835306 214.727372 
L 294.718987 213.005641 
L 295.605622 211.904524 
L 296.495221 204.911327 
L 297.387795 208.698661 
L 298.283352 207.722244 
L 299.181904 205.937288 
L 300.08346 204.610111 
L 300.98803 204.84906 
L 301.895624 203.691514 
L 302.806253 203.703627 
L 303.719926 203.443246 
L 304.636653 202.955176 
L 305.556446 203.192284 
L 306.479313 199.543894 
L 307.405266 158.066028 
L 308.334315 134.147184 
L 309.26647 106.028082 
L 310.201741 44.64 
L 311.140139 131.433016 
L 313.026357 113.649415 
L 313.974199 122.167875 
L 314.925209 143.063968 
L 315.879399 138.333767 
L 316.836779 152.463419 
L 317.79736 179.867244 
L 318.761152 192.803481 
L 319.728166 193.042416 
L 320.698414 205.587881 
L 321.671905 206.914938 
L 322.648651 204.083394 
L 323.628662 202.844974 
L 324.61195 192.233885 
L 325.598525 159.33398 
L 326.588399 195.566151 
L 327.581582 193.488619 
L 328.578085 185.171806 
L 329.57792 197.381607 
L 330.581098 179.476535 
L 331.58763 189.15357 
L 332.597526 215.204881 
L 333.610799 199.565077 
L 334.62746 215.657195 
L 335.64752 220.940779 
L 336.67099 223.16351 
L 337.697882 221.389211 
L 338.728207 225.77521 
L 339.761976 204.165112 
L 340.799202 179.664013 
L 341.839895 178.98189 
L 342.884068 213.729135 
L 343.931732 144.4694 
L 344.982898 161.477391 
L 346.037579 190.739182 
L 347.095785 169.022961 
L 348.15753 120.011328 
L 349.222824 192.444928 
L 350.29168 187.510192 
L 351.364109 206.541992 
L 352.440124 180.82022 
L 353.519736 222.980699 
L 354.602958 210.445093 
L 355.689801 232.219474 
L 356.780278 234.823402 
L 357.8744 233.832883 
L 358.97218 240.470951 
L 360.073631 219.621169 
L 361.178764 235.884166 
L 362.287592 201.715193 
L 363.400126 228.130465 
L 364.516381 223.469829 
L 365.636367 211.368451 
L 366.760098 214.022092 
L 367.887585 222.61209 
L 369.018842 238.919031 
L 370.153881 190.551458 
L 371.292715 230.899096 
L 372.435357 220.657268 
L 373.581818 189.862024 
L 373.581818 189.862024 
" clip-path="url(#p3d315024d7)" style="fill: none; stroke: #264653; stroke-width: 2; stroke-linecap: square"/>
   </g>
   <g id="patch_3">
    <path d="M 54 256.32 
L 54 34.56 
" style="fill: none; stroke: #000000; stroke-width: 0.8; stroke-linejoin: miter; stroke-linecap: square"/>
   </g>
   <g id="patch_4">
    <path d="M 54 256.32 
L 388.8 256.32 
" style="fill: none; stroke: #000000; stroke-width: 0.8; stroke-linejoin: miter; stroke-linecap: square"/>
   </g>
  </g>
 </g>
 <defs>
  <clipPath id="p3d315024d7">
   <rect x="54" y="34.56" width="334.8" height="221.76"/>
  </clipPath>
 </defs>
</svg>
