<?xml version="1.0" encoding="utf-8" standalone="no"?>
<!DOCTYPE svg PUBLIC "-//W3C//DTD SVG 1.1//EN"
  "http://www.w3.org/Graphics/SVG/1.1/DTD/svg11.dtd">
<svg xmlns:xlink="http://www.w3.org/1999/xlink" width="504pt" height="648pt" viewBox="0 0 504 648" xmlns="http://www.w3.org/2000/svg" version="1.1">
 <metadata>
  <rdf:RDF xmlns:dc="http://purl.org/dc/elements/1.1/" xmlns:cc="http://creativecommons.org/ns#" xmlns:rdf="http://www.w3.org/1999/02/22-rdf-syntax-ns#">
   <cc:Work>
    <dc:type rdf:resource="http://purl.org/dc/dcmitype/StillImage"/>
    <dc:date>2025-10-19T17:09:38.046169</dc:date>
    <dc:format>image/svg+xml</dc:format>
    <dc:creator>
     <cc:Agent>
      <dc:title>Matplotlib v3.9.2, https://matplotlib.org/</dc:title>
     </cc:Agent>
    </dc:creator>
   </cc:Work>
  </rdf:RDF>
 </metadata>
 <defs>
  <style type="text/css">*{stroke-linejoin: round; stroke-linecap: butt}</style>
 </defs>
 <g id="figure_1">
  <g id="patch_1">
   <path d="M 0 648 
L 504 648 
L 504 0 
L 0 0 
z
" style="fill: #ffffff"/>
  </g>
  <g id="axes_1">
   <g id="patch_2">
    <path d="M 63.051403 573.473363 
L 493.2 573.473363 
L 493.2 76.68 
L 63.051403 76.68 
z
" style="fill: #ffffff"/>
   </g>
   <g id="line2d_1">
    <path d="M 63.051403 419.692152 
L 493.2 419.692152 
" clip-path="url(#p2def6b1fae)" style="fill: none; stroke-dasharray: 1.5,2.475; stroke-dashoffset: 0; stroke: #000000; stroke-opacity: 0.8; stroke-width: 1.5"/>
   </g>
   <g id="PolyCollection_1">
    <defs>
     <path id="m392bfd6aac" d="M 82.603612 -379.694292 
L 82.603612 -228.320257 
L 192.420436 -228.296936 
L 269.708173 -228.326879 
L 374.262751 -228.278747 
L 473.647791 -228.370148 
L 473.647791 -548.738483 
L 473.647791 -548.738483 
L 374.262751 -505.480447 
L 269.708173 -460.066975 
L 192.420436 -426.641388 
L 82.603612 -379.694292 
z
" style="stroke: #f4a261; stroke-opacity: 0.2"/>
    </defs>
    <g clip-path="url(#p2def6b1fae)">
     <use xlink:href="#m392bfd6aac" x="0" y="648" style="fill: #f4a261; fill-opacity: 0.2; stroke: #f4a261; stroke-opacity: 0.2"/>
    </g>
   </g>
   <g id="PolyCollection_2">
    <defs>
     <path id="m7d699bab91" d="M 82.603612 -127.049163 
L 82.603612 -97.108153 
L 192.420436 -100.180147 
L 269.708173 -109.016885 
L 374.262751 -133.052381 
L 473.647791 -161.018141 
L 473.647791 -184.194342 
L 473.647791 -184.194342 
L 374.262751 -151.422265 
L 269.708173 -129.241624 
L 192.420436 -123.178382 
L 82.603612 -127.049163 
z
" style="stroke: #2a9d8f; stroke-opacity: 0.2"/>
    </defs>
    <g clip-path="url(#p2def6b1fae)">
     <use xlink:href="#m7d699bab91" x="0" y="648" style="fill: #2a9d8f; fill-opacity: 0.2; stroke: #2a9d8f; stroke-opacity: 0.2"/>
    </g>
   </g>
   <g id="PolyCollection_3">
    <defs>
     <path id="m8f49ced01e" d="M 82.603612 -329.997921 
L 82.603612 -250.052742 
L 192.420436 -204.376266 
L 269.708173 -189.81399 
L 374.262751 -172.849164 
L 473.647791 -162.420465 
L 473.647791 -189.403939 
L 473.647791 -189.403939 
L 374.262751 -201.934377 
L 269.708173 -236.156785 
L 192.420436 -265.264286 
L 82.603612 -329.997921 
z
" style="stroke: #264653; stroke-opacity: 0.2"/>
    </defs>
    <g clip-path="url(#p2def6b1fae)">
     <use xlink:href="#m8f49ced01e" x="0" y="648" style="fill: #264653; fill-opacity: 0.2; stroke: #264653; stroke-opacity: 0.2"/>
    </g>
   </g>
   <g id="matplotlib.axis_1">
    <g id="xtick_1">
     <g id="line2d_2">
      <path d="M 82.603612 573.473363 
L 82.603612 76.68 
" clip-path="url(#p2def6b1fae)" style="fill: none; stroke-dasharray: 2.59,1.12; stroke-dashoffset: 0; stroke: #b0b0b0; stroke-width: 0.7"/>
     </g>
     <g id="line2d_3">
      <defs>
       <path id="me9af47ac52" d="M 0 0 
L 0 3.5 
" style="stroke: #000000; stroke-width: 0.8"/>
      </defs>
      <g>
       <use xlink:href="#me9af47ac52" x="82.603612" y="573.473363" style="stroke: #000000; stroke-width: 0.8"/>
      </g>
     </g>
     <g id="text_1">
      <!-- 2 -->
      <g transform="translate(76.5194 590.511186) rotate(-45) scale(0.12 -0.12)">
       <defs>
        <path id="STIXGeneral-Regular-32" d="M 3034 877 
L 2688 0 
L 186 0 
L 186 77 
L 1325 1286 
Q 1773 1754 1965 2144 
Q 2157 2534 2157 2950 
Q 2157 3379 1920 3616 
Q 1683 3853 1267 3853 
Q 922 3853 720 3673 
Q 518 3494 326 3021 
L 192 3053 
Q 301 3648 630 3987 
Q 960 4326 1523 4326 
Q 2054 4326 2380 4006 
Q 2707 3686 2707 3200 
Q 2707 2477 1888 1613 
L 832 486 
L 2330 486 
Q 2541 486 2665 569 
Q 2790 653 2944 915 
L 3034 877 
z
" transform="scale(0.015625)"/>
       </defs>
       <use xlink:href="#STIXGeneral-Regular-32"/>
      </g>
     </g>
    </g>
    <g id="xtick_2">
     <g id="line2d_4">
      <path d="M 192.420436 573.473363 
L 192.420436 76.68 
" clip-path="url(#p2def6b1fae)" style="fill: none; stroke-dasharray: 2.59,1.12; stroke-dashoffset: 0; stroke: #b0b0b0; stroke-width: 0.7"/>
     </g>
     <g id="line2d_5">
      <g>
       <use xlink:href="#me9af47ac52" x="192.420436" y="573.473363" style="stroke: #000000; stroke-width: 0.8"/>
      </g>
     </g>
     <g id="text_2">
      <!-- 6 -->
      <g transform="translate(186.336224 590.511186) rotate(-45) scale(0.12 -0.12)">
       <defs>
        <path id="STIXGeneral-Regular-36" d="M 2854 4378 
L 2867 4275 
Q 2112 4154 1606 3664 
Q 1101 3174 973 2451 
Q 1344 2739 1786 2739 
Q 2349 2739 2672 2380 
Q 2995 2022 2995 1402 
Q 2995 774 2669 378 
Q 2291 -90 1651 -90 
Q 870 -90 518 557 
Q 218 1107 218 1786 
Q 218 2835 915 3552 
Q 1312 3962 1731 4131 
Q 2150 4301 2854 4378 
z
M 2419 1203 
Q 2419 2445 1555 2445 
Q 1235 2445 1024 2275 
Q 813 2106 813 1702 
Q 813 954 1046 522 
Q 1280 90 1722 90 
Q 2061 90 2240 394 
Q 2419 698 2419 1203 
z
" transform="scale(0.015625)"/>
       </defs>
       <use xlink:href="#STIXGeneral-Regular-36"/>
      </g>
     </g>
    </g>
    <g id="xtick_3">
     <g id="line2d_6">
      <path d="M 269.708173 573.473363 
L 269.708173 76.68 
" clip-path="url(#p2def6b1fae)" style="fill: none; stroke-dasharray: 2.59,1.12; stroke-dashoffset: 0; stroke: #b0b0b0; stroke-width: 0.7"/>
     </g>
     <g id="line2d_7">
      <g>
       <use xlink:href="#me9af47ac52" x="269.708173" y="573.473363" style="stroke: #000000; stroke-width: 0.8"/>
      </g>
     </g>
     <g id="text_3">
      <!-- 13 -->
      <g transform="translate(259.38132 594.753827) rotate(-45) scale(0.12 -0.12)">
       <defs>
        <path id="STIXGeneral-Regular-31" d="M 2522 0 
L 755 0 
L 755 96 
Q 1107 115 1235 227 
Q 1363 339 1363 608 
L 1363 3482 
Q 1363 3795 1171 3795 
Q 1082 3795 883 3718 
L 710 3654 
L 710 3744 
L 1856 4326 
L 1914 4307 
L 1914 486 
Q 1914 275 2042 185 
Q 2170 96 2522 96 
L 2522 0 
z
" transform="scale(0.015625)"/>
        <path id="STIXGeneral-Regular-33" d="M 390 3264 
L 288 3290 
Q 435 3770 748 4048 
Q 1062 4326 1542 4326 
Q 1990 4326 2265 4083 
Q 2541 3840 2541 3450 
Q 2541 2925 1946 2566 
Q 2298 2413 2477 2227 
Q 2758 1914 2758 1402 
Q 2758 890 2464 506 
Q 2246 211 1840 60 
Q 1434 -90 979 -90 
Q 262 -90 262 275 
Q 262 378 339 442 
Q 416 506 525 506 
Q 685 506 915 339 
Q 1197 141 1466 141 
Q 1818 141 2058 425 
Q 2298 710 2298 1120 
Q 2298 1856 1632 2048 
Q 1434 2112 979 2112 
L 979 2202 
Q 1338 2323 1517 2432 
Q 2035 2726 2035 3290 
Q 2035 3610 1852 3776 
Q 1670 3942 1344 3942 
Q 768 3942 390 3264 
z
" transform="scale(0.015625)"/>
       </defs>
       <use xlink:href="#STIXGeneral-Regular-31"/>
       <use xlink:href="#STIXGeneral-Regular-33" x="49.999985"/>
      </g>
     </g>
    </g>
    <g id="xtick_4">
     <g id="line2d_8">
      <path d="M 374.262751 573.473363 
L 374.262751 76.68 
" clip-path="url(#p2def6b1fae)" style="fill: none; stroke-dasharray: 2.59,1.12; stroke-dashoffset: 0; stroke: #b0b0b0; stroke-width: 0.7"/>
     </g>
     <g id="line2d_9">
      <g>
       <use xlink:href="#me9af47ac52" x="374.262751" y="573.473363" style="stroke: #000000; stroke-width: 0.8"/>
      </g>
     </g>
     <g id="text_4">
      <!-- 37 -->
      <g transform="translate(363.935898 594.753827) rotate(-45) scale(0.12 -0.12)">
       <defs>
        <path id="STIXGeneral-Regular-37" d="M 2874 4134 
L 1517 -51 
L 1101 -51 
L 2368 3763 
L 992 3763 
Q 717 3763 582 3667 
Q 448 3571 243 3238 
L 128 3296 
L 512 4237 
L 2874 4237 
L 2874 4134 
z
" transform="scale(0.015625)"/>
       </defs>
       <use xlink:href="#STIXGeneral-Regular-33"/>
       <use xlink:href="#STIXGeneral-Regular-37" x="49.999985"/>
      </g>
     </g>
    </g>
    <g id="xtick_5">
     <g id="line2d_10">
      <path d="M 473.647791 573.473363 
L 473.647791 76.68 
" clip-path="url(#p2def6b1fae)" style="fill: none; stroke-dasharray: 2.59,1.12; stroke-dashoffset: 0; stroke: #b0b0b0; stroke-width: 0.7"/>
     </g>
     <g id="line2d_11">
      <g>
       <use xlink:href="#me9af47ac52" x="473.647791" y="573.473363" style="stroke: #000000; stroke-width: 0.8"/>
      </g>
     </g>
     <g id="text_5">
      <!-- 100 -->
      <g transform="translate(459.078298 598.996467) rotate(-45) scale(0.12 -0.12)">
       <defs>
        <path id="STIXGeneral-Regular-30" d="M 3046 2112 
Q 3046 1683 2963 1302 
Q 2880 922 2717 602 
Q 2554 282 2266 96 
Q 1978 -90 1600 -90 
Q 1210 -90 915 108 
Q 621 307 461 640 
Q 301 973 227 1350 
Q 154 1728 154 2150 
Q 154 2746 301 3222 
Q 448 3699 790 4012 
Q 1133 4326 1626 4326 
Q 2253 4326 2649 3712 
Q 3046 3098 3046 2112 
z
M 2432 2080 
Q 2432 3091 2217 3625 
Q 2003 4160 1587 4160 
Q 1190 4160 979 3622 
Q 768 3085 768 2106 
Q 768 1120 979 598 
Q 1190 77 1600 77 
Q 2003 77 2217 598 
Q 2432 1120 2432 2080 
z
" transform="scale(0.015625)"/>
       </defs>
       <use xlink:href="#STIXGeneral-Regular-31"/>
       <use xlink:href="#STIXGeneral-Regular-30" x="49.999985"/>
       <use xlink:href="#STIXGeneral-Regular-30" x="99.999969"/>
      </g>
     </g>
    </g>
    <g id="xtick_6">
     <g id="line2d_12">
      <path d="M 123.133734 573.473363 
L 123.133734 76.68 
" clip-path="url(#p2def6b1fae)" style="fill: none; stroke-dasharray: 2.59,1.12; stroke-dashoffset: 0; stroke: #b0b0b0; stroke-width: 0.7"/>
     </g>
     <g id="line2d_13">
      <defs>
       <path id="mcfa1738b99" d="M 0 0 
L 0 2 
" style="stroke: #000000; stroke-width: 0.6"/>
      </defs>
      <g>
       <use xlink:href="#mcfa1738b99" x="123.133734" y="573.473363" style="stroke: #000000; stroke-width: 0.6"/>
      </g>
     </g>
    </g>
    <g id="xtick_7">
     <g id="line2d_14">
      <path d="M 151.890314 573.473363 
L 151.890314 76.68 
" clip-path="url(#p2def6b1fae)" style="fill: none; stroke-dasharray: 2.59,1.12; stroke-dashoffset: 0; stroke: #b0b0b0; stroke-width: 0.7"/>
     </g>
     <g id="line2d_15">
      <g>
       <use xlink:href="#mcfa1738b99" x="151.890314" y="573.473363" style="stroke: #000000; stroke-width: 0.6"/>
      </g>
     </g>
    </g>
    <g id="xtick_8">
     <g id="line2d_16">
      <path d="M 174.195649 573.473363 
L 174.195649 76.68 
" clip-path="url(#p2def6b1fae)" style="fill: none; stroke-dasharray: 2.59,1.12; stroke-dashoffset: 0; stroke: #b0b0b0; stroke-width: 0.7"/>
     </g>
     <g id="line2d_17">
      <g>
       <use xlink:href="#mcfa1738b99" x="174.195649" y="573.473363" style="stroke: #000000; stroke-width: 0.6"/>
      </g>
     </g>
    </g>
    <g id="xtick_9">
     <g id="line2d_18">
      <path d="M 207.829273 573.473363 
L 207.829273 76.68 
" clip-path="url(#p2def6b1fae)" style="fill: none; stroke-dasharray: 2.59,1.12; stroke-dashoffset: 0; stroke: #b0b0b0; stroke-width: 0.7"/>
     </g>
     <g id="line2d_19">
      <g>
       <use xlink:href="#mcfa1738b99" x="207.829273" y="573.473363" style="stroke: #000000; stroke-width: 0.6"/>
      </g>
     </g>
    </g>
    <g id="xtick_10">
     <g id="line2d_20">
      <path d="M 221.177015 573.473363 
L 221.177015 76.68 
" clip-path="url(#p2def6b1fae)" style="fill: none; stroke-dasharray: 2.59,1.12; stroke-dashoffset: 0; stroke: #b0b0b0; stroke-width: 0.7"/>
     </g>
     <g id="line2d_21">
      <g>
       <use xlink:href="#mcfa1738b99" x="221.177015" y="573.473363" style="stroke: #000000; stroke-width: 0.6"/>
      </g>
     </g>
    </g>
    <g id="xtick_11">
     <g id="line2d_22">
      <path d="M 232.950558 573.473363 
L 232.950558 76.68 
" clip-path="url(#p2def6b1fae)" style="fill: none; stroke-dasharray: 2.59,1.12; stroke-dashoffset: 0; stroke: #b0b0b0; stroke-width: 0.7"/>
     </g>
     <g id="line2d_23">
      <g>
       <use xlink:href="#mcfa1738b99" x="232.950558" y="573.473363" style="stroke: #000000; stroke-width: 0.6"/>
      </g>
     </g>
    </g>
    <g id="xtick_12">
     <g id="line2d_24">
      <path d="M 312.769052 573.473363 
L 312.769052 76.68 
" clip-path="url(#p2def6b1fae)" style="fill: none; stroke-dasharray: 2.59,1.12; stroke-dashoffset: 0; stroke: #b0b0b0; stroke-width: 0.7"/>
     </g>
     <g id="line2d_25">
      <g>
       <use xlink:href="#mcfa1738b99" x="312.769052" y="573.473363" style="stroke: #000000; stroke-width: 0.6"/>
      </g>
     </g>
    </g>
    <g id="xtick_13">
     <g id="line2d_26">
      <path d="M 353.299174 573.473363 
L 353.299174 76.68 
" clip-path="url(#p2def6b1fae)" style="fill: none; stroke-dasharray: 2.59,1.12; stroke-dashoffset: 0; stroke: #b0b0b0; stroke-width: 0.7"/>
     </g>
     <g id="line2d_27">
      <g>
       <use xlink:href="#mcfa1738b99" x="353.299174" y="573.473363" style="stroke: #000000; stroke-width: 0.6"/>
      </g>
     </g>
    </g>
    <g id="xtick_14">
     <g id="line2d_28">
      <path d="M 382.055754 573.473363 
L 382.055754 76.68 
" clip-path="url(#p2def6b1fae)" style="fill: none; stroke-dasharray: 2.59,1.12; stroke-dashoffset: 0; stroke: #b0b0b0; stroke-width: 0.7"/>
     </g>
     <g id="line2d_29">
      <g>
       <use xlink:href="#mcfa1738b99" x="382.055754" y="573.473363" style="stroke: #000000; stroke-width: 0.6"/>
      </g>
     </g>
    </g>
    <g id="xtick_15">
     <g id="line2d_30">
      <path d="M 404.36109 573.473363 
L 404.36109 76.68 
" clip-path="url(#p2def6b1fae)" style="fill: none; stroke-dasharray: 2.59,1.12; stroke-dashoffset: 0; stroke: #b0b0b0; stroke-width: 0.7"/>
     </g>
     <g id="line2d_31">
      <g>
       <use xlink:href="#mcfa1738b99" x="404.36109" y="573.473363" style="stroke: #000000; stroke-width: 0.6"/>
      </g>
     </g>
    </g>
    <g id="xtick_16">
     <g id="line2d_32">
      <path d="M 422.585876 573.473363 
L 422.585876 76.68 
" clip-path="url(#p2def6b1fae)" style="fill: none; stroke-dasharray: 2.59,1.12; stroke-dashoffset: 0; stroke: #b0b0b0; stroke-width: 0.7"/>
     </g>
     <g id="line2d_33">
      <g>
       <use xlink:href="#mcfa1738b99" x="422.585876" y="573.473363" style="stroke: #000000; stroke-width: 0.6"/>
      </g>
     </g>
    </g>
    <g id="xtick_17">
     <g id="line2d_34">
      <path d="M 437.994713 573.473363 
L 437.994713 76.68 
" clip-path="url(#p2def6b1fae)" style="fill: none; stroke-dasharray: 2.59,1.12; stroke-dashoffset: 0; stroke: #b0b0b0; stroke-width: 0.7"/>
     </g>
     <g id="line2d_35">
      <g>
       <use xlink:href="#mcfa1738b99" x="437.994713" y="573.473363" style="stroke: #000000; stroke-width: 0.6"/>
      </g>
     </g>
    </g>
    <g id="xtick_18">
     <g id="line2d_36">
      <path d="M 451.342455 573.473363 
L 451.342455 76.68 
" clip-path="url(#p2def6b1fae)" style="fill: none; stroke-dasharray: 2.59,1.12; stroke-dashoffset: 0; stroke: #b0b0b0; stroke-width: 0.7"/>
     </g>
     <g id="line2d_37">
      <g>
       <use xlink:href="#mcfa1738b99" x="451.342455" y="573.473363" style="stroke: #000000; stroke-width: 0.6"/>
      </g>
     </g>
    </g>
    <g id="xtick_19">
     <g id="line2d_38">
      <path d="M 463.115998 573.473363 
L 463.115998 76.68 
" clip-path="url(#p2def6b1fae)" style="fill: none; stroke-dasharray: 2.59,1.12; stroke-dashoffset: 0; stroke: #b0b0b0; stroke-width: 0.7"/>
     </g>
     <g id="line2d_39">
      <g>
       <use xlink:href="#mcfa1738b99" x="463.115998" y="573.473363" style="stroke: #000000; stroke-width: 0.6"/>
      </g>
     </g>
    </g>
    <g id="text_6">
     <!-- Number of Transits -->
     <g transform="translate(223.301483 614.399601) scale(0.14 -0.14)">
      <defs>
       <path id="STIXGeneral-Regular-4e" d="M 4525 4237 
L 4525 4115 
Q 4198 4083 4102 4000 
Q 4000 3910 3958 3756 
Q 3917 3603 3917 3245 
L 3917 -70 
L 3802 -70 
L 979 3443 
L 979 960 
Q 979 474 1088 323 
Q 1197 173 1574 122 
L 1574 0 
L 77 0 
L 77 122 
Q 474 166 586 310 
Q 698 454 698 960 
L 698 3776 
Q 531 3981 416 4048 
Q 301 4115 77 4115 
L 77 4237 
L 1165 4237 
L 3635 1146 
L 3635 3322 
Q 3635 3808 3514 3949 
Q 3437 4032 3344 4061 
Q 3251 4090 3008 4115 
L 3008 4237 
L 4525 4237 
z
" transform="scale(0.015625)"/>
       <path id="STIXGeneral-Regular-75" d="M 3072 320 
L 3072 230 
Q 2573 96 2195 -58 
L 2163 -38 
L 2163 486 
L 2150 486 
Q 1747 -64 1235 -64 
Q 870 -64 662 160 
Q 454 384 454 755 
L 454 2362 
Q 454 2598 371 2688 
Q 288 2778 58 2790 
L 58 2880 
L 992 2880 
L 992 813 
Q 992 595 1123 451 
Q 1254 307 1446 307 
Q 1760 307 1984 506 
Q 2067 582 2099 649 
Q 2131 717 2131 877 
L 2131 2355 
Q 2131 2605 2041 2678 
Q 1952 2752 1658 2771 
L 1658 2880 
L 2669 2880 
L 2669 685 
Q 2669 461 2742 390 
Q 2816 320 3034 320 
L 3072 320 
z
" transform="scale(0.015625)"/>
       <path id="STIXGeneral-Regular-6d" d="M 4960 0 
L 3565 0 
L 3565 96 
Q 3834 122 3907 208 
Q 3981 294 3981 576 
L 3981 1894 
Q 3981 2278 3869 2444 
Q 3757 2611 3488 2611 
Q 3264 2611 3107 2521 
Q 2950 2432 2803 2221 
L 2803 608 
Q 2803 301 2896 201 
Q 2989 102 3264 96 
L 3264 0 
L 1830 0 
L 1830 96 
Q 2112 115 2189 188 
Q 2266 262 2266 550 
L 2266 1901 
Q 2266 2611 1850 2611 
Q 1670 2611 1468 2531 
Q 1267 2451 1171 2336 
Q 1088 2240 1088 2227 
L 1088 448 
Q 1088 243 1177 176 
Q 1267 109 1523 96 
L 1523 0 
L 102 0 
L 102 96 
Q 371 102 460 195 
Q 550 288 550 563 
L 550 2150 
Q 550 2387 499 2480 
Q 448 2573 326 2573 
Q 230 2573 122 2547 
L 122 2656 
Q 557 2778 1011 2944 
L 1062 2925 
L 1062 2451 
L 1075 2451 
Q 1363 2752 1584 2848 
Q 1805 2944 2054 2944 
Q 2560 2944 2733 2406 
Q 3232 2944 3776 2944 
Q 4518 2944 4518 1792 
L 4518 493 
Q 4518 282 4582 202 
Q 4646 122 4794 109 
L 4960 96 
L 4960 0 
z
" transform="scale(0.015625)"/>
       <path id="STIXGeneral-Regular-62" d="M 979 4358 
L 979 2406 
Q 1082 2650 1315 2797 
Q 1549 2944 1843 2944 
Q 2349 2944 2672 2541 
Q 2995 2138 2995 1536 
Q 2995 832 2566 384 
Q 2138 -64 1498 -64 
Q 1107 -64 774 67 
Q 442 198 442 358 
L 442 3622 
Q 442 3859 384 3926 
Q 326 3994 128 3994 
Q 83 3994 19 3981 
L 19 4090 
L 211 4147 
Q 864 4346 947 4371 
L 979 4358 
z
M 979 2035 
L 979 474 
Q 979 326 1161 233 
Q 1344 141 1600 141 
Q 1978 141 2195 416 
Q 2432 710 2432 1261 
Q 2432 1888 2182 2240 
Q 1971 2541 1613 2541 
Q 1357 2541 1168 2390 
Q 979 2240 979 2035 
z
" transform="scale(0.015625)"/>
       <path id="STIXGeneral-Regular-65" d="M 2611 1050 
L 2714 1005 
Q 2330 -64 1376 -64 
Q 813 -64 486 329 
Q 160 723 160 1389 
Q 160 2074 525 2509 
Q 890 2944 1485 2944 
Q 2061 2944 2374 2502 
Q 2560 2246 2592 1773 
L 621 1773 
Q 646 1370 700 1158 
Q 755 947 915 730 
Q 1184 378 1626 378 
Q 1939 378 2153 531 
Q 2368 685 2611 1050 
z
M 634 1978 
L 1939 1978 
Q 1882 2381 1750 2547 
Q 1619 2714 1312 2714 
Q 1043 2714 864 2525 
Q 685 2336 634 1978 
z
" transform="scale(0.015625)"/>
       <path id="STIXGeneral-Regular-72" d="M 1024 2931 
L 1024 2342 
Q 1267 2688 1430 2816 
Q 1594 2944 1792 2944 
Q 1958 2944 2051 2854 
Q 2144 2765 2144 2605 
Q 2144 2470 2077 2393 
Q 2010 2317 1894 2317 
Q 1773 2317 1638 2445 
Q 1536 2541 1472 2541 
Q 1338 2541 1181 2355 
Q 1024 2170 1024 2016 
L 1024 576 
Q 1024 301 1133 205 
Q 1242 109 1568 96 
L 1568 0 
L 32 0 
L 32 96 
Q 339 154 412 224 
Q 486 294 486 538 
L 486 2138 
Q 486 2349 438 2435 
Q 390 2522 269 2522 
Q 166 2522 45 2496 
L 45 2598 
Q 448 2726 992 2944 
L 1024 2931 
z
" transform="scale(0.015625)"/>
       <path id="STIXGeneral-Regular-20" transform="scale(0.015625)"/>
       <path id="STIXGeneral-Regular-6f" d="M 3008 1478 
Q 3008 806 2608 371 
Q 2208 -64 1568 -64 
Q 979 -64 582 368 
Q 186 800 186 1459 
Q 186 2125 582 2534 
Q 979 2944 1626 2944 
Q 2221 2944 2614 2537 
Q 3008 2131 3008 1478 
z
M 2432 1306 
Q 2432 2035 2112 2445 
Q 1856 2765 1504 2765 
Q 1171 2765 966 2493 
Q 762 2221 762 1747 
Q 762 928 1101 435 
Q 1318 115 1677 115 
Q 2029 115 2230 432 
Q 2432 749 2432 1306 
z
" transform="scale(0.015625)"/>
       <path id="STIXGeneral-Regular-66" d="M 134 2880 
L 659 2880 
Q 666 3264 710 3478 
Q 755 3693 883 3910 
Q 1152 4371 1786 4371 
Q 2074 4371 2262 4259 
Q 2451 4147 2451 3974 
Q 2451 3866 2374 3789 
Q 2298 3712 2182 3712 
Q 2029 3712 1894 3942 
Q 1741 4192 1555 4192 
Q 1197 4192 1197 3622 
L 1197 2880 
L 1978 2880 
L 1978 2675 
L 1197 2675 
L 1197 666 
Q 1197 307 1299 208 
Q 1402 109 1792 96 
L 1792 0 
L 128 0 
L 128 96 
Q 474 115 566 214 
Q 659 314 659 666 
L 659 2675 
L 134 2675 
L 134 2880 
z
" transform="scale(0.015625)"/>
       <path id="STIXGeneral-Regular-54" d="M 3795 3149 
L 3642 3149 
Q 3539 3674 3353 3821 
Q 3168 3968 2656 3968 
L 2278 3968 
L 2278 710 
Q 2278 346 2387 243 
Q 2496 141 2893 122 
L 2893 0 
L 1024 0 
L 1024 122 
Q 1427 147 1526 256 
Q 1626 365 1626 787 
L 1626 3968 
L 1242 3968 
Q 723 3968 540 3817 
Q 358 3667 262 3149 
L 109 3149 
L 154 4237 
L 3750 4237 
L 3795 3149 
z
" transform="scale(0.015625)"/>
       <path id="STIXGeneral-Regular-61" d="M 2829 422 
L 2829 243 
Q 2586 -64 2253 -64 
Q 1888 -64 1843 403 
L 1837 403 
Q 1427 -64 909 -64 
Q 608 -64 422 112 
Q 237 288 237 602 
Q 237 1050 685 1350 
Q 992 1555 1837 1869 
L 1837 2214 
Q 1837 2502 1699 2646 
Q 1562 2790 1338 2790 
Q 1146 2790 1018 2697 
Q 890 2605 890 2477 
Q 890 2419 909 2348 
Q 928 2278 928 2208 
Q 928 2112 841 2029 
Q 755 1946 634 1946 
Q 525 1946 441 2029 
Q 358 2112 358 2240 
Q 358 2547 685 2752 
Q 986 2944 1421 2944 
Q 1939 2944 2176 2656 
Q 2291 2522 2323 2384 
Q 2355 2246 2355 1946 
L 2355 723 
Q 2355 301 2554 301 
Q 2682 301 2829 422 
z
M 1837 813 
L 1837 1715 
Q 1248 1510 1018 1293 
Q 800 1094 800 800 
Q 800 557 921 432 
Q 1043 307 1242 307 
Q 1453 307 1613 410 
Q 1747 506 1792 589 
Q 1837 672 1837 813 
z
" transform="scale(0.015625)"/>
       <path id="STIXGeneral-Regular-6e" d="M 3104 0 
L 1773 0 
L 1779 96 
Q 2016 115 2096 233 
Q 2176 352 2176 672 
L 2176 1946 
Q 2176 2592 1709 2592 
Q 1549 2592 1408 2515 
Q 1267 2438 1050 2227 
L 1050 461 
Q 1050 269 1136 192 
Q 1222 115 1466 96 
L 1466 0 
L 115 0 
L 115 96 
Q 358 115 435 214 
Q 512 314 512 602 
L 512 2157 
Q 512 2394 467 2483 
Q 422 2573 288 2573 
Q 160 2573 102 2547 
L 102 2656 
Q 550 2784 979 2944 
L 1030 2925 
L 1030 2426 
L 1037 2426 
Q 1491 2944 1958 2944 
Q 2323 2944 2518 2688 
Q 2714 2432 2714 1958 
L 2714 544 
Q 2714 288 2790 205 
Q 2867 122 3104 96 
L 3104 0 
z
" transform="scale(0.015625)"/>
       <path id="STIXGeneral-Regular-73" d="M 998 1926 
L 1664 1523 
Q 1984 1331 2105 1164 
Q 2227 998 2227 736 
Q 2227 416 1961 176 
Q 1696 -64 1331 -64 
Q 1030 -64 864 -6 
Q 691 51 570 51 
Q 461 51 416 -26 
L 333 -26 
L 333 979 
L 435 979 
Q 538 512 730 294 
Q 922 77 1248 77 
Q 1485 77 1632 211 
Q 1779 346 1779 550 
Q 1779 845 1440 1030 
L 1094 1222 
Q 326 1651 326 2150 
Q 326 2522 566 2730 
Q 806 2938 1210 2938 
Q 1491 2938 1638 2867 
Q 1754 2816 1818 2816 
Q 1862 2816 1920 2880 
L 1990 2880 
L 2022 2010 
L 1926 2010 
Q 1818 2445 1654 2621 
Q 1491 2797 1203 2797 
Q 986 2797 854 2688 
Q 723 2579 723 2362 
Q 723 2253 796 2128 
Q 870 2003 998 1926 
z
" transform="scale(0.015625)"/>
       <path id="STIXGeneral-Regular-69" d="M 1152 4045 
Q 1152 3904 1056 3811 
Q 960 3718 819 3718 
Q 685 3718 592 3811 
Q 499 3904 499 4045 
Q 499 4179 595 4275 
Q 691 4371 826 4371 
Q 966 4371 1059 4275 
Q 1152 4179 1152 4045 
z
M 1619 0 
L 102 0 
L 102 96 
Q 435 115 521 211 
Q 608 307 608 666 
L 608 2118 
Q 608 2342 563 2432 
Q 518 2522 397 2522 
Q 243 2522 128 2490 
L 128 2592 
L 1120 2944 
L 1146 2918 
L 1146 672 
Q 1146 314 1226 218 
Q 1306 122 1619 96 
L 1619 0 
z
" transform="scale(0.015625)"/>
       <path id="STIXGeneral-Regular-74" d="M 1702 493 
L 1786 422 
Q 1478 -64 1011 -64 
Q 448 -64 448 749 
L 448 2675 
L 109 2675 
Q 83 2694 83 2720 
Q 83 2771 192 2842 
Q 435 2982 813 3526 
Q 826 3546 874 3606 
Q 922 3667 941 3706 
Q 986 3706 986 3622 
L 986 2880 
L 1632 2880 
L 1632 2675 
L 986 2675 
L 986 845 
Q 986 538 1062 403 
Q 1139 269 1318 269 
Q 1510 269 1702 493 
z
" transform="scale(0.015625)"/>
      </defs>
      <use xlink:href="#STIXGeneral-Regular-4e"/>
      <use xlink:href="#STIXGeneral-Regular-75" x="72.199982"/>
      <use xlink:href="#STIXGeneral-Regular-6d" x="122.199966"/>
      <use xlink:href="#STIXGeneral-Regular-62" x="199.999954"/>
      <use xlink:href="#STIXGeneral-Regular-65" x="249.999939"/>
      <use xlink:href="#STIXGeneral-Regular-72" x="294.399933"/>
      <use xlink:href="#STIXGeneral-Regular-20" x="327.699921"/>
      <use xlink:href="#STIXGeneral-Regular-6f" x="352.699905"/>
      <use xlink:href="#STIXGeneral-Regular-66" x="402.69989"/>
      <use xlink:href="#STIXGeneral-Regular-20" x="435.999878"/>
      <use xlink:href="#STIXGeneral-Regular-54" x="460.999863"/>
      <use xlink:href="#STIXGeneral-Regular-72" x="522.099854"/>
      <use xlink:href="#STIXGeneral-Regular-61" x="555.399841"/>
      <use xlink:href="#STIXGeneral-Regular-6e" x="599.799835"/>
      <use xlink:href="#STIXGeneral-Regular-73" x="649.79982"/>
      <use xlink:href="#STIXGeneral-Regular-69" x="688.699814"/>
      <use xlink:href="#STIXGeneral-Regular-74" x="716.499802"/>
      <use xlink:href="#STIXGeneral-Regular-73" x="744.299789"/>
     </g>
    </g>
   </g>
   <g id="matplotlib.axis_2">
    <g id="ytick_1">
     <g id="line2d_40">
      <path d="M 63.051403 519.96982 
L 493.2 519.96982 
" clip-path="url(#p2def6b1fae)" style="fill: none; stroke-dasharray: 2.59,1.12; stroke-dashoffset: 0; stroke: #b0b0b0; stroke-width: 0.7"/>
     </g>
     <g id="line2d_41">
      <defs>
       <path id="m14003a9e5d" d="M 0 0 
L -3.5 0 
" style="stroke: #000000; stroke-width: 0.8"/>
      </defs>
      <g>
       <use xlink:href="#m14003a9e5d" x="63.051403" y="519.96982" style="stroke: #000000; stroke-width: 0.8"/>
      </g>
     </g>
     <g id="text_7">
      <!-- $\mathdefault{10^{-1}}$ -->
      <g transform="translate(33.251403 524.067632) scale(0.12 -0.12)">
       <defs>
        <path id="STIXGeneral-Regular-2212" d="M 3974 1408 
L 410 1408 
L 410 1830 
L 3974 1830 
L 3974 1408 
z
" transform="scale(0.015625)"/>
       </defs>
       <use xlink:href="#STIXGeneral-Regular-31" transform="translate(0 0.684375)"/>
       <use xlink:href="#STIXGeneral-Regular-30" transform="translate(49.999985 0.684375)"/>
       <use xlink:href="#STIXGeneral-Regular-2212" transform="translate(101.574969 36.684375) scale(0.7)"/>
       <use xlink:href="#STIXGeneral-Regular-31" transform="translate(149.524959 36.684375) scale(0.7)"/>
      </g>
     </g>
    </g>
    <g id="ytick_2">
     <g id="line2d_42">
      <path d="M 63.051403 419.692152 
L 493.2 419.692152 
" clip-path="url(#p2def6b1fae)" style="fill: none; stroke-dasharray: 2.59,1.12; stroke-dashoffset: 0; stroke: #b0b0b0; stroke-width: 0.7"/>
     </g>
     <g id="line2d_43">
      <g>
       <use xlink:href="#m14003a9e5d" x="63.051403" y="419.692152" style="stroke: #000000; stroke-width: 0.8"/>
      </g>
     </g>
     <g id="text_8">
      <!-- $\mathdefault{10^{0}}$ -->
      <g transform="translate(39.011403 423.789964) scale(0.12 -0.12)">
       <use xlink:href="#STIXGeneral-Regular-31" transform="translate(0 0.684375)"/>
       <use xlink:href="#STIXGeneral-Regular-30" transform="translate(49.999985 0.684375)"/>
       <use xlink:href="#STIXGeneral-Regular-30" transform="translate(101.574969 36.684375) scale(0.7)"/>
      </g>
     </g>
    </g>
    <g id="ytick_3">
     <g id="line2d_44">
      <path d="M 63.051403 319.414484 
L 493.2 319.414484 
" clip-path="url(#p2def6b1fae)" style="fill: none; stroke-dasharray: 2.59,1.12; stroke-dashoffset: 0; stroke: #b0b0b0; stroke-width: 0.7"/>
     </g>
     <g id="line2d_45">
      <g>
       <use xlink:href="#m14003a9e5d" x="63.051403" y="319.414484" style="stroke: #000000; stroke-width: 0.8"/>
      </g>
     </g>
     <g id="text_9">
      <!-- $\mathdefault{10^{1}}$ -->
      <g transform="translate(39.011403 323.512296) scale(0.12 -0.12)">
       <use xlink:href="#STIXGeneral-Regular-31" transform="translate(0 0.684375)"/>
       <use xlink:href="#STIXGeneral-Regular-30" transform="translate(49.999985 0.684375)"/>
       <use xlink:href="#STIXGeneral-Regular-31" transform="translate(101.574969 36.684375) scale(0.7)"/>
      </g>
     </g>
    </g>
    <g id="ytick_4">
     <g id="line2d_46">
      <path d="M 63.051403 219.136815 
L 493.2 219.136815 
" clip-path="url(#p2def6b1fae)" style="fill: none; stroke-dasharray: 2.59,1.12; stroke-dashoffset: 0; stroke: #b0b0b0; stroke-width: 0.7"/>
     </g>
     <g id="line2d_47">
      <g>
       <use xlink:href="#m14003a9e5d" x="63.051403" y="219.136815" style="stroke: #000000; stroke-width: 0.8"/>
      </g>
     </g>
     <g id="text_10">
      <!-- $\mathdefault{10^{2}}$ -->
      <g transform="translate(39.011403 223.234628) scale(0.12 -0.12)">
       <use xlink:href="#STIXGeneral-Regular-31" transform="translate(0 0.684375)"/>
       <use xlink:href="#STIXGeneral-Regular-30" transform="translate(49.999985 0.684375)"/>
       <use xlink:href="#STIXGeneral-Regular-32" transform="translate(101.574969 36.684375) scale(0.7)"/>
      </g>
     </g>
    </g>
    <g id="ytick_5">
     <g id="line2d_48">
      <path d="M 63.051403 118.859147 
L 493.2 118.859147 
" clip-path="url(#p2def6b1fae)" style="fill: none; stroke-dasharray: 2.59,1.12; stroke-dashoffset: 0; stroke: #b0b0b0; stroke-width: 0.7"/>
     </g>
     <g id="line2d_49">
      <g>
       <use xlink:href="#m14003a9e5d" x="63.051403" y="118.859147" style="stroke: #000000; stroke-width: 0.8"/>
      </g>
     </g>
     <g id="text_11">
      <!-- $\mathdefault{10^{3}}$ -->
      <g transform="translate(39.011403 122.95696) scale(0.12 -0.12)">
       <use xlink:href="#STIXGeneral-Regular-31" transform="translate(0 0.684375)"/>
       <use xlink:href="#STIXGeneral-Regular-30" transform="translate(49.999985 0.684375)"/>
       <use xlink:href="#STIXGeneral-Regular-33" transform="translate(101.574969 36.684375) scale(0.7)"/>
      </g>
     </g>
    </g>
    <g id="ytick_6">
     <g id="line2d_50">
      <path d="M 63.051403 572.402881 
L 493.2 572.402881 
" clip-path="url(#p2def6b1fae)" style="fill: none; stroke-dasharray: 2.59,1.12; stroke-dashoffset: 0; stroke: #b0b0b0; stroke-width: 0.7"/>
     </g>
     <g id="line2d_51">
      <defs>
       <path id="m1d9829959b" d="M 0 0 
L -2 0 
" style="stroke: #000000; stroke-width: 0.6"/>
      </defs>
      <g>
       <use xlink:href="#m1d9829959b" x="63.051403" y="572.402881" style="stroke: #000000; stroke-width: 0.6"/>
      </g>
     </g>
    </g>
    <g id="ytick_7">
     <g id="line2d_52">
      <path d="M 63.051403 559.874316 
L 493.2 559.874316 
" clip-path="url(#p2def6b1fae)" style="fill: none; stroke-dasharray: 2.59,1.12; stroke-dashoffset: 0; stroke: #b0b0b0; stroke-width: 0.7"/>
     </g>
     <g id="line2d_53">
      <g>
       <use xlink:href="#m1d9829959b" x="63.051403" y="559.874316" style="stroke: #000000; stroke-width: 0.6"/>
      </g>
     </g>
    </g>
    <g id="ytick_8">
     <g id="line2d_54">
      <path d="M 63.051403 550.156406 
L 493.2 550.156406 
" clip-path="url(#p2def6b1fae)" style="fill: none; stroke-dasharray: 2.59,1.12; stroke-dashoffset: 0; stroke: #b0b0b0; stroke-width: 0.7"/>
     </g>
     <g id="line2d_55">
      <g>
       <use xlink:href="#m1d9829959b" x="63.051403" y="550.156406" style="stroke: #000000; stroke-width: 0.6"/>
      </g>
     </g>
    </g>
    <g id="ytick_9">
     <g id="line2d_56">
      <path d="M 63.051403 542.216295 
L 493.2 542.216295 
" clip-path="url(#p2def6b1fae)" style="fill: none; stroke-dasharray: 2.59,1.12; stroke-dashoffset: 0; stroke: #b0b0b0; stroke-width: 0.7"/>
     </g>
     <g id="line2d_57">
      <g>
       <use xlink:href="#m1d9829959b" x="63.051403" y="542.216295" style="stroke: #000000; stroke-width: 0.6"/>
      </g>
     </g>
    </g>
    <g id="ytick_10">
     <g id="line2d_58">
      <path d="M 63.051403 535.503027 
L 493.2 535.503027 
" clip-path="url(#p2def6b1fae)" style="fill: none; stroke-dasharray: 2.59,1.12; stroke-dashoffset: 0; stroke: #b0b0b0; stroke-width: 0.7"/>
     </g>
     <g id="line2d_59">
      <g>
       <use xlink:href="#m1d9829959b" x="63.051403" y="535.503027" style="stroke: #000000; stroke-width: 0.6"/>
      </g>
     </g>
    </g>
    <g id="ytick_11">
     <g id="line2d_60">
      <path d="M 63.051403 529.68773 
L 493.2 529.68773 
" clip-path="url(#p2def6b1fae)" style="fill: none; stroke-dasharray: 2.59,1.12; stroke-dashoffset: 0; stroke: #b0b0b0; stroke-width: 0.7"/>
     </g>
     <g id="line2d_61">
      <g>
       <use xlink:href="#m1d9829959b" x="63.051403" y="529.68773" style="stroke: #000000; stroke-width: 0.6"/>
      </g>
     </g>
    </g>
    <g id="ytick_12">
     <g id="line2d_62">
      <path d="M 63.051403 524.558274 
L 493.2 524.558274 
" clip-path="url(#p2def6b1fae)" style="fill: none; stroke-dasharray: 2.59,1.12; stroke-dashoffset: 0; stroke: #b0b0b0; stroke-width: 0.7"/>
     </g>
     <g id="line2d_63">
      <g>
       <use xlink:href="#m1d9829959b" x="63.051403" y="524.558274" style="stroke: #000000; stroke-width: 0.6"/>
      </g>
     </g>
    </g>
    <g id="ytick_13">
     <g id="line2d_64">
      <path d="M 63.051403 489.783234 
L 493.2 489.783234 
" clip-path="url(#p2def6b1fae)" style="fill: none; stroke-dasharray: 2.59,1.12; stroke-dashoffset: 0; stroke: #b0b0b0; stroke-width: 0.7"/>
     </g>
     <g id="line2d_65">
      <g>
       <use xlink:href="#m1d9829959b" x="63.051403" y="489.783234" style="stroke: #000000; stroke-width: 0.6"/>
      </g>
     </g>
    </g>
    <g id="ytick_14">
     <g id="line2d_66">
      <path d="M 63.051403 472.125213 
L 493.2 472.125213 
" clip-path="url(#p2def6b1fae)" style="fill: none; stroke-dasharray: 2.59,1.12; stroke-dashoffset: 0; stroke: #b0b0b0; stroke-width: 0.7"/>
     </g>
     <g id="line2d_67">
      <g>
       <use xlink:href="#m1d9829959b" x="63.051403" y="472.125213" style="stroke: #000000; stroke-width: 0.6"/>
      </g>
     </g>
    </g>
    <g id="ytick_15">
     <g id="line2d_68">
      <path d="M 63.051403 459.596648 
L 493.2 459.596648 
" clip-path="url(#p2def6b1fae)" style="fill: none; stroke-dasharray: 2.59,1.12; stroke-dashoffset: 0; stroke: #b0b0b0; stroke-width: 0.7"/>
     </g>
     <g id="line2d_69">
      <g>
       <use xlink:href="#m1d9829959b" x="63.051403" y="459.596648" style="stroke: #000000; stroke-width: 0.6"/>
      </g>
     </g>
    </g>
    <g id="ytick_16">
     <g id="line2d_70">
      <path d="M 63.051403 449.878738 
L 493.2 449.878738 
" clip-path="url(#p2def6b1fae)" style="fill: none; stroke-dasharray: 2.59,1.12; stroke-dashoffset: 0; stroke: #b0b0b0; stroke-width: 0.7"/>
     </g>
     <g id="line2d_71">
      <g>
       <use xlink:href="#m1d9829959b" x="63.051403" y="449.878738" style="stroke: #000000; stroke-width: 0.6"/>
      </g>
     </g>
    </g>
    <g id="ytick_17">
     <g id="line2d_72">
      <path d="M 63.051403 441.938627 
L 493.2 441.938627 
" clip-path="url(#p2def6b1fae)" style="fill: none; stroke-dasharray: 2.59,1.12; stroke-dashoffset: 0; stroke: #b0b0b0; stroke-width: 0.7"/>
     </g>
     <g id="line2d_73">
      <g>
       <use xlink:href="#m1d9829959b" x="63.051403" y="441.938627" style="stroke: #000000; stroke-width: 0.6"/>
      </g>
     </g>
    </g>
    <g id="ytick_18">
     <g id="line2d_74">
      <path d="M 63.051403 435.225359 
L 493.2 435.225359 
" clip-path="url(#p2def6b1fae)" style="fill: none; stroke-dasharray: 2.59,1.12; stroke-dashoffset: 0; stroke: #b0b0b0; stroke-width: 0.7"/>
     </g>
     <g id="line2d_75">
      <g>
       <use xlink:href="#m1d9829959b" x="63.051403" y="435.225359" style="stroke: #000000; stroke-width: 0.6"/>
      </g>
     </g>
    </g>
    <g id="ytick_19">
     <g id="line2d_76">
      <path d="M 63.051403 429.410062 
L 493.2 429.410062 
" clip-path="url(#p2def6b1fae)" style="fill: none; stroke-dasharray: 2.59,1.12; stroke-dashoffset: 0; stroke: #b0b0b0; stroke-width: 0.7"/>
     </g>
     <g id="line2d_77">
      <g>
       <use xlink:href="#m1d9829959b" x="63.051403" y="429.410062" style="stroke: #000000; stroke-width: 0.6"/>
      </g>
     </g>
    </g>
    <g id="ytick_20">
     <g id="line2d_78">
      <path d="M 63.051403 424.280606 
L 493.2 424.280606 
" clip-path="url(#p2def6b1fae)" style="fill: none; stroke-dasharray: 2.59,1.12; stroke-dashoffset: 0; stroke: #b0b0b0; stroke-width: 0.7"/>
     </g>
     <g id="line2d_79">
      <g>
       <use xlink:href="#m1d9829959b" x="63.051403" y="424.280606" style="stroke: #000000; stroke-width: 0.6"/>
      </g>
     </g>
    </g>
    <g id="ytick_21">
     <g id="line2d_80">
      <path d="M 63.051403 389.505566 
L 493.2 389.505566 
" clip-path="url(#p2def6b1fae)" style="fill: none; stroke-dasharray: 2.59,1.12; stroke-dashoffset: 0; stroke: #b0b0b0; stroke-width: 0.7"/>
     </g>
     <g id="line2d_81">
      <g>
       <use xlink:href="#m1d9829959b" x="63.051403" y="389.505566" style="stroke: #000000; stroke-width: 0.6"/>
      </g>
     </g>
    </g>
    <g id="ytick_22">
     <g id="line2d_82">
      <path d="M 63.051403 371.847545 
L 493.2 371.847545 
" clip-path="url(#p2def6b1fae)" style="fill: none; stroke-dasharray: 2.59,1.12; stroke-dashoffset: 0; stroke: #b0b0b0; stroke-width: 0.7"/>
     </g>
     <g id="line2d_83">
      <g>
       <use xlink:href="#m1d9829959b" x="63.051403" y="371.847545" style="stroke: #000000; stroke-width: 0.6"/>
      </g>
     </g>
    </g>
    <g id="ytick_23">
     <g id="line2d_84">
      <path d="M 63.051403 359.31898 
L 493.2 359.31898 
" clip-path="url(#p2def6b1fae)" style="fill: none; stroke-dasharray: 2.59,1.12; stroke-dashoffset: 0; stroke: #b0b0b0; stroke-width: 0.7"/>
     </g>
     <g id="line2d_85">
      <g>
       <use xlink:href="#m1d9829959b" x="63.051403" y="359.31898" style="stroke: #000000; stroke-width: 0.6"/>
      </g>
     </g>
    </g>
    <g id="ytick_24">
     <g id="line2d_86">
      <path d="M 63.051403 349.60107 
L 493.2 349.60107 
" clip-path="url(#p2def6b1fae)" style="fill: none; stroke-dasharray: 2.59,1.12; stroke-dashoffset: 0; stroke: #b0b0b0; stroke-width: 0.7"/>
     </g>
     <g id="line2d_87">
      <g>
       <use xlink:href="#m1d9829959b" x="63.051403" y="349.60107" style="stroke: #000000; stroke-width: 0.6"/>
      </g>
     </g>
    </g>
    <g id="ytick_25">
     <g id="line2d_88">
      <path d="M 63.051403 341.660959 
L 493.2 341.660959 
" clip-path="url(#p2def6b1fae)" style="fill: none; stroke-dasharray: 2.59,1.12; stroke-dashoffset: 0; stroke: #b0b0b0; stroke-width: 0.7"/>
     </g>
     <g id="line2d_89">
      <g>
       <use xlink:href="#m1d9829959b" x="63.051403" y="341.660959" style="stroke: #000000; stroke-width: 0.6"/>
      </g>
     </g>
    </g>
    <g id="ytick_26">
     <g id="line2d_90">
      <path d="M 63.051403 334.947691 
L 493.2 334.947691 
" clip-path="url(#p2def6b1fae)" style="fill: none; stroke-dasharray: 2.59,1.12; stroke-dashoffset: 0; stroke: #b0b0b0; stroke-width: 0.7"/>
     </g>
     <g id="line2d_91">
      <g>
       <use xlink:href="#m1d9829959b" x="63.051403" y="334.947691" style="stroke: #000000; stroke-width: 0.6"/>
      </g>
     </g>
    </g>
    <g id="ytick_27">
     <g id="line2d_92">
      <path d="M 63.051403 329.132394 
L 493.2 329.132394 
" clip-path="url(#p2def6b1fae)" style="fill: none; stroke-dasharray: 2.59,1.12; stroke-dashoffset: 0; stroke: #b0b0b0; stroke-width: 0.7"/>
     </g>
     <g id="line2d_93">
      <g>
       <use xlink:href="#m1d9829959b" x="63.051403" y="329.132394" style="stroke: #000000; stroke-width: 0.6"/>
      </g>
     </g>
    </g>
    <g id="ytick_28">
     <g id="line2d_94">
      <path d="M 63.051403 324.002938 
L 493.2 324.002938 
" clip-path="url(#p2def6b1fae)" style="fill: none; stroke-dasharray: 2.59,1.12; stroke-dashoffset: 0; stroke: #b0b0b0; stroke-width: 0.7"/>
     </g>
     <g id="line2d_95">
      <g>
       <use xlink:href="#m1d9829959b" x="63.051403" y="324.002938" style="stroke: #000000; stroke-width: 0.6"/>
      </g>
     </g>
    </g>
    <g id="ytick_29">
     <g id="line2d_96">
      <path d="M 63.051403 289.227898 
L 493.2 289.227898 
" clip-path="url(#p2def6b1fae)" style="fill: none; stroke-dasharray: 2.59,1.12; stroke-dashoffset: 0; stroke: #b0b0b0; stroke-width: 0.7"/>
     </g>
     <g id="line2d_97">
      <g>
       <use xlink:href="#m1d9829959b" x="63.051403" y="289.227898" style="stroke: #000000; stroke-width: 0.6"/>
      </g>
     </g>
    </g>
    <g id="ytick_30">
     <g id="line2d_98">
      <path d="M 63.051403 271.569877 
L 493.2 271.569877 
" clip-path="url(#p2def6b1fae)" style="fill: none; stroke-dasharray: 2.59,1.12; stroke-dashoffset: 0; stroke: #b0b0b0; stroke-width: 0.7"/>
     </g>
     <g id="line2d_99">
      <g>
       <use xlink:href="#m1d9829959b" x="63.051403" y="271.569877" style="stroke: #000000; stroke-width: 0.6"/>
      </g>
     </g>
    </g>
    <g id="ytick_31">
     <g id="line2d_100">
      <path d="M 63.051403 259.041312 
L 493.2 259.041312 
" clip-path="url(#p2def6b1fae)" style="fill: none; stroke-dasharray: 2.59,1.12; stroke-dashoffset: 0; stroke: #b0b0b0; stroke-width: 0.7"/>
     </g>
     <g id="line2d_101">
      <g>
       <use xlink:href="#m1d9829959b" x="63.051403" y="259.041312" style="stroke: #000000; stroke-width: 0.6"/>
      </g>
     </g>
    </g>
    <g id="ytick_32">
     <g id="line2d_102">
      <path d="M 63.051403 249.323401 
L 493.2 249.323401 
" clip-path="url(#p2def6b1fae)" style="fill: none; stroke-dasharray: 2.59,1.12; stroke-dashoffset: 0; stroke: #b0b0b0; stroke-width: 0.7"/>
     </g>
     <g id="line2d_103">
      <g>
       <use xlink:href="#m1d9829959b" x="63.051403" y="249.323401" style="stroke: #000000; stroke-width: 0.6"/>
      </g>
     </g>
    </g>
    <g id="ytick_33">
     <g id="line2d_104">
      <path d="M 63.051403 241.383291 
L 493.2 241.383291 
" clip-path="url(#p2def6b1fae)" style="fill: none; stroke-dasharray: 2.59,1.12; stroke-dashoffset: 0; stroke: #b0b0b0; stroke-width: 0.7"/>
     </g>
     <g id="line2d_105">
      <g>
       <use xlink:href="#m1d9829959b" x="63.051403" y="241.383291" style="stroke: #000000; stroke-width: 0.6"/>
      </g>
     </g>
    </g>
    <g id="ytick_34">
     <g id="line2d_106">
      <path d="M 63.051403 234.670023 
L 493.2 234.670023 
" clip-path="url(#p2def6b1fae)" style="fill: none; stroke-dasharray: 2.59,1.12; stroke-dashoffset: 0; stroke: #b0b0b0; stroke-width: 0.7"/>
     </g>
     <g id="line2d_107">
      <g>
       <use xlink:href="#m1d9829959b" x="63.051403" y="234.670023" style="stroke: #000000; stroke-width: 0.6"/>
      </g>
     </g>
    </g>
    <g id="ytick_35">
     <g id="line2d_108">
      <path d="M 63.051403 228.854726 
L 493.2 228.854726 
" clip-path="url(#p2def6b1fae)" style="fill: none; stroke-dasharray: 2.59,1.12; stroke-dashoffset: 0; stroke: #b0b0b0; stroke-width: 0.7"/>
     </g>
     <g id="line2d_109">
      <g>
       <use xlink:href="#m1d9829959b" x="63.051403" y="228.854726" style="stroke: #000000; stroke-width: 0.6"/>
      </g>
     </g>
    </g>
    <g id="ytick_36">
     <g id="line2d_110">
      <path d="M 63.051403 223.72527 
L 493.2 223.72527 
" clip-path="url(#p2def6b1fae)" style="fill: none; stroke-dasharray: 2.59,1.12; stroke-dashoffset: 0; stroke: #b0b0b0; stroke-width: 0.7"/>
     </g>
     <g id="line2d_111">
      <g>
       <use xlink:href="#m1d9829959b" x="63.051403" y="223.72527" style="stroke: #000000; stroke-width: 0.6"/>
      </g>
     </g>
    </g>
    <g id="ytick_37">
     <g id="line2d_112">
      <path d="M 63.051403 188.950229 
L 493.2 188.950229 
" clip-path="url(#p2def6b1fae)" style="fill: none; stroke-dasharray: 2.59,1.12; stroke-dashoffset: 0; stroke: #b0b0b0; stroke-width: 0.7"/>
     </g>
     <g id="line2d_113">
      <g>
       <use xlink:href="#m1d9829959b" x="63.051403" y="188.950229" style="stroke: #000000; stroke-width: 0.6"/>
      </g>
     </g>
    </g>
    <g id="ytick_38">
     <g id="line2d_114">
      <path d="M 63.051403 171.292209 
L 493.2 171.292209 
" clip-path="url(#p2def6b1fae)" style="fill: none; stroke-dasharray: 2.59,1.12; stroke-dashoffset: 0; stroke: #b0b0b0; stroke-width: 0.7"/>
     </g>
     <g id="line2d_115">
      <g>
       <use xlink:href="#m1d9829959b" x="63.051403" y="171.292209" style="stroke: #000000; stroke-width: 0.6"/>
      </g>
     </g>
    </g>
    <g id="ytick_39">
     <g id="line2d_116">
      <path d="M 63.051403 158.763643 
L 493.2 158.763643 
" clip-path="url(#p2def6b1fae)" style="fill: none; stroke-dasharray: 2.59,1.12; stroke-dashoffset: 0; stroke: #b0b0b0; stroke-width: 0.7"/>
     </g>
     <g id="line2d_117">
      <g>
       <use xlink:href="#m1d9829959b" x="63.051403" y="158.763643" style="stroke: #000000; stroke-width: 0.6"/>
      </g>
     </g>
    </g>
    <g id="ytick_40">
     <g id="line2d_118">
      <path d="M 63.051403 149.045733 
L 493.2 149.045733 
" clip-path="url(#p2def6b1fae)" style="fill: none; stroke-dasharray: 2.59,1.12; stroke-dashoffset: 0; stroke: #b0b0b0; stroke-width: 0.7"/>
     </g>
     <g id="line2d_119">
      <g>
       <use xlink:href="#m1d9829959b" x="63.051403" y="149.045733" style="stroke: #000000; stroke-width: 0.6"/>
      </g>
     </g>
    </g>
    <g id="ytick_41">
     <g id="line2d_120">
      <path d="M 63.051403 141.105623 
L 493.2 141.105623 
" clip-path="url(#p2def6b1fae)" style="fill: none; stroke-dasharray: 2.59,1.12; stroke-dashoffset: 0; stroke: #b0b0b0; stroke-width: 0.7"/>
     </g>
     <g id="line2d_121">
      <g>
       <use xlink:href="#m1d9829959b" x="63.051403" y="141.105623" style="stroke: #000000; stroke-width: 0.6"/>
      </g>
     </g>
    </g>
    <g id="ytick_42">
     <g id="line2d_122">
      <path d="M 63.051403 134.392355 
L 493.2 134.392355 
" clip-path="url(#p2def6b1fae)" style="fill: none; stroke-dasharray: 2.59,1.12; stroke-dashoffset: 0; stroke: #b0b0b0; stroke-width: 0.7"/>
     </g>
     <g id="line2d_123">
      <g>
       <use xlink:href="#m1d9829959b" x="63.051403" y="134.392355" style="stroke: #000000; stroke-width: 0.6"/>
      </g>
     </g>
    </g>
    <g id="ytick_43">
     <g id="line2d_124">
      <path d="M 63.051403 128.577057 
L 493.2 128.577057 
" clip-path="url(#p2def6b1fae)" style="fill: none; stroke-dasharray: 2.59,1.12; stroke-dashoffset: 0; stroke: #b0b0b0; stroke-width: 0.7"/>
     </g>
     <g id="line2d_125">
      <g>
       <use xlink:href="#m1d9829959b" x="63.051403" y="128.577057" style="stroke: #000000; stroke-width: 0.6"/>
      </g>
     </g>
    </g>
    <g id="ytick_44">
     <g id="line2d_126">
      <path d="M 63.051403 123.447602 
L 493.2 123.447602 
" clip-path="url(#p2def6b1fae)" style="fill: none; stroke-dasharray: 2.59,1.12; stroke-dashoffset: 0; stroke: #b0b0b0; stroke-width: 0.7"/>
     </g>
     <g id="line2d_127">
      <g>
       <use xlink:href="#m1d9829959b" x="63.051403" y="123.447602" style="stroke: #000000; stroke-width: 0.6"/>
      </g>
     </g>
    </g>
    <g id="ytick_45">
     <g id="line2d_128">
      <path d="M 63.051403 88.672561 
L 493.2 88.672561 
" clip-path="url(#p2def6b1fae)" style="fill: none; stroke-dasharray: 2.59,1.12; stroke-dashoffset: 0; stroke: #b0b0b0; stroke-width: 0.7"/>
     </g>
     <g id="line2d_129">
      <g>
       <use xlink:href="#m1d9829959b" x="63.051403" y="88.672561" style="stroke: #000000; stroke-width: 0.6"/>
      </g>
     </g>
    </g>
    <g id="text_12">
     <!-- Average $\chi^2_r$ -->
     <g transform="translate(25.471403 356.926682) rotate(-90) scale(0.14 -0.14)">
      <defs>
       <path id="STIXGeneral-Regular-41" d="M 4525 0 
L 2893 0 
L 2893 122 
Q 3149 122 3245 179 
Q 3334 224 3334 333 
Q 3334 499 3213 781 
L 2950 1382 
L 1274 1382 
L 979 653 
Q 922 506 922 384 
Q 922 237 1027 179 
Q 1133 122 1370 122 
L 1370 0 
L 96 0 
L 96 122 
Q 365 147 486 316 
Q 608 486 902 1190 
L 2221 4314 
L 2349 4314 
L 3923 710 
Q 4064 378 4176 262 
Q 4288 147 4525 122 
L 4525 0 
z
M 2861 1645 
L 2118 3405 
L 1382 1645 
L 2861 1645 
z
" transform="scale(0.015625)"/>
       <path id="STIXGeneral-Regular-76" d="M 3053 2880 
L 3053 2784 
Q 2906 2771 2835 2688 
Q 2765 2605 2637 2285 
L 1818 230 
Q 1690 -90 1638 -90 
Q 1587 -90 1523 77 
Q 1510 96 1497 141 
Q 1485 186 1472 211 
L 704 2048 
Q 499 2534 403 2652 
Q 307 2771 122 2784 
L 122 2880 
L 1376 2880 
L 1376 2784 
Q 1210 2771 1146 2732 
Q 1082 2694 1082 2611 
Q 1082 2509 1139 2368 
L 1792 730 
L 2426 2387 
Q 2464 2483 2464 2579 
Q 2464 2758 2163 2784 
L 2163 2880 
L 3053 2880 
z
" transform="scale(0.015625)"/>
       <path id="STIXGeneral-Regular-67" d="M 3008 2483 
L 2477 2483 
Q 2598 2208 2598 1946 
Q 2598 1453 2265 1203 
Q 1933 954 1600 954 
Q 1530 954 1357 973 
L 1235 986 
Q 1107 947 979 812 
Q 851 678 851 582 
Q 851 435 1350 410 
L 2176 371 
Q 2528 358 2739 172 
Q 2950 -13 2950 -314 
Q 2950 -685 2566 -986 
Q 2035 -1395 1286 -1395 
Q 826 -1395 502 -1212 
Q 179 -1030 179 -774 
Q 179 -595 320 -419 
Q 461 -243 806 6 
Q 602 102 534 172 
Q 467 243 467 346 
Q 467 531 762 787 
Q 909 915 1037 1043 
Q 717 1203 579 1401 
Q 442 1600 442 1901 
Q 442 2336 752 2640 
Q 1062 2944 1510 2944 
Q 1766 2944 2022 2848 
L 2163 2797 
Q 2349 2733 2515 2733 
L 3008 2733 
L 3008 2483 
z
M 973 2163 
L 973 2144 
Q 973 1683 1155 1398 
Q 1338 1114 1632 1114 
Q 1850 1114 1978 1270 
Q 2106 1427 2106 1690 
Q 2106 2112 1914 2464 
Q 1754 2765 1446 2765 
Q 1222 2765 1097 2605 
Q 973 2445 973 2163 
z
M 2771 -410 
Q 2771 -230 2595 -163 
Q 2419 -96 1978 -96 
Q 1344 -96 941 -13 
Q 749 -243 688 -348 
Q 627 -454 627 -563 
Q 627 -774 880 -902 
Q 1133 -1030 1555 -1030 
Q 2099 -1030 2435 -860 
Q 2771 -691 2771 -410 
z
" transform="scale(0.015625)"/>
       <path id="STIXGeneral-Italic-3c7" d="M 3187 2739 
L 1363 480 
Q 1357 314 1357 38 
Q 1357 -531 1424 -726 
Q 1491 -922 1645 -922 
Q 1722 -922 1824 -803 
Q 1926 -685 2010 -448 
L 2112 -448 
Q 1939 -1325 1517 -1325 
Q 1312 -1325 1213 -1091 
Q 1114 -858 1114 -506 
Q 1114 -32 1165 288 
L -96 -1274 
L -691 -1274 
L 1146 934 
L 1146 1504 
Q 1146 1990 1085 2204 
Q 1024 2419 858 2419 
Q 774 2419 662 2307 
Q 550 2195 467 1952 
L 365 1952 
Q 416 2144 461 2272 
Q 506 2400 579 2541 
Q 653 2682 755 2752 
Q 858 2822 992 2822 
Q 1178 2822 1270 2617 
Q 1363 2413 1363 1901 
Q 1363 1882 1360 1818 
Q 1357 1754 1350 1571 
Q 1344 1389 1338 1114 
L 2592 2739 
L 3187 2739 
z
" transform="scale(0.015625)"/>
       <path id="STIXGeneral-Italic-72" d="M 1126 1427 
L 1229 1651 
Q 1446 2131 1830 2534 
Q 2106 2822 2336 2822 
Q 2470 2822 2553 2732 
Q 2637 2643 2637 2496 
Q 2637 2349 2557 2249 
Q 2477 2150 2336 2150 
Q 2214 2150 2112 2317 
Q 2061 2406 2010 2406 
Q 1837 2406 1485 1805 
Q 1267 1434 1136 1104 
Q 1005 774 774 0 
L 288 0 
L 806 1869 
Q 909 2246 909 2394 
Q 909 2560 666 2560 
Q 614 2560 467 2541 
L 467 2650 
L 1459 2822 
L 1478 2810 
L 1126 1427 
z
" transform="scale(0.015625)"/>
      </defs>
      <use xlink:href="#STIXGeneral-Regular-41" transform="translate(0 0.409375)"/>
      <use xlink:href="#STIXGeneral-Regular-76" transform="translate(72.199982 0.409375)"/>
      <use xlink:href="#STIXGeneral-Regular-65" transform="translate(122.199966 0.409375)"/>
      <use xlink:href="#STIXGeneral-Regular-72" transform="translate(166.59996 0.409375)"/>
      <use xlink:href="#STIXGeneral-Regular-61" transform="translate(199.899948 0.409375)"/>
      <use xlink:href="#STIXGeneral-Regular-67" transform="translate(244.299942 0.409375)"/>
      <use xlink:href="#STIXGeneral-Regular-65" transform="translate(294.299927 0.409375)"/>
      <use xlink:href="#STIXGeneral-Regular-20" transform="translate(338.699921 0.409375)"/>
      <use xlink:href="#STIXGeneral-Italic-3c7" transform="translate(363.699905 0.409375)"/>
      <use xlink:href="#STIXGeneral-Regular-32" transform="translate(415.573027 35.684375) scale(0.7)"/>
      <use xlink:href="#STIXGeneral-Italic-72" transform="translate(409.399902 -26.046875) scale(0.7)"/>
     </g>
    </g>
   </g>
   <g id="line2d_130">
    <path d="M 82.603612 419.679743 
L 192.420436 419.703064 
L 269.708173 419.673121 
L 374.262751 419.721253 
L 473.647791 419.629852 
" clip-path="url(#p2def6b1fae)" style="fill: none; stroke: #f4a261; stroke-width: 2.5; stroke-linecap: square"/>
    <defs>
     <path id="m17fb57ba48" d="M 0 2 
C 0.530406 2 1.03916 1.789267 1.414214 1.414214 
C 1.789267 1.03916 2 0.530406 2 0 
C 2 -0.530406 1.789267 -1.03916 1.414214 -1.414214 
C 1.03916 -1.789267 0.530406 -2 0 -2 
C -0.530406 -2 -1.03916 -1.789267 -1.414214 -1.414214 
C -1.789267 -1.03916 -2 -0.530406 -2 0 
C -2 0.530406 -1.789267 1.03916 -1.414214 1.414214 
C -1.03916 1.789267 -0.530406 2 0 2 
z
" style="stroke: #f4a261"/>
    </defs>
    <g clip-path="url(#p2def6b1fae)">
     <use xlink:href="#m17fb57ba48" x="82.603612" y="419.679743" style="fill: #f4a261; stroke: #f4a261"/>
     <use xlink:href="#m17fb57ba48" x="192.420436" y="419.703064" style="fill: #f4a261; stroke: #f4a261"/>
     <use xlink:href="#m17fb57ba48" x="269.708173" y="419.673121" style="fill: #f4a261; stroke: #f4a261"/>
     <use xlink:href="#m17fb57ba48" x="374.262751" y="419.721253" style="fill: #f4a261; stroke: #f4a261"/>
     <use xlink:href="#m17fb57ba48" x="473.647791" y="419.629852" style="fill: #f4a261; stroke: #f4a261"/>
    </g>
   </g>
   <g id="line2d_131">
    <path d="M 82.603612 520.950837 
L 192.420436 524.821618 
L 269.708173 518.758376 
L 374.262751 506.052623 
L 473.647791 482.527199 
" clip-path="url(#p2def6b1fae)" style="fill: none; stroke: #2a9d8f; stroke-width: 2.5; stroke-linecap: square"/>
    <defs>
     <path id="m6af76035e2" d="M 0 4 
C 1.060812 4 2.078319 3.578535 2.828427 2.828427 
C 3.578535 2.078319 4 1.060812 4 0 
C 4 -1.060812 3.578535 -2.078319 2.828427 -2.828427 
C 2.078319 -3.578535 1.060812 -4 0 -4 
C -1.060812 -4 -2.078319 -3.578535 -2.828427 -2.828427 
C -3.578535 -2.078319 -4 -1.060812 -4 0 
C -4 1.060812 -3.578535 2.078319 -2.828427 2.828427 
C -2.078319 3.578535 -1.060812 4 0 4 
z
" style="stroke: #2a9d8f"/>
    </defs>
    <g clip-path="url(#p2def6b1fae)">
     <use xlink:href="#m6af76035e2" x="82.603612" y="520.950837" style="fill: #2a9d8f; stroke: #2a9d8f"/>
     <use xlink:href="#m6af76035e2" x="192.420436" y="524.821618" style="fill: #2a9d8f; stroke: #2a9d8f"/>
     <use xlink:href="#m6af76035e2" x="269.708173" y="518.758376" style="fill: #2a9d8f; stroke: #2a9d8f"/>
     <use xlink:href="#m6af76035e2" x="374.262751" y="506.052623" style="fill: #2a9d8f; stroke: #2a9d8f"/>
     <use xlink:href="#m6af76035e2" x="473.647791" y="482.527199" style="fill: #2a9d8f; stroke: #2a9d8f"/>
    </g>
   </g>
   <g id="line2d_132">
    <path d="M 82.603612 318.002079 
L 192.420436 382.735714 
L 269.708173 411.843215 
L 374.262751 446.065623 
L 473.647791 470.748645 
" clip-path="url(#p2def6b1fae)" style="fill: none; stroke: #264653; stroke-width: 2.5; stroke-linecap: square"/>
    <defs>
     <path id="m333831c0a2" d="M -4 4 
L 4 4 
L 4 -4 
L -4 -4 
z
" style="stroke: #264653; stroke-linejoin: miter"/>
    </defs>
    <g clip-path="url(#p2def6b1fae)">
     <use xlink:href="#m333831c0a2" x="82.603612" y="318.002079" style="fill: #264653; stroke: #264653; stroke-linejoin: miter"/>
     <use xlink:href="#m333831c0a2" x="192.420436" y="382.735714" style="fill: #264653; stroke: #264653; stroke-linejoin: miter"/>
     <use xlink:href="#m333831c0a2" x="269.708173" y="411.843215" style="fill: #264653; stroke: #264653; stroke-linejoin: miter"/>
     <use xlink:href="#m333831c0a2" x="374.262751" y="446.065623" style="fill: #264653; stroke: #264653; stroke-linejoin: miter"/>
     <use xlink:href="#m333831c0a2" x="473.647791" y="470.748645" style="fill: #264653; stroke: #264653; stroke-linejoin: miter"/>
    </g>
   </g>
   <g id="patch_3">
    <path d="M 63.051403 573.473363 
L 63.051403 76.68 
" style="fill: none; stroke: #000000; stroke-width: 0.8; stroke-linejoin: miter; stroke-linecap: square"/>
   </g>
   <g id="patch_4">
    <path d="M 493.2 573.473363 
L 493.2 76.68 
" style="fill: none; stroke: #000000; stroke-width: 0.8; stroke-linejoin: miter; stroke-linecap: square"/>
   </g>
   <g id="patch_5">
    <path d="M 63.051403 573.473363 
L 493.2 573.473363 
" style="fill: none; stroke: #000000; stroke-width: 0.8; stroke-linejoin: miter; stroke-linecap: square"/>
   </g>
   <g id="patch_6">
    <path d="M 63.051403 76.68 
L 493.2 76.68 
" style="fill: none; stroke: #000000; stroke-width: 0.8; stroke-linejoin: miter; stroke-linecap: square"/>
   </g>
   <g id="legend_1">
    <g id="patch_7">
     <path d="M 71.451403 173.52 
L 249.184528 173.52 
Q 251.584528 173.52 251.584528 171.12 
L 251.584528 85.08 
Q 251.584528 82.68 249.184528 82.68 
L 71.451403 82.68 
Q 69.051403 82.68 69.051403 85.08 
L 69.051403 171.12 
Q 69.051403 173.52 71.451403 173.52 
z
" style="fill: #ffffff; opacity: 0.8; stroke: #cccccc; stroke-linejoin: miter"/>
    </g>
    <g id="line2d_133">
     <path d="M 73.851403 91.68 
L 85.851403 91.68 
L 97.851403 91.68 
" style="fill: none; stroke: #f4a261; stroke-width: 2.5; stroke-linecap: square"/>
     <g>
      <use xlink:href="#m17fb57ba48" x="85.851403" y="91.68" style="fill: #f4a261; stroke: #f4a261"/>
     </g>
    </g>
    <g id="text_13">
     <!-- Noisy vs. Clean (Baseline) -->
     <g transform="translate(107.451403 95.88) scale(0.12 -0.12)">
      <defs>
       <path id="STIXGeneral-Regular-79" d="M 3040 2880 
L 3040 2784 
Q 2925 2771 2854 2700 
Q 2784 2630 2720 2458 
L 1760 -160 
Q 1510 -838 1257 -1116 
Q 1005 -1395 640 -1395 
Q 435 -1395 313 -1289 
Q 192 -1184 192 -1024 
Q 192 -902 272 -816 
Q 352 -730 467 -730 
Q 653 -730 800 -813 
Q 883 -858 966 -858 
Q 1101 -858 1286 -576 
Q 1376 -448 1459 -211 
Q 1542 26 1542 115 
Q 1542 198 1274 762 
L 429 2566 
Q 346 2752 90 2790 
L 90 2880 
L 1402 2880 
L 1402 2784 
Q 1197 2778 1117 2739 
Q 1037 2701 1037 2611 
Q 1037 2541 1120 2349 
L 1837 749 
L 2458 2515 
Q 2483 2573 2483 2630 
Q 2483 2784 2189 2784 
L 2189 2880 
L 3040 2880 
z
" transform="scale(0.015625)"/>
       <path id="STIXGeneral-Regular-2e" d="M 1158 275 
Q 1158 134 1052 32 
Q 947 -70 800 -70 
Q 653 -70 550 32 
Q 448 134 448 281 
Q 448 429 553 534 
Q 659 640 806 640 
Q 947 640 1052 531 
Q 1158 422 1158 275 
z
" transform="scale(0.015625)"/>
       <path id="STIXGeneral-Regular-43" d="M 3930 838 
L 4051 723 
Q 3482 -90 2304 -90 
Q 1376 -90 794 480 
Q 179 1082 179 2080 
Q 179 3014 755 3661 
Q 1357 4326 2310 4326 
Q 2720 4326 3072 4230 
Q 3475 4115 3514 4115 
Q 3725 4115 3782 4326 
L 3910 4326 
L 3968 2874 
L 3821 2874 
Q 3718 3334 3488 3584 
Q 3034 4070 2458 4070 
Q 1747 4070 1334 3548 
Q 922 3027 922 2182 
Q 922 1152 1382 653 
Q 1811 192 2522 192 
Q 2944 192 3251 339 
Q 3558 486 3930 838 
z
" transform="scale(0.015625)"/>
       <path id="STIXGeneral-Regular-6c" d="M 1645 0 
L 134 0 
L 134 96 
Q 435 122 531 221 
Q 627 320 627 589 
L 627 3590 
Q 627 3821 569 3910 
Q 512 4000 358 4000 
Q 224 4000 122 3987 
L 122 4090 
Q 730 4237 1133 4371 
L 1165 4346 
L 1165 557 
Q 1165 288 1254 201 
Q 1344 115 1645 96 
L 1645 0 
z
" transform="scale(0.015625)"/>
       <path id="STIXGeneral-Regular-28" d="M 1946 -1030 
L 1869 -1133 
Q 1126 -710 716 32 
Q 307 774 307 1613 
Q 307 3386 1888 4326 
L 1946 4224 
Q 1293 3667 1075 3126 
Q 858 2586 858 1632 
Q 858 685 1082 96 
Q 1306 -493 1946 -1030 
z
" transform="scale(0.015625)"/>
       <path id="STIXGeneral-Regular-42" d="M 2701 2234 
L 2701 2227 
Q 3181 2150 3482 1875 
Q 3795 1594 3795 1139 
Q 3795 608 3379 304 
Q 2963 0 2266 0 
L 109 0 
L 109 122 
Q 486 134 604 246 
Q 723 358 723 723 
L 723 3520 
Q 723 3891 614 3990 
Q 506 4090 109 4115 
L 109 4237 
L 1901 4237 
Q 2726 4237 3152 3958 
Q 3578 3680 3578 3168 
Q 3578 2733 3315 2502 
Q 3130 2342 2701 2234 
z
M 1376 2342 
L 1965 2342 
Q 2925 2342 2925 3136 
Q 2925 3546 2640 3773 
Q 2355 4000 1792 4000 
L 1530 4000 
Q 1376 4000 1376 3795 
L 1376 2342 
z
M 1376 2086 
L 1376 525 
Q 1376 365 1462 301 
Q 1549 237 1773 237 
Q 2208 237 2413 285 
Q 2618 333 2816 512 
Q 3059 723 3059 1146 
Q 3059 1632 2758 1830 
Q 2688 1882 2617 1917 
Q 2547 1952 2492 1974 
Q 2438 1997 2348 2016 
Q 2259 2035 2211 2044 
Q 2163 2054 2041 2060 
Q 1920 2067 1862 2070 
Q 1805 2074 1635 2080 
Q 1466 2086 1376 2086 
z
" transform="scale(0.015625)"/>
       <path id="STIXGeneral-Regular-29" d="M 186 4224 
L 262 4326 
Q 992 3891 1408 3148 
Q 1824 2406 1824 1581 
Q 1824 -166 243 -1133 
L 186 -1030 
Q 845 -486 1059 54 
Q 1274 595 1274 1562 
Q 1274 2534 1059 3120 
Q 845 3706 186 4224 
z
" transform="scale(0.015625)"/>
      </defs>
      <use xlink:href="#STIXGeneral-Regular-4e"/>
      <use xlink:href="#STIXGeneral-Regular-6f" x="72.199982"/>
      <use xlink:href="#STIXGeneral-Regular-69" x="122.199966"/>
      <use xlink:href="#STIXGeneral-Regular-73" x="149.999954"/>
      <use xlink:href="#STIXGeneral-Regular-79" x="188.899948"/>
      <use xlink:href="#STIXGeneral-Regular-20" x="238.899933"/>
      <use xlink:href="#STIXGeneral-Regular-76" x="263.899918"/>
      <use xlink:href="#STIXGeneral-Regular-73" x="313.899902"/>
      <use xlink:href="#STIXGeneral-Regular-2e" x="352.799896"/>
      <use xlink:href="#STIXGeneral-Regular-20" x="377.799881"/>
      <use xlink:href="#STIXGeneral-Regular-43" x="402.799866"/>
      <use xlink:href="#STIXGeneral-Regular-6c" x="469.499863"/>
      <use xlink:href="#STIXGeneral-Regular-65" x="497.29985"/>
      <use xlink:href="#STIXGeneral-Regular-61" x="541.699844"/>
      <use xlink:href="#STIXGeneral-Regular-6e" x="586.099838"/>
      <use xlink:href="#STIXGeneral-Regular-20" x="636.099823"/>
      <use xlink:href="#STIXGeneral-Regular-28" x="661.099808"/>
      <use xlink:href="#STIXGeneral-Regular-42" x="694.399796"/>
      <use xlink:href="#STIXGeneral-Regular-61" x="761.099792"/>
      <use xlink:href="#STIXGeneral-Regular-73" x="805.499786"/>
      <use xlink:href="#STIXGeneral-Regular-65" x="844.39978"/>
      <use xlink:href="#STIXGeneral-Regular-6c" x="888.799774"/>
      <use xlink:href="#STIXGeneral-Regular-69" x="916.599762"/>
      <use xlink:href="#STIXGeneral-Regular-6e" x="944.39975"/>
      <use xlink:href="#STIXGeneral-Regular-65" x="994.399734"/>
      <use xlink:href="#STIXGeneral-Regular-29" x="1038.799728"/>
     </g>
    </g>
    <g id="line2d_134">
     <path d="M 73.851403 108.695625 
L 85.851403 108.695625 
L 97.851403 108.695625 
" style="fill: none; stroke: #2a9d8f; stroke-width: 2.5; stroke-linecap: square"/>
     <g>
      <use xlink:href="#m6af76035e2" x="85.851403" y="108.695625" style="fill: #2a9d8f; stroke: #2a9d8f"/>
     </g>
    </g>
    <g id="text_14">
     <!-- Recon vs. Clean ($\sigma_{inst}$) -->
     <g transform="translate(107.451403 112.895625) scale(0.12 -0.12)">
      <defs>
       <path id="STIXGeneral-Regular-52" d="M 4224 0 
L 3187 0 
L 1664 1971 
L 1306 1958 
L 1306 717 
Q 1306 352 1405 249 
Q 1504 147 1875 122 
L 1875 0 
L 109 0 
L 109 122 
Q 474 154 563 262 
Q 653 371 653 794 
L 653 3526 
Q 653 3885 563 3987 
Q 474 4090 109 4115 
L 109 4237 
L 1850 4237 
Q 2726 4237 3187 3859 
Q 3501 3603 3501 3091 
Q 3501 2221 2342 2042 
L 3622 422 
Q 3757 256 3878 198 
Q 4000 141 4224 122 
L 4224 0 
z
M 1306 3731 
L 1306 2195 
Q 1766 2202 1990 2246 
Q 2214 2291 2438 2413 
Q 2803 2618 2803 3142 
Q 2803 4000 1632 4000 
Q 1459 4000 1382 3945 
Q 1306 3891 1306 3731 
z
" transform="scale(0.015625)"/>
       <path id="STIXGeneral-Regular-63" d="M 2547 998 
L 2637 941 
Q 2362 403 2112 205 
Q 1786 -64 1376 -64 
Q 845 -64 502 336 
Q 160 736 160 1357 
Q 160 2170 698 2618 
Q 1094 2944 1562 2944 
Q 1965 2944 2256 2749 
Q 2547 2554 2547 2285 
Q 2547 2176 2457 2096 
Q 2368 2016 2246 2016 
Q 2022 2016 1939 2310 
L 1901 2451 
Q 1850 2630 1773 2694 
Q 1696 2758 1523 2758 
Q 1133 2758 893 2451 
Q 653 2144 653 1645 
Q 653 1094 928 745 
Q 1203 397 1645 397 
Q 1920 397 2118 528 
Q 2317 659 2547 998 
z
" transform="scale(0.015625)"/>
       <path id="STIXGeneral-Italic-3c3" d="M 3398 2739 
L 3283 2266 
L 2195 2266 
Q 2291 2112 2457 1981 
Q 2624 1850 2717 1725 
Q 2810 1600 2810 1389 
Q 2810 851 2288 390 
Q 1766 -70 1107 -70 
Q 659 -70 416 170 
Q 173 410 173 832 
Q 173 1274 409 1706 
Q 646 2138 1113 2438 
Q 1581 2739 2157 2739 
L 3398 2739 
z
M 2272 1414 
Q 2272 1709 2166 1939 
Q 2061 2170 1901 2266 
Q 1530 2266 1120 1770 
Q 710 1274 710 640 
Q 710 358 844 211 
Q 979 64 1210 64 
Q 1638 64 1955 525 
Q 2272 986 2272 1414 
z
" transform="scale(0.015625)"/>
       <path id="STIXGeneral-Italic-69" d="M 1690 3834 
Q 1690 3699 1597 3603 
Q 1504 3507 1376 3507 
Q 1235 3507 1152 3600 
Q 1069 3693 1069 3846 
Q 1069 3994 1155 4090 
Q 1242 4186 1370 4186 
Q 1498 4186 1594 4080 
Q 1690 3974 1690 3834 
z
M 1421 730 
L 1504 659 
Q 1235 243 1049 86 
Q 864 -70 627 -70 
Q 314 -70 314 282 
Q 314 467 454 992 
L 762 2125 
Q 819 2330 819 2406 
Q 819 2502 745 2528 
Q 672 2554 410 2560 
L 410 2662 
Q 704 2688 1434 2822 
L 1459 2803 
L 858 608 
Q 794 390 794 326 
Q 794 230 883 230 
Q 1043 230 1421 730 
z
" transform="scale(0.015625)"/>
       <path id="STIXGeneral-Italic-6e" d="M 2944 749 
L 3034 666 
Q 2707 218 2534 80 
Q 2362 -58 2138 -58 
Q 2010 -58 1923 28 
Q 1837 115 1837 288 
Q 1837 390 1939 768 
L 2221 1805 
Q 2310 2150 2310 2310 
Q 2310 2496 2157 2496 
Q 1971 2496 1750 2275 
Q 1530 2054 1210 1587 
Q 998 1274 899 1024 
Q 800 774 570 0 
L 90 0 
L 704 2240 
Q 717 2304 717 2349 
Q 717 2445 630 2480 
Q 544 2515 301 2522 
L 301 2624 
Q 550 2675 857 2729 
Q 1165 2784 1338 2822 
L 1363 2810 
L 934 1414 
Q 1408 2170 1753 2496 
Q 2099 2822 2413 2822 
Q 2611 2822 2720 2716 
Q 2829 2611 2829 2432 
Q 2829 2272 2765 2048 
L 2406 749 
Q 2317 429 2317 358 
Q 2317 243 2419 243 
Q 2541 243 2810 582 
Q 2854 634 2944 749 
z
" transform="scale(0.015625)"/>
       <path id="STIXGeneral-Italic-73" d="M 2342 2829 
L 2214 1933 
L 2112 1933 
Q 2022 2675 1542 2675 
Q 1370 2675 1267 2579 
Q 1165 2483 1165 2310 
Q 1165 2067 1510 1658 
Q 1946 1152 1946 787 
Q 1946 397 1686 163 
Q 1427 -70 1024 -70 
Q 838 -70 672 -6 
Q 538 51 390 51 
Q 262 51 205 -83 
L 102 -83 
L 230 934 
L 333 934 
Q 461 64 973 64 
Q 1203 64 1331 192 
Q 1459 320 1459 557 
Q 1459 845 1101 1293 
Q 698 1798 698 2131 
Q 698 2451 909 2636 
Q 1120 2822 1472 2822 
Q 1600 2822 1830 2758 
Q 1971 2714 2061 2714 
Q 2189 2714 2253 2829 
L 2342 2829 
z
" transform="scale(0.015625)"/>
       <path id="STIXGeneral-Italic-74" d="M 1894 2739 
L 1862 2534 
L 1325 2534 
L 768 435 
Q 755 384 755 346 
Q 755 243 851 243 
Q 928 243 1030 342 
Q 1133 442 1370 749 
L 1453 704 
Q 1158 256 969 93 
Q 781 -70 538 -70 
Q 243 -70 243 166 
Q 243 230 346 640 
L 845 2534 
L 365 2534 
L 358 2573 
Q 358 2688 570 2733 
Q 730 2771 992 2979 
Q 1254 3187 1421 3437 
Q 1459 3494 1510 3494 
Q 1568 3494 1568 3443 
Q 1568 3411 1562 3398 
L 1382 2739 
L 1894 2739 
z
" transform="scale(0.015625)"/>
      </defs>
      <use xlink:href="#STIXGeneral-Regular-52" transform="translate(0 0.703125)"/>
      <use xlink:href="#STIXGeneral-Regular-65" transform="translate(66.699997 0.703125)"/>
      <use xlink:href="#STIXGeneral-Regular-63" transform="translate(111.099991 0.703125)"/>
      <use xlink:href="#STIXGeneral-Regular-6f" transform="translate(155.499985 0.703125)"/>
      <use xlink:href="#STIXGeneral-Regular-6e" transform="translate(205.499969 0.703125)"/>
      <use xlink:href="#STIXGeneral-Regular-20" transform="translate(255.499954 0.703125)"/>
      <use xlink:href="#STIXGeneral-Regular-76" transform="translate(280.499939 0.703125)"/>
      <use xlink:href="#STIXGeneral-Regular-73" transform="translate(330.499924 0.703125)"/>
      <use xlink:href="#STIXGeneral-Regular-2e" transform="translate(369.399918 0.703125)"/>
      <use xlink:href="#STIXGeneral-Regular-20" transform="translate(394.399902 0.703125)"/>
      <use xlink:href="#STIXGeneral-Regular-43" transform="translate(419.399887 0.703125)"/>
      <use xlink:href="#STIXGeneral-Regular-6c" transform="translate(486.099884 0.703125)"/>
      <use xlink:href="#STIXGeneral-Regular-65" transform="translate(513.899872 0.703125)"/>
      <use xlink:href="#STIXGeneral-Regular-61" transform="translate(558.299866 0.703125)"/>
      <use xlink:href="#STIXGeneral-Regular-6e" transform="translate(602.69986 0.703125)"/>
      <use xlink:href="#STIXGeneral-Regular-20" transform="translate(652.699844 0.703125)"/>
      <use xlink:href="#STIXGeneral-Regular-28" transform="translate(677.699829 0.703125)"/>
      <use xlink:href="#STIXGeneral-Italic-3c3" transform="translate(710.999817 0.703125)"/>
      <use xlink:href="#STIXGeneral-Italic-69" transform="translate(760.799805 -12.525) scale(0.7)"/>
      <use xlink:href="#STIXGeneral-Italic-6e" transform="translate(780.259796 -12.525) scale(0.7)"/>
      <use xlink:href="#STIXGeneral-Italic-73" transform="translate(815.259785 -12.525) scale(0.7)"/>
      <use xlink:href="#STIXGeneral-Italic-74" transform="translate(842.489781 -12.525) scale(0.7)"/>
      <use xlink:href="#STIXGeneral-Regular-29" transform="translate(866.359148 0.703125)"/>
     </g>
    </g>
    <g id="line2d_135">
     <path d="M 73.851403 125.7 
L 85.851403 125.7 
L 97.851403 125.7 
" style="fill: none; stroke: #264653; stroke-width: 2.5; stroke-linecap: square"/>
     <g>
      <use xlink:href="#m333831c0a2" x="85.851403" y="125.7" style="fill: #264653; stroke: #264653; stroke-linejoin: miter"/>
     </g>
    </g>
    <g id="text_15">
     <!-- Recon vs. Clean ($\sigma_{total}$) -->
     <g transform="translate(107.451403 129.9) scale(0.12 -0.12)">
      <defs>
       <path id="STIXGeneral-Italic-6f" d="M 2995 1926 
Q 2995 1562 2812 1168 
Q 2630 774 2317 461 
Q 1786 -70 1114 -70 
Q 666 -70 419 163 
Q 173 397 173 819 
Q 173 1350 496 1856 
Q 819 2362 1325 2630 
Q 1683 2822 2093 2822 
Q 2490 2822 2742 2582 
Q 2995 2342 2995 1926 
z
M 2458 2086 
Q 2458 2374 2336 2531 
Q 2214 2688 2003 2688 
Q 1574 2688 1184 2106 
Q 710 1382 710 646 
Q 710 365 844 214 
Q 979 64 1210 64 
Q 1600 64 1984 595 
Q 2202 890 2330 1302 
Q 2458 1715 2458 2086 
z
" transform="scale(0.015625)"/>
       <path id="STIXGeneral-Italic-61" d="M 2963 710 
L 3046 640 
Q 2688 205 2518 70 
Q 2349 -64 2157 -64 
Q 1901 -64 1901 198 
Q 1901 358 2048 934 
Q 1690 397 1389 163 
Q 1088 -70 749 -70 
Q 467 -70 288 125 
Q 109 320 109 672 
Q 109 1158 387 1664 
Q 666 2170 1094 2496 
Q 1523 2822 1939 2822 
Q 2368 2822 2451 2451 
L 2522 2758 
L 2541 2778 
L 2931 2822 
L 2976 2803 
Q 2970 2778 2938 2669 
Q 2368 595 2368 346 
Q 2368 262 2458 262 
Q 2554 262 2790 525 
L 2963 710 
z
M 2336 2310 
Q 2336 2477 2240 2579 
Q 2144 2682 1978 2682 
Q 1542 2682 1139 2093 
Q 928 1779 787 1395 
Q 646 1011 646 717 
Q 646 243 1030 243 
Q 1408 243 1843 870 
Q 2336 1581 2336 2310 
z
" transform="scale(0.015625)"/>
       <path id="STIXGeneral-Italic-6c" d="M 1786 4339 
L 806 595 
Q 755 410 755 320 
Q 755 205 864 205 
Q 1037 205 1293 570 
L 1453 794 
L 1542 730 
Q 1254 275 1046 102 
Q 838 -70 576 -70 
Q 262 -70 262 288 
Q 262 397 288 480 
L 1165 3834 
Q 1184 3898 1184 3955 
Q 1184 4096 870 4096 
L 755 4096 
L 755 4198 
Q 1203 4250 1747 4371 
L 1786 4339 
z
" transform="scale(0.015625)"/>
      </defs>
      <use xlink:href="#STIXGeneral-Regular-52" transform="translate(0 0.703125)"/>
      <use xlink:href="#STIXGeneral-Regular-65" transform="translate(66.699997 0.703125)"/>
      <use xlink:href="#STIXGeneral-Regular-63" transform="translate(111.099991 0.703125)"/>
      <use xlink:href="#STIXGeneral-Regular-6f" transform="translate(155.499985 0.703125)"/>
      <use xlink:href="#STIXGeneral-Regular-6e" transform="translate(205.499969 0.703125)"/>
      <use xlink:href="#STIXGeneral-Regular-20" transform="translate(255.499954 0.703125)"/>
      <use xlink:href="#STIXGeneral-Regular-76" transform="translate(280.499939 0.703125)"/>
      <use xlink:href="#STIXGeneral-Regular-73" transform="translate(330.499924 0.703125)"/>
      <use xlink:href="#STIXGeneral-Regular-2e" transform="translate(369.399918 0.703125)"/>
      <use xlink:href="#STIXGeneral-Regular-20" transform="translate(394.399902 0.703125)"/>
      <use xlink:href="#STIXGeneral-Regular-43" transform="translate(419.399887 0.703125)"/>
      <use xlink:href="#STIXGeneral-Regular-6c" transform="translate(486.099884 0.703125)"/>
      <use xlink:href="#STIXGeneral-Regular-65" transform="translate(513.899872 0.703125)"/>
      <use xlink:href="#STIXGeneral-Regular-61" transform="translate(558.299866 0.703125)"/>
      <use xlink:href="#STIXGeneral-Regular-6e" transform="translate(602.69986 0.703125)"/>
      <use xlink:href="#STIXGeneral-Regular-20" transform="translate(652.699844 0.703125)"/>
      <use xlink:href="#STIXGeneral-Regular-28" transform="translate(677.699829 0.703125)"/>
      <use xlink:href="#STIXGeneral-Italic-3c3" transform="translate(710.999817 0.703125)"/>
      <use xlink:href="#STIXGeneral-Italic-74" transform="translate(760.799805 -12.525) scale(0.7)"/>
      <use xlink:href="#STIXGeneral-Italic-6f" transform="translate(780.259796 -12.525) scale(0.7)"/>
      <use xlink:href="#STIXGeneral-Italic-74" transform="translate(815.259785 -12.525) scale(0.7)"/>
      <use xlink:href="#STIXGeneral-Italic-61" transform="translate(834.719777 -12.525) scale(0.7)"/>
      <use xlink:href="#STIXGeneral-Italic-6c" transform="translate(869.789771 -12.525) scale(0.7)"/>
      <use xlink:href="#STIXGeneral-Regular-29" transform="translate(893.659137 0.703125)"/>
     </g>
    </g>
    <g id="line2d_136">
     <path d="M 73.851403 144.264375 
L 85.851403 144.264375 
L 97.851403 144.264375 
" style="fill: none; stroke-dasharray: 1.5,2.475; stroke-dashoffset: 0; stroke: #000000; stroke-opacity: 0.8; stroke-width: 1.5"/>
    </g>
    <g id="text_16">
     <!-- Ideal $\chi^2_r = 1$ -->
     <g transform="translate(107.451403 148.464375) scale(0.12 -0.12)">
      <defs>
       <path id="STIXGeneral-Regular-49" d="M 2016 0 
L 115 0 
L 115 122 
Q 518 134 627 240 
Q 736 346 736 717 
L 736 3526 
Q 736 3898 633 3994 
Q 531 4090 115 4115 
L 115 4237 
L 2016 4237 
L 2016 4115 
Q 1613 4096 1501 3993 
Q 1389 3891 1389 3526 
L 1389 717 
Q 1389 358 1504 246 
Q 1619 134 2016 122 
L 2016 0 
z
" transform="scale(0.015625)"/>
       <path id="STIXGeneral-Regular-64" d="M 3142 269 
L 2202 -64 
L 2176 -45 
L 2176 365 
Q 1869 -64 1357 -64 
Q 826 -64 499 317 
Q 173 698 173 1312 
Q 173 1990 563 2467 
Q 954 2944 1504 2944 
Q 1850 2944 2176 2669 
L 2176 3667 
Q 2176 3866 2118 3930 
Q 2061 3994 1882 3994 
Q 1792 3994 1741 3987 
L 1741 4090 
Q 2323 4243 2682 4371 
L 2714 4358 
L 2714 730 
Q 2714 506 2768 435 
Q 2822 365 2995 365 
Q 3034 365 3142 371 
L 3142 269 
z
M 2176 653 
L 2176 2125 
Q 2176 2381 1981 2573 
Q 1786 2765 1523 2765 
Q 1158 2765 940 2438 
Q 723 2112 723 1568 
Q 723 979 963 624 
Q 1203 269 1606 269 
Q 1907 269 2080 474 
Q 2176 582 2176 653 
z
" transform="scale(0.015625)"/>
       <path id="STIXGeneral-Regular-3d" d="M 4077 2048 
L 307 2048 
L 307 2470 
L 4077 2470 
L 4077 2048 
z
M 4077 768 
L 307 768 
L 307 1190 
L 4077 1190 
L 4077 768 
z
" transform="scale(0.015625)"/>
      </defs>
      <use xlink:href="#STIXGeneral-Regular-49" transform="translate(0 0.409375)"/>
      <use xlink:href="#STIXGeneral-Regular-64" transform="translate(33.299988 0.409375)"/>
      <use xlink:href="#STIXGeneral-Regular-65" transform="translate(83.299973 0.409375)"/>
      <use xlink:href="#STIXGeneral-Regular-61" transform="translate(127.699966 0.409375)"/>
      <use xlink:href="#STIXGeneral-Regular-6c" transform="translate(172.09996 0.409375)"/>
      <use xlink:href="#STIXGeneral-Regular-20" transform="translate(199.899948 0.409375)"/>
      <use xlink:href="#STIXGeneral-Italic-3c7" transform="translate(224.899933 0.409375)"/>
      <use xlink:href="#STIXGeneral-Regular-32" transform="translate(276.773055 35.684375) scale(0.7)"/>
      <use xlink:href="#STIXGeneral-Italic-72" transform="translate(270.59993 -26.046875) scale(0.7)"/>
      <use xlink:href="#STIXGeneral-Regular-3d" transform="translate(330.622415 0.409375)"/>
      <use xlink:href="#STIXGeneral-Regular-31" transform="translate(413.562397 0.409375)"/>
     </g>
    </g>
    <g id="patch_8">
     <path d="M 73.851403 166.104375 
L 97.851403 166.104375 
L 97.851403 157.704375 
L 73.851403 157.704375 
z
" style="fill: #808080; opacity: 0.25; stroke: #808080; stroke-linejoin: miter"/>
    </g>
    <g id="text_17">
     <!-- Stellar Contamination Range -->
     <g transform="translate(107.451403 166.104375) scale(0.12 -0.12)">
      <defs>
       <path id="STIXGeneral-Regular-53" d="M 3002 2963 
L 2842 2963 
Q 2733 3360 2579 3565 
Q 2189 4064 1651 4064 
Q 1357 4064 1181 3894 
Q 1005 3725 1005 3456 
Q 1005 3328 1069 3206 
Q 1133 3085 1206 2998 
Q 1280 2912 1465 2784 
Q 1651 2656 1766 2589 
Q 1882 2522 2150 2362 
Q 2669 2061 2905 1763 
Q 3142 1466 3142 1107 
Q 3142 576 2771 243 
Q 2400 -90 1837 -90 
Q 1421 -90 1082 58 
Q 915 128 781 128 
Q 704 128 653 70 
Q 602 13 602 -83 
L 461 -83 
L 275 1274 
L 416 1274 
Q 845 141 1734 141 
Q 2074 141 2285 342 
Q 2496 544 2496 858 
Q 2496 1158 2310 1363 
Q 2003 1696 1235 2106 
Q 454 2522 454 3206 
Q 454 3718 768 4022 
Q 1082 4326 1568 4326 
Q 1907 4326 2240 4186 
Q 2413 4109 2522 4109 
Q 2688 4109 2726 4326 
L 2861 4326 
L 3002 2963 
z
" transform="scale(0.015625)"/>
      </defs>
      <use xlink:href="#STIXGeneral-Regular-53"/>
      <use xlink:href="#STIXGeneral-Regular-74" x="55.599991"/>
      <use xlink:href="#STIXGeneral-Regular-65" x="83.399979"/>
      <use xlink:href="#STIXGeneral-Regular-6c" x="127.799973"/>
      <use xlink:href="#STIXGeneral-Regular-6c" x="155.59996"/>
      <use xlink:href="#STIXGeneral-Regular-61" x="183.399948"/>
      <use xlink:href="#STIXGeneral-Regular-72" x="227.799942"/>
      <use xlink:href="#STIXGeneral-Regular-20" x="261.09993"/>
      <use xlink:href="#STIXGeneral-Regular-43" x="286.099915"/>
      <use xlink:href="#STIXGeneral-Regular-6f" x="352.799911"/>
      <use xlink:href="#STIXGeneral-Regular-6e" x="402.799896"/>
      <use xlink:href="#STIXGeneral-Regular-74" x="452.799881"/>
      <use xlink:href="#STIXGeneral-Regular-61" x="480.599869"/>
      <use xlink:href="#STIXGeneral-Regular-6d" x="524.999863"/>
      <use xlink:href="#STIXGeneral-Regular-69" x="602.79985"/>
      <use xlink:href="#STIXGeneral-Regular-6e" x="630.599838"/>
      <use xlink:href="#STIXGeneral-Regular-61" x="680.599823"/>
      <use xlink:href="#STIXGeneral-Regular-74" x="724.999817"/>
      <use xlink:href="#STIXGeneral-Regular-69" x="752.799805"/>
      <use xlink:href="#STIXGeneral-Regular-6f" x="780.599792"/>
      <use xlink:href="#STIXGeneral-Regular-6e" x="830.599777"/>
      <use xlink:href="#STIXGeneral-Regular-20" x="880.599762"/>
      <use xlink:href="#STIXGeneral-Regular-52" x="905.599747"/>
      <use xlink:href="#STIXGeneral-Regular-61" x="972.299744"/>
      <use xlink:href="#STIXGeneral-Regular-6e" x="1016.699738"/>
      <use xlink:href="#STIXGeneral-Regular-67" x="1066.699722"/>
      <use xlink:href="#STIXGeneral-Regular-65" x="1116.699707"/>
     </g>
    </g>
   </g>
  </g>
  <g id="text_18">
   <!-- $\chi^2_r$ Analisys vs. Number of Transits -->
   <g transform="translate(118.26 27.9) scale(0.18 -0.18)">
    <defs>
     <path id="STIXGeneral-Bold-20" transform="scale(0.015625)"/>
     <path id="STIXGeneral-Bold-41" d="M 4410 0 
L 2349 0 
L 2349 160 
L 2554 179 
Q 2714 192 2781 240 
Q 2848 288 2848 390 
Q 2848 576 2554 1261 
L 1114 1261 
L 1030 1043 
Q 832 531 832 422 
Q 832 301 950 240 
Q 1069 179 1350 160 
L 1350 0 
L 58 0 
L 58 160 
Q 282 198 397 339 
Q 512 480 691 928 
L 2106 4416 
L 2285 4416 
L 3706 1075 
Q 3949 499 4080 329 
Q 4211 160 4410 160 
L 4410 0 
z
M 2458 1510 
L 1811 3066 
L 1210 1510 
L 2458 1510 
z
" transform="scale(0.015625)"/>
     <path id="STIXGeneral-Bold-6e" d="M 3450 0 
L 1952 0 
L 1952 154 
Q 2112 173 2179 259 
Q 2246 346 2246 538 
L 2246 2054 
Q 2246 2598 1920 2598 
Q 1690 2598 1472 2381 
Q 1363 2272 1363 2227 
L 1363 538 
Q 1363 352 1430 265 
Q 1498 179 1670 154 
L 1670 0 
L 134 0 
L 134 154 
Q 346 198 410 275 
Q 474 352 474 557 
L 474 2406 
Q 474 2611 410 2688 
Q 346 2765 134 2797 
L 134 2950 
L 1357 2950 
L 1357 2470 
L 1363 2470 
Q 1677 3027 2272 3027 
Q 2669 3027 2902 2780 
Q 3136 2534 3136 2118 
L 3136 538 
Q 3136 320 3200 243 
Q 3264 166 3450 154 
L 3450 0 
z
" transform="scale(0.015625)"/>
     <path id="STIXGeneral-Bold-61" d="M 3027 410 
L 3123 275 
Q 2784 -90 2406 -90 
Q 2170 -90 2051 9 
Q 1933 109 1882 352 
Q 1395 -90 864 -90 
Q 544 -90 352 80 
Q 160 250 160 589 
Q 160 1018 589 1306 
Q 909 1517 1875 1792 
L 1875 2227 
Q 1875 2541 1756 2681 
Q 1638 2822 1357 2822 
Q 1178 2822 1059 2758 
Q 941 2694 941 2586 
Q 941 2515 1011 2438 
Q 1133 2291 1133 2170 
Q 1133 2003 1011 1894 
Q 890 1786 698 1786 
Q 499 1786 390 1901 
Q 282 2016 282 2221 
Q 282 2598 618 2812 
Q 954 3027 1504 3027 
Q 2093 3027 2425 2803 
Q 2758 2579 2758 2170 
L 2758 499 
Q 2758 320 2893 320 
Q 2938 320 2963 346 
L 3027 410 
z
M 1875 621 
L 1875 1568 
Q 1094 1350 1094 794 
Q 1094 589 1187 477 
Q 1280 365 1427 365 
Q 1696 365 1875 621 
z
" transform="scale(0.015625)"/>
     <path id="STIXGeneral-Bold-6c" d="M 1638 0 
L 102 0 
L 102 154 
Q 429 179 429 557 
L 429 3757 
Q 429 4147 96 4173 
L 96 4326 
L 1318 4326 
L 1318 557 
Q 1318 346 1395 253 
Q 1472 160 1638 154 
L 1638 0 
z
" transform="scale(0.015625)"/>
     <path id="STIXGeneral-Bold-69" d="M 1376 3923 
Q 1376 3712 1232 3571 
Q 1088 3430 877 3430 
Q 666 3430 525 3571 
Q 384 3712 384 3923 
Q 384 4134 528 4278 
Q 672 4422 890 4422 
Q 1088 4422 1232 4275 
Q 1376 4128 1376 3923 
z
M 1638 0 
L 102 0 
L 102 154 
Q 326 205 384 275 
Q 442 346 442 563 
L 442 2387 
Q 442 2598 374 2675 
Q 307 2752 96 2797 
L 96 2950 
L 1331 2950 
L 1331 544 
Q 1331 339 1398 259 
Q 1466 179 1638 154 
L 1638 0 
z
" transform="scale(0.015625)"/>
     <path id="STIXGeneral-Bold-73" d="M 2176 2086 
L 2016 2086 
Q 1894 2445 1715 2611 
Q 1498 2816 1235 2816 
Q 1056 2816 934 2710 
Q 813 2605 813 2445 
Q 813 2278 957 2147 
Q 1101 2016 1427 1882 
Q 1907 1683 2108 1452 
Q 2310 1222 2310 883 
Q 2310 454 2035 182 
Q 1760 -90 1325 -90 
Q 992 -90 634 58 
Q 538 96 486 96 
Q 416 96 320 -83 
L 160 -83 
L 160 973 
L 339 973 
Q 544 128 1216 128 
Q 1434 128 1565 243 
Q 1696 358 1696 544 
Q 1696 698 1555 829 
Q 1414 960 1082 1101 
Q 602 1306 387 1539 
Q 173 1773 173 2093 
Q 173 2496 457 2761 
Q 742 3027 1178 3027 
Q 1395 3027 1677 2931 
Q 1818 2886 1875 2886 
Q 1984 2886 2035 3014 
L 2176 3014 
L 2176 2086 
z
" transform="scale(0.015625)"/>
     <path id="STIXGeneral-Bold-79" d="M 3085 2950 
L 3085 2797 
Q 2931 2778 2854 2710 
Q 2778 2643 2701 2445 
L 1754 -102 
Q 1466 -877 1261 -1101 
Q 1062 -1312 723 -1312 
Q 448 -1312 275 -1171 
Q 102 -1030 102 -806 
Q 102 -621 211 -499 
Q 320 -378 499 -378 
Q 659 -378 771 -474 
Q 883 -570 883 -710 
Q 883 -736 870 -800 
L 864 -838 
Q 864 -883 896 -915 
Q 928 -947 973 -947 
Q 1216 -947 1395 -422 
L 1510 -83 
L 749 1773 
Q 435 2547 320 2707 
Q 269 2771 102 2797 
L 102 2950 
L 1696 2950 
L 1696 2797 
L 1594 2790 
Q 1363 2771 1363 2630 
Q 1363 2586 1491 2259 
L 1952 1069 
L 2387 2272 
Q 2458 2477 2458 2586 
Q 2458 2701 2387 2745 
Q 2317 2790 2112 2797 
L 2112 2950 
L 3085 2950 
z
" transform="scale(0.015625)"/>
     <path id="STIXGeneral-Bold-76" d="M 3104 2950 
L 3104 2797 
Q 2950 2784 2886 2723 
Q 2822 2662 2733 2445 
L 1709 -90 
L 1542 -90 
L 774 1805 
Q 474 2547 352 2707 
Q 301 2771 134 2797 
L 134 2950 
L 1734 2950 
L 1734 2797 
L 1619 2784 
Q 1395 2758 1395 2630 
Q 1395 2573 1453 2432 
L 1958 1133 
L 2419 2298 
Q 2490 2464 2490 2586 
Q 2490 2701 2416 2742 
Q 2342 2784 2138 2797 
L 2138 2950 
L 3104 2950 
z
" transform="scale(0.015625)"/>
     <path id="STIXGeneral-Bold-2e" d="M 1184 838 
Q 1344 678 1344 454 
Q 1344 230 1184 73 
Q 1024 -83 800 -83 
Q 570 -83 416 70 
Q 262 224 262 454 
Q 262 678 422 838 
Q 582 998 806 998 
Q 1024 998 1184 838 
z
" transform="scale(0.015625)"/>
     <path id="STIXGeneral-Bold-4e" d="M 4486 4326 
L 4486 4166 
Q 4166 4115 4076 4022 
Q 3987 3930 3987 3635 
L 3987 -115 
L 3808 -115 
L 947 3373 
L 947 838 
Q 947 467 1062 336 
Q 1178 205 1549 160 
L 1549 0 
L 102 0 
L 102 160 
Q 454 205 560 304 
Q 666 403 666 698 
L 666 3706 
Q 333 4166 122 4166 
L 122 4326 
L 1472 4326 
L 3706 1574 
L 3706 3488 
Q 3706 3872 3590 4003 
Q 3475 4134 3117 4166 
L 3117 4326 
L 4486 4326 
z
" transform="scale(0.015625)"/>
     <path id="STIXGeneral-Bold-75" d="M 3443 128 
L 3040 83 
Q 2509 26 2195 -83 
L 2195 333 
Q 1946 96 1738 3 
Q 1530 -90 1267 -90 
Q 864 -90 640 153 
Q 416 397 416 838 
L 416 2381 
Q 416 2605 358 2681 
Q 301 2758 102 2797 
L 102 2950 
L 1306 2950 
L 1306 813 
Q 1306 326 1664 326 
Q 1914 326 2189 627 
L 2189 2394 
Q 2189 2611 2112 2694 
Q 2035 2778 1798 2797 
L 1798 2950 
L 3078 2950 
L 3078 672 
Q 3078 461 3155 371 
Q 3232 282 3443 275 
L 3443 128 
z
" transform="scale(0.015625)"/>
     <path id="STIXGeneral-Bold-6d" d="M 5210 0 
L 3693 0 
L 3693 154 
Q 3872 166 3936 246 
Q 4000 326 4000 531 
L 4000 1990 
Q 4000 2598 3661 2598 
Q 3475 2598 3290 2438 
Q 3232 2394 3174 2323 
Q 3117 2253 3117 2227 
L 3117 531 
Q 3117 346 3181 259 
Q 3245 173 3411 154 
L 3411 0 
L 1926 0 
L 1926 154 
Q 2099 166 2163 249 
Q 2227 333 2227 531 
L 2227 2067 
Q 2227 2355 2147 2476 
Q 2067 2598 1882 2598 
Q 1760 2598 1552 2454 
Q 1344 2310 1344 2202 
L 1344 531 
Q 1344 346 1405 262 
Q 1466 179 1632 154 
L 1632 0 
L 102 0 
L 102 154 
Q 314 192 384 272 
Q 454 352 454 550 
L 454 2387 
Q 454 2611 384 2688 
Q 314 2765 96 2797 
L 96 2950 
L 1325 2950 
L 1325 2470 
L 1344 2470 
Q 1530 2765 1744 2896 
Q 1958 3027 2266 3027 
Q 2566 3027 2752 2899 
Q 2938 2771 3085 2470 
Q 3334 2778 3542 2902 
Q 3750 3027 4026 3027 
Q 4422 3027 4656 2784 
Q 4890 2541 4890 2118 
L 4890 531 
Q 4890 326 4957 243 
Q 5024 160 5210 154 
L 5210 0 
z
" transform="scale(0.015625)"/>
     <path id="STIXGeneral-Bold-62" d="M 1350 4326 
L 1350 2669 
Q 1690 3027 2131 3027 
Q 2662 3027 2998 2611 
Q 3334 2195 3334 1530 
Q 3334 806 2931 358 
Q 2528 -90 1888 -90 
Q 1440 -90 1043 275 
L 538 -83 
L 461 -83 
L 461 3802 
Q 461 3994 397 4061 
Q 333 4128 109 4173 
L 109 4326 
L 1350 4326 
z
M 1350 2304 
L 1350 621 
Q 1350 390 1472 252 
Q 1594 115 1792 115 
Q 2394 115 2394 1414 
Q 2394 2682 1798 2682 
Q 1638 2682 1536 2595 
Q 1434 2509 1350 2304 
z
" transform="scale(0.015625)"/>
     <path id="STIXGeneral-Bold-65" d="M 2579 806 
L 2733 717 
Q 2451 269 2166 89 
Q 1882 -90 1466 -90 
Q 890 -90 525 342 
Q 160 774 160 1434 
Q 160 2150 528 2588 
Q 896 3027 1498 3027 
Q 2029 3027 2317 2707 
Q 2656 2336 2694 1568 
L 1082 1568 
Q 1101 1299 1133 1116 
Q 1165 934 1241 748 
Q 1318 563 1468 467 
Q 1619 371 1843 371 
Q 2048 371 2214 470 
Q 2381 570 2579 806 
z
M 1907 1805 
L 1907 1939 
Q 1907 2406 1850 2528 
Q 1773 2688 1699 2758 
Q 1626 2829 1498 2829 
Q 1267 2829 1158 2595 
Q 1050 2362 1050 1805 
L 1907 1805 
z
" transform="scale(0.015625)"/>
     <path id="STIXGeneral-Bold-72" d="M 1395 2950 
L 1395 2426 
Q 1619 2752 1817 2889 
Q 2016 3027 2259 3027 
Q 2483 3027 2630 2883 
Q 2778 2739 2778 2522 
Q 2778 2330 2666 2208 
Q 2554 2086 2374 2086 
Q 2138 2086 1990 2330 
Q 1901 2477 1811 2477 
Q 1645 2477 1533 2285 
Q 1421 2093 1421 1811 
L 1421 678 
Q 1421 371 1507 272 
Q 1594 173 1882 154 
L 1882 0 
L 186 0 
L 186 154 
Q 397 192 464 265 
Q 531 339 531 538 
L 531 2387 
Q 531 2611 460 2688 
Q 390 2765 179 2797 
L 179 2950 
L 1395 2950 
z
" transform="scale(0.015625)"/>
     <path id="STIXGeneral-Bold-6f" d="M 3046 1466 
Q 3046 794 2633 352 
Q 2221 -90 1600 -90 
Q 992 -90 576 348 
Q 160 787 160 1459 
Q 160 2157 573 2592 
Q 986 3027 1626 3027 
Q 2234 3027 2640 2585 
Q 3046 2144 3046 1466 
z
M 2106 1395 
Q 2106 2214 1997 2521 
Q 1888 2829 1606 2829 
Q 1312 2829 1206 2525 
Q 1101 2221 1101 1395 
Q 1101 698 1216 403 
Q 1331 109 1606 109 
Q 1882 109 1994 393 
Q 2106 678 2106 1395 
z
" transform="scale(0.015625)"/>
     <path id="STIXGeneral-Bold-66" d="M 90 2950 
L 454 2950 
Q 454 3789 710 4096 
Q 979 4422 1574 4422 
Q 1984 4422 2237 4243 
Q 2490 4064 2490 3782 
Q 2490 3603 2381 3488 
Q 2272 3373 2093 3373 
Q 1933 3373 1821 3481 
Q 1709 3590 1709 3738 
Q 1709 3866 1779 3971 
Q 1850 4077 1850 4102 
Q 1850 4224 1664 4224 
Q 1491 4224 1417 4112 
Q 1344 4000 1344 3718 
L 1344 2950 
L 1894 2950 
L 1894 2669 
L 1344 2669 
L 1344 685 
Q 1344 365 1440 262 
Q 1536 160 1869 154 
L 1869 0 
L 90 0 
L 90 154 
Q 307 179 380 259 
Q 454 339 454 557 
L 454 2669 
L 90 2669 
L 90 2950 
z
" transform="scale(0.015625)"/>
     <path id="STIXGeneral-Bold-54" d="M 4070 3040 
L 3885 3040 
Q 3802 3610 3523 3856 
Q 3245 4102 2656 4122 
L 2656 749 
Q 2656 384 2761 288 
Q 2867 192 3283 160 
L 3283 0 
L 998 0 
L 998 160 
Q 1408 192 1513 291 
Q 1619 390 1619 749 
L 1619 4122 
Q 1024 4102 745 3856 
Q 467 3610 384 3040 
L 198 3040 
L 218 4326 
L 4058 4326 
L 4070 3040 
z
" transform="scale(0.015625)"/>
     <path id="STIXGeneral-Bold-74" d="M 1965 717 
L 2125 646 
Q 1926 250 1712 86 
Q 1498 -77 1178 -77 
Q 845 -77 653 105 
Q 461 288 461 608 
L 461 2669 
L 122 2669 
L 122 2842 
Q 435 3053 646 3299 
Q 858 3546 1190 4032 
L 1350 4032 
L 1350 2950 
L 1958 2950 
L 1958 2669 
L 1350 2669 
L 1350 762 
Q 1350 378 1600 378 
Q 1786 378 1965 717 
z
" transform="scale(0.015625)"/>
    </defs>
    <use xlink:href="#STIXGeneral-Italic-3c7" transform="translate(0 0.409375)"/>
    <use xlink:href="#STIXGeneral-Regular-32" transform="translate(51.873122 35.684375) scale(0.7)"/>
    <use xlink:href="#STIXGeneral-Italic-72" transform="translate(45.699997 -26.046875) scale(0.7)"/>
    <use xlink:href="#STIXGeneral-Bold-20" transform="translate(91.282486 0.409375)"/>
    <use xlink:href="#STIXGeneral-Bold-41" transform="translate(116.282471 0.409375)"/>
    <use xlink:href="#STIXGeneral-Bold-6e" transform="translate(188.482453 0.409375)"/>
    <use xlink:href="#STIXGeneral-Bold-61" transform="translate(244.082444 0.409375)"/>
    <use xlink:href="#STIXGeneral-Bold-6c" transform="translate(294.082428 0.409375)"/>
    <use xlink:href="#STIXGeneral-Bold-69" transform="translate(321.882416 0.409375)"/>
    <use xlink:href="#STIXGeneral-Bold-73" transform="translate(349.682404 0.409375)"/>
    <use xlink:href="#STIXGeneral-Bold-79" transform="translate(388.582398 0.409375)"/>
    <use xlink:href="#STIXGeneral-Bold-73" transform="translate(438.582383 0.409375)"/>
    <use xlink:href="#STIXGeneral-Bold-20" transform="translate(477.482376 0.409375)"/>
    <use xlink:href="#STIXGeneral-Bold-76" transform="translate(502.482361 0.409375)"/>
    <use xlink:href="#STIXGeneral-Bold-73" transform="translate(552.482346 0.409375)"/>
    <use xlink:href="#STIXGeneral-Bold-2e" transform="translate(591.38234 0.409375)"/>
    <use xlink:href="#STIXGeneral-Bold-20" transform="translate(616.382325 0.409375)"/>
    <use xlink:href="#STIXGeneral-Bold-4e" transform="translate(641.382309 0.409375)"/>
    <use xlink:href="#STIXGeneral-Bold-75" transform="translate(713.582291 0.409375)"/>
    <use xlink:href="#STIXGeneral-Bold-6d" transform="translate(769.182282 0.409375)"/>
    <use xlink:href="#STIXGeneral-Bold-62" transform="translate(852.48227 0.409375)"/>
    <use xlink:href="#STIXGeneral-Bold-65" transform="translate(908.08226 0.409375)"/>
    <use xlink:href="#STIXGeneral-Bold-72" transform="translate(952.482254 0.409375)"/>
    <use xlink:href="#STIXGeneral-Bold-20" transform="translate(996.882248 0.409375)"/>
    <use xlink:href="#STIXGeneral-Bold-6f" transform="translate(1021.882233 0.409375)"/>
    <use xlink:href="#STIXGeneral-Bold-66" transform="translate(1071.882218 0.409375)"/>
    <use xlink:href="#STIXGeneral-Bold-20" transform="translate(1105.182206 0.409375)"/>
    <use xlink:href="#STIXGeneral-Bold-54" transform="translate(1130.18219 0.409375)"/>
    <use xlink:href="#STIXGeneral-Bold-72" transform="translate(1196.882187 0.409375)"/>
    <use xlink:href="#STIXGeneral-Bold-61" transform="translate(1241.282181 0.409375)"/>
    <use xlink:href="#STIXGeneral-Bold-6e" transform="translate(1291.282166 0.409375)"/>
    <use xlink:href="#STIXGeneral-Bold-73" transform="translate(1346.882157 0.409375)"/>
    <use xlink:href="#STIXGeneral-Bold-69" transform="translate(1385.782151 0.409375)"/>
    <use xlink:href="#STIXGeneral-Bold-74" transform="translate(1413.582138 0.409375)"/>
    <use xlink:href="#STIXGeneral-Bold-73" transform="translate(1446.882126 0.409375)"/>
   </g>
  </g>
 </g>
 <defs>
  <clipPath id="p2def6b1fae">
   <rect x="63.051403" y="76.68" width="430.148597" height="496.793363"/>
  </clipPath>
 </defs>
</svg>
