<?xml version="1.0" encoding="utf-8" standalone="no"?>
<!DOCTYPE svg PUBLIC "-//W3C//DTD SVG 1.1//EN"
  "http://www.w3.org/Graphics/SVG/1.1/DTD/svg11.dtd">
<svg xmlns:xlink="http://www.w3.org/1999/xlink" width="720pt" height="504pt" viewBox="0 0 720 504" xmlns="http://www.w3.org/2000/svg" version="1.1">
 <metadata>
  <rdf:RDF xmlns:dc="http://purl.org/dc/elements/1.1/" xmlns:cc="http://creativecommons.org/ns#" xmlns:rdf="http://www.w3.org/1999/02/22-rdf-syntax-ns#">
   <cc:Work>
    <dc:type rdf:resource="http://purl.org/dc/dcmitype/StillImage"/>
    <dc:date>2025-10-13T13:42:00.484313</dc:date>
    <dc:format>image/svg+xml</dc:format>
    <dc:creator>
     <cc:Agent>
      <dc:title>Matplotlib v3.9.2, https://matplotlib.org/</dc:title>
     </cc:Agent>
    </dc:creator>
   </cc:Work>
  </rdf:RDF>
 </metadata>
 <defs>
  <style type="text/css">*{stroke-linejoin: round; stroke-linecap: butt}</style>
 </defs>
 <g id="figure_1">
  <g id="patch_1">
   <path d="M 0 504 
L 720 504 
L 720 0 
L 0 0 
z
" style="fill: #ffffff"/>
  </g>
  <g id="axes_1">
   <g id="patch_2">
    <path d="M 64.131403 432.713363 
L 708.12 432.713363 
L 708.12 67.44375 
L 64.131403 67.44375 
z
" style="fill: #ffffff"/>
   </g>
   <g id="line2d_1">
    <path d="M 64.131403 365.165532 
L 708.12 365.165532 
" clip-path="url(#p4695d4c56c)" style="fill: none; stroke-dasharray: 1.5,2.475; stroke-dashoffset: 0; stroke: #000000; stroke-opacity: 0.6; stroke-width: 1.5"/>
   </g>
   <g id="PolyCollection_1">
    <defs>
     <path id="m0d14bbe5ba" d="M 93.403612 -138.968503 
L 93.403612 -138.968503 
L 257.813731 -138.844076 
L 373.523562 -138.851612 
L 530.055413 -138.827098 
L 678.847791 -138.95714 
L 678.847791 -138.95714 
L 678.847791 -138.95714 
L 530.055413 -138.827098 
L 373.523562 -138.851612 
L 257.813731 -138.844076 
L 93.403612 -138.968503 
z
" style="stroke: #f4a261; stroke-opacity: 0.2"/>
    </defs>
    <g clip-path="url(#p4695d4c56c)">
     <use xlink:href="#m0d14bbe5ba" x="0" y="504" style="fill: #f4a261; fill-opacity: 0.2; stroke: #f4a261; stroke-opacity: 0.2"/>
    </g>
   </g>
   <g id="PolyCollection_2">
    <defs>
     <path id="mb5db96e9e5" d="M 93.403612 -305.905404 
L 93.403612 -87.889801 
L 257.813731 -113.60512 
L 373.523562 -131.801238 
L 530.055413 -156.395077 
L 678.847791 -179.802429 
L 678.847791 -400.087633 
L 678.847791 -400.087633 
L 530.055413 -376.649629 
L 373.523562 -351.613495 
L 257.813731 -332.256649 
L 93.403612 -305.905404 
z
" style="stroke: #2a9d8f; stroke-opacity: 0.2"/>
    </defs>
    <g clip-path="url(#p4695d4c56c)">
     <use xlink:href="#mb5db96e9e5" x="0" y="504" style="fill: #2a9d8f; fill-opacity: 0.2; stroke: #2a9d8f; stroke-opacity: 0.2"/>
    </g>
   </g>
   <g id="PolyCollection_3">
    <defs>
     <path id="m374c2d37ae" d="M 93.403612 -384.064204 
L 93.403612 -120.443799 
L 257.813731 -128.384216 
L 373.523562 -134.435097 
L 530.055413 -145.680718 
L 678.847791 -148.671568 
L 678.847791 -419.953086 
L 678.847791 -419.953086 
L 530.055413 -418.737808 
L 373.523562 -409.181125 
L 257.813731 -395.227585 
L 93.403612 -384.064204 
z
" style="stroke: #264653; stroke-opacity: 0.2"/>
    </defs>
    <g clip-path="url(#p4695d4c56c)">
     <use xlink:href="#m374c2d37ae" x="0" y="504" style="fill: #264653; fill-opacity: 0.2; stroke: #264653; stroke-opacity: 0.2"/>
    </g>
   </g>
   <g id="matplotlib.axis_1">
    <g id="xtick_1">
     <g id="line2d_2">
      <path d="M 93.403612 432.713363 
L 93.403612 67.44375 
" clip-path="url(#p4695d4c56c)" style="fill: none; stroke-dasharray: 2.59,1.12; stroke-dashoffset: 0; stroke: #b0b0b0; stroke-width: 0.7"/>
     </g>
     <g id="line2d_3">
      <defs>
       <path id="m9336257d90" d="M 0 0 
L 0 3.5 
" style="stroke: #000000; stroke-width: 0.8"/>
      </defs>
      <g>
       <use xlink:href="#m9336257d90" x="93.403612" y="432.713363" style="stroke: #000000; stroke-width: 0.8"/>
      </g>
     </g>
     <g id="text_1">
      <!-- 2 -->
      <g transform="translate(87.3194 449.751186) rotate(-45) scale(0.12 -0.12)">
       <defs>
        <path id="STIXGeneral-Regular-32" d="M 3034 877 
L 2688 0 
L 186 0 
L 186 77 
L 1325 1286 
Q 1773 1754 1965 2144 
Q 2157 2534 2157 2950 
Q 2157 3379 1920 3616 
Q 1683 3853 1267 3853 
Q 922 3853 720 3673 
Q 518 3494 326 3021 
L 192 3053 
Q 301 3648 630 3987 
Q 960 4326 1523 4326 
Q 2054 4326 2380 4006 
Q 2707 3686 2707 3200 
Q 2707 2477 1888 1613 
L 832 486 
L 2330 486 
Q 2541 486 2665 569 
Q 2790 653 2944 915 
L 3034 877 
z
" transform="scale(0.015625)"/>
       </defs>
       <use xlink:href="#STIXGeneral-Regular-32"/>
      </g>
     </g>
    </g>
    <g id="xtick_2">
     <g id="line2d_4">
      <path d="M 257.813731 432.713363 
L 257.813731 67.44375 
" clip-path="url(#p4695d4c56c)" style="fill: none; stroke-dasharray: 2.59,1.12; stroke-dashoffset: 0; stroke: #b0b0b0; stroke-width: 0.7"/>
     </g>
     <g id="line2d_5">
      <g>
       <use xlink:href="#m9336257d90" x="257.813731" y="432.713363" style="stroke: #000000; stroke-width: 0.8"/>
      </g>
     </g>
     <g id="text_2">
      <!-- 6 -->
      <g transform="translate(251.72952 449.751186) rotate(-45) scale(0.12 -0.12)">
       <defs>
        <path id="STIXGeneral-Regular-36" d="M 2854 4378 
L 2867 4275 
Q 2112 4154 1606 3664 
Q 1101 3174 973 2451 
Q 1344 2739 1786 2739 
Q 2349 2739 2672 2380 
Q 2995 2022 2995 1402 
Q 2995 774 2669 378 
Q 2291 -90 1651 -90 
Q 870 -90 518 557 
Q 218 1107 218 1786 
Q 218 2835 915 3552 
Q 1312 3962 1731 4131 
Q 2150 4301 2854 4378 
z
M 2419 1203 
Q 2419 2445 1555 2445 
Q 1235 2445 1024 2275 
Q 813 2106 813 1702 
Q 813 954 1046 522 
Q 1280 90 1722 90 
Q 2061 90 2240 394 
Q 2419 698 2419 1203 
z
" transform="scale(0.015625)"/>
       </defs>
       <use xlink:href="#STIXGeneral-Regular-36"/>
      </g>
     </g>
    </g>
    <g id="xtick_3">
     <g id="line2d_6">
      <path d="M 373.523562 432.713363 
L 373.523562 67.44375 
" clip-path="url(#p4695d4c56c)" style="fill: none; stroke-dasharray: 2.59,1.12; stroke-dashoffset: 0; stroke: #b0b0b0; stroke-width: 0.7"/>
     </g>
     <g id="line2d_7">
      <g>
       <use xlink:href="#m9336257d90" x="373.523562" y="432.713363" style="stroke: #000000; stroke-width: 0.8"/>
      </g>
     </g>
     <g id="text_3">
      <!-- 13 -->
      <g transform="translate(363.196709 453.993827) rotate(-45) scale(0.12 -0.12)">
       <defs>
        <path id="STIXGeneral-Regular-31" d="M 2522 0 
L 755 0 
L 755 96 
Q 1107 115 1235 227 
Q 1363 339 1363 608 
L 1363 3482 
Q 1363 3795 1171 3795 
Q 1082 3795 883 3718 
L 710 3654 
L 710 3744 
L 1856 4326 
L 1914 4307 
L 1914 486 
Q 1914 275 2042 185 
Q 2170 96 2522 96 
L 2522 0 
z
" transform="scale(0.015625)"/>
        <path id="STIXGeneral-Regular-33" d="M 390 3264 
L 288 3290 
Q 435 3770 748 4048 
Q 1062 4326 1542 4326 
Q 1990 4326 2265 4083 
Q 2541 3840 2541 3450 
Q 2541 2925 1946 2566 
Q 2298 2413 2477 2227 
Q 2758 1914 2758 1402 
Q 2758 890 2464 506 
Q 2246 211 1840 60 
Q 1434 -90 979 -90 
Q 262 -90 262 275 
Q 262 378 339 442 
Q 416 506 525 506 
Q 685 506 915 339 
Q 1197 141 1466 141 
Q 1818 141 2058 425 
Q 2298 710 2298 1120 
Q 2298 1856 1632 2048 
Q 1434 2112 979 2112 
L 979 2202 
Q 1338 2323 1517 2432 
Q 2035 2726 2035 3290 
Q 2035 3610 1852 3776 
Q 1670 3942 1344 3942 
Q 768 3942 390 3264 
z
" transform="scale(0.015625)"/>
       </defs>
       <use xlink:href="#STIXGeneral-Regular-31"/>
       <use xlink:href="#STIXGeneral-Regular-33" x="49.999985"/>
      </g>
     </g>
    </g>
    <g id="xtick_4">
     <g id="line2d_8">
      <path d="M 530.055413 432.713363 
L 530.055413 67.44375 
" clip-path="url(#p4695d4c56c)" style="fill: none; stroke-dasharray: 2.59,1.12; stroke-dashoffset: 0; stroke: #b0b0b0; stroke-width: 0.7"/>
     </g>
     <g id="line2d_9">
      <g>
       <use xlink:href="#m9336257d90" x="530.055413" y="432.713363" style="stroke: #000000; stroke-width: 0.8"/>
      </g>
     </g>
     <g id="text_4">
      <!-- 37 -->
      <g transform="translate(519.72856 453.993827) rotate(-45) scale(0.12 -0.12)">
       <defs>
        <path id="STIXGeneral-Regular-37" d="M 2874 4134 
L 1517 -51 
L 1101 -51 
L 2368 3763 
L 992 3763 
Q 717 3763 582 3667 
Q 448 3571 243 3238 
L 128 3296 
L 512 4237 
L 2874 4237 
L 2874 4134 
z
" transform="scale(0.015625)"/>
       </defs>
       <use xlink:href="#STIXGeneral-Regular-33"/>
       <use xlink:href="#STIXGeneral-Regular-37" x="49.999985"/>
      </g>
     </g>
    </g>
    <g id="xtick_5">
     <g id="line2d_10">
      <path d="M 678.847791 432.713363 
L 678.847791 67.44375 
" clip-path="url(#p4695d4c56c)" style="fill: none; stroke-dasharray: 2.59,1.12; stroke-dashoffset: 0; stroke: #b0b0b0; stroke-width: 0.7"/>
     </g>
     <g id="line2d_11">
      <g>
       <use xlink:href="#m9336257d90" x="678.847791" y="432.713363" style="stroke: #000000; stroke-width: 0.8"/>
      </g>
     </g>
     <g id="text_5">
      <!-- 100 -->
      <g transform="translate(664.278298 458.236467) rotate(-45) scale(0.12 -0.12)">
       <defs>
        <path id="STIXGeneral-Regular-30" d="M 3046 2112 
Q 3046 1683 2963 1302 
Q 2880 922 2717 602 
Q 2554 282 2266 96 
Q 1978 -90 1600 -90 
Q 1210 -90 915 108 
Q 621 307 461 640 
Q 301 973 227 1350 
Q 154 1728 154 2150 
Q 154 2746 301 3222 
Q 448 3699 790 4012 
Q 1133 4326 1626 4326 
Q 2253 4326 2649 3712 
Q 3046 3098 3046 2112 
z
M 2432 2080 
Q 2432 3091 2217 3625 
Q 2003 4160 1587 4160 
Q 1190 4160 979 3622 
Q 768 3085 768 2106 
Q 768 1120 979 598 
Q 1190 77 1600 77 
Q 2003 77 2217 598 
Q 2432 1120 2432 2080 
z
" transform="scale(0.015625)"/>
       </defs>
       <use xlink:href="#STIXGeneral-Regular-31"/>
       <use xlink:href="#STIXGeneral-Regular-30" x="49.999985"/>
       <use xlink:href="#STIXGeneral-Regular-30" x="99.999969"/>
      </g>
     </g>
    </g>
    <g id="xtick_6">
     <g id="line2d_12">
      <path d="M 154.082495 432.713363 
L 154.082495 67.44375 
" clip-path="url(#p4695d4c56c)" style="fill: none; stroke-dasharray: 2.59,1.12; stroke-dashoffset: 0; stroke: #b0b0b0; stroke-width: 0.7"/>
     </g>
     <g id="line2d_13">
      <defs>
       <path id="m7ebd0b5a7b" d="M 0 0 
L 0 2 
" style="stroke: #000000; stroke-width: 0.6"/>
      </defs>
      <g>
       <use xlink:href="#m7ebd0b5a7b" x="154.082495" y="432.713363" style="stroke: #000000; stroke-width: 0.6"/>
      </g>
     </g>
    </g>
    <g id="xtick_7">
     <g id="line2d_14">
      <path d="M 197.134848 432.713363 
L 197.134848 67.44375 
" clip-path="url(#p4695d4c56c)" style="fill: none; stroke-dasharray: 2.59,1.12; stroke-dashoffset: 0; stroke: #b0b0b0; stroke-width: 0.7"/>
     </g>
     <g id="line2d_15">
      <g>
       <use xlink:href="#m7ebd0b5a7b" x="197.134848" y="432.713363" style="stroke: #000000; stroke-width: 0.6"/>
      </g>
     </g>
    </g>
    <g id="xtick_8">
     <g id="line2d_16">
      <path d="M 230.528847 432.713363 
L 230.528847 67.44375 
" clip-path="url(#p4695d4c56c)" style="fill: none; stroke-dasharray: 2.59,1.12; stroke-dashoffset: 0; stroke: #b0b0b0; stroke-width: 0.7"/>
     </g>
     <g id="line2d_17">
      <g>
       <use xlink:href="#m7ebd0b5a7b" x="230.528847" y="432.713363" style="stroke: #000000; stroke-width: 0.6"/>
      </g>
     </g>
    </g>
    <g id="xtick_9">
     <g id="line2d_18">
      <path d="M 280.882772 432.713363 
L 280.882772 67.44375 
" clip-path="url(#p4695d4c56c)" style="fill: none; stroke-dasharray: 2.59,1.12; stroke-dashoffset: 0; stroke: #b0b0b0; stroke-width: 0.7"/>
     </g>
     <g id="line2d_19">
      <g>
       <use xlink:href="#m7ebd0b5a7b" x="280.882772" y="432.713363" style="stroke: #000000; stroke-width: 0.6"/>
      </g>
     </g>
    </g>
    <g id="xtick_10">
     <g id="line2d_20">
      <path d="M 300.866084 432.713363 
L 300.866084 67.44375 
" clip-path="url(#p4695d4c56c)" style="fill: none; stroke-dasharray: 2.59,1.12; stroke-dashoffset: 0; stroke: #b0b0b0; stroke-width: 0.7"/>
     </g>
     <g id="line2d_21">
      <g>
       <use xlink:href="#m7ebd0b5a7b" x="300.866084" y="432.713363" style="stroke: #000000; stroke-width: 0.6"/>
      </g>
     </g>
    </g>
    <g id="xtick_11">
     <g id="line2d_22">
      <path d="M 318.492615 432.713363 
L 318.492615 67.44375 
" clip-path="url(#p4695d4c56c)" style="fill: none; stroke-dasharray: 2.59,1.12; stroke-dashoffset: 0; stroke: #b0b0b0; stroke-width: 0.7"/>
     </g>
     <g id="line2d_23">
      <g>
       <use xlink:href="#m7ebd0b5a7b" x="318.492615" y="432.713363" style="stroke: #000000; stroke-width: 0.6"/>
      </g>
     </g>
    </g>
    <g id="xtick_12">
     <g id="line2d_24">
      <path d="M 437.99132 432.713363 
L 437.99132 67.44375 
" clip-path="url(#p4695d4c56c)" style="fill: none; stroke-dasharray: 2.59,1.12; stroke-dashoffset: 0; stroke: #b0b0b0; stroke-width: 0.7"/>
     </g>
     <g id="line2d_25">
      <g>
       <use xlink:href="#m7ebd0b5a7b" x="437.99132" y="432.713363" style="stroke: #000000; stroke-width: 0.6"/>
      </g>
     </g>
    </g>
    <g id="xtick_13">
     <g id="line2d_26">
      <path d="M 498.670203 432.713363 
L 498.670203 67.44375 
" clip-path="url(#p4695d4c56c)" style="fill: none; stroke-dasharray: 2.59,1.12; stroke-dashoffset: 0; stroke: #b0b0b0; stroke-width: 0.7"/>
     </g>
     <g id="line2d_27">
      <g>
       <use xlink:href="#m7ebd0b5a7b" x="498.670203" y="432.713363" style="stroke: #000000; stroke-width: 0.6"/>
      </g>
     </g>
    </g>
    <g id="xtick_14">
     <g id="line2d_28">
      <path d="M 541.722556 432.713363 
L 541.722556 67.44375 
" clip-path="url(#p4695d4c56c)" style="fill: none; stroke-dasharray: 2.59,1.12; stroke-dashoffset: 0; stroke: #b0b0b0; stroke-width: 0.7"/>
     </g>
     <g id="line2d_29">
      <g>
       <use xlink:href="#m7ebd0b5a7b" x="541.722556" y="432.713363" style="stroke: #000000; stroke-width: 0.6"/>
      </g>
     </g>
    </g>
    <g id="xtick_15">
     <g id="line2d_30">
      <path d="M 575.116555 432.713363 
L 575.116555 67.44375 
" clip-path="url(#p4695d4c56c)" style="fill: none; stroke-dasharray: 2.59,1.12; stroke-dashoffset: 0; stroke: #b0b0b0; stroke-width: 0.7"/>
     </g>
     <g id="line2d_31">
      <g>
       <use xlink:href="#m7ebd0b5a7b" x="575.116555" y="432.713363" style="stroke: #000000; stroke-width: 0.6"/>
      </g>
     </g>
    </g>
    <g id="xtick_16">
     <g id="line2d_32">
      <path d="M 602.401439 432.713363 
L 602.401439 67.44375 
" clip-path="url(#p4695d4c56c)" style="fill: none; stroke-dasharray: 2.59,1.12; stroke-dashoffset: 0; stroke: #b0b0b0; stroke-width: 0.7"/>
     </g>
     <g id="line2d_33">
      <g>
       <use xlink:href="#m7ebd0b5a7b" x="602.401439" y="432.713363" style="stroke: #000000; stroke-width: 0.6"/>
      </g>
     </g>
    </g>
    <g id="xtick_17">
     <g id="line2d_34">
      <path d="M 625.47048 432.713363 
L 625.47048 67.44375 
" clip-path="url(#p4695d4c56c)" style="fill: none; stroke-dasharray: 2.59,1.12; stroke-dashoffset: 0; stroke: #b0b0b0; stroke-width: 0.7"/>
     </g>
     <g id="line2d_35">
      <g>
       <use xlink:href="#m7ebd0b5a7b" x="625.47048" y="432.713363" style="stroke: #000000; stroke-width: 0.6"/>
      </g>
     </g>
    </g>
    <g id="xtick_18">
     <g id="line2d_36">
      <path d="M 645.453792 432.713363 
L 645.453792 67.44375 
" clip-path="url(#p4695d4c56c)" style="fill: none; stroke-dasharray: 2.59,1.12; stroke-dashoffset: 0; stroke: #b0b0b0; stroke-width: 0.7"/>
     </g>
     <g id="line2d_37">
      <g>
       <use xlink:href="#m7ebd0b5a7b" x="645.453792" y="432.713363" style="stroke: #000000; stroke-width: 0.6"/>
      </g>
     </g>
    </g>
    <g id="xtick_19">
     <g id="line2d_38">
      <path d="M 663.080322 432.713363 
L 663.080322 67.44375 
" clip-path="url(#p4695d4c56c)" style="fill: none; stroke-dasharray: 2.59,1.12; stroke-dashoffset: 0; stroke: #b0b0b0; stroke-width: 0.7"/>
     </g>
     <g id="line2d_39">
      <g>
       <use xlink:href="#m7ebd0b5a7b" x="663.080322" y="432.713363" style="stroke: #000000; stroke-width: 0.6"/>
      </g>
     </g>
    </g>
    <g id="text_6">
     <!-- Number of Transits -->
     <g transform="translate(331.301483 473.639601) scale(0.14 -0.14)">
      <defs>
       <path id="STIXGeneral-Regular-4e" d="M 4525 4237 
L 4525 4115 
Q 4198 4083 4102 4000 
Q 4000 3910 3958 3756 
Q 3917 3603 3917 3245 
L 3917 -70 
L 3802 -70 
L 979 3443 
L 979 960 
Q 979 474 1088 323 
Q 1197 173 1574 122 
L 1574 0 
L 77 0 
L 77 122 
Q 474 166 586 310 
Q 698 454 698 960 
L 698 3776 
Q 531 3981 416 4048 
Q 301 4115 77 4115 
L 77 4237 
L 1165 4237 
L 3635 1146 
L 3635 3322 
Q 3635 3808 3514 3949 
Q 3437 4032 3344 4061 
Q 3251 4090 3008 4115 
L 3008 4237 
L 4525 4237 
z
" transform="scale(0.015625)"/>
       <path id="STIXGeneral-Regular-75" d="M 3072 320 
L 3072 230 
Q 2573 96 2195 -58 
L 2163 -38 
L 2163 486 
L 2150 486 
Q 1747 -64 1235 -64 
Q 870 -64 662 160 
Q 454 384 454 755 
L 454 2362 
Q 454 2598 371 2688 
Q 288 2778 58 2790 
L 58 2880 
L 992 2880 
L 992 813 
Q 992 595 1123 451 
Q 1254 307 1446 307 
Q 1760 307 1984 506 
Q 2067 582 2099 649 
Q 2131 717 2131 877 
L 2131 2355 
Q 2131 2605 2041 2678 
Q 1952 2752 1658 2771 
L 1658 2880 
L 2669 2880 
L 2669 685 
Q 2669 461 2742 390 
Q 2816 320 3034 320 
L 3072 320 
z
" transform="scale(0.015625)"/>
       <path id="STIXGeneral-Regular-6d" d="M 4960 0 
L 3565 0 
L 3565 96 
Q 3834 122 3907 208 
Q 3981 294 3981 576 
L 3981 1894 
Q 3981 2278 3869 2444 
Q 3757 2611 3488 2611 
Q 3264 2611 3107 2521 
Q 2950 2432 2803 2221 
L 2803 608 
Q 2803 301 2896 201 
Q 2989 102 3264 96 
L 3264 0 
L 1830 0 
L 1830 96 
Q 2112 115 2189 188 
Q 2266 262 2266 550 
L 2266 1901 
Q 2266 2611 1850 2611 
Q 1670 2611 1468 2531 
Q 1267 2451 1171 2336 
Q 1088 2240 1088 2227 
L 1088 448 
Q 1088 243 1177 176 
Q 1267 109 1523 96 
L 1523 0 
L 102 0 
L 102 96 
Q 371 102 460 195 
Q 550 288 550 563 
L 550 2150 
Q 550 2387 499 2480 
Q 448 2573 326 2573 
Q 230 2573 122 2547 
L 122 2656 
Q 557 2778 1011 2944 
L 1062 2925 
L 1062 2451 
L 1075 2451 
Q 1363 2752 1584 2848 
Q 1805 2944 2054 2944 
Q 2560 2944 2733 2406 
Q 3232 2944 3776 2944 
Q 4518 2944 4518 1792 
L 4518 493 
Q 4518 282 4582 202 
Q 4646 122 4794 109 
L 4960 96 
L 4960 0 
z
" transform="scale(0.015625)"/>
       <path id="STIXGeneral-Regular-62" d="M 979 4358 
L 979 2406 
Q 1082 2650 1315 2797 
Q 1549 2944 1843 2944 
Q 2349 2944 2672 2541 
Q 2995 2138 2995 1536 
Q 2995 832 2566 384 
Q 2138 -64 1498 -64 
Q 1107 -64 774 67 
Q 442 198 442 358 
L 442 3622 
Q 442 3859 384 3926 
Q 326 3994 128 3994 
Q 83 3994 19 3981 
L 19 4090 
L 211 4147 
Q 864 4346 947 4371 
L 979 4358 
z
M 979 2035 
L 979 474 
Q 979 326 1161 233 
Q 1344 141 1600 141 
Q 1978 141 2195 416 
Q 2432 710 2432 1261 
Q 2432 1888 2182 2240 
Q 1971 2541 1613 2541 
Q 1357 2541 1168 2390 
Q 979 2240 979 2035 
z
" transform="scale(0.015625)"/>
       <path id="STIXGeneral-Regular-65" d="M 2611 1050 
L 2714 1005 
Q 2330 -64 1376 -64 
Q 813 -64 486 329 
Q 160 723 160 1389 
Q 160 2074 525 2509 
Q 890 2944 1485 2944 
Q 2061 2944 2374 2502 
Q 2560 2246 2592 1773 
L 621 1773 
Q 646 1370 700 1158 
Q 755 947 915 730 
Q 1184 378 1626 378 
Q 1939 378 2153 531 
Q 2368 685 2611 1050 
z
M 634 1978 
L 1939 1978 
Q 1882 2381 1750 2547 
Q 1619 2714 1312 2714 
Q 1043 2714 864 2525 
Q 685 2336 634 1978 
z
" transform="scale(0.015625)"/>
       <path id="STIXGeneral-Regular-72" d="M 1024 2931 
L 1024 2342 
Q 1267 2688 1430 2816 
Q 1594 2944 1792 2944 
Q 1958 2944 2051 2854 
Q 2144 2765 2144 2605 
Q 2144 2470 2077 2393 
Q 2010 2317 1894 2317 
Q 1773 2317 1638 2445 
Q 1536 2541 1472 2541 
Q 1338 2541 1181 2355 
Q 1024 2170 1024 2016 
L 1024 576 
Q 1024 301 1133 205 
Q 1242 109 1568 96 
L 1568 0 
L 32 0 
L 32 96 
Q 339 154 412 224 
Q 486 294 486 538 
L 486 2138 
Q 486 2349 438 2435 
Q 390 2522 269 2522 
Q 166 2522 45 2496 
L 45 2598 
Q 448 2726 992 2944 
L 1024 2931 
z
" transform="scale(0.015625)"/>
       <path id="STIXGeneral-Regular-20" transform="scale(0.015625)"/>
       <path id="STIXGeneral-Regular-6f" d="M 3008 1478 
Q 3008 806 2608 371 
Q 2208 -64 1568 -64 
Q 979 -64 582 368 
Q 186 800 186 1459 
Q 186 2125 582 2534 
Q 979 2944 1626 2944 
Q 2221 2944 2614 2537 
Q 3008 2131 3008 1478 
z
M 2432 1306 
Q 2432 2035 2112 2445 
Q 1856 2765 1504 2765 
Q 1171 2765 966 2493 
Q 762 2221 762 1747 
Q 762 928 1101 435 
Q 1318 115 1677 115 
Q 2029 115 2230 432 
Q 2432 749 2432 1306 
z
" transform="scale(0.015625)"/>
       <path id="STIXGeneral-Regular-66" d="M 134 2880 
L 659 2880 
Q 666 3264 710 3478 
Q 755 3693 883 3910 
Q 1152 4371 1786 4371 
Q 2074 4371 2262 4259 
Q 2451 4147 2451 3974 
Q 2451 3866 2374 3789 
Q 2298 3712 2182 3712 
Q 2029 3712 1894 3942 
Q 1741 4192 1555 4192 
Q 1197 4192 1197 3622 
L 1197 2880 
L 1978 2880 
L 1978 2675 
L 1197 2675 
L 1197 666 
Q 1197 307 1299 208 
Q 1402 109 1792 96 
L 1792 0 
L 128 0 
L 128 96 
Q 474 115 566 214 
Q 659 314 659 666 
L 659 2675 
L 134 2675 
L 134 2880 
z
" transform="scale(0.015625)"/>
       <path id="STIXGeneral-Regular-54" d="M 3795 3149 
L 3642 3149 
Q 3539 3674 3353 3821 
Q 3168 3968 2656 3968 
L 2278 3968 
L 2278 710 
Q 2278 346 2387 243 
Q 2496 141 2893 122 
L 2893 0 
L 1024 0 
L 1024 122 
Q 1427 147 1526 256 
Q 1626 365 1626 787 
L 1626 3968 
L 1242 3968 
Q 723 3968 540 3817 
Q 358 3667 262 3149 
L 109 3149 
L 154 4237 
L 3750 4237 
L 3795 3149 
z
" transform="scale(0.015625)"/>
       <path id="STIXGeneral-Regular-61" d="M 2829 422 
L 2829 243 
Q 2586 -64 2253 -64 
Q 1888 -64 1843 403 
L 1837 403 
Q 1427 -64 909 -64 
Q 608 -64 422 112 
Q 237 288 237 602 
Q 237 1050 685 1350 
Q 992 1555 1837 1869 
L 1837 2214 
Q 1837 2502 1699 2646 
Q 1562 2790 1338 2790 
Q 1146 2790 1018 2697 
Q 890 2605 890 2477 
Q 890 2419 909 2348 
Q 928 2278 928 2208 
Q 928 2112 841 2029 
Q 755 1946 634 1946 
Q 525 1946 441 2029 
Q 358 2112 358 2240 
Q 358 2547 685 2752 
Q 986 2944 1421 2944 
Q 1939 2944 2176 2656 
Q 2291 2522 2323 2384 
Q 2355 2246 2355 1946 
L 2355 723 
Q 2355 301 2554 301 
Q 2682 301 2829 422 
z
M 1837 813 
L 1837 1715 
Q 1248 1510 1018 1293 
Q 800 1094 800 800 
Q 800 557 921 432 
Q 1043 307 1242 307 
Q 1453 307 1613 410 
Q 1747 506 1792 589 
Q 1837 672 1837 813 
z
" transform="scale(0.015625)"/>
       <path id="STIXGeneral-Regular-6e" d="M 3104 0 
L 1773 0 
L 1779 96 
Q 2016 115 2096 233 
Q 2176 352 2176 672 
L 2176 1946 
Q 2176 2592 1709 2592 
Q 1549 2592 1408 2515 
Q 1267 2438 1050 2227 
L 1050 461 
Q 1050 269 1136 192 
Q 1222 115 1466 96 
L 1466 0 
L 115 0 
L 115 96 
Q 358 115 435 214 
Q 512 314 512 602 
L 512 2157 
Q 512 2394 467 2483 
Q 422 2573 288 2573 
Q 160 2573 102 2547 
L 102 2656 
Q 550 2784 979 2944 
L 1030 2925 
L 1030 2426 
L 1037 2426 
Q 1491 2944 1958 2944 
Q 2323 2944 2518 2688 
Q 2714 2432 2714 1958 
L 2714 544 
Q 2714 288 2790 205 
Q 2867 122 3104 96 
L 3104 0 
z
" transform="scale(0.015625)"/>
       <path id="STIXGeneral-Regular-73" d="M 998 1926 
L 1664 1523 
Q 1984 1331 2105 1164 
Q 2227 998 2227 736 
Q 2227 416 1961 176 
Q 1696 -64 1331 -64 
Q 1030 -64 864 -6 
Q 691 51 570 51 
Q 461 51 416 -26 
L 333 -26 
L 333 979 
L 435 979 
Q 538 512 730 294 
Q 922 77 1248 77 
Q 1485 77 1632 211 
Q 1779 346 1779 550 
Q 1779 845 1440 1030 
L 1094 1222 
Q 326 1651 326 2150 
Q 326 2522 566 2730 
Q 806 2938 1210 2938 
Q 1491 2938 1638 2867 
Q 1754 2816 1818 2816 
Q 1862 2816 1920 2880 
L 1990 2880 
L 2022 2010 
L 1926 2010 
Q 1818 2445 1654 2621 
Q 1491 2797 1203 2797 
Q 986 2797 854 2688 
Q 723 2579 723 2362 
Q 723 2253 796 2128 
Q 870 2003 998 1926 
z
" transform="scale(0.015625)"/>
       <path id="STIXGeneral-Regular-69" d="M 1152 4045 
Q 1152 3904 1056 3811 
Q 960 3718 819 3718 
Q 685 3718 592 3811 
Q 499 3904 499 4045 
Q 499 4179 595 4275 
Q 691 4371 826 4371 
Q 966 4371 1059 4275 
Q 1152 4179 1152 4045 
z
M 1619 0 
L 102 0 
L 102 96 
Q 435 115 521 211 
Q 608 307 608 666 
L 608 2118 
Q 608 2342 563 2432 
Q 518 2522 397 2522 
Q 243 2522 128 2490 
L 128 2592 
L 1120 2944 
L 1146 2918 
L 1146 672 
Q 1146 314 1226 218 
Q 1306 122 1619 96 
L 1619 0 
z
" transform="scale(0.015625)"/>
       <path id="STIXGeneral-Regular-74" d="M 1702 493 
L 1786 422 
Q 1478 -64 1011 -64 
Q 448 -64 448 749 
L 448 2675 
L 109 2675 
Q 83 2694 83 2720 
Q 83 2771 192 2842 
Q 435 2982 813 3526 
Q 826 3546 874 3606 
Q 922 3667 941 3706 
Q 986 3706 986 3622 
L 986 2880 
L 1632 2880 
L 1632 2675 
L 986 2675 
L 986 845 
Q 986 538 1062 403 
Q 1139 269 1318 269 
Q 1510 269 1702 493 
z
" transform="scale(0.015625)"/>
      </defs>
      <use xlink:href="#STIXGeneral-Regular-4e"/>
      <use xlink:href="#STIXGeneral-Regular-75" x="72.199982"/>
      <use xlink:href="#STIXGeneral-Regular-6d" x="122.199966"/>
      <use xlink:href="#STIXGeneral-Regular-62" x="199.999954"/>
      <use xlink:href="#STIXGeneral-Regular-65" x="249.999939"/>
      <use xlink:href="#STIXGeneral-Regular-72" x="294.399933"/>
      <use xlink:href="#STIXGeneral-Regular-20" x="327.699921"/>
      <use xlink:href="#STIXGeneral-Regular-6f" x="352.699905"/>
      <use xlink:href="#STIXGeneral-Regular-66" x="402.69989"/>
      <use xlink:href="#STIXGeneral-Regular-20" x="435.999878"/>
      <use xlink:href="#STIXGeneral-Regular-54" x="460.999863"/>
      <use xlink:href="#STIXGeneral-Regular-72" x="522.099854"/>
      <use xlink:href="#STIXGeneral-Regular-61" x="555.399841"/>
      <use xlink:href="#STIXGeneral-Regular-6e" x="599.799835"/>
      <use xlink:href="#STIXGeneral-Regular-73" x="649.79982"/>
      <use xlink:href="#STIXGeneral-Regular-69" x="688.699814"/>
      <use xlink:href="#STIXGeneral-Regular-74" x="716.499802"/>
      <use xlink:href="#STIXGeneral-Regular-73" x="744.299789"/>
     </g>
    </g>
   </g>
   <g id="matplotlib.axis_2">
    <g id="ytick_1">
     <g id="line2d_40">
      <path d="M 64.131403 419.376986 
L 708.12 419.376986 
" clip-path="url(#p4695d4c56c)" style="fill: none; stroke-dasharray: 2.59,1.12; stroke-dashoffset: 0; stroke: #b0b0b0; stroke-width: 0.7"/>
     </g>
     <g id="line2d_41">
      <defs>
       <path id="m95eb11074a" d="M 0 0 
L -3.5 0 
" style="stroke: #000000; stroke-width: 0.8"/>
      </defs>
      <g>
       <use xlink:href="#m95eb11074a" x="64.131403" y="419.376986" style="stroke: #000000; stroke-width: 0.8"/>
      </g>
     </g>
     <g id="text_7">
      <!-- $\mathdefault{10^{-1}}$ -->
      <g transform="translate(34.331403 423.474799) scale(0.12 -0.12)">
       <defs>
        <path id="STIXGeneral-Regular-2212" d="M 3974 1408 
L 410 1408 
L 410 1830 
L 3974 1830 
L 3974 1408 
z
" transform="scale(0.015625)"/>
       </defs>
       <use xlink:href="#STIXGeneral-Regular-31" transform="translate(0 0.684375)"/>
       <use xlink:href="#STIXGeneral-Regular-30" transform="translate(49.999985 0.684375)"/>
       <use xlink:href="#STIXGeneral-Regular-2212" transform="translate(101.574969 36.684375) scale(0.7)"/>
       <use xlink:href="#STIXGeneral-Regular-31" transform="translate(149.524959 36.684375) scale(0.7)"/>
      </g>
     </g>
    </g>
    <g id="ytick_2">
     <g id="line2d_42">
      <path d="M 64.131403 365.165532 
L 708.12 365.165532 
" clip-path="url(#p4695d4c56c)" style="fill: none; stroke-dasharray: 2.59,1.12; stroke-dashoffset: 0; stroke: #b0b0b0; stroke-width: 0.7"/>
     </g>
     <g id="line2d_43">
      <g>
       <use xlink:href="#m95eb11074a" x="64.131403" y="365.165532" style="stroke: #000000; stroke-width: 0.8"/>
      </g>
     </g>
     <g id="text_8">
      <!-- $\mathdefault{10^{0}}$ -->
      <g transform="translate(40.091403 369.263344) scale(0.12 -0.12)">
       <use xlink:href="#STIXGeneral-Regular-31" transform="translate(0 0.684375)"/>
       <use xlink:href="#STIXGeneral-Regular-30" transform="translate(49.999985 0.684375)"/>
       <use xlink:href="#STIXGeneral-Regular-30" transform="translate(101.574969 36.684375) scale(0.7)"/>
      </g>
     </g>
    </g>
    <g id="ytick_3">
     <g id="line2d_44">
      <path d="M 64.131403 310.954077 
L 708.12 310.954077 
" clip-path="url(#p4695d4c56c)" style="fill: none; stroke-dasharray: 2.59,1.12; stroke-dashoffset: 0; stroke: #b0b0b0; stroke-width: 0.7"/>
     </g>
     <g id="line2d_45">
      <g>
       <use xlink:href="#m95eb11074a" x="64.131403" y="310.954077" style="stroke: #000000; stroke-width: 0.8"/>
      </g>
     </g>
     <g id="text_9">
      <!-- $\mathdefault{10^{1}}$ -->
      <g transform="translate(40.091403 315.051889) scale(0.12 -0.12)">
       <use xlink:href="#STIXGeneral-Regular-31" transform="translate(0 0.684375)"/>
       <use xlink:href="#STIXGeneral-Regular-30" transform="translate(49.999985 0.684375)"/>
       <use xlink:href="#STIXGeneral-Regular-31" transform="translate(101.574969 36.684375) scale(0.7)"/>
      </g>
     </g>
    </g>
    <g id="ytick_4">
     <g id="line2d_46">
      <path d="M 64.131403 256.742622 
L 708.12 256.742622 
" clip-path="url(#p4695d4c56c)" style="fill: none; stroke-dasharray: 2.59,1.12; stroke-dashoffset: 0; stroke: #b0b0b0; stroke-width: 0.7"/>
     </g>
     <g id="line2d_47">
      <g>
       <use xlink:href="#m95eb11074a" x="64.131403" y="256.742622" style="stroke: #000000; stroke-width: 0.8"/>
      </g>
     </g>
     <g id="text_10">
      <!-- $\mathdefault{10^{2}}$ -->
      <g transform="translate(40.091403 260.840435) scale(0.12 -0.12)">
       <use xlink:href="#STIXGeneral-Regular-31" transform="translate(0 0.684375)"/>
       <use xlink:href="#STIXGeneral-Regular-30" transform="translate(49.999985 0.684375)"/>
       <use xlink:href="#STIXGeneral-Regular-32" transform="translate(101.574969 36.684375) scale(0.7)"/>
      </g>
     </g>
    </g>
    <g id="ytick_5">
     <g id="line2d_48">
      <path d="M 64.131403 202.531167 
L 708.12 202.531167 
" clip-path="url(#p4695d4c56c)" style="fill: none; stroke-dasharray: 2.59,1.12; stroke-dashoffset: 0; stroke: #b0b0b0; stroke-width: 0.7"/>
     </g>
     <g id="line2d_49">
      <g>
       <use xlink:href="#m95eb11074a" x="64.131403" y="202.531167" style="stroke: #000000; stroke-width: 0.8"/>
      </g>
     </g>
     <g id="text_11">
      <!-- $\mathdefault{10^{3}}$ -->
      <g transform="translate(40.091403 206.62898) scale(0.12 -0.12)">
       <use xlink:href="#STIXGeneral-Regular-31" transform="translate(0 0.684375)"/>
       <use xlink:href="#STIXGeneral-Regular-30" transform="translate(49.999985 0.684375)"/>
       <use xlink:href="#STIXGeneral-Regular-33" transform="translate(101.574969 36.684375) scale(0.7)"/>
      </g>
     </g>
    </g>
    <g id="ytick_6">
     <g id="line2d_50">
      <path d="M 64.131403 148.319713 
L 708.12 148.319713 
" clip-path="url(#p4695d4c56c)" style="fill: none; stroke-dasharray: 2.59,1.12; stroke-dashoffset: 0; stroke: #b0b0b0; stroke-width: 0.7"/>
     </g>
     <g id="line2d_51">
      <g>
       <use xlink:href="#m95eb11074a" x="64.131403" y="148.319713" style="stroke: #000000; stroke-width: 0.8"/>
      </g>
     </g>
     <g id="text_12">
      <!-- $\mathdefault{10^{4}}$ -->
      <g transform="translate(40.091403 152.417525) scale(0.12 -0.12)">
       <defs>
        <path id="STIXGeneral-Regular-34" d="M 3027 1069 
L 2368 1069 
L 2368 0 
L 1869 0 
L 1869 1069 
L 77 1069 
L 77 1478 
L 2086 4326 
L 2368 4326 
L 2368 1478 
L 3027 1478 
L 3027 1069 
z
M 1869 1478 
L 1869 3674 
L 333 1478 
L 1869 1478 
z
" transform="scale(0.015625)"/>
       </defs>
       <use xlink:href="#STIXGeneral-Regular-31" transform="translate(0 0.684375)"/>
       <use xlink:href="#STIXGeneral-Regular-30" transform="translate(49.999985 0.684375)"/>
       <use xlink:href="#STIXGeneral-Regular-34" transform="translate(101.574969 36.684375) scale(0.7)"/>
      </g>
     </g>
    </g>
    <g id="ytick_7">
     <g id="line2d_52">
      <path d="M 64.131403 94.108258 
L 708.12 94.108258 
" clip-path="url(#p4695d4c56c)" style="fill: none; stroke-dasharray: 2.59,1.12; stroke-dashoffset: 0; stroke: #b0b0b0; stroke-width: 0.7"/>
     </g>
     <g id="line2d_53">
      <g>
       <use xlink:href="#m95eb11074a" x="64.131403" y="94.108258" style="stroke: #000000; stroke-width: 0.8"/>
      </g>
     </g>
     <g id="text_13">
      <!-- $\mathdefault{10^{5}}$ -->
      <g transform="translate(40.091403 98.206071) scale(0.12 -0.12)">
       <defs>
        <path id="STIXGeneral-Regular-35" d="M 2803 4358 
L 2573 3814 
Q 2534 3731 2400 3731 
L 1158 3731 
L 902 3187 
Q 1606 3053 1920 2896 
Q 2234 2739 2502 2368 
Q 2726 2061 2726 1555 
Q 2726 1094 2576 780 
Q 2426 467 2099 224 
Q 1664 -90 1011 -90 
Q 646 -90 422 19 
Q 198 128 198 307 
Q 198 550 486 550 
Q 717 550 960 352 
Q 1210 147 1414 147 
Q 1747 147 2012 480 
Q 2278 813 2278 1229 
Q 2278 1843 1850 2189 
Q 1293 2637 486 2637 
Q 410 2637 410 2688 
L 416 2720 
L 1114 4237 
L 2438 4237 
Q 2547 4237 2608 4269 
Q 2669 4301 2746 4403 
L 2803 4358 
z
" transform="scale(0.015625)"/>
       </defs>
       <use xlink:href="#STIXGeneral-Regular-31" transform="translate(0 0.842187)"/>
       <use xlink:href="#STIXGeneral-Regular-30" transform="translate(49.999985 0.842187)"/>
       <use xlink:href="#STIXGeneral-Regular-35" transform="translate(101.574969 36.842187) scale(0.7)"/>
      </g>
     </g>
    </g>
    <g id="ytick_8">
     <g id="line2d_54">
      <path d="M 64.131403 431.40373 
L 708.12 431.40373 
" clip-path="url(#p4695d4c56c)" style="fill: none; stroke-dasharray: 2.59,1.12; stroke-dashoffset: 0; stroke: #b0b0b0; stroke-width: 0.7"/>
     </g>
     <g id="line2d_55">
      <defs>
       <path id="m60b7471025" d="M 0 0 
L -2 0 
" style="stroke: #000000; stroke-width: 0.6"/>
      </defs>
      <g>
       <use xlink:href="#m60b7471025" x="64.131403" y="431.40373" style="stroke: #000000; stroke-width: 0.6"/>
      </g>
     </g>
    </g>
    <g id="ytick_9">
     <g id="line2d_56">
      <path d="M 64.131403 427.774447 
L 708.12 427.774447 
" clip-path="url(#p4695d4c56c)" style="fill: none; stroke-dasharray: 2.59,1.12; stroke-dashoffset: 0; stroke: #b0b0b0; stroke-width: 0.7"/>
     </g>
     <g id="line2d_57">
      <g>
       <use xlink:href="#m60b7471025" x="64.131403" y="427.774447" style="stroke: #000000; stroke-width: 0.6"/>
      </g>
     </g>
    </g>
    <g id="ytick_10">
     <g id="line2d_58">
      <path d="M 64.131403 424.630619 
L 708.12 424.630619 
" clip-path="url(#p4695d4c56c)" style="fill: none; stroke-dasharray: 2.59,1.12; stroke-dashoffset: 0; stroke: #b0b0b0; stroke-width: 0.7"/>
     </g>
     <g id="line2d_59">
      <g>
       <use xlink:href="#m60b7471025" x="64.131403" y="424.630619" style="stroke: #000000; stroke-width: 0.6"/>
      </g>
     </g>
    </g>
    <g id="ytick_11">
     <g id="line2d_60">
      <path d="M 64.131403 421.857566 
L 708.12 421.857566 
" clip-path="url(#p4695d4c56c)" style="fill: none; stroke-dasharray: 2.59,1.12; stroke-dashoffset: 0; stroke: #b0b0b0; stroke-width: 0.7"/>
     </g>
     <g id="line2d_61">
      <g>
       <use xlink:href="#m60b7471025" x="64.131403" y="421.857566" style="stroke: #000000; stroke-width: 0.6"/>
      </g>
     </g>
    </g>
    <g id="ytick_12">
     <g id="line2d_62">
      <path d="M 64.131403 403.057712 
L 708.12 403.057712 
" clip-path="url(#p4695d4c56c)" style="fill: none; stroke-dasharray: 2.59,1.12; stroke-dashoffset: 0; stroke: #b0b0b0; stroke-width: 0.7"/>
     </g>
     <g id="line2d_63">
      <g>
       <use xlink:href="#m60b7471025" x="64.131403" y="403.057712" style="stroke: #000000; stroke-width: 0.6"/>
      </g>
     </g>
    </g>
    <g id="ytick_13">
     <g id="line2d_64">
      <path d="M 64.131403 393.511549 
L 708.12 393.511549 
" clip-path="url(#p4695d4c56c)" style="fill: none; stroke-dasharray: 2.59,1.12; stroke-dashoffset: 0; stroke: #b0b0b0; stroke-width: 0.7"/>
     </g>
     <g id="line2d_65">
      <g>
       <use xlink:href="#m60b7471025" x="64.131403" y="393.511549" style="stroke: #000000; stroke-width: 0.6"/>
      </g>
     </g>
    </g>
    <g id="ytick_14">
     <g id="line2d_66">
      <path d="M 64.131403 386.738438 
L 708.12 386.738438 
" clip-path="url(#p4695d4c56c)" style="fill: none; stroke-dasharray: 2.59,1.12; stroke-dashoffset: 0; stroke: #b0b0b0; stroke-width: 0.7"/>
     </g>
     <g id="line2d_67">
      <g>
       <use xlink:href="#m60b7471025" x="64.131403" y="386.738438" style="stroke: #000000; stroke-width: 0.6"/>
      </g>
     </g>
    </g>
    <g id="ytick_15">
     <g id="line2d_68">
      <path d="M 64.131403 381.484806 
L 708.12 381.484806 
" clip-path="url(#p4695d4c56c)" style="fill: none; stroke-dasharray: 2.59,1.12; stroke-dashoffset: 0; stroke: #b0b0b0; stroke-width: 0.7"/>
     </g>
     <g id="line2d_69">
      <g>
       <use xlink:href="#m60b7471025" x="64.131403" y="381.484806" style="stroke: #000000; stroke-width: 0.6"/>
      </g>
     </g>
    </g>
    <g id="ytick_16">
     <g id="line2d_70">
      <path d="M 64.131403 377.192275 
L 708.12 377.192275 
" clip-path="url(#p4695d4c56c)" style="fill: none; stroke-dasharray: 2.59,1.12; stroke-dashoffset: 0; stroke: #b0b0b0; stroke-width: 0.7"/>
     </g>
     <g id="line2d_71">
      <g>
       <use xlink:href="#m60b7471025" x="64.131403" y="377.192275" style="stroke: #000000; stroke-width: 0.6"/>
      </g>
     </g>
    </g>
    <g id="ytick_17">
     <g id="line2d_72">
      <path d="M 64.131403 373.562992 
L 708.12 373.562992 
" clip-path="url(#p4695d4c56c)" style="fill: none; stroke-dasharray: 2.59,1.12; stroke-dashoffset: 0; stroke: #b0b0b0; stroke-width: 0.7"/>
     </g>
     <g id="line2d_73">
      <g>
       <use xlink:href="#m60b7471025" x="64.131403" y="373.562992" style="stroke: #000000; stroke-width: 0.6"/>
      </g>
     </g>
    </g>
    <g id="ytick_18">
     <g id="line2d_74">
      <path d="M 64.131403 370.419164 
L 708.12 370.419164 
" clip-path="url(#p4695d4c56c)" style="fill: none; stroke-dasharray: 2.59,1.12; stroke-dashoffset: 0; stroke: #b0b0b0; stroke-width: 0.7"/>
     </g>
     <g id="line2d_75">
      <g>
       <use xlink:href="#m60b7471025" x="64.131403" y="370.419164" style="stroke: #000000; stroke-width: 0.6"/>
      </g>
     </g>
    </g>
    <g id="ytick_19">
     <g id="line2d_76">
      <path d="M 64.131403 367.646112 
L 708.12 367.646112 
" clip-path="url(#p4695d4c56c)" style="fill: none; stroke-dasharray: 2.59,1.12; stroke-dashoffset: 0; stroke: #b0b0b0; stroke-width: 0.7"/>
     </g>
     <g id="line2d_77">
      <g>
       <use xlink:href="#m60b7471025" x="64.131403" y="367.646112" style="stroke: #000000; stroke-width: 0.6"/>
      </g>
     </g>
    </g>
    <g id="ytick_20">
     <g id="line2d_78">
      <path d="M 64.131403 348.846258 
L 708.12 348.846258 
" clip-path="url(#p4695d4c56c)" style="fill: none; stroke-dasharray: 2.59,1.12; stroke-dashoffset: 0; stroke: #b0b0b0; stroke-width: 0.7"/>
     </g>
     <g id="line2d_79">
      <g>
       <use xlink:href="#m60b7471025" x="64.131403" y="348.846258" style="stroke: #000000; stroke-width: 0.6"/>
      </g>
     </g>
    </g>
    <g id="ytick_21">
     <g id="line2d_80">
      <path d="M 64.131403 339.300094 
L 708.12 339.300094 
" clip-path="url(#p4695d4c56c)" style="fill: none; stroke-dasharray: 2.59,1.12; stroke-dashoffset: 0; stroke: #b0b0b0; stroke-width: 0.7"/>
     </g>
     <g id="line2d_81">
      <g>
       <use xlink:href="#m60b7471025" x="64.131403" y="339.300094" style="stroke: #000000; stroke-width: 0.6"/>
      </g>
     </g>
    </g>
    <g id="ytick_22">
     <g id="line2d_82">
      <path d="M 64.131403 332.526984 
L 708.12 332.526984 
" clip-path="url(#p4695d4c56c)" style="fill: none; stroke-dasharray: 2.59,1.12; stroke-dashoffset: 0; stroke: #b0b0b0; stroke-width: 0.7"/>
     </g>
     <g id="line2d_83">
      <g>
       <use xlink:href="#m60b7471025" x="64.131403" y="332.526984" style="stroke: #000000; stroke-width: 0.6"/>
      </g>
     </g>
    </g>
    <g id="ytick_23">
     <g id="line2d_84">
      <path d="M 64.131403 327.273351 
L 708.12 327.273351 
" clip-path="url(#p4695d4c56c)" style="fill: none; stroke-dasharray: 2.59,1.12; stroke-dashoffset: 0; stroke: #b0b0b0; stroke-width: 0.7"/>
     </g>
     <g id="line2d_85">
      <g>
       <use xlink:href="#m60b7471025" x="64.131403" y="327.273351" style="stroke: #000000; stroke-width: 0.6"/>
      </g>
     </g>
    </g>
    <g id="ytick_24">
     <g id="line2d_86">
      <path d="M 64.131403 322.98082 
L 708.12 322.98082 
" clip-path="url(#p4695d4c56c)" style="fill: none; stroke-dasharray: 2.59,1.12; stroke-dashoffset: 0; stroke: #b0b0b0; stroke-width: 0.7"/>
     </g>
     <g id="line2d_87">
      <g>
       <use xlink:href="#m60b7471025" x="64.131403" y="322.98082" style="stroke: #000000; stroke-width: 0.6"/>
      </g>
     </g>
    </g>
    <g id="ytick_25">
     <g id="line2d_88">
      <path d="M 64.131403 319.351537 
L 708.12 319.351537 
" clip-path="url(#p4695d4c56c)" style="fill: none; stroke-dasharray: 2.59,1.12; stroke-dashoffset: 0; stroke: #b0b0b0; stroke-width: 0.7"/>
     </g>
     <g id="line2d_89">
      <g>
       <use xlink:href="#m60b7471025" x="64.131403" y="319.351537" style="stroke: #000000; stroke-width: 0.6"/>
      </g>
     </g>
    </g>
    <g id="ytick_26">
     <g id="line2d_90">
      <path d="M 64.131403 316.20771 
L 708.12 316.20771 
" clip-path="url(#p4695d4c56c)" style="fill: none; stroke-dasharray: 2.59,1.12; stroke-dashoffset: 0; stroke: #b0b0b0; stroke-width: 0.7"/>
     </g>
     <g id="line2d_91">
      <g>
       <use xlink:href="#m60b7471025" x="64.131403" y="316.20771" style="stroke: #000000; stroke-width: 0.6"/>
      </g>
     </g>
    </g>
    <g id="ytick_27">
     <g id="line2d_92">
      <path d="M 64.131403 313.434657 
L 708.12 313.434657 
" clip-path="url(#p4695d4c56c)" style="fill: none; stroke-dasharray: 2.59,1.12; stroke-dashoffset: 0; stroke: #b0b0b0; stroke-width: 0.7"/>
     </g>
     <g id="line2d_93">
      <g>
       <use xlink:href="#m60b7471025" x="64.131403" y="313.434657" style="stroke: #000000; stroke-width: 0.6"/>
      </g>
     </g>
    </g>
    <g id="ytick_28">
     <g id="line2d_94">
      <path d="M 64.131403 294.634803 
L 708.12 294.634803 
" clip-path="url(#p4695d4c56c)" style="fill: none; stroke-dasharray: 2.59,1.12; stroke-dashoffset: 0; stroke: #b0b0b0; stroke-width: 0.7"/>
     </g>
     <g id="line2d_95">
      <g>
       <use xlink:href="#m60b7471025" x="64.131403" y="294.634803" style="stroke: #000000; stroke-width: 0.6"/>
      </g>
     </g>
    </g>
    <g id="ytick_29">
     <g id="line2d_96">
      <path d="M 64.131403 285.08864 
L 708.12 285.08864 
" clip-path="url(#p4695d4c56c)" style="fill: none; stroke-dasharray: 2.59,1.12; stroke-dashoffset: 0; stroke: #b0b0b0; stroke-width: 0.7"/>
     </g>
     <g id="line2d_97">
      <g>
       <use xlink:href="#m60b7471025" x="64.131403" y="285.08864" style="stroke: #000000; stroke-width: 0.6"/>
      </g>
     </g>
    </g>
    <g id="ytick_30">
     <g id="line2d_98">
      <path d="M 64.131403 278.315529 
L 708.12 278.315529 
" clip-path="url(#p4695d4c56c)" style="fill: none; stroke-dasharray: 2.59,1.12; stroke-dashoffset: 0; stroke: #b0b0b0; stroke-width: 0.7"/>
     </g>
     <g id="line2d_99">
      <g>
       <use xlink:href="#m60b7471025" x="64.131403" y="278.315529" style="stroke: #000000; stroke-width: 0.6"/>
      </g>
     </g>
    </g>
    <g id="ytick_31">
     <g id="line2d_100">
      <path d="M 64.131403 273.061896 
L 708.12 273.061896 
" clip-path="url(#p4695d4c56c)" style="fill: none; stroke-dasharray: 2.59,1.12; stroke-dashoffset: 0; stroke: #b0b0b0; stroke-width: 0.7"/>
     </g>
     <g id="line2d_101">
      <g>
       <use xlink:href="#m60b7471025" x="64.131403" y="273.061896" style="stroke: #000000; stroke-width: 0.6"/>
      </g>
     </g>
    </g>
    <g id="ytick_32">
     <g id="line2d_102">
      <path d="M 64.131403 268.769366 
L 708.12 268.769366 
" clip-path="url(#p4695d4c56c)" style="fill: none; stroke-dasharray: 2.59,1.12; stroke-dashoffset: 0; stroke: #b0b0b0; stroke-width: 0.7"/>
     </g>
     <g id="line2d_103">
      <g>
       <use xlink:href="#m60b7471025" x="64.131403" y="268.769366" style="stroke: #000000; stroke-width: 0.6"/>
      </g>
     </g>
    </g>
    <g id="ytick_33">
     <g id="line2d_104">
      <path d="M 64.131403 265.140083 
L 708.12 265.140083 
" clip-path="url(#p4695d4c56c)" style="fill: none; stroke-dasharray: 2.59,1.12; stroke-dashoffset: 0; stroke: #b0b0b0; stroke-width: 0.7"/>
     </g>
     <g id="line2d_105">
      <g>
       <use xlink:href="#m60b7471025" x="64.131403" y="265.140083" style="stroke: #000000; stroke-width: 0.6"/>
      </g>
     </g>
    </g>
    <g id="ytick_34">
     <g id="line2d_106">
      <path d="M 64.131403 261.996255 
L 708.12 261.996255 
" clip-path="url(#p4695d4c56c)" style="fill: none; stroke-dasharray: 2.59,1.12; stroke-dashoffset: 0; stroke: #b0b0b0; stroke-width: 0.7"/>
     </g>
     <g id="line2d_107">
      <g>
       <use xlink:href="#m60b7471025" x="64.131403" y="261.996255" style="stroke: #000000; stroke-width: 0.6"/>
      </g>
     </g>
    </g>
    <g id="ytick_35">
     <g id="line2d_108">
      <path d="M 64.131403 259.223202 
L 708.12 259.223202 
" clip-path="url(#p4695d4c56c)" style="fill: none; stroke-dasharray: 2.59,1.12; stroke-dashoffset: 0; stroke: #b0b0b0; stroke-width: 0.7"/>
     </g>
     <g id="line2d_109">
      <g>
       <use xlink:href="#m60b7471025" x="64.131403" y="259.223202" style="stroke: #000000; stroke-width: 0.6"/>
      </g>
     </g>
    </g>
    <g id="ytick_36">
     <g id="line2d_110">
      <path d="M 64.131403 240.423348 
L 708.12 240.423348 
" clip-path="url(#p4695d4c56c)" style="fill: none; stroke-dasharray: 2.59,1.12; stroke-dashoffset: 0; stroke: #b0b0b0; stroke-width: 0.7"/>
     </g>
     <g id="line2d_111">
      <g>
       <use xlink:href="#m60b7471025" x="64.131403" y="240.423348" style="stroke: #000000; stroke-width: 0.6"/>
      </g>
     </g>
    </g>
    <g id="ytick_37">
     <g id="line2d_112">
      <path d="M 64.131403 230.877185 
L 708.12 230.877185 
" clip-path="url(#p4695d4c56c)" style="fill: none; stroke-dasharray: 2.59,1.12; stroke-dashoffset: 0; stroke: #b0b0b0; stroke-width: 0.7"/>
     </g>
     <g id="line2d_113">
      <g>
       <use xlink:href="#m60b7471025" x="64.131403" y="230.877185" style="stroke: #000000; stroke-width: 0.6"/>
      </g>
     </g>
    </g>
    <g id="ytick_38">
     <g id="line2d_114">
      <path d="M 64.131403 224.104074 
L 708.12 224.104074 
" clip-path="url(#p4695d4c56c)" style="fill: none; stroke-dasharray: 2.59,1.12; stroke-dashoffset: 0; stroke: #b0b0b0; stroke-width: 0.7"/>
     </g>
     <g id="line2d_115">
      <g>
       <use xlink:href="#m60b7471025" x="64.131403" y="224.104074" style="stroke: #000000; stroke-width: 0.6"/>
      </g>
     </g>
    </g>
    <g id="ytick_39">
     <g id="line2d_116">
      <path d="M 64.131403 218.850441 
L 708.12 218.850441 
" clip-path="url(#p4695d4c56c)" style="fill: none; stroke-dasharray: 2.59,1.12; stroke-dashoffset: 0; stroke: #b0b0b0; stroke-width: 0.7"/>
     </g>
     <g id="line2d_117">
      <g>
       <use xlink:href="#m60b7471025" x="64.131403" y="218.850441" style="stroke: #000000; stroke-width: 0.6"/>
      </g>
     </g>
    </g>
    <g id="ytick_40">
     <g id="line2d_118">
      <path d="M 64.131403 214.557911 
L 708.12 214.557911 
" clip-path="url(#p4695d4c56c)" style="fill: none; stroke-dasharray: 2.59,1.12; stroke-dashoffset: 0; stroke: #b0b0b0; stroke-width: 0.7"/>
     </g>
     <g id="line2d_119">
      <g>
       <use xlink:href="#m60b7471025" x="64.131403" y="214.557911" style="stroke: #000000; stroke-width: 0.6"/>
      </g>
     </g>
    </g>
    <g id="ytick_41">
     <g id="line2d_120">
      <path d="M 64.131403 210.928628 
L 708.12 210.928628 
" clip-path="url(#p4695d4c56c)" style="fill: none; stroke-dasharray: 2.59,1.12; stroke-dashoffset: 0; stroke: #b0b0b0; stroke-width: 0.7"/>
     </g>
     <g id="line2d_121">
      <g>
       <use xlink:href="#m60b7471025" x="64.131403" y="210.928628" style="stroke: #000000; stroke-width: 0.6"/>
      </g>
     </g>
    </g>
    <g id="ytick_42">
     <g id="line2d_122">
      <path d="M 64.131403 207.7848 
L 708.12 207.7848 
" clip-path="url(#p4695d4c56c)" style="fill: none; stroke-dasharray: 2.59,1.12; stroke-dashoffset: 0; stroke: #b0b0b0; stroke-width: 0.7"/>
     </g>
     <g id="line2d_123">
      <g>
       <use xlink:href="#m60b7471025" x="64.131403" y="207.7848" style="stroke: #000000; stroke-width: 0.6"/>
      </g>
     </g>
    </g>
    <g id="ytick_43">
     <g id="line2d_124">
      <path d="M 64.131403 205.011748 
L 708.12 205.011748 
" clip-path="url(#p4695d4c56c)" style="fill: none; stroke-dasharray: 2.59,1.12; stroke-dashoffset: 0; stroke: #b0b0b0; stroke-width: 0.7"/>
     </g>
     <g id="line2d_125">
      <g>
       <use xlink:href="#m60b7471025" x="64.131403" y="205.011748" style="stroke: #000000; stroke-width: 0.6"/>
      </g>
     </g>
    </g>
    <g id="ytick_44">
     <g id="line2d_126">
      <path d="M 64.131403 186.211893 
L 708.12 186.211893 
" clip-path="url(#p4695d4c56c)" style="fill: none; stroke-dasharray: 2.59,1.12; stroke-dashoffset: 0; stroke: #b0b0b0; stroke-width: 0.7"/>
     </g>
     <g id="line2d_127">
      <g>
       <use xlink:href="#m60b7471025" x="64.131403" y="186.211893" style="stroke: #000000; stroke-width: 0.6"/>
      </g>
     </g>
    </g>
    <g id="ytick_45">
     <g id="line2d_128">
      <path d="M 64.131403 176.66573 
L 708.12 176.66573 
" clip-path="url(#p4695d4c56c)" style="fill: none; stroke-dasharray: 2.59,1.12; stroke-dashoffset: 0; stroke: #b0b0b0; stroke-width: 0.7"/>
     </g>
     <g id="line2d_129">
      <g>
       <use xlink:href="#m60b7471025" x="64.131403" y="176.66573" style="stroke: #000000; stroke-width: 0.6"/>
      </g>
     </g>
    </g>
    <g id="ytick_46">
     <g id="line2d_130">
      <path d="M 64.131403 169.892619 
L 708.12 169.892619 
" clip-path="url(#p4695d4c56c)" style="fill: none; stroke-dasharray: 2.59,1.12; stroke-dashoffset: 0; stroke: #b0b0b0; stroke-width: 0.7"/>
     </g>
     <g id="line2d_131">
      <g>
       <use xlink:href="#m60b7471025" x="64.131403" y="169.892619" style="stroke: #000000; stroke-width: 0.6"/>
      </g>
     </g>
    </g>
    <g id="ytick_47">
     <g id="line2d_132">
      <path d="M 64.131403 164.638987 
L 708.12 164.638987 
" clip-path="url(#p4695d4c56c)" style="fill: none; stroke-dasharray: 2.59,1.12; stroke-dashoffset: 0; stroke: #b0b0b0; stroke-width: 0.7"/>
     </g>
     <g id="line2d_133">
      <g>
       <use xlink:href="#m60b7471025" x="64.131403" y="164.638987" style="stroke: #000000; stroke-width: 0.6"/>
      </g>
     </g>
    </g>
    <g id="ytick_48">
     <g id="line2d_134">
      <path d="M 64.131403 160.346456 
L 708.12 160.346456 
" clip-path="url(#p4695d4c56c)" style="fill: none; stroke-dasharray: 2.59,1.12; stroke-dashoffset: 0; stroke: #b0b0b0; stroke-width: 0.7"/>
     </g>
     <g id="line2d_135">
      <g>
       <use xlink:href="#m60b7471025" x="64.131403" y="160.346456" style="stroke: #000000; stroke-width: 0.6"/>
      </g>
     </g>
    </g>
    <g id="ytick_49">
     <g id="line2d_136">
      <path d="M 64.131403 156.717173 
L 708.12 156.717173 
" clip-path="url(#p4695d4c56c)" style="fill: none; stroke-dasharray: 2.59,1.12; stroke-dashoffset: 0; stroke: #b0b0b0; stroke-width: 0.7"/>
     </g>
     <g id="line2d_137">
      <g>
       <use xlink:href="#m60b7471025" x="64.131403" y="156.717173" style="stroke: #000000; stroke-width: 0.6"/>
      </g>
     </g>
    </g>
    <g id="ytick_50">
     <g id="line2d_138">
      <path d="M 64.131403 153.573346 
L 708.12 153.573346 
" clip-path="url(#p4695d4c56c)" style="fill: none; stroke-dasharray: 2.59,1.12; stroke-dashoffset: 0; stroke: #b0b0b0; stroke-width: 0.7"/>
     </g>
     <g id="line2d_139">
      <g>
       <use xlink:href="#m60b7471025" x="64.131403" y="153.573346" style="stroke: #000000; stroke-width: 0.6"/>
      </g>
     </g>
    </g>
    <g id="ytick_51">
     <g id="line2d_140">
      <path d="M 64.131403 150.800293 
L 708.12 150.800293 
" clip-path="url(#p4695d4c56c)" style="fill: none; stroke-dasharray: 2.59,1.12; stroke-dashoffset: 0; stroke: #b0b0b0; stroke-width: 0.7"/>
     </g>
     <g id="line2d_141">
      <g>
       <use xlink:href="#m60b7471025" x="64.131403" y="150.800293" style="stroke: #000000; stroke-width: 0.6"/>
      </g>
     </g>
    </g>
    <g id="ytick_52">
     <g id="line2d_142">
      <path d="M 64.131403 132.000439 
L 708.12 132.000439 
" clip-path="url(#p4695d4c56c)" style="fill: none; stroke-dasharray: 2.59,1.12; stroke-dashoffset: 0; stroke: #b0b0b0; stroke-width: 0.7"/>
     </g>
     <g id="line2d_143">
      <g>
       <use xlink:href="#m60b7471025" x="64.131403" y="132.000439" style="stroke: #000000; stroke-width: 0.6"/>
      </g>
     </g>
    </g>
    <g id="ytick_53">
     <g id="line2d_144">
      <path d="M 64.131403 122.454275 
L 708.12 122.454275 
" clip-path="url(#p4695d4c56c)" style="fill: none; stroke-dasharray: 2.59,1.12; stroke-dashoffset: 0; stroke: #b0b0b0; stroke-width: 0.7"/>
     </g>
     <g id="line2d_145">
      <g>
       <use xlink:href="#m60b7471025" x="64.131403" y="122.454275" style="stroke: #000000; stroke-width: 0.6"/>
      </g>
     </g>
    </g>
    <g id="ytick_54">
     <g id="line2d_146">
      <path d="M 64.131403 115.681165 
L 708.12 115.681165 
" clip-path="url(#p4695d4c56c)" style="fill: none; stroke-dasharray: 2.59,1.12; stroke-dashoffset: 0; stroke: #b0b0b0; stroke-width: 0.7"/>
     </g>
     <g id="line2d_147">
      <g>
       <use xlink:href="#m60b7471025" x="64.131403" y="115.681165" style="stroke: #000000; stroke-width: 0.6"/>
      </g>
     </g>
    </g>
    <g id="ytick_55">
     <g id="line2d_148">
      <path d="M 64.131403 110.427532 
L 708.12 110.427532 
" clip-path="url(#p4695d4c56c)" style="fill: none; stroke-dasharray: 2.59,1.12; stroke-dashoffset: 0; stroke: #b0b0b0; stroke-width: 0.7"/>
     </g>
     <g id="line2d_149">
      <g>
       <use xlink:href="#m60b7471025" x="64.131403" y="110.427532" style="stroke: #000000; stroke-width: 0.6"/>
      </g>
     </g>
    </g>
    <g id="ytick_56">
     <g id="line2d_150">
      <path d="M 64.131403 106.135001 
L 708.12 106.135001 
" clip-path="url(#p4695d4c56c)" style="fill: none; stroke-dasharray: 2.59,1.12; stroke-dashoffset: 0; stroke: #b0b0b0; stroke-width: 0.7"/>
     </g>
     <g id="line2d_151">
      <g>
       <use xlink:href="#m60b7471025" x="64.131403" y="106.135001" style="stroke: #000000; stroke-width: 0.6"/>
      </g>
     </g>
    </g>
    <g id="ytick_57">
     <g id="line2d_152">
      <path d="M 64.131403 102.505719 
L 708.12 102.505719 
" clip-path="url(#p4695d4c56c)" style="fill: none; stroke-dasharray: 2.59,1.12; stroke-dashoffset: 0; stroke: #b0b0b0; stroke-width: 0.7"/>
     </g>
     <g id="line2d_153">
      <g>
       <use xlink:href="#m60b7471025" x="64.131403" y="102.505719" style="stroke: #000000; stroke-width: 0.6"/>
      </g>
     </g>
    </g>
    <g id="ytick_58">
     <g id="line2d_154">
      <path d="M 64.131403 99.361891 
L 708.12 99.361891 
" clip-path="url(#p4695d4c56c)" style="fill: none; stroke-dasharray: 2.59,1.12; stroke-dashoffset: 0; stroke: #b0b0b0; stroke-width: 0.7"/>
     </g>
     <g id="line2d_155">
      <g>
       <use xlink:href="#m60b7471025" x="64.131403" y="99.361891" style="stroke: #000000; stroke-width: 0.6"/>
      </g>
     </g>
    </g>
    <g id="ytick_59">
     <g id="line2d_156">
      <path d="M 64.131403 96.588838 
L 708.12 96.588838 
" clip-path="url(#p4695d4c56c)" style="fill: none; stroke-dasharray: 2.59,1.12; stroke-dashoffset: 0; stroke: #b0b0b0; stroke-width: 0.7"/>
     </g>
     <g id="line2d_157">
      <g>
       <use xlink:href="#m60b7471025" x="64.131403" y="96.588838" style="stroke: #000000; stroke-width: 0.6"/>
      </g>
     </g>
    </g>
    <g id="ytick_60">
     <g id="line2d_158">
      <path d="M 64.131403 77.788984 
L 708.12 77.788984 
" clip-path="url(#p4695d4c56c)" style="fill: none; stroke-dasharray: 2.59,1.12; stroke-dashoffset: 0; stroke: #b0b0b0; stroke-width: 0.7"/>
     </g>
     <g id="line2d_159">
      <g>
       <use xlink:href="#m60b7471025" x="64.131403" y="77.788984" style="stroke: #000000; stroke-width: 0.6"/>
      </g>
     </g>
    </g>
    <g id="ytick_61">
     <g id="line2d_160">
      <path d="M 64.131403 68.242821 
L 708.12 68.242821 
" clip-path="url(#p4695d4c56c)" style="fill: none; stroke-dasharray: 2.59,1.12; stroke-dashoffset: 0; stroke: #b0b0b0; stroke-width: 0.7"/>
     </g>
     <g id="line2d_161">
      <g>
       <use xlink:href="#m60b7471025" x="64.131403" y="68.242821" style="stroke: #000000; stroke-width: 0.6"/>
      </g>
     </g>
    </g>
    <g id="text_14">
     <!-- Average Reduced $\chi^2_r$ -->
     <g transform="translate(26.551403 308.178557) rotate(-90) scale(0.14 -0.14)">
      <defs>
       <path id="STIXGeneral-Regular-41" d="M 4525 0 
L 2893 0 
L 2893 122 
Q 3149 122 3245 179 
Q 3334 224 3334 333 
Q 3334 499 3213 781 
L 2950 1382 
L 1274 1382 
L 979 653 
Q 922 506 922 384 
Q 922 237 1027 179 
Q 1133 122 1370 122 
L 1370 0 
L 96 0 
L 96 122 
Q 365 147 486 316 
Q 608 486 902 1190 
L 2221 4314 
L 2349 4314 
L 3923 710 
Q 4064 378 4176 262 
Q 4288 147 4525 122 
L 4525 0 
z
M 2861 1645 
L 2118 3405 
L 1382 1645 
L 2861 1645 
z
" transform="scale(0.015625)"/>
       <path id="STIXGeneral-Regular-76" d="M 3053 2880 
L 3053 2784 
Q 2906 2771 2835 2688 
Q 2765 2605 2637 2285 
L 1818 230 
Q 1690 -90 1638 -90 
Q 1587 -90 1523 77 
Q 1510 96 1497 141 
Q 1485 186 1472 211 
L 704 2048 
Q 499 2534 403 2652 
Q 307 2771 122 2784 
L 122 2880 
L 1376 2880 
L 1376 2784 
Q 1210 2771 1146 2732 
Q 1082 2694 1082 2611 
Q 1082 2509 1139 2368 
L 1792 730 
L 2426 2387 
Q 2464 2483 2464 2579 
Q 2464 2758 2163 2784 
L 2163 2880 
L 3053 2880 
z
" transform="scale(0.015625)"/>
       <path id="STIXGeneral-Regular-67" d="M 3008 2483 
L 2477 2483 
Q 2598 2208 2598 1946 
Q 2598 1453 2265 1203 
Q 1933 954 1600 954 
Q 1530 954 1357 973 
L 1235 986 
Q 1107 947 979 812 
Q 851 678 851 582 
Q 851 435 1350 410 
L 2176 371 
Q 2528 358 2739 172 
Q 2950 -13 2950 -314 
Q 2950 -685 2566 -986 
Q 2035 -1395 1286 -1395 
Q 826 -1395 502 -1212 
Q 179 -1030 179 -774 
Q 179 -595 320 -419 
Q 461 -243 806 6 
Q 602 102 534 172 
Q 467 243 467 346 
Q 467 531 762 787 
Q 909 915 1037 1043 
Q 717 1203 579 1401 
Q 442 1600 442 1901 
Q 442 2336 752 2640 
Q 1062 2944 1510 2944 
Q 1766 2944 2022 2848 
L 2163 2797 
Q 2349 2733 2515 2733 
L 3008 2733 
L 3008 2483 
z
M 973 2163 
L 973 2144 
Q 973 1683 1155 1398 
Q 1338 1114 1632 1114 
Q 1850 1114 1978 1270 
Q 2106 1427 2106 1690 
Q 2106 2112 1914 2464 
Q 1754 2765 1446 2765 
Q 1222 2765 1097 2605 
Q 973 2445 973 2163 
z
M 2771 -410 
Q 2771 -230 2595 -163 
Q 2419 -96 1978 -96 
Q 1344 -96 941 -13 
Q 749 -243 688 -348 
Q 627 -454 627 -563 
Q 627 -774 880 -902 
Q 1133 -1030 1555 -1030 
Q 2099 -1030 2435 -860 
Q 2771 -691 2771 -410 
z
" transform="scale(0.015625)"/>
       <path id="STIXGeneral-Regular-52" d="M 4224 0 
L 3187 0 
L 1664 1971 
L 1306 1958 
L 1306 717 
Q 1306 352 1405 249 
Q 1504 147 1875 122 
L 1875 0 
L 109 0 
L 109 122 
Q 474 154 563 262 
Q 653 371 653 794 
L 653 3526 
Q 653 3885 563 3987 
Q 474 4090 109 4115 
L 109 4237 
L 1850 4237 
Q 2726 4237 3187 3859 
Q 3501 3603 3501 3091 
Q 3501 2221 2342 2042 
L 3622 422 
Q 3757 256 3878 198 
Q 4000 141 4224 122 
L 4224 0 
z
M 1306 3731 
L 1306 2195 
Q 1766 2202 1990 2246 
Q 2214 2291 2438 2413 
Q 2803 2618 2803 3142 
Q 2803 4000 1632 4000 
Q 1459 4000 1382 3945 
Q 1306 3891 1306 3731 
z
" transform="scale(0.015625)"/>
       <path id="STIXGeneral-Regular-64" d="M 3142 269 
L 2202 -64 
L 2176 -45 
L 2176 365 
Q 1869 -64 1357 -64 
Q 826 -64 499 317 
Q 173 698 173 1312 
Q 173 1990 563 2467 
Q 954 2944 1504 2944 
Q 1850 2944 2176 2669 
L 2176 3667 
Q 2176 3866 2118 3930 
Q 2061 3994 1882 3994 
Q 1792 3994 1741 3987 
L 1741 4090 
Q 2323 4243 2682 4371 
L 2714 4358 
L 2714 730 
Q 2714 506 2768 435 
Q 2822 365 2995 365 
Q 3034 365 3142 371 
L 3142 269 
z
M 2176 653 
L 2176 2125 
Q 2176 2381 1981 2573 
Q 1786 2765 1523 2765 
Q 1158 2765 940 2438 
Q 723 2112 723 1568 
Q 723 979 963 624 
Q 1203 269 1606 269 
Q 1907 269 2080 474 
Q 2176 582 2176 653 
z
" transform="scale(0.015625)"/>
       <path id="STIXGeneral-Regular-63" d="M 2547 998 
L 2637 941 
Q 2362 403 2112 205 
Q 1786 -64 1376 -64 
Q 845 -64 502 336 
Q 160 736 160 1357 
Q 160 2170 698 2618 
Q 1094 2944 1562 2944 
Q 1965 2944 2256 2749 
Q 2547 2554 2547 2285 
Q 2547 2176 2457 2096 
Q 2368 2016 2246 2016 
Q 2022 2016 1939 2310 
L 1901 2451 
Q 1850 2630 1773 2694 
Q 1696 2758 1523 2758 
Q 1133 2758 893 2451 
Q 653 2144 653 1645 
Q 653 1094 928 745 
Q 1203 397 1645 397 
Q 1920 397 2118 528 
Q 2317 659 2547 998 
z
" transform="scale(0.015625)"/>
       <path id="STIXGeneral-Italic-3c7" d="M 3187 2739 
L 1363 480 
Q 1357 314 1357 38 
Q 1357 -531 1424 -726 
Q 1491 -922 1645 -922 
Q 1722 -922 1824 -803 
Q 1926 -685 2010 -448 
L 2112 -448 
Q 1939 -1325 1517 -1325 
Q 1312 -1325 1213 -1091 
Q 1114 -858 1114 -506 
Q 1114 -32 1165 288 
L -96 -1274 
L -691 -1274 
L 1146 934 
L 1146 1504 
Q 1146 1990 1085 2204 
Q 1024 2419 858 2419 
Q 774 2419 662 2307 
Q 550 2195 467 1952 
L 365 1952 
Q 416 2144 461 2272 
Q 506 2400 579 2541 
Q 653 2682 755 2752 
Q 858 2822 992 2822 
Q 1178 2822 1270 2617 
Q 1363 2413 1363 1901 
Q 1363 1882 1360 1818 
Q 1357 1754 1350 1571 
Q 1344 1389 1338 1114 
L 2592 2739 
L 3187 2739 
z
" transform="scale(0.015625)"/>
       <path id="STIXGeneral-Italic-72" d="M 1126 1427 
L 1229 1651 
Q 1446 2131 1830 2534 
Q 2106 2822 2336 2822 
Q 2470 2822 2553 2732 
Q 2637 2643 2637 2496 
Q 2637 2349 2557 2249 
Q 2477 2150 2336 2150 
Q 2214 2150 2112 2317 
Q 2061 2406 2010 2406 
Q 1837 2406 1485 1805 
Q 1267 1434 1136 1104 
Q 1005 774 774 0 
L 288 0 
L 806 1869 
Q 909 2246 909 2394 
Q 909 2560 666 2560 
Q 614 2560 467 2541 
L 467 2650 
L 1459 2822 
L 1478 2810 
L 1126 1427 
z
" transform="scale(0.015625)"/>
      </defs>
      <use xlink:href="#STIXGeneral-Regular-41" transform="translate(0 0.409375)"/>
      <use xlink:href="#STIXGeneral-Regular-76" transform="translate(72.199982 0.409375)"/>
      <use xlink:href="#STIXGeneral-Regular-65" transform="translate(122.199966 0.409375)"/>
      <use xlink:href="#STIXGeneral-Regular-72" transform="translate(166.59996 0.409375)"/>
      <use xlink:href="#STIXGeneral-Regular-61" transform="translate(199.899948 0.409375)"/>
      <use xlink:href="#STIXGeneral-Regular-67" transform="translate(244.299942 0.409375)"/>
      <use xlink:href="#STIXGeneral-Regular-65" transform="translate(294.299927 0.409375)"/>
      <use xlink:href="#STIXGeneral-Regular-20" transform="translate(338.699921 0.409375)"/>
      <use xlink:href="#STIXGeneral-Regular-52" transform="translate(363.699905 0.409375)"/>
      <use xlink:href="#STIXGeneral-Regular-65" transform="translate(430.399902 0.409375)"/>
      <use xlink:href="#STIXGeneral-Regular-64" transform="translate(474.799896 0.409375)"/>
      <use xlink:href="#STIXGeneral-Regular-75" transform="translate(524.799881 0.409375)"/>
      <use xlink:href="#STIXGeneral-Regular-63" transform="translate(574.799866 0.409375)"/>
      <use xlink:href="#STIXGeneral-Regular-65" transform="translate(619.19986 0.409375)"/>
      <use xlink:href="#STIXGeneral-Regular-64" transform="translate(663.599854 0.409375)"/>
      <use xlink:href="#STIXGeneral-Regular-20" transform="translate(713.599838 0.409375)"/>
      <use xlink:href="#STIXGeneral-Italic-3c7" transform="translate(738.599823 0.409375)"/>
      <use xlink:href="#STIXGeneral-Regular-32" transform="translate(790.472945 35.684375) scale(0.7)"/>
      <use xlink:href="#STIXGeneral-Italic-72" transform="translate(784.29982 -26.046875) scale(0.7)"/>
     </g>
    </g>
   </g>
   <g id="line2d_162">
    <path d="M 93.403612 365.031497 
L 257.813731 365.155924 
L 373.523562 365.148388 
L 530.055413 365.172902 
L 678.847791 365.04286 
" clip-path="url(#p4695d4c56c)" style="fill: none; stroke: #f4a261; stroke-width: 2.5; stroke-linecap: square"/>
    <defs>
     <path id="m7a7445eca5" d="M 0 1.5 
C 0.397805 1.5 0.77937 1.341951 1.06066 1.06066 
C 1.341951 0.77937 1.5 0.397805 1.5 0 
C 1.5 -0.397805 1.341951 -0.77937 1.06066 -1.06066 
C 0.77937 -1.341951 0.397805 -1.5 0 -1.5 
C -0.397805 -1.5 -0.77937 -1.341951 -1.06066 -1.06066 
C -1.341951 -0.77937 -1.5 -0.397805 -1.5 0 
C -1.5 0.397805 -1.341951 0.77937 -1.06066 1.06066 
C -0.77937 1.341951 -0.397805 1.5 0 1.5 
z
" style="stroke: #f4a261"/>
    </defs>
    <g clip-path="url(#p4695d4c56c)">
     <use xlink:href="#m7a7445eca5" x="93.403612" y="365.031497" style="fill: #f4a261; stroke: #f4a261"/>
     <use xlink:href="#m7a7445eca5" x="257.813731" y="365.155924" style="fill: #f4a261; stroke: #f4a261"/>
     <use xlink:href="#m7a7445eca5" x="373.523562" y="365.148388" style="fill: #f4a261; stroke: #f4a261"/>
     <use xlink:href="#m7a7445eca5" x="530.055413" y="365.172902" style="fill: #f4a261; stroke: #f4a261"/>
     <use xlink:href="#m7a7445eca5" x="678.847791" y="365.04286" style="fill: #f4a261; stroke: #f4a261"/>
    </g>
   </g>
   <g id="line2d_163">
    <path d="M 93.403612 416.110199 
L 257.813731 390.39488 
L 373.523562 372.198762 
L 530.055413 347.604923 
L 678.847791 324.197571 
" clip-path="url(#p4695d4c56c)" style="fill: none; stroke: #2a9d8f; stroke-width: 2.5; stroke-linecap: square"/>
    <defs>
     <path id="md9aadf0b8e" d="M 0 3 
C 0.795609 3 1.55874 2.683901 2.12132 2.12132 
C 2.683901 1.55874 3 0.795609 3 0 
C 3 -0.795609 2.683901 -1.55874 2.12132 -2.12132 
C 1.55874 -2.683901 0.795609 -3 0 -3 
C -0.795609 -3 -1.55874 -2.683901 -2.12132 -2.12132 
C -2.683901 -1.55874 -3 -0.795609 -3 0 
C -3 0.795609 -2.683901 1.55874 -2.12132 2.12132 
C -1.55874 2.683901 -0.795609 3 0 3 
z
" style="stroke: #2a9d8f"/>
    </defs>
    <g clip-path="url(#p4695d4c56c)">
     <use xlink:href="#md9aadf0b8e" x="93.403612" y="416.110199" style="fill: #2a9d8f; stroke: #2a9d8f"/>
     <use xlink:href="#md9aadf0b8e" x="257.813731" y="390.39488" style="fill: #2a9d8f; stroke: #2a9d8f"/>
     <use xlink:href="#md9aadf0b8e" x="373.523562" y="372.198762" style="fill: #2a9d8f; stroke: #2a9d8f"/>
     <use xlink:href="#md9aadf0b8e" x="530.055413" y="347.604923" style="fill: #2a9d8f; stroke: #2a9d8f"/>
     <use xlink:href="#md9aadf0b8e" x="678.847791" y="324.197571" style="fill: #2a9d8f; stroke: #2a9d8f"/>
    </g>
   </g>
   <g id="line2d_164">
    <path d="M 93.403612 383.556201 
L 257.813731 375.615784 
L 373.523562 369.564903 
L 530.055413 358.319282 
L 678.847791 355.328432 
" clip-path="url(#p4695d4c56c)" style="fill: none; stroke: #264653; stroke-width: 2.5; stroke-linecap: square"/>
    <defs>
     <path id="mace5a78b36" d="M -3 3 
L 3 3 
L 3 -3 
L -3 -3 
z
" style="stroke: #264653; stroke-linejoin: miter"/>
    </defs>
    <g clip-path="url(#p4695d4c56c)">
     <use xlink:href="#mace5a78b36" x="93.403612" y="383.556201" style="fill: #264653; stroke: #264653; stroke-linejoin: miter"/>
     <use xlink:href="#mace5a78b36" x="257.813731" y="375.615784" style="fill: #264653; stroke: #264653; stroke-linejoin: miter"/>
     <use xlink:href="#mace5a78b36" x="373.523562" y="369.564903" style="fill: #264653; stroke: #264653; stroke-linejoin: miter"/>
     <use xlink:href="#mace5a78b36" x="530.055413" y="358.319282" style="fill: #264653; stroke: #264653; stroke-linejoin: miter"/>
     <use xlink:href="#mace5a78b36" x="678.847791" y="355.328432" style="fill: #264653; stroke: #264653; stroke-linejoin: miter"/>
    </g>
   </g>
   <g id="patch_3">
    <path d="M 64.131403 432.713363 
L 64.131403 67.44375 
" style="fill: none; stroke: #000000; stroke-width: 0.8; stroke-linejoin: miter; stroke-linecap: square"/>
   </g>
   <g id="patch_4">
    <path d="M 708.12 432.713363 
L 708.12 67.44375 
" style="fill: none; stroke: #000000; stroke-width: 0.8; stroke-linejoin: miter; stroke-linecap: square"/>
   </g>
   <g id="patch_5">
    <path d="M 64.131403 432.713363 
L 708.12 432.713363 
" style="fill: none; stroke: #000000; stroke-width: 0.8; stroke-linejoin: miter; stroke-linecap: square"/>
   </g>
   <g id="patch_6">
    <path d="M 64.131403 67.44375 
L 708.12 67.44375 
" style="fill: none; stroke: #000000; stroke-width: 0.8; stroke-linejoin: miter; stroke-linecap: square"/>
   </g>
   <g id="legend_1">
    <g id="patch_7">
     <path d="M 302.597264 294.940744 
L 469.654139 294.940744 
Q 472.054139 294.940744 472.054139 292.540744 
L 472.054139 207.616369 
Q 472.054139 205.216369 469.654139 205.216369 
L 302.597264 205.216369 
Q 300.197264 205.216369 300.197264 207.616369 
L 300.197264 292.540744 
Q 300.197264 294.940744 302.597264 294.940744 
z
" style="fill: #ffffff; opacity: 0.8; stroke: #cccccc; stroke-linejoin: miter"/>
    </g>
    <g id="text_15">
     <!-- Metric Comparison -->
     <g transform="translate(343.197342 217.529025) scale(0.11 -0.11)">
      <defs>
       <path id="STIXGeneral-Regular-4d" d="M 5530 0 
L 3738 0 
L 3738 122 
Q 4115 147 4214 265 
Q 4314 384 4314 787 
L 4314 3661 
L 2682 0 
L 2592 0 
L 979 3514 
L 979 966 
Q 979 448 1088 294 
Q 1197 141 1574 122 
L 1574 0 
L 77 0 
L 77 122 
Q 358 141 480 205 
Q 602 269 650 432 
Q 698 595 698 966 
L 698 3514 
Q 698 3878 589 3984 
Q 480 4090 90 4115 
L 90 4237 
L 1357 4237 
L 2835 1024 
L 4250 4237 
L 5523 4237 
L 5523 4115 
Q 5178 4109 5072 3993 
Q 4966 3878 4966 3520 
L 4966 717 
Q 4966 378 5072 262 
Q 5178 147 5530 122 
L 5530 0 
z
" transform="scale(0.015625)"/>
       <path id="STIXGeneral-Regular-43" d="M 3930 838 
L 4051 723 
Q 3482 -90 2304 -90 
Q 1376 -90 794 480 
Q 179 1082 179 2080 
Q 179 3014 755 3661 
Q 1357 4326 2310 4326 
Q 2720 4326 3072 4230 
Q 3475 4115 3514 4115 
Q 3725 4115 3782 4326 
L 3910 4326 
L 3968 2874 
L 3821 2874 
Q 3718 3334 3488 3584 
Q 3034 4070 2458 4070 
Q 1747 4070 1334 3548 
Q 922 3027 922 2182 
Q 922 1152 1382 653 
Q 1811 192 2522 192 
Q 2944 192 3251 339 
Q 3558 486 3930 838 
z
" transform="scale(0.015625)"/>
       <path id="STIXGeneral-Regular-70" d="M 1018 2931 
L 1018 2438 
Q 1421 2944 1939 2944 
Q 2406 2944 2707 2560 
Q 3008 2176 3008 1581 
Q 3008 883 2621 409 
Q 2234 -64 1664 -64 
Q 1466 -64 1328 -6 
Q 1190 51 1018 211 
L 1018 -794 
Q 1018 -1094 1120 -1180 
Q 1222 -1267 1581 -1274 
L 1581 -1389 
L 32 -1389 
L 32 -1280 
Q 314 -1254 397 -1171 
Q 480 -1088 480 -838 
L 480 2157 
Q 480 2381 429 2451 
Q 378 2522 218 2522 
Q 115 2522 58 2515 
L 58 2618 
Q 506 2752 979 2944 
L 1018 2931 
z
M 1018 2138 
L 1018 563 
Q 1018 422 1238 281 
Q 1459 141 1683 141 
Q 2029 141 2243 467 
Q 2458 794 2458 1325 
Q 2458 1888 2243 2224 
Q 2029 2560 1670 2560 
Q 1446 2560 1232 2419 
Q 1018 2278 1018 2138 
z
" transform="scale(0.015625)"/>
      </defs>
      <use xlink:href="#STIXGeneral-Regular-4d"/>
      <use xlink:href="#STIXGeneral-Regular-65" x="88.899994"/>
      <use xlink:href="#STIXGeneral-Regular-74" x="133.299988"/>
      <use xlink:href="#STIXGeneral-Regular-72" x="161.099976"/>
      <use xlink:href="#STIXGeneral-Regular-69" x="194.399963"/>
      <use xlink:href="#STIXGeneral-Regular-63" x="222.199951"/>
      <use xlink:href="#STIXGeneral-Regular-20" x="266.599945"/>
      <use xlink:href="#STIXGeneral-Regular-43" x="291.59993"/>
      <use xlink:href="#STIXGeneral-Regular-6f" x="358.299927"/>
      <use xlink:href="#STIXGeneral-Regular-6d" x="408.299911"/>
      <use xlink:href="#STIXGeneral-Regular-70" x="486.099899"/>
      <use xlink:href="#STIXGeneral-Regular-61" x="536.099884"/>
      <use xlink:href="#STIXGeneral-Regular-72" x="580.499878"/>
      <use xlink:href="#STIXGeneral-Regular-69" x="613.799866"/>
      <use xlink:href="#STIXGeneral-Regular-73" x="641.599854"/>
      <use xlink:href="#STIXGeneral-Regular-6f" x="680.499847"/>
      <use xlink:href="#STIXGeneral-Regular-6e" x="730.499832"/>
     </g>
    </g>
    <g id="line2d_165">
     <path d="M 304.997264 230.116369 
L 316.997264 230.116369 
L 328.997264 230.116369 
" style="fill: none; stroke: #f4a261; stroke-width: 2.5; stroke-linecap: square"/>
     <g>
      <use xlink:href="#m7a7445eca5" x="316.997264" y="230.116369" style="fill: #f4a261; stroke: #f4a261"/>
     </g>
    </g>
    <g id="text_16">
     <!-- Noisy vs. Clean (Baseline) -->
     <g transform="translate(338.597264 234.316369) scale(0.12 -0.12)">
      <defs>
       <path id="STIXGeneral-Regular-79" d="M 3040 2880 
L 3040 2784 
Q 2925 2771 2854 2700 
Q 2784 2630 2720 2458 
L 1760 -160 
Q 1510 -838 1257 -1116 
Q 1005 -1395 640 -1395 
Q 435 -1395 313 -1289 
Q 192 -1184 192 -1024 
Q 192 -902 272 -816 
Q 352 -730 467 -730 
Q 653 -730 800 -813 
Q 883 -858 966 -858 
Q 1101 -858 1286 -576 
Q 1376 -448 1459 -211 
Q 1542 26 1542 115 
Q 1542 198 1274 762 
L 429 2566 
Q 346 2752 90 2790 
L 90 2880 
L 1402 2880 
L 1402 2784 
Q 1197 2778 1117 2739 
Q 1037 2701 1037 2611 
Q 1037 2541 1120 2349 
L 1837 749 
L 2458 2515 
Q 2483 2573 2483 2630 
Q 2483 2784 2189 2784 
L 2189 2880 
L 3040 2880 
z
" transform="scale(0.015625)"/>
       <path id="STIXGeneral-Regular-2e" d="M 1158 275 
Q 1158 134 1052 32 
Q 947 -70 800 -70 
Q 653 -70 550 32 
Q 448 134 448 281 
Q 448 429 553 534 
Q 659 640 806 640 
Q 947 640 1052 531 
Q 1158 422 1158 275 
z
" transform="scale(0.015625)"/>
       <path id="STIXGeneral-Regular-6c" d="M 1645 0 
L 134 0 
L 134 96 
Q 435 122 531 221 
Q 627 320 627 589 
L 627 3590 
Q 627 3821 569 3910 
Q 512 4000 358 4000 
Q 224 4000 122 3987 
L 122 4090 
Q 730 4237 1133 4371 
L 1165 4346 
L 1165 557 
Q 1165 288 1254 201 
Q 1344 115 1645 96 
L 1645 0 
z
" transform="scale(0.015625)"/>
       <path id="STIXGeneral-Regular-28" d="M 1946 -1030 
L 1869 -1133 
Q 1126 -710 716 32 
Q 307 774 307 1613 
Q 307 3386 1888 4326 
L 1946 4224 
Q 1293 3667 1075 3126 
Q 858 2586 858 1632 
Q 858 685 1082 96 
Q 1306 -493 1946 -1030 
z
" transform="scale(0.015625)"/>
       <path id="STIXGeneral-Regular-42" d="M 2701 2234 
L 2701 2227 
Q 3181 2150 3482 1875 
Q 3795 1594 3795 1139 
Q 3795 608 3379 304 
Q 2963 0 2266 0 
L 109 0 
L 109 122 
Q 486 134 604 246 
Q 723 358 723 723 
L 723 3520 
Q 723 3891 614 3990 
Q 506 4090 109 4115 
L 109 4237 
L 1901 4237 
Q 2726 4237 3152 3958 
Q 3578 3680 3578 3168 
Q 3578 2733 3315 2502 
Q 3130 2342 2701 2234 
z
M 1376 2342 
L 1965 2342 
Q 2925 2342 2925 3136 
Q 2925 3546 2640 3773 
Q 2355 4000 1792 4000 
L 1530 4000 
Q 1376 4000 1376 3795 
L 1376 2342 
z
M 1376 2086 
L 1376 525 
Q 1376 365 1462 301 
Q 1549 237 1773 237 
Q 2208 237 2413 285 
Q 2618 333 2816 512 
Q 3059 723 3059 1146 
Q 3059 1632 2758 1830 
Q 2688 1882 2617 1917 
Q 2547 1952 2492 1974 
Q 2438 1997 2348 2016 
Q 2259 2035 2211 2044 
Q 2163 2054 2041 2060 
Q 1920 2067 1862 2070 
Q 1805 2074 1635 2080 
Q 1466 2086 1376 2086 
z
" transform="scale(0.015625)"/>
       <path id="STIXGeneral-Regular-29" d="M 186 4224 
L 262 4326 
Q 992 3891 1408 3148 
Q 1824 2406 1824 1581 
Q 1824 -166 243 -1133 
L 186 -1030 
Q 845 -486 1059 54 
Q 1274 595 1274 1562 
Q 1274 2534 1059 3120 
Q 845 3706 186 4224 
z
" transform="scale(0.015625)"/>
      </defs>
      <use xlink:href="#STIXGeneral-Regular-4e"/>
      <use xlink:href="#STIXGeneral-Regular-6f" x="72.199982"/>
      <use xlink:href="#STIXGeneral-Regular-69" x="122.199966"/>
      <use xlink:href="#STIXGeneral-Regular-73" x="149.999954"/>
      <use xlink:href="#STIXGeneral-Regular-79" x="188.899948"/>
      <use xlink:href="#STIXGeneral-Regular-20" x="238.899933"/>
      <use xlink:href="#STIXGeneral-Regular-76" x="263.899918"/>
      <use xlink:href="#STIXGeneral-Regular-73" x="313.899902"/>
      <use xlink:href="#STIXGeneral-Regular-2e" x="352.799896"/>
      <use xlink:href="#STIXGeneral-Regular-20" x="377.799881"/>
      <use xlink:href="#STIXGeneral-Regular-43" x="402.799866"/>
      <use xlink:href="#STIXGeneral-Regular-6c" x="469.499863"/>
      <use xlink:href="#STIXGeneral-Regular-65" x="497.29985"/>
      <use xlink:href="#STIXGeneral-Regular-61" x="541.699844"/>
      <use xlink:href="#STIXGeneral-Regular-6e" x="586.099838"/>
      <use xlink:href="#STIXGeneral-Regular-20" x="636.099823"/>
      <use xlink:href="#STIXGeneral-Regular-28" x="661.099808"/>
      <use xlink:href="#STIXGeneral-Regular-42" x="694.399796"/>
      <use xlink:href="#STIXGeneral-Regular-61" x="761.099792"/>
      <use xlink:href="#STIXGeneral-Regular-73" x="805.499786"/>
      <use xlink:href="#STIXGeneral-Regular-65" x="844.39978"/>
      <use xlink:href="#STIXGeneral-Regular-6c" x="888.799774"/>
      <use xlink:href="#STIXGeneral-Regular-69" x="916.599762"/>
      <use xlink:href="#STIXGeneral-Regular-6e" x="944.39975"/>
      <use xlink:href="#STIXGeneral-Regular-65" x="994.399734"/>
      <use xlink:href="#STIXGeneral-Regular-29" x="1038.799728"/>
     </g>
    </g>
    <g id="line2d_166">
     <path d="M 304.997264 247.131994 
L 316.997264 247.131994 
L 328.997264 247.131994 
" style="fill: none; stroke: #2a9d8f; stroke-width: 2.5; stroke-linecap: square"/>
     <g>
      <use xlink:href="#md9aadf0b8e" x="316.997264" y="247.131994" style="fill: #2a9d8f; stroke: #2a9d8f"/>
     </g>
    </g>
    <g id="text_17">
     <!-- Recon vs. Clean ($\sigma_{inst}$) -->
     <g transform="translate(338.597264 251.331994) scale(0.12 -0.12)">
      <defs>
       <path id="STIXGeneral-Italic-3c3" d="M 3398 2739 
L 3283 2266 
L 2195 2266 
Q 2291 2112 2457 1981 
Q 2624 1850 2717 1725 
Q 2810 1600 2810 1389 
Q 2810 851 2288 390 
Q 1766 -70 1107 -70 
Q 659 -70 416 170 
Q 173 410 173 832 
Q 173 1274 409 1706 
Q 646 2138 1113 2438 
Q 1581 2739 2157 2739 
L 3398 2739 
z
M 2272 1414 
Q 2272 1709 2166 1939 
Q 2061 2170 1901 2266 
Q 1530 2266 1120 1770 
Q 710 1274 710 640 
Q 710 358 844 211 
Q 979 64 1210 64 
Q 1638 64 1955 525 
Q 2272 986 2272 1414 
z
" transform="scale(0.015625)"/>
       <path id="STIXGeneral-Italic-69" d="M 1690 3834 
Q 1690 3699 1597 3603 
Q 1504 3507 1376 3507 
Q 1235 3507 1152 3600 
Q 1069 3693 1069 3846 
Q 1069 3994 1155 4090 
Q 1242 4186 1370 4186 
Q 1498 4186 1594 4080 
Q 1690 3974 1690 3834 
z
M 1421 730 
L 1504 659 
Q 1235 243 1049 86 
Q 864 -70 627 -70 
Q 314 -70 314 282 
Q 314 467 454 992 
L 762 2125 
Q 819 2330 819 2406 
Q 819 2502 745 2528 
Q 672 2554 410 2560 
L 410 2662 
Q 704 2688 1434 2822 
L 1459 2803 
L 858 608 
Q 794 390 794 326 
Q 794 230 883 230 
Q 1043 230 1421 730 
z
" transform="scale(0.015625)"/>
       <path id="STIXGeneral-Italic-6e" d="M 2944 749 
L 3034 666 
Q 2707 218 2534 80 
Q 2362 -58 2138 -58 
Q 2010 -58 1923 28 
Q 1837 115 1837 288 
Q 1837 390 1939 768 
L 2221 1805 
Q 2310 2150 2310 2310 
Q 2310 2496 2157 2496 
Q 1971 2496 1750 2275 
Q 1530 2054 1210 1587 
Q 998 1274 899 1024 
Q 800 774 570 0 
L 90 0 
L 704 2240 
Q 717 2304 717 2349 
Q 717 2445 630 2480 
Q 544 2515 301 2522 
L 301 2624 
Q 550 2675 857 2729 
Q 1165 2784 1338 2822 
L 1363 2810 
L 934 1414 
Q 1408 2170 1753 2496 
Q 2099 2822 2413 2822 
Q 2611 2822 2720 2716 
Q 2829 2611 2829 2432 
Q 2829 2272 2765 2048 
L 2406 749 
Q 2317 429 2317 358 
Q 2317 243 2419 243 
Q 2541 243 2810 582 
Q 2854 634 2944 749 
z
" transform="scale(0.015625)"/>
       <path id="STIXGeneral-Italic-73" d="M 2342 2829 
L 2214 1933 
L 2112 1933 
Q 2022 2675 1542 2675 
Q 1370 2675 1267 2579 
Q 1165 2483 1165 2310 
Q 1165 2067 1510 1658 
Q 1946 1152 1946 787 
Q 1946 397 1686 163 
Q 1427 -70 1024 -70 
Q 838 -70 672 -6 
Q 538 51 390 51 
Q 262 51 205 -83 
L 102 -83 
L 230 934 
L 333 934 
Q 461 64 973 64 
Q 1203 64 1331 192 
Q 1459 320 1459 557 
Q 1459 845 1101 1293 
Q 698 1798 698 2131 
Q 698 2451 909 2636 
Q 1120 2822 1472 2822 
Q 1600 2822 1830 2758 
Q 1971 2714 2061 2714 
Q 2189 2714 2253 2829 
L 2342 2829 
z
" transform="scale(0.015625)"/>
       <path id="STIXGeneral-Italic-74" d="M 1894 2739 
L 1862 2534 
L 1325 2534 
L 768 435 
Q 755 384 755 346 
Q 755 243 851 243 
Q 928 243 1030 342 
Q 1133 442 1370 749 
L 1453 704 
Q 1158 256 969 93 
Q 781 -70 538 -70 
Q 243 -70 243 166 
Q 243 230 346 640 
L 845 2534 
L 365 2534 
L 358 2573 
Q 358 2688 570 2733 
Q 730 2771 992 2979 
Q 1254 3187 1421 3437 
Q 1459 3494 1510 3494 
Q 1568 3494 1568 3443 
Q 1568 3411 1562 3398 
L 1382 2739 
L 1894 2739 
z
" transform="scale(0.015625)"/>
      </defs>
      <use xlink:href="#STIXGeneral-Regular-52" transform="translate(0 0.703125)"/>
      <use xlink:href="#STIXGeneral-Regular-65" transform="translate(66.699997 0.703125)"/>
      <use xlink:href="#STIXGeneral-Regular-63" transform="translate(111.099991 0.703125)"/>
      <use xlink:href="#STIXGeneral-Regular-6f" transform="translate(155.499985 0.703125)"/>
      <use xlink:href="#STIXGeneral-Regular-6e" transform="translate(205.499969 0.703125)"/>
      <use xlink:href="#STIXGeneral-Regular-20" transform="translate(255.499954 0.703125)"/>
      <use xlink:href="#STIXGeneral-Regular-76" transform="translate(280.499939 0.703125)"/>
      <use xlink:href="#STIXGeneral-Regular-73" transform="translate(330.499924 0.703125)"/>
      <use xlink:href="#STIXGeneral-Regular-2e" transform="translate(369.399918 0.703125)"/>
      <use xlink:href="#STIXGeneral-Regular-20" transform="translate(394.399902 0.703125)"/>
      <use xlink:href="#STIXGeneral-Regular-43" transform="translate(419.399887 0.703125)"/>
      <use xlink:href="#STIXGeneral-Regular-6c" transform="translate(486.099884 0.703125)"/>
      <use xlink:href="#STIXGeneral-Regular-65" transform="translate(513.899872 0.703125)"/>
      <use xlink:href="#STIXGeneral-Regular-61" transform="translate(558.299866 0.703125)"/>
      <use xlink:href="#STIXGeneral-Regular-6e" transform="translate(602.69986 0.703125)"/>
      <use xlink:href="#STIXGeneral-Regular-20" transform="translate(652.699844 0.703125)"/>
      <use xlink:href="#STIXGeneral-Regular-28" transform="translate(677.699829 0.703125)"/>
      <use xlink:href="#STIXGeneral-Italic-3c3" transform="translate(710.999817 0.703125)"/>
      <use xlink:href="#STIXGeneral-Italic-69" transform="translate(760.799805 -12.525) scale(0.7)"/>
      <use xlink:href="#STIXGeneral-Italic-6e" transform="translate(780.259796 -12.525) scale(0.7)"/>
      <use xlink:href="#STIXGeneral-Italic-73" transform="translate(815.259785 -12.525) scale(0.7)"/>
      <use xlink:href="#STIXGeneral-Italic-74" transform="translate(842.489781 -12.525) scale(0.7)"/>
      <use xlink:href="#STIXGeneral-Regular-29" transform="translate(866.359148 0.703125)"/>
     </g>
    </g>
    <g id="line2d_167">
     <path d="M 304.997264 264.136369 
L 316.997264 264.136369 
L 328.997264 264.136369 
" style="fill: none; stroke: #264653; stroke-width: 2.5; stroke-linecap: square"/>
     <g>
      <use xlink:href="#mace5a78b36" x="316.997264" y="264.136369" style="fill: #264653; stroke: #264653; stroke-linejoin: miter"/>
     </g>
    </g>
    <g id="text_18">
     <!-- Recon vs. Clean ($\sigma_{total}$) -->
     <g transform="translate(338.597264 268.336369) scale(0.12 -0.12)">
      <defs>
       <path id="STIXGeneral-Italic-6f" d="M 2995 1926 
Q 2995 1562 2812 1168 
Q 2630 774 2317 461 
Q 1786 -70 1114 -70 
Q 666 -70 419 163 
Q 173 397 173 819 
Q 173 1350 496 1856 
Q 819 2362 1325 2630 
Q 1683 2822 2093 2822 
Q 2490 2822 2742 2582 
Q 2995 2342 2995 1926 
z
M 2458 2086 
Q 2458 2374 2336 2531 
Q 2214 2688 2003 2688 
Q 1574 2688 1184 2106 
Q 710 1382 710 646 
Q 710 365 844 214 
Q 979 64 1210 64 
Q 1600 64 1984 595 
Q 2202 890 2330 1302 
Q 2458 1715 2458 2086 
z
" transform="scale(0.015625)"/>
       <path id="STIXGeneral-Italic-61" d="M 2963 710 
L 3046 640 
Q 2688 205 2518 70 
Q 2349 -64 2157 -64 
Q 1901 -64 1901 198 
Q 1901 358 2048 934 
Q 1690 397 1389 163 
Q 1088 -70 749 -70 
Q 467 -70 288 125 
Q 109 320 109 672 
Q 109 1158 387 1664 
Q 666 2170 1094 2496 
Q 1523 2822 1939 2822 
Q 2368 2822 2451 2451 
L 2522 2758 
L 2541 2778 
L 2931 2822 
L 2976 2803 
Q 2970 2778 2938 2669 
Q 2368 595 2368 346 
Q 2368 262 2458 262 
Q 2554 262 2790 525 
L 2963 710 
z
M 2336 2310 
Q 2336 2477 2240 2579 
Q 2144 2682 1978 2682 
Q 1542 2682 1139 2093 
Q 928 1779 787 1395 
Q 646 1011 646 717 
Q 646 243 1030 243 
Q 1408 243 1843 870 
Q 2336 1581 2336 2310 
z
" transform="scale(0.015625)"/>
       <path id="STIXGeneral-Italic-6c" d="M 1786 4339 
L 806 595 
Q 755 410 755 320 
Q 755 205 864 205 
Q 1037 205 1293 570 
L 1453 794 
L 1542 730 
Q 1254 275 1046 102 
Q 838 -70 576 -70 
Q 262 -70 262 288 
Q 262 397 288 480 
L 1165 3834 
Q 1184 3898 1184 3955 
Q 1184 4096 870 4096 
L 755 4096 
L 755 4198 
Q 1203 4250 1747 4371 
L 1786 4339 
z
" transform="scale(0.015625)"/>
      </defs>
      <use xlink:href="#STIXGeneral-Regular-52" transform="translate(0 0.703125)"/>
      <use xlink:href="#STIXGeneral-Regular-65" transform="translate(66.699997 0.703125)"/>
      <use xlink:href="#STIXGeneral-Regular-63" transform="translate(111.099991 0.703125)"/>
      <use xlink:href="#STIXGeneral-Regular-6f" transform="translate(155.499985 0.703125)"/>
      <use xlink:href="#STIXGeneral-Regular-6e" transform="translate(205.499969 0.703125)"/>
      <use xlink:href="#STIXGeneral-Regular-20" transform="translate(255.499954 0.703125)"/>
      <use xlink:href="#STIXGeneral-Regular-76" transform="translate(280.499939 0.703125)"/>
      <use xlink:href="#STIXGeneral-Regular-73" transform="translate(330.499924 0.703125)"/>
      <use xlink:href="#STIXGeneral-Regular-2e" transform="translate(369.399918 0.703125)"/>
      <use xlink:href="#STIXGeneral-Regular-20" transform="translate(394.399902 0.703125)"/>
      <use xlink:href="#STIXGeneral-Regular-43" transform="translate(419.399887 0.703125)"/>
      <use xlink:href="#STIXGeneral-Regular-6c" transform="translate(486.099884 0.703125)"/>
      <use xlink:href="#STIXGeneral-Regular-65" transform="translate(513.899872 0.703125)"/>
      <use xlink:href="#STIXGeneral-Regular-61" transform="translate(558.299866 0.703125)"/>
      <use xlink:href="#STIXGeneral-Regular-6e" transform="translate(602.69986 0.703125)"/>
      <use xlink:href="#STIXGeneral-Regular-20" transform="translate(652.699844 0.703125)"/>
      <use xlink:href="#STIXGeneral-Regular-28" transform="translate(677.699829 0.703125)"/>
      <use xlink:href="#STIXGeneral-Italic-3c3" transform="translate(710.999817 0.703125)"/>
      <use xlink:href="#STIXGeneral-Italic-74" transform="translate(760.799805 -12.525) scale(0.7)"/>
      <use xlink:href="#STIXGeneral-Italic-6f" transform="translate(780.259796 -12.525) scale(0.7)"/>
      <use xlink:href="#STIXGeneral-Italic-74" transform="translate(815.259785 -12.525) scale(0.7)"/>
      <use xlink:href="#STIXGeneral-Italic-61" transform="translate(834.719777 -12.525) scale(0.7)"/>
      <use xlink:href="#STIXGeneral-Italic-6c" transform="translate(869.789771 -12.525) scale(0.7)"/>
      <use xlink:href="#STIXGeneral-Regular-29" transform="translate(893.659137 0.703125)"/>
     </g>
    </g>
    <g id="line2d_168">
     <path d="M 304.997264 282.700744 
L 316.997264 282.700744 
L 328.997264 282.700744 
" style="fill: none; stroke-dasharray: 1.5,2.475; stroke-dashoffset: 0; stroke: #000000; stroke-opacity: 0.6; stroke-width: 1.5"/>
    </g>
    <g id="text_19">
     <!-- Ideal $\chi^2_r = 1$ -->
     <g transform="translate(338.597264 286.900744) scale(0.12 -0.12)">
      <defs>
       <path id="STIXGeneral-Regular-49" d="M 2016 0 
L 115 0 
L 115 122 
Q 518 134 627 240 
Q 736 346 736 717 
L 736 3526 
Q 736 3898 633 3994 
Q 531 4090 115 4115 
L 115 4237 
L 2016 4237 
L 2016 4115 
Q 1613 4096 1501 3993 
Q 1389 3891 1389 3526 
L 1389 717 
Q 1389 358 1504 246 
Q 1619 134 2016 122 
L 2016 0 
z
" transform="scale(0.015625)"/>
       <path id="STIXGeneral-Regular-3d" d="M 4077 2048 
L 307 2048 
L 307 2470 
L 4077 2470 
L 4077 2048 
z
M 4077 768 
L 307 768 
L 307 1190 
L 4077 1190 
L 4077 768 
z
" transform="scale(0.015625)"/>
      </defs>
      <use xlink:href="#STIXGeneral-Regular-49" transform="translate(0 0.409375)"/>
      <use xlink:href="#STIXGeneral-Regular-64" transform="translate(33.299988 0.409375)"/>
      <use xlink:href="#STIXGeneral-Regular-65" transform="translate(83.299973 0.409375)"/>
      <use xlink:href="#STIXGeneral-Regular-61" transform="translate(127.699966 0.409375)"/>
      <use xlink:href="#STIXGeneral-Regular-6c" transform="translate(172.09996 0.409375)"/>
      <use xlink:href="#STIXGeneral-Regular-20" transform="translate(199.899948 0.409375)"/>
      <use xlink:href="#STIXGeneral-Italic-3c7" transform="translate(224.899933 0.409375)"/>
      <use xlink:href="#STIXGeneral-Regular-32" transform="translate(276.773055 35.684375) scale(0.7)"/>
      <use xlink:href="#STIXGeneral-Italic-72" transform="translate(270.59993 -26.046875) scale(0.7)"/>
      <use xlink:href="#STIXGeneral-Regular-3d" transform="translate(330.622415 0.409375)"/>
      <use xlink:href="#STIXGeneral-Regular-31" transform="translate(413.562397 0.409375)"/>
     </g>
    </g>
   </g>
  </g>
  <g id="text_20">
   <!-- Reduced Chi-Squared Analysis vs. Number of Transits -->
   <g transform="translate(139.745312 23.739375) scale(0.2 -0.2)">
    <defs>
     <path id="STIXGeneral-Regular-68" d="M 3117 0 
L 1760 0 
L 1760 96 
Q 2042 128 2118 224 
Q 2195 320 2195 653 
L 2195 1920 
Q 2195 2598 1722 2598 
Q 1530 2598 1370 2508 
Q 1210 2419 1005 2195 
L 1005 653 
Q 1005 320 1081 224 
Q 1158 128 1440 96 
L 1440 0 
L 58 0 
L 58 96 
Q 333 134 400 224 
Q 467 314 467 653 
L 467 3667 
Q 467 3872 406 3933 
Q 346 3994 141 3994 
Q 83 3994 64 3987 
L 64 4090 
L 237 4141 
Q 730 4288 973 4371 
L 1005 4352 
L 1005 2406 
Q 1229 2694 1446 2819 
Q 1664 2944 1946 2944 
Q 2733 2944 2733 1926 
L 2733 653 
Q 2733 320 2793 233 
Q 2854 147 3117 96 
L 3117 0 
z
" transform="scale(0.015625)"/>
     <path id="STIXGeneral-Regular-2d" d="M 1824 1242 
L 250 1242 
L 250 1645 
L 1824 1645 
L 1824 1242 
z
" transform="scale(0.015625)"/>
     <path id="STIXGeneral-Regular-53" d="M 3002 2963 
L 2842 2963 
Q 2733 3360 2579 3565 
Q 2189 4064 1651 4064 
Q 1357 4064 1181 3894 
Q 1005 3725 1005 3456 
Q 1005 3328 1069 3206 
Q 1133 3085 1206 2998 
Q 1280 2912 1465 2784 
Q 1651 2656 1766 2589 
Q 1882 2522 2150 2362 
Q 2669 2061 2905 1763 
Q 3142 1466 3142 1107 
Q 3142 576 2771 243 
Q 2400 -90 1837 -90 
Q 1421 -90 1082 58 
Q 915 128 781 128 
Q 704 128 653 70 
Q 602 13 602 -83 
L 461 -83 
L 275 1274 
L 416 1274 
Q 845 141 1734 141 
Q 2074 141 2285 342 
Q 2496 544 2496 858 
Q 2496 1158 2310 1363 
Q 2003 1696 1235 2106 
Q 454 2522 454 3206 
Q 454 3718 768 4022 
Q 1082 4326 1568 4326 
Q 1907 4326 2240 4186 
Q 2413 4109 2522 4109 
Q 2688 4109 2726 4326 
L 2861 4326 
L 3002 2963 
z
" transform="scale(0.015625)"/>
     <path id="STIXGeneral-Regular-71" d="M 3123 -1389 
L 1613 -1389 
L 1613 -1280 
Q 1952 -1254 2067 -1158 
Q 2182 -1062 2182 -794 
L 2182 410 
Q 1747 -64 1178 -64 
Q 730 -64 442 320 
Q 154 704 154 1312 
Q 154 2003 560 2473 
Q 966 2944 1562 2944 
Q 1920 2944 2304 2720 
L 2650 2925 
L 2720 2925 
L 2720 -902 
Q 2720 -1107 2797 -1180 
Q 2874 -1254 3123 -1280 
L 3123 -1389 
z
M 2182 813 
L 2182 2131 
Q 2182 2758 1587 2758 
Q 1178 2758 941 2432 
Q 704 2106 704 1542 
Q 704 1210 803 925 
Q 902 640 1062 499 
Q 1254 326 1542 326 
Q 1882 326 2106 531 
Q 2182 602 2182 813 
z
" transform="scale(0.015625)"/>
    </defs>
    <use xlink:href="#STIXGeneral-Regular-52"/>
    <use xlink:href="#STIXGeneral-Regular-65" x="66.699997"/>
    <use xlink:href="#STIXGeneral-Regular-64" x="111.099991"/>
    <use xlink:href="#STIXGeneral-Regular-75" x="161.099976"/>
    <use xlink:href="#STIXGeneral-Regular-63" x="211.09996"/>
    <use xlink:href="#STIXGeneral-Regular-65" x="255.499954"/>
    <use xlink:href="#STIXGeneral-Regular-64" x="299.899948"/>
    <use xlink:href="#STIXGeneral-Regular-20" x="349.899933"/>
    <use xlink:href="#STIXGeneral-Regular-43" x="374.899918"/>
    <use xlink:href="#STIXGeneral-Regular-68" x="441.599915"/>
    <use xlink:href="#STIXGeneral-Regular-69" x="491.599899"/>
    <use xlink:href="#STIXGeneral-Regular-2d" x="519.399887"/>
    <use xlink:href="#STIXGeneral-Regular-53" x="552.699875"/>
    <use xlink:href="#STIXGeneral-Regular-71" x="608.299866"/>
    <use xlink:href="#STIXGeneral-Regular-75" x="658.29985"/>
    <use xlink:href="#STIXGeneral-Regular-61" x="708.299835"/>
    <use xlink:href="#STIXGeneral-Regular-72" x="752.699829"/>
    <use xlink:href="#STIXGeneral-Regular-65" x="785.999817"/>
    <use xlink:href="#STIXGeneral-Regular-64" x="830.399811"/>
    <use xlink:href="#STIXGeneral-Regular-20" x="880.399796"/>
    <use xlink:href="#STIXGeneral-Regular-41" x="905.39978"/>
    <use xlink:href="#STIXGeneral-Regular-6e" x="977.599762"/>
    <use xlink:href="#STIXGeneral-Regular-61" x="1027.599747"/>
    <use xlink:href="#STIXGeneral-Regular-6c" x="1071.999741"/>
    <use xlink:href="#STIXGeneral-Regular-79" x="1099.799728"/>
    <use xlink:href="#STIXGeneral-Regular-73" x="1149.799713"/>
    <use xlink:href="#STIXGeneral-Regular-69" x="1188.699707"/>
    <use xlink:href="#STIXGeneral-Regular-73" x="1216.499695"/>
    <use xlink:href="#STIXGeneral-Regular-20" x="1255.399689"/>
    <use xlink:href="#STIXGeneral-Regular-76" x="1280.399673"/>
    <use xlink:href="#STIXGeneral-Regular-73" x="1330.399658"/>
    <use xlink:href="#STIXGeneral-Regular-2e" x="1369.299652"/>
    <use xlink:href="#STIXGeneral-Regular-20" x="1394.299637"/>
    <use xlink:href="#STIXGeneral-Regular-4e" x="1419.299622"/>
    <use xlink:href="#STIXGeneral-Regular-75" x="1491.499603"/>
    <use xlink:href="#STIXGeneral-Regular-6d" x="1541.499588"/>
    <use xlink:href="#STIXGeneral-Regular-62" x="1619.299576"/>
    <use xlink:href="#STIXGeneral-Regular-65" x="1669.299561"/>
    <use xlink:href="#STIXGeneral-Regular-72" x="1713.699554"/>
    <use xlink:href="#STIXGeneral-Regular-20" x="1746.999542"/>
    <use xlink:href="#STIXGeneral-Regular-6f" x="1771.999527"/>
    <use xlink:href="#STIXGeneral-Regular-66" x="1821.999512"/>
    <use xlink:href="#STIXGeneral-Regular-20" x="1855.2995"/>
    <use xlink:href="#STIXGeneral-Regular-54" x="1880.299484"/>
    <use xlink:href="#STIXGeneral-Regular-72" x="1941.399475"/>
    <use xlink:href="#STIXGeneral-Regular-61" x="1974.699463"/>
    <use xlink:href="#STIXGeneral-Regular-6e" x="2019.099457"/>
    <use xlink:href="#STIXGeneral-Regular-73" x="2069.099442"/>
    <use xlink:href="#STIXGeneral-Regular-69" x="2107.999435"/>
    <use xlink:href="#STIXGeneral-Regular-74" x="2135.799423"/>
    <use xlink:href="#STIXGeneral-Regular-73" x="2163.599411"/>
   </g>
  </g>
 </g>
 <defs>
  <clipPath id="p4695d4c56c">
   <rect x="64.131403" y="67.44375" width="643.988597" height="365.269613"/>
  </clipPath>
 </defs>
</svg>
