<?xml version="1.0" encoding="utf-8" standalone="no"?>
<!DOCTYPE svg PUBLIC "-//W3C//DTD SVG 1.1//EN"
  "http://www.w3.org/Graphics/SVG/1.1/DTD/svg11.dtd">
<svg xmlns:xlink="http://www.w3.org/1999/xlink" width="504pt" height="576pt" viewBox="0 0 504 576" xmlns="http://www.w3.org/2000/svg" version="1.1">
 <metadata>
  <rdf:RDF xmlns:dc="http://purl.org/dc/elements/1.1/" xmlns:cc="http://creativecommons.org/ns#" xmlns:rdf="http://www.w3.org/1999/02/22-rdf-syntax-ns#">
   <cc:Work>
    <dc:type rdf:resource="http://purl.org/dc/dcmitype/StillImage"/>
    <dc:date>2025-10-06T17:51:10.915521</dc:date>
    <dc:format>image/svg+xml</dc:format>
    <dc:creator>
     <cc:Agent>
      <dc:title>Matplotlib v3.9.2, https://matplotlib.org/</dc:title>
     </cc:Agent>
    </dc:creator>
   </cc:Work>
  </rdf:RDF>
 </metadata>
 <defs>
  <style type="text/css">*{stroke-linejoin: round; stroke-linecap: butt}</style>
 </defs>
 <g id="figure_1">
  <g id="patch_1">
   <path d="M 0 576 
L 504 576 
L 504 0 
L 0 0 
z
" style="fill: #ffffff"/>
  </g>
  <g id="axes_1">
   <g id="patch_2">
    <path d="M 67.041239 275.731627 
L 491.04 275.731627 
L 491.04 49.608 
L 67.041239 49.608 
z
" style="fill: #ffffff"/>
   </g>
   <g id="matplotlib.axis_1">
    <g id="xtick_1">
     <g id="line2d_1">
      <path d="M 86.31391 275.731627 
L 86.31391 49.608 
" clip-path="url(#p9a454b67ae)" style="fill: none; stroke-dasharray: 2.59,1.12; stroke-dashoffset: 0; stroke: #cccccc; stroke-width: 0.7"/>
     </g>
    </g>
    <g id="xtick_2">
     <g id="line2d_2">
      <path d="M 194.560682 275.731627 
L 194.560682 49.608 
" clip-path="url(#p9a454b67ae)" style="fill: none; stroke-dasharray: 2.59,1.12; stroke-dashoffset: 0; stroke: #cccccc; stroke-width: 0.7"/>
     </g>
    </g>
    <g id="xtick_3">
     <g id="line2d_3">
      <path d="M 270.743436 275.731627 
L 270.743436 49.608 
" clip-path="url(#p9a454b67ae)" style="fill: none; stroke-dasharray: 2.59,1.12; stroke-dashoffset: 0; stroke: #cccccc; stroke-width: 0.7"/>
     </g>
    </g>
    <g id="xtick_4">
     <g id="line2d_4">
      <path d="M 373.803197 275.731627 
L 373.803197 49.608 
" clip-path="url(#p9a454b67ae)" style="fill: none; stroke-dasharray: 2.59,1.12; stroke-dashoffset: 0; stroke: #cccccc; stroke-width: 0.7"/>
     </g>
    </g>
    <g id="xtick_5">
     <g id="line2d_5">
      <path d="M 471.767329 275.731627 
L 471.767329 49.608 
" clip-path="url(#p9a454b67ae)" style="fill: none; stroke-dasharray: 2.59,1.12; stroke-dashoffset: 0; stroke: #cccccc; stroke-width: 0.7"/>
     </g>
    </g>
    <g id="xtick_6">
     <g id="line2d_6">
      <path d="M 126.264573 275.731627 
L 126.264573 49.608 
" clip-path="url(#p9a454b67ae)" style="fill: none; stroke-dasharray: 2.59,1.12; stroke-dashoffset: 0; stroke: #cccccc; stroke-width: 0.7"/>
     </g>
    </g>
    <g id="xtick_7">
     <g id="line2d_7">
      <path d="M 154.610019 275.731627 
L 154.610019 49.608 
" clip-path="url(#p9a454b67ae)" style="fill: none; stroke-dasharray: 2.59,1.12; stroke-dashoffset: 0; stroke: #cccccc; stroke-width: 0.7"/>
     </g>
    </g>
    <g id="xtick_8">
     <g id="line2d_8">
      <path d="M 176.596455 275.731627 
L 176.596455 49.608 
" clip-path="url(#p9a454b67ae)" style="fill: none; stroke-dasharray: 2.59,1.12; stroke-dashoffset: 0; stroke: #cccccc; stroke-width: 0.7"/>
     </g>
    </g>
    <g id="xtick_9">
     <g id="line2d_9">
      <path d="M 209.749219 275.731627 
L 209.749219 49.608 
" clip-path="url(#p9a454b67ae)" style="fill: none; stroke-dasharray: 2.59,1.12; stroke-dashoffset: 0; stroke: #cccccc; stroke-width: 0.7"/>
     </g>
    </g>
    <g id="xtick_10">
     <g id="line2d_10">
      <path d="M 222.906128 275.731627 
L 222.906128 49.608 
" clip-path="url(#p9a454b67ae)" style="fill: none; stroke-dasharray: 2.59,1.12; stroke-dashoffset: 0; stroke: #cccccc; stroke-width: 0.7"/>
     </g>
    </g>
    <g id="xtick_11">
     <g id="line2d_11">
      <path d="M 234.511345 275.731627 
L 234.511345 49.608 
" clip-path="url(#p9a454b67ae)" style="fill: none; stroke-dasharray: 2.59,1.12; stroke-dashoffset: 0; stroke: #cccccc; stroke-width: 0.7"/>
     </g>
    </g>
    <g id="xtick_12">
     <g id="line2d_12">
      <path d="M 313.188674 275.731627 
L 313.188674 49.608 
" clip-path="url(#p9a454b67ae)" style="fill: none; stroke-dasharray: 2.59,1.12; stroke-dashoffset: 0; stroke: #cccccc; stroke-width: 0.7"/>
     </g>
    </g>
    <g id="xtick_13">
     <g id="line2d_13">
      <path d="M 353.139337 275.731627 
L 353.139337 49.608 
" clip-path="url(#p9a454b67ae)" style="fill: none; stroke-dasharray: 2.59,1.12; stroke-dashoffset: 0; stroke: #cccccc; stroke-width: 0.7"/>
     </g>
    </g>
    <g id="xtick_14">
     <g id="line2d_14">
      <path d="M 381.484783 275.731627 
L 381.484783 49.608 
" clip-path="url(#p9a454b67ae)" style="fill: none; stroke-dasharray: 2.59,1.12; stroke-dashoffset: 0; stroke: #cccccc; stroke-width: 0.7"/>
     </g>
    </g>
    <g id="xtick_15">
     <g id="line2d_15">
      <path d="M 403.47122 275.731627 
L 403.47122 49.608 
" clip-path="url(#p9a454b67ae)" style="fill: none; stroke-dasharray: 2.59,1.12; stroke-dashoffset: 0; stroke: #cccccc; stroke-width: 0.7"/>
     </g>
    </g>
    <g id="xtick_16">
     <g id="line2d_16">
      <path d="M 421.435446 275.731627 
L 421.435446 49.608 
" clip-path="url(#p9a454b67ae)" style="fill: none; stroke-dasharray: 2.59,1.12; stroke-dashoffset: 0; stroke: #cccccc; stroke-width: 0.7"/>
     </g>
    </g>
    <g id="xtick_17">
     <g id="line2d_17">
      <path d="M 436.623983 275.731627 
L 436.623983 49.608 
" clip-path="url(#p9a454b67ae)" style="fill: none; stroke-dasharray: 2.59,1.12; stroke-dashoffset: 0; stroke: #cccccc; stroke-width: 0.7"/>
     </g>
    </g>
    <g id="xtick_18">
     <g id="line2d_18">
      <path d="M 449.780893 275.731627 
L 449.780893 49.608 
" clip-path="url(#p9a454b67ae)" style="fill: none; stroke-dasharray: 2.59,1.12; stroke-dashoffset: 0; stroke: #cccccc; stroke-width: 0.7"/>
     </g>
    </g>
    <g id="xtick_19">
     <g id="line2d_19">
      <path d="M 461.386109 275.731627 
L 461.386109 49.608 
" clip-path="url(#p9a454b67ae)" style="fill: none; stroke-dasharray: 2.59,1.12; stroke-dashoffset: 0; stroke: #cccccc; stroke-width: 0.7"/>
     </g>
    </g>
   </g>
   <g id="matplotlib.axis_2">
    <g id="ytick_1">
     <g id="line2d_20">
      <path d="M 67.041239 246.199724 
L 491.04 246.199724 
" clip-path="url(#p9a454b67ae)" style="fill: none; stroke-dasharray: 2.59,1.12; stroke-dashoffset: 0; stroke: #cccccc; stroke-width: 0.7"/>
     </g>
     <g id="text_1">
      <!-- 15 -->
      <g style="fill: #262626" transform="translate(44.194989 250.494412) scale(0.12 -0.12)">
       <defs>
        <path id="ArialMT-31" d="M 2384 0 
L 1822 0 
L 1822 3584 
Q 1619 3391 1289 3197 
Q 959 3003 697 2906 
L 697 3450 
Q 1169 3672 1522 3987 
Q 1875 4303 2022 4600 
L 2384 4600 
L 2384 0 
z
" transform="scale(0.015625)"/>
        <path id="ArialMT-35" d="M 266 1200 
L 856 1250 
Q 922 819 1161 601 
Q 1400 384 1738 384 
Q 2144 384 2425 690 
Q 2706 997 2706 1503 
Q 2706 1984 2436 2262 
Q 2166 2541 1728 2541 
Q 1456 2541 1237 2417 
Q 1019 2294 894 2097 
L 366 2166 
L 809 4519 
L 3088 4519 
L 3088 3981 
L 1259 3981 
L 1013 2750 
Q 1425 3038 1878 3038 
Q 2478 3038 2890 2622 
Q 3303 2206 3303 1553 
Q 3303 931 2941 478 
Q 2500 -78 1738 -78 
Q 1113 -78 717 272 
Q 322 622 266 1200 
z
" transform="scale(0.015625)"/>
       </defs>
       <use xlink:href="#ArialMT-31"/>
       <use xlink:href="#ArialMT-35" x="55.615234"/>
      </g>
     </g>
    </g>
    <g id="ytick_2">
     <g id="line2d_21">
      <path d="M 67.041239 209.950963 
L 491.04 209.950963 
" clip-path="url(#p9a454b67ae)" style="fill: none; stroke-dasharray: 2.59,1.12; stroke-dashoffset: 0; stroke: #cccccc; stroke-width: 0.7"/>
     </g>
     <g id="text_2">
      <!-- 20 -->
      <g style="fill: #262626" transform="translate(44.194989 214.24565) scale(0.12 -0.12)">
       <defs>
        <path id="ArialMT-32" d="M 3222 541 
L 3222 0 
L 194 0 
Q 188 203 259 391 
Q 375 700 629 1000 
Q 884 1300 1366 1694 
Q 2113 2306 2375 2664 
Q 2638 3022 2638 3341 
Q 2638 3675 2398 3904 
Q 2159 4134 1775 4134 
Q 1369 4134 1125 3890 
Q 881 3647 878 3216 
L 300 3275 
Q 359 3922 746 4261 
Q 1134 4600 1788 4600 
Q 2447 4600 2831 4234 
Q 3216 3869 3216 3328 
Q 3216 3053 3103 2787 
Q 2991 2522 2730 2228 
Q 2469 1934 1863 1422 
Q 1356 997 1212 845 
Q 1069 694 975 541 
L 3222 541 
z
" transform="scale(0.015625)"/>
        <path id="ArialMT-30" d="M 266 2259 
Q 266 3072 433 3567 
Q 600 4063 929 4331 
Q 1259 4600 1759 4600 
Q 2128 4600 2406 4451 
Q 2684 4303 2865 4023 
Q 3047 3744 3150 3342 
Q 3253 2941 3253 2259 
Q 3253 1453 3087 958 
Q 2922 463 2592 192 
Q 2263 -78 1759 -78 
Q 1097 -78 719 397 
Q 266 969 266 2259 
z
M 844 2259 
Q 844 1131 1108 757 
Q 1372 384 1759 384 
Q 2147 384 2411 759 
Q 2675 1134 2675 2259 
Q 2675 3391 2411 3762 
Q 2147 4134 1753 4134 
Q 1366 4134 1134 3806 
Q 844 3388 844 2259 
z
" transform="scale(0.015625)"/>
       </defs>
       <use xlink:href="#ArialMT-32"/>
       <use xlink:href="#ArialMT-30" x="55.615234"/>
      </g>
     </g>
    </g>
    <g id="ytick_3">
     <g id="line2d_22">
      <path d="M 67.041239 173.702201 
L 491.04 173.702201 
" clip-path="url(#p9a454b67ae)" style="fill: none; stroke-dasharray: 2.59,1.12; stroke-dashoffset: 0; stroke: #cccccc; stroke-width: 0.7"/>
     </g>
     <g id="text_3">
      <!-- 25 -->
      <g style="fill: #262626" transform="translate(44.194989 177.996889) scale(0.12 -0.12)">
       <use xlink:href="#ArialMT-32"/>
       <use xlink:href="#ArialMT-35" x="55.615234"/>
      </g>
     </g>
    </g>
    <g id="ytick_4">
     <g id="line2d_23">
      <path d="M 67.041239 137.45344 
L 491.04 137.45344 
" clip-path="url(#p9a454b67ae)" style="fill: none; stroke-dasharray: 2.59,1.12; stroke-dashoffset: 0; stroke: #cccccc; stroke-width: 0.7"/>
     </g>
     <g id="text_4">
      <!-- 30 -->
      <g style="fill: #262626" transform="translate(44.194989 141.748127) scale(0.12 -0.12)">
       <defs>
        <path id="ArialMT-33" d="M 269 1209 
L 831 1284 
Q 928 806 1161 595 
Q 1394 384 1728 384 
Q 2125 384 2398 659 
Q 2672 934 2672 1341 
Q 2672 1728 2419 1979 
Q 2166 2231 1775 2231 
Q 1616 2231 1378 2169 
L 1441 2663 
Q 1497 2656 1531 2656 
Q 1891 2656 2178 2843 
Q 2466 3031 2466 3422 
Q 2466 3731 2256 3934 
Q 2047 4138 1716 4138 
Q 1388 4138 1169 3931 
Q 950 3725 888 3313 
L 325 3413 
Q 428 3978 793 4289 
Q 1159 4600 1703 4600 
Q 2078 4600 2393 4439 
Q 2709 4278 2876 4000 
Q 3044 3722 3044 3409 
Q 3044 3113 2884 2869 
Q 2725 2625 2413 2481 
Q 2819 2388 3044 2092 
Q 3269 1797 3269 1353 
Q 3269 753 2831 336 
Q 2394 -81 1725 -81 
Q 1122 -81 723 278 
Q 325 638 269 1209 
z
" transform="scale(0.015625)"/>
       </defs>
       <use xlink:href="#ArialMT-33"/>
       <use xlink:href="#ArialMT-30" x="55.615234"/>
      </g>
     </g>
    </g>
    <g id="ytick_5">
     <g id="line2d_24">
      <path d="M 67.041239 101.204679 
L 491.04 101.204679 
" clip-path="url(#p9a454b67ae)" style="fill: none; stroke-dasharray: 2.59,1.12; stroke-dashoffset: 0; stroke: #cccccc; stroke-width: 0.7"/>
     </g>
     <g id="text_5">
      <!-- 35 -->
      <g style="fill: #262626" transform="translate(44.194989 105.499366) scale(0.12 -0.12)">
       <use xlink:href="#ArialMT-33"/>
       <use xlink:href="#ArialMT-35" x="55.615234"/>
      </g>
     </g>
    </g>
    <g id="ytick_6">
     <g id="line2d_25">
      <path d="M 67.041239 64.955917 
L 491.04 64.955917 
" clip-path="url(#p9a454b67ae)" style="fill: none; stroke-dasharray: 2.59,1.12; stroke-dashoffset: 0; stroke: #cccccc; stroke-width: 0.7"/>
     </g>
     <g id="text_6">
      <!-- 40 -->
      <g style="fill: #262626" transform="translate(44.194989 69.250605) scale(0.12 -0.12)">
       <defs>
        <path id="ArialMT-34" d="M 2069 0 
L 2069 1097 
L 81 1097 
L 81 1613 
L 2172 4581 
L 2631 4581 
L 2631 1613 
L 3250 1613 
L 3250 1097 
L 2631 1097 
L 2631 0 
L 2069 0 
z
M 2069 1613 
L 2069 3678 
L 634 1613 
L 2069 1613 
z
" transform="scale(0.015625)"/>
       </defs>
       <use xlink:href="#ArialMT-34"/>
       <use xlink:href="#ArialMT-30" x="55.615234"/>
      </g>
     </g>
    </g>
    <g id="text_7">
     <!-- Average $\chi^2$ -->
     <g style="fill: #262626" transform="translate(37.114989 197.109813) rotate(-90) scale(0.14 -0.14)">
      <defs>
       <path id="ArialMT-41" d="M -9 0 
L 1750 4581 
L 2403 4581 
L 4278 0 
L 3588 0 
L 3053 1388 
L 1138 1388 
L 634 0 
L -9 0 
z
M 1313 1881 
L 2866 1881 
L 2388 3150 
Q 2169 3728 2063 4100 
Q 1975 3659 1816 3225 
L 1313 1881 
z
" transform="scale(0.015625)"/>
       <path id="ArialMT-76" d="M 1344 0 
L 81 3319 
L 675 3319 
L 1388 1331 
Q 1503 1009 1600 663 
Q 1675 925 1809 1294 
L 2547 3319 
L 3125 3319 
L 1869 0 
L 1344 0 
z
" transform="scale(0.015625)"/>
       <path id="ArialMT-65" d="M 2694 1069 
L 3275 997 
Q 3138 488 2766 206 
Q 2394 -75 1816 -75 
Q 1088 -75 661 373 
Q 234 822 234 1631 
Q 234 2469 665 2931 
Q 1097 3394 1784 3394 
Q 2450 3394 2872 2941 
Q 3294 2488 3294 1666 
Q 3294 1616 3291 1516 
L 816 1516 
Q 847 969 1125 678 
Q 1403 388 1819 388 
Q 2128 388 2347 550 
Q 2566 713 2694 1069 
z
M 847 1978 
L 2700 1978 
Q 2663 2397 2488 2606 
Q 2219 2931 1791 2931 
Q 1403 2931 1139 2672 
Q 875 2413 847 1978 
z
" transform="scale(0.015625)"/>
       <path id="ArialMT-72" d="M 416 0 
L 416 3319 
L 922 3319 
L 922 2816 
Q 1116 3169 1280 3281 
Q 1444 3394 1641 3394 
Q 1925 3394 2219 3213 
L 2025 2691 
Q 1819 2813 1613 2813 
Q 1428 2813 1281 2702 
Q 1134 2591 1072 2394 
Q 978 2094 978 1738 
L 978 0 
L 416 0 
z
" transform="scale(0.015625)"/>
       <path id="ArialMT-61" d="M 2588 409 
Q 2275 144 1986 34 
Q 1697 -75 1366 -75 
Q 819 -75 525 192 
Q 231 459 231 875 
Q 231 1119 342 1320 
Q 453 1522 633 1644 
Q 813 1766 1038 1828 
Q 1203 1872 1538 1913 
Q 2219 1994 2541 2106 
Q 2544 2222 2544 2253 
Q 2544 2597 2384 2738 
Q 2169 2928 1744 2928 
Q 1347 2928 1158 2789 
Q 969 2650 878 2297 
L 328 2372 
Q 403 2725 575 2942 
Q 747 3159 1072 3276 
Q 1397 3394 1825 3394 
Q 2250 3394 2515 3294 
Q 2781 3194 2906 3042 
Q 3031 2891 3081 2659 
Q 3109 2516 3109 2141 
L 3109 1391 
Q 3109 606 3145 398 
Q 3181 191 3288 0 
L 2700 0 
Q 2613 175 2588 409 
z
M 2541 1666 
Q 2234 1541 1622 1453 
Q 1275 1403 1131 1340 
Q 988 1278 909 1158 
Q 831 1038 831 891 
Q 831 666 1001 516 
Q 1172 366 1500 366 
Q 1825 366 2078 508 
Q 2331 650 2450 897 
Q 2541 1088 2541 1459 
L 2541 1666 
z
" transform="scale(0.015625)"/>
       <path id="ArialMT-67" d="M 319 -275 
L 866 -356 
Q 900 -609 1056 -725 
Q 1266 -881 1628 -881 
Q 2019 -881 2231 -725 
Q 2444 -569 2519 -288 
Q 2563 -116 2559 434 
Q 2191 0 1641 0 
Q 956 0 581 494 
Q 206 988 206 1678 
Q 206 2153 378 2554 
Q 550 2956 876 3175 
Q 1203 3394 1644 3394 
Q 2231 3394 2613 2919 
L 2613 3319 
L 3131 3319 
L 3131 450 
Q 3131 -325 2973 -648 
Q 2816 -972 2473 -1159 
Q 2131 -1347 1631 -1347 
Q 1038 -1347 672 -1080 
Q 306 -813 319 -275 
z
M 784 1719 
Q 784 1066 1043 766 
Q 1303 466 1694 466 
Q 2081 466 2343 764 
Q 2606 1063 2606 1700 
Q 2606 2309 2336 2618 
Q 2066 2928 1684 2928 
Q 1309 2928 1046 2623 
Q 784 2319 784 1719 
z
" transform="scale(0.015625)"/>
       <path id="ArialMT-20" transform="scale(0.015625)"/>
       <path id="STIXGeneral-Italic-3c7" d="M 3187 2739 
L 1363 480 
Q 1357 314 1357 38 
Q 1357 -531 1424 -726 
Q 1491 -922 1645 -922 
Q 1722 -922 1824 -803 
Q 1926 -685 2010 -448 
L 2112 -448 
Q 1939 -1325 1517 -1325 
Q 1312 -1325 1213 -1091 
Q 1114 -858 1114 -506 
Q 1114 -32 1165 288 
L -96 -1274 
L -691 -1274 
L 1146 934 
L 1146 1504 
Q 1146 1990 1085 2204 
Q 1024 2419 858 2419 
Q 774 2419 662 2307 
Q 550 2195 467 1952 
L 365 1952 
Q 416 2144 461 2272 
Q 506 2400 579 2541 
Q 653 2682 755 2752 
Q 858 2822 992 2822 
Q 1178 2822 1270 2617 
Q 1363 2413 1363 1901 
Q 1363 1882 1360 1818 
Q 1357 1754 1350 1571 
Q 1344 1389 1338 1114 
L 2592 2739 
L 3187 2739 
z
" transform="scale(0.015625)"/>
       <path id="STIXGeneral-Regular-32" d="M 3034 877 
L 2688 0 
L 186 0 
L 186 77 
L 1325 1286 
Q 1773 1754 1965 2144 
Q 2157 2534 2157 2950 
Q 2157 3379 1920 3616 
Q 1683 3853 1267 3853 
Q 922 3853 720 3673 
Q 518 3494 326 3021 
L 192 3053 
Q 301 3648 630 3987 
Q 960 4326 1523 4326 
Q 2054 4326 2380 4006 
Q 2707 3686 2707 3200 
Q 2707 2477 1888 1613 
L 832 486 
L 2330 486 
Q 2541 486 2665 569 
Q 2790 653 2944 915 
L 3034 877 
z
" transform="scale(0.015625)"/>
      </defs>
      <use xlink:href="#ArialMT-41" transform="translate(0 0.409375)"/>
      <use xlink:href="#ArialMT-76" transform="translate(66.699219 0.409375)"/>
      <use xlink:href="#ArialMT-65" transform="translate(116.699219 0.409375)"/>
      <use xlink:href="#ArialMT-72" transform="translate(172.314453 0.409375)"/>
      <use xlink:href="#ArialMT-61" transform="translate(205.615234 0.409375)"/>
      <use xlink:href="#ArialMT-67" transform="translate(261.230469 0.409375)"/>
      <use xlink:href="#ArialMT-65" transform="translate(316.845703 0.409375)"/>
      <use xlink:href="#ArialMT-20" transform="translate(372.460938 0.409375)"/>
      <use xlink:href="#STIXGeneral-Italic-3c7" transform="translate(400.244141 0.409375)"/>
      <use xlink:href="#STIXGeneral-Regular-32" transform="translate(452.117263 35.684375) scale(0.7)"/>
     </g>
    </g>
   </g>
   <g id="PolyCollection_1">
    <defs>
     <path id="m2605243629" d="M 86.31391 -340.519458 
L 86.31391 -318.586742 
L 194.560682 -312.070767 
L 270.743436 -310.54672 
L 373.803197 -337.033187 
L 471.767329 -415.29851 
L 471.767329 -516.113653 
L 471.767329 -516.113653 
L 373.803197 -383.989267 
L 270.743436 -367.533625 
L 194.560682 -392.874271 
L 86.31391 -340.519458 
z
" style="stroke: #264653; stroke-opacity: 0.3"/>
    </defs>
    <g clip-path="url(#p9a454b67ae)">
     <use xlink:href="#m2605243629" x="0" y="576" style="fill: #264653; fill-opacity: 0.3; stroke: #264653; stroke-opacity: 0.3"/>
    </g>
   </g>
   <g id="line2d_26">
    <path d="M 86.31391 244.394034 
L 194.560682 205.318649 
L 270.743436 228.447127 
L 373.803197 233.617141 
L 471.767329 153.817198 
" clip-path="url(#p9a454b67ae)" style="fill: none; stroke: #264653; stroke-width: 2.5; stroke-linecap: round"/>
    <defs>
     <path id="mf7f10182ce" d="M 0 3 
C 0.795609 3 1.55874 2.683901 2.12132 2.12132 
C 2.683901 1.55874 3 0.795609 3 0 
C 3 -0.795609 2.683901 -1.55874 2.12132 -2.12132 
C 1.55874 -2.683901 0.795609 -3 0 -3 
C -0.795609 -3 -1.55874 -2.683901 -2.12132 -2.12132 
C -2.683901 -1.55874 -3 -0.795609 -3 0 
C -3 0.795609 -2.683901 1.55874 -2.12132 2.12132 
C -1.55874 2.683901 -0.795609 3 0 3 
z
" style="stroke: #264653"/>
    </defs>
    <g clip-path="url(#p9a454b67ae)">
     <use xlink:href="#mf7f10182ce" x="86.31391" y="244.394034" style="fill: #264653; stroke: #264653"/>
     <use xlink:href="#mf7f10182ce" x="194.560682" y="205.318649" style="fill: #264653; stroke: #264653"/>
     <use xlink:href="#mf7f10182ce" x="270.743436" y="228.447127" style="fill: #264653; stroke: #264653"/>
     <use xlink:href="#mf7f10182ce" x="373.803197" y="233.617141" style="fill: #264653; stroke: #264653"/>
     <use xlink:href="#mf7f10182ce" x="471.767329" y="153.817198" style="fill: #264653; stroke: #264653"/>
    </g>
   </g>
   <g id="patch_3">
    <path d="M 67.041239 275.731627 
L 67.041239 49.608 
" style="fill: none; stroke: #cccccc; stroke-width: 1.25; stroke-linejoin: miter; stroke-linecap: square"/>
   </g>
   <g id="patch_4">
    <path d="M 491.04 275.731627 
L 491.04 49.608 
" style="fill: none; stroke: #cccccc; stroke-width: 1.25; stroke-linejoin: miter; stroke-linecap: square"/>
   </g>
   <g id="patch_5">
    <path d="M 67.041239 275.731627 
L 491.04 275.731627 
" style="fill: none; stroke: #cccccc; stroke-width: 1.25; stroke-linejoin: miter; stroke-linecap: square"/>
   </g>
   <g id="patch_6">
    <path d="M 67.041239 49.608 
L 491.04 49.608 
" style="fill: none; stroke: #cccccc; stroke-width: 1.25; stroke-linejoin: miter; stroke-linecap: square"/>
   </g>
   <g id="legend_1">
    <g id="patch_7">
     <path d="M 75.441239 93.589875 
L 235.896239 93.589875 
Q 238.296239 93.589875 238.296239 91.189875 
L 238.296239 58.008 
Q 238.296239 55.608 235.896239 55.608 
L 75.441239 55.608 
Q 73.041239 55.608 73.041239 58.008 
L 73.041239 91.189875 
Q 73.041239 93.589875 75.441239 93.589875 
z
" style="fill: #ffffff; opacity: 0.8; stroke: #cccccc; stroke-linejoin: miter"/>
    </g>
    <g id="patch_8">
     <path d="M 77.841239 69.143625 
L 101.841239 69.143625 
L 101.841239 60.743625 
L 77.841239 60.743625 
z
" style="fill: #264653; fill-opacity: 0.3; stroke: #264653; stroke-opacity: 0.3; stroke-linejoin: miter"/>
    </g>
    <g id="text_8">
     <!-- TLSE Range -->
     <g style="fill: #262626" transform="translate(111.441239 69.143625) scale(0.12 -0.12)">
      <defs>
       <path id="ArialMT-54" d="M 1659 0 
L 1659 4041 
L 150 4041 
L 150 4581 
L 3781 4581 
L 3781 4041 
L 2266 4041 
L 2266 0 
L 1659 0 
z
" transform="scale(0.015625)"/>
       <path id="ArialMT-4c" d="M 469 0 
L 469 4581 
L 1075 4581 
L 1075 541 
L 3331 541 
L 3331 0 
L 469 0 
z
" transform="scale(0.015625)"/>
       <path id="ArialMT-53" d="M 288 1472 
L 859 1522 
Q 900 1178 1048 958 
Q 1197 738 1509 602 
Q 1822 466 2213 466 
Q 2559 466 2825 569 
Q 3091 672 3220 851 
Q 3350 1031 3350 1244 
Q 3350 1459 3225 1620 
Q 3100 1781 2813 1891 
Q 2628 1963 1997 2114 
Q 1366 2266 1113 2400 
Q 784 2572 623 2826 
Q 463 3081 463 3397 
Q 463 3744 659 4045 
Q 856 4347 1234 4503 
Q 1613 4659 2075 4659 
Q 2584 4659 2973 4495 
Q 3363 4331 3572 4012 
Q 3781 3694 3797 3291 
L 3216 3247 
Q 3169 3681 2898 3903 
Q 2628 4125 2100 4125 
Q 1550 4125 1298 3923 
Q 1047 3722 1047 3438 
Q 1047 3191 1225 3031 
Q 1400 2872 2139 2705 
Q 2878 2538 3153 2413 
Q 3553 2228 3743 1945 
Q 3934 1663 3934 1294 
Q 3934 928 3725 604 
Q 3516 281 3123 101 
Q 2731 -78 2241 -78 
Q 1619 -78 1198 103 
Q 778 284 539 648 
Q 300 1013 288 1472 
z
" transform="scale(0.015625)"/>
       <path id="ArialMT-45" d="M 506 0 
L 506 4581 
L 3819 4581 
L 3819 4041 
L 1113 4041 
L 1113 2638 
L 3647 2638 
L 3647 2100 
L 1113 2100 
L 1113 541 
L 3925 541 
L 3925 0 
L 506 0 
z
" transform="scale(0.015625)"/>
       <path id="ArialMT-52" d="M 503 0 
L 503 4581 
L 2534 4581 
Q 3147 4581 3465 4457 
Q 3784 4334 3975 4021 
Q 4166 3709 4166 3331 
Q 4166 2844 3850 2509 
Q 3534 2175 2875 2084 
Q 3116 1969 3241 1856 
Q 3506 1613 3744 1247 
L 4541 0 
L 3778 0 
L 3172 953 
Q 2906 1366 2734 1584 
Q 2563 1803 2427 1890 
Q 2291 1978 2150 2013 
Q 2047 2034 1813 2034 
L 1109 2034 
L 1109 0 
L 503 0 
z
M 1109 2559 
L 2413 2559 
Q 2828 2559 3062 2645 
Q 3297 2731 3419 2920 
Q 3541 3109 3541 3331 
Q 3541 3656 3305 3865 
Q 3069 4075 2559 4075 
L 1109 4075 
L 1109 2559 
z
" transform="scale(0.015625)"/>
       <path id="ArialMT-6e" d="M 422 0 
L 422 3319 
L 928 3319 
L 928 2847 
Q 1294 3394 1984 3394 
Q 2284 3394 2536 3286 
Q 2788 3178 2913 3003 
Q 3038 2828 3088 2588 
Q 3119 2431 3119 2041 
L 3119 0 
L 2556 0 
L 2556 2019 
Q 2556 2363 2490 2533 
Q 2425 2703 2258 2804 
Q 2091 2906 1866 2906 
Q 1506 2906 1245 2678 
Q 984 2450 984 1813 
L 984 0 
L 422 0 
z
" transform="scale(0.015625)"/>
      </defs>
      <use xlink:href="#ArialMT-54"/>
      <use xlink:href="#ArialMT-4c" x="61.083984"/>
      <use xlink:href="#ArialMT-53" x="116.699219"/>
      <use xlink:href="#ArialMT-45" x="183.398438"/>
      <use xlink:href="#ArialMT-20" x="250.097656"/>
      <use xlink:href="#ArialMT-52" x="277.880859"/>
      <use xlink:href="#ArialMT-61" x="350.097656"/>
      <use xlink:href="#ArialMT-6e" x="405.712891"/>
      <use xlink:href="#ArialMT-67" x="461.328125"/>
      <use xlink:href="#ArialMT-65" x="516.943359"/>
     </g>
    </g>
    <g id="line2d_27">
     <path d="M 77.841239 82.204875 
L 89.841239 82.204875 
L 101.841239 82.204875 
" style="fill: none; stroke: #264653; stroke-width: 2.5; stroke-linecap: round"/>
     <g>
      <use xlink:href="#mf7f10182ce" x="89.841239" y="82.204875" style="fill: #264653; stroke: #264653"/>
     </g>
    </g>
    <g id="text_9">
     <!-- Reconstructed Spectra -->
     <g style="fill: #262626" transform="translate(111.441239 86.404875) scale(0.12 -0.12)">
      <defs>
       <path id="ArialMT-63" d="M 2588 1216 
L 3141 1144 
Q 3050 572 2676 248 
Q 2303 -75 1759 -75 
Q 1078 -75 664 370 
Q 250 816 250 1647 
Q 250 2184 428 2587 
Q 606 2991 970 3192 
Q 1334 3394 1763 3394 
Q 2303 3394 2647 3120 
Q 2991 2847 3088 2344 
L 2541 2259 
Q 2463 2594 2264 2762 
Q 2066 2931 1784 2931 
Q 1359 2931 1093 2626 
Q 828 2322 828 1663 
Q 828 994 1084 691 
Q 1341 388 1753 388 
Q 2084 388 2306 591 
Q 2528 794 2588 1216 
z
" transform="scale(0.015625)"/>
       <path id="ArialMT-6f" d="M 213 1659 
Q 213 2581 725 3025 
Q 1153 3394 1769 3394 
Q 2453 3394 2887 2945 
Q 3322 2497 3322 1706 
Q 3322 1066 3130 698 
Q 2938 331 2570 128 
Q 2203 -75 1769 -75 
Q 1072 -75 642 372 
Q 213 819 213 1659 
z
M 791 1659 
Q 791 1022 1069 705 
Q 1347 388 1769 388 
Q 2188 388 2466 706 
Q 2744 1025 2744 1678 
Q 2744 2294 2464 2611 
Q 2184 2928 1769 2928 
Q 1347 2928 1069 2612 
Q 791 2297 791 1659 
z
" transform="scale(0.015625)"/>
       <path id="ArialMT-73" d="M 197 991 
L 753 1078 
Q 800 744 1014 566 
Q 1228 388 1613 388 
Q 2000 388 2187 545 
Q 2375 703 2375 916 
Q 2375 1106 2209 1216 
Q 2094 1291 1634 1406 
Q 1016 1563 777 1677 
Q 538 1791 414 1992 
Q 291 2194 291 2438 
Q 291 2659 392 2848 
Q 494 3038 669 3163 
Q 800 3259 1026 3326 
Q 1253 3394 1513 3394 
Q 1903 3394 2198 3281 
Q 2494 3169 2634 2976 
Q 2775 2784 2828 2463 
L 2278 2388 
Q 2241 2644 2061 2787 
Q 1881 2931 1553 2931 
Q 1166 2931 1000 2803 
Q 834 2675 834 2503 
Q 834 2394 903 2306 
Q 972 2216 1119 2156 
Q 1203 2125 1616 2013 
Q 2213 1853 2448 1751 
Q 2684 1650 2818 1456 
Q 2953 1263 2953 975 
Q 2953 694 2789 445 
Q 2625 197 2315 61 
Q 2006 -75 1616 -75 
Q 969 -75 630 194 
Q 291 463 197 991 
z
" transform="scale(0.015625)"/>
       <path id="ArialMT-74" d="M 1650 503 
L 1731 6 
Q 1494 -44 1306 -44 
Q 1000 -44 831 53 
Q 663 150 594 308 
Q 525 466 525 972 
L 525 2881 
L 113 2881 
L 113 3319 
L 525 3319 
L 525 4141 
L 1084 4478 
L 1084 3319 
L 1650 3319 
L 1650 2881 
L 1084 2881 
L 1084 941 
Q 1084 700 1114 631 
Q 1144 563 1211 522 
Q 1278 481 1403 481 
Q 1497 481 1650 503 
z
" transform="scale(0.015625)"/>
       <path id="ArialMT-75" d="M 2597 0 
L 2597 488 
Q 2209 -75 1544 -75 
Q 1250 -75 995 37 
Q 741 150 617 320 
Q 494 491 444 738 
Q 409 903 409 1263 
L 409 3319 
L 972 3319 
L 972 1478 
Q 972 1038 1006 884 
Q 1059 663 1231 536 
Q 1403 409 1656 409 
Q 1909 409 2131 539 
Q 2353 669 2445 892 
Q 2538 1116 2538 1541 
L 2538 3319 
L 3100 3319 
L 3100 0 
L 2597 0 
z
" transform="scale(0.015625)"/>
       <path id="ArialMT-64" d="M 2575 0 
L 2575 419 
Q 2259 -75 1647 -75 
Q 1250 -75 917 144 
Q 584 363 401 755 
Q 219 1147 219 1656 
Q 219 2153 384 2558 
Q 550 2963 881 3178 
Q 1213 3394 1622 3394 
Q 1922 3394 2156 3267 
Q 2391 3141 2538 2938 
L 2538 4581 
L 3097 4581 
L 3097 0 
L 2575 0 
z
M 797 1656 
Q 797 1019 1065 703 
Q 1334 388 1700 388 
Q 2069 388 2326 689 
Q 2584 991 2584 1609 
Q 2584 2291 2321 2609 
Q 2059 2928 1675 2928 
Q 1300 2928 1048 2622 
Q 797 2316 797 1656 
z
" transform="scale(0.015625)"/>
       <path id="ArialMT-70" d="M 422 -1272 
L 422 3319 
L 934 3319 
L 934 2888 
Q 1116 3141 1344 3267 
Q 1572 3394 1897 3394 
Q 2322 3394 2647 3175 
Q 2972 2956 3137 2557 
Q 3303 2159 3303 1684 
Q 3303 1175 3120 767 
Q 2938 359 2589 142 
Q 2241 -75 1856 -75 
Q 1575 -75 1351 44 
Q 1128 163 984 344 
L 984 -1272 
L 422 -1272 
z
M 931 1641 
Q 931 1000 1190 694 
Q 1450 388 1819 388 
Q 2194 388 2461 705 
Q 2728 1022 2728 1688 
Q 2728 2322 2467 2637 
Q 2206 2953 1844 2953 
Q 1484 2953 1207 2617 
Q 931 2281 931 1641 
z
" transform="scale(0.015625)"/>
      </defs>
      <use xlink:href="#ArialMT-52"/>
      <use xlink:href="#ArialMT-65" x="72.216797"/>
      <use xlink:href="#ArialMT-63" x="127.832031"/>
      <use xlink:href="#ArialMT-6f" x="177.832031"/>
      <use xlink:href="#ArialMT-6e" x="233.447266"/>
      <use xlink:href="#ArialMT-73" x="289.0625"/>
      <use xlink:href="#ArialMT-74" x="339.0625"/>
      <use xlink:href="#ArialMT-72" x="366.845703"/>
      <use xlink:href="#ArialMT-75" x="400.146484"/>
      <use xlink:href="#ArialMT-63" x="455.761719"/>
      <use xlink:href="#ArialMT-74" x="505.761719"/>
      <use xlink:href="#ArialMT-65" x="533.544922"/>
      <use xlink:href="#ArialMT-64" x="589.160156"/>
      <use xlink:href="#ArialMT-20" x="644.775391"/>
      <use xlink:href="#ArialMT-53" x="672.558594"/>
      <use xlink:href="#ArialMT-70" x="739.257812"/>
      <use xlink:href="#ArialMT-65" x="794.873047"/>
      <use xlink:href="#ArialMT-63" x="850.488281"/>
      <use xlink:href="#ArialMT-74" x="900.488281"/>
      <use xlink:href="#ArialMT-72" x="928.271484"/>
      <use xlink:href="#ArialMT-61" x="961.572266"/>
     </g>
    </g>
   </g>
  </g>
  <g id="axes_2">
   <g id="patch_9">
    <path d="M 67.041239 514.815253 
L 491.04 514.815253 
L 491.04 288.691627 
L 67.041239 288.691627 
z
" style="fill: #ffffff"/>
   </g>
   <g id="matplotlib.axis_3">
    <g id="xtick_20">
     <g id="line2d_28">
      <path d="M 86.31391 514.815253 
L 86.31391 288.691627 
" clip-path="url(#pb956eeca4f)" style="fill: none; stroke-dasharray: 2.59,1.12; stroke-dashoffset: 0; stroke: #cccccc; stroke-width: 0.7"/>
     </g>
     <g id="text_10">
      <!-- 2 -->
      <g style="fill: #262626" transform="translate(79.908848 535.107471) rotate(-45) scale(0.12 -0.12)">
       <use xlink:href="#ArialMT-32"/>
      </g>
     </g>
    </g>
    <g id="xtick_21">
     <g id="line2d_29">
      <path d="M 194.560682 514.815253 
L 194.560682 288.691627 
" clip-path="url(#pb956eeca4f)" style="fill: none; stroke-dasharray: 2.59,1.12; stroke-dashoffset: 0; stroke: #cccccc; stroke-width: 0.7"/>
     </g>
     <g id="text_11">
      <!-- 6 -->
      <g style="fill: #262626" transform="translate(188.15562 535.107471) rotate(-45) scale(0.12 -0.12)">
       <defs>
        <path id="ArialMT-36" d="M 3184 3459 
L 2625 3416 
Q 2550 3747 2413 3897 
Q 2184 4138 1850 4138 
Q 1581 4138 1378 3988 
Q 1113 3794 959 3422 
Q 806 3050 800 2363 
Q 1003 2672 1297 2822 
Q 1591 2972 1913 2972 
Q 2475 2972 2870 2558 
Q 3266 2144 3266 1488 
Q 3266 1056 3080 686 
Q 2894 316 2569 119 
Q 2244 -78 1831 -78 
Q 1128 -78 684 439 
Q 241 956 241 2144 
Q 241 3472 731 4075 
Q 1159 4600 1884 4600 
Q 2425 4600 2770 4297 
Q 3116 3994 3184 3459 
z
M 888 1484 
Q 888 1194 1011 928 
Q 1134 663 1356 523 
Q 1578 384 1822 384 
Q 2178 384 2434 671 
Q 2691 959 2691 1453 
Q 2691 1928 2437 2201 
Q 2184 2475 1800 2475 
Q 1419 2475 1153 2201 
Q 888 1928 888 1484 
z
" transform="scale(0.015625)"/>
       </defs>
       <use xlink:href="#ArialMT-36"/>
      </g>
     </g>
    </g>
    <g id="xtick_22">
     <g id="line2d_30">
      <path d="M 270.743436 514.815253 
L 270.743436 288.691627 
" clip-path="url(#pb956eeca4f)" style="fill: none; stroke-dasharray: 2.59,1.12; stroke-dashoffset: 0; stroke: #cccccc; stroke-width: 0.7"/>
     </g>
     <g id="text_12">
      <!-- 13 -->
      <g style="fill: #262626" transform="translate(259.619762 539.826082) rotate(-45) scale(0.12 -0.12)">
       <use xlink:href="#ArialMT-31"/>
       <use xlink:href="#ArialMT-33" x="55.615234"/>
      </g>
     </g>
    </g>
    <g id="xtick_23">
     <g id="line2d_31">
      <path d="M 373.803197 514.815253 
L 373.803197 288.691627 
" clip-path="url(#pb956eeca4f)" style="fill: none; stroke-dasharray: 2.59,1.12; stroke-dashoffset: 0; stroke: #cccccc; stroke-width: 0.7"/>
     </g>
     <g id="text_13">
      <!-- 37 -->
      <g style="fill: #262626" transform="translate(362.679523 539.826082) rotate(-45) scale(0.12 -0.12)">
       <defs>
        <path id="ArialMT-37" d="M 303 3981 
L 303 4522 
L 3269 4522 
L 3269 4084 
Q 2831 3619 2401 2847 
Q 1972 2075 1738 1259 
Q 1569 684 1522 0 
L 944 0 
Q 953 541 1156 1306 
Q 1359 2072 1739 2783 
Q 2119 3494 2547 3981 
L 303 3981 
z
" transform="scale(0.015625)"/>
       </defs>
       <use xlink:href="#ArialMT-33"/>
       <use xlink:href="#ArialMT-37" x="55.615234"/>
      </g>
     </g>
    </g>
    <g id="xtick_24">
     <g id="line2d_32">
      <path d="M 471.767329 514.815253 
L 471.767329 288.691627 
" clip-path="url(#pb956eeca4f)" style="fill: none; stroke-dasharray: 2.59,1.12; stroke-dashoffset: 0; stroke: #cccccc; stroke-width: 0.7"/>
     </g>
     <g id="text_14">
      <!-- 100 -->
      <g style="fill: #262626" transform="translate(455.925044 544.544694) rotate(-45) scale(0.12 -0.12)">
       <use xlink:href="#ArialMT-31"/>
       <use xlink:href="#ArialMT-30" x="55.615234"/>
       <use xlink:href="#ArialMT-30" x="111.230469"/>
      </g>
     </g>
    </g>
    <g id="xtick_25">
     <g id="line2d_33">
      <path d="M 126.264573 514.815253 
L 126.264573 288.691627 
" clip-path="url(#pb956eeca4f)" style="fill: none; stroke-dasharray: 2.59,1.12; stroke-dashoffset: 0; stroke: #cccccc; stroke-width: 0.7"/>
     </g>
    </g>
    <g id="xtick_26">
     <g id="line2d_34">
      <path d="M 154.610019 514.815253 
L 154.610019 288.691627 
" clip-path="url(#pb956eeca4f)" style="fill: none; stroke-dasharray: 2.59,1.12; stroke-dashoffset: 0; stroke: #cccccc; stroke-width: 0.7"/>
     </g>
    </g>
    <g id="xtick_27">
     <g id="line2d_35">
      <path d="M 176.596455 514.815253 
L 176.596455 288.691627 
" clip-path="url(#pb956eeca4f)" style="fill: none; stroke-dasharray: 2.59,1.12; stroke-dashoffset: 0; stroke: #cccccc; stroke-width: 0.7"/>
     </g>
    </g>
    <g id="xtick_28">
     <g id="line2d_36">
      <path d="M 209.749219 514.815253 
L 209.749219 288.691627 
" clip-path="url(#pb956eeca4f)" style="fill: none; stroke-dasharray: 2.59,1.12; stroke-dashoffset: 0; stroke: #cccccc; stroke-width: 0.7"/>
     </g>
    </g>
    <g id="xtick_29">
     <g id="line2d_37">
      <path d="M 222.906128 514.815253 
L 222.906128 288.691627 
" clip-path="url(#pb956eeca4f)" style="fill: none; stroke-dasharray: 2.59,1.12; stroke-dashoffset: 0; stroke: #cccccc; stroke-width: 0.7"/>
     </g>
    </g>
    <g id="xtick_30">
     <g id="line2d_38">
      <path d="M 234.511345 514.815253 
L 234.511345 288.691627 
" clip-path="url(#pb956eeca4f)" style="fill: none; stroke-dasharray: 2.59,1.12; stroke-dashoffset: 0; stroke: #cccccc; stroke-width: 0.7"/>
     </g>
    </g>
    <g id="xtick_31">
     <g id="line2d_39">
      <path d="M 313.188674 514.815253 
L 313.188674 288.691627 
" clip-path="url(#pb956eeca4f)" style="fill: none; stroke-dasharray: 2.59,1.12; stroke-dashoffset: 0; stroke: #cccccc; stroke-width: 0.7"/>
     </g>
    </g>
    <g id="xtick_32">
     <g id="line2d_40">
      <path d="M 353.139337 514.815253 
L 353.139337 288.691627 
" clip-path="url(#pb956eeca4f)" style="fill: none; stroke-dasharray: 2.59,1.12; stroke-dashoffset: 0; stroke: #cccccc; stroke-width: 0.7"/>
     </g>
    </g>
    <g id="xtick_33">
     <g id="line2d_41">
      <path d="M 381.484783 514.815253 
L 381.484783 288.691627 
" clip-path="url(#pb956eeca4f)" style="fill: none; stroke-dasharray: 2.59,1.12; stroke-dashoffset: 0; stroke: #cccccc; stroke-width: 0.7"/>
     </g>
    </g>
    <g id="xtick_34">
     <g id="line2d_42">
      <path d="M 403.47122 514.815253 
L 403.47122 288.691627 
" clip-path="url(#pb956eeca4f)" style="fill: none; stroke-dasharray: 2.59,1.12; stroke-dashoffset: 0; stroke: #cccccc; stroke-width: 0.7"/>
     </g>
    </g>
    <g id="xtick_35">
     <g id="line2d_43">
      <path d="M 421.435446 514.815253 
L 421.435446 288.691627 
" clip-path="url(#pb956eeca4f)" style="fill: none; stroke-dasharray: 2.59,1.12; stroke-dashoffset: 0; stroke: #cccccc; stroke-width: 0.7"/>
     </g>
    </g>
    <g id="xtick_36">
     <g id="line2d_44">
      <path d="M 436.623983 514.815253 
L 436.623983 288.691627 
" clip-path="url(#pb956eeca4f)" style="fill: none; stroke-dasharray: 2.59,1.12; stroke-dashoffset: 0; stroke: #cccccc; stroke-width: 0.7"/>
     </g>
    </g>
    <g id="xtick_37">
     <g id="line2d_45">
      <path d="M 449.780893 514.815253 
L 449.780893 288.691627 
" clip-path="url(#pb956eeca4f)" style="fill: none; stroke-dasharray: 2.59,1.12; stroke-dashoffset: 0; stroke: #cccccc; stroke-width: 0.7"/>
     </g>
    </g>
    <g id="xtick_38">
     <g id="line2d_46">
      <path d="M 461.386109 514.815253 
L 461.386109 288.691627 
" clip-path="url(#pb956eeca4f)" style="fill: none; stroke-dasharray: 2.59,1.12; stroke-dashoffset: 0; stroke: #cccccc; stroke-width: 0.7"/>
     </g>
    </g>
    <g id="text_15">
     <!-- Number of Transits -->
     <g style="fill: #262626" transform="translate(219.912494 560.252082) scale(0.14 -0.14)">
      <defs>
       <path id="ArialMT-4e" d="M 488 0 
L 488 4581 
L 1109 4581 
L 3516 984 
L 3516 4581 
L 4097 4581 
L 4097 0 
L 3475 0 
L 1069 3600 
L 1069 0 
L 488 0 
z
" transform="scale(0.015625)"/>
       <path id="ArialMT-6d" d="M 422 0 
L 422 3319 
L 925 3319 
L 925 2853 
Q 1081 3097 1340 3245 
Q 1600 3394 1931 3394 
Q 2300 3394 2536 3241 
Q 2772 3088 2869 2813 
Q 3263 3394 3894 3394 
Q 4388 3394 4653 3120 
Q 4919 2847 4919 2278 
L 4919 0 
L 4359 0 
L 4359 2091 
Q 4359 2428 4304 2576 
Q 4250 2725 4106 2815 
Q 3963 2906 3769 2906 
Q 3419 2906 3187 2673 
Q 2956 2441 2956 1928 
L 2956 0 
L 2394 0 
L 2394 2156 
Q 2394 2531 2256 2718 
Q 2119 2906 1806 2906 
Q 1569 2906 1367 2781 
Q 1166 2656 1075 2415 
Q 984 2175 984 1722 
L 984 0 
L 422 0 
z
" transform="scale(0.015625)"/>
       <path id="ArialMT-62" d="M 941 0 
L 419 0 
L 419 4581 
L 981 4581 
L 981 2947 
Q 1338 3394 1891 3394 
Q 2197 3394 2470 3270 
Q 2744 3147 2920 2923 
Q 3097 2700 3197 2384 
Q 3297 2069 3297 1709 
Q 3297 856 2875 390 
Q 2453 -75 1863 -75 
Q 1275 -75 941 416 
L 941 0 
z
M 934 1684 
Q 934 1088 1097 822 
Q 1363 388 1816 388 
Q 2184 388 2453 708 
Q 2722 1028 2722 1663 
Q 2722 2313 2464 2622 
Q 2206 2931 1841 2931 
Q 1472 2931 1203 2611 
Q 934 2291 934 1684 
z
" transform="scale(0.015625)"/>
       <path id="ArialMT-66" d="M 556 0 
L 556 2881 
L 59 2881 
L 59 3319 
L 556 3319 
L 556 3672 
Q 556 4006 616 4169 
Q 697 4388 901 4523 
Q 1106 4659 1475 4659 
Q 1713 4659 2000 4603 
L 1916 4113 
Q 1741 4144 1584 4144 
Q 1328 4144 1222 4034 
Q 1116 3925 1116 3625 
L 1116 3319 
L 1763 3319 
L 1763 2881 
L 1116 2881 
L 1116 0 
L 556 0 
z
" transform="scale(0.015625)"/>
       <path id="ArialMT-69" d="M 425 3934 
L 425 4581 
L 988 4581 
L 988 3934 
L 425 3934 
z
M 425 0 
L 425 3319 
L 988 3319 
L 988 0 
L 425 0 
z
" transform="scale(0.015625)"/>
      </defs>
      <use xlink:href="#ArialMT-4e"/>
      <use xlink:href="#ArialMT-75" x="72.216797"/>
      <use xlink:href="#ArialMT-6d" x="127.832031"/>
      <use xlink:href="#ArialMT-62" x="211.132812"/>
      <use xlink:href="#ArialMT-65" x="266.748047"/>
      <use xlink:href="#ArialMT-72" x="322.363281"/>
      <use xlink:href="#ArialMT-20" x="355.664062"/>
      <use xlink:href="#ArialMT-6f" x="383.447266"/>
      <use xlink:href="#ArialMT-66" x="439.0625"/>
      <use xlink:href="#ArialMT-20" x="466.845703"/>
      <use xlink:href="#ArialMT-54" x="492.878906"/>
      <use xlink:href="#ArialMT-72" x="550.212891"/>
      <use xlink:href="#ArialMT-61" x="583.513672"/>
      <use xlink:href="#ArialMT-6e" x="639.128906"/>
      <use xlink:href="#ArialMT-73" x="694.744141"/>
      <use xlink:href="#ArialMT-69" x="744.744141"/>
      <use xlink:href="#ArialMT-74" x="766.960938"/>
      <use xlink:href="#ArialMT-73" x="794.744141"/>
     </g>
    </g>
   </g>
   <g id="matplotlib.axis_4">
    <g id="ytick_7">
     <g id="line2d_47">
      <path d="M 67.041239 482.077605 
L 491.04 482.077605 
" clip-path="url(#pb956eeca4f)" style="fill: none; stroke-dasharray: 2.59,1.12; stroke-dashoffset: 0; stroke: #cccccc; stroke-width: 0.7"/>
     </g>
     <g id="text_16">
      <!-- $\mathdefault{10^{-1}}$ -->
      <g style="fill: #262626" transform="translate(33.781239 488.265105) scale(0.12 -0.12)">
       <defs>
        <path id="ArialMT-2212" d="M 3381 1997 
L 356 1997 
L 356 2522 
L 3381 2522 
L 3381 1997 
z
" transform="scale(0.015625)"/>
       </defs>
       <use xlink:href="#ArialMT-31" transform="translate(0 0.99375)"/>
       <use xlink:href="#ArialMT-30" transform="translate(55.615234 0.99375)"/>
       <use xlink:href="#ArialMT-2212" transform="translate(112.972813 70.6875) scale(0.7)"/>
       <use xlink:href="#ArialMT-31" transform="translate(153.851719 70.6875) scale(0.7)"/>
      </g>
     </g>
    </g>
    <g id="ytick_8">
     <g id="line2d_48">
      <path d="M 67.041239 436.613078 
L 491.04 436.613078 
" clip-path="url(#pb956eeca4f)" style="fill: none; stroke-dasharray: 2.59,1.12; stroke-dashoffset: 0; stroke: #cccccc; stroke-width: 0.7"/>
     </g>
     <g id="text_17">
      <!-- $\mathdefault{10^{0}}$ -->
      <g style="fill: #262626" transform="translate(38.701239 442.800578) scale(0.12 -0.12)">
       <use xlink:href="#ArialMT-31" transform="translate(0 0.99375)"/>
       <use xlink:href="#ArialMT-30" transform="translate(55.615234 0.99375)"/>
       <use xlink:href="#ArialMT-30" transform="translate(112.972813 70.6875) scale(0.7)"/>
      </g>
     </g>
    </g>
    <g id="ytick_9">
     <g id="line2d_49">
      <path d="M 67.041239 391.148551 
L 491.04 391.148551 
" clip-path="url(#pb956eeca4f)" style="fill: none; stroke-dasharray: 2.59,1.12; stroke-dashoffset: 0; stroke: #cccccc; stroke-width: 0.7"/>
     </g>
     <g id="text_18">
      <!-- $\mathdefault{10^{1}}$ -->
      <g style="fill: #262626" transform="translate(38.701239 397.336051) scale(0.12 -0.12)">
       <use xlink:href="#ArialMT-31" transform="translate(0 0.99375)"/>
       <use xlink:href="#ArialMT-30" transform="translate(55.615234 0.99375)"/>
       <use xlink:href="#ArialMT-31" transform="translate(112.972813 70.6875) scale(0.7)"/>
      </g>
     </g>
    </g>
    <g id="ytick_10">
     <g id="line2d_50">
      <path d="M 67.041239 345.684024 
L 491.04 345.684024 
" clip-path="url(#pb956eeca4f)" style="fill: none; stroke-dasharray: 2.59,1.12; stroke-dashoffset: 0; stroke: #cccccc; stroke-width: 0.7"/>
     </g>
     <g id="text_19">
      <!-- $\mathdefault{10^{2}}$ -->
      <g style="fill: #262626" transform="translate(38.701239 351.871524) scale(0.12 -0.12)">
       <use xlink:href="#ArialMT-31" transform="translate(0 0.99375)"/>
       <use xlink:href="#ArialMT-30" transform="translate(55.615234 0.99375)"/>
       <use xlink:href="#ArialMT-32" transform="translate(112.972813 70.6875) scale(0.7)"/>
      </g>
     </g>
    </g>
    <g id="ytick_11">
     <g id="line2d_51">
      <path d="M 67.041239 300.219497 
L 491.04 300.219497 
" clip-path="url(#pb956eeca4f)" style="fill: none; stroke-dasharray: 2.59,1.12; stroke-dashoffset: 0; stroke: #cccccc; stroke-width: 0.7"/>
     </g>
     <g id="text_20">
      <!-- $\mathdefault{10^{3}}$ -->
      <g style="fill: #262626" transform="translate(38.701239 306.406997) scale(0.12 -0.12)">
       <use xlink:href="#ArialMT-31" transform="translate(0 0.99375)"/>
       <use xlink:href="#ArialMT-30" transform="translate(55.615234 0.99375)"/>
       <use xlink:href="#ArialMT-33" transform="translate(112.972813 70.6875) scale(0.7)"/>
      </g>
     </g>
    </g>
    <g id="ytick_12">
     <g id="line2d_52">
      <path d="M 67.041239 513.855946 
L 491.04 513.855946 
" clip-path="url(#pb956eeca4f)" style="fill: none; stroke-dasharray: 2.59,1.12; stroke-dashoffset: 0; stroke: #cccccc; stroke-width: 0.7"/>
     </g>
    </g>
    <g id="ytick_13">
     <g id="line2d_53">
      <path d="M 67.041239 505.85004 
L 491.04 505.85004 
" clip-path="url(#pb956eeca4f)" style="fill: none; stroke-dasharray: 2.59,1.12; stroke-dashoffset: 0; stroke: #cccccc; stroke-width: 0.7"/>
     </g>
    </g>
    <g id="ytick_14">
     <g id="line2d_54">
      <path d="M 67.041239 500.16976 
L 491.04 500.16976 
" clip-path="url(#pb956eeca4f)" style="fill: none; stroke-dasharray: 2.59,1.12; stroke-dashoffset: 0; stroke: #cccccc; stroke-width: 0.7"/>
     </g>
    </g>
    <g id="ytick_15">
     <g id="line2d_55">
      <path d="M 67.041239 495.763792 
L 491.04 495.763792 
" clip-path="url(#pb956eeca4f)" style="fill: none; stroke-dasharray: 2.59,1.12; stroke-dashoffset: 0; stroke: #cccccc; stroke-width: 0.7"/>
     </g>
    </g>
    <g id="ytick_16">
     <g id="line2d_56">
      <path d="M 67.041239 492.163854 
L 491.04 492.163854 
" clip-path="url(#pb956eeca4f)" style="fill: none; stroke-dasharray: 2.59,1.12; stroke-dashoffset: 0; stroke: #cccccc; stroke-width: 0.7"/>
     </g>
    </g>
    <g id="ytick_17">
     <g id="line2d_57">
      <path d="M 67.041239 489.12015 
L 491.04 489.12015 
" clip-path="url(#pb956eeca4f)" style="fill: none; stroke-dasharray: 2.59,1.12; stroke-dashoffset: 0; stroke: #cccccc; stroke-width: 0.7"/>
     </g>
    </g>
    <g id="ytick_18">
     <g id="line2d_58">
      <path d="M 67.041239 486.483573 
L 491.04 486.483573 
" clip-path="url(#pb956eeca4f)" style="fill: none; stroke-dasharray: 2.59,1.12; stroke-dashoffset: 0; stroke: #cccccc; stroke-width: 0.7"/>
     </g>
    </g>
    <g id="ytick_19">
     <g id="line2d_59">
      <path d="M 67.041239 484.157948 
L 491.04 484.157948 
" clip-path="url(#pb956eeca4f)" style="fill: none; stroke-dasharray: 2.59,1.12; stroke-dashoffset: 0; stroke: #cccccc; stroke-width: 0.7"/>
     </g>
    </g>
    <g id="ytick_20">
     <g id="line2d_60">
      <path d="M 67.041239 468.391419 
L 491.04 468.391419 
" clip-path="url(#pb956eeca4f)" style="fill: none; stroke-dasharray: 2.59,1.12; stroke-dashoffset: 0; stroke: #cccccc; stroke-width: 0.7"/>
     </g>
    </g>
    <g id="ytick_21">
     <g id="line2d_61">
      <path d="M 67.041239 460.385513 
L 491.04 460.385513 
" clip-path="url(#pb956eeca4f)" style="fill: none; stroke-dasharray: 2.59,1.12; stroke-dashoffset: 0; stroke: #cccccc; stroke-width: 0.7"/>
     </g>
    </g>
    <g id="ytick_22">
     <g id="line2d_62">
      <path d="M 67.041239 454.705233 
L 491.04 454.705233 
" clip-path="url(#pb956eeca4f)" style="fill: none; stroke-dasharray: 2.59,1.12; stroke-dashoffset: 0; stroke: #cccccc; stroke-width: 0.7"/>
     </g>
    </g>
    <g id="ytick_23">
     <g id="line2d_63">
      <path d="M 67.041239 450.299265 
L 491.04 450.299265 
" clip-path="url(#pb956eeca4f)" style="fill: none; stroke-dasharray: 2.59,1.12; stroke-dashoffset: 0; stroke: #cccccc; stroke-width: 0.7"/>
     </g>
    </g>
    <g id="ytick_24">
     <g id="line2d_64">
      <path d="M 67.041239 446.699327 
L 491.04 446.699327 
" clip-path="url(#pb956eeca4f)" style="fill: none; stroke-dasharray: 2.59,1.12; stroke-dashoffset: 0; stroke: #cccccc; stroke-width: 0.7"/>
     </g>
    </g>
    <g id="ytick_25">
     <g id="line2d_65">
      <path d="M 67.041239 443.655623 
L 491.04 443.655623 
" clip-path="url(#pb956eeca4f)" style="fill: none; stroke-dasharray: 2.59,1.12; stroke-dashoffset: 0; stroke: #cccccc; stroke-width: 0.7"/>
     </g>
    </g>
    <g id="ytick_26">
     <g id="line2d_66">
      <path d="M 67.041239 441.019046 
L 491.04 441.019046 
" clip-path="url(#pb956eeca4f)" style="fill: none; stroke-dasharray: 2.59,1.12; stroke-dashoffset: 0; stroke: #cccccc; stroke-width: 0.7"/>
     </g>
    </g>
    <g id="ytick_27">
     <g id="line2d_67">
      <path d="M 67.041239 438.693421 
L 491.04 438.693421 
" clip-path="url(#pb956eeca4f)" style="fill: none; stroke-dasharray: 2.59,1.12; stroke-dashoffset: 0; stroke: #cccccc; stroke-width: 0.7"/>
     </g>
    </g>
    <g id="ytick_28">
     <g id="line2d_68">
      <path d="M 67.041239 422.926892 
L 491.04 422.926892 
" clip-path="url(#pb956eeca4f)" style="fill: none; stroke-dasharray: 2.59,1.12; stroke-dashoffset: 0; stroke: #cccccc; stroke-width: 0.7"/>
     </g>
    </g>
    <g id="ytick_29">
     <g id="line2d_69">
      <path d="M 67.041239 414.920986 
L 491.04 414.920986 
" clip-path="url(#pb956eeca4f)" style="fill: none; stroke-dasharray: 2.59,1.12; stroke-dashoffset: 0; stroke: #cccccc; stroke-width: 0.7"/>
     </g>
    </g>
    <g id="ytick_30">
     <g id="line2d_70">
      <path d="M 67.041239 409.240705 
L 491.04 409.240705 
" clip-path="url(#pb956eeca4f)" style="fill: none; stroke-dasharray: 2.59,1.12; stroke-dashoffset: 0; stroke: #cccccc; stroke-width: 0.7"/>
     </g>
    </g>
    <g id="ytick_31">
     <g id="line2d_71">
      <path d="M 67.041239 404.834738 
L 491.04 404.834738 
" clip-path="url(#pb956eeca4f)" style="fill: none; stroke-dasharray: 2.59,1.12; stroke-dashoffset: 0; stroke: #cccccc; stroke-width: 0.7"/>
     </g>
    </g>
    <g id="ytick_32">
     <g id="line2d_72">
      <path d="M 67.041239 401.2348 
L 491.04 401.2348 
" clip-path="url(#pb956eeca4f)" style="fill: none; stroke-dasharray: 2.59,1.12; stroke-dashoffset: 0; stroke: #cccccc; stroke-width: 0.7"/>
     </g>
    </g>
    <g id="ytick_33">
     <g id="line2d_73">
      <path d="M 67.041239 398.191095 
L 491.04 398.191095 
" clip-path="url(#pb956eeca4f)" style="fill: none; stroke-dasharray: 2.59,1.12; stroke-dashoffset: 0; stroke: #cccccc; stroke-width: 0.7"/>
     </g>
    </g>
    <g id="ytick_34">
     <g id="line2d_74">
      <path d="M 67.041239 395.554519 
L 491.04 395.554519 
" clip-path="url(#pb956eeca4f)" style="fill: none; stroke-dasharray: 2.59,1.12; stroke-dashoffset: 0; stroke: #cccccc; stroke-width: 0.7"/>
     </g>
    </g>
    <g id="ytick_35">
     <g id="line2d_75">
      <path d="M 67.041239 393.228894 
L 491.04 393.228894 
" clip-path="url(#pb956eeca4f)" style="fill: none; stroke-dasharray: 2.59,1.12; stroke-dashoffset: 0; stroke: #cccccc; stroke-width: 0.7"/>
     </g>
    </g>
    <g id="ytick_36">
     <g id="line2d_76">
      <path d="M 67.041239 377.462365 
L 491.04 377.462365 
" clip-path="url(#pb956eeca4f)" style="fill: none; stroke-dasharray: 2.59,1.12; stroke-dashoffset: 0; stroke: #cccccc; stroke-width: 0.7"/>
     </g>
    </g>
    <g id="ytick_37">
     <g id="line2d_77">
      <path d="M 67.041239 369.456459 
L 491.04 369.456459 
" clip-path="url(#pb956eeca4f)" style="fill: none; stroke-dasharray: 2.59,1.12; stroke-dashoffset: 0; stroke: #cccccc; stroke-width: 0.7"/>
     </g>
    </g>
    <g id="ytick_38">
     <g id="line2d_78">
      <path d="M 67.041239 363.776178 
L 491.04 363.776178 
" clip-path="url(#pb956eeca4f)" style="fill: none; stroke-dasharray: 2.59,1.12; stroke-dashoffset: 0; stroke: #cccccc; stroke-width: 0.7"/>
     </g>
    </g>
    <g id="ytick_39">
     <g id="line2d_79">
      <path d="M 67.041239 359.37021 
L 491.04 359.37021 
" clip-path="url(#pb956eeca4f)" style="fill: none; stroke-dasharray: 2.59,1.12; stroke-dashoffset: 0; stroke: #cccccc; stroke-width: 0.7"/>
     </g>
    </g>
    <g id="ytick_40">
     <g id="line2d_80">
      <path d="M 67.041239 355.770272 
L 491.04 355.770272 
" clip-path="url(#pb956eeca4f)" style="fill: none; stroke-dasharray: 2.59,1.12; stroke-dashoffset: 0; stroke: #cccccc; stroke-width: 0.7"/>
     </g>
    </g>
    <g id="ytick_41">
     <g id="line2d_81">
      <path d="M 67.041239 352.726568 
L 491.04 352.726568 
" clip-path="url(#pb956eeca4f)" style="fill: none; stroke-dasharray: 2.59,1.12; stroke-dashoffset: 0; stroke: #cccccc; stroke-width: 0.7"/>
     </g>
    </g>
    <g id="ytick_42">
     <g id="line2d_82">
      <path d="M 67.041239 350.089992 
L 491.04 350.089992 
" clip-path="url(#pb956eeca4f)" style="fill: none; stroke-dasharray: 2.59,1.12; stroke-dashoffset: 0; stroke: #cccccc; stroke-width: 0.7"/>
     </g>
    </g>
    <g id="ytick_43">
     <g id="line2d_83">
      <path d="M 67.041239 347.764367 
L 491.04 347.764367 
" clip-path="url(#pb956eeca4f)" style="fill: none; stroke-dasharray: 2.59,1.12; stroke-dashoffset: 0; stroke: #cccccc; stroke-width: 0.7"/>
     </g>
    </g>
    <g id="ytick_44">
     <g id="line2d_84">
      <path d="M 67.041239 331.997838 
L 491.04 331.997838 
" clip-path="url(#pb956eeca4f)" style="fill: none; stroke-dasharray: 2.59,1.12; stroke-dashoffset: 0; stroke: #cccccc; stroke-width: 0.7"/>
     </g>
    </g>
    <g id="ytick_45">
     <g id="line2d_85">
      <path d="M 67.041239 323.991932 
L 491.04 323.991932 
" clip-path="url(#pb956eeca4f)" style="fill: none; stroke-dasharray: 2.59,1.12; stroke-dashoffset: 0; stroke: #cccccc; stroke-width: 0.7"/>
     </g>
    </g>
    <g id="ytick_46">
     <g id="line2d_86">
      <path d="M 67.041239 318.311651 
L 491.04 318.311651 
" clip-path="url(#pb956eeca4f)" style="fill: none; stroke-dasharray: 2.59,1.12; stroke-dashoffset: 0; stroke: #cccccc; stroke-width: 0.7"/>
     </g>
    </g>
    <g id="ytick_47">
     <g id="line2d_87">
      <path d="M 67.041239 313.905683 
L 491.04 313.905683 
" clip-path="url(#pb956eeca4f)" style="fill: none; stroke-dasharray: 2.59,1.12; stroke-dashoffset: 0; stroke: #cccccc; stroke-width: 0.7"/>
     </g>
    </g>
    <g id="ytick_48">
     <g id="line2d_88">
      <path d="M 67.041239 310.305745 
L 491.04 310.305745 
" clip-path="url(#pb956eeca4f)" style="fill: none; stroke-dasharray: 2.59,1.12; stroke-dashoffset: 0; stroke: #cccccc; stroke-width: 0.7"/>
     </g>
    </g>
    <g id="ytick_49">
     <g id="line2d_89">
      <path d="M 67.041239 307.262041 
L 491.04 307.262041 
" clip-path="url(#pb956eeca4f)" style="fill: none; stroke-dasharray: 2.59,1.12; stroke-dashoffset: 0; stroke: #cccccc; stroke-width: 0.7"/>
     </g>
    </g>
    <g id="ytick_50">
     <g id="line2d_90">
      <path d="M 67.041239 304.625465 
L 491.04 304.625465 
" clip-path="url(#pb956eeca4f)" style="fill: none; stroke-dasharray: 2.59,1.12; stroke-dashoffset: 0; stroke: #cccccc; stroke-width: 0.7"/>
     </g>
    </g>
    <g id="ytick_51">
     <g id="line2d_91">
      <path d="M 67.041239 302.29984 
L 491.04 302.29984 
" clip-path="url(#pb956eeca4f)" style="fill: none; stroke-dasharray: 2.59,1.12; stroke-dashoffset: 0; stroke: #cccccc; stroke-width: 0.7"/>
     </g>
    </g>
    <g id="text_21">
     <!-- Average Reduced $\chi^2$ -->
     <g style="fill: #262626" transform="translate(26.701239 466.15344) rotate(-90) scale(0.14 -0.14)">
      <use xlink:href="#ArialMT-41" transform="translate(0 0.409375)"/>
      <use xlink:href="#ArialMT-76" transform="translate(66.699219 0.409375)"/>
      <use xlink:href="#ArialMT-65" transform="translate(116.699219 0.409375)"/>
      <use xlink:href="#ArialMT-72" transform="translate(172.314453 0.409375)"/>
      <use xlink:href="#ArialMT-61" transform="translate(205.615234 0.409375)"/>
      <use xlink:href="#ArialMT-67" transform="translate(261.230469 0.409375)"/>
      <use xlink:href="#ArialMT-65" transform="translate(316.845703 0.409375)"/>
      <use xlink:href="#ArialMT-20" transform="translate(372.460938 0.409375)"/>
      <use xlink:href="#ArialMT-52" transform="translate(400.244141 0.409375)"/>
      <use xlink:href="#ArialMT-65" transform="translate(472.460938 0.409375)"/>
      <use xlink:href="#ArialMT-64" transform="translate(528.076172 0.409375)"/>
      <use xlink:href="#ArialMT-75" transform="translate(583.691406 0.409375)"/>
      <use xlink:href="#ArialMT-63" transform="translate(639.306641 0.409375)"/>
      <use xlink:href="#ArialMT-65" transform="translate(689.306641 0.409375)"/>
      <use xlink:href="#ArialMT-64" transform="translate(744.921875 0.409375)"/>
      <use xlink:href="#ArialMT-20" transform="translate(800.537109 0.409375)"/>
      <use xlink:href="#STIXGeneral-Italic-3c7" transform="translate(828.320312 0.409375)"/>
      <use xlink:href="#STIXGeneral-Regular-32" transform="translate(880.193434 35.684375) scale(0.7)"/>
     </g>
    </g>
   </g>
   <g id="PolyCollection_2">
    <defs>
     <path id="mb7038b3174" d="M 86.31391 -77.166829 
L 86.31391 -73.161772 
L 194.560682 -71.796516 
L 270.743436 -71.463093 
L 373.803197 -76.582051 
L 471.767329 -86.764681 
L 471.767329 -95.019269 
L 471.767329 -95.019269 
L 373.803197 -83.294208 
L 270.743436 -81.192025 
L 194.560682 -84.342588 
L 86.31391 -77.166829 
z
" style="stroke: #e9c46a; stroke-opacity: 0.3"/>
    </defs>
    <g clip-path="url(#pb956eeca4f)">
     <use xlink:href="#mb7038b3174" x="0" y="576" style="fill: #e9c46a; fill-opacity: 0.3; stroke: #e9c46a; stroke-opacity: 0.3"/>
    </g>
   </g>
   <g id="PolyCollection_3">
    <defs>
     <path id="m57df6a2168" d="M 86.31391 -200.672682 
L 86.31391 -139.395554 
L 194.560682 -139.380823 
L 270.743436 -139.382852 
L 373.803197 -139.391198 
L 471.767329 -139.374442 
L 471.767329 -277.030027 
L 471.767329 -277.030027 
L 373.803197 -257.430006 
L 270.743436 -236.868548 
L 194.560682 -221.767701 
L 86.31391 -200.672682 
z
" style="stroke: #e76f51; stroke-opacity: 0.25"/>
    </defs>
    <g clip-path="url(#pb956eeca4f)">
     <use xlink:href="#m57df6a2168" x="0" y="576" style="fill: #e76f51; fill-opacity: 0.25; stroke: #e76f51; stroke-opacity: 0.25"/>
    </g>
   </g>
   <g id="line2d_92">
    <path d="M 86.31391 500.364229 
L 194.560682 494.388166 
L 270.743436 497.703637 
L 373.803197 498.527569 
L 471.767329 488.547645 
" clip-path="url(#pb956eeca4f)" style="fill: none; stroke: #e9c46a; stroke-width: 2.5; stroke-linecap: round"/>
    <defs>
     <path id="m1fe09ad345" d="M -3 3 
L 3 3 
L 3 -3 
L -3 -3 
z
" style="stroke: #e9c46a; stroke-linejoin: miter"/>
    </defs>
    <g clip-path="url(#pb956eeca4f)">
     <use xlink:href="#m1fe09ad345" x="86.31391" y="500.364229" style="fill: #e9c46a; stroke: #e9c46a; stroke-linejoin: miter"/>
     <use xlink:href="#m1fe09ad345" x="194.560682" y="494.388166" style="fill: #e9c46a; stroke: #e9c46a; stroke-linejoin: miter"/>
     <use xlink:href="#m1fe09ad345" x="270.743436" y="497.703637" style="fill: #e9c46a; stroke: #e9c46a; stroke-linejoin: miter"/>
     <use xlink:href="#m1fe09ad345" x="373.803197" y="498.527569" style="fill: #e9c46a; stroke: #e9c46a; stroke-linejoin: miter"/>
     <use xlink:href="#m1fe09ad345" x="471.767329" y="488.547645" style="fill: #e9c46a; stroke: #e9c46a; stroke-linejoin: miter"/>
    </g>
   </g>
   <g id="line2d_93">
    <path d="M 86.31391 436.604446 
L 194.560682 436.619177 
L 270.743436 436.617148 
L 373.803197 436.608802 
L 471.767329 436.625558 
" clip-path="url(#pb956eeca4f)" style="fill: none; stroke-dasharray: 7.4,3.2; stroke-dashoffset: 0; stroke: #e76f51; stroke-width: 2"/>
    <defs>
     <path id="macc02691f9" d="M 0 1.5 
C 0.397805 1.5 0.77937 1.341951 1.06066 1.06066 
C 1.341951 0.77937 1.5 0.397805 1.5 0 
C 1.5 -0.397805 1.341951 -0.77937 1.06066 -1.06066 
C 0.77937 -1.341951 0.397805 -1.5 0 -1.5 
C -0.397805 -1.5 -0.77937 -1.341951 -1.06066 -1.06066 
C -1.341951 -0.77937 -1.5 -0.397805 -1.5 0 
C -1.5 0.397805 -1.341951 0.77937 -1.06066 1.06066 
C -0.77937 1.341951 -0.397805 1.5 0 1.5 
z
" style="stroke: #e76f51"/>
    </defs>
    <g clip-path="url(#pb956eeca4f)">
     <use xlink:href="#macc02691f9" x="86.31391" y="436.604446" style="fill: #e76f51; stroke: #e76f51"/>
     <use xlink:href="#macc02691f9" x="194.560682" y="436.619177" style="fill: #e76f51; stroke: #e76f51"/>
     <use xlink:href="#macc02691f9" x="270.743436" y="436.617148" style="fill: #e76f51; stroke: #e76f51"/>
     <use xlink:href="#macc02691f9" x="373.803197" y="436.608802" style="fill: #e76f51; stroke: #e76f51"/>
     <use xlink:href="#macc02691f9" x="471.767329" y="436.625558" style="fill: #e76f51; stroke: #e76f51"/>
    </g>
   </g>
   <g id="patch_10">
    <path d="M 67.041239 514.815253 
L 67.041239 288.691627 
" style="fill: none; stroke: #cccccc; stroke-width: 1.25; stroke-linejoin: miter; stroke-linecap: square"/>
   </g>
   <g id="patch_11">
    <path d="M 491.04 514.815253 
L 491.04 288.691627 
" style="fill: none; stroke: #cccccc; stroke-width: 1.25; stroke-linejoin: miter; stroke-linecap: square"/>
   </g>
   <g id="patch_12">
    <path d="M 67.041239 514.815253 
L 491.04 514.815253 
" style="fill: none; stroke: #cccccc; stroke-width: 1.25; stroke-linejoin: miter; stroke-linecap: square"/>
   </g>
   <g id="patch_13">
    <path d="M 67.041239 288.691627 
L 491.04 288.691627 
" style="fill: none; stroke: #cccccc; stroke-width: 1.25; stroke-linejoin: miter; stroke-linecap: square"/>
   </g>
   <g id="legend_2">
    <g id="patch_14">
     <path d="M 75.441239 367.196002 
L 235.896239 367.196002 
Q 238.296239 367.196002 238.296239 364.796002 
L 238.296239 297.091627 
Q 238.296239 294.691627 235.896239 294.691627 
L 75.441239 294.691627 
Q 73.041239 294.691627 73.041239 297.091627 
L 73.041239 364.796002 
Q 73.041239 367.196002 75.441239 367.196002 
z
" style="fill: #ffffff; opacity: 0.8; stroke: #cccccc; stroke-linejoin: miter"/>
    </g>
    <g id="patch_15">
     <path d="M 77.841239 308.227252 
L 101.841239 308.227252 
L 101.841239 299.827252 
L 77.841239 299.827252 
z
" style="fill: #e9c46a; fill-opacity: 0.3; stroke: #e9c46a; stroke-opacity: 0.3; stroke-linejoin: miter"/>
    </g>
    <g id="text_22">
     <!-- TLSE Range -->
     <g style="fill: #262626" transform="translate(111.441239 308.227252) scale(0.12 -0.12)">
      <use xlink:href="#ArialMT-54"/>
      <use xlink:href="#ArialMT-4c" x="61.083984"/>
      <use xlink:href="#ArialMT-53" x="116.699219"/>
      <use xlink:href="#ArialMT-45" x="183.398438"/>
      <use xlink:href="#ArialMT-20" x="250.097656"/>
      <use xlink:href="#ArialMT-52" x="277.880859"/>
      <use xlink:href="#ArialMT-61" x="350.097656"/>
      <use xlink:href="#ArialMT-6e" x="405.712891"/>
      <use xlink:href="#ArialMT-67" x="461.328125"/>
      <use xlink:href="#ArialMT-65" x="516.943359"/>
     </g>
    </g>
    <g id="line2d_94">
     <path d="M 77.841239 321.288502 
L 89.841239 321.288502 
L 101.841239 321.288502 
" style="fill: none; stroke: #e9c46a; stroke-width: 2.5; stroke-linecap: round"/>
     <g>
      <use xlink:href="#m1fe09ad345" x="89.841239" y="321.288502" style="fill: #e9c46a; stroke: #e9c46a; stroke-linejoin: miter"/>
     </g>
    </g>
    <g id="text_23">
     <!-- Reconstructed Spectra -->
     <g style="fill: #262626" transform="translate(111.441239 325.488502) scale(0.12 -0.12)">
      <use xlink:href="#ArialMT-52"/>
      <use xlink:href="#ArialMT-65" x="72.216797"/>
      <use xlink:href="#ArialMT-63" x="127.832031"/>
      <use xlink:href="#ArialMT-6f" x="177.832031"/>
      <use xlink:href="#ArialMT-6e" x="233.447266"/>
      <use xlink:href="#ArialMT-73" x="289.0625"/>
      <use xlink:href="#ArialMT-74" x="339.0625"/>
      <use xlink:href="#ArialMT-72" x="366.845703"/>
      <use xlink:href="#ArialMT-75" x="400.146484"/>
      <use xlink:href="#ArialMT-63" x="455.761719"/>
      <use xlink:href="#ArialMT-74" x="505.761719"/>
      <use xlink:href="#ArialMT-65" x="533.544922"/>
      <use xlink:href="#ArialMT-64" x="589.160156"/>
      <use xlink:href="#ArialMT-20" x="644.775391"/>
      <use xlink:href="#ArialMT-53" x="672.558594"/>
      <use xlink:href="#ArialMT-70" x="739.257812"/>
      <use xlink:href="#ArialMT-65" x="794.873047"/>
      <use xlink:href="#ArialMT-63" x="850.488281"/>
      <use xlink:href="#ArialMT-74" x="900.488281"/>
      <use xlink:href="#ArialMT-72" x="928.271484"/>
      <use xlink:href="#ArialMT-61" x="961.572266"/>
     </g>
    </g>
    <g id="patch_16">
     <path d="M 77.841239 342.609127 
L 101.841239 342.609127 
L 101.841239 334.209127 
L 77.841239 334.209127 
z
" style="fill: #e76f51; fill-opacity: 0.25; stroke: #e76f51; stroke-opacity: 0.25; stroke-linejoin: miter"/>
    </g>
    <g id="text_24">
     <!-- Noisy Spectra Range -->
     <g style="fill: #262626" transform="translate(111.441239 342.609127) scale(0.12 -0.12)">
      <defs>
       <path id="ArialMT-79" d="M 397 -1278 
L 334 -750 
Q 519 -800 656 -800 
Q 844 -800 956 -737 
Q 1069 -675 1141 -563 
Q 1194 -478 1313 -144 
Q 1328 -97 1363 -6 
L 103 3319 
L 709 3319 
L 1400 1397 
Q 1534 1031 1641 628 
Q 1738 1016 1872 1384 
L 2581 3319 
L 3144 3319 
L 1881 -56 
Q 1678 -603 1566 -809 
Q 1416 -1088 1222 -1217 
Q 1028 -1347 759 -1347 
Q 597 -1347 397 -1278 
z
" transform="scale(0.015625)"/>
      </defs>
      <use xlink:href="#ArialMT-4e"/>
      <use xlink:href="#ArialMT-6f" x="72.216797"/>
      <use xlink:href="#ArialMT-69" x="127.832031"/>
      <use xlink:href="#ArialMT-73" x="150.048828"/>
      <use xlink:href="#ArialMT-79" x="200.048828"/>
      <use xlink:href="#ArialMT-20" x="250.048828"/>
      <use xlink:href="#ArialMT-53" x="277.832031"/>
      <use xlink:href="#ArialMT-70" x="344.53125"/>
      <use xlink:href="#ArialMT-65" x="400.146484"/>
      <use xlink:href="#ArialMT-63" x="455.761719"/>
      <use xlink:href="#ArialMT-74" x="505.761719"/>
      <use xlink:href="#ArialMT-72" x="533.544922"/>
      <use xlink:href="#ArialMT-61" x="566.845703"/>
      <use xlink:href="#ArialMT-20" x="622.460938"/>
      <use xlink:href="#ArialMT-52" x="650.244141"/>
      <use xlink:href="#ArialMT-61" x="722.460938"/>
      <use xlink:href="#ArialMT-6e" x="778.076172"/>
      <use xlink:href="#ArialMT-67" x="833.691406"/>
      <use xlink:href="#ArialMT-65" x="889.306641"/>
     </g>
    </g>
    <g id="line2d_95">
     <path d="M 77.841239 355.670377 
L 89.841239 355.670377 
L 101.841239 355.670377 
" style="fill: none; stroke-dasharray: 7.4,3.2; stroke-dashoffset: 0; stroke: #e76f51; stroke-width: 2"/>
     <g>
      <use xlink:href="#macc02691f9" x="89.841239" y="355.670377" style="fill: #e76f51; stroke: #e76f51"/>
     </g>
    </g>
    <g id="text_25">
     <!-- Noisy Spectra -->
     <g style="fill: #262626" transform="translate(111.441239 359.870377) scale(0.12 -0.12)">
      <use xlink:href="#ArialMT-4e"/>
      <use xlink:href="#ArialMT-6f" x="72.216797"/>
      <use xlink:href="#ArialMT-69" x="127.832031"/>
      <use xlink:href="#ArialMT-73" x="150.048828"/>
      <use xlink:href="#ArialMT-79" x="200.048828"/>
      <use xlink:href="#ArialMT-20" x="250.048828"/>
      <use xlink:href="#ArialMT-53" x="277.832031"/>
      <use xlink:href="#ArialMT-70" x="344.53125"/>
      <use xlink:href="#ArialMT-65" x="400.146484"/>
      <use xlink:href="#ArialMT-63" x="455.761719"/>
      <use xlink:href="#ArialMT-74" x="505.761719"/>
      <use xlink:href="#ArialMT-72" x="533.544922"/>
      <use xlink:href="#ArialMT-61" x="566.845703"/>
     </g>
    </g>
   </g>
  </g>
  <g id="text_26">
   <!-- $\chi^2$ Analysis vs. Number of Transits -->
   <g style="fill: #262626" transform="translate(99.4 22.36) scale(0.2 -0.2)">
    <defs>
     <path id="ArialMT-6c" d="M 409 0 
L 409 4581 
L 972 4581 
L 972 0 
L 409 0 
z
" transform="scale(0.015625)"/>
     <path id="ArialMT-2e" d="M 581 0 
L 581 641 
L 1222 641 
L 1222 0 
L 581 0 
z
" transform="scale(0.015625)"/>
    </defs>
    <use xlink:href="#STIXGeneral-Italic-3c7" transform="translate(0 0.409375)"/>
    <use xlink:href="#STIXGeneral-Regular-32" transform="translate(51.873122 35.684375) scale(0.7)"/>
    <use xlink:href="#ArialMT-20" transform="translate(91.282486 0.409375)"/>
    <use xlink:href="#ArialMT-41" transform="translate(119.065689 0.409375)"/>
    <use xlink:href="#ArialMT-6e" transform="translate(185.764908 0.409375)"/>
    <use xlink:href="#ArialMT-61" transform="translate(241.380143 0.409375)"/>
    <use xlink:href="#ArialMT-6c" transform="translate(296.995377 0.409375)"/>
    <use xlink:href="#ArialMT-79" transform="translate(319.212174 0.409375)"/>
    <use xlink:href="#ArialMT-73" transform="translate(369.212174 0.409375)"/>
    <use xlink:href="#ArialMT-69" transform="translate(419.212174 0.409375)"/>
    <use xlink:href="#ArialMT-73" transform="translate(441.428971 0.409375)"/>
    <use xlink:href="#ArialMT-20" transform="translate(491.428971 0.409375)"/>
    <use xlink:href="#ArialMT-76" transform="translate(519.212174 0.409375)"/>
    <use xlink:href="#ArialMT-73" transform="translate(569.212174 0.409375)"/>
    <use xlink:href="#ArialMT-2e" transform="translate(619.212174 0.409375)"/>
    <use xlink:href="#ArialMT-20" transform="translate(646.995377 0.409375)"/>
    <use xlink:href="#ArialMT-4e" transform="translate(674.77858 0.409375)"/>
    <use xlink:href="#ArialMT-75" transform="translate(746.995377 0.409375)"/>
    <use xlink:href="#ArialMT-6d" transform="translate(802.610611 0.409375)"/>
    <use xlink:href="#ArialMT-62" transform="translate(885.911393 0.409375)"/>
    <use xlink:href="#ArialMT-65" transform="translate(941.526627 0.409375)"/>
    <use xlink:href="#ArialMT-72" transform="translate(997.141861 0.409375)"/>
    <use xlink:href="#ArialMT-20" transform="translate(1030.442643 0.409375)"/>
    <use xlink:href="#ArialMT-6f" transform="translate(1058.225846 0.409375)"/>
    <use xlink:href="#ArialMT-66" transform="translate(1113.84108 0.409375)"/>
    <use xlink:href="#ArialMT-20" transform="translate(1141.624283 0.409375)"/>
    <use xlink:href="#ArialMT-54" transform="translate(1169.407486 0.409375)"/>
    <use xlink:href="#ArialMT-72" transform="translate(1230.491471 0.409375)"/>
    <use xlink:href="#ArialMT-61" transform="translate(1263.792252 0.409375)"/>
    <use xlink:href="#ArialMT-6e" transform="translate(1319.407486 0.409375)"/>
    <use xlink:href="#ArialMT-73" transform="translate(1375.022721 0.409375)"/>
    <use xlink:href="#ArialMT-69" transform="translate(1425.022721 0.409375)"/>
    <use xlink:href="#ArialMT-74" transform="translate(1447.239518 0.409375)"/>
    <use xlink:href="#ArialMT-73" transform="translate(1475.022721 0.409375)"/>
   </g>
  </g>
 </g>
 <defs>
  <clipPath id="p9a454b67ae">
   <rect x="67.041239" y="49.608" width="423.998761" height="226.123627"/>
  </clipPath>
  <clipPath id="pb956eeca4f">
   <rect x="67.041239" y="288.691627" width="423.998761" height="226.123627"/>
  </clipPath>
 </defs>
</svg>
